<?xml version="1.0" encoding="UTF-8" standalone="no"?>
<svg
   xmlns:dc="http://purl.org/dc/elements/1.1/"
   xmlns:cc="http://creativecommons.org/ns#"
   xmlns:rdf="http://www.w3.org/1999/02/22-rdf-syntax-ns#"
   xmlns:svg="http://www.w3.org/2000/svg"
   xmlns="http://www.w3.org/2000/svg"
   xmlns:sodipodi="http://sodipodi.sourceforge.net/DTD/sodipodi-0.dtd"
   xmlns:inkscape="http://www.inkscape.org/namespaces/inkscape"
   enable_background="new 0 0 1000 2001"
   height="507.90799"
   pretty_print="True"
   style="fill:#483737;stroke:#ffffff;stroke-linejoin:round"
   version="1.1"
   viewBox="0 0 1001 507.90799"
   width="1001"
   id="svg2"
   inkscape:version="0.48.4 r9939"
   sodipodi:docname="aitoff_joined.svg"><sodipodi:namedview
   pagecolor="#ffffff"
   bordercolor="#666666"
   borderopacity="1"
   objecttolerance="10"
   gridtolerance="10"
   guidetolerance="10"
   inkscape:pageopacity="0"
   inkscape:pageshadow="2"
   inkscape:window-width="640"
   inkscape:window-height="480"
   id="namedview19"
   showgrid="false"
   inkscape:zoom="0.11794103"
   inkscape:cx="500.5"
   inkscape:cy="252.95399"
   inkscape:window-x="0"
   inkscape:window-y="0"
   inkscape:window-maximized="0"
   inkscape:current-layer="svg2" />

utf-8<defs
   id="defs4">
utf-8utf-8<style
   type="text/css"
   id="style6">path { fill-rule: evenodd; }utf-8utf-8</style>

utf-8
utf-8utf-8
utf-8</defs>

utf-8<metadata
   id="metadata8">
utf-8utf-8<views
   id="views10">
utf-8utf-8utf-8<view
   h="2001.0"
   padding="0"
   w="1000"
   id="view12">
utf-8utf-8utf-8utf-8<proj
   flip="auto"
   id="aitoff"
   lon0="65.3146660706" />

utf-8utf-8utf-8utf-8<bbox
   h="3060.58"
   w="6037.75"
   x="-3018.88"
   y="-1489.79"
   id="bbox15" />

utf-8utf-8utf-8</view>

utf-8utf-8</views>

utf-8<rdf:RDF>
  <cc:Work
     rdf:about="">
    <dc:format>image/svg+xml</dc:format>
    <dc:type
       rdf:resource="http://purl.org/dc/dcmitype/StillImage" />
  </cc:Work>
</rdf:RDF>
</metadata>

utf-8<path
   inkscape:connector-curvature="0"
   id="---"
   data-name="---"
   data-id="---"
   d="m 592.65866,119.54686 1.18276,0.85436 1.40356,0.27504 1.75005,1.01227 1.34852,1.96579 0.12692,1.2656 -2.21006,1.65326 -2.12147,-0.17011 -2.59027,0.56904 -3.76191,-0.98726 -4.7656,-1.88902 -3.84496,0.21225 -2.48002,0.92412 -2.28859,1.98744 -4.60847,-0.23519 -0.42542,2.24109 -3.64188,0.22729 -2.01466,2.85427 1.84384,1.34619 -0.68169,2.29202 2.13982,1.56455 2.09258,2.85273 2.69147,-0.12643 2.75346,1.48228 1.63719,-0.39504 0.28288,-1.2253 2.6911,0.0169 2.3999,1.50219 3.68573,-0.44869 1.24966,-1.73684 2.25244,0.60061 1.43742,-0.30168 -0.62851,1.13014 1.28179,1.29322 -0.28023,1.2235 0.83581,2.22828 -0.0203,0.10346 -0.71859,2.10056 -0.30648,2.40938 -0.0629,0.0325 -0.1839,0.75118 0.009,2.22091 -0.36274,1.38614 0.21446,0.1607 -0.53245,0.98457 0,1e-5 -1.11071,0.77188 -2.05801,-0.11008 -2.22483,-0.6342 -0.40071,0.9696 -1.00941,-1.4291 -1.91504,-0.32049 -2.23099,0.2983 -0.90042,0.86159 -1.82088,0.97109 -1.28768,-0.42561 -2.73313,-0.80155 -2.62868,-0.71411 -3.43277,0.12173 -0.79105,-0.94702 -2.61932,-0.28855 -0.90051,-0.4793 -0.96078,0.007 -1.08267,-1.28155 -3.561,-0.52805 -1.70698,0.42801 -1.66029,1.39204 -0.6182,1.42479 0.89809,2.2128 -1.07662,1.35438 -1.18009,0.77213 -2.95204,-1.40097 -3.80358,-1.16234 -2.39004,-0.53175 -1.47924,-2.55953 -3.54319,-1.25219 -2.18932,-0.45842 -1.05505,0.26095 -3.09473,-0.96514 -1.00895,-0.44297 -0.75,-1.36955 -1.32086,-0.0369 -0.60021,-1.57258 1.55268,-1.47037 0.1257,-2.50765 -0.9259,-0.71018 -0.0933,-1.33852 1.12082,-1.4307 -0.22513,-0.55398 -2.01233,1.08646 -0.046,-1.46452 -1.7561,-0.33049 -2.6094,1.1908 -1.6837,0.18884 -1.04754,-0.66555 -2.6425,0.0398 -2.28193,1.15268 -1.26891,-0.42331 -4.09645,0.2503 -4.2007,0.52465 -2.39088,0.88211 -1.57517,1.19301 -2.71008,0.50076 -2.43524,1.5759 -1.09326,-0.0333 -2.59035,-0.64569 -2.39666,0.19084 -1.46733,-1.23412 -1.84338,-0.0235 -0.87154,1.77136 -1.83573,2.98408 -1.95009,1.18348 -2.6387,1.30312 -1.77248,1.94162 -0.44334,1.5207 -1.14448,2.48142 0.42739,3.60475 -2.34496,2.39931 -1.37327,0.76051 -2.21981,1.96095 -2.49113,0.29797 -1.4201,1.09962 -0.0519,0.0401 -1.9185,2.94167 -1.86844,1.03855 -1.11252,1.7814 -0.18493,1.54293 -0.84697,1.68324 -0.94928,0.45815 -1.65735,1.82801 -1.09798,2.03635 0.1006,0.98285 -1.012,1.50236 -1.11512,0.78012 -0.23213,1.34275 -0.21009,1.22439 1.36533,1.26552 0.62041,1.38444 -0.37344,1.44369 0.24185,1.4441 0.13033,2.86778 -0.50797,2.72749 -0.86469,1.42427 0.15659,1.56439 -0.74943,1.48475 -1.47478,2.02733 -1.27188,0.54283 1.35738,1.04205 1.05875,2.26545 -0.42164,1.28451 0.36913,2.226 0.15514,0.62148 0.84322,0.61988 -0.0341,0.44128 0.62282,0.82074 1.19346,0.19733 1.48039,1.21876 0.81424,0.47841 0.39725,0.64015 0.28465,1.28185 0.69685,0.57868 0.7218,0.37807 1.08227,1.13802 1.21363,1.71824 0.30249,2.14217 0.4801,1.05955 1.46701,1.55533 2.05019,1.17112 0.77165,0.21635 1.911,1.87153 2.43458,1.58757 2.59717,2.206 2.96205,1.3821 0.75592,-0.0248 0.55695,0.0765 2.86317,-1.05866 2.00721,-0.83317 3.418,-0.50248 1.84832,-0.0323 2.00951,0.56623 1.31191,-0.0289 2.5687,0.82183 2.59976,-0.8381 1.60363,-0.99113 4.51671,-1.6923 2.31763,-0.61718 2.37874,-0.33811 2.54082,2.3e-4 2.1633,-0.0371 2.04992,1.90362 0.96064,2.09243 1.55374,1.80789 2.30836,0.0616 1.10545,-0.64902 1.09585,0.1512 2.98686,-1.04392 -0.0267,0.79965 0.74207,0.4142 0.59596,1.29602 1.32042,0.48962 1.14112,1.91239 -0.40975,2.28533 -0.98198,3.25023 0.5422,0.43625 -0.57994,2.1458 -0.7026,2.10671 -0.63215,0.92507 -0.0944,0.96129 1.74586,2.98993 1.89705,2.38942 2.94504,2.9246 2.3365,3.0699 0.7417,2.1789 0.39021,0.8991 -0.28249,0.5623 1.41088,1.8355 0.5519,1.9405 0.81092,2.801 -0.90835,1.1459 -0.16824,0.6016 0.65992,1.7402 0.7141,1.7601 0.82445,1.0389 0.0988,1.6428 -0.36927,2.145 -0.95657,1.2854 -1.69722,1.8882 -0.71739,1.184 -1.01139,2.6065 -0.19246,1.2422 -1.07295,2.6464 -0.48869,2.5441 0.18972,1.8218 0.0749,2.2223 2.13695,2.84 0.51438,1.8221 1.2648,3.4845 1.27892,2.4039 0.99286,1.2026 0.2459,1.5832 -0.17968,3.4667 0.57447,4.4699 0.49589,2.1057 0.3544,2.8271 0.85522,2.1276 1.76369,2.2124 1.50387,3.7901 0.003,0.01 1.04159,2.4736 1.38014,2.7384 -0.20808,2.2265 -0.89545,0.5154 0.58636,1.9559 -0.23585,1.6996 0.2342,0.7848 0.1736,-0.4001 0.91575,1.3127 0.84763,0.068 0.92035,1.0529 1.15745,-0.049 1.72572,-1.0676 2.23244,-0.4184 2.80018,-1.0944 1.02683,0.1733 1.59894,-0.3223 2.65515,0.6191 1.35656,-0.5253 1.46453,0.4647 0.47802,-0.7997 1.32534,-0.1214 2.87956,-1.0657 2.1891,-1.2778 2.15558,-1.7029 3.51298,-2.9351 1.88604,-2.0532 1.02144,-1.4812 1.39835,-1.4554 0.59507,-0.4096 2.0823,-1.4309 0.93833,-1.302 0.77433,-2.4202 1.06013,-2.1121 0.50919,-1.5334 -0.64981,-0.2122 -0.0129,-1.2365 1.36859,-1.0552 3.52167,-1.5117 2.40589,-0.9396 1.3177,-1.0168 0.61869,-1.2102 -0.55359,-0.5159 0.67475,-1.352 0.55579,-2.8734 -0.50797,0.1366 0.10698,-0.8777 -0.2723,-1.7299 -0.97343,-2.2447 0.53499,-2.0854 1.23814,-0.6573 2.23148,-2.0495 1.14523,-0.5169 3.58387,-3.0971 3.34654,-1.3725 2.71303,-1.0745 2.03141,-1.7959 1.35728,-2.0286 1.10422,-2.0934 -0.32369,-1.4521 0.40164,-4.6106 -0.0912,-2.5926 0.38963,-2.9373 -0.3477,-1.3277 0,0 -1e-5,0 -0.99535,-0.6562 -0.95916,-2.9187 -0.87127,-1.8566 0.28037,-1.4061 -0.10868,-0.897 0.89626,-1.7739 -0.0435,-0.7671 -1.78528,-1.0863 -0.0893,-1.6706 1.48225,-3.6238 1.19651,-0.9682 0.6265,-1.9599 0.96058,-1.1869 0.45913,-2.0777 1.0872,-0.2135 0.73664,-1.23012 2.04227,-1.17542 0.66184,-0.69867 0.68218,-1.55796 3.17309,-3.58251 2.68112,-2.25479 4.28146,-2.95263 2.83615,-2.41285 3.25802,-4.07136 2.30662,-3.3485 2.20763,-4.38677 1.49072,-3.82606 1.08693,-3.349 0.48322,-3.23716 0.48645,-1.08684 -0.18795,-1.56909 0.0568,-1.74055 -0.16636,-0.82437 -1.07762,0.0258 -1.22275,1.04265 -1.47434,0.32349 -1.26168,0.46255 -0.90385,0.0723 0,-10e-6 -1.61088,0.12849 -0.95822,0.55737 -1.39293,0.21575 -2.41437,0.95743 -3.07146,0.39248 -2.61866,0.79225 -1.41911,0.007 -1.40584,-1.22351 -0.67907,-1.2167 -0.98198,-0.5333 -1.30529,-0.79304 1.55083,-0.72942 -0.0423,-1.22947 -0.77337,-0.90573 -1.4956,-0.86897 -1.00276,-1.00216 -1.73402,-1.6811 -1.7736,-1.65813 -4.19562,-2.72358 -1.72478,-1.40945 -1.12798,-2.68907 -2.09436,-3.37728 -1.68097,-1.05878 -1.16462,-0.70425 -1.53606,-3.48784 -0.87031,-3.01489 0.51909,-0.54494 -1.3598,-2.86169 -0.58199,-0.59088 -3.62816,-2.56398 -0.41628,-1.90292 0.44961,-0.52299 -3.00951,-3.18815 -1.16689,-1.63369 -1.28568,-1.56815 -2.88026,-4.5077 -2.19825,-2.89846 -1.70467,-3.05504 0.2152,-0.27157 2.71625,4.14071 1.45141,1.27507 1.06936,0.92173 0.51775,-0.52609 0.41286,-1.54145 0.10725,-2.22472 0.4855,-1.19561 -0.42537,-0.75275 0.42538,0.75276 0.17924,0.42116 -0.0758,1.17633 0.0983,1.0273 -0.0797,1.61666 1.31516,-0.0481 1.76594,1.97587 2.10176,2.3208 1.47994,2.15418 0.9134,0.63511 1.04528,1.50209 -0.0195,0.66681 1.20936,1.65984 1.57885,0.57187 1.4898,1.11547 2.16813,3.22163 0.1968,1.74552 0.6745,2.03659 2.30034,2.76453 1.31308,0.45716 2.25067,1.98654 1.1702,2.38584 1.86969,2.44354 1.60369,1.02927 0.39203,1.17358 0.97582,0.87336 0.54645,1.2538 0.30647,1.28633 -0.26223,0.57588 0.4715,1.34503 -0.54498,0.15335 0.96964,1.20103 0.82971,2.17726 0.56961,0.86507 0.11118,1.61776 0.93546,1.71692 1.98338,0.12184 0.86161,-0.41526 1.41332,0.0443 0.35089,-0.76046 0.7179,-0.22784 0.52456,-0.79263 0.69506,-0.18003 2.36008,-0.19312 1.732,-0.60211 1.48923,-1.26212 0.87285,0.16067 1.22291,-0.18635 2.22789,-2.14755 4.29225,-1.4809 2.59849,-1.31979 -0.1047,-1.0199 0.3144,-1.33827 1.88491,-0.85012 1.26324,-0.20022 1.68424,-1.0551 1.59692,0.24376 1.19327,-0.86626 -0.25222,-1.2102 0.93984,-0.78382 1.73852,-0.0227 0.50564,-0.65077 -0.0391,-1.4695 1.48864,-1.17208 1.27838,-0.0279 0.17851,-0.37697 -0.80125,-1.99777 0.0826,-1.5367 0.39944,-0.73459 1.28783,0.11705 0.51018,-2.09346 0.90656,-1.00144 0.21498,-0.85944 0.50944,-1.82846 -0.18027,-0.67126 -1.08038,-0.34492 -1.01192,-0.97102 -1.71213,-1.67574 -1.75955,-0.4863 -2.09554,-0.31716 -1.81759,-1.03088 -1.79696,-1.99808 -1.0634,-2.34755 0.18478,-0.55602 -0.12685,-1.24497 -0.40971,-0.24607 -0.46437,1.04858 -1.14065,1.90721 -1.45396,1.99004 -1.29152,2.08446 -1.6559,-0.0308 -2.25534,-4.3e-4 -1.99407,0.54116 -0.31135,-0.81277 -0.4431,0.1608 -0.80884,-1.11856 0.11824,-1.76979 -0.52341,-1.73912 -1.06806,-0.90253 -0.64125,0.34596 -0.29708,1.58391 0.75062,2.15608 -0.59347,-0.71478 -0.61551,-0.96185 -0.99337,-0.80552 -0.60717,-0.98539 -0.003,-0.99794 -0.5004,-1.21875 -2.1606,-1.18117 -0.74744,-1.02451 -1.49383,-0.6292 -1.76316,-2.51508 -1.49844,-2.1997 0.0326,-0.68372 -0.93658,-1.28392 1.58951,0.0847 0.61418,-1.19311 1.95841,0.91428 1.24827,-0.53671 3.16195,3.87408 2.61293,2.747 2.79971,0.74691 3.36435,2.18186 3.54804,0.86106 2.23735,-1.55189 1.8689,-0.61805 1.43844,0.47625 2.28603,3.62105 3.13844,0.26624 3.13408,0.56874 5.32935,0.69556 3.63761,-0.58543 4.3316,-0.25015 4.73181,-0.79667 2.86874,2.21231 1.54009,2.14557 2.23375,0.67933 4.02646,2.44248 1.18963,1.16148 -0.95775,1.15939 4.70942,3.55164 2.04326,0.28692 3.41413,-2.00497 1.4263,2.85247 1.08834,3.72283 1.91655,3.90543 2.66648,5.93173 3.52921,4.16028 0.90438,1.91751 1.48377,3.85219 2.06161,2.93884 1.2547,1.44339 1.61106,3.1081 1.96556,4.32866 3.0934,2.85989 1.03702,-0.91758 0.6783,-2.14204 2.4817,-0.93928 -1.02392,-1.01242 0.92299,-2.41437 1.45108,-0.18622 -0.94531,-5.31841 0.59949,-3.00763 -0.71422,-2.59095 -1.54041,-4.04654 0.24039,-2.41318 1.26479,-0.21324 2.22142,-1.21629 1.18158,-0.82632 -0.39905,-1.44168 2.17386,-2.1677 1.47962,-2.07136 1.88771,-3.84146 3.21725,-2.31573 0.7851,-1.94124 -1.04667,-2.36194 3.09587,-0.84202 1.86207,-0.0655 -0.0713,-1.17649 1.1617,0.22184 0.90596,0.30027 0.16159,-0.59939 1.41228,0.57436 0.12768,-1.81421 -0.79286,-1.29088 2.53487,-0.0273 1.90687,1.77872 1.14666,1.49947 0.8104,1.61194 1.43204,1.61586 2.93627,2.49447 1.75689,0.32082 0.0938,1.17244 3.48315,3.58223 1.59879,2.98001 0.3072,4.03268 1.95945,0.67684 1.65415,0.21644 2.45366,-2.45138 1.30298,-1.71277 2.07495,2.62495 1.75367,4.07844 2.00709,3.85427 1.59039,1.64229 0.65259,3.56241 1.40112,1.89855 -0.32757,2.53186 0.76668,2.41756 -0.25811,3.15913 0.034,2.04775 0.83065,1.80372 0.16484,-1.93467 1.63673,1.51929 1.80299,1.81652 0.71991,1.61571 1.30193,1.23825 0.80782,1.3827 -0.044,2.40195 1.21958,1.77955 0.63556,2.72452 1.82767,2.18877 0.44019,1.68005 3.54256,2.60189 2.81409,2.44563 2.04358,-0.23033 0.0212,-1.12652 -1.262,-2.93647 -1.06715,-0.90771 -0.33542,-1.96472 -0.36407,-1.139 0.18443,-1.51492 -0.37279,-2.23413 -1.44428,-2.20158 -1.93666,-1.96864 -0.69998,-0.29627 -1.71408,-1.6849 -1.79227,-0.34674 -1.87188,-1.85097 -0.96237,-2.83458 -1.68421,-2.96708 -1.87977,-0.0508 -0.64665,-2.36517 0.32848,-2.92185 0.42582,-4.83839 -0.70533,-3.61026 2.47678,-0.12206 0.26486,2.59447 2.40159,-0.15656 2.9227,1.41267 2.25202,3.35719 1.54282,1.68347 2.48719,0.40274 2.51454,1.81699 -0.3503,2.27844 1.43546,2.10396 2.96858,-3.2122 1.73452,-2.86414 2.75992,-2.27505 1.82146,-2.30325 -1.23572,-5.92284 -3.2281,-6.13347 -2.60951,-2.58903 -3.25126,-1.91445 -4.20502,-4.1804 -3.48432,-3.35035 -0.35035,-2.32563 0.90808,-3.26793 2.30672,-3.08348 1.01617,-0.6334 4.12129,0.7868 -0.0318,1.33155 1.81952,2.35924 1.41556,-0.30338 -0.72497,-3.58359 2.5999,-0.73158 2.91558,-1.97256 0.65479,-1.78719 1.48834,1.00878 0.8516,-1.62682 2.79346,-0.64561 2.12144,-3.16303 1.80655,-3.45355 -0.0567,-4.26494 -0.80209,-4.63924 -0.6548,-3.8463 1.19639,-0.46799 -1.29083,-2.73521 -1.66064,-2.77322 -2.24937,-0.85121 -1.96434,-1.70014 0.82565,-1.10872 -1.94382,-2.47261 -3.73659,-2.3187 -4.00649,-2.81594 -3.73189,-3.09113 -4.1178,-1.42796 -0.85813,-2.45082 0.73601,-1.96737 -0.59206,-1.91662 2.34059,-1.41618 -2.04244,-1.63809 -1.54085,0.15016 -3.24228,-0.93329 -0.2745,2.70243 -2.70182,-0.6615 -1.47891,-1.4303 -2.35606,-0.23731 -3.31113,-1.97535 -0.36158,-1.66849 2.00888,-0.50587 -0.78311,-2.28146 0.0854,-2.62939 0.64107,-1.45008 2.95991,1.46399 0.59487,2.44206 1.77141,1.16627 0.37644,1.68108 1.45888,-1.27533 0.0192,-1.77506 2.01799,-1.4679 1.95813,0.67652 1.64447,0.12251 0.71431,0.50008 1.31748,1.83668 0.82237,0.55544 -0.11758,0.47008 0.88383,1.52822 1.13179,0.4144 0.88266,0.1983 0.70784,0.59738 0.37492,-0.38149 -0.36436,-0.65643 1.72047,0.43155 4.39628,2.52757 -1.11683,0.83382 4.3766,3.24727 1.94543,2.54015 1.94905,1.7588 1.83095,-0.61491 0.54557,-1.67272 1.46927,-0.98001 -0.92885,-1.9658 -3.86981,-3.79749 -2.77058,-2.02933 -6.01559,-3.50419 -2.78451,-1.19594 -1.43947,-0.36702 -0.1406,-0.40343 -1.4848,-1.40912 -0.0454,-1.03999 0.81472,-0.80042 -0.29717,-1.10563 -0.28482,-0.64011 0.25171,-0.92451 -2.82408,-2.284 -0.70437,-1.21176 -0.44104,-1.26307 1.01071,0.0286 5e-5,2e-5 -2e-5,-2e-5 10e-6,0 -2e-5,-1e-5 -1.00594,-1.12561 -0.27594,-2.90528 3.24649,1.26618 1.20698,-0.32007 0.1912,-2.4614 -1.26134,-2.1646 -2.50043,-4.25632 -2.79839,-4.27324 -2.63742,-2.30097 -4.34897,-5.16468 -7.27539,-5.04661 -6.04206,-3.59133 -4.07266,-3.31802 -4.65292,-2.45299 -8.15957,-2.45291 -1.96562,0.34206 1.75152,1.7349 -2.64783,-0.17756 -4.09295,-1.55745 -3.00504,0.37228 -7.6238,-8.38304 -7.35149,-6.80575 2.12427,-2.35908 4.64757,-1.05432 -1.74485,-1.89513 2.7174,-0.39282 4.61136,1.9132 1.08197,-1.06598 0.73947,-1.84115 -4.97963,-1.13571 -8.88967,-5.4682 0.0396,-2.15676 9.45255,2.54632 -5.49091,-4.00664 -5.4847,-2.24688 0.38703,-0.8394 9.62591,3.73112 4.05694,2.90802 5.50197,3.49398 6.68831,4.2011 -0.23567,1.43299 3.0234,1.25852 2.90977,2.04923 8.28702,4.02587 14.55495,5.90189 9.43655,3.95531 4.64272,1.80283 -3.57739,-3.54829 -5.85715,-3.08912 0.43598,-1.5582 -6.84534,-3.39961 -1.1869,-2.42886 -3.33449,-0.93083 -5.06686,-2.50326 0.80496,-0.63917 -9.78571,-3.89897 -2.75035,0.0713 -2.81855,-1.01908 -5.52813,-3.12323 -4.34482,-1.80997 2.24545,-0.41272 -2.19586,-1.58687 3.10652,0.64405 -3.44339,-3.3716 6.36309,0.81573 -3.07402,-1.29347 -3.44433,-2.27531 -4.20938,-2.48384 -0.2517,-0.77566 -3.99244,-3.26409 2.93847,-0.63053 -1.96293,-0.71131 -3.40203,-0.7948 -2.45102,-0.28853 -7.01016,-1.33798 -4.82736,-0.562 1.32065,-0.57292 -2.91053,-1.56953 -0.0406,-0.0143 -33.28977,-7.07505 -4.21697,-0.04 -5.122,0.55789 -0.34477,1.04698 -3.68752,0.95117 3.43567,0.97152 5.59784,0.76713 1.98541,1.15182 -8.05515,-0.82545 -0.067,1.04012 -2.55364,0.46211 -0.75076,0.81358 0.85412,0.9644 -2.92364,-0.0237 -5.64158,-1.43986 -3.68964,-0.43511 -2.36419,0.48389 -0.85362,1.94326 -7.33245,-0.50215 -4.97721,-0.84231 -10.17843,1.82658 2.28072,1.32566 7.08925,1.6933 -2.11122,0.26706 1.45088,0.85064 -3.5077,-0.005 0.61772,1.15418 -4.23172,-0.45618 6.32324,2.64581 -3.91553,-0.39278 -6.16626,-1.35889 -2.35388,-1.11202 -4.62274,-1.26092 -4.65531,-0.66842 -1.06602,0.47398 -2.63719,0.21743 4.93264,1.72012 -4.07869,0.85134 -3.13281,-0.99989 -3.41968,0.48321 -0.24274,0.78639 1.23744,0.72212 -4.28583,-1.3647 0.45965,0.67159 -2.64735,-0.21708 -1.78157,-0.0218 -1.20016,-0.88027 -1.46885,-1.92436 -1.06981,-0.94175 -3.09788,-1.22968 -2.8851,-0.6507 -4.49791,-0.58473 -1.95082,0.60478 0.8777,0.75342 -3.16415,-1.07487 -2.37427,0.11576 -0.61853,-0.84169 -3.01647,-0.39841 0.93784,1.41158 1.83619,1.18701 2.28266,1.07629 -1.382,0.33162 1.31157,1.73254 -1.82425,-0.38303 -1.45524,0.73993 1.18598,0.74048 -1.36277,0.84126 0.92485,1.61956 -0.81117,0.28823 2.18487,1.89735 3.20169,1.18407 -1.33118,0.76271 -2.39062,0.34517 -0.7051,0.85294 4.74449,2.78664 4.48778,2.03034 -4.31561,-1.14953 -1.87408,0.53555 -0.11707,1.36506 3.37453,1.85317 -1.87663,-0.2897 -3.44567,-2.66681 -2.7766,-1.38855 -0.40486,0.14942 3.08766,1.86502 0.75403,2.14296 4.56107,1.96877 2.90407,2.8847 2.35656,1.47413 1.6121,0.01 1.89532,1.90152 2.81778,1.44458 0.63764,1.48848 1.428,1.42206 -0.54074,0.93548 0.71735,1.08064 -2.03402,-0.1809 -2.41498,-4.32524 -1.88437,-1.9226 -3.57711,-1.4683 -4.80552,-3.78912 -2.9952,-1.8419 -1.88403,-0.75338 -2.10586,-2.36253 -2.38469,-1.4616 -3.68096,-0.26379 -0.01,0.65416 2.67496,2.57717 1.21162,2.78485 1.14719,0.8739 3.31314,2.05508 1.22899,1.36536 1.78165,0.058 0.76514,0.58016 3.06183,1.2756 0.9531,1.57147 -8.29675,-2.52489 -2.69393,-0.63479 -4.51225,-0.36593 0.38494,1.00043 3.06254,1.4494 0.56341,2.03334 -3.22783,-1.50636 -0.67993,1.38996 -2.32811,0.35857 0.004,1.06683 -1.89757,-0.11453 -0.36139,-1.85008 -1.09214,-0.0309 -2.30696,2.90505 -1.64432,1.62574 1.15,1.84303 -1.65658,0.81562 -1.85065,-0.87573 -1.24023,-1.58201 1.43158,-0.50815 -2.04513,-1.51866 -4.39434,-0.57854 2.3208,1.6781 0.62237,1.75994 2.42412,1.59813 0.62558,2.03027 -2.05121,-0.88562 -1.42403,-0.0569 -1.46588,3.06289 2.36018,2.02169 -0.82089,0.79268 -4.72819,-1.52473 -0.3085,1.15183 1.63846,1.17089 0.61655,1.40537 -1.63576,-0.6647 -2.46592,-0.74678 -1.74459,-2.92698 -0.85174,-1.32475 -3.53219,-1.94871 0.83939,-0.43148 7.7009,1.73568 1.85299,-0.93891 0.55401,-1.6244 -1.41473,-1.89212 -1.99015,-1.27192 -7.16704,-2.84431 -3.97253,-0.42953 -3.11605,-1.58966 -0.75249,1.07961 -3e-5,3e-5 -2.37407,-1.71337 1.17996,-0.86603 -4.95692,-1.86203 -1.88782,0.69299 -2.27841,-0.0113 -0.86082,2.47166 -2.13641,-0.06 -2.33731,1.37364 -2.49458,3.74208 -1.71503,2.24018 -2.19517,5.66241 -2.03843,4.08359 -2.6629,3.03474 -4.00032,2.48027 -1.36656,1.87416 1.0416,6.66591 0.87647,3.10191 2.63793,1.44663 2.35398,-0.70735 3.09926,-3.39622 1.45971,1.75284 2.02342,4.06277 2.09801,3.25042 1.06086,2.72108 2.20547,-0.17854 0.65151,-2.31646 2.35462,0.22538 0.48737,-2.7347 -0.40421,-4.86999 1.69642,-0.72826 0.7703,-3.30783 -2.07313,-1.55166 -1.72999,-1.9993 0.13874,-4.10276 2.37734,-2.58538 1.74021,-2.41124 -0.83754,-1.75669 0.74977,-2.06945 2.23155,-0.92476 2.60193,1.26677 0.6545,1.21058 -0.76821,0.64873 -2.36892,3.27698 -0.82011,1.86785 -0.22203,1.70905 1.63308,2.57386 0.52213,2.85767 1.95939,0.88688 1.51316,1.53748 2.61898,-0.72049 2.64234,-1.18724 3.01515,-0.37196 1e-5,-1e-5 2.36592,1.28514 -1.32671,1.6891 -4e-5,-4e-5 -1.77531,0.16766 -2.0786,-0.3941 -2.05736,0.5115 -1.95582,0.89248 0.69682,1.65347 1.47856,0.98282 0.54107,-0.39003 0.35983,1.71275 0.37263,2.23212 -1.47003,0.11167 -2.1301,-2.10617 -1.43351,1.04735 -0.39181,1.84558 0.53992,2.17828 1.07243,2.41735 -2.42096,1.02039 -0.12522,1.28572 -1.89529,0.0171 -0.31339,-0.70118 -2.0532,-0.43598 -2.24342,1.04053 -2.80385,1.40768 -1.19913,0.87778 -1.09325,-0.90192 -2.40696,-1.09888 -0.98261,0.81178 -1.92852,0.57662 -0.11953,-1.02644 -2.06905,-0.64316 -0.17523,-1.11674 -0.70208,-1.39985 1.10427,-2.10231 0.60856,0.30491 0.30805,-1.09815 -1.08246,-0.42079 -0.3358,-0.8059 0.42075,-0.95045 -0.14943,-1.48759 -1.36973,0.83909 -0.54777,0.80722 -1.61741,0.20236 -0.43851,0.87428 -0.22843,0.78431 0.37052,2.95447 0.95571,1.59457 0.267,1.63829 0.56827,1.07797 -1.19917,1.44184 -0.43248,-0.63317 -1.64719,0.17531 -0.33637,0.61616 -1.66558,-0.0661 -2.66161,1.23138 -1.56629,4.26385 -1.03185,0.79956 -8e-5,-1e-5 -1.64364,0.57695 -1.80675,0.58881 -0.58977,2.37002 -4.94355,2.25532 -1.99136,-1.24392 0.61459,3.27366 -3.60072,-0.75529 -2.82167,0.61449 0.11487,2.10937 3.29895,1.12777 1.58353,1.46794 2.2422,3.03852 -0.50615,5.75854 -1.22015,1.73163 -3.73779,-0.10731 -1.92738,0.14296 -2.4377,-0.50758 -3.10273,-0.003 -2.78673,-0.54575 -3.44756,2.05456 0.8435,1.26468 -0.28988,2.05864 0.0238,0.97604 0.39026,1.04325 -0.0434,1.22592 -0.63509,1.73451 -0.26211,1.16751 -1.04603,1.0408 -0.34513,1.89173 0.49743,1.10169 1.07425,0.27678 0.10233,1.78056 -0.53752,2.26022 1.30067,-0.3077 1.28052,0.41692 1.04128,-0.74318 2.28671,0.4635 0.62084,1.66769 0.8779,0.98223 1.21269,0.24635 0.99745,-1.08785 1.59598,-1.01403 2.3665,0.0636 3.15496,-0.0357 1.7848,-2.21973 1.86572,-0.57415 0.53971,-1.87869 1.41413,-1.28943 -0.94622,-1.652 0.93137,-2.35282 1.46616,-1.6032 0.20597,-0.97265 3.037,-0.61576 2.19622,-1.93167 -0.17234,-1.67887 0.21713,-1.74175 3.34464,-0.95274 4.61449,0.75385 1.98776,-1.65038 0.94249,-0.22044 1.22165,-1.35462 1.02083,-0.40143 1.95103,0.93427 1.17575,0.32304 1.00444,2.85082 1.75647,1.64695 2.35213,1.85537 1.9959,1.28106 1.77704,0.16223 1.17258,1.14799 1.59948,0.50261 0.86935,1.23838 1.04381,0.34472 0.93104,1.44827 1.17242,1.6628 -0.44496,0.62729 -0.29366,1.5613 0.1046,0.88564 0.99321,-0.23937 0.96612,-2.50588 0.99056,-0.18929 0.0679,-1.51678 -1.89783,-1.04317 0.73723,-1.89127 2.15061,0.43836 1.54395,1.32738 0.28289,-1.04634 -0.33525,-0.53628 -2.28517,-1.4715 -1.87801,-0.84362 -2.27408,-1.0089 0.57776,-0.58852 -0.66765,-0.62978 -1.83984,0.0497 -2.92051,-2.29007 -1.47906,-2.37416 -2.34115,-1.42456 -0.92876,-1.46202 0.17804,-0.8283 -0.30263,-1.43426 1.69833,-1.05507 1.84743,0.39204 -0.46444,0.27083 -0.0739,0.0481 0.0873,1.00551 0.80293,0.95778 0.51907,-1.26085 1.52107,0.43095 0.18727,0.97625 1.22116,1.19864 -0.42927,0.22458 2.25429,2.09536 2.25037,0.82046 1.51602,1.01606 2.37154,1.02711 0,0 1.11013,0.5538 0.82335,0.932 0.53163,0.21394 0,1e-5 0.4772,0.44805 -0.16294,0.90649 0.14248,1.98165 0.44342,1.37657 1.49517,0.94555 0.15818,0.6368 0.44452,0.19431 0.30603,0.82216 1.52783,1.62731 1.18233,1.31292 0.76391,1.92085 1.32461,2.30153 2.2532,1.21906 1.64395,-0.0725 -1.40464,-2.54093 1.50732,-0.34036 -1.00389,-1.46379 2.41629,0.71592 -0.35937,-1.63959 -1.37295,-0.8128 -1.61372,-1.30548 0.78797,-0.65776 -1.47596,-1.33276 -0.87819,-1.71992 0.32136,-0.64754 1.56733,1.46315 1.33548,-0.0364 1.11801,-0.50435 -1.99993,-1.58881 2.71467,-0.83038 1.30027,0.24044 1.46584,0.042 0.1062,0.60024 1.06235,1.33169 1.62139,-1.62199 0.79338,-0.92879 2.77149,-0.24715 0.24524,-0.7258 -2.29967,-0.87352 -0.56558,-1.10835 -1.18127,-1.63362 0.30012,-2.10459 0.86784,-1.2427 -0.34733,-3.52531 0.76513,0.24794 0.91262,-0.66387 -0.27454,-0.74714 1.07855,-2.21036 0.31826,-1.63059 1.92746,-0.43823 0.50849,1.07702 3.69295,0.59396 0.87183,0.63889 -1.81253,1.05381 -0.21293,0.57309 2.73771,0.75183 -0.0446,1.38677 1.45683,0.54067 2.49511,-1.81167 2.28213,-0.61193 0.0571,-1.05814 -2.21791,0.27615 -1.34373,-0.65407 -0.77755,-1.80323 1.50291,-1.16912 2.00058,-0.2485 1.09267,-1.01039 1.65176,-0.31764 1.76527,-0.56687 0.32064,0.63336 -2.75158,1.34701 1.68557,1.09236 -0.90541,2.52227 -1.45581,0.53978 2.57577,1.6226 2.99382,0.98008 3.84381,2.32798 z m -4.551,151.92803 0.15447,-0.4924 -0.79278,-0.785 -0.29986,-1.6078 -1.68783,-1.6029 -0.90845,-2.0975 0.55768,-1.2296 -0.72692,-1.6467 0.63499,-4.6692 0.0122,0.034 0.9937,2.7885 -0.0176,0.1298 -0.17279,1.2617 0.54058,0.4245 -0.13619,1.245 0.51594,1.1545 -0.70101,1.1169 2.23943,1.9961 0.13755,1.8122 1.2935,2.9987 0,0 0.20793,0.4876 -0.4878,0.1624 -0.58656,-0.6134 -0.96741,-0.2411 0.19718,-0.6263 z m 10.36962,-24.40473 0.69911,1.11219 -0.19422,2.17242 0,2e-5 -1.43694,1.30707 -0.96245,1.32375 1.12801,1.0076 -1.65982,0.71848 -0.35528,-0.34276 -1.67454,0.17076 -1.30103,0.655 -0.7863,-1.12979 0.5693,-2.04842 0.10233,-1.76249 0,-5e-5 -0.14148,-1.13313 1.32691,-1.71088 1.83061,-0.41869 1.22963,-0.69854 1.49977,0.57693 0.12639,0.20053 z m 34.74712,-110.92258 0.0634,0.70474 -3.49559,0.98817 -3.69272,-0.32753 -2.2948,-1.39272 -2.55673,-0.49603 -1.63939,-2.13214 -0.65845,-1.45413 0.59611,-0.73388 -0.0204,-1.05249 -0.56348,-2.30682 1.84526,-0.3446 -1.07767,-0.75236 -1.15891,-0.0763 -2.11333,-2.01804 -1.91268,-1.47753 2e-5,-4e-5 -4.0653,-3.31226 -0.67098,-1.98611 -3.33242,-2.65983 0.78943,-3.14973 1.90716,-0.61303 0.12976,-1.79711 1.72191,-0.74412 1.83256,-1.45274 2.23012,0.58891 2.09229,-0.29157 1.39001,1.78419 1.15353,2.88705 -2.16741,-0.30871 -1.63727,0.59952 1.00974,2.14882 -2.3207,-0.141 0.54842,0.95036 1.61154,0.6645 2.32015,2.57229 3.14212,0.83649 0.94256,0.99711 0.0304,1.2608 0.47571,0.70945 1.63792,1.86329 -0.79811,-2.17169 1.49268,-0.86683 1.49556,1.64284 2.56599,1.66314 -1.60386,1.07059 -2.556,-0.5898 0.63477,2.51468 1.65095,0.0796 0.31501,2.05549 2.31719,0.89113 1.03119,3.11019 1.36283,2.06577 z m -33.11603,144.79691 -0.91465,2.7578 0.13205,3.3655 0.0134,0.3917 0.52179,0.1293 0.42035,1.5759 -0.10531,0.3624 -0.88816,-1.1551 -0.5679,0.727 -0.38918,-0.6345 0.11997,-1.1013 -0.5709,-0.8663 0.14317,-1.2748 -0.65634,-2.1677 0.96151,-1.6204 0.0935,-3.5372 -0.87735,-1.9031 0.11402,-0.3243 0,0 0.2005,-0.5717 1.40615,1.5815 0.0103,3.0838 0.849,1.1331 -0.0159,0.048 z m -224.36392,132.2051 -0.39018,-1.537 -3.22137,-0.4476 -3.92354,-1.4785 -2.80228,-2.0784 -1.87496,-1.271 -1.66384,-0.1961 -0.74142,1.3977 1.13008,2.0616 0.22369,1.4432 -3.42946,-0.7541 -4.42553,-1.6321 -2.128,-0.4257 5.60986,2.95 3.34455,1.335 3.81233,1.3458 2.29968,0.1949 2.11596,0.717 1.28812,0.1107 0.97536,-0.01 0.76597,-1.0741 -0.41273,-1.2383 1.82554,0.9203 1.62217,-0.3337 z m -12.91239,-7.8077 0.94079,0.061 -2.69344,-1.5521 -3.11434,-2.9701 -0.27377,-1.4562 0.94191,-1.3425 -1.27339,-3.5713 1.25163,-1.8895 -1.14344,-2.706 -2.45357,-0.4114 -3.62566,-1.968 -0.91478,-2.2716 0.69011,-1.6653 2.06982,-0.1868 -0.50995,-1.6272 -1.56659,-3.0051 0.67422,-1.9879 1.53888,-1.0831 -1.59135,-1.4876 -0.69682,1.0318 -2.07856,-0.7727 -2.0701,-2.9274 0.44423,-0.8459 2.85493,0.9145 2.14455,-0.5855 0.81496,-1.1452 -1.25307,-1.4664 -0.71455,-2.2575 -1.43569,-1.739 2.77417,0.1221 4.47534,-0.9329 2.78494,-1.8145 0.56855,-3.9421 -0.52317,-1.4562 -2.10911,-1.2054 -0.55713,-2.0671 -4.25726,-2.371 -0.48994,-1.5642 2.22248,1.5626 1.65489,-0.1885 2.84153,1.1507 1.21711,-0.3908 2.0844,0.4955 2.15874,-1.7945 0.36303,-1.9173 1.03191,-1.7762 0.1337,-2.8738 1.25277,-1.4649 1.46652,-2.4489 1.22878,-5.3311 1.34564,-1.7003 0.17787,-1.4671 -0.34631,-3.0093 -0.88796,-1.6201 -0.19869,-2.2257 1.52822,-3.0128 2.61469,-2.4553 2.83782,-0.9531 1.6238,-1.3689 4.04391,-1.2502 2.9626,-0.07 0.29239,-1.7827 1.97423,-1.3305 -0.0822,-3.0529 2.15617,-3.9042 -0.11444,-3.9452 0.71233,-1.178 0.0234,-1.946 0.18693,-4.5501 -0.84618,-5.513 0.56195,-2.1768 0.70369,-0.067 1.85439,-2.5772 1.52178,-3.345 3.71562,-4.1281 1.32864,-1.9295 0.86179,-4.8608 -0.56576,-1.7728 -1.13927,-3.7327 -1.07978,-0.9213 -2.46949,-0.106 -2.25236,-0.8377 -3.7923,-3.2824 -4.33196,-2.4252 -4.31207,0.1283 -5.65695,-1.54786 -3.33834,0.92296 0.43804,-1.64233 -1.43931,-1.73455 -4.82112,-1.80592 -3.64508,-1.06546 -2.17808,1.9565 -0.12584,-2.98601 -5.11044,-0.46735 -0.89845,-0.90033 2.18994,-2.45603 -0.0491,-2.06019 -1.53628,-0.49658 -1.47118,-5.23046 -0.64677,-1.65688 -0.98896,0.13566 -0.42173,-1.22772 -2.91897,-2.5477 -2.07908,-0.72591 -0.95768,-0.33795 -3.04379,-0.83329 -2.34239,0.19615 -0.34552,0.53937 -3.40959,-0.63372 -1.06172,-1.05994 -1.42886,-1.48691 -1.07768,-0.0831 0.0493,-1.55508 -1.59741,-1.98894 -1.77444,-1.13646 -1.0501,-0.72841 -1.50102,0.0473 -0.18902,-2.4325 -1.99104,-1.52445 -2.25754,-0.26617 -0.79119,-1.44989 2.5426,-0.85254 -3.4243,-0.0203 -3.55888,0.11759 -0.13752,0.76586 -1.72904,0.92227 -2.13405,-0.41651 -1.4446,-1.39765 -3.09279,0.25455 -2.55778,-0.0775 0.0381,-1.01651 -1.58639,-1.74827 -1.98794,-0.0937 -0.66123,-2.18095 -1.16107,0.94585 0.15552,1.45744 -3.74617,1.17254 -0.21145,2.33517 0.72946,1.1017 -0.9454,2.21449 -1.26008,0.17777 -0.7469,-2.46791 1.52293,-1.76551 0.28413,-1.61097 -0.70191,-1.41963 1.73005,-0.32121 0.20304,-0.72571 0.72979,-1.02333 -0.60209,-0.82786 -0.97144,-0.21362 -1.63797,1.45106 -1.22693,0.66314 -2.50267,1.50708 -2.18399,-0.31024 -0.33469,0.64005 -1.8043,0.017 -1.87099,1.40198 -0.93313,2.61245 -0.17863,1.02692 -1.22502,0.30709 -2.4477,2.13067 -1.46665,-0.12693 -0.9587,-0.88272 -0.80023,-0.95777 -1.19325,-0.56583 -1.57813,-0.14036 0.15296,-0.30535 -1.54985,-0.21779 -1.11758,0.91494 -1.83091,0.59566 -1.33284,0.76751 -1.44104,0.19816 -0.67395,-0.7891 -0.30792,0.25016 -1.12091,-0.16565 0.15871,-0.6658 -0.85115,-1.15239 -1.12211,-1.37644 -0.88676,-1.29621 -0.41471,-1.73279 -0.34024,-0.53009 0.0292,-0.85661 0.73791,-0.79062 -0.0303,-0.83858 0.54036,-1.34106 0.49757,-0.29672 0.23035,-1.4209 0.0258,-0.81695 0.40358,-1.38518 0.59665,-1.25698 0.90406,-1.04983 -0.007,-1.16116 0.31788,-0.69708 0.31749,-0.29306 -0.51832,-0.89201 -0.89475,-0.51986 -0.62401,-0.73635 -0.69665,-0.6216 -0.42539,-0.0868 -1.15831,-0.48748 -0.63102,0.2517 -0.75202,0.0449 -0.61033,-0.24105 -0.84565,-0.19925 -0.42626,0.34073 -0.99678,0.31384 -1.31643,0.0309 -1.2202,-0.33843 -0.47809,0.13982 -0.18697,-0.26912 -0.81304,0.0127 -0.77028,0.53303 -0.25594,-0.13593 -0.70617,-0.43936 -0.37496,0.46368 -0.74891,-0.61295 0.87134,-1.07794 0.53367,-0.0797 0.79521,-0.81916 0.80402,-1.58957 -0.0829,-0.31121 0.64248,-1.12173 -0.0886,-0.50156 0.88684,-1.35023 0.32689,-0.85956 -0.5192,-0.0396 0.14342,-0.46538 0.5959,-0.0249 0.4335,0.84673 1.51278,-2.43562 0.88089,-1.34585 -0.31465,-0.57588 1.33618,-1.88941 2.15405,-1.79727 0.66024,-1.51225 -0.39804,-0.70367 -1.75143,0.17545 -2.36435,-0.24485 -3.16072,0.57105 -2.16585,0.72572 -0.82802,0.90135 -1.22313,2.65664 -1.32406,1.82066 -2.20966,1.20897 -1.9263,0.45788 -2.26567,0.46801 -2.21708,0.21461 -2.73447,0.77136 -0.66746,-1.40411 -2.61609,-1.01158 -0.48525,-1.64583 0.0662,-1.87472 -0.85375,-2.50706 0.49923,-2.53236 -0.16189,-1.6247 0.31083,-1.78734 0.97248,-1.55341 2.23169,-4.28883 1.60507,-2.27264 2.45656,-2.72984 -1.07458,0.0164 1.0746,-0.0164 0.0697,-1.12496 0.68571,-1.54284 1.22684,-2.19839 1.39501,-1.3837 2.26805,-1.39974 3.33796,-1.15151 3.68732,-2.14585 2.57794,-0.5531 1.71494,-0.0858 1.43745,0.88402 2.45292,-0.20686 0.98221,1.81374 1.81067,0.24605 1.29038,-0.51769 0.70047,0.53687 0.71394,-0.37278 -0.20571,-0.66083 0.74607,-1.26439 0.008,-0.86772 1.32871,-0.4013 2.06269,-0.0575 2.06774,0.52533 3.09728,-0.16349 1.17964,0.8924 0.46613,1.54252 0.37744,0.18955 3.33044,-1.21312 0.74917,0.54939 0.67305,2.73438 -0.1237,1.75326 -1.53471,2.01959 -0.18652,1.23921 0.1182,2.45247 0.20703,2.75575 0.69732,0.77503 -0.1617,1.38594 1.15238,0.45352 0.95983,-0.3441 1.46353,-1.85092 0.63473,-1.19621 1.00204,-2.07885 0.40304,-3.66214 0.6183,-1.33465 -0.0897,-2.2621 0.46812,-2.69841 0.65908,-2.17254 1.55617,-2.15765 2.17988,-1.73171 2.22043,-1.35232 3.85015,-1.77611 0.92998,-0.99813 1.89064,-1.02398 1.34931,-0.0995 2.63757,-1.66041 3.06181,-0.70355 2.84664,-2.13103 1.4334,-3.05843 0.37696,-1.06765 -0.56452,-0.26601 1.66869,-2.88628 -1.02209,-1.11332 1.26907,0.60824 0.71125,-1.959 1.29555,-1.2647 -1.32885,2.53064 0.49151,1.25692 -2.00442,1.99466 0.14537,0.13817 2.82648,-2.30086 1.49045,-1.10826 0.67878,-1.14204 -0.24537,-0.58623 0.55357,-1.66412 0.2834,0.81966 0.41553,0.20116 -0.31634,0.78839 3.182,-2.1693 1.89755,-2.11356 -0.59141,-0.19746 1.25028,-0.76973 -0.31064,0.3621 1.47653,0.12283 3.81535,-0.61918 -0.31572,-0.6257 -3.75042,0.26856 2.4884,-0.69853 1.43202,-0.031 1.0963,-0.0629 2.03497,-0.37516 1.06423,0.15218 1.85738,-0.35285 0.72929,-0.83639 -0.25537,-0.72072 -0.46406,1.1088 -0.90044,-0.15543 0.28152,-1.64567 1.07337,-1.57835 0.8305,-0.63609 2.37727,-1.66109 2.94517,-0.67048 2.96718,-0.82375 3.31763,-1.22961 0.27201,-1.00322 2.6761,-0.14803 3.57096,0.20209 -5.41975,2.12134 -1.53349,2.5143 1.56485,0.358 3.84058,-1.92787 2.95415,-1.01664 5.98122,-1.36465 3.8967,-1.71571 -0.74512,-1.17657 1.19855,-2.14403 -4.26842,3.13043 -3.87624,0.13137 -1.8545,-1.71079 0.80142,-2.28392 1.53624,-3.23112 3.37252,-1.79311 -0.7988,-1.60697 -3.29914,10e-4 -6.17805,2.02924 -6.27262,3.5457 -2.16738,0.30965 4.48178,-2.48671 5.95921,-3.59976 3.60755,-1.04429 3.30448,-1.93636 2.2492,3.9e-4 3.02425,0.30921 3.90704,1.0136 3.77932,-0.17044 4.20146,-2.1774 4.0168,-0.7536 2.12334,-0.90175 2.17667,-0.97378 2.0759,-3.27872 -0.0158,-1.1619 -1.22453,-0.51669 1.02036,-2.5217 -0.52201,-1.03472 -2.40447,-1.02902 -0.36149,-1.81494 -1.09941,-1.87357 2.22454,-1.73828 1.00265,-3.65977 1.06384,-3.90658 1.10274,-2.70349 -2.35092,1.20151 -4.58956,2.97288 -3.97261,1.30302 0.39282,-1.83766 -1.09543,-0.63629 3.09654,-3.68101 2.53012,-2.38649 -2.58834,-0.58764 0.72116,-1.16587 -0.0742,-1.90404 -0.32047,-1.15757 -2.11036,0.56045 -1.23288,-0.50211 -1.64941,-1.15261 -1.83143,0.48991 -4.76579,4.48687 -2.27592,2.67151 -5.30551,2.70885 -0.3602,2.43934 -1.45631,2.5966 -1.87089,1.94263 -3.05214,1.88009 -4.10607,1.75751 -4.2905,0.96996 -0.27563,1.69941 -3.56954,4.72625 -3.9118,2.87698 -2.39804,0.76739 -0.16766,-3.14914 1.93704,-3.45008 2.48224,-3.00315 2.98207,-2.46898 -1.63137,-0.55714 -2.73911,-0.59635 -0.47572,-1.49715 -1.25142,-1.13039 0.38977,-1.55426 -0.36781,-1.36585 -1.55591,-1.7587 -3.04436,0.16692 2.05304,-2.30062 2.83844,-2.79029 -1.66743,-0.8986 4.695,-3.2564 3.76399,-2.09667 6.17773,-2.8298 5.06685,-1.90791 2.15015,-0.0307 2.7482,-1.7779 2.81912,-0.95494 2.2251,0.19024 4.30818,-1.56686 2.1617,-1.12763 4.69315,-2.07085 2.43691,-1.29766 0.0919,1.06868 2.40329,-0.094 5.25683,-1.46427 2.08203,-1.29953 1.28493,-1.61308 3.04637,-1.28251 1.94946,-1.35555 0.52222,-1.62518 -1.03251,-0.71553 -1.24352,-0.5183 -4.7985,2.92317 -4.53273,2.15348 -4.32748,1.70345 1.72251,-2.05278 3.58096,-1.91769 1.49771,-1.99766 -5.03432,1.76355 4.64264,-2.7121 -1.08762,-0.97928 3.25001,-1.07686 3.97557,-3.25359 1.16523,-1.37207 -0.46971,-0.71726 -4.784,1.57546 -5.56859,2.82753 -0.74176,1.3419 -1.78496,1.8829 -5.22446,2.53762 -0.79503,-0.27963 -4.47253,1.94586 4.45827,-2.50281 -0.10628,-1.29801 -1.83503,0.22151 -2.88719,1.66481 -1.54085,-0.46086 -2.53714,-0.0146 0.29213,-1.67232 -1.63181,-0.11072 1.7248,-1.68806 0.40197,-0.84218 -1.36712,0.0255 -1.51714,-0.23643 -2.51308,0.68154 -1.16844,1.3893 -3.8575,0.97506 2.04859,-1.86081 -1.8516,0.18684 -3.50643,-0.53899 -0.68668,-1.11442 4.23402,-0.80321 1.52575,-1.68406 -1.33232,-0.14626 -0.35142,-0.85227 -0.0442,-1.63844 1.14159,-1.49993 -0.72771,-0.52662 -2.13516,0.57278 -2.11667,-0.0129 4.61346,-1.83867 -5.41433,1.15866 4.25183,-2.65602 0.11938,-0.47352 -3.22812,1.0113 -2.13455,0.28841 2.11942,-1.18754 -2.97295,0.0113 -4.12738,0.48033 -0.40283,-0.80521 -3.07458,0.27158 -3.51911,0.62477 -0.23292,-0.59559 2.03372,-1.66135 0.24727,-1.224 0,0 0.17557,-0.70986 1.03817,-1.21224 -2.10329,-0.15654 0.40008,-0.56683 -0.62476,-0.93053 0.95426,-1.45599 -1.3924,-0.19232 0.32551,-0.93512 1.77367,-0.43127 -0.54576,-0.77272 -1.73838,0.20245 3.04649,-1.15263 0.79208,-0.9843 -4.9871,0.39304 0.0269,-0.49376 -4.50058,0.0539 -1.41888,-0.19222 -4.30267,0.45136 -3.9765,0.81178 -4.29521,0.30751 -1.22712,-0.73442 -4.47752,0.73412 -1.72502,1.24165 -2.77438,1.28231 -3.44327,1.33559 -2.13157,1.35992 -4.16281,1.68176 -1.75014,-0.93651 3.92415,-0.97058 -0.53738,-0.39458 -5.22675,-0.0884 -4.16325,0.15508 -3.66804,1.85187 -2.79872,1.0691 -0.7736,1.26751 1.89169,0.47452 -1.05927,0.8829 1.88235,-0.33316 2.43061,0.0499 0.55343,0.2784 -3.43495,0.48602 -0.89492,0.68108 -3.21292,1.12143 -2.89763,0.31697 0.0462,-0.56729 -4.21366,0.67801 0.62973,-0.7215 -1.1879,-0.25909 -4.10308,0.97642 -4.80619,0.8423 -4.57499,1.12378 -2.46551,1.42832 -4.12039,1.35476 -1.11268,0.96127 -2.57347,1.61754 2.60365,0.25017 -1.88589,1.2361 -2.74887,0.81499 -4.05949,1.54899 0.62634,0.34538 3.7934,-0.46145 -3.03489,1.47486 2.73926,-0.76692 -2.76828,1.65617 3.04424,-0.63711 -0.8206,0.61669 3.28166,-0.15473 -4.5178,1.24712 -5.24887,1.88394 -3.17852,0.52185 -1.58248,0.40518 -5.56051,0.81147 -3.28906,0.81695 -2.19197,-0.41127 -4.88475,0.85246 -3.20392,0.25837 -4.40819,0.6187 -0.93582,0.55514 3.94345,0.24325 3.20293,-0.42373 3.4537,-0.3349 2.94298,-0.21773 0.31468,0.60142 4.1876,-0.49432 3.44134,-1.08571 5.20382,-0.51568 3.1839,-1.03976 3.14721,-0.26368 3.96502,-0.52635 5.76669,-1.37685 2.3959,-1.6338 6.27393,-1.07423 5.14879,-1.33751 5.03986,-0.76351 -1.38026,0.76323 -3.15866,0.247 -6.96379,2.26485 -3.69583,1.59117 2.62281,0.0143 3.17107,-0.42903 2.63946,0.0374 1.03185,0.10686 4.25674,-1.88087 2.57975,-10e-4 -1.41886,1.66083 -0.64978,2.12766 2.14428,0.43044 -0.10719,1.75185 0.0167,0.94425 -3.53355,3.72731 -0.13636,1.3145 1.95884,0.78413 0.91592,0.60485 -4.50381,2.83632 -2.56968,2.82455 -4.21919,2.5796 -0.35742,1.29425 -1.11353,1.31317 0,0 -2.59897,1.48339 -1.75786,2.62256 -3.68593,2.41833 0.0309,1.80017 -3.1566,1.7415 -3.19979,2.85886 1.23706,2.00362 -0.68112,1.58997 -0.80984,3.74917 0.23334,0.0625 -2.83951,2.61594 -3.09605,2.55696 -1.54914,0.70547 2.90828,-3.09052 -1.22894,-1.62588 -1.05753,0.54153 -1.4299,1.5316 -2.97331,2.74192 -5.09924,4.20088 -3.83132,2.76461 -3.76528,2.78234 -4.3828,2.80173 -2.1995,2.54655 -3.05832,2.73396 -3.43249,2.55649 -0.77069,1.95461 -2.50306,2.67059 -1.09686,2.99211 -0.098,1.2304 -0.83119,0.73574 -2.50369,4.81097 -0.79826,3.61264 -1.32959,1.83177 0.13018,0.61468 1.90485,0.63612 0.0772,1.00261 1.18872,0.34979 -0.54081,0.97229 0.78133,0.54299 -0.0112,2.08635 -0.95443,1.72368 -1.3465,3.07357 -0.87033,2.76464 -0.68173,2.26611 -0.56574,2.16317 0.82718,1.07948 0.32058,2.56479 -1.09546,1.47711 -1.76377,1.13299 -0.92693,-0.29927 -0.35141,0.22993 0.2548,2.08033 1.07446,0.96336 0.10746,0.92769 0.60744,-0.39158 0.86117,1.65106 0.61388,1.14392 -0.67101,1.82857 -1.4888,2.41412 0.86883,0.9624 1.01634,1.76756 0.72091,2.03345 -0.34568,2.06935 0.46461,0.0542 1.7474,-1.12285 0.37262,-0.58599 -0.18266,-1.5543 -0.24761,-1.59053 -1.21219,-0.21988 0.82746,-1.75457 0.15503,-1.61227 0.0684,-1.51648 0.98602,-3.1478 -0.57565,-1.83619 0.19548,-1.22113 -0.23637,-0.91726 0.88653,-2.17517 -0.48201,-0.002 0.42592,-1.16507 -0.22533,-0.2763 0.11339,-0.81911 -0.28197,-2.47096 0.11487,-1.45174 1.56751,-2.49029 0.77374,-1.6195 1.40767,-1.27885 0.71272,1.06979 0.92802,-0.0432 0.81219,1.5054 -0.96053,1.24879 -0.91979,2.60295 -0.37048,2.61725 -0.5873,1.03517 0.12072,1.72018 0.35186,1.87947 1.20434,0.40605 -0.80147,2.3502 0.54687,1.74052 0.86125,0.88933 -1.59224,1.9904 0.0155,0.8457 1.48536,1.54036 0.14917,2.15567 1.29657,2.78296 0.69615,3.44399 0.093,1.72244 -0.37803,1.32289 0.22462,1.53862 -0.53001,1.13375 -1.00523,0.80835 -0.13605,0.95629 -1.04728,0.25902 -0.0454,1.64701 0.4992,2.16385 2.19453,2.04919 0.56336,1.56674 2.42743,1.20208 1.47198,0.28331 0.37782,0.91263 1.75977,1.6882 2.62224,1.68087 1.93228,0.56185 2.11885,1.61892 1.89586,0.71685 1.70874,0.94547 1.50556,-0.25436 2.61571,-1.11166 1.63048,-0.16206 2.02178,0.94339 1.13006,1.10782 2.19755,3.58942 1.16174,1.38253 1.12355,0.68473 1.74254,0.12381 1.30581,0.61103 0.62941,0.71474 1.51994,0.25407 1.01583,0.67473 0.94494,0.34019 1.62565,0.10335 0.48928,-0.73798 0.79269,0.30575 0.25842,1.01033 -0.26531,0.21741 -0.35741,-0.49391 -0.42655,0.48109 1.0979,1.48143 0.98006,1.03546 0.40145,1.08884 1.07007,1.31862 0.79006,1.02625 -0.76834,0.59446 0.72079,0.46859 -0.55938,0.9886 -0.1874,0.96505 0.27963,0.64886 0.86409,0.33572 0.50704,0.89483 0.69486,-0.74307 -0.0275,-0.9249 0.65234,0.58392 0.0341,0.9301 0.91794,0.42845 1.0264,0.64698 0.67633,0.7739 -6.9e-4,0.70002 -0.41013,0.5414 0.48642,0.67503 1.45747,0.73151 0.26453,0.48337 0.18154,-0.68279 1.23047,0.0195 0.69369,0.38293 1.14775,0.23164 0.41491,1.27652 0.92322,0.20154 0.44072,-0.52763 0.26777,1.88572 1.35488,-0.13792 0.46992,-0.45803 0.83184,-0.38736 -1.15404,-1.72727 0.36738,-0.6477 0.63995,-0.0976 1.26413,-0.76503 0.73307,-1.07803 1.28082,-0.17404 1.30419,0.89761 0.39538,1.04287 0.69801,0.22757 -0.81575,0.82172 0.40825,1.69737 0.85322,0.9167 0.9832,1.68052 0.19723,2.6453 -0.69,0.81164 0.42293,2.86273 -0.66713,1.8065 1.01774,0.752 -1.19564,1.62891 -1.30796,1.95526 -1.44147,0.20122 -0.72103,1.12989 0.0782,1.56878 -1.08454,0.2308 0.36849,0.97379 -2.01038,1.24209 -1.59292,0.67005 0.18992,1.28163 -1.09514,2.02282 -0.51323,1.95857 -1.00493,0.47647 0.5577,2.85273 -0.55617,0.88942 1.78498,1.36774 1.04668,-1.46446 0.67813,1.36716 -1.42294,2.3567 -2.18092,2.0048 -0.74041,2.213 1.65025,2.9832 -0.79669,1.4161 2.18009,1.2422 2.45863,2.0126 1.18186,2.2921 1.35764,1.4049 3.62312,6.1648 3.82104,5.6792 3.21208,4.0117 -0.27504,0.9084 1.73074,2.5275 2.60673,1.8404 5.83347,3.2122 6.30333,2.8999 0.56361,1.2513 3.24553,1.6609 1.75511,4.2908 1.68064,4.997 1.37207,6.8655 1.41961,6.377 1.83654,5.917 0.0308,3.8023 1.96534,3.7327 0.38168,2.5525 2.75756,4.505 1.21063,4.5828 0.87509,4.9584 1.2752,4.9876 -0.95721,0.1782 2.22917,3.379 2.48956,2.8784 0.22251,2.1441 2.88013,5.623 2.26253,4.3405 1.70512,0.2875 -1.88185,-3.7923 2.05991,0.6568 3.16465,6.2832 -3.2077,-0.8121 2.94868,5.0145 0.0118,2.8325 3.89527,0.5287 -0.39305,2.5196 1.46455,2.9366 4.55521,4.9884 2.71097,1.8365 0.97614,1.7806 2.28333,1.7802 3.90108,1.3891 0,0 4.01244,1.7735 2.97573,0.6985 0.73352,-0.1588 -2.09951,-2.7526 0.8236,-1.245 0.32263,-0.8186 1.74506,-0.1632 z m -53.2607,-308.61572 1.97849,-1.06567 1.6021,-0.31203 1.16018,-0.66362 0.83323,-0.32579 1.27583,0.84796 1.31612,0.25437 0.0998,0.45997 -0.92021,1.77137 1.87749,0.73752 -1.1413,0.80016 0.0189,0.97477 -1.37589,1.08809 0.5398,0.48082 -1.32762,0.94924 -0.005,0.004 -0.53274,-0.19813 0.3088,-0.88908 -2.28507,0.008 -2.45815,0.43387 -0.41769,-1.32426 -0.81822,-0.53197 2.14731,-1.48757 -2.75202,0.75073 -2.57586,0.75065 -2.32306,0.55027 -0.2784,-1.19762 -2.67083,0.3444 0.43572,-0.43885 2.62854,-1.07143 2.62247,-0.99701 3.03731,-0.7023 5e-5,-3e-5 z m 6.41357,6.16062 0.78191,-0.3911 -0.16986,0.71011 1.25817,0.55757 1.57951,0.21906 1.45666,0.50215 1.41573,0.7929 -0.0772,1.01305 -0.45589,2.43757 -1.48658,0.91321 -1.43723,-0.603 0.41691,-1.96907 -1.26487,1.9137 -2.37866,1.55037 -1.01792,1.43614 -0.84241,0.81885 -2.21333,0.84109 -3e-5,1e-5 0.86167,-1.24464 0.99979,-1.78497 -0.56472,-0.38956 -2.43051,1.17095 -0.41563,-0.0735 0.50483,-0.76901 2.18465,-1.06655 1.32815,-1.34408 0.96493,-1.38021 -0.58714,-1.35034 -1.28674,-0.81207 -1.28745,1.1019 -0.73434,0.24898 -1.65365,1.43559 0.66706,-1.02972 -1.4775,0.61648 -1.40499,0.94485 -1.82413,1.4089 -1.18737,1.26514 -0.82213,1.94932 -1.68409,1.98609 -2.09065,1.37377 -0.78856,0.36845 -0.87236,0.26624 -0.77632,-0.0685 -0.0414,-0.22877 0.68995,-1.66155 0.6294,-0.78909 0.67732,-0.74032 0.96247,-1.51263 1.86555,-1.6596 2.29886,-2.04081 3.13745,-2.17769 -0.33016,-0.0284 -3.27616,1.7447 0.0216,-0.39116 1.79473,-0.98087 2.99257,-1.78328 1.67795,-0.0932 2.17842,-0.39792 1.38334,0.51559 0.0593,0.0219 2.09848,-0.0482 -0.007,-1.31488 10e-6,0 z m -8.08219,13.29004 1.08687,0.31972 2.39856,-0.7858 1.621,-0.73964 0.76859,-0.0679 0.99853,0.42975 0.94833,-0.40637 1.37568,-0.2678 2.22037,-0.17107 -4e-5,8e-5 -0.17725,0.29908 -3.26597,1.59805 -2.34497,0.69856 -1.46375,0.2881 -1.96075,0.69732 -1.93989,0.23359 -1.01312,-0.27114 -0.9185,-0.77044 1.66627,-1.08409 4e-5,1e-5 z m 11.89942,-2.61033 -0.13173,0.0236 -0.79546,0.0856 -0.66799,-0.37553 1.44808,-0.95629 0.94477,-0.28422 1.88839,-0.27551 2.16945,-0.21649 0.5507,0.66437 1.10678,-0.59321 1.00847,-0.34342 0.30274,0.26581 -0.01,0.0491 -0.0863,0.44009 -0.7292,1.17508 -2.39207,0.82218 -1.63699,-0.42926 -1.66007,-0.28747 -1.30976,0.23552 z m 90.44904,323.97299 0.74267,-1.0033 -0.30153,-1.0081 -1.54974,-0.6277 -0.8853,0.4654 -0.0272,0.9867 -0.39687,0.8464 -0.89824,0.475 -0.49384,0.6778 -0.0283,0.9968 -1.2214,0.3364 -0.15741,0.8314 0.0323,0.8722 0.74607,1.2838 -0.21502,0.9714 0.037,1.0047 0.30533,1.1605 0.21431,0.9221 0.82872,1.3465 1.44628,1.0685 1.68141,1.1616 1.11583,1.1148 0.91184,1.2091 0.71035,1.1123 1.24576,1.097 1.4422,1.0673 1.53576,0.924 1.73995,1.0207 1.78175,1.0136 1.73595,1.0198 1.59524,1.1047 1.30496,1.2133 0.53731,0.9475 -0.19556,0.7431 -0.75818,0.5792 -0.94386,0.5512 -0.64947,0.5726 0.0394,0.854 -0.10399,0.7514 -0.83959,0.4896 -2.04526,-0.7616 -1.87979,-0.3878 -0.88029,0.5089 -2.65157,-0.8465 1.1713,1.0015 0.92375,1.1215 -2.06799,-0.3374 -1.65609,-0.072 -1.39109,0.1555 -2.58296,-0.8521 -0.71001,0.509 -1.90967,-0.2164 -2.90262,-0.9937 2.88349,2.148 -0.81624,0.4818 -2.08496,-0.3797 -0.51826,0.5673 -0.21267,0.7955 -0.41254,0.6299 -1.47168,0.156 -2.23532,-0.7809 -2.44941,-0.4968 -1.87383,-0.1122 -0.82224,0.4564 -1.46634,0.1741 -1.41937,-0.1496 4.41614,1.7405 2.24974,0.8567 2.5383,0.7722 1.47832,-0.1063 2.34088,0.7485 2.34931,0.6666 1.99016,1.1578 -2.0274,-0.1255 -1.80176,-0.028 -1.36248,0.2478 0.0782,0.7083 -0.68455,0.4622 -2.47327,-0.3716 -1.69327,0.048 -3.12426,-0.5749 1.02595,0.9367 -2.509,-0.6079 -2.41659,-0.7268 -2.40193,-0.5606 1.36028,1.0949 0.22566,0.7135 -2.26125,-0.1614 0.12209,0.6765 1.17185,0.9279 -0.68452,0.4509 -1.13393,0.3561 -1.09625,0.3509 -0.65195,0.4663 -1.62772,0.2032 -1.5375,0.1721 0.1089,0.6628 -0.71697,0.433 -2.05255,0.02 0.0626,0.718 -0.96658,0.042 -0.88554,0.1133 0.83513,0.796 0.94889,0.7482 0.97648,0.86 0.003,0.5888 -0.59834,0.4628 1.32955,0.8216 0.74303,0.8135 -2.822,-0.4324 0.73231,0.7112 2.58235,0.7182 3.03628,0.5539 2.90402,0.6392 0.13108,0.5963 2.1636,0.8811 1.69691,0.7996 1.23918,0.7129 0.2363,0.5892 -3.77391,-0.4407 0.57087,0.6618 0.26502,0.6143 -2.8679,-0.2069 -0.96529,0 9.49517,1.5592 3.15129,0.2883 2.9623,0.1068 3.26164,0.3608 1.34631,-0.3365 1.6384,-0.2355 1.08281,-0.3999 2.81665,0.101 2.59602,0.1238 3.41928,0.5419 2.47618,0.6594 2.61756,0.8667 2.00149,0.7567 -3.09417,-0.1556 0.79685,0.6755 -0.99844,0.4234 2.95765,0.074 3.12354,0.2875 2.63053,0.029 3.49543,0.4739 3.07344,0.513 3.42266,0.5429 3.80371,0.5391 2.22124,-0.1426 3.43433,0.3386 2.43875,-0.1401 0.91852,-0.4414 3.85856,0.6244 1.9214,0.6419 2.17498,0.6136 -2.93222,-0.082 -2.13311,0.2829 2.10904,0.5862 -2.37981,0.2404 -2.9384,0.022 -2.46772,0.1721 -3.06536,-0.039 -1.09548,-0.021 -2.14307,-0.03 1.37629,0.5577 0.49557,0.07 3.66547,0.4289 -3.80769,-0.033 -0.0726,0.013 -0.10695,0.014 2.82291,0.3225 0.31084,0.034 -2.8913,0.1012 5.23194,0.387 -0.0743,0 47.94173,1.1067 47.94173,-1.1067 2.12581,-0.3415 2.73277,-0.4882 -2.42228,-0.2432 2.60425,-0.292 0.67152,-0.078 1.71863,-0.5816 4.30046,-0.4571 2.54471,-0.6419 2.58151,-0.5427 2.56126,-0.5492 2.72275,-0.5622 3.08357,-0.5608 3.45396,-0.5564 2.6082,-0.6611 3.27648,-0.3264 3.25805,-0.35 4.03569,-0.5338 5.01056,-0.5031 0.7559,0.432 2.17048,0.1315 1.72064,0.2871 3.62112,-0.6221 0.74927,-0.6817 2.88377,-0.5839 3.09774,-0.5519 3.1517,-0.6963 3.12252,-0.5213 3.80571,-0.6062 3.19055,-0.4543 3.56529,-0.4659 2.85077,-0.2197 3.33278,-0.3177 3.42012,-0.4293 2.23779,0.1377 3.14899,-0.3163 1.75829,0.2505 3.61221,-0.442 3.07859,-0.4017 3.93304,-0.5189 3.14298,-0.3388 3.31665,-0.5727 2.17029,-0.7676 1.19871,-0.7572 1.49216,-0.8315 0.62548,-0.7052 0.0876,-0.6388 -0.72371,-0.4653 -0.0513,-0.553 -0.73199,-0.4429 0.67294,-0.7466 2.37606,-0.9716 1.21269,-0.918 2.76508,-0.9592 0.22349,-0.7163 0.012,-0.7035 1.23667,-0.8402 1.8747,-0.9581 1.46877,-0.9376 -2.92112,0.4167 -0.61963,-0.5135 0.45572,-0.7495 0.19308,-0.8901 0.33863,-0.9095 0.99467,-1.011 0.84401,-0.9585 1.5627,-0.9179 2.7681,-0.7519 1.60484,-1.0027 -0.39648,-0.6445 -0.85211,-0.6337 -0.94649,-0.3413 -1.14817,-0.5346 -1.19038,-0.2268 -1.30061,-0.479 -1.41174,-0.3114 0.38788,-0.7477 1.78402,-0.9545 2.33894,-1.119 2.7137,-1.1612 1.12012,-0.9206 -2.64775,0.9881 -3.38924,1.0778 -1.36769,-0.1628 -1.51185,-0.1192 -1.10628,-0.4354 -1.24516,-0.2913 -2.03532,-0.022 -1.97841,0.097 -0.31116,-0.5786 -0.28758,-0.5636 -0.91235,-0.3276 -1.89696,0.049 -0.47694,-0.6134 -0.12189,-0.6618 -1.39958,-0.1211 -2.52516,0.5523 -2.63833,0.5135 -1.52294,-0.1564 -0.73493,-0.6664 0.18999,-1.0408 0.69626,-0.8742 -1.40641,-0.2629 0.9554,-1.0338 1.14256,-0.9739 0.17214,-0.764 -2.00243,0.3151 -1.47788,-0.2586 -2.33748,0.5434 -2.37901,0.4513 -1.9319,0.021 -1.82464,-0.025 -1.03698,-0.2787 -1.00849,-0.345 1.60346,-1.9711 0.96583,-1.1292 0.42844,-0.9545 -0.11942,-0.5568 -5.11855,1.6114 -2.14271,0.5303 -2.21082,0.737 -2.38758,0.6936 -0.55076,-0.6495 -1.73072,0.1117 -1.26391,-0.2911 -1.69978,0.124 0.0952,-0.7761 -0.73507,-0.3785 -1.1947,0.099 -1.03761,-0.2953 -0.87772,-0.4707 -1.6794,0.073 -0.82173,-0.4508 -0.18577,-0.7374 1.41741,-1.3902 0.68402,-0.8377 -3.43869,1.6842 -2.05035,0.5681 -1.11,-0.4211 -1.69832,0.089 -1.51593,0.057 -0.84507,-0.4961 -1.52967,0.263 -1.40653,0.3534 -1.99904,0.7864 -1.80376,0.3498 -2.18969,0.4836 -2.28103,0.869 -1.80763,0.9516 -2.11138,0.9639 -1.79098,0.2202 -1.60783,0.1215 -1.46078,-0.1149 -1.09401,0.1464 -2.45351,1.234 -1.62143,0.9118 -1.80712,0.6836 -1.7846,0.7524 -1.76671,0.9508 -2.06491,0.9663 -1.87397,0.2805 -0.84957,-0.4601 0.32896,-0.9812 1.99353,-1.0441 1.90326,-0.93 1.56268,-1.0482 -1.33294,-0.1399 1.21978,-1.0996 2.21417,-0.8861 2.02483,-0.5284 1.72991,-1.2184 0.94099,-0.6947 2.55618,-3.0232 -1.26854,-0.1845 -0.9892,-0.396 -0.82349,-0.4961 -0.88884,-0.5015 -0.54759,-0.7665 -2.40218,1.0011 -1.64115,0.4117 -1.05834,-0.3242 -0.24835,-0.9036 -0.0694,-0.8784 -1.24857,-0.523 -0.0378,-0.8688 -0.27204,-1.0782 1.04275,-1.2322 -0.38297,-0.9018 -1.0646,-0.4232 -1.09384,-0.3012 -1.50302,0.084 -1.80491,0.2975 -1.64254,0.4372 -1.84908,0.6592 -1.13142,0.973 -1.69939,0.5539 -1.23974,-0.182 -1.52926,0.6933 -2.04165,0.8845 -0.9965,-0.4526 -1.54211,0.5153 -1.62481,0.5685 -1.51511,0.5198 -1.97531,0.4214 -1.57759,0.2805 -2.04596,0.835 -1.5253,0.4066 -1.32165,1.1912 -1.75783,0.5667 -0.44551,-0.7995 -0.23374,-1.0747 -1.48676,0.1246 -0.69462,-0.7519 0.10639,-1.0446 -1.1096,-0.5423 -1.3115,0.9031 -1.62901,1.5229 -1.43265,0.7213 -1.45691,0.198 -1.46984,0.4315 -1.52857,0.7196 -1.49755,0.2601 -1.44111,0.3238 -1.41539,-0.019 -1.41377,-0.073 -1.51243,0.041 -1.57318,0.4432 -0.46433,-0.8815 -0.2196,-0.9842 -1.3075,-0.2268 -1.30718,-0.395 -1.33784,-0.1071 -1.54333,0.06 -1.47865,0.2936 -1.34218,1.0413 -0.20976,-1.0888 -1.63767,-0.2166 -1.48191,0.7583 -0.81489,1.1172 -1.52983,0.5332 -0.51534,-1.0333 -0.68011,-1.3764 -1.3916,0.3725 -0.84825,-0.7514 -0.91259,1.0077 -1.16596,0.6081 -1.4495,0.4369 -1.32686,0.6676 -1.40697,0.3866 -1.41508,0.3895 -1.25739,0.5064 -1.33118,0.962 -0.53127,-1.189 -1.39315,-0.1666 -1.5159,0.3475 -1.534,0.5214 -1.461,-0.1553 -0.42228,-1.0723 -1.36127,-0.2661 -0.47687,1.1412 0.0991,1.0762 -1.44568,-0.09 -0.74696,-0.9514 -1.48247,-0.1412 -0.72138,0.8111 -0.29919,1.371 -0.66179,1.1533 -0.9492,0.9356 -1.06188,0.714 -0.99993,0.6013 -0.46164,0.928 -0.009,1.1985 1.33634,0.6388 0.0358,1.1392 -0.69645,0.8803 -0.56436,0.9919 -1.04791,0.9567 -0.80248,0.7214 -0.88192,0.7283 -0.9157,0.6187 -1.18506,0.4641 -1.37725,0.1917 -0.5133,0.2606 -1.01925,0.4667 -0.94545,0.582 -0.11497,1.1695 -0.51473,0.909 -0.4669,0.9094 -0.923,0.7731 -0.66465,0.7585 0.10919,0.6384 1.53937,2.1074 1.03085,1.031 1.41444,-0.1177 1.18062,-0.5604 1.35661,-0.2155 0.69281,1.0568 0.96118,0.9795 1.13217,0.9678 -0.55157,0.7956 -1.08439,0.6083 -1.02836,0.4949 -0.68044,0.7077 -0.68047,0.7147 -1.45763,0.2036 -0.0188,0.9004 0.83868,1.2316 -1.78812,-0.5243 -1.78235,-0.2152 -1.32943,0.2268 -0.0681,0.8723 -0.21659,0.8371 0.24185,0.9667 0.29519,0.9015 0.7893,1.0199 -1.66772,-0.9467 -2.30325,-1.1651 -2.25716,-0.7236 -2.07458,-0.6216 -2.44347,-0.4884 -2.01702,-0.1622 -2.37509,-0.619 -2.20186,-0.649 -2.28012,-0.4963 -1.96034,-0.1476 -2.50277,-0.7848 -1.8811,-0.9146 -2.31067,-0.6874 -1.8198,-0.9988 -1.88278,-1.0551 -0.17965,-0.8553 1.65492,0.01 -0.58767,-0.966 -2.00424,-0.827 -2.04341,-0.5496 -1.94159,-0.2276 -1.9985,-0.9652 1.31785,-0.2593 0.91359,-0.4441 1.57103,-0.158 1.12631,-0.3354 -1.01538,-1.2047 0.27662,-0.7676 0.23354,-0.7546 0.5619,-0.6086 -0.0403,-1.2143 -0.65468,-0.9865 -0.84089,-1.0207 0.78203,-0.5596 -0.57954,-0.9912 -0.85201,-1.2032 -1.62576,-1.4715 -1.62222,-1.0325 -1.37411,-1.0673 -1.5375,-0.9824 -3.14513,-2.5231 -1.53429,-0.9848 -1.61679,-0.8487 -1.60509,-1.0395 -1.44968,-0.9983 -1.75076,-1.021 -1.94308,-0.7438 -1.77854,-0.5131 -1.67781,-0.7801 -1.77906,-1.0827 -0.99555,-1.065 -0.54698,-1.3149 -0.19661,-0.9809 -0.28463,-1.0304 1.04076,-0.3843 0.23905,-0.7795 -1.63336,-0.8555 -1.17786,-1.0378 -0.94957,-1.129 -0.14538,-0.9159 0.32659,-0.8468 0.34588,-0.7843 0.94194,-0.4186 1.52211,0.3185 0.0576,-0.6834 z m 53.26067,37.2485 -1.79687,-0.4671 -0.56213,0.7313 -0.39921,0.046 0,0 0.72577,1.1945 0.61663,1.0253 0.82344,1.0623 0.9182,1.2357 0.49003,0.9841 -0.48041,0.9315 1.29553,1.1287 1.93244,0.7921 1.61353,-0.028 0.6523,-0.695 0.46146,-0.7859 0.3043,-0.8218 0.15044,-0.9804 -1.4133,-1.4119 -1.24822,-1.1894 -1.95549,-1.656 -2.12844,-1.0965 z m -3.89242,6.7743 -2.2146,-0.9944 0.98976,0.9938 1.11714,1.1667 -1.70994,-0.041 -1.5401,0.134 1.54544,0.7106 0.16176,0.1024 2.10084,0.7449 1.0603,-0.3717 1.75498,0.1664 -1.53875,-1.2251 -1.72683,-1.3869 z m -41.04373,-23.3388 -1.9159,-1.1869 -1.91331,-1.1241 -2.09935,-1.1609 -1.59299,-0.9815 -1.94936,-0.9278 -0.55838,0.6036 1.01965,1.3977 2.96865,2.1941 1.3146,1.0261 1.58573,1.439 -1.41023,0.1038 -0.29117,0.4443 0,0 0.36325,1.2605 1.69773,1.096 1.95692,0.6517 0.60877,-0.5679 0.69244,-0.5771 1.00579,1.1434 1.42192,-0.1733 0.41422,-0.72 0.72245,-0.5697 -1.06928,-1.0596 -1.2262,-1.0992 -1.74595,-1.2122 z m -9.46221,39.6036 -3.86067,-0.5195 -3.15673,-0.2701 -2.89159,-0.152 -1.7905,0.2968 3.01588,0.6394 0,0 2.48152,0.1749 0.50911,0.063 3.13199,0.2894 3.28654,0.1149 -0.72555,-0.6373 z m -17.69339,-30.676 -1.76082,0.1575 -1.91036,-0.027 0.36391,0.5987 1e-5,0 2.69207,0.8941 1.96522,0.2392 0.9053,-0.4724 1.32583,-0.1953 0.90733,-0.384 1.12175,0.016 -3.44948,-1.303 -0.42605,0.559 -1.73471,-0.082 z m -9.36208,9.5766 -2.0059,-0.06 2.00773,0.8049 1e-5,0 2.99807,0.5074 1.48353,-0.2037 -0.96022,-0.8267 -1.82051,-0.9549 0.2412,0.7277 -1.94391,0 z m -3.22671,1.1919 -2.26199,-0.2249 0.93656,0.6838 10e-6,0 2.77605,0.2003 1.53865,-0.1537 0.66408,-0.08 -3.65336,-0.426 z m 526.5422,-178.4698 0.62538,-1.3568 0.58338,-2.1426 -0.33618,-1.9822 0.42126,-1.5874 -0.54843,-0.4995 0.56717,-2.3715 -0.23153,-1.8869 -1.47805,1.3465 -0.40688,1.0664 -1.20435,2.0263 -1.35342,1.9396 -0.004,1.2772 -0.80998,0.722 -1.4154,2.7835 -0.51515,2.1549 -0.63879,1.067 -0.3646,1.8278 -2.12236,2.8829 -1.26225,2 -1.32194,1.588 -1.4877,1.9312 -2.41652,1.0899 -1.98943,-1.4813 0.12708,-1.1682 -0.99125,-1.0621 -0.77371,-0.063 -0.99916,-2.3308 -0.86607,-1.371 -1.62548,-1.3347 -1.36931,-2.1757 0.21254,-1.0406 1.68531,-1.7182 1.50652,-1.7662 0.20923,-1.4815 1.00481,-0.058 1.5869,-1.41 1.41918,-1.9167 -0.69658,-1.8941 -0.88612,0.6656 -0.95416,-0.3816 -1.9836,0.9492 -1.3817,-1.2242 -0.9217,0.3219 -2.07841,-1.066 -1.04429,-1.5709 -1.60615,-0.9975 -1.65887,0.4462 1.71211,1.3014 -0.52458,1.8518 -2.58213,0.5448 -1.30328,-0.51 -2.11082,1.1706 -1.89887,1.9758 0.13075,0.9212 -1.58805,0.857 -2.37258,2.7764 -0.15222,1.9956 -1.63929,-0.4535 -1.73126,-0.1407 -0.76507,-2.2009 -1.48454,-1.7538 -1.51861,0.3943 -1.40752,0.4303 -0.3661,0.8831 -1.07917,-0.4871 -0.39789,0.9808 -1.62035,0.5105 -1.18562,1.3423 -2.17539,1.6235 -1.39085,2.636 -0.91563,-0.8399 -1.55203,1.6308 0.29479,1.7149 -1.46623,0.6091 0.0876,-3.0836 -3.1504,2.8137 -0.8822,1.8769 -0.73384,1.3707 -2.39592,1.6299 -1.55068,1.786 -2.20184,1.4075 -3.33108,0.7735 -1.45788,-0.2007 -0.86678,0.2541 -0.77269,0.7139 -1.82342,0.2452 -2.74841,1.0934 -0.53693,-0.478 -1.35666,0.1658 -2.6713,1.0741 -2.02907,1.3306 -2.74922,0.9446 -2.32163,2.2118 1.11164,-2.5685 -2.34232,2.3179 -0.74821,1.9778 -1.26701,1.6381 -0.99388,0.7725 -1.36468,1.8997 0.0405,1.051 -0.35599,1.0706 -0.26689,2.7394 -0.99936,1.7041 0.0219,-1.3602 -0.70922,-1.0866 -1.00396,3.1598 -0.25327,-1.5443 -0.51169,1.4473 -0.18923,2.7673 -1.37937,2.6203 0.2397,1.4354 -0.59823,0.9759 -0.49393,2.2562 -1.44768,1.8612 -0.96284,1.9221 -1.19774,3.4704 -1.23664,1.9722 -2.10496,2.2308 -0.86442,1.1806 -1.01403,0.6871 -1.55389,0.2862 -1.59507,1.8509 0.75837,0.7865 0.72282,2.4125 1.57308,0.2224 1.59797,0.3703 2.04097,-0.8721 1.98942,-0.7525 0.55754,0.2452 2.92731,-1.5424 1.75669,0.081 2.0149,-0.1145 1.56213,0.9017 1.74124,-0.076 2.07275,0.2156 2.06496,-1.213 1.97945,-1.6695 2.7332,-0.4655 4.01283,-1.3402 2.09395,0.5564 3.69689,-0.7165 4.15209,-0.7445 4.57882,0.3269 0.83965,2.0064 1.58491,0.3603 1.15082,2.5486 -1.17285,0.7107 0.0344,1.4765 -0.92285,2.7033 -1.84644,1.7789 0.37959,1.7053 3.58205,-2.5288 2.5876,-0.9049 4.72337,-2.5758 -2.28741,2.5602 -2.54962,1.506 -2.3299,1.8919 -3.11004,1.6478 2.65067,-0.2454 3.52099,-2.1377 -2.05378,2.6176 -2.46539,1.4965 1.71146,0.8199 -0.3938,1.5809 -1.36603,1.8011 -2.47178,2.626 -0.99842,2.3487 0.91584,1.4075 0.92285,0.5036 0.55683,0.7923 0.7037,1.3118 4.79522,-2.0022 1.92174,-0.3741 -2.45909,1.6737 0.54871,0.8855 -0.14128,1.8812 3.06105,-1.1387 2.58253,-1.075 3.64418,-0.9285 2.49093,0.4342 2.66377,-0.893 1.21785,-1.1036 3.12463,-2.2939 3.58743,-2.4524 2.83677,-1.5367 4.05955,-2.8624 2.66053,-1.571 3.78412,-2.554 3.52926,-1.3876 4.39261,-3.0351 3.06804,-2.4809 2.00171,-2.0775 3.75228,-3.1112 1.9971,-1.6097 3.10429,-3.2139 1.60311,-3.3304 2.12259,-2.255 1.69733,-2.122 1.71588,-3.0997 0.37971,-3.3228 -0.10406,-1.6004 -0.12852,-2.5552 2.3453,-4.0237 -1.028,0.4888 0.054,-1.7635 -1.59138,0.6822 1.65778,-4.1779 -0.0234,-2.5358 0.90512,-0.8662 -0.79221,-1.8437 -0.83646,-1.9969 -1.78988,-2.2756 0.51399,-2.6286 1.28478,-1.9149 0.88496,-3.2796 -0.46227,-0.5233 0.48494,-1.9131 0.89376,-3.2756 1.01622,-1.6447 -0.69954,-1.5803 -0.25994,-1.6666 -2.3614,1.2765 0.18791,-3.0218 z m -74.66559,97.024 -0.92088,-0.614 -2.05586,1.4904 -2.74358,3.1266 -2.73622,2.2073 -2.80152,3.0673 1.00543,0.4146 0.13243,0.2788 4.59153,-1.8849 -0.63382,1.0646 3.97592,-2.5497 2.25751,-0.9442 5.29113,-3.9276 -0.8817,-0.5274 -2.40251,0.2372 -1.68691,0.176 -0.39095,-1.615 z m 2.35987,-167.98433 -2.22764,1.92907 -1.00386,1.30308 -1.21025,2.18823 -1.85756,2.73221 -3.4112,0.77578 -1.19291,0.65396 -0.43721,2.88304 -2.20823,0.64824 -2.16381,-1.14722 -1.6353,2.25655 -0.27734,3.13042 0.40101,2.9551 1.33205,2.89607 1.41224,0.94833 0.21753,4.54757 2.35424,0.4166 1.9034,-0.1666 0.93494,1.6601 3.52115,-1.1864 1.3585,1.1136 2.04205,0.2202 0.96181,2.1151 3.41338,-1.5009 0.31677,1.2329 1.50691,-5.2658 0.23298,-3.44097 2.84168,-2.35543 -0.0996,-3.14202 0.93973,-2.36648 3.41669,-0.42149 -3.3423,-3.20069 0.42244,-1.60105 -2.33276,-3.26042 1.3729,-3.15342 2.00319,-1.21844 -0.7019,-1.68723 1.91169,-0.21034 0.0378,-1.36764 -2.53593,-0.99338 -2.02537,-0.92349 -0.34844,-1.5018 -1.74581,-1.71143 -1.15875,0.0421 -1.04247,2.73131 -1.8964,2.44303 z M 467.41149,4.10455 l -0.6441,-0.34347 -0.61724,-0.34576 -2.03476,0.16098 0.31237,-0.31472 -1.47019,-0.18433 -1.31109,0.093 -1.39088,0.25142 -3.18904,1.21358 1.02231,-0.78583 -0.24342,-0.2574 -2.67441,0.71513 -1.76324,0.1513 -0.69781,-0.0641 -1.744,0.2589 -1.84503,0.81745 -1.09627,0.83555 -1.82795,1.06323 -0.92423,1.0481 2.21919,0.31267 0.64352,0.57461 -2.73,0.69056 0.10894,-0.37175 -1.29557,-0.4777 -2.48078,1.30738 -1.18966,1.1588 -1.9614,0.8153 -2.34282,0.31551 -2.53018,0.82065 0.0791,0.73137 -2.29227,1.81527 0.34029,-1.50875 -0.77335,0.0726 -3.36194,1.86781 -2.48523,0.23813 -2.37484,1.21208 1.15373,0.47123 0.53311,0.56834 3.01374,0.11559 0.75316,1.14492 4.83665,-1.1144 1.08863,-0.63296 -1.47278,-0.16743 0.94591,-0.60139 2.41414,-0.55055 2.14518,-0.9315 2.38753,-0.50262 2.21342,-0.74792 1.69877,-1.3744 1.27089,-0.36414 -0.30253,-0.5008 2.41974,0.11825 1.32196,-0.44352 2.02904,-0.17705 4.60193,-1.91337 2.16052,-0.55897 3.87593,-1.33979 -1.18979,-0.19674 1.44026,-0.49111 2.11033,-0.3023 3.00952,-0.92277 1.10133,-0.6949 0.26219,-0.85328 -0.42478,-0.50358 -0.83172,-0.42042 z m -26.37274,6.4601 3.06529,-1.70528 0.14749,-0.67992 0.31032,-0.73968 2.38437,-1.42015 -1.39914,-0.19839 -1.12084,0.58686 -0.90514,0.0162 -2.12142,0.59889 -2.94885,0.91653 -2.28563,1.14485 -1.28464,0.95172 1.09012,0.27295 -1.94657,0.50397 -2.03131,0.85754 -1.58141,1.15366 0.63398,0.65655 1.52847,0.11637 5.10929,-1.54623 2.38514,-0.52293 0.97048,-0.96347 z m -14.08264,2.43303 2.1946,-0.80997 1.24285,-1.02375 0.0342,-0.25421 -0.52618,-0.31493 -2.3508,0.97612 -1.89259,0.95519 -0.80551,0.69534 2.1034,-0.22379 z m -1.08849,-1.38651 2.34628,-1.23412 0.67673,-1.3058 -0.21768,-0.65133 -2.33161,0.8655 -0.80033,0.76187 -2.36315,0.49021 1.07532,0.50116 -0.93289,1.05215 0.36314,0.56314 2.18419,-1.04278 z m -0.57338,3.02749 0.7021,-0.25458 0.55274,-0.5713 -1.22548,-0.39512 -1.38734,0.7144 0.89583,0.49375 0.46215,0.0128 z m -2.87266,0.86585 -1.06049,-0.53802 -2.53639,0.91206 -0.88195,0.97219 0.84427,0.6971 -1.55839,1.26719 -2.49339,1.25206 -2.55564,1.43824 0.58737,1.34611 0.77252,0.63371 1.85991,0.35481 3.2192,0.14504 0.56683,0.55069 2.2837,-0.28927 1.73448,-0.58199 1.66811,-1.1139 0.82966,-1.15917 -0.99594,-0.46168 -2.0484,-0.14238 -2.33248,0.2624 -0.76397,-0.48268 -0.85443,-0.36404 0.70233,-0.71506 0.27665,-0.77961 2.11306,-0.88861 1.08583,-0.96976 -1.42165,-0.35819 0.9592,-0.98724 z m -0.38545,-6.31677 0.59376,-0.69122 0.0106,-0.20158 -2.48188,0.44389 -0.93261,0.30407 0.90034,0.33269 1.90984,-0.18785 z m -3.44928,19.89054 0.65759,-1.76622 -1.66935,-0.70091 -0.73954,0.0853 -1.62756,0.93665 -1.24615,1.606 0.0238,0.21551 1.64686,-0.15085 0.97054,0.25507 0.93031,0.27149 1.05347,-0.75204 z m -2.56582,-18.00204 2.07754,-0.59463 0.19296,-0.62839 -1.47054,-0.0755 -2.5134,0.52332 -1.20661,1.02093 2.92005,-0.24577 z m 1.67189,4.6079 -0.79033,0.2989 -0.65118,-0.41761 -2.99132,0.50247 -0.56983,-0.29705 -4.39524,1.84463 1.64095,0.16782 -3.28662,1.39927 -0.0559,0.62204 1.84975,0.10555 4.40688,-1.71505 2.80177,-1.24734 2.04104,-1.26363 z m -8.62371,11.29289 3.70424,-1.52408 -3.59389,0.16639 -2.9048,0.83554 -5.02278,2.13933 -4.48386,2.69935 1.42665,0.32878 -3.18696,0.96038 -0.73999,1.11235 1.05403,0.76429 1.01299,1.24948 3.11188,1.38471 2.57459,0.0325 1.79741,-0.68611 -0.47834,1.07946 0.78012,0.33221 -1.1864,1.90293 -1.73157,0.56 1.14743,1.33894 0.10293,1.63753 -0.74753,1.02049 -1.22025,1.27681 -5.12497,2.43616 -2.22024,1.31271 -0.79018,1.06316 -3.26275,-0.0816 -2.62426,-0.36116 -3.57827,1.89834 -0.0468,1.14688 4.64195,0.18919 0.97588,-0.81363 0.41032,1.66658 0.45828,1.7554 -1.4278,0.72088 0.23782,1.62544 1.45365,2.08014 3.00958,1.66904 0.75887,-1.02312 0.19232,-1.9145 0.5247,-2.71265 1.31203,2.75206 1.12942,1.00845 2.59715,-1.97227 1.95739,-2.91859 0.20498,-0.82579 -0.51853,-1.54997 0.37165,-1.83085 2.01795,-1.57861 2.15089,-0.10822 -0.8323,2.98726 0.45542,1.42688 5.89591,-2.95998 2.50421,-1.91863 -1.90796,-0.45647 0.98412,-2.81946 -1.31979,-0.89228 -0.75142,-2.2358 3.82999,-0.95851 2.08896,-2.74653 0.41831,-1.25887 -1.27773,-1.50701 1.25826,-1.91703 -2.86754,0.27466 1.56799,-1.20153 0.4664,-1.53273 -0.15289,-1.75941 -2.61374,0.87898 -3.23147,0.38799 2.97095,-1.70345 2.94346,-3.04248 -4.21391,0.57877 -4.58197,1.91247 2.13982,-1.78161 z m 2.87876,-6.06859 1.36302,-0.85939 1.17654,-1.04058 -2.54649,0.36922 -2.83361,0.99421 -0.41421,0.89964 0.7966,0.48991 2.45815,-0.85301 z m 0.28834,-10.9899 -1.73805,0.0133 -0.75914,-0.3702 -5.50201,0.89154 -6.03021,1.1662 0,0 -0.6343,0.79891 1.99842,0.0662 3.94957,-0.47827 0.88616,0.11304 2.72323,-0.57605 5.10633,-1.62466 z m -4.19924,4.9549 2.67749,-1.16332 0.0501,-0.48562 -2.84047,0.62255 -4.87601,2.51242 -0.75565,-0.58044 2.47494,-1.75492 0.35277,-1.39835 -2.38922,0.39529 -7.17042,1.82522 -0.19696,0.74969 3.87662,0.83742 -4.19712,0.50456 -1.92125,0.77959 1.25453,0.32932 4.46929,-0.38963 3.41218,0.43094 3.2217,-0.97881 2.76036,-1.18598 -0.46661,-0.33117 -1.61569,0.18961 1.87945,-0.90837 z m -6.97697,11.68368 2.05972,-0.23341 5.74218,-1.95165 -0.43904,-1.01346 -1.59366,-0.52796 -2.25582,0.46745 -2.65859,0.9489 -2.58265,1.24634 -3.89731,2.36993 0.89648,0.35943 4.72869,-1.66557 z m -0.67933,-4.30023 -3.6323,0.91417 -2.57859,1.88115 -1.12335,-0.80079 -1.76038,0.7862 -1.85172,2.54135 -1.33118,1.13674 0.49999,0.45047 3.55313,-0.58802 4.76158,-2.24137 0.87426,-1.43304 3.33478,-0.98519 1.30442,-0.78092 -2.18804,-0.0889 0.1374,-0.79189 z m -4.50807,23.05088 1.9118,-0.67921 0.64761,-0.35627 1.56416,-1.18019 0.0704,-0.91843 -1.64654,0.19124 -2.64696,1.44743 -1.51911,1.39765 1.61869,0.0978 z m -1.27622,-22.99232 0.61655,-0.71735 -1.31625,-0.23038 -1.07915,0.25281 -2.66364,2.08604 4.44249,-1.39112 z m -9.57155,-1.75343 0.37897,-0.7244 -5.83833,0.6785 -3.01932,0.72696 -5.31584,1.50563 -0.13984,1.13827 1.40901,0.41865 -4.41706,0.26762 -1.76063,1.04038 1.14703,0.47563 2.39966,0.44064 0.42998,1.13513 -2.21741,0.0448 -1.04575,-0.5284 -2.42307,-0.05 -1.24162,0.0552 -3.47619,2.31681 1.50351,-0.001 -0.22336,1.09411 -2.11672,1.34555 2.33704,0.30537 3.42046,0.37665 3.75729,-0.31588 1.51874,0.17604 0.37333,1.17363 1.11323,0.90728 2.23042,-0.85376 1.31145,-1.16053 2.11391,0.23478 2.36364,-1.09945 0.65702,-1.68056 1.01574,-1.69081 3.54369,-1.83978 4.83175,-2.56018 1.3234,-1.2632 0.0904,-0.63563 -1.56822,0.12959 -5.24504,2.66573 -2.78497,0.88155 4.88873,-2.60613 1.14113,-1.02517 -3.92365,0.92572 1.83668,-1.57381 -3.61379,0.11441 3.2346,-0.96561 z m -15.75548,2.28066 2.71499,-1.01829 5.36059,-1.26138 6.27758,-0.93958 2.52062,-0.24438 1.80535,-1.25365 1.11466,-0.91547 -1.45304,-0.80339 0.36291,-0.8435 -3.30535,-0.58091 -3.39196,1.6151 -4.93397,1.2077 -5.28666,1.42746 -3.08486,0.82403 -1.56987,1.92301 -2.33289,1.18196 5.2019,-0.31871 z m 14.81238,73.32078 2.27833,-1.74857 0.90588,-0.75819 -0.84436,-0.20391 -2.40797,0.8596 -2.35881,1.55509 -5.18689,4.47717 -2.90323,1.61911 0.4017,0.87065 -1.97943,0.92492 -0.22858,0.89484 4.08312,0.41684 2.40089,0.001 1.62977,0.86589 -2.33128,1.26387 1.22943,0.19705 3.97346,-2.3571 0.37979,0.41523 -1.84068,2.36175 1.11515,0.65404 1.0437,-0.0403 2.34791,-2.51196 0.3709,-1.86481 0.62937,-1.57019 -1.7698,0.39138 1.91965,-2.09119 -1.53217,-1.05484 -1.3962,0.63795 -1.3447,-0.94418 1.36645,-0.96095 -0.98253,-0.73544 -1.97674,0.87814 3.00787,-2.44305 z m -3.41253,-60.72387 1.18679,-1.15384 0.60684,-0.57056 0.25269,-0.61918 0.31022,-1.00199 -2.89563,0.93856 -2.47847,0.57057 -0.77349,1.52584 1.4186,-0.0718 0.008,1.14206 2.36471,-0.75968 z m -2.57337,11.87538 -0.61585,-0.39872 -4.1362,2.43018 -3.2982,2.13919 -3.1588,1.14818 2.27428,0.0776 -1.7711,1.71125 3.99714,-1.08452 3.41323,-1.23628 -0.90687,1.38628 1.32974,1.04186 2.4136,-0.66972 0.20316,-1.09034 -1.32264,0.0433 1.65254,-1.34177 -0.39148,-1.13416 -0.15454,-1.20851 0.25462,-0.8615 -1.29151,0.30038 1.50888,-1.2527 z m -4.80762,11.13149 0.33685,-0.63602 -0.53163,-0.15788 -1.63332,0.75148 -0.31334,0.18307 -0.64978,0.90232 0.37532,0.34457 2.4159,-1.38754 z m -1.93116,-2.17575 0.73748,-0.53692 -1.95668,-0.36044 -2.7958,1.10536 -0.67879,0.81162 0.96006,0.23966 3.73373,-1.25928 z m -2.02352,43.53224 0.31089,-0.54279 -1.24611,-1.41155 -2.15824,-0.9813 -0.88619,0.18039 0.90317,1.55983 2.0306,1.15901 1.04588,0.0364 z m -9.01101,7.16478 0.20798,-1.49557 -1.4236,0.83804 -0.12436,1.03278 1.92702,1.48264 0.92923,-0.12544 1.84347,-1.11831 -2.05583,-0.0866 -1.30391,-0.5275 z m -104.27428,-44.18984 -1.74177,0.88905 -1.97175,1.35212 -0.79321,1.13074 -1.72869,1.50597 -1.29981,1.60801 0.63861,0.18416 2.59896,-2.73739 6.22889,-3.14609 -1.88513,-0.20112 -0.0461,-0.58545 z m -10.41509,20.90457 1.61531,-1.83746 0.003,-1.6567 1.22508,-1.6303 0.95011,-1.17411 -1.15721,-0.71501 -0.3679,-0.71459 -0.79325,-1.10218 -1.22438,0.65119 -1.84123,1.79137 0.9841,0.98191 -0.96444,0.9318 0.038,1.43281 -1.01836,1.19693 1.03496,2.05822 1.51579,-0.21388 z m 560.87834,100.54846 -0.18317,-1.97049 0.55692,-1.55244 -1.17692,-1.22995 -1.59795,0.0329 -2.55889,1.14098 -0.69406,1.5966 1.26859,2.85274 2.67002,0.88777 1.71546,-1.75809 z m -523.28108,-8.14588 -2.13814,-1.19244 -2.10638,-0.15022 -2.24259,-0.35042 -0.78743,0.30608 -2.15955,0.18478 -1.61763,0.53184 -1.49373,0.62724 -1.02391,1.09695 -1.8021,0.88967 1.04914,0.36022 1.47315,-0.26999 0.67844,-0.74248 1.13998,0.0173 2.56621,-1.51694 2.59164,0.30353 -1.31006,0.72407 0.71825,0.6582 3.36023,0.66645 0.57986,0.6936 2.24299,0.9595 1.5819,-0.0453 0.0409,1.79689 0.64571,0.93925 1.6971,0.28856 0.85608,0.85475 -2.39202,1.64575 4.0329,-0.12909 1.81993,0.32611 1.89916,-0.0744 1.94861,-0.31389 0.54698,-0.7076 -1.67988,-1.35076 -1.97941,-0.21663 0.48026,-0.8597 -1.42376,-0.7039 -0.9135,8.8e-4 -1.22821,-1.47387 -1.63338,-2.0281 -0.69912,-0.77555 -2.65927,0.22099 -0.65938,-1.19132 z m 241.62423,-89.82447 -0.84507,-1.43793 -2.649,1.00772 0.43816,1.19554 2.26843,1.59789 0.78748,-2.36322 z m -224.3713,105.35891 -0.09,0.88781 0.59071,0.51371 1.65975,-2.06142 1.03426,-0.4067 0.22637,0.75878 1.1154,-0.15057 0.64676,-0.54049 0.87459,0.17843 1.30728,-0.0828 1.14929,0.71125 1.35069,-1.20697 -1.06668,-1.16922 -1.20182,-0.15544 0.33609,-0.90754 -1.52861,0.004 -0.19953,-1.10414 -0.74865,0.0488 -1.40846,-0.85179 -2.14611,-0.0997 -0.49627,0.50906 -2.24888,-0.57818 -1.63965,-0.20454 -0.87216,0.82391 1.59983,0.54984 -0.35762,1.1734 0.89152,1.38038 -1.18574,0.64659 -2.02381,-0.32665 -2.42975,-0.52695 -0.52327,0.98481 1.2223,1.01756 1.45575,-0.52697 1.6334,0.28607 1.36759,-0.16459 1.70546,0.58996 z m 696.44504,130.57391 2.32665,-0.8174 1.24487,-2.127 -2.35246,1.1315 -0.98347,0.1155 -1.85324,0.694 -0.62625,1.6607 2.2439,-0.6573 z m -4.0388,1.9293 -1.09426,0.6083 -0.87022,-0.7133 -1.93319,1.3144 -0.94289,1.9151 1.09941,0.7572 2.00407,-0.3276 1.86937,-2.1731 -0.13229,-1.381 z m -991.063256,-3.0118 -0.890504,-2.1429 -0.43592,0.281 1.244875,2.127 0.081549,-0.2651 z M 495.08143,77.73664 l -2.18944,0.23067 -1.42633,-0.2395 -1.58679,2.33262 -0.91347,2.98219 0.83694,1.48287 -0.0911,2.78725 1.12871,-1.35856 0.58059,0.80109 -0.78333,1.28663 0.41423,0.78575 2.3446,0.52354 0.0281,0.0408 1.2451,1.78686 -0.35531,1.67696 -0.004,-3.2e-4 -2.95819,-0.27794 -0.48974,1.89092 1.02725,1.56421 -2.18677,0.88181 0.51211,1.15454 3.20273,0.50044 0.0162,0.002 -1.88347,0.61456 -3.24648,3.01534 1.08775,0.58558 1.54456,-1.09411 1.93391,0.33878 1.44023,-1.34823 0.95994,0.57269 3.58276,-0.78693 2.7978,0.0272 1.85585,-1.5164 -0.84655,-1.49403 1.03185,-0.84957 0.21142,-1.84924 -2.45541,-0.54687 -0.57754,-1.14159 -1.21548,-3.29377 -1.33687,-0.46581 -1.65515,-3.4148 -0.14352,-0.30427 -1.96635,-0.19222 1.78978,-2.58375 0.55018,-2.3537 -2.01635,-0.0231 -1.89692,0.38548 2.1015,-3.11667 z m -5.67369,11.76186 -1.94637,-1.80649 -1.63414,0.10183 -1.60692,1.33293 -2.93294,2.22864 0.70435,2.95372 -1.99681,2.9967 2.86349,0.47463 3.78924,-1.66909 1.73005,-2.5678 -0.17369,-2.06815 1.20374,-1.97692 z m 70.44822,53.87695 -0.24213,1.24458 3.16741,0.49799 0.0635,0.48004 3.57623,-0.33205 0.14489,-0.86537 -1.29932,0.38194 -0.0376,-0.50733 -1.90512,-0.16207 -1.92037,0.21037 -1.54747,-0.9481 z M 487.62615,5.37784 l -3.40909,-0.64588 -1.8443,0.11498 -1.57531,0.96306 -1.53724,-0.30386 -3.43646,1.44526 -1.39603,1.16224 -0.30493,1.63355 -0.18947,-1.02854 -0.51643,-0.30835 -0.0419,-1.17719 -3.26035,1.29968 0.51046,-0.91866 -1.62065,-0.2097 -2.18793,0.16807 -2.28646,0.48818 -1.57425,1.21778 -1.2435,0.14532 -4.88424,1.47544 -2.2085,0.94281 0.21282,1.23716 -1.72222,0.9144 -4.44438,0.82738 -4.67888,0.7649 -1.79818,0.98842 -0.0958,1.37318 2.2037,1.25679 -1.77103,-0.12645 -3.33796,0.46625 -1.18552,1.90795 -0.3016,1.01219 2.35055,0.14568 2.42579,0.25111 1.56147,0.47226 0.35576,1.93255 -1.40892,1.14366 -0.0761,1.22748 -2.17199,3.07782 -1.29139,2.0176 -0.46449,1.11382 -3.98498,2.44293 0.21536,0.80507 1.53505,-0.25841 0.0545,1.0757 0.27926,2.00605 -1.68358,-1.01581 -1.12576,-0.0853 -1.9688,1.43462 -1.82478,1.91317 0.62605,1.08933 1.50367,-0.27681 1.07147,-0.34469 2.33775,-0.84517 -2.2857,2.17362 -1.58022,1.12647 -2.91028,0.84096 -4.37501,3.15635 -0.004,1.09436 -2.38162,2.03378 -0.31462,2.82372 -1.9582,2.57613 -0.76573,1.93203 -0.10634,3.80608 -1.02487,2.89353 0.45467,1.71119 3.30606,0.29005 0.92003,2.5436 2.50625,0.006 2.63146,-2.74398 2.25067,-2.32064 0.80675,-2.29243 4.05695,-2.09954 1.99212,-1.82365 1.32528,-2.0065 2.42461,-1.67468 2.53243,-0.51325 2.37391,-0.56473 1.07399,-0.0483 4.26444,-1.80096 3.65672,-2.90024 2.02276,-1.01533 1.5019,0.0793 4.4513,-0.76515 4.64756,-2.07708 4.50342,-2.34002 -1.67775,-0.23762 -3.26381,-0.28969 2.14872,-1.43385 0.49137,-1.96963 0.74234,1.72576 0.47271,1.15399 2.44342,-0.45234 0.46767,-2.33634 -0.80172,-1.829 -1.2344,-0.79629 0.94283,-0.73782 1.74634,1.29878 0.52194,-1.27981 -0.54589,-2.01257 1.5319,0.0659 1.72556,-0.37439 0.75797,-0.99834 -0.74927,-1.22386 2.40648,-0.10362 -0.34199,-2.52955 1.16865,-0.21898 0.74493,-2.45109 -1.05946,-1.60002 1.87186,-0.83824 1.43901,-0.0582 -0.29658,-1.92054 1.31532,-3.19421 1.39469,-1.83362 1.68744,-2.05646 -1.55185,-0.20999 2.40413,-0.39937 0.62708,-0.64587 3.29852,-1.95676 0.008,-1.24114 -1.58645,-0.6185 -3.35129,0.9839 -2.10229,0.97943 1.53112,-1.62485 0.0528,-1.05095 -1.60145,0.80725 -1.12272,-1.09254 -2.2041,0.16522 0.0935,-0.52559 3.15346,-0.0602 2.1767,0.003 1.55562,-1.0462 -1.81766,-2.44523 z m 400.57719,246.09975 -0.42148,-1.36715 -4.61794,-1.51606 -1.49802,1.18482 -3.91463,0.86573 1.16869,1.80163 2.55504,0.68957 1.03679,2.18006 4.22736,0.051 0.18218,0.9757 -2.05474,-0.095 -3.19973,1.2762 2.06202,1.8235 -0.13678,1.5869 0.51716,1.3517 1.14028,-0.3011 1.02734,-1.7644 3.9701,3.4782 2.338,0.3606 5.1589,3.277 0.88665,3.165 8.4e-4,4.0749 -2.01001,0.9644 -1.86737,2.9693 3.64007,0.039 0.94168,-1.0314 2.72945,0.8732 1.79665,3.1888 2.9019,0.2987 1.42924,0.7087 2.56748,-1.1888 0.31411,-2.8095 2.02773,-1.1759 2.65796,-0.9825 3.34952,1.8332 0.66035,3.4245 1.0513,2.1937 1.50565,2.5755 2.68412,0.7487 2.2961,0.5815 0.38309,1.0478 1.95357,-0.1532 0.6614,-1.1049 -2.51952,-1.8142 1.0603,-0.6831 -2.00275,-0.7824 0.58154,-1.7102 -1.66121,0.043 -0.8255,-4.1907 -1.98395,-2.6432 -0.1106,-2.5922 2.71561,-0.3154 -0.32028,-2.0758 -4.3884,-2.5374 -0.10352,-2.2754 -1.34811,-1.9702 -1.75667,-2.0065 -5.11151,-2.2836 -4.79389,-2.685 -3.05,-0.7595 -2.06047,-1.3662 -2.40401,-1.32695 -2.56854,-0.0189 -3.4347,2.20705 -2.70824,3.8872 -2.80769,-2.2487 -0.49991,-5.95143 z m -0.13233,18.6305 0.28377,-1.7512 -0.49475,-1.0921 -0.7853,1.2242 -0.71708,1.303 -0.19478,2.7666 1.90814,-2.4505 z m -10.86236,-11.6512 -3.09664,-1.0967 -3.5761,0.1045 -0.83879,1.9646 1.98488,0.1568 1.64918,-0.2131 2.38354,0.3391 2.29526,1.5329 -0.80133,-2.7881 z m -4.76866,-15.28937 -0.32039,-1.46885 -1.71853,-0.30344 -0.30111,-1.95934 -0.89334,1.31435 -0.47961,2.86847 0.9012,4.58355 1.1331,2.27763 0.81838,-0.42842 -1.16615,-1.90045 0.4369,-2.18645 1.49368,0.35024 0.0959,-3.14729 z m -4.63733,16.46877 -0.62002,-1.1905 -2.93278,0.1313 0.43288,1.542 1.93283,0.6876 1.18709,-1.1704 z m -5.35902,-17.44217 -0.5342,-0.79128 -2.77568,2.59285 -3.3205,0.16064 -3.65502,-0.47457 -2.28599,-1.02581 -2.39905,2.60928 -0.5939,1.44143 -1.52698,5.25805 -0.52534,2.76508 -1.32565,2.2692 0.72048,2.3958 1.21103,0.043 0.13057,3.3727 -1.19776,3.192 1.10241,1.05 1.89125,-0.4659 0.45465,-5.0036 0.096,-4.081 1.99582,-1.0427 -0.46765,3.4122 1.88755,2.0893 -0.51604,1.3484 0.60674,0.9852 2.97947,-1.3077 -1.73032,2.854 0.96492,1.2625 1.6732,-1.001 0.30679,-2.3168 -2.18775,-4.1114 0.62494,-1.2019 -2.45677,-4.53611 2.59932,-1.34572 1.31578,-2.05938 1.24676,0.51815 0.27088,-1.62676 -5.41253,1.18161 -1.60522,1.58198 -2.51556,-3.12316 0.41993,-2.64644 2.52168,-0.50741 4.81509,-0.18358 2.7876,0.68702 2.16688,-0.68439 2.24222,-3.53328 z m -6.70312,40.95737 2.49248,-2.561 2.61938,-0.9227 3.31776,-1.4418 1.25737,-0.9269 -0.98923,-0.4817 -0.98565,0.4125 -2.01779,0.048 -2.62678,0.7069 -0.5165,0.8224 -3.1326,1.2943 -1.72891,2.0986 -0.55035,1.1848 0.23446,0.4365 2.62636,-0.6696 z m -2.76116,-7.3721 -2.81928,1.1988 -1.95624,0.2005 -1.58032,-1.1082 -2.41391,0.6488 -0.25073,1.2727 3.70512,0.5655 4.49961,-0.8399 0.81575,-1.9382 z m -7.89693,7.2755 0.3978,-0.9337 -0.74695,-1.0977 -1.2567,-1.1172 -2.80997,0.5831 3.2043,2.5825 1.21152,-0.017 z m -6.41518,-7.7357 -1.00225,1.1982 -1.57247,-0.024 -1.38355,1.952 1.52838,0.081 2.07394,-0.395 3.44476,-0.5819 -0.41349,-1.4994 -1.82171,0.2256 -0.85361,-0.9562 z m -25.83636,-5.2224 -0.22219,-1.2064 -1.15658,-0.2825 -2.14764,-1.361 -3.46475,-0.267 -2.39879,3.1499 2.59171,0.3053 0.28076,1.4501 5.00494,1.5144 1.26154,-0.3892 2.04767,0.3897 3.09395,1.3825 2.56797,0.6863 2.92128,0.3406 2.60585,-0.014 2.87727,1.476 3.51634,-1.2018 -3.13459,-2.1445 -4.18945,-0.7444 -0.68459,-2.2365 -5.08403,-1.7617 -0.83706,1.3813 -5.44961,-0.4672 z m -7.64619,-3.2756 0.66612,-5.1694 1.04665,-4.153 -1.28274,-2.1305 -2.10596,-0.3119 -0.92686,-1.86809 -0.42079,-2.32732 -1.03629,-0.089 -1.63555,-1.15994 1.17536,-2.71443 -2.21175,-1.51623 -1.72771,-2.77307 -2.50785,-2.25493 -2.93899,-0.0328 -2.92174,-3.51851 -1.68288,-1.35102 -2.40245,-2.19792 -2.84484,-3.16445 -4.5223,-0.56068 -1.86727,-0.10204 0.41722,1.65082 3.31006,3.54944 2.29899,1.80536 1.66525,2.78498 2.69109,2.04654 1.13742,2.55757 0.8831,2.82289 2.52597,2.74432 2.07332,4.62524 1.31379,2.48607 2.01066,2.7156 1.07492,2.0229 3.44282,2.7669 2.10972,2.825 3.19351,-0.01 z M 479.32894,54.85566 l -2.35955,-0.27384 -2.81549,1.46202 -1.60018,-0.87893 -2.7468,1.48746 -1.60312,-2.04626 -2.36417,0.33147 -1.73054,1.83136 2.88047,0.80504 -0.23785,0.84899 -2.89201,0.44515 2.82334,1.54841 -1.97699,1.21286 4.08379,1.08076 1.95957,0.49659 1.51508,-0.48211 5.02761,-1.84623 2.49608,-2.15042 -1.24678,-2.01346 0.78754,-1.85886 z m 59.15611,81.57976 -1.82581,0.28097 -2.46164,0.35094 -2.89555,-0.22691 -0.19183,1.49024 3.59862,1.42741 1.293,0.2952 2.023,1.06373 0.34052,-1.4969 -0.47907,-0.89175 0.59876,-2.29293 z m -16.12272,-8.42457 -1.11666,0.90814 -1.32018,-0.13277 0.66605,1.64855 0.34985,3.48844 0.97519,0.759 0.9163,-0.9748 1.11666,0.1718 0.0158,-3.82937 -1.60303,-2.03899 z m -236.45764,63.6094 1.96874,0.0184 -0.22273,-0.86577 -1.26085,-0.80263 -1.78372,-0.35375 -0.60012,-0.13045 -1.22767,0.16833 -0.54007,0.6964 1.26215,1.1956 1.4156,0.55917 0.98867,-0.48525 z m 550.60187,-79.38173 -4.05065,-3.44033 -2.09195,-3.77116 -3.28041,-2.68895 -6.96206,-4.27573 -1.35339,1.10053 1.78541,2.2555 4.9522,3.60774 3.52051,4.32951 0.28054,1.54537 0.56416,3.97532 -3.22151,-1.30247 4.07053,6.3782 -3.1173,-0.24259 -3.47584,1.80308 0.60368,2.57239 -0.64129,2.11807 0.76973,2.30337 -1.26277,1.38525 3.04759,2.1513 2.38041,0.74685 2.08565,3.13395 2.29726,1.14371 0.32573,-1.66173 -3.59478,-5.99687 -4.69184,-2.08576 2.65957,-0.51437 1.20131,-2.04534 3.25123,-1.43897 2.59334,2.5054 2.82263,1.03258 -0.57491,-4.44923 3.77464,-0.94681 1.20092,-2.14603 -1.41537,-2.6159 -2.24868,-1.61419 -2.20429,-2.85169 z m -3.46197,12.77089 -2.4047,-0.43304 0.43423,1.57726 -1.69233,-0.1659 0.63404,2.2223 1.47835,1.60221 2.4251,0.7142 -1.22583,-2.08048 0.44879,-0.9848 1.99031,0.92422 -0.65953,-2.26949 -1.42843,-1.10648 z m -20.52116,-37.18266 -3.00053,-0.68444 -7.05892,-2.69819 3.10512,2.59729 5.76029,4.53603 -1.80789,0.69268 2.41486,2.70048 4.54143,3.14207 2.15791,-0.57544 -3.69648,-3.79543 6.09506,1.44202 -2.75809,-3.63899 1.5651,-1.62491 -5.69018,-3.47505 0.68333,1.70771 -2.31101,-0.32583 z m -78.22911,139.9176 1.11338,-0.91338 0.0569,-3.28461 -1.81758,-3.2487 -1.65333,-2.1845 -2.24398,-1.69945 -0.5592,5.11324 1.04851,4.49668 1.62372,2.47475 2.43158,-0.75403 z m -91.87609,59.94134 -0.43737,-1.9806 -0.59146,-1.2802 -0.83465,-1.2946 -1.1042,1.3167 -0.27976,1.7889 -1.83653,2.0402 -1.15461,-0.3784 0.21322,1.2771 -1.05707,1.4796 -2.58412,1.7856 -1.85363,1.6599 -1.24123,0.016 -1.12046,0.5162 -1.6574,0.577 -1.41595,0.082 -0.65769,1.8696 -1.23401,1.6353 -0.21621,2.7293 0.21206,1.8762 0.3989,1.4146 -0.58909,1.8776 -1.73524,2.209 -0.19417,0.9832 -1.36352,0.4803 -0.9044,2.1161 -0.17599,2.13 0.46732,2.3787 -0.391,2.6215 0.39366,1.5788 1.89093,1.1198 1.36662,0.8017 2.64816,-1.1773 2.35948,-0.6321 2.04248,-3.3967 1.98184,-4.0907 2.89426,-5.5753 2.17735,-4.0589 1.74392,-3.4396 0.62315,-2.516 0.89092,-0.6701 0.46295,-1.2568 -0.17523,-2.2172 0.66824,-0.8704 0.67529,1.7656 0.63966,-0.866 0.50721,-1.4233 -0.51596,-1.4087 0.0633,-3.5939 z M 521.29347,21.60724 l -1.52174,-0.57943 -0.85203,-1.05708 -1.39895,0.65819 0.90822,0.89201 -0.2489,0.76772 1.80781,0.59099 1.30559,-1.2724 z m -3.45027,-7.32052 -2.07344,-0.61462 -0.24606,0.89265 -1.30374,-0.63869 -1.74683,0.89537 1.28991,1.28521 1.04585,0.004 0.4766,0.78382 2.39423,0.36729 1.9477,-0.45976 0.14702,-1.60084 -1.93124,-0.9141 z m -4.04766,2.28038 -1.29008,-0.96505 -0.99831,0.13985 0.0602,0.99296 -1.02519,0.0753 -0.69225,-0.99564 -1.69365,1.08661 1.11987,2.24346 2.20439,2.38976 1.50359,0.79324 -0.47377,1.04849 2.44982,1.69244 1.05035,-0.15247 -0.44506,-2.39882 0.53567,-0.5729 -0.3907,-2.13286 1.47145,-1.22124 -3.38635,-2.02315 z m 396.50963,380.57079 3.9372,-3.4271 -0.26963,-1.4441 1.6035,-2.3816 -1.13246,0.058 -2.60125,2.8548 -2.86302,3.7177 -1.17919,1.8007 -0.9594,0.6175 -2.72049,2.6676 -3.34146,2.3319 -4.45554,2.603 -3.20626,0.7408 -2.02766,1.2422 -0.2986,2.1069 -2.51967,2.1187 -5.67272,2.4174 -0.12224,0.7719 -1.2298,1.0047 3.60853,-0.8204 4.78971,-1.9982 3.72955,-1.5973 1.31277,-0.5434 2.26748,-1.5615 2.17635,-0.8802 1.2336,0.5988 3.81217,-1.8463 5.34566,-2.9935 -0.29764,-0.7618 -3.12689,0.9734 -0.80264,-0.7439 0.26456,-1.704 3.72083,-2.8149 0.56061,-1.2823 -3.60958,2.4444 4.07362,-4.2696 z m -28.45033,15.6957 1.98338,-1.5984 -3.79626,1.1131 -3.38199,1.7925 -2.07489,0.6019 -4.98,2.1984 -3.9705,1.3244 -4.42579,1.1607 -3.37047,0.7754 -2.14012,0.1948 -7.73801,2.3736 -5.17773,2.0171 -1.89681,1.2646 1.26542,0.915 -0.98798,1.4507 1.26207,0.6642 2.48651,-0.5682 3.90195,-0.8915 6.96641,-2.8482 4.31436,-1.935 3.59577,-0.6557 1.30574,0.4778 2.25172,-1.8242 3.19209,-0.9828 5.37234,-2.0105 3.3008,-1.3033 2.41478,-1.4227 1.90656,-1.6305 -3.51606,0.9002 1.93671,-1.5534 z m -19.17964,-195.60301 -0.48091,-1.30028 -0.64259,-1.77997 -2.70593,-1.58691 0.80572,2.73236 -1.99469,0.17138 -0.12591,1.59493 -1.97341,1.04375 -1.33982,-1.55955 -1.28283,1.381 -1.60549,1.04902 -0.58034,2.99256 0.64911,1.01342 1.78071,-2.02345 1.37238,0.0939 0.62764,-1.49008 2.12395,1.61158 -0.58101,1.70632 1.21521,2.53645 3.67909,1.97331 0.5843,-1.68637 -1.33233,-2.59255 1.02614,-1.84214 1.65914,3.59613 0.43054,-3.28824 -0.5411,-1.99254 -0.76757,-2.354 z m -5.88806,-13.17225 -1.18051,-1.27467 -2.72754,0.0671 2.53283,2.59791 0.42063,1.33301 -1.74364,-0.20004 1.03188,2.11116 0.90235,0.14372 0.76161,2.47711 1.14996,-0.85082 -1.27053,-2.14861 -0.38631,-1.1818 2.44432,0.83275 -1.93505,-3.90682 z m -2.45776,6.84781 -0.61704,-3.36979 -1.20394,3.48881 -0.15655,-2.3855 -1.50787,0.2774 0.24759,2.19076 -0.47164,1.01229 -0.36197,0.96221 2.30639,2.35775 0.66264,-1.07515 0.36836,-2.25849 0.73403,-1.20029 z m -17.51089,-28.22001 -1.65565,0.12123 0.47243,3.18283 1.90351,5.41086 -1.55755,-1.06169 1.36203,3.29386 0.96421,1.47807 2.07923,1.90574 -0.0775,-1.26921 1.11619,0.75174 -0.56682,0.93268 0.34298,1.44067 1.64906,0.68887 2.3748,-0.65698 2.47209,1.98803 0.30284,-1.32236 1.63528,1.77965 2.73333,1.60301 -0.21771,-1.63387 -1.18887,-0.79197 -0.36897,-1.92294 -4.16304,-1.73173 -1.09236,0.48556 -1.61479,-0.29614 -1.61326,-2.72786 -0.61756,-2.82333 1.1807,-1.25784 -0.45282,-2.93299 -2.00237,-2.41412 -0.18968,-1.46705 -0.64518,-0.85908 -0.43729,0.96356 -2.12726,-0.8572 z m 10.03787,22.83966 0.90679,1.64093 0.28069,1.79202 0.51952,1.62036 1.53224,-1.12995 0.91507,-1.54822 -0.35221,-1.46726 -1.79775,0.0917 -2.00435,-0.99961 z m -2.24365,-4.05373 -1.37638,-1.19953 -2.44559,0.004 2.26575,2.56793 1.72751,1.67427 -0.17129,-3.04627 z m -5.08029,13.41573 0.9531,-2.43791 1.41139,-1.98657 -1.24149,-2.80632 -0.60031,3.50641 -1.14225,2.46259 -1.59086,2.21058 -0.91027,2.46211 3.12069,-3.41089 z m 108.73367,59.7377 0.62855,-1.104 -1.08934,-1.413 -0.93877,-2.5848 -0.72063,-0.935 -0.12288,-1.1969 -0.45692,0.3728 0.11178,3.0575 0.77801,2.5821 0.92571,1.5864 0.88449,-0.3651 z m -6.28417,-9.5189 -0.0847,-2.07 -0.9506,-1.293 -0.98305,-1.6851 -1.12381,-0.9706 -0.90705,-0.8843 -1.47294,-1.1264 -0.87529,0.9362 1.98571,1.1915 1.47934,1.7138 1.16588,1.3229 0.48915,1.5443 0.23168,2.3506 1.04573,-1.0299 z m -3.90114,3.7647 1.33524,-2.3775 0.35658,-2.1891 -0.50005,-0.6633 -1.7341,0.032 0.0104,2.3286 -1.80965,1.3548 -1.02002,1.3168 -1.68703,0.2458 0.0416,-2.0847 -0.42684,0.085 -0.72182,1.8593 -1.62084,0.2541 -2.48431,-0.6497 -0.4327,1.1925 1.45384,1.1383 2.14742,1.2151 1.52178,0.061 1.6385,-0.8614 1.73673,-0.8974 0.63847,-1.0864 1.5568,-0.2737 z M 779.2205,67.7346 l -6.05646,-2.76788 -5.32632,-2.88093 -5.85233,-2.60195 -4.08318,-1.75567 0.14893,0.61901 3.16419,1.12502 1.18123,1.77846 7.26687,4.01202 6.14192,2.60343 6.89403,4.01222 3.46942,2.39765 5.59565,3.23286 4.58122,3.05714 4.37076,2.51742 -2.56532,-2.7346 4.28101,1.49441 -3.36631,-2.18672 -6.77395,-2.66713 -6.28941,-4.70301 4.15609,0.24513 L 779.2205,67.7346 z M 671.34133,1.50622 665.46617,0.5047 l 3.19047,1.16975 2.77215,0.39942 -0.0875,-0.56765 z m -35.73429,10.02577 -2.01693,-0.47451 -3.6344,-0.28714 -0.0309,0.57929 2.32509,1.0905 0.48923,0.05 2.03441,-0.44411 0.83353,-0.51405 z m -10.62477,-5.77854 -3.17305,0.32037 -2.02354,0.29686 2.37539,0.65586 3.92301,0.13709 1.45095,-0.34703 -2.55276,-1.06315 z m -6.29587,0.87908 -5.74142,0.0813 -1.60493,0.65725 0.73138,0.72116 4.76262,1.47915 5.83845,0.68816 -0.83982,-0.95687 2.12121,-1.06937 -5.26749,-1.60076 z m -40.47478,4.08976 -2.31725,-0.96986 -4.86622,-0.82097 -0.80173,-0.0171 0.22657,0.39594 6.64001,3.35522 1.11862,-1.94328 z m -6.40995,-0.37485 -5.19773,-2.09643 -6.93522,-1.83267 -3.90729,-0.86379 0.28602,0.81698 2.54439,1.96108 1.83284,0.267 4.44203,1.57345 3.10507,0.6338 3.2843,0.20761 0.54559,-0.66703 z m -1.07066,28.30254 -4.62916,-2.0147 -2.68704,-2.28408 -1.28072,-2.87468 -1.62939,-2.88649 -0.29903,-3.01336 1.00692,-1.70381 1.13601,-1.82162 -0.67993,-0.92208 -2.13842,-0.95207 -1.05292,0.60777 0.003,1.21997 -2.13322,0.9358 -0.6952,2.16247 -0.34508,1.7231 1.68836,1.21719 0.31414,2.72395 1.30048,0.22486 0.42153,2.61963 1.58188,1.51728 -0.53457,0.72862 1.64532,1.49378 2.81874,0.51476 1.55343,1.20693 4.20607,-0.0932 0.42899,-0.32997 z m -36.46883,-26.3331 -0.25665,-0.44635 -1.61803,-0.47973 -0.0551,0.52302 0.38427,0.69991 -0.95917,-0.72281 -0.905,0.14613 -0.69489,0.64293 1.50271,-0.0789 0.55979,0.90229 1.41961,0.56889 0.27088,-0.54694 -0.41572,-0.46101 0.33967,-0.27923 0.42761,-0.46819 z M 330.59491,1.99791 l 2.38178,0.0915 1.19312,-0.16911 1.99466,-1.05055 -0.23251,-0.36979 -0.39813,0.005 -5.87516,1.00152 0.93624,0.49169 z m -43.17863,8.01543 -6.98207,1.4839 3.78476,-0.49875 3.19731,-0.98515 z m 0.61736,-0.13121 2.39601,0.18715 -3.17277,0.57976 -2.59601,0.95859 1.66171,0.36393 -0.7783,0.86184 -3.38221,0.9755 -1.55981,1.30597 -2.30822,1.12693 0.35683,0.57041 1.89872,-0.21562 7.76468,-1.9777 1.8148,0.64312 4.05158,-0.37144 6.33081,-2.82018 -0.2253,-1.64116 -5.78773,1.49072 1.66368,-0.81958 5.11909,-1.11679 7.00142,-3.08184 5.44135,-2.47955 -25.69033,5.45994 z m 540.94149,158.14456 -1.61169,-5.61357 -0.81291,-2.09627 -1.82005,-0.88565 -0.4956,2.77979 0.42865,3.48182 1.73285,2.48916 2.98113,2.74712 -0.40238,-2.9024 z M 275.76457,18.4647 l -2.97672,0.77276 -0.51913,0.32046 1.06893,0.35725 -1.12801,0.60243 -1.11465,0.89339 2.17751,-0.0548 0.89269,-0.19504 0.30308,-0.82872 1.4662,-1.00796 -1.22994,-0.1174 1.06004,-0.74241 z m -24.19008,12.27287 2.68764,-0.98388 -0.0544,-0.66457 -2.12921,-0.14937 -1.43871,1.00101 -0.75559,0.82798 1.6903,-0.0312 z m -5.6102,14.07177 4.06466,-0.8123 1.48868,-1.04567 -0.33749,-0.52739 -1.60573,0.1199 -3.36012,0.45613 -2.84373,1.33107 -1.04099,0.96771 3.63472,-0.48945 z m -173.030873,126.75893 1.211077,-0.49868 1.533003,-0.69465 0.193168,-0.20545 0.152934,-1.43357 -0.107583,-0.57018 -0.25907,-0.39429 -0.59671,-0.78217 -0.154544,-0.0976 -0.38085,0.33935 -0.296348,0.78207 -0.851091,0.5702 -0.398253,0.41305 -0.423948,1.4633 -0.726317,1.07242 0.33182,0.63583 0.772712,-0.59961 z m 2.333516,-6.20385 0.520157,-0.43246 -0.295476,-0.68322 -0.685148,-0.4935 -0.474843,0.29497 -0.136086,0.24394 0.09382,0.35454 -0.07955,0.87306 1.057125,-0.15733 z m -0.417053,-2.29478 -1.169232,-0.34434 -0.511305,0.44256 1.320757,0.30687 0.35978,-0.40509 z m -1.946983,-0.88842 0.127663,-1.38353 -0.04401,-0.27938 -1.060945,0.43152 -0.0061,0.16896 -0.272143,0.92428 0.811162,0.26496 0.152148,0.0762 0.29227,-0.20297 z m -2.599449,-3.19225 0.591816,-0.90969 -0.532164,-0.17249 -0.664574,0.31974 -0.335423,0.26227 0.362942,0.83791 0.577403,-0.33774 z m 897.960802,151.03292 -0.68758,-1.4116 -1.50731,3.1603 -0.19423,1.1797 0.67984,-0.157 0.46019,0.6016 1.24909,-3.373 z m -1.3009,6.5506 -0.42065,-2.57 -0.68666,1.0903 -0.078,1.9095 1.18534,-0.4298 z m -444.00793,-191.29622 -0.61669,-2.47591 -1.40648,1.11981 -0.38586,1.07927 0.69963,1.94089 1.12224,0.57831 0.58716,-2.24237 z m -12.11224,6.77547 0.0624,-0.16124 -0.0188,-0.057 -0.22728,-0.3319 -0.40488,-0.12178 -0.49327,0.0369 -0.0167,0.0769 -7.7e-4,0.1738 0.0607,0.0507 0.24305,0.0363 0.75256,0.33094 0.043,-0.0336 z m -2.76211,0.16038 0.0286,-0.13448 0.0756,-0.072 0.0163,-0.0824 -0.0776,-0.0514 -0.007,-0.0477 0.0767,-0.10684 -0.0943,-0.0269 -0.60629,0.18178 -0.28472,0.15542 -0.98208,0.70154 -6.5e-4,0.11857 0.0606,0.0915 0.15635,0.0283 0.10167,0.15177 0.18129,-0.15308 0.13899,-0.0742 0.16162,0.0402 0.1119,0.0919 0.0645,0.28892 0.0743,0.0726 0.24393,0.0476 0.42326,0.19266 0.19551,-0.0931 0.214,-0.15501 0.1094,-0.26182 0.1283,-0.22773 0.1532,-0.20721 0.10779,-0.20453 -0.0366,-0.18339 -0.12921,-0.046 -0.13025,-0.0268 -0.24119,0.0877 -0.2336,-0.0958 z m -4.0666,2.52878 0.11942,-0.0401 0.3097,-0.30778 -0.0273,-0.14041 -0.11959,-0.097 -0.52243,0.11708 -0.11033,0.1437 -0.005,0.14286 -0.1056,0.0243 -0.0779,0.2011 0.0825,0.0717 0.37065,0.0623 0.086,-0.17769 z m 0.37122,0.71238 -0.004,-0.085 -0.23385,-0.0298 -0.1495,-0.16253 -0.0456,0.0826 -0.0362,0.0816 0.0107,0.11686 0.24187,-3.6e-4 0.16187,0.0349 0.055,-0.0383 z" />
</svg>
