<?xml version="1.0" encoding="UTF-8" standalone="no"?>
<svg
   xmlns:dc="http://purl.org/dc/elements/1.1/"
   xmlns:cc="http://creativecommons.org/ns#"
   xmlns:rdf="http://www.w3.org/1999/02/22-rdf-syntax-ns#"
   xmlns:svg="http://www.w3.org/2000/svg"
   xmlns="http://www.w3.org/2000/svg"
   xmlns:sodipodi="http://sodipodi.sourceforge.net/DTD/sodipodi-0.dtd"
   xmlns:inkscape="http://www.inkscape.org/namespaces/inkscape"
   enable_background="new 0 0 1000 2001"
   height="503.4816"
   pretty_print="True"
   style="fill:#483737;stroke:#ffffff;stroke-linejoin:round"
   version="1.1"
   viewBox="0 0 1001 503.4816"
   width="1001"
   id="svg2"
   inkscape:version="0.48.4 r9939"
   sodipodi:docname="canters_modified_sinusoidali_joined.svg"><sodipodi:namedview
   pagecolor="#ffffff"
   bordercolor="#666666"
   borderopacity="1"
   objecttolerance="10"
   gridtolerance="10"
   guidetolerance="10"
   inkscape:pageopacity="0"
   inkscape:pageshadow="2"
   inkscape:window-width="640"
   inkscape:window-height="480"
   id="namedview19"
   showgrid="false"
   inkscape:zoom="0.11794103"
   inkscape:cx="500.5"
   inkscape:cy="250.7408"
   inkscape:window-x="0"
   inkscape:window-y="0"
   inkscape:window-maximized="0"
   inkscape:current-layer="svg2" />

utf-8<defs
   id="defs4">
utf-8utf-8<style
   type="text/css"
   id="style6">path { fill-rule: evenodd; }utf-8utf-8</style>

utf-8
utf-8utf-8
utf-8</defs>

utf-8<metadata
   id="metadata8">
utf-8utf-8<views
   id="views10">
utf-8utf-8utf-8<view
   h="2001.0"
   padding="0"
   w="1000"
   id="view12">
utf-8utf-8utf-8utf-8<proj
   flip="auto"
   id="canters1"
   lon0="65.3146660706" />

utf-8utf-8utf-8utf-8<bbox
   h="2602.09"
   w="5178.48"
   x="-2589.24"
   y="-1295.13"
   id="bbox15" />

utf-8utf-8utf-8</view>

utf-8utf-8</views>

utf-8<rdf:RDF>
  <cc:Work
     rdf:about="">
    <dc:format>image/svg+xml</dc:format>
    <dc:type
       rdf:resource="http://purl.org/dc/dcmitype/StillImage" />
  </cc:Work>
</rdf:RDF>
</metadata>

utf-8<path
   inkscape:connector-curvature="0"
   id="---"
   data-name="---"
   data-id="---"
   d="m 602.18605,86.64706 1.07897,0.99475 1.46768,0.37434 1.65355,1.20285 0.96902,2.24016 -0.17752,1.4119 -2.79055,1.73381 -2.25503,-0.29662 -2.92928,0.5135 -3.8548,-1.28655 -4.76998,-2.33068 -4.22936,0.07 -2.8795,0.93279 -2.85201,2.15129 -4.94671,-0.44025 -0.83211,2.53619 -3.95994,0.13405 -2.5838,3.22194 1.78219,1.6216 -1.042,2.65533 2.0619,1.90659 1.83328,3.44284 2.85536,-0.0626 2.69621,1.85584 1.77782,-0.4142 0.47443,-1.44524 2.83546,0.11681 2.3004,1.8712 3.94659,-0.3926 1.59948,-2.00431 2.27493,0.79999 1.56696,-0.29629 -0.85435,1.30851 1.13169,1.58556 -0.49462,1.44439 0.51922,2.69893 -0.0373,0.12337 -1.07023,2.50155 -0.66997,2.90968 -0.0698,0.0371 -0.29662,0.90822 -0.29584,2.71706 -0.55779,1.69099 0.19997,0.20559 -0.67508,1.19598 0,1e-5 -1.23914,0.91634 -2.10184,-0.20608 -2.21161,-0.85918 -0.52688,1.18855 -0.86968,-1.80316 -1.93448,-0.45797 -2.33209,0.29905 -1.02274,1.04058 -1.97636,1.153 -1.27852,-0.56706 -2.72815,-1.07429 -2.63442,-0.95938 -3.54811,0.0599 -0.72542,-1.19562 -2.67545,-0.42405 -0.88568,-0.61598 -0.99281,-0.0153 -1.00345,-1.61058 -3.63946,-0.73528 -1.80328,0.49001 -1.82851,1.68733 -0.74706,1.75777 0.76002,2.78105 -1.20249,1.67717 -1.26303,0.9484 -2.93513,-1.81604 -3.83495,-1.5241 -2.42707,-0.70506 -1.37464,-3.21615 -3.59192,-1.60892 -2.24199,-0.59934 -1.10586,0.30895 -3.15961,-1.23476 -1.02619,-0.55975 -0.71715,-1.69774 -1.37179,-0.0606 -0.55706,-1.93817 1.68692,-1.78008 0.25294,-3.04683 -0.93729,-0.87048 -0.0324,-1.61549 1.25538,-1.70405 -0.20833,-0.66601 -2.17992,1.27707 0.0232,-1.75442 -1.84208,-0.41488 -2.81034,1.39716 -1.78512,0.21067 -1.08247,-0.80661 -2.79444,0.0268 -2.4414,1.36745 -1.32872,-0.51586 -4.32806,0.28171 -4.43605,0.6197 -2.52248,1.06044 -1.65717,1.44213 -2.84365,0.60908 -2.54014,1.92084 -1.14455,-0.0377 -2.72157,-0.77703 -2.50719,0.24321 -1.56568,-1.49076 -1.93544,-0.0168 -0.86506,2.1585 -1.83151,3.66466 -1.9928,1.47197 -2.69632,1.63221 -1.76627,2.42454 -0.4027,1.89857 -1.08922,3.11806 0.56341,4.54316 -2.31471,3.0709 -1.37366,0.98351 -2.18835,2.53072 -2.52136,0.41003 -1.39827,1.42774 -0.051,0.0521 -1.82453,3.81343 -1.84668,1.36658 -1.04906,2.32432 -0.12307,2.00963 -0.78463,2.20701 -0.93592,0.6109 -1.59021,2.41552 -1.01864,2.68999 0.13954,1.29357 -0.9536,1.99597 -1.08375,1.04568 -0.17993,1.78146 -0.16334,1.6276 1.40594,1.6667 0.6651,1.83802 -0.32314,1.93231 0.28681,1.93005 0.21707,3.84819 -0.42418,3.67963 -0.81508,1.93196 0.19689,2.1151 -0.70063,2.01913 -1.40187,2.76584 -1.23905,0.74931 1.36244,1.40569 1.09414,3.07903 -0.38636,1.75719 0.40884,3.04153 0.16459,0.84994 0.83939,0.84351 -0.0252,0.60519 0.62588,1.12167 1.17387,0.26318 1.47171,1.66492 0.80558,0.65292 0.39902,0.87816 0.29759,1.76272 0.69048,0.79344 0.71179,0.51737 1.07396,1.56395 1.20766,2.36633 0.31865,2.95933 0.47968,1.46398 1.44738,2.14838 2.01188,1.61665 0.75517,0.2978 1.87842,2.59136 2.38516,2.19914 2.54414,3.06142 2.89411,1.91837 0.73714,-0.0355 0.5434,0.10578 2.78938,-1.47631 1.95564,-1.16126 3.33327,-0.70222 1.8032,-0.0464 1.96142,0.7865 1.27977,-0.0409 2.50659,1.14275 2.53542,-1.16718 1.56417,-1.37936 4.40793,-2.35335 2.26269,-0.85722 2.32251,-0.4687 2.48037,0.002 2.11192,-0.0496 1.99581,2.64785 0.93191,2.91125 1.51109,2.51747 2.25099,0.088 1.07992,-0.90208 1.06832,0.21165 2.91683,-1.44835 -0.029,1.11222 0.72225,0.57722 0.57674,1.80407 1.28587,0.68302 1.10666,2.66323 -0.40494,3.18191 -0.96191,4.52747 0.52792,0.60806 -0.56629,2.99013 -0.68443,2.93608 -0.61548,1.2894 -0.0912,1.3397 1.70548,4.165 1.85457,3.3257 2.8813,4.0658 2.29378,4.263 0.73706,3.0237 0.38701,1.2465 -0.27173,0.7809 1.39188,2.5405 0.5562,2.6857 0.8207,3.8711 -0.87589,1.5868 -0.15789,0.8314 0.66622,2.3982 0.7217,2.4222 0.8219,1.4259 0.12072,2.2584 -0.32917,2.9473 -0.9184,1.7679 -1.63651,2.5958 -0.68574,1.6236 -0.95099,3.5648 -0.16777,1.694 -1.00981,3.606 -0.43435,3.4534 0.22375,2.463 0.12064,2.998 2.18394,3.8021 0.55668,2.4374 1.3539,4.6399 1.34805,3.1812 1.0305,1.5826 0.29942,2.0896 -0.0564,4.5636 0.75156,5.8325 0.58894,2.727 0.48463,3.6468 0.96872,2.7216 1.90691,2.8023 1.74805,4.7875 0.004,0.01 1.21916,3.0987 1.6004,3.4021 -0.0587,2.7725 -0.88938,0.6557 0.74922,2.4042 -0.11711,2.0932 0.30421,0.9562 0.14971,-0.493 1.05811,1.5854 0.88968,0.065 1.04934,1.2619 1.2051,-0.085 1.70726,-1.338 2.28963,-0.5617 2.81368,-1.4038 1.08486,0.1864 1.63187,-0.4344 2.82509,0.6862 1.35652,-0.6777 1.5732,0.5264 0.41082,-0.9893 1.3642,-0.1858 2.87185,-1.3868 2.12537,-1.6318 2.03759,-2.1601 3.29248,-3.738 1.71042,-2.6122 0.88559,-1.8813 1.27386,-1.8665 0.56411,-0.5324 1.97203,-1.8636 0.81819,-1.6709 0.53781,-3.0881 0.86423,-2.7187 0.36635,-1.9729 -0.677,-0.2527 -0.12886,-1.5841 1.28324,-1.3934 3.40815,-2.045 2.3333,-1.2799 1.22994,-1.3498 0.50999,-1.5817 -0.60209,-0.6519 0.55644,-1.7717 0.31028,-3.7537 -0.49634,0.1917 0.0346,-1.1482 -0.41039,-2.2555 -1.14144,-2.9214 0.38065,-2.7593 1.18378,-0.8965 2.07161,-2.7604 1.10019,-0.7105 3.33983,-4.1872 3.21922,-1.8988 2.61042,-1.4895 1.88836,-2.434 1.21001,-2.7319 0.96051,-2.8169 -0.40356,-1.9344 0.14705,-6.1902 -0.21496,-3.4866 0.25166,-3.9675 -0.39551,-1.7883 0,0 -10e-6,0 -1.00089,-0.8729 -1.04643,-3.9403 -0.91402,-2.5088 0.23047,-1.9136 -0.13269,-1.2182 0.82627,-2.4223 -0.0627,-1.0436 -1.7703,-1.4629 -0.12535,-2.2769 1.37528,-4.9555 1.15069,-1.3292 0.58134,-2.6791 0.9209,-1.6253 0.42443,-2.8392 1.05761,-0.2954 0.70708,-1.6819 1.98165,-1.6098 0.64065,-0.9547 0.65743,-2.1263 3.08732,-4.8853 2.61875,-3.06744 4.1917,-4.00347 2.79017,-3.26286 3.24121,-5.49454 2.32371,-4.50553 2.2803,-5.88891 1.59318,-5.12216 1.20415,-4.4716 0.62878,-4.31866 0.53322,-1.44087 -0.0986,-2.09485 0.15585,-2.31527 -0.11387,-1.09948 -1.05923,0.0109 -1.26131,1.36142 -1.46483,0.40057 -1.26341,0.59133 -0.89045,0.0785 10e-6,-1e-5 -1.58682,0.1399 -0.96934,0.72642 -1.37698,0.26224 -2.41503,1.23804 -3.02905,0.47252 -2.60254,1.02034 -1.39061,-0.0133 -1.32188,-1.66938 -0.60848,-1.64758 -0.93735,-0.73389 -1.24179,-1.08873 1.55812,-0.95163 0.0221,-1.64997 -0.71124,-1.22872 -1.42225,-1.19321 -0.93032,-1.3618 -1.61017,-2.28435 -1.6488,-2.25297 -3.96984,-3.72479 -1.61398,-1.91643 -0.94044,-3.60318 -1.84114,-4.528 -1.59067,-1.44136 -1.10449,-0.95925 -1.26753,-4.63777 -0.62971,-3.9808 0.5617,-0.69963 -1.11675,-3.77406 -0.53072,-0.78581 -3.40743,-3.43409 -0.24713,-2.47708 0.49936,-0.66308 -2.72722,-4.19628 -1.01887,-2.13127 -1.14429,-2.04528 -2.45902,-5.82343 -1.92849,-3.7292 -1.40469,-3.8881 0.25073,-0.33274 2.31586,5.28516 1.33983,1.65556 0.98834,1.19983 0.58223,-0.64956 0.58897,-1.93291 0.36289,-2.79289 0.63703,-1.48027 -0.34443,-0.95457 0.34444,0.95458 0.13289,0.53275 -0.21578,1.47122 -0.0182,1.29368 -0.26287,2.03435 1.34278,-0.0179 1.57396,2.55545 1.87694,3.01392 1.26713,2.79311 0.85548,0.84062 0.89849,1.95591 -0.0875,0.85463 1.05052,2.1709 1.5299,0.78516 1.38552,1.48385 1.86221,4.23213 0.0351,2.27197 0.49129,2.67167 2.05402,3.67736 1.26814,0.63522 2.07166,2.66649 0.96865,3.16725 1.66342,3.26973 1.50975,1.40032 0.3006,1.56109 0.90105,1.18004 0.45021,1.67415 0.21307,1.71354 -0.29793,0.75847 0.37569,1.79888 -0.54727,0.19159 0.87859,1.62086 0.6825,2.92125 0.50888,1.16708 0.016,2.16478 0.82429,2.31686 1.94137,0.20185 0.86922,-0.53861 1.38581,0.0876 0.38809,-1.00908 0.71869,-0.28936 0.56252,-1.0466 0.69417,-0.22513 2.33222,-0.20574 1.74109,-0.76242 1.54761,-1.64215 0.84816,0.23391 1.21596,-0.21797 2.34497,-2.78737 4.34197,-1.83965 2.66852,-1.6626 -0.0184,-1.34136 0.42532,-1.74411 1.93793,-1.05406 1.26674,-0.222 1.76345,-1.3219 1.55615,0.36933 1.26387,-1.08728 -0.12968,-1.57993 1.01046,-0.98373 1.72455,0.0315 0.56928,-0.82377 0.11939,-1.89898 1.60773,-1.4544 1.27228,0.0128 0.22048,-0.47766 -0.56146,-2.59467 0.26934,-1.96324 0.48952,-0.92184 1.26788,0.20271 0.77995,-2.64381 1.03926,-1.23166 0.3328,-1.07924 0.76805,-2.28717 -0.0829,-0.85447 -1.0312,-0.48473 -0.87073,-1.26961 -1.46593,-2.18655 -1.69273,-0.69385 -2.05672,-0.49703 -1.67078,-1.37932 -1.50088,-2.58777 -0.69897,-2.98046 0.27733,-0.68257 0.0784,-1.55201 -0.37318,-0.32567 -0.64401,1.27815 -1.45881,2.32003 -1.7716,2.42235 -1.60491,2.56321 -1.66,-0.11224 -2.26696,-0.0992 -2.07862,0.59865 -0.20147,-1.04133 -0.46766,0.18434 -0.65883,-1.44792 0.37036,-2.22466 -0.27313,-2.20676 -0.94421,-1.1786 -0.69981,0.40429 -0.53166,1.97468 0.45178,2.74883 -0.49804,-0.92729 -0.48466,-1.2384 -0.88721,-1.05658 -0.47084,-1.26432 0.14325,-1.25114 -0.32397,-1.54675 -2.01027,-1.57173 -0.60133,-1.31025 -1.41992,-0.85059 -1.39873,-3.20054 -1.1721,-2.78494 0.14659,-0.83973 -0.74262,-1.62055 1.61329,0.17984 0.83635,-1.42959 1.84648,1.21347 1.37388,-0.59379 2.55667,4.90449 2.20042,3.51651 2.72143,1.05977 3.05461,2.8684 3.4523,1.24221 2.5259,-1.8116 2.00195,-0.66748 1.37523,0.66198 1.69597,4.59979 3.12439,0.48934 3.06685,0.86629 5.25536,1.13982 3.77,-0.52942 4.41349,-0.0703 4.92223,-0.70973 2.47658,2.87786 1.15843,2.72708 2.12242,0.96188 3.60823,3.23757 0.99108,1.50136 -1.1539,1.38554 4.126,4.66244 1.99175,0.4626 3.73442,-2.30715 0.9543,3.6124 0.50827,4.69379 1.34203,4.98366 1.86749,7.59192 2.99511,5.41021 0.68103,2.46804 1.06693,4.95448 1.75027,3.81676 1.1039,1.88242 1.32276,4.02075 1.60681,5.59608 2.84002,3.73928 1.07152,-1.15165 0.80705,-2.72276 2.49568,-1.13403 -0.92694,-1.31768 1.09472,-3.04605 1.43722,-0.19322 -0.44475,-6.7665 0.89715,-3.77192 -0.41592,-3.28568 -1.03195,-5.13625 0.54992,-3.0027 1.27759,-0.20753 2.36152,-1.40747 1.28484,-0.96725 -0.18499,-1.80311 2.48177,-2.56097 1.79883,-2.46207 2.53471,-4.57641 3.6295,-2.60818 1.15939,-2.28666 -0.56657,-2.89871 3.27032,-0.79826 1.8753,0.0484 0.18346,-1.40211 1.11359,0.34358 0.84045,0.41875 0.29331,-0.69878 1.28604,0.77846 0.53331,-2.13434 -0.49765,-1.57755 2.54732,0.15293 1.49839,2.22894 0.8088,1.84792 0.45548,1.95991 1.08345,2.01049 2.40924,3.15511 1.68354,0.49678 -0.14175,1.39841 2.77076,4.48642 1.04496,3.65768 -0.37528,4.86024 1.82693,0.92187 1.5989,0.35034 2.82842,-2.80118 1.58632,-1.96662 1.59798,3.24948 1.07307,4.97373 1.4079,4.72971 1.33694,2.05234 0.17835,4.32463 1.14585,2.35376 -0.60868,3.05199 0.49685,2.96226 -0.55624,3.83359 -0.14603,2.49758 0.66531,2.22588 0.31938,-2.35523 1.47486,1.90035 1.62108,2.26369 0.58624,1.98737 1.18721,1.54077 0.70006,1.70309 -0.18271,2.92694 1.09802,2.19331 0.49817,3.3336 1.70087,2.69398 0.37681,2.05286 3.38891,3.19917 2.70131,2.98679 1.99446,-0.26902 0.0382,-1.36323 -1.16517,-3.56487 -1.01467,-1.11056 -0.26281,-2.38467 -0.31215,-1.38492 0.24329,-1.8318 -0.25662,-2.7103 -1.28833,-2.69287 -1.76954,-2.42658 -0.66422,-0.37539 -1.5596,-2.08437 -1.72613,-0.46668 -1.69202,-2.29806 -0.71052,-3.46953 -1.37948,-3.65306 -1.83515,-0.12555 -0.40012,-2.89249 0.63558,-3.5242 1.00224,-5.81249 -0.20405,-4.36304 2.45426,-0.0232 -0.0995,3.11524 2.38142,-0.074 2.6827,1.82346 1.78687,4.10963 1.31441,2.07693 2.3918,0.58238 2.26068,2.26736 -0.58232,2.70736 1.19943,2.56592 3.22706,-3.72451 2.0187,-3.32916 2.98252,-2.56725 2.08854,-2.62209 -0.34692,-6.98394 -2.14415,-7.31106 -2.09747,-3.15965 -2.84531,-2.42477 -3.31363,-5.11195 -2.73043,-4.10559 0.18376,-2.69341 1.69467,-3.6549 3.0977,-3.29658 1.18553,-0.62599 3.90824,1.23127 -0.38515,1.49003 1.20842,2.80251 1.48784,-0.22651 0.2184,-4.07408 2.79909,-0.58998 3.47421,-1.92407 1.18051,-1.90461 1.19205,1.24342 1.3394,-1.70162 2.99856,-0.43906 3.1362,-3.21129 2.98524,-3.50554 1.48241,-4.50739 0.98561,-4.92196 0.92627,-4.03055 1.41896,-0.3333 -0.1156,-2.93187 -0.43155,-2.99736 -1.90651,-1.13793 -1.20813,-1.9496 1.38575,-0.9954 -0.77083,-2.69773 -2.66763,-2.77421 -2.65881,-3.28845 -2.18183,-3.50315 -3.48868,-1.9449 0.5182,-2.46419 1.94557,-1.75695 0.55618,-1.88218 3.35577,-0.97007 -1.09415,-1.8129 -1.72328,-0.0919 -2.81583,-1.34117 -2.02239,2.46363 -2.43298,-1.00973 -0.65132,-1.54638 -2.34023,-0.56388 -2.22667,-2.31331 0.72629,-1.58756 2.48075,-0.16308 0.74647,-2.18352 1.98114,-2.33508 1.76233,-1.17892 2.08124,1.75142 -1.13433,2.26108 1.06273,1.31705 -0.76519,1.574 2.43311,-0.92813 1.27917,-1.58305 3.21923,-0.98094 1.59009,0.90472 1.66115,0.36834 0.39478,0.55322 0.0788,1.83241 0.47903,0.62289 -0.455,0.40079 -0.12351,1.50683 0.91283,0.54773 0.79716,0.31488 0.34149,0.64766 0.65471,-0.28591 0.0642,-0.64635 1.52082,0.65462 2.92618,2.95789 -1.72438,0.58496 2.50293,3.63465 0.4598,2.63926 0.97232,1.92673 2.27423,-0.30357 1.58902,-1.46715 2.14312,-0.67791 0.28166,-1.93351 -1.54399,-4.02247 -1.52201,-2.24492 -3.86775,-4.05121 -2.08014,-1.49442 -1.25856,-0.55221 0.14845,-0.37468 -0.5266,-1.46444 0.74168,-0.90522 1.48537,-0.553 0.54681,-0.99171 0.20207,-0.59026 1.00881,-0.73812 -1.15924,-2.38666 0.25679,-1.12407 0.60019,-1.11445 1.06342,0.19713 3e-5,3e-5 0,-2e-5 10e-6,0 -10e-6,-1e-5 -0.1091,-1.09161 2.28956,-2.38628 2.36267,1.58269 1.58926,-0.0424 2.46564,-1.90907 0.68736,-1.9089 1.5003,-3.6908 1.43151,-3.66827 -0.36615,-2.15246 1.17158,-4.43716 -1.83098,-4.79546 -2.0456,-3.50567 -0.0147,-2.88155 -1.74493,-2.41588 -5.65143,-3.07079 -2.76504,-0.17917 -0.5661,1.38526 -2.77053,-0.61804 -2.39461,-1.72753 -4.02173,-0.34528 4.44995,-6.30798 3.52958,-4.99331 7.02771,-0.73955 7.50822,0.42829 1.77709,-1.21955 3.96168,0.3753 1.47933,1.80607 3.37867,-0.25898 4.60575,-0.65408 -3.35624,-1.5209 1.78439,-4.04586 5.09136,-0.79925 4.9191,2.92732 3.10523,-2.6187 -0.72232,-1.91668 2.55441,-0.19391 1.76089,3.29771 -2.15352,1.91911 -1.48164,2.52783 -1.17525,3.17722 -3.1294,0.57382 0.95961,1.20761 -0.62502,1.55939 1.98423,3.69753 6.23334,6.13166 4.18006,4.1593 2.36725,1.9996 1.52648,-2.69861 -1.48956,-2.89548 3.06809,-0.68757 -1.73166,-3.17939 3.02548,-1.40109 -1.99161,-1.1705 -0.93204,-2.24657 2.1193,-0.0986 -3.15966,-3.81797 -3.22001,-0.57746 -1.05677,-1.03449 0.44737,-2.43989 -0.87738,-1.62787 3.44835,0.33731 1.15714,-1.05031 1.99455,0.91008 4.02845,-1.91387 5.10465,1.68472 -0.32929,-1.10978 1.73752,-1.47995 1.63883,-1.66662 1.72349,-0.27358 4.31993,-1.74728 4.86305,0.50201 -0.15622,-0.61005 -1.43339,-0.94428 -1.81273,-0.60914 -3.69021,-1.83522 -3.55039,-1.16271 3.12327,0.159 1.6145,-0.94821 4.5e-4,-0.0115 -11.89981,-8.01119 -4.37649,-0.81124 -7.6761,-0.87177 -4.31316,0.10838 -7.71635,-0.50435 0.34277,0.80401 3.61817,1.18134 -1.77243,0.60199 -6.34386,-1.65523 -3.78744,0.20309 -4.6431,-0.35943 -3.76318,0.0478 -2.33047,0.37547 -3.45059,-0.52124 -1.75892,-1.31218 -2.93651,-0.72481 -4.71842,-0.28521 -8.1324,0.32781 -7.63118,-1.30797 -3.39092,-0.98598 -20.77654,-1.04835 -1.69654,0.69581 3.83841,1.53868 -3.82937,-0.2365 -0.8869,0.47446 -4.86753,-0.52021 -2.99145,0.45422 -4.47546,-0.75709 0.37673,1.78912 -4.2948,-0.70198 -4.47269,-1.32579 0.29006,-0.68656 -2.45781,-1.02371 -4.61612,-0.81912 -3.33056,0.008 -4.84016,-0.26749 1.59712,1.18467 -9.12132,-0.23428 -1.52562,-0.72542 -7.06794,-0.25207 -3.01267,0.2411 -0.38038,0.40076 -2.40112,-0.98054 -1.48781,0.28569 -3.60618,-0.38031 -2.86939,-0.20892 0.95705,-0.43772 4.2845,-0.80022 1.64816,-0.41657 -0.62167,-0.71475 -2.46733,-0.50148 -5.66747,-0.63579 -5.97639,-0.0171 -1.34669,0.3145 -1.59165,-0.63356 -4.91572,-0.19232 2.23602,-0.30532 -4.14935,-0.39364 -3.91269,0.50002 -1.07728,0.53346 0.29472,0.55622 -3.77994,-0.0217 -3.58071,0.70507 -2.09339,-0.3007 -5.20405,0.12379 -0.19275,0.36941 -5.18975,0.18203 -3.16237,0.68987 -2.32685,0.0388 -1.32957,0.94497 2.53021,0.77652 -4.31905,0.19789 -5.09309,-0.0668 -3.33385,0.30682 1.76827,1.67178 3.09078,1.36699 -4.73985,-0.94138 -4.31939,0.0864 -3.01165,0.64815 1.94215,1.21883 -2.52939,-0.31242 -0.45533,-1.60907 -1.8621,-0.89277 -1.02027,0.0361 1.44437,1.15048 -2.91993,1.12561 3.83359,1.40671 -0.43343,1.79873 1.22349,1.02736 2.48168,0.15385 -0.18096,1.25162 1.9916,1.1021 -1.31008,0.94018 0.0222,0.99333 -2.12443,0.52198 -0.4523,0.7392 -2.71231,-0.30357 2.62028,-2.85181 0.11497,-1.29261 -3.16495,-1.15969 -1.22233,-2.49629 -1.57691,-1.22127 -1.73333,-0.54503 0.97308,-1.35265 -1.16702,-0.89905 -5.91602,-0.41803 -1.31807,0.31121 -0.26595,1.47649 -2.85182,1.53259 0.4385,0.55619 2.05817,1.3869 -0.16582,0.86425 2.72592,0.18086 0.31057,0.39334 2.82964,0.99421 -0.85262,1.00323 -9.19407,-2.16559 -3.3444,-0.57644 -6.71146,-0.55146 -0.7825,0.6017 2.87411,1.075 -1.7997,1.25782 -3.09183,-1.14537 -2.82929,0.78549 -4.0671,0.0528 -1.24932,0.65702 -2.81048,-0.20142 1.59788,-1.15702 -1.68771,-0.0927 -6.86827,1.64181 -4.19377,0.93264 -0.0297,1.27318 -3.24842,0.43918 -2.00086,-0.69187 -0.43736,-1.10758 2.6874,-0.24285 -1.69036,-1.08853 -6.35403,-0.61374 2.06636,1.19317 -0.63596,1.17554 2.27735,1.19592 -0.79115,1.40841 -2.32334,-0.72017 -2.08698,-0.11801 -4.52846,2.03479 1.98288,1.5626 -1.73503,0.52759 -5.80997,-1.34008 -1.20098,0.81249 1.6092,0.93305 -0.004,1.06687 -1.91605,-0.57309 -3.07444,-0.66763 -0.72337,-2.19381 -0.40613,-0.97361 -4.02935,-1.50801 1.55468,-0.25801 10.35637,1.5593 3.45763,-0.55141 2.10846,-1.07264 -0.60037,-1.33208 -2.00971,-0.93278 -8.98373,-2.15691 -6.08957,-0.44245 -3.89768,-1.10576 -2.04123,0.63306 -7e-5,10e-6 -2.69716,-1.13691 2.62934,-0.47557 -7.08413,-1.27406 -3.74442,0.343 -3.92193,-0.0764 -2.92557,1.4548 -3.56369,-0.0947 -4.57951,0.78708 -5.58549,2.33089 -3.46726,1.45147 -4.87828,3.9007 -3.83831,2.9688 -4.29977,2.27872 -5.90451,1.90291 -2.04833,1.48787 0.91216,5.53981 0.92306,2.68629 3.29074,1.29525 3.10184,-0.59796 4.45039,-2.90512 1.66336,1.53207 2.02541,3.61152 2.18362,2.9768 0.93132,2.53237 2.75571,-0.12443 1.18333,-2.12582 2.90462,0.25711 1.12555,-2.4728 0.48282,-4.31151 2.3698,-0.58839 1.82421,-2.79364 -2.36844,-1.34656 -1.83004,-1.68438 1.28173,-3.27725 4.12774,-1.94189 3.32569,-1.7732 -0.56089,-1.32295 1.92095,-1.47764 3.72407,-0.59062 3.28906,0.98857 0.40677,0.89709 -1.41112,0.44779 -4.73971,2.36775 -1.83425,1.40525 -0.88891,1.32485 1.41077,2.09326 -0.18588,2.34202 2.34805,0.7931 1.52967,1.33204 3.69891,-0.5171 3.93049,-0.89263 4.16364,-0.19265 10e-6,-10e-6 2.63364,1.15688 -2.40109,1.3612 -4e-5,-4e-5 -2.38989,0.0734 -2.59043,-0.40921 -2.87592,0.35949 -2.84494,0.693 0.40447,1.44284 1.61306,0.90183 0.81671,-0.32065 -0.0588,1.50859 -0.17909,1.99174 -1.88994,0.0509 -2.12546,-1.93954 -2.10904,0.88275 -0.96455,1.63989 0.14863,1.99372 0.76317,2.26165 -3.20682,0.88243 -0.42278,1.20603 -2.31931,-0.0348 -0.24551,-0.66944 -2.4355,-0.46191 -2.93799,0.9267 -3.64899,1.27593 -1.58603,0.81588 -1.19964,-0.88459 -2.78683,-1.08963 -1.3034,0.75496 -2.41613,0.51983 -0.0292,-0.98095 -2.46052,-0.64061 -0.097,-1.05625 -0.71816,-1.31977 1.61056,-1.92893 0.72446,0.28926 0.52129,-1.00186 -1.3091,-0.39984 -0.32634,-0.73652 0.65019,-0.85135 -2.2e-4,-1.33245 -1.85264,0.72904 -0.78953,0.71721 -2.07309,0.16193 -0.64147,0.78572 -0.3625,0.7111 0.1921,2.72799 1.03627,1.50392 0.17897,1.55317 0.59572,1.03567 -1.57835,1.37281 -0.47227,-0.61553 -2.00977,0.15153 -0.45051,0.59168 -2.00898,-0.079 -3.27585,1.17554 -2.04185,4.1996 -1.24514,0.79583 -10e-5,-10e-6 -1.95207,0.57358 -2.1355,0.58892 -0.72077,2.40968 -5.73903,2.32171 -2.32164,-1.28059 0.75741,3.39694 -4.15379,-0.77711 -3.22422,0.65688 0.20753,2.21715 3.78931,1.17877 1.82508,1.5603 2.56449,3.27069 -0.51242,6.333 -1.3261,1.93736 -4.11205,-0.10727 -2.11566,0.17001 -2.6974,-0.55319 -3.41523,0.0205 -3.0952,-0.58323 -3.67569,2.34043 0.99567,1.41647 -0.20355,2.34054 0.078,1.11438 0.47717,1.19171 0.0149,1.41195 -0.59812,2.01488 -0.22387,1.36151 -1.06927,1.22761 -0.27417,2.22507 0.58337,1.29459 1.15578,0.31585 0.18726,2.11266 -0.47159,2.70634 1.36068,-0.38185 1.36824,0.48787 1.07246,-0.89995 2.43144,0.53681 0.705,2.00047 0.95109,1.17979 1.2807,0.29025 1.02285,-1.32019 1.6592,-1.22978 2.49667,0.0659 3.32645,-0.053 1.86681,-2.6642 1.97363,-0.68742 0.5677,-2.23313 1.50518,-1.52466 -1.01163,-1.94316 0.99806,-2.74842 1.58323,-1.85872 0.22677,-1.1226 3.29198,-0.70322 2.41292,-2.2054 -0.15723,-1.91018 0.27054,-1.96687 3.69564,-1.05402 5.04127,0.87932 2.25898,-1.83156 1.0495,-0.23675 1.42119,-1.49398 1.15277,-0.43336 2.10002,1.05992 1.27692,0.37441 0.91562,3.20426 1.8101,1.88429 2.431,2.14403 2.07114,1.49617 1.91194,0.21538 1.17661,1.33923 1.6853,0.60763 0.83357,1.44725 1.09348,0.419 0.87637,1.7014 1.11343,1.96604 -0.5274,0.72753 -0.43956,1.8335 0.041,1.04944 1.07372,-0.26475 1.2389,-2.93387 1.07403,-0.20194 0.21023,-1.77191 -1.93978,-1.25309 0.96708,-2.17509 2.27381,0.55199 1.52773,1.57123 0.40981,-1.20576 -0.30581,-0.62707 -2.31575,-1.74456 -1.9479,-1.00734 -2.36861,-1.19955 0.6832,-0.65906 -0.66569,-0.7295 -2.0068,0.0204 -2.98304,-2.6447 -1.4163,-2.68769 -2.46066,-1.62446 -0.90715,-1.63204 0.26687,-0.90878 -0.21483,-1.57573 1.99235,-1.12048 2.02877,0.45928 -0.54525,0.28638 -0.0871,0.0511 0.002,1.09968 0.80255,1.065 0.69964,-1.3722 1.65093,0.5005 0.10878,1.07463 1.2317,1.34517 -0.49774,0.23973 2.27339,2.37282 2.3867,0.96417 1.55198,1.17237 2.47897,1.21004 0,-1e-5 1.14832,0.65122 0.78979,1.07439 0.55367,0.25551 0,10e-6 0.46678,0.52035 -0.28096,1.02782 -0.0673,2.27151 0.32803,1.59597 1.5047,1.1295 0.10037,0.74223 0.45555,0.23649 0.23854,0.96384 1.45663,1.93843 1.11783,1.57047 0.60621,2.28553 1.16022,2.76714 2.24805,1.51312 1.73917,-0.0436 -1.20319,-3.06322 1.63388,-0.36274 -0.89517,-1.75721 2.47913,0.91196 -0.1834,-1.94154 -1.36221,-0.99253 -1.56303,-1.57162 0.92268,-0.74462 -1.41521,-1.58937 -0.72843,-2.01171 0.42849,-0.73601 1.49867,1.73 1.43948,-0.003 1.26899,-0.54851 -1.94004,-1.88461 3.04742,-0.86766 1.37038,0.31522 1.57722,0.0948 0.0256,0.68957 0.94862,1.56185 1.99084,-1.80532 1.00277,-1.03199 3.03758,-0.18364 0.38738,-0.81456 -2.34729,-1.07053 -0.429,-1.26949 -1.01077,-1.87378 0.6968,-2.33189 1.1808,-1.34171 0.29058,-3.86893 0.80097,0.29832 1.14814,-0.68482 -0.15245,-0.81839 1.67525,-2.33025 0.7208,-1.72162 2.27329,-0.38325 0.32116,1.16249 4.00621,0.79122 0.82344,0.71925 -2.274,1.04765 -0.36835,0.60633 2.87659,0.92854 -0.36595,1.49786 1.49124,0.65108 3.19178,-1.84754 2.68913,-0.5506 0.33272,-1.13023 -2.54446,0.18971 -1.33773,-0.76185 -0.41783,-1.95336 1.99466,-1.16302 2.32133,-0.16407 1.51353,-1.00394 1.95799,-0.24748 2.16397,-0.49794 0.17481,0.67567 -3.49156,1.26699 1.59117,1.23492 -1.69498,2.63142 -1.76252,0.50609 2.44879,1.86913 3.06366,1.20737 3.63675,2.7249 z m -16.03488,197.28384 0.13925,-0.6755 -0.79305,-1.0687 -0.328,-2.202 -1.68045,-2.1876 -0.92425,-2.8764 0.52444,-1.6946 -0.73352,-2.2619 0.56465,-6.4351 0.0123,0.047 0.99948,3.8375 -0.0156,0.1788 -0.15205,1.7378 0.53326,0.5813 -0.11448,1.7134 0.52196,1.5843 -0.66517,1.5396 2.22419,2.7251 0.17244,2.4843 1.33543,4.0948 0,0 0.2159,0.6649 -0.47285,0.2267 -0.58938,-0.8334 -0.95201,-0.3209 0.17749,-0.8593 z m 9.81505,-33.57335 0.68166,1.52888 -0.18444,2.98637 -10e-6,0 -1.39489,1.7991 -0.93071,1.8222 1.10609,1.3824 -1.61228,0.9925 -0.34892,-0.4703 -1.63081,0.2397 -1.26295,0.9051 -0.7749,-1.5529 0.54272,-2.8216 0.0927,-2.4271 0,-10e-5 -0.14068,-1.5603 1.29111,-2.3565 1.78372,-0.57625 1.19857,-0.96076 1.46092,0.79383 0.12309,0.27573 z m 45.52562,-142.79422 -0.11927,0.81022 -3.9441,0.91874 -3.81544,-0.59881 -2.08109,-1.73747 -2.58529,-0.71895 -1.20922,-2.53362 -0.33036,-1.69158 0.8275,-0.79549 0.25725,-1.18863 0.0247,-2.62044 2.0818,-0.27029 -0.94645,-0.90399 -1.22752,-0.15655 -1.70604,-2.36506 -1.6451,-1.74391 4e-5,-3e-5 -3.4519,-3.8632 -0.1295,-2.186 -2.84463,-3.05013 1.9118,-3.27708 2.34206,-0.51918 0.78344,-1.85904 2.20873,-0.65374 2.61746,-1.3651 2.28641,0.7567 2.47307,-0.15016 0.85957,1.92709 0.18973,3.07252 -2.29967,-0.47286 -2.0416,0.51422 0.36099,2.32827 -2.52134,-0.30367 0.2835,1.04317 1.55484,0.81284 1.69488,2.90557 3.16469,1.1103 0.70177,1.14001 -0.37425,1.36958 0.29164,0.80432 1.19252,2.14786 -0.18189,-2.42784 1.90485,-0.84054 1.09019,1.88816 2.24479,1.99411 -2.06697,1.0684 -2.57693,-0.82 -0.0714,2.82441 1.75007,0.19642 -0.26271,2.314 2.22077,1.14983 0.2265,3.57742 0.88706,2.4392 z m -43.29467,189.13267 -0.78574,3.7472 0.27889,4.5422 0.0315,0.5276 0.51933,0.1655 0.49027,2.1139 -0.0855,0.4891 -0.93106,-1.5385 -0.52356,0.9883 -0.41374,-0.8473 0.066,-1.4859 -0.60105,-1.159 0.0842,-1.7235 -0.73567,-2.9219 0.87914,-2.209 -0.0382,-4.8026 -0.92251,-2.5783 0.1013,-0.4429 0,0 0.17833,-0.781 1.42748,2.1361 0.11884,4.1894 0.87555,1.5249 -0.0137,0.066 z m -264.40716,144.9487 1.07225,0.1444 -2.16359,-1.6607 -1.76005,-3.0194 0.57401,-1.378 1.88803,-1.1688 0.56643,-3.5143 2.44589,-1.7127 0.1011,-2.7525 -2.55938,-0.6251 -3.08277,-2.2779 0.0921,-2.3561 1.55556,-1.6228 2.38369,-0.01 0.17085,-1.7074 -0.41584,-3.2385 1.56912,-2.0213 2.11826,-1.0146 -1.14675,-1.7058 -1.16664,1.0367 -1.95412,-0.9895 -1.09965,-3.2903 0.80098,-0.8722 2.74,1.2132 2.53645,-0.4594 1.29594,-1.1741 -0.82802,-1.6904 0.0142,-2.5252 -0.95024,-2.0259 2.92023,0.343 5.07346,-0.7094 3.51988,-1.834 1.73523,-4.423 -0.15309,-1.6987 -1.89419,-1.5216 -0.0387,-2.4191 -3.83972,-3.0258 -0.11555,-1.8547 1.9238,1.9648 1.77411,-0.1138 2.68022,1.5196 1.36911,-0.3788 2.05718,0.7065 2.68482,-1.9666 0.8188,-2.2343 1.46504,-2.0428 0.74589,-3.4186 1.58967,-1.6898 1.98374,-2.8796 2.21072,-6.4468 1.65479,-2.0317 0.41594,-1.8075 0.11042,-3.7596 -0.66042,-2.0648 0.1174,-2.8027 1.94923,-3.7412 2.94072,-3.018 2.96449,-1.1105 1.78675,-1.6943 4.19008,-1.4665 2.97513,0.01 0.47391,-2.293 2.10337,-1.662 0.20019,-3.9743 2.4782,-5.0493 0.19166,-5.1988 0.79146,-1.5396 0.15929,-2.5777 0.47883,-6.0493 -0.51911,-7.3937 0.66433,-2.9141 0.69482,-0.077 1.94239,-3.4413 1.63403,-4.4983 3.78971,-5.5522 1.36133,-2.6104 0.97516,-6.6232 -0.51122,-2.4281 -1.03628,-5.1161 -1.03715,-1.2686 -2.40744,-0.1613 -2.18276,-1.1605 -3.64831,-4.5099 -4.19361,-3.3341 -4.2047,0.157 -5.49741,-2.1316 -3.26359,1.2421 0.44368,-2.2311 -1.38912,-2.3626 -4.68818,-2.4626 -3.54814,-1.4494 -2.1305,2.6461 -0.11246,-4.04201 -4.97912,-0.63335 -0.87575,-1.21565 2.12642,-3.31981 -0.0614,-2.78339 -1.50148,-0.66555 -1.50442,-7.04745 -0.66252,-2.2272 -0.96166,0.19026 -0.43782,-1.64855 -2.91151,-3.39578 -2.04942,-0.95164 -0.94462,-0.44228 -2.99669,-1.08012 -2.28017,0.29001 -0.3202,0.72447 -3.34826,-0.80495 -1.07258,-1.39871 -1.44991,-1.95901 -1.05572,-0.0951 -0.0144,-2.06629 -1.64841,-2.61224 -1.78873,-1.47365 -1.06312,-0.9439 -1.46562,0.0904 -0.31501,-3.20532 -2.0375,-1.96496 -2.22679,-0.30009 -0.86621,-1.8843 2.43602,-1.17801 -3.3574,0.0554 -3.47993,0.24047 -0.0834,1.00448 -1.63339,1.2468 -2.11758,-0.49335 -1.51075,-1.78667 -3.01299,0.40982 -2.51198,-0.035 -0.0367,-1.32011 -1.68936,-2.22122 -1.95753,-0.0646 -0.82937,-2.79483 -1.05969,1.2542 0.27183,1.87555 -3.58084,1.61921 -0.0308,3.01923 0.7929,1.40524 -0.7767,2.88903 -1.22154,0.25972 -0.89822,-3.17135 1.36325,-2.31864 0.1549,-2.08519 -0.8028,-1.80755 1.67067,-0.46456 0.13857,-0.94014 0.6287,-1.33872 -0.66405,-1.04516 -0.97327,-0.24331 -1.47978,1.91429 -1.14688,0.88917 -2.32812,2.00992 -2.16799,-0.33235 -0.27467,0.83018 -1.76789,0.0757 -1.71919,1.84972 -0.71228,3.37277 -0.10023,1.32176 -1.17721,0.42548 -2.2488,2.79282 -1.44306,-0.12712 -0.99812,-1.10593 -0.85099,-1.20354 -1.20936,-0.69061 -1.55529,-0.13634 0.12671,-0.39317 -1.53398,-0.2345 -1.02466,1.19457 -1.74769,0.8066 -1.24826,1.01048 -1.39556,0.28922 -0.71702,-0.98322 -0.2828,0.32542 -1.10905,-0.17988 0.10519,-0.84748 -0.92297,-1.43398 -1.21141,-1.70519 -0.98011,-1.60642 -0.56331,-2.16656 -0.38342,-0.65458 -0.0536,-1.07636 0.64632,-1.01782 -0.11407,-1.0505 0.39153,-1.69998 0.4573,-0.39019 0.0724,-1.78692 -0.0659,-1.02216 0.23771,-1.74574 0.43789,-1.5923 0.76215,-1.3465 -0.15197,-1.44501 0.22403,-0.88081 0.27509,-0.37844 -0.62844,-1.08416 -0.95246,-0.60328 -0.71634,-0.88243 -0.7742,-0.73528 -0.43225,-0.0868 -1.2131,-0.54529 -0.5873,0.34108 -0.73625,0.092 -0.6373,-0.26697 -0.86402,-0.20343 -0.37175,0.44012 -0.93916,0.43499 -1.29534,0.10275 -1.25394,-0.35486 -0.45171,0.1953 -0.22398,-0.32058 -0.80105,0.0564 -0.68252,0.6915 -0.27254,-0.1537 -0.76198,-0.50214 -0.30185,0.5861 -0.83026,-0.71147 0.69809,-1.36109 0.51522,-0.12501 0.6601,-1.0414 0.54491,-1.9808 -0.13203,-0.37447 0.45325,-1.39994 -0.17096,-0.60463 0.65101,-1.68904 0.17595,-1.06076 -0.52202,-0.0179 0.0608,-0.57168 0.58703,-0.0649 0.57755,1.00094 1.07218,-3.038 0.62983,-1.67895 -0.42011,-0.67556 0.9705,-2.35804 1.7946,-2.29639 0.35401,-1.85622 -0.54253,-0.81585 -1.71339,0.32581 -2.41341,-0.134 -3.03661,0.89275 -2.00953,1.00904 -0.63854,1.1278 -0.68295,3.24901 -0.96447,2.26258 -1.96728,1.58594 -1.82739,0.66739 -2.16193,0.69985 -2.1604,0.3935 -2.5692,1.08958 -0.92724,-1.63062 -2.79448,-1.03274 -0.81267,-1.91367 -0.32424,-2.2129 -1.39598,-2.87959 -0.0801,-2.98989 -0.54756,-1.87462 -0.12675,-2.09195 0.58307,-1.86815 1.10773,-5.10165 0.98379,-2.72624 1.69088,-3.31039 -1.08172,0.11286 1.08175,-0.11287 -0.26477,-1.27774 0.22465,-1.79961 0.55564,-2.57797 0.97278,-1.67548 1.85059,-1.77267 3.02167,-1.59605 3.0434,-2.73398 2.44958,-0.85878 1.72698,-0.25748 1.76984,0.85036 2.44188,-0.45832 1.59748,1.94492 1.92886,0.11469 1.15394,-0.69912 0.8865,0.54361 0.61184,-0.48446 -0.42108,-0.7272 0.35446,-1.48977 -0.2773,-0.97419 1.22986,-0.57087 2.09787,-0.25203 2.29408,0.4044 3.12562,-0.4596 1.49509,0.90514 0.95829,1.71097 0.44449,0.1836 3.03924,-1.66525 0.93625,0.56242 1.50116,3.07663 0.37434,2.03205 -1.00334,2.46191 0.14531,1.45578 0.76171,2.857 0.89762,3.22709 0.89179,0.86576 0.16456,1.6546 1.26765,0.45801 0.88868,-0.47651 1.04389,-2.30161 0.35483,-1.46209 0.50294,-2.52645 -0.53727,-4.3228 0.27002,-1.60241 -0.72014,-2.61529 -0.30327,-3.14447 0.021,-2.53901 0.92876,-2.58474 1.69496,-2.14639 1.85542,-1.71679 3.40326,-2.33055 0.63146,-1.20031 1.61941,-1.31046 1.37081,-0.22839 2.18184,-2.08305 2.95567,-1.04927 2.23755,-2.61478 0.40251,-3.49825 -2.2e-4,-1.20255 -0.69641,-0.23984 0.65097,-3.28527 -1.53032,-1.10522 1.5924,0.53746 -0.0345,-2.17027 0.85953,-1.47157 -0.38137,2.83302 1.02068,1.31092 -1.35187,2.3459 0.20644,0.13737 2.10666,-2.7528 1.14784,-1.33198 0.26669,-1.2905 -0.49925,-0.60607 -0.0953,-1.82732 0.64337,0.84728 0.52674,0.17664 -0.0168,0.87303 2.51479,-2.60943 1.15021,-2.4169 -0.72092,-0.15374 1.01587,-0.92746 -0.17883,0.4103 1.64353,-0.007 3.85228,-1.0018 -0.60722,-0.63108 -3.93515,0.6274 2.38546,-0.96383 1.53542,-0.16397 1.15906,-0.16605 2.04247,-0.57861 1.21775,0.0645 1.86342,-0.537 0.43549,-0.94359 -0.58832,-0.7318 -0.027,1.20322 -1.04391,-0.0826 -0.41113,-1.74503 0.46555,-1.73555 0.61971,-0.73297 1.84406,-1.92567 2.92974,-0.95466 2.89133,-1.10921 3.10033,-1.54889 -0.16755,-1.04274 2.90432,-0.38624 4.06406,-0.10371 -5.04788,2.63332 -0.57618,2.72348 1.87361,0.23761 3.39786,-2.32143 2.82465,-1.29509 6.04818,-1.89301 3.60536,-2.06744 -1.35068,-1.13556 0.37813,-2.25725 -3.37547,3.50794 -4.27011,0.45549 -2.86838,-1.56807 -0.20408,-2.34902 0.10427,-3.31404 2.90806,-2.03953 -1.77713,-1.47631 -3.78621,0.29927 -5.93384,2.51849 -5.17015,4.03352 -2.27238,0.50971 3.70333,-2.84819 4.76961,-4.01892 3.54637,-1.3285 2.69881,-2.13162 2.6075,-0.20446 3.68328,0.0213 5.08496,0.62251 4.29066,-0.48011 3.74227,-2.4114 4.30905,-1.03348 2.02311,-1.0147 2.05623,-1.08033 0.6892,-3.18838 -0.67534,-1.05612 -1.77267,-0.37029 -0.27008,-2.33801 -1.27633,-0.87191 -3.59733,-0.70293 -1.65213,-1.54103 -2.6639,-1.50413 1.51739,-1.65495 -1.50773,-3.10182 -1.83594,-3.21027 -0.936,-2.19224 -1.99379,1.13549 -3.32374,2.74491 -3.94694,1.40735 -1.09878,-1.49233 -1.97249,-0.39274 0.55676,-3.12458 0.96664,-2.02573 -4.02392,-0.18062 -0.26778,-0.92009 -2.16945,-1.35725 -1.73846,-0.78361 -2.19729,0.60709 -2.23468,-0.22533 -3.58607,-0.62721 -1.87032,0.53187 -1.12171,3.68221 -0.0639,2.20053 -3.98263,2.6066 1.97077,1.90984 0.63302,2.19364 -0.5556,1.75368 -2.0935,1.8537 -3.48649,1.8905 -4.36182,1.2784 1.10171,1.44873 -0.47649,4.4311 -2.4285,2.95014 -2.2327,0.94452 -2.58603,-2.74093 -0.49071,-3.17492 0.41138,-2.79894 1.40613,-2.37032 -2.48567,-0.26191 -3.87591,-0.15629 -2.00963,-1.1355 -2.63856,-0.73711 -1.09849,-1.25567 -1.87749,-1.0015 -3.81994,-1.13129 -3.57076,0.51503 -0.067,-1.96575 0.24214,-2.38261 -3.19884,-0.419 1.79292,-2.87518 2.03733,-1.90736 4.127,-2.66017 3.96861,-1.86702 2.8266,-0.28469 1.08466,-1.46308 2.39317,-0.937 3.32407,-0.14586 3.56562,-1.47397 1.27103,-0.93701 3.34064,-1.77152 1.37147,-1.03245 1.87079,0.61701 3.29999,-0.3169 5.28443,-1.41664 0.93963,-0.9659 -0.81362,-1.04448 2.36101,-1.02042 0.55522,-0.93215 -2.21247,-0.91452 -2.98499,-0.26778 -2.9578,-0.13901 -1.72572,2.0286 -2.84705,1.65471 -3.34481,1.42512 -1.13729,-1.33142 1.75438,-1.42758 -1.63007,-1.20772 -4.10715,1.47443 1.58704,-1.9153 -3.70745,-0.37012 2.69518,-0.88666 -1.0971,-1.96837 -1.4267,-0.74529 -2.5334,-0.26716 -3.74846,1.22416 -2.03069,1.93846 1.85222,0.73085 1.32179,1.13792 -2.59492,1.91217 -1.71892,-0.052 -2.67712,1.56497 1.53713,-1.85198 -2.8297,-0.64909 -2.23123,0.33325 -0.77897,1.20427 -3.16208,-0.047 -3.67702,0.31127 -3.10153,-0.87938 -2.5856,0.15453 -1.23635,-1.04385 -1.33137,-0.45233 -1.92403,0.18895 -2.73776,0.0873 -2.03827,0.65313 1.46152,0.82089 -3.30767,0.99502 -1.2436,-1.17734 -2.19242,0.34091 -6.14875,0.23111 -3.55638,-0.41943 4.03787,-0.95844 -1.95643,-0.96146 -2.259,0.12113 -2.65675,-0.31868 -4.33753,-0.68118 -2.43981,-0.76856 -2.49535,-0.10472 -1.43345,0.53156 -3.00959,0.30146 1.33296,-1.37826 -4.33799,1.22935 -1.69058,-1.61914 -1.24887,-0.1887 -1.52838,0.83968 -2.12997,0.42238 -0.55559,-0.74667 -4.09197,0.44747 -4.23781,0.7995 -2.93556,-0.22364 -3.34712,0.5742 -2.87563,0.77761 -2.0541,-0.17254 -2.27979,-0.89257 -3.4581,-0.44099 -3e-5,-10e-6 -2.00709,-0.25418 -2.53092,-0.54121 -3.27452,0.29183 -1.33382,-0.23362 -3.90527,-0.16818 -3.71545,-0.56051 -2.45349,0.1766 -2.83898,-0.29978 0.74001,-0.40224 -3.4602,-0.10429 -1.47367,0.33745 -0.32657,-0.78257 -2.65528,-0.35896 -4.76372,0.91755 -1.7843,-0.11634 -5.307,0.77791 -2.41577,0.20271 -3.5381,0.85256 -1.87946,0.89031 -4.01563,0.84821 -3.95206,0.0611 -2.69995,0.99512 2.12203,0.60938 0.92554,0.83298 0.1987,0.99242 1.68786,0.76733 0.14659,1.26889 -4.79663,0.0806 1.64751,-1.02639 -1.82139,0 -6.28092,1.00337 -4.27506,0.87208 1.24577,1.23046 -0.14198,0.86454 2.65265,0.52022 3.47767,-0.24397 1.19581,0.48028 1.26294,-0.4809 2.95218,-0.4712 1.40805,-0.0245 -2.66519,0.83652 0.7948,0.39351 -0.75511,1.00768 -2.52027,0.69216 -1.42315,-0.19271 -3.07394,1.08562 -1.14436,-0.3616 -2.02683,0.16495 -2.14527,1.16807 -3.30743,1.28833 -2.37179,1.34711 0.67955,1.01115 -1.42979,1.36069 0.97698,0.58228 0.7825,1.14854 3.49377,-0.47049 0.61791,0.87582 -1.31916,0.90949 -1.24877,1.49268 1.43427,0.002 3.30277,-1.00599 -0.32416,1.25439 1.49045,-0.90424 0.31697,1.28021 2.13117,-0.9192 0.3463,0.43385 3.4124,-0.76347 -2.58073,1.4924 -2.17953,1.94486 -2.56397,0.91632 -0.99395,0.5227 -4.67672,1.57547 -2.12526,1.09011 -3.2157,0.30219 -3.81981,1.47127 -3.06053,0.83705 -3.71492,1.27655 -0.0168,0.46191 4.78266,-0.78404 2.76746,-0.91295 3.21425,-0.92365 2.87145,-0.75181 1.45976,0.20692 3.76792,-1.14632 1.82943,-1.24779 4.88432,-1.3589 1.60327,-1.15377 3.05986,-0.78857 3.48816,-1.07381 3.86409,-1.8201 -0.58348,-1.21377 5.0031,-1.75393 3.12932,-1.61435 4.23657,-1.33156 0.048,0.59713 -3.16568,0.73779 -3.31281,2.38816 -1.01953,1.46126 3.06723,-0.52907 2.81551,-0.83527 3.1596,-0.51286 1.42738,-0.15729 1.09576,-1.68777 3.04186,-0.50864 1.78686,1.0265 3.53806,1.11884 3.39651,-0.20858 3.29053,0.87592 1.8226,0.46865 2.65966,2.59936 2.15834,0.73157 3.6813,0.0625 2.12434,0.16507 -0.59894,2.43701 1.48087,2.12638 -0.99298,2.33192 1.5036,0.86247 0.61318,1.02419 1e-5,-1e-5 -0.90357,1.41452 1.58666,2.01612 -1.02583,2.2697 2.35137,1.21153 -1.42227,1.76192 -0.16929,2.57268 3.74119,1.21593 1.03564,1.27707 3.17495,2.9346 0.32815,0.008 -0.46426,2.48347 -0.88928,2.51279 -1.0291,0.81513 0.15461,-2.90097 -3.05099,-1.03454 -0.61578,0.59408 -0.0184,1.41903 -0.56353,2.63884 -1.62441,4.19964 -1.68556,2.88301 -1.66593,2.9157 -2.38386,3.06146 -0.29515,2.51431 -1.13292,2.83942 -1.72706,2.76924 0.6228,1.83823 -0.74925,2.76307 0.89963,2.86312 0.71903,1.13502 -0.39242,0.79804 0.4199,4.8258 1.32456,3.52487 -0.3339,1.93657 0.48322,0.57189 2.33973,0.34977 0.63281,0.96063 1.42716,0.17859 -0.0382,1.02158 1.10087,0.42687 1.0768,2.0567 -0.11377,1.8351 0.11626,3.24871 0.40277,2.90455 0.32556,2.39506 0.36741,2.29106 1.30658,1.01899 1.38915,2.63393 -0.52375,1.67189 -1.34845,1.38793 -1.06053,-0.21095 -0.26695,0.28073 1.063,2.16417 1.4532,0.90434 0.45248,0.97521 0.47164,-0.4819 1.47364,1.67205 1.02757,1.16399 -0.0448,2.03989 -0.69283,2.76427 1.18946,0.9621 1.58519,1.83489 1.34921,2.16923 0.26609,2.32036 0.4817,0.0184 1.42462,-1.40293 0.20054,-0.68307 -0.6525,-1.7004 -0.74248,-1.72632 -1.28979,-0.1254 0.27029,-1.99831 -0.37559,-1.77073 -0.44441,-1.65089 -0.10848,-3.49267 -1.2562,-1.90273 -0.25988,-1.32044 -0.59079,-0.94693 0.0515,-2.39398 -0.4923,0.0515 -0.0337,-1.27107 -0.34226,-0.26382 -0.22002,-0.86918 -1.32844,-2.5352 -0.51262,-1.51165 0.49648,-2.74247 0.0508,-1.74487 0.85042,-1.4717 1.2368,0.99801 0.93633,-0.15795 1.52668,1.44 -0.42747,1.39834 0.19183,2.79926 0.71842,2.77165 -0.1779,1.15218 0.80987,1.7986 1.08693,1.95377 1.3799,0.30239 0.0577,2.59945 1.17983,1.81683 1.18477,0.87391 -0.92928,2.32142 0.29933,0.91976 2.00554,1.54016 0.83459,2.35823 2.14992,2.96599 1.68682,3.79148 0.56457,1.93208 -0.026,1.52671 0.62399,1.7262 -0.24214,1.3318 -0.80177,1.00029 0.0993,1.10106 -0.9812,0.37721 0.349,1.8855 0.99585,2.44564 2.63297,2.20638 0.89126,1.77732 2.65462,1.23485 1.51656,0.2329 0.55512,1.04318 2.06725,1.86949 2.90442,1.8215 2.0114,0.54957 2.37469,1.80101 1.99313,0.74773 1.84202,1.0366 1.44557,-0.38781 2.40283,-1.47905 1.58463,-0.28543 2.14998,1.02488 1.2899,1.27728 2.69819,4.24395 1.33579,1.63016 1.19831,0.78448 1.7319,0.0714 1.36503,0.69017 0.71069,0.85001 1.52732,0.24589 1.08264,0.78758 0.97063,0.37961 1.61103,0.0592 0.39204,-0.93306 0.81676,0.34447 0.37426,1.24013 -0.23539,0.28027 -0.40943,-0.59696 -0.36271,0.61325 1.24851,1.79249 1.07664,1.24856 0.51016,1.34016 1.18537,1.60537 0.87626,1.25447 -0.69619,0.76973 0.75104,0.56185 -0.45682,1.25626 -0.097,1.215 0.3306,0.80471 0.87506,0.39463 0.57142,1.10876 0.61847,-0.95477 -0.10613,-1.16106 0.6892,0.71346 0.11125,1.16859 0.93367,0.5123 1.05633,0.78578 0.72189,0.95754 0.0521,0.88402 -0.36134,0.69487 0.52433,0.84044 1.47627,0.88877 0.29143,0.60581 0.13106,-0.86953 1.20459,-0.006 0.70431,0.46858 1.13769,0.26616 0.48805,1.61265 0.91491,0.23538 0.39767,-0.68162 0.37633,2.39576 1.31572,-0.20474 0.43221,-0.59443 0.78971,-0.51244 -1.23627,-2.17581 0.31653,-0.83371 0.61927,-0.13981 1.18454,-1.00592 0.6418,-1.39228 1.24082,-0.25493 1.33871,1.11235 0.4567,1.32294 0.69744,0.27445 -0.74507,1.07024 0.50206,2.16392 0.88611,1.15721 1.05051,2.13792 0.31959,3.39769 -0.63797,1.05541 0.52475,3.67989 -0.59039,2.33621 1.01516,0.95824 -1.12134,2.11308 -1.23005,2.53209 -1.40093,0.27022 -0.6814,1.45987 0.10064,2.01951 -1.05381,0.30252 0.37069,1.25173 -1.94757,1.60484 -1.54755,0.86504 0.19076,1.64575 -1.06647,2.59739 -0.50933,2.51226 -0.98295,0.6081 0.50913,3.6594 -0.55698,1.1364 1.71295,1.7663 1.04856,-1.8717 0.63471,1.7602 -1.44352,3.0113 -2.18605,2.5435 -0.80026,2.8192 1.48502,3.8363 -0.84516,1.7936 2.0653,1.6262 2.29125,2.6199 1.01746,2.9535 1.23672,1.8259 3.09094,7.9601 3.24464,7.3467 2.75336,5.2055 -0.36771,1.1406 1.42269,3.2647 2.35516,2.4307 5.36778,4.3013 5.86494,3.9351 0.39376,1.604 2.99372,2.2405 1.13483,5.475 0.90037,6.3224 0.18432,8.559 0.18403,7.8646 0.57592,7.2429 -0.86582,4.5279 1.07265,4.5404 -0.28196,3.0134 1.58805,5.4274 -0.11368,5.3371 -0.68795,5.6582 -0.40505,5.6332 -1.07707,0.1126 1.09173,3.8795 1.52324,3.3263 -0.6363,2.3108 0.67041,6.1803 0.43738,4.6853 1.7296,0.4571 -0.28006,-4.0785 1.94314,0.8735 0.46776,6.7151 -3.13091,-1.129 0.65276,5.2854 -1.56106,2.7663 4.07602,0.9057 -1.9027,2.3825 -0.12033,2.9298 2.01554,5.0912 1.90615,1.9503 -0.0958,1.7012 1.41397,1.8206 3.60719,1.6283 0,0 3.47841,1.9596 3.04911,0.9064 0.99719,-0.064 -0.53537,-2.62 1.83666,-1.0249 0.93366,-0.7015 2.17028,0.021 z M 277.5467,72.23829 l 1.46587,-1.20436 1.59021,-0.47636 0.83191,-0.7374 0.70838,-0.39325 2.07319,0.60835 1.68095,0.0726 0.44221,0.40488 0.19912,1.72443 2.62859,0.45943 -0.74928,0.87208 0.66966,0.90369 -0.83405,1.17509 0.91645,0.38955 -0.87985,1.04609 -0.003,0.004 -0.7222,-0.12608 -0.2266,-0.87175 -2.55558,0.27162 -2.46677,0.69371 -1.34568,-1.18594 -1.27692,-0.39559 1.39343,-1.62832 -2.57689,1.02106 -2.37311,1.00349 -2.22253,0.79098 -1.14206,-1.06762 -2.74913,0.64688 0.17833,-0.45589 2.18727,-1.3045 2.23621,-1.23075 2.92218,-1.01012 4e-5,-4e-5 z m 11.38012,4.94507 0.62696,-0.45847 0.25833,0.69116 1.75312,0.38824 1.89895,0.0329 1.93166,0.31983 2.05285,0.60813 0.5077,0.9879 0.88126,2.42773 -1.13643,1.05594 -1.92268,-0.4403 -0.66162,-1.96779 -0.30626,2.00444 -1.7564,1.78088 -0.33143,1.53101 -0.48163,0.90477 -1.97087,1.0759 -3e-5,1e-5 0.27285,-1.33276 0.1147,-1.87431 -0.83947,-0.32183 -2.01441,1.41902 -0.4969,-0.0269 0.12229,-0.81247 1.79818,-1.28636 0.69158,-1.45783 0.25771,-1.44489 -1.46343,-1.23377 -1.9306,-0.63039 -0.75211,1.19906 -0.66267,0.32206 -0.96252,1.56846 0.11627,-1.06679 -1.26134,0.76097 -0.98326,1.07116 -1.17339,1.57289 -0.56635,1.36781 0.20981,2.0069 -0.73779,2.15629 -1.52779,1.60316 -0.65751,0.45638 -0.80273,0.36373 -0.87731,0.018 -0.16772,-0.22422 -0.15762,-1.73246 0.24612,-0.85283 0.32208,-0.80775 0.18746,-1.59542 1.07522,-1.83269 1.30856,-2.23936 2.13123,-2.45053 -0.38371,0.0112 -2.54571,2.05019 -0.2163,-0.37757 1.377,-1.14717 2.19918,-2.04411 1.80799,-0.28329 2.17524,-0.62842 1.86529,0.33134 0.0797,0.0141 2.30917,-0.28335 -0.83044,-1.24762 0,-10e-6 z m -1.29098,13.89014 1.34508,0.20745 2.20354,-1.04744 1.3835,-0.91653 0.8028,-0.14911 1.30935,0.32942 0.826,-0.50893 1.36414,-0.41275 2.33797,-0.40103 -10e-6,8e-5 -0.0418,0.32043 -2.75593,1.95487 -2.20012,0.95189 -1.44505,0.44469 -1.77825,0.91431 -1.98375,0.44072 -1.23215,-0.16967 -1.38541,-0.68473 1.25002,-1.27368 5e-5,10e-6 z m 11.62698,-3.87686 -0.13202,0.0373 -0.8265,0.16806 -0.92637,-0.30801 1.08568,-1.10799 0.88735,-0.38201 1.93016,-0.47018 2.27317,-0.43842 0.95117,0.60944 0.91067,-0.70636 0.93257,-0.44534 0.47136,0.23566 0.0146,0.0502 0.13131,0.45013 -0.20446,1.25602 -2.20931,1.0697 -2.01003,-0.26891 -1.96618,-0.12053 -1.31318,0.37123 z m 44.66138,362.52756 0.61159,-1.3625 -3.5925,-0.686 -3.69526,-1.6594 -1.92059,-2.0997 -1.37052,-1.3119 -1.83986,-0.3358 -1.8369,1.1713 -0.11174,1.9235 -0.78669,1.2751 -3.55773,-0.9973 -4.07435,-1.8732 -2.21336,-0.5932 4.48483,3.1399 3.00835,1.4848 3.58511,1.5274 2.65112,0.3927 2.03406,0.813 1.49281,0.2181 1.20311,0.086 1.74472,-0.8381 0.40382,-1.0989 1.55662,0.9601 2.22336,-0.1355 z m -108.06905,51.9601 264.64485,1.2973 330.73579,-1.6212 -1.64509,-0.14 -2.369,-0.1905 -6.60775,0.1555 0.32603,-0.1812 0.0689,-0.048 -4.19688,-0.1388 1.55069,-0.3319 -2.81162,-0.2242 -1.41614,-0.2333 -1.26325,-0.2425 -0.90676,-0.2676 -0.13093,-0.3109 0.64431,-0.3584 -1.30806,-0.3013 2.42086,-0.3486 2.20752,-0.3608 2.03374,-0.4733 3.65961,-0.5976 3.90749,-0.042 3.79204,-0.2347 4.13923,-0.1732 0.72189,-0.4873 -3.2578,-0.1583 0.24608,-0.4146 0.80395,-0.4489 0.13506,-0.485 1.16425,-0.4726 1.64121,-0.5875 1.70003,-0.4977 2.13833,-0.5632 2.47411,-0.4383 2.57766,-0.5307 2.14967,-0.5704 3.35761,-0.3189 2.31795,-0.5296 3.22966,-0.2386 2.26008,-0.6352 1.82911,-0.5547 2.33377,-0.7227 2.19806,-0.5764 1.4426,-0.6513 -0.61416,-0.4959 -1.62917,-0.3343 -1.52206,-0.4048 -1.98823,-0.238 -2.33249,-0.1367 -2.61842,0.034 -2.14147,-0.1026 -2.53431,0.034 -1.9526,-0.2747 -0.65447,-0.625 -1.79666,-0.4215 0.0182,-0.7115 -2.182,-0.2156 -2.36753,-0.1804 -1.28401,-0.4356 -0.83046,-0.5871 -1.20074,-0.5194 -2.27943,0.6301 -2.42125,-0.037 -1.81387,-0.2956 -2.54606,-0.2975 -2.37694,-0.3365 -1.80453,-0.4901 -1.77864,-0.4563 -0.69864,-0.5759 1.33865,-0.7378 -0.79677,-0.6286 -2.2794,-0.1582 -2.80838,-0.079 -2.12533,0.04 -2.90181,0 -2.1286,0.1188 -2.94541,0.039 -2.64446,0.1185 -1.46131,-0.3561 -0.16064,-0.6782 0.18079,-0.8481 0.6077,-0.9417 -0.79563,-0.5796 -0.99267,0.8677 -1.69262,1.0185 -2.17361,0.1614 -2.25802,0.2013 -2.52001,0 -2.34391,0.08 -2.72421,0.3202 -2.37125,0.3584 -1.82925,-0.1988 -1.74571,-0.1995 -1.99624,0 -2.40696,0.3188 -2.09608,-0.199 -1.71628,-0.2799 -2.15534,0.1601 -2.10612,0.6361 -2.36073,0.6294 -2.44543,0.1564 -2.56905,-0.1955 -2.13843,-0.5113 -1.02287,-0.5156 -2.50298,0.079 -0.96616,-0.6397 -0.54028,-0.6464 -1.37729,-0.4072 -2.05594,0.4478 -2.55398,0.081 -2.06037,0.605 -2.32343,0.5593 -2.63189,0.2779 -2.59234,0.2372 -2.03344,0 -2.12875,-0.04 -1.76021,-1.2359 -0.87418,-0.729 -1.23558,-0.5726 -1.2108,-0.2882 -4.03618,1.5495 -1.97783,0.5616 -1.68103,0.6752 -2.02354,0.6677 -2.06264,-0.2741 -2.25424,0.2741 -2.3744,0 -2.20465,0.2727 -1.34088,-0.4291 -1.76528,-0.1177 -1.53536,0.1959 -2.04254,-0.039 -2.1264,-0.1568 -2.29478,0.235 -1.99876,-0.1566 -1.56877,-0.393 -0.35108,-0.9542 -0.42763,-0.5634 -2.09286,1.3596 -1.99669,0.551 -2.3357,-0.1176 -2.32663,0.2351 -2.1229,0.1952 -2.06572,-0.1952 -1.81199,0.3121 -1.49059,0.3489 -1.65772,0.6536 -2.1113,0.3808 -2.4846,0.4911 -1.99263,0.7095 -1.13535,0.7 -1.58455,0.7262 -2.41284,0.2874 -2.31465,0.2145 -2.50631,0.071 -1.4792,0.1777 -1.76388,0.8779 -0.99664,0.6214 -1.71715,0.5109 -1.56972,0.5379 -1.1817,0.6293 -1.66189,0.6513 -2.67099,0.2894 -2.32669,-0.1605 -1.2394,-0.5183 1.4977,-0.6914 1.53751,-0.6364 0.76707,-0.6808 -2.41881,0.034 0.16832,-0.6915 2.12832,-0.6673 2.37687,-0.4622 0.79251,-0.8292 0.38804,-0.4751 -0.57926,-1.9837 -2.19027,0 -2.05915,-0.1527 -1.93264,-0.2299 -2.02246,-0.231 -1.8357,-0.4256 -2.33232,0.81 -1.96759,0.3816 -2.04228,-0.1143 -1.5246,-0.536 -1.18815,-0.5413 -2.51529,-0.2335 -1.07264,-0.5487 -1.63027,-0.6729 0.18948,-0.882 -1.5296,-0.5677 -2.00299,-0.2039 -1.91025,-0.1226 -2.11937,0.1634 -2.35915,0.3258 -1.99596,0.405 -2.10046,0.5628 -0.72996,0.716 -2.01299,0.4726 -2.05842,-0.039 -1.647,0.5472 -2.26374,0.6959 -1.97322,-0.2311 -1.88718,0.4229 -1.9827,0.4576 -1.8764,0.4161 -2.71228,0.3754 -2.23594,0.2614 -2.49599,0.629 -2.08047,0.3298 -1.05867,0.7971 -2.36168,0.4291 -1.44266,-0.4651 -1.3024,-0.6516 -2.30278,0.1456 -1.72883,-0.438 -0.64241,-0.6644 -2.17356,-0.2979 -1.42806,0.6312 -1.50072,1.0227 -1.80676,0.5035 -2.25548,0.1785 -2.12358,0.3194 -2.04082,0.4927 -2.33538,0.2094 -2.21399,0.2432 -2.40856,0.035 -2.44131,0 -2.54175,0.069 -2.42577,0.3098 -1.27447,-0.5176 -0.88695,-0.5941 -2.30212,-0.1057 -2.36923,-0.2122 -2.27768,-0.035 -2.54937,0.071 -2.35814,0.2119 -1.87189,0.6646 -0.74739,-0.6646 -2.81677,-0.1058 -2.25676,0.4919 -1.0514,0.6931 -2.47534,0.3424 -1.1541,-0.6183 -1.47982,-0.8385 -2.25947,0.2462 -1.56969,-0.4584 -1.35455,0.6335 -1.87915,0.3826 -2.41368,0.2761 -2.20344,0.4109 -2.39934,0.2378 -2.43575,0.2364 -2.18005,0.302 -2.34009,0.5641 -0.92201,-0.698 -2.42848,-0.1008 -2.67257,0.2013 -2.74648,0.2998 -2.55281,-0.1 -0.58102,-0.6375 -2.31662,-0.1695 -1.03957,0.6736 -0.0348,0.6293 -2.54819,-0.066 -1.09575,-0.5636 -2.56073,-0.1003 -1.4941,0.4659 -0.94712,0.7857 -1.57652,0.6421 -2.07923,0.5053 -2.25264,0.3741 -2.13054,0.3085 -1.30756,0.4875 -0.61462,0.6283 2.27573,0.3531 -0.49796,0.5789 -1.86094,0.4262 -1.7157,0.4749 -2.75911,0.4387 -2.16866,0.3239 -2.39913,0.3194 -2.44466,0.2628 -2.94235,0.182 -3.14273,0.052 -1.36055,0.103 -2.68506,0.1793 -2.69525,0.2281 -1.6028,0.4979 -2.27999,0.365 -2.26396,0.3578 -3.23315,0.2809 -2.70484,0.2763 -0.74418,0.2493 0.28893,0.8304 0.83071,0.3972 3.87398,0 3.96025,-0.1658 3.81674,-0.042 0.24028,0.3915 1.07895,0.3598 1.6134,0.3489 -2.85439,0.2451 -4.18895,0.1663 -3.9345,0.1274 -3.47209,0.1969 -3.63932,0.1927 -4.86934,0.017 -2.38576,0.2555 -0.77955,0.3605 -4.13424,-0.1946 -4.86876,-0.1158 -4.76579,0.017 -3.07426,0.2294 -3.62996,0.2069 -2.87235,0.2464 -2.67389,0.2228 -1.72077,0.2567 -1.54086,-0.2713 -2.61518,-0.3611 -4.08456,-0.2682 -3.73779,-0.245 -5.1583,-0.2358 -5.06482,-0.1378 -4.05109,-0.2822 -3.30343,-0.291 -3.97709,-0.2618 -4.40747,-0.1526 -3.13551,-0.3712 -1.05368,-0.3833 -2.88542,-0.3531 -0.57348,-0.4278 -0.55487,-0.4634 2.45744,-0.2942 3.60884,0.1138 1.76275,-0.3669 -1.79247,-0.4227 -2.66863,-0.3359 -3.36165,-0.2192 -1.23462,-0.4966 3.42691,0 3.11357,-0.1008 3.64466,0.05 3.2144,-0.05 1.07383,-0.5377 2.47664,-0.2871 2.28838,-0.2909 2.53543,-0.214 2.64334,-0.516 0.85088,-0.4711 0.51314,-0.5086 2.60554,-0.2003 0.84128,-0.4929 0.68167,-0.6207 -0.29977,-0.8175 -1.09163,-0.6194 -0.59578,-0.631 -1.03001,-0.6103 -1.29299,-1.5541 -1.03108,-0.646 -1.36964,-0.5866 -1.05671,-0.7004 -0.86762,-0.6757 -1.31457,-0.7218 -2.00007,-0.5854 -2.04884,-0.4434 -1.49958,-0.5975 -1.22558,-0.7944 -0.0653,-0.7287 0.91153,-0.8559 0.96165,-0.6302 0.86158,-0.677 2.00266,-0.1602 1.27992,-0.4836 -1.38603,-0.6913 -0.51143,-0.7812 -0.0918,-0.8321 0.80173,-0.6307 1.37466,-0.5512 1.31219,-0.5123 1.75865,-0.2145 1.82593,0.343 0.76748,-0.472 2.02551,-0.6484 0.53719,-0.7413 -1.56442,-0.5717 -1.66811,0.2643 -0.99271,0.7007 -1.39572,0.5648 -1.74312,0.2592 -1.39778,0.4302 -1.09933,0.6832 -2.09757,0.1273 -1.14658,0.5495 -0.94478,0.5871 -0.42414,0.9126 -1.47797,0.6152 -1.18655,0.6501 -1.02684,0.7633 -0.88781,0.5962 -0.57497,0.9027 0.70162,0.7738 0.91832,0.8389 0.10432,0.7515 -0.37999,0.7776 -0.58754,0.6933 0.24853,0.7191 0.59021,0.7082 0.9664,0.6279 1.13786,0.687 1.22004,0.6758 1.13469,0.6645 0.74106,0.6853 0.0211,0.7044 -0.85832,0.5035 -1.79571,0.3418 -2.50424,0.2156 -2.81065,0.1837 -2.3675,0.213 -1.79166,0.3916 -1.87524,0.3275 -2.64392,0.1476 -1.90171,-0.505 -2.43892,-0.3314 -2.73273,0.1511 -2.66639,-0.6088 -0.30463,0.5484 -1.08541,0.5685 -2.82308,-0.3278 -2.72206,-0.1803 -2.81018,-0.06 -2.33801,-0.6099 -2.48061,0.1536 -2.71117,-0.277 -2.41572,-0.7187 -0.574,1.2094 -2.66419,0.1216 -2.53176,-0.366 -2.39256,0.1835 -2.53833,0.3035 -2.4671,0.2107 -2.93409,-0.09 -1.53389,-0.5463 -2.66823,-0.4626 -2.75901,-0.2493 -2.61839,0.094 -2.87514,-0.094 -1.86706,-0.2197 2.13843,1.1755 1.15483,0.5719 1.89169,0.5611 2.841,0.1167 1.68109,0.5195 1.96686,0.4815 -0.27471,0.61 -3.16755,-0.2477 -3.05872,-0.1945 -3.19579,-0.056 -2.27987,0.2503 -2.79261,0.083 -2.94823,-0.3891 -3.03959,-0.1686 -3.24932,-0.541 -1.54063,0.4281 -2.04262,-0.4857 -1.47398,-0.5237 -2.00612,-0.4737 -1.5053,0.5323 -2.11122,0.2626 -3.0782,-0.3212 -2.18838,0.2339 -1.46689,0.4335 -2.75944,0.057 -3.1359,-0.029 -3.05544,-0.029 -2.79684,0.057 -3.32281,-0.1435 -3.04253,-0.1442 -2.39894,0.2017 -2.80067,0.029 -3.20071,-0.2592 -2.75554,0.2019 -1.62076,-0.1152 -1.77673,-0.087 -1.97881,0.3166 -1.68257,0.3129 -2.18697,0.3371 -2.53563,0.1392 -2.90179,0.028 -1.6978,0.358 -2.60979,0.2717 -2.12716,-0.4639 -2.17804,0.2467 0.38204,0.4859 1.77279,0.5019 1.13888,0.4906 -2.79184,0.1272 -1.3378,0.4267 -1.72725,0.3444 -2.04364,0.2663 -2.90457,0.1197 -2.98797,-0.5328 -2.79208,0.1712 -3.0233,0.1214 -2.80942,-0.3911 -1.30124,-0.124 4.2547,1.388 2.71923,0.4087 3.60922,0.3543 2.51536,0.4099 4.17362,0.1059 4.02311,0.1468 4.26481,0.062 3.85731,0.3076 3.44134,0.2803 2.04945,0.4081 -0.44573,0.3193 -1.90801,0.3453 -2.39831,0.2638 -4.01897,-0.2996 -3.91344,0.1423 -4.92998,-0.053 4.1767,0.2794 2.82359,0.3038 4.26573,0.2284 2.01528,0.3297 0.83455,0.2849 1.07809,0.2999 1.72807,0.3103 6.03397,0.1416 3.48639,0.2463 7.16884,0.1406 7.45594,0.023 2.08625,0.2637 -3.44842,0.1426 z m 173.98796,-6.1712 -3.23366,-0.2546 -2.78267,0.2546 -1.0224,-1e-4 0,0 -0.87771,0.4751 -0.84423,0.3955 -0.4976,0.406 -0.76638,0.4553 -1.31997,0.3406 -3.86715,0.2731 0.16422,0.3974 2.97288,0.3106 4.67674,0.054 3.84699,-0.1805 3.40642,-0.2211 2.91191,-0.2451 2.72347,-0.3095 -0.56505,-0.5214 -0.63721,-0.4588 -1.41931,-0.6737 -2.86929,-0.4972 z m -26.40575,2.1652 -2.59237,-0.4189 -0.56702,0.3599 -0.88878,0.4061 -4.35919,-0.095 -4.47193,-0.038 1.51622,0.2844 0.0594,0.037 2.94876,0.312 4.25619,-0.054 4.27335,0.1262 -0.0593,-0.4212 -0.11529,-0.4979 z m -29.48178,-12.5057 -1.12791,-0.7877 -1.23206,-0.7674 -1.46903,-0.8164 -0.95356,-0.6855 -1.59369,-0.6951 -1.81385,0.2938 -0.6578,0.8714 1.03676,1.4521 0.33854,0.657 0.013,0.8828 -2.51966,-0.067 -1.31231,0.2014 10e-6,0 -1.82282,0.6638 0.67329,0.6846 2.01014,0.4813 2.18268,-0.2238 2.31313,-0.2252 -0.53055,0.6397 2.79876,0.032 2.11354,-0.3181 2.31901,-0.2243 0.12674,-0.6162 -0.0993,-0.6598 -0.7931,-0.7728 z m -63.65228,1.6571 -3.2178,-0.1302 -2.95294,-0.2291 -1.01286,0.2942 0,0 1.87098,0.6775 2.51014,0.3181 2.75128,-0.095 2.67819,0.063 2.4986,-0.063 1.79188,0.1267 -2.2253,-0.9297 -2.12374,0.1944 -2.56843,-0.2269 z m -43.78022,2.5075 -2.89758,-0.2727 0.29488,0.5132 0,0 2.87979,0.5339 3.07488,0.1173 1.3989,-0.3831 0.41832,-0.5388 -2.11636,0.2706 -3.05283,-0.2404 z m -9.15566,-0.03 -2.63628,-0.3645 -1.02133,0.3343 0,0 3.50658,0.4203 2.92762,0.1487 1.31706,0.059 -4.09365,-0.598 z m -20.24072,12.2855 3.7825,0.019 -3.30666,-0.038 -0.47584,0.019 z m -47.22644,-0.2315 33.16628,0.1626 -3.56622,-0.1001 -6.74281,-0.1455 -4.70098,-0.1996 -1.53658,-0.074 -3.03887,-0.1488 -4.50638,0.113 -0.10281,0.036 0.10224,0.2526 -5.14324,-0.2526 -0.26089,0 -0.31958,-0.01 -0.0767,0.1954 -8.3e-4,0.021 -5.21481,-0.1912 1.94215,0.3434 z m 15.83676,-4.2387 -2.09269,-0.4808 -2.71565,-0.3886 -3.04939,-0.3542 -4.25322,-0.1804 0.0522,0.4248 1e-5,0 2.23311,0.3054 0.28151,0.065 2.39553,0.3814 3.83695,0.3707 3.31163,-0.1429 z m 715.02175,-191.3618 0.311,-1.4381 0.11051,-2.244 -0.73964,-2.0195 0.0996,-1.6693 -0.63501,-0.4809 0.11493,-2.4972 -0.56014,-1.9495 -1.2141,1.4929 -0.20703,1.1364 -0.80318,2.1863 -0.94955,2.1069 0.25605,1.3256 -0.6464,0.8059 -0.79192,2.985 -0.0173,2.2634 -0.3788,1.1491 0.0829,1.908 -1.36521,3.1327 -0.71773,2.1544 -0.87338,1.7383 -0.92838,2.1029 -2.07998,1.336 -2.39716,-1.3261 -0.20082,-1.2092 -1.27206,-1.0032 -0.78284,0 -1.60333,-2.3249 -1.20436,-1.3531 -1.93503,-1.2609 -1.86824,-2.1768 -0.029,-1.1136 1.27797,-1.9408 1.10331,-1.9763 -0.10257,-1.5831 0.97683,-0.1318 1.27633,-1.6017 1.02176,-2.1247 -1.037,-1.9664 -0.74846,0.7639 -1.00723,-0.3461 -1.7738,1.138 -1.58137,-1.2218 -0.84719,0.4022 -2.2314,-1.0173 -1.29528,-1.632 -1.74153,-0.9872 -1.55449,0.5785 1.89899,1.3106 -0.19095,2.0323 -2.43899,0.7487 -1.37193,-0.4721 -1.86354,1.4011 -1.49915,2.2659 0.30594,0.9901 -1.39499,1.035 -1.77193,3.1713 0.277,2.1671 -1.71568,-0.3699 -1.73803,-0.027 -1.21461,-2.3383 -1.81264,-1.8147 -1.41833,0.5334 -1.30167,0.5662 -0.18432,0.9934 -1.16109,-0.4611 -0.19491,1.1038 -1.49344,0.6724 -0.89088,1.5569 -1.80073,1.9379 -0.78803,2.9911 -1.09514,-0.8508 -1.16422,1.9048 0.69443,1.852 -1.30602,0.7811 -0.63422,-3.3838 -2.46447,3.3306 -0.41952,2.1255 -0.38575,1.5575 -1.96166,1.978 -1.07119,2.0781 -1.81082,1.7229 -3.10542,1.1346 -1.50715,-0.091 -0.79408,0.3534 -0.57366,0.8478 -1.74993,0.4289 -2.43687,1.4396 -0.66906,-0.476 -1.30748,0.3015 -2.36636,1.4157 -1.64954,1.6422 -2.4772,1.2852 -1.67351,2.6381 0.36036,-2.921 -1.66831,2.7602 -0.15308,2.235 -0.76322,1.9077 -0.75461,0.9369 -0.76016,2.1969 0.38798,1.1339 9.1e-4,1.1916 0.6803,2.9697 -0.39927,1.9247 -0.46712,-1.4546 -1.09983,-1.0914 0.11393,3.4856 -0.81526,-1.6225 0.005,1.6005 0.84163,2.9593 -0.38268,2.9143 0.82088,1.4765 -0.21089,1.0867 0.44151,2.3998 -0.67786,2.0918 -0.13437,2.0881 0.37098,3.6767 -0.32834,2.143 -1.0742,2.5021 -0.29855,1.2874 -0.70026,0.8141 -1.46642,0.4862 -0.69377,2.0404 1.20799,0.6741 2.07048,2.2591 1.76736,0 1.8775,0.1386 1.64027,-1.1227 1.65448,-1.0006 0.7176,0.1602 2.1936,-1.8936 1.87093,-0.1633 2.03104,-0.3887 2.12612,0.6492 1.7677,-0.3165 2.27595,-0.086 1.46125,-1.4492 1.12819,-1.8772 2.57417,-0.8285 3.41948,-1.8464 2.4639,0.2391 3.42448,-1.2051 3.8748,-1.2961 4.89231,-0.3431 1.98224,1.7627 1.83852,0.1032 2.66811,2.1848 -0.78955,0.8295 0.92654,1.3434 0.72294,2.5886 -0.77978,1.8849 1.51261,1.4556 2.07263,-2.8182 2.10533,-1.2175 3.27178,-3.0504 -0.75663,2.6499 -1.67299,1.7442 -1.17558,2.046 -2.13108,1.9522 2.59612,-0.6473 2.22993,-2.4475 -0.37402,2.6253 -1.537,1.706 2.36229,0.4226 0.71766,1.4196 -0.11428,1.7613 -0.62042,2.6318 0.77202,2.1228 2.08521,0.9916 1.37918,0.2449 1.23283,0.541 1.82748,0.9254 3.39962,-2.4763 1.71587,-0.6497 -1.21148,1.7876 1.31794,0.6026 1.45256,1.506 2.25155,-1.4624 1.80814,-1.325 3.05089,-1.4084 2.977,-0.1252 2.04559,-1.1978 0.36277,-1.0935 1.40749,-2.3932 1.80816,-2.6166 1.76798,-1.7523 2.06555,-3.052 1.60616,-1.7578 2.08683,-2.7688 2.66953,-1.7648 2.45284,-3.2845 1.51414,-2.6039 0.71925,-2.0927 1.90313,-3.2721 1.0657,-1.7066 1.27847,-3.2755 -0.24046,-3.1623 0.93052,-2.3138 0.60103,-2.1388 0.15822,-3.0266 -1.2311,-3.0626 -0.85479,-1.4482 -1.29071,-2.3362 0.60688,-4.0493 -0.82306,0.5887 -0.68329,-1.6605 -1.31031,0.8424 -0.0272,-4.1564 -0.99471,-2.4181 0.57941,-0.936 -1.46224,-1.6842 -1.53809,-1.8423 -2.55414,-2.0294 -0.34641,-2.6408 0.67365,-2.0232 -0.10754,-3.3441 -0.60933,-0.4782 -0.0627,-1.9588 -0.002,-3.3718 0.57876,-1.7465 -1.08474,-1.5408 -0.65861,-1.672 -2.02123,1.4898 -0.52551,-3.1016 z m -25.76281,100.0945 -1.54034,-0.2958 -0.81811,1.5288 0.0306,2.883 -0.76851,2.1664 0.096,2.7845 1.50982,0.1007 0.4323,0.1738 2.985,-2.2627 0.41297,0.8913 1.66287,-2.6266 1.47033,-1.1324 1.83458,-3.9343 -1.43213,-0.2242 -2.3305,0.6412 -1.62914,0.4566 -1.91571,-1.1503 z m -49.83526,-177.2054 -2.29415,2.20309 -1.05284,1.50558 -1.29002,2.54584 -1.92408,3.18667 -3.35254,0.87236 -1.18396,0.76 -0.50173,3.41282 -2.16505,0.75338 -2.08481,-1.38161 -1.63629,2.67929 -0.30117,3.73647 0.39148,3.52831 1.32697,3.4495 1.39184,1.1208 0.32927,5.4061 2.30931,0.4649 1.84972,-0.2215 0.97395,1.9497 3.38708,-1.4487 1.36765,1.2907 2.00012,0.2278 1.03426,2.4617 3.25826,-1.8119 0.36641,1.4324 1.26075,-6.1607 0.14374,-4.0147 2.73601,-2.7579 -0.11066,-3.6546 0.92861,-2.74948 3.33367,-0.47577 -3.20273,-3.73148 0.45249,-1.85458 -2.16277,-3.81527 1.48237,-3.63736 2.01923,-1.37132 -0.58514,-1.96503 1.87842,-0.19958 0.12668,-1.57551 -2.40582,-1.20966 -1.90984,-1.12057 -0.22436,-1.74638 -1.56342,-2.03125 -1.13565,0.0132 -1.23752,3.1388 -2.02374,2.79547 z M 371.12824,0.87557 l -3.96213,-0.0456 -3.95327,-0.0453 -5.80926,0.12148 -0.76895,-0.0779 -5.86139,0.0298 -3.64031,0.0801 -2.86497,0.11798 -2.65193,0.41571 -1.43495,-0.21891 -2.23839,-0.0401 -3.65857,0.29116 -4.12431,0.13063 -2.3121,0.0265 -3.29508,0.15734 -0.35725,0.28975 1.60918,0.25734 0.75452,0.36767 2.74991,0.31994 6.96132,-0.0608 4.17966,0.11063 -3.74103,0.35657 -1.3453,-0.10725 -5.27612,-0.0424 -0.1636,0.5172 2.05867,0.40782 -1.20087,0.37488 -3.9653,0.26227 -2.32674,0.43627 2.90243,0.22104 1.62192,0.76158 -4.62648,-0.51627 -1.35246,0.083 -0.2885,0.87649 -4.14743,0.28367 -0.5908,0.61563 3.76583,0.0684 2.83306,0.15877 6.25159,-0.20321 4.8968,0.36304 6.37842,-0.78129 0.3322,-0.30944 -3.5272,0.0487 0.0756,-0.28323 3.29829,-0.36754 1.57596,-0.46986 3.55027,-0.33181 2.44179,-0.3928 -0.85829,-0.5475 1.66255,-0.19306 -2.52633,-0.13395 6.16885,-0.11326 1.58685,-0.21302 4.33209,-0.17052 4.65259,-0.80452 3.62929,-0.26509 5.54478,-0.54366 -4.21229,0.004 2.11563,-0.19235 4.98609,-0.17007 5.38014,-0.35181 0.52474,-0.20785 -3.0062,-0.20456 -3.83181,-0.0941 -4.90146,-0.0568 z m -8.33056,63.34646 1.7822,-1.83917 0.67651,-0.78588 -1.09926,-0.12666 -2.38305,0.99863 -1.9565,1.66138 -3.76841,4.72844 -2.54317,1.81818 0.87264,0.82519 -1.81778,1.07423 0.15704,0.90762 4.81703,0.0938 2.72255,-0.18349 2.22075,0.7473 -2.09717,1.45216 1.46878,0.1077 3.5029,-2.67447 0.60635,0.38984 -1.10474,2.5265 1.51874,0.58698 1.15834,-0.11581 1.64285,-2.72219 -0.35175,-1.90282 0.0483,-1.61102 -1.85499,0.51788 1.27955,-2.20855 -2.24473,-0.92034 -1.31509,0.72885 -1.99108,-0.8197 1.12208,-1.03777 -1.49426,-0.63507 -1.86094,1.00202 2.28635,-2.58379 z m -44.21535,-51.82825 2.56116,-0.99617 -5.82737,0.40593 -2.82006,0.6341 -3.06969,1.4331 -0.94289,1.69505 3.02749,0.007 -2.94976,0.78858 1.24049,0.61769 3.25943,0.2678 4.12294,0.52588 7.54045,0.40471 4.09576,-0.2334 1.55854,-0.53094 1.23944,0.61304 1.82813,0.10338 1.47572,1.14372 -1.72262,0.47328 3.97694,0.64324 2.74203,0.93158 0.42519,0.66744 0.0669,0.87389 -4.04296,1.97088 -1.38233,1.03387 0.31358,0.75003 -4.75595,0.27051 -4.22347,0.0377 -2.4083,1.58002 1.47297,0.74875 6.7074,-0.34886 0.31341,-0.62988 2.69857,1.05675 2.77276,1.13595 -1.1138,0.63067 2.19962,1.10052 4.25236,1.33075 5.77967,0.92711 -0.0107,-0.81136 -1.7395,-1.38566 -2.2757,-1.93812 4.82977,1.7991 2.59035,0.61783 1.51909,-1.62915 -0.44279,-2.19064 -0.64624,-0.57739 -2.55126,-0.9891 -1.7106,-1.23021 0.91995,-1.19073 3.01038,-0.25754 2.46223,2.00369 2.30562,0.90959 5.11079,-2.44436 1.40749,-1.43373 -3.40736,-0.13383 -2.18161,-1.82301 -3.23809,-0.42708 -4.39974,-1.25014 4.5328,-0.87365 -0.96128,-1.70841 -1.39623,-0.71643 -4.69502,-0.69059 -1.42206,-1.08944 -4.25153,0.38329 0.29645,-0.73627 -2.28683,-0.78793 -3.99216,-0.81782 -2.55805,0.64081 -4.60531,0.47555 1.26191,-1.0635 -2.0691,-1.61384 -5.93693,0.63087 -3.19117,1.27607 -0.6893,-0.99103 z m 29.00335,56.52666 0.0765,-0.55078 -2.18141,-1.24865 -3.02951,-0.74555 -0.92396,0.24983 1.89418,1.4085 2.94504,0.94043 1.21917,-0.0538 z m -6.68615,7.82258 -0.48558,-1.50952 -1.19584,0.95717 0.35564,1.04323 2.84901,1.32926 0.98207,-0.2047 1.55391,-1.28218 -2.34723,0.0851 -1.71198,-0.41838 z m -0.91038,-64.26336 -2.84331,-0.85087 -4.63002,-0.16425 -1.10401,0.10128 -0.62098,0.55393 1.54115,0.83409 0.52335,0.0969 2.49895,-0.21414 2.23987,0.0335 2.19969,0.0464 0.19531,-0.43679 z m -6.83365,10.65429 1.80367,-0.58777 0.42075,-0.27211 0.51488,-0.83769 -1.35693,-0.5347 -2.18358,0.26712 -1.65624,1.09331 -0.0794,0.97218 2.53682,-0.10034 z m -24.56902,-16.29932 -4.05501,-0.0793 -1.55238,0.51827 1.77368,0.40038 3.99593,0.16006 1.26479,0.58212 -0.6311,0.67985 -0.24708,0.77585 4.96126,0.46644 3.14986,0.1806 4.29613,-0.026 6.2015,-0.22524 2.47108,0.17765 3.42122,-0.31318 1.69221,-0.38243 0.16398,-0.58402 -1.62336,-0.52043 -3.22571,-0.0958 -4.31788,0.11596 -3.62334,0.29801 -2.86282,-0.1156 -2.69915,-0.0605 -0.89634,-0.32398 -1.95661,-0.30423 1.12917,-0.49585 -1.16895,-0.42476 -4.00729,0.003 -1.65379,-0.4067 z m 20.18059,-2.92892 -0.26453,-0.66276 -2.82526,-0.18302 -2.83772,-0.20317 -1.32074,-0.48877 -4.62036,0.0455 0.33166,0.20772 -2.14959,0.0644 -2.03102,0.28559 -2.33433,0.43113 0.27481,0.45698 1.4843,0.34707 3.63589,-0.008 -2.10397,0.28477 -0.75498,0.39764 1.34913,0.46035 3.90716,0.14747 3.67796,-0.083 5.07935,-0.84179 3.27726,-0.31966 -1.77502,-0.33836 z m -18.20753,22.28573 -1.49726,-0.17086 -2.0428,1.94517 -1.37937,1.7149 -2.64943,1.09775 3.19997,-0.21431 -0.0164,1.31441 3.92314,-1.16371 2.95076,-1.17955 0.67349,0.99661 3.21146,0.53762 2.41268,-0.70291 -1.18671,-0.73362 -1.76232,0.17172 0.42243,-1.04252 -2.16183,-0.67521 -1.99295,-0.73596 -0.94243,-0.55748 -1.3567,0.32748 0.19429,-0.92953 z m 8.7195,7.73639 -0.32592,-0.47449 -0.90718,-0.0505 -1.25825,0.69481 -0.19362,0.16073 0.22856,0.69766 0.90838,0.19977 1.54803,-1.22797 z m -5.309,-1.27186 0.29845,-0.44195 -3.11155,-0.0216 -2.29996,1.05558 0.14481,0.62503 1.58395,0.0536 3.3843,-1.27059 z m -2.87875,-26.34214 0.4575,-0.1385 -1.05897,-0.22258 -4.02356,-0.0174 -0.009,0.33583 3.65994,0.0775 0.9741,-0.0349 z m -7.10176,6.68929 2.83725,-0.3085 4.61716,-1.37713 -3.57496,-0.36556 -4.28192,-0.052 -2.54784,0.409 -1.8398,0.64942 -0.90069,0.77738 -0.19212,1.41955 2.35735,0.0616 3.52557,-1.21368 z m 4.13211,-7.33019 1.25831,-0.41761 -1.68543,-0.39108 -1.02529,-0.0733 -2.49482,-0.0441 -0.69997,0.46314 0.0943,0.4326 1.17162,0.27374 3.38128,-0.24342 z m -1.20029,3.99562 -0.19201,-0.44656 -1.16587,-0.4855 -3.44994,0.37202 -1.9218,0.63471 2.03984,0.375 2.87934,0.10816 1.81044,-0.55783 z m -6.80635,-2.35514 -0.41127,0.16926 -2.75158,-0.0746 -3.74334,0.44418 -2.13489,-0.0411 -1.39882,1.03986 3.51987,-0.10571 -1.16161,0.81329 1.92032,0.2277 3.6016,-0.14626 2.32373,-1.03506 0.90476,-0.68837 -0.66877,-0.60325 z m 0.0685,-1.95104 -0.52707,-0.53656 -4.58197,-0.39841 -3.58558,-0.14581 -0.72124,0.41426 1.87497,0.26689 -2.5796,0.33595 4.37507,0.0425 2.61635,0.37626 3.05202,0.13137 0.0771,-0.48644 z m -9.3308,5.97455 -3.37298,0.74122 1.1197,1.03064 -4.07779,-0.19808 -0.63314,0.51306 3.87397,1.26913 0.80105,0.64447 1.9105,0.14243 4.16253,-0.65569 1.93389,-1.48102 -2.43526,-0.68681 2.81234,-0.74822 -0.0273,-0.44393 -3.95981,0.19301 -2.10773,-0.32021 z m 1.82353,8.01147 -0.69519,-0.70764 -0.33477,-0.34779 -0.99664,-0.32711 -1.81023,-0.51049 -2.24677,0.78292 -2.43414,0.56811 2.205,0.83555 1.95356,-0.20462 2.43344,0.56913 1.92574,-0.65806 z m -13.41448,-11.35913 0.32174,-0.62232 -1.85122,-0.14844 -2.65296,0.47057 0.90441,1.28706 -3.43579,-0.10494 -2.37116,-0.80182 -4.99861,-0.44429 -2.55361,0.36769 -4.99492,1.33332 2.49152,0.25232 9.58886,-0.16834 -5.23662,0.63088 -0.42837,0.47505 3.20879,-0.0333 6.13285,-0.62838 7.32202,-0.22169 2.20872,-0.66519 0.63276,-0.66815 -2.05754,-0.0583 -2.17169,0.2254 -0.0592,-0.47712 z m -18.76826,4.46095 -1.74352,-0.30158 -6.91941,0.96005 -2.31695,0.64319 -3.36887,1.2429 3.17306,0.44687 3.32181,-0.0239 -5.78287,0.68798 0.37091,0.64446 3.00515,0.0354 4.74937,-0.14002 3.69526,0.41253 -3.15118,0.30984 -2.94709,-0.0802 -3.66894,0.30561 -1.6506,0.19177 1.08039,1.4505 2.14853,-0.2075 2.43219,0.50745 0.26986,0.89095 4.06143,-0.1797 5.80413,-0.28379 4.70852,-0.6362 2.63569,-0.11314 3.25529,0.50457 3.66468,0.29609 1.37162,-0.68827 -0.71013,-0.7111 3.69593,-0.14749 1.00016,-0.79823 -3.04866,-0.84363 -2.70511,-0.86499 0.63939,-1.20104 0.4996,-1.59757 -1.58679,-0.64053 -1.77756,-0.25054 -2.13656,0.22929 -0.49008,1.649 -1.86285,0.69008 0.17089,-1.61433 -1.27847,-0.52236 -3.40148,0.81746 -1.91657,-0.8084 -5.31158,0.48212 2.02141,-0.74368 z m 21.0994,-7.40287 -2.12302,-0.22594 -0.96088,-0.0504 -2.75186,0.33423 -0.36743,0.16192 3.31967,0.001 2.88352,-0.22098 z m -0.20849,6.93791 -1.16977,-0.33823 -2.88249,0.0612 -0.98579,0.21524 1.93028,1.09878 3.10777,-1.03701 z m -2.89338,-5.88539 1.34062,-0.35579 -2.47397,-0.18318 -3.16476,0.11894 -2.36511,0.3778 2.25568,0.39142 4.40754,-0.34919 z m -12.23439,0.0622 -3.11412,0.1781 -3.06315,-0.0169 -5.7125,0.80563 -5.24665,0.97345 0,0 2.26411,0.29034 3.63652,-0.20581 4.78851,-0.56481 2.01723,-0.0635 2.36433,-0.44545 2.06572,-0.95099 z m -22.73804,9.12897 0.9305,-0.73471 4.12673,-1.14876 6.66564,-1.1162 3.17195,-0.39136 -1.34939,-0.64198 -1.3985,-0.43387 -5.19572,-0.0825 -2.50365,-0.30594 -7.38579,0.22987 0.6322,0.92029 -3.3111,1.01979 -3.10858,1.17158 -1.85969,0.69797 3.74901,0.89 0.17847,0.75362 6.65792,-0.82781 z m -49.55211,55.42582 -0.13092,-1.66845 -1.79272,-1.23774 -0.43258,-1.41394 -0.25969,-1.02118 -2.1316,-0.3123 -1.24903,-0.44644 -2.20146,-0.64003 -0.61044,0.67954 0.0159,1.60703 2.23121,0.53444 -0.0344,0.84937 1.62925,1.04812 0.15816,1.06866 3.33646,1.37532 1.47193,-0.4224 z M 180.18674,54.294 l -0.74207,0.88423 -0.3738,1.22732 0.64354,0.87534 0.0508,1.30244 0.63334,1.30426 0.96668,0.006 -0.65132,-2.28673 2.81925,-3.17419 -2.45933,0.22153 -0.8871,-0.35975 z m 625.31983,121.84398 0.28014,-2.24553 0.93095,-1.70764 -0.86571,-1.47832 -1.60025,-0.0918 -2.83026,1.08521 -1.07305,1.75761 0.60572,3.34527 2.45267,1.20824 2.09979,-1.87303 z m -523.26582,-15.77371 -2.38742,-1.30161 -2.14411,-0.0431 -2.32383,-0.27227 -0.72466,0.41934 -2.12628,0.36548 -1.50814,0.74493 -1.36345,0.85065 -0.79487,1.3822 -1.61856,1.18532 1.12284,0.36409 1.41798,-0.41995 0.52651,-0.93626 1.14425,-0.0535 2.25538,-1.99023 2.65945,0.19582 -1.16365,0.95659 0.85215,0.74756 3.49389,0.59447 0.7145,0.80527 2.42387,1.03059 1.572,-0.14974 0.36968,2.19259 0.81106,1.11349 1.74245,0.25805 1.00008,1.00346 -2.10507,2.15893 3.99217,-0.37734 1.86416,0.30647 1.87793,-0.19238 1.88921,-0.49157 0.43077,-0.9064 -1.89641,-1.58148 -2.00994,-0.15898 0.33186,-1.08603 -1.54339,-0.78587 -0.91166,0.053 -1.49146,-1.73555 -2.0129,-2.37731 -0.84973,-0.90011 -2.6194,0.43261 -0.89726,-1.40117 z M 530.76043,50.3658 l -0.85053,-1.34251 -3.43527,0.88596 0.39857,1.11766 2.59666,1.53529 1.29057,-2.1964 z m -228.72899,128.24094 0.0304,1.12222 0.65318,0.62135 1.36835,-2.6732 0.9701,-0.55955 0.32769,0.94575 1.08567,-0.24032 0.5684,-0.71097 0.89161,0.18548 1.28553,-0.16343 1.23407,0.84792 1.17975,-1.58628 -1.21776,-1.42755 -1.21506,-0.14045 0.20637,-1.15793 -1.51841,0.0775 -0.35793,-1.37658 -0.73734,0.0974 -1.52747,-0.99772 -2.15046,-0.0179 -0.41658,0.66058 -2.32547,-0.60863 -1.6633,-0.17115 -0.73987,1.07021 1.67471,0.605 -0.18001,1.48334 1.08576,1.68505 -1.08457,0.86705 -2.0545,-0.31265 -2.48789,-0.54072 -0.37559,1.25575 1.35694,1.21515 1.36902,-0.72918 1.65966,0.28198 1.33307,-0.27049 1.7719,0.66304 z m 696.05637,139.11996 1.98439,-0.9652 0.4278,-1.9164 -1.90018,1.2251 -0.92798,0.2156 -1.56818,0.8049 0.0214,1.4616 1.96277,-0.8256 z m -3.23682,2.1091 -0.83984,0.645 -1.14561,-0.4837 -1.38759,1.3429 -0.14947,1.7164 1.40592,0.4823 1.84826,-0.5359 0.95441,-2.0387 -0.68608,-1.1283 z M 1.109719,316.5517 1.034263,314.6632 0.5,314.845 l 0.427804,1.9164 0.181915,-0.2097 z M 493.4678,42.47188 l -2.82869,0.21281 -1.8637,-0.20021 -1.88787,2.06798 -0.94784,2.68816 1.15361,1.34735 0.0615,2.58409 1.32054,-1.27377 0.76467,0.74078 -0.89968,1.20993 0.55156,0.73776 2.90043,0.48171 0.036,0.0386 1.58094,1.69906 -0.37928,1.61897 -0.004,-3e-4 -3.58459,-0.25336 -0.50231,1.84372 1.29599,1.53198 -2.56284,0.88792 0.66198,1.1467 3.80398,0.48238 0.0192,0.002 -2.19955,0.62733 -3.66879,3.08142 1.29374,0.59157 1.75327,-1.12965 2.26806,0.33503 1.64452,-1.37939 1.13719,0.57835 4.18352,-0.80732 3.28037,0.0271 2.19544,-1.52804 -0.98368,-1.49679 1.23569,-0.84275 0.28101,-1.82356 -2.93939,-0.53929 -0.69142,-1.11269 -1.48066,-3.16578 -1.64093,-0.44099 -2.10257,-3.1989 -0.18579,-0.28141 -2.45829,-0.17053 2.16801,-2.37288 0.6404,-2.11968 -2.57943,-0.0135 -2.40679,0.35383 2.56676,-2.7662 z m -6.55461,10.76233 -2.51287,-1.68742 -2.00877,0.11193 -1.86298,1.27406 -3.36999,2.16112 1.12804,2.85156 -2.10824,2.98128 3.43291,0.43591 4.38008,-1.69765 1.9126,-2.53398 -0.33701,-1.99877 1.34623,-1.89804 z m 75.9202,59.53385 -0.38624,1.49332 3.26206,0.68698 0.014,0.58218 3.77664,-0.30004 0.25245,-1.03951 -1.40475,0.42252 0.019,-0.61262 -1.97771,-0.24961 -2.0355,0.20034 -1.51995,-1.18356 z M 449.6442,0.58497 l -14.85586,-0.085 -6.73125,0.0649 -2.82481,0.25737 -6.56339,-0.0321 -7.10958,0.44111 -0.79266,0.33658 3.93969,0.44767 -3.62055,-0.27326 -2.59712,-0.0648 -4.08274,-0.29959 -5.81511,0.4454 -1.66441,-0.25527 -5.8927,0.007 -6.12828,0.12786 -4.95968,0.21925 0.11319,0.38884 -2.98012,0.0954 -7.8105,0.64691 -2.31988,0.38881 4.77676,0.36224 -1.28544,0.37848 -7.9649,0.51751 -8.27283,0.53817 -0.86423,0.44896 3.93413,0.4855 8.27661,0.31651 -4.14131,0.065 -5.75867,0.39184 2.66306,0.80787 1.9449,0.42135 5.0894,-0.0979 5.51723,-0.0536 4.25516,0.0969 4.83247,0.79397 -0.48989,0.58503 2.21088,0.55519 1.39174,1.57665 0.96397,1.0746 0.91249,0.59411 -3.28669,1.53263 1.53559,0.41869 2.25811,-0.23811 1.58575,0.5821 3.10179,1.10268 -4.13554,-0.46541 -2.00138,0.0251 -1.3457,0.93661 -0.49788,1.22567 2.35652,0.60069 2.07754,-0.26324 1.31252,-0.27321 2.7832,-0.64408 -1.13662,1.4327 -1.22437,0.7847 -3.61355,0.70825 -3.21798,2.28715 1.16008,0.70817 -1.4479,1.50746 2.29214,1.93851 -0.45015,1.93999 0.6043,1.43927 2.94135,2.82085 0.77398,2.28157 1.82066,1.30629 4.60755,0.0124 2.84477,1.97813 3.308,-0.14903 1.82923,-2.35719 1.57924,-1.95221 -0.39836,-1.80683 4.23583,-1.8112 1.57213,-1.45631 0.48969,-1.52455 2.32157,-1.31894 3.35622,-0.49176 3.11717,-0.51294 1.56242,-0.0857 5.18035,-1.44013 3.65525,-2.10701 2.47719,-0.75005 2.41712,-0.008 6.56886,-0.66358 6.27089,-1.4832 6.15149,-1.5869 -2.94838,-0.0976 -5.65793,-0.0758 2.73176,-0.92823 -0.4291,-1.16822 2.39121,0.98661 1.49363,0.67564 3.90412,-0.33908 -0.50099,-1.38764 -2.53869,-1.02111 -2.75251,-0.40968 1.20588,-0.43336 4.01318,0.67218 0.14942,-0.72266 -2.35574,-1.0706 2.92641,-0.005 3.01772,-0.23971 0.81928,-0.53932 -2.26092,-0.60973 4.65081,-0.10629 -2.36188,-1.24197 2.24181,-0.13009 -0.16205,-1.16237 -3.55254,-0.69515 3.47338,-0.40409 3.18626,-0.0521 -2.1788,-0.8054 0.38952,-1.28981 1.86661,-0.7031 2.6004,-0.74659 -4.52458,-0.0475 6.337,-0.16948 1.19153,-0.22136 8.16614,-0.65478 -0.95334,-0.37136 -5.69589,-0.16279 -9.52516,0.32954 -5.12354,0.32881 2.443,-0.50884 -1.39251,-0.29839 -3.91266,0.254 -5.55038,-0.28542 -6.86776,0.0901 -0.81897,-0.14526 10.36563,-0.0782 7.33604,-0.035 3.74106,-0.29841 -11.26563,-0.57117 z m 428.6581,254.65893 -0.42991,-1.4987 -4.51225,-1.6562 -1.45066,1.3144 -3.80446,0.977 1.1689,1.9952 2.50478,0.7445 1.06998,2.4002 4.12179,0.01 0.21079,1.0694 -2.00616,-0.078 -3.07063,1.4514 2.09036,1.9793 -0.0528,1.7501 0.58091,1.4767 1.09437,-0.355 0.90505,-1.9571 4.07561,3.7208 2.30474,0.3366 5.27852,3.4068 1.1458,3.3743 0.42396,4.3655 -1.85437,1.1136 -1.46296,3.2613 3.56592,-0.1232 0.78966,-1.1412 2.78087,0.8057 2.19464,3.2852 2.88419,0.1668 1.5042,0.6687 2.33818,-1.3749 -0.083,-2.9528 1.82976,-1.3229 2.47476,-1.1434 3.51089,1.7528 1.12862,3.5042 1.36684,2.1991 1.90049,2.5485 2.76056,0.6007 2.35384,0.4483 0.56587,1.0339 1.88737,-0.2782 0.44793,-1.1531 -2.78516,-1.6798 0.92377,-0.7535 -2.09036,-0.679 0.29802,-1.7713 -1.61958,0.133 -1.4148,-4.2461 -2.28079,-2.6304 -0.41179,-2.6743 2.61764,-0.4322 -0.53262,-2.1304 -4.52598,-2.4844 -0.29341,-2.3696 -1.46351,-2.0233 -1.8469,-2.0627 -5.11453,-2.305 -4.79743,-2.7763 -3.00232,-0.7703 -2.05496,-1.4421 -2.38078,-1.4054 -2.5036,0 -3.28131,2.4331 -2.47667,4.2743 -2.83857,-2.4117 -0.65739,-6.52 z m 0.87672,20.3854 0.12277,-1.9162 -0.57275,-1.1762 -0.66563,1.359 -0.58613,1.4444 0.0746,3.0232 1.62716,-2.7342 z m -11.38156,-12.5575 -3.06396,-1.1751 -3.48192,0.1673 -0.73363,2.2151 1.94262,0.142 1.59793,-0.2661 2.34006,0.3371 2.31688,1.66 -0.91798,-3.0803 z m -4.85813,-17.03981 -0.28514,-1.64687 -1.66811,-0.35368 -0.24239,-2.20147 -0.90647,1.46704 -0.52257,3.22156 0.85487,5.15528 1.12227,2.55435 0.79249,-0.4839 -1.14974,-2.12901 0.42727,-2.45401 1.45392,0.39493 0.1236,-3.52422 z m -4.25879,18.51151 -0.65788,-1.3285 -2.8536,0.1933 0.49254,1.7326 1.91916,0.7395 1.09978,-1.3369 z m -5.46541,-19.6706 -0.50445,-0.90084 -2.74877,2.92808 -3.23743,0.169 -3.55572,-0.55953 -2.21232,-1.19069 -2.36878,2.99519 -0.58524,1.66246 -1.44831,6.07893 -0.45127,3.2011 -1.22185,2.6395 0.79672,2.76 1.18265,0.03 0.29662,3.8857 -0.97022,3.7033 1.14945,1.1802 1.81274,-0.5836 0.1365,-5.7566 -0.0888,-4.6965 1.90859,-1.2249 -0.32007,3.9261 1.94523,2.3613 -0.4272,1.5541 0.65184,1.1138 2.82752,-1.5581 -1.50706,3.2943 1.03159,1.4141 1.56109,-1.1821 0.14698,-2.6428 -2.35389,-4.647 0.55695,-1.3836 -2.54385,-5.1651 2.50344,-1.5629 1.24947,-2.3625 1.22165,0.5857 0.24597,-1.8572 -5.26199,1.3723 -1.54028,1.8265 -2.48951,-3.586 0.40445,-3.05253 2.45907,-0.58063 4.69268,-0.20132 2.71318,0.78862 2.11436,-0.77549 2.22825,-4.00015 z m -4.16071,46.4817 2.10288,-2.9835 2.44823,-1.1484 3.07116,-1.7516 1.12099,-1.0849 -1.02297,-0.4965 -0.91687,0.5003 -1.96834,0.1355 -2.48786,0.9001 -0.40785,0.9441 -2.90793,1.589 -1.42351,2.4377 -0.37957,1.3573 0.29007,0.4789 2.48157,-0.878 z m -3.60107,-8.1825 -2.62698,1.4676 -1.89149,0.3048 -1.66631,-1.2005 -2.29147,0.8326 -0.10441,1.4635 3.69076,0.4932 4.30623,-1.1361 0.58367,-2.2251 z m -6.85679,8.58 0.26699,-1.0776 -0.87161,-1.2133 -1.36782,-1.2174 -2.68085,0.786 3.46822,2.7984 1.18507,-0.076 z m -7.18701,-8.5742 -0.85604,1.4165 -1.54074,0.032 -1.14141,2.3045 1.505,0.032 1.9853,-0.5372 3.30599,-0.8037 -0.56627,-1.7023 -1.75808,0.3272 -0.93375,-1.0684 z m -25.71482,-5.2864 -0.30691,-1.4283 -1.14972,-0.3062 -2.19036,-1.5701 -3.39983,-0.2374 -2.12303,3.8381 2.55483,0.2949 0.38861,1.7255 5.0198,1.6512 1.19924,-0.5014 2.03576,0.3972 3.15134,1.5308 2.57712,0.7192 2.89075,0.2966 2.5474,-0.1091 2.96696,1.613 3.31448,-1.5254 -3.27601,-2.3813 -4.16385,-0.731 -0.86163,-2.6004 -5.10398,-1.9307 -0.71111,1.655 -5.35986,-0.4002 z m -7.69646,-3.717 0.36349,-6.2224 0.85387,-5.0092 -1.31395,-2.5507 -2.06065,-0.3564 -0.94459,-2.2496 -0.44571,-2.8126 -1.01081,-0.1033 -1.60458,-1.4004 1.13653,-3.29284 -2.14975,-1.84231 -1.65506,-3.37662 -2.40317,-2.76174 -2.86363,-0.0632 -2.75352,-4.33221 -1.59459,-1.67591 -2.25617,-2.73026 -2.6255,-3.93521 -4.38367,-0.77694 -1.81689,-0.16208 0.32379,2.0474 3.07636,4.43541 2.17813,2.25587 1.54419,3.44778 2.57928,2.53832 1.07173,3.14758 0.84312,3.46715 2.46775,3.36141 2.08426,5.6447 1.34261,3.021 2.05065,3.2809 1.13117,2.4408 3.49404,3.2881 2.22437,3.3616 3.1169,-0.084 z M 468.33038,24.53576 l -3.65982,-0.14492 -3.76996,1.09757 -2.71091,-0.58466 -3.5571,1.13059 -3.22814,-1.40555 -3.41919,0.30395 -1.75972,1.35534 4.59838,0.49076 -0.01,0.62458 -4.04079,0.41537 4.70996,1.05868 -2.37697,0.96989 6.19882,0.70231 2.93532,0.32885 2.00375,-0.40707 6.68914,-1.511 3.09437,-1.64608 -2.36618,-1.44034 0.66863,-1.33827 z m 72.58217,79.47284 -1.96287,0.29923 -2.64115,0.37372 -3.06175,-0.31372 -0.29679,1.76554 3.71717,1.75672 1.34621,0.37389 2.06019,1.30802 0.46844,-1.78472 -0.44062,-1.07122 0.81117,-2.70746 z m -16.7343,-10.05697 -1.25485,1.03217 -1.42055,-0.16679 0.64154,1.91144 0.21583,4.0713 1.00749,0.90174 1.02556,-1.13466 1.18567,0.21415 0.22056,-4.46039 -1.62125,-2.36896 z m -236.59575,85.34496 1.95366,-0.0727 -0.3466,-1.06868 -1.36964,-0.93637 -1.82319,-0.34935 -0.61542,-0.13125 -1.19231,0.27148 -0.42949,0.89094 1.42961,1.4219 1.484,0.62686 0.90938,-0.65279 z m 577.89696,-95.03445 -2.52815,-1.07798 -4.7857,-3.30908 0.61023,2.47301 1.61722,4.44866 -2.62725,0.18021 0.009,2.50832 1.96395,3.27352 2.83041,-0.0498 -0.40111,-3.60011 5.15592,2.2439 0.57208,-3.25433 3.31217,-0.89042 -2.52081,-3.62168 -1.0532,1.36159 -2.15467,-0.68582 z m 3.72315,23.49795 -1.58074,-3.55558 0.86576,-3.43537 -1.19085,-2.74125 -3.61971,-4.63606 -2.43746,0.60961 -0.0859,2.1072 2.19249,3.78591 0.22032,4.16612 -0.90666,1.33393 -2.38555,3.45657 -2.42656,-1.65469 -0.25881,6.19588 -3.09137,-0.71763 -4.8371,1.04703 -1.03473,2.41042 -1.99235,1.83186 -0.59651,2.23787 -2.12616,1.10098 1.91544,2.4601 2.03604,1.04729 0.41848,3.25991 1.74797,1.4125 1.23329,-1.52905 -0.29129,-6.12786 -3.61228,-2.62785 3.07545,-0.0683 2.52437,-1.67381 4.30524,-0.78174 1.09199,2.6545 2.27984,1.37092 2.26223,-4.05991 4.55902,-0.217 2.72091,-1.66153 0.37675,-2.47628 -1.17585,-1.75146 -0.17567,-2.77326 z m -12.51601,10.5006 -2.2238,-0.7658 -0.54208,1.49349 -1.65404,-0.41155 -0.70493,2.12685 0.57348,1.69777 2.08679,1.02261 -0.0285,-2.09797 1.06447,-0.83083 1.49781,1.14722 0.71593,-2.16161 -0.78509,-1.22018 z m -127.89935,107.37667 1.13404,-1.14336 0.24312,-4.17909 -1.56365,-4.17207 -1.45909,-2.81779 -2.06552,-2.22074 -0.91663,6.49379 0.75705,5.76478 1.46005,3.19375 2.41063,-0.91927 z m -88.68413,79.30024 -0.55979,-2.6175 -0.66077,-1.6886 -0.89668,-1.7055 -1.00599,1.7772 -0.16431,2.3857 -1.67362,2.7524 -1.1606,-0.4757 0.29435,1.6906 -0.93935,1.9875 -2.42029,2.4291 -1.7077,2.2434 -1.22364,0.053 -1.06805,0.7114 -1.59392,0.8056 -1.39215,0.1447 -0.51093,2.4885 -1.09476,2.1905 0.006,3.598 0.36947,2.4552 0.5209,1.8394 -0.41412,2.4687 -1.51883,2.9298 -0.0981,1.2833 -1.3131,0.6669 -0.69199,2.7707 0.045,2.7559 0.72708,3.0422 -0.093,3.3688 0.58436,1.9975 2.04408,1.3511 1.48078,0.9627 2.51901,-1.5954 2.29575,-0.895 1.62495,-4.3985 1.49912,-5.3084 2.27632,-7.2898 1.75512,-5.3404 1.40518,-4.5405 0.39328,-3.3116 0.82336,-0.9049 0.35136,-1.6628 -0.35274,-2.911 0.59119,-1.1649 0.80647,2.3055 0.56147,-1.1569 0.38829,-1.8881 -0.61539,-1.8443 -0.19253,-4.7553 z M 550.29477,3.15792 545.2156,2.91904 l -1.82229,0.28703 -2.95562,-0.23112 -5.91773,0.26888 2.33365,0.45693 2.83336,0.0178 0.47216,0.28359 5.91004,0.1749 5.67349,-0.12379 2.60473,-0.55041 -4.05262,-0.34494 z m -0.0585,2.75436 -3.00999,-0.26599 -0.97483,-0.43288 -4.05657,0.22949 1.35132,0.3732 -1.27817,0.30757 3.66099,0.28149 4.30725,-0.49288 z m -13.73321,-2.04982 -2.61907,-0.35406 -2.87286,0.0348 -0.63168,0.34755 -2.80619,0.0144 -1.18313,-0.35629 -5.27619,0.36456 1.72458,0.83619 4.11003,0.96069 3.09679,0.34305 -1.7279,0.43097 4.53994,0.76433 2.43715,-0.0497 0.67649,-1.02811 1.69786,-0.22616 0.82887,-0.85311 4.84647,-0.43722 -6.84116,-0.7918 z m 422.44483,386.14684 0.82546,-3.1244 -1.60204,-0.9139 -0.4885,-1.9646 -1.11309,0.278 -0.10696,2.5007 0.52183,3.1039 0.51803,1.44 -0.38761,0.6131 -0.1583,2.3219 -1.07356,2.2272 -1.88342,2.6336 -2.53665,1.1871 -0.76321,1.228 2.01407,1.351 -0.22922,1.8493 -3.11315,2.7442 0.78334,0.4781 -0.0867,0.869 2.78677,-1.3212 2.64359,-2.2827 2.04069,-1.8079 0.746,-0.6265 0.59975,-1.4534 1.28162,-1.0307 1.94043,0.07 1.91811,-1.9871 2.3218,-3.0438 -1.10518,-0.3982 -2.2089,1.3128 -1.61089,-0.2749 -1.49179,-1.1222 0.99887,-2.6181 -0.68811,-0.9485 -1.29712,2.3703 0.004,-3.6599 z m -13.05355,16.2678 0.25749,-1.4206 -2.70615,1.5442 -1.47662,1.8552 -1.47189,0.8371 -2.6204,2.452 -2.57349,1.695 -3.23944,1.7 -2.59639,1.2286 -2.02015,0.6055 -5.19359,3.1533 -2.88099,2.3441 -0.3408,1.1521 2.58165,0.2199 0.92856,1.0289 2.2626,0.066 1.85956,-0.8901 2.92221,-1.4003 3.56454,-3.2007 2.03982,-2.0926 2.9506,-1.2123 1.98521,-0.04 0.0546,-1.5558 2.12687,-1.3078 3.16745,-2.4115 1.88626,-1.5262 0.83899,-1.3936 0.0931,-1.4053 -2.62939,1.3484 0.22976,-1.3739 z m -90.79342,-189.53563 -0.31744,-1.47242 -0.40861,-2.01457 -2.44333,-1.89553 0.44034,3.09176 -1.97311,0.10637 -0.31095,1.78615 -2.04743,1.09671 -1.13478,-1.81275 -1.41076,1.50866 -1.68307,1.12689 -0.8652,3.37969 0.54113,1.17465 1.93034,-2.23875 1.33211,0.15441 0.76414,-1.66267 1.91312,1.89639 -0.72957,1.90797 0.96693,2.90671 3.43682,2.33258 0.70243,-1.88376 -1.07682,-2.95951 1.17792,-2.03563 1.28988,4.09258 0.72186,-3.67398 -0.32556,-2.24993 -0.49039,-2.66202 z m -3.91059,-14.95559 -0.94295,-1.48169 -2.6925,-0.0875 2.05594,3.03426 0.20143,1.50657 -1.68015,-0.31761 0.69167,2.41147 0.86378,0.207 0.39376,2.80561 1.24565,-0.89418 -0.93303,-2.46072 -0.19912,-1.33699 2.2706,1.05685 -1.27508,-4.44307 z m -3.45911,7.50295 -0.11581,-3.80321 -1.68532,3.84868 0.18565,-2.68496 -1.51949,0.23417 -0.0661,2.47564 -0.59826,1.11825 -0.47999,1.06922 1.96588,2.76329 0.77969,-1.18416 0.65139,-2.52474 0.88233,-1.31218 z m -11.75031,-32.47212 -1.67495,-0.005 -0.31502,3.53596 0.65698,6.13197 -1.30954,-1.29257 0.64801,3.76425 0.65329,1.71607 1.67847,2.26776 0.17001,-1.42283 0.95358,0.91291 -0.7377,1.00482 0.0688,1.63438 1.49788,0.87447 2.45862,-0.58495 2.07215,2.37082 0.53697,-1.45422 1.28849,2.08182 2.40901,1.94755 0.0707,-1.8286 -1.02756,-0.95238 -0.008,-2.15568 -3.76885,-2.19212 -1.17035,0.46762 -1.53428,-0.43536 -1.04993,-3.14291 -0.0165,-3.17359 1.44318,-1.30224 0.22466,-3.25901 -1.4018,-2.8032 0.17851,-1.61807 -0.42112,-0.9903 -0.67961,1.01499 -1.89427,-1.11283 z m 5.21626,26.04622 0.63631,1.89356 0.0104,2.03207 0.28082,1.85291 1.66093,-1.19764 1.12404,-1.69218 -0.12176,-1.66312 -1.77896,0.006 -1.81174,-1.23146 z m -1.53215,-4.67687 -1.14265,-1.42705 -2.40749,-0.14542 1.78536,3.02067 1.42227,1.98129 0.34251,-3.42949 z m -6.93859,14.94723 1.23329,-2.74617 1.64554,-2.19751 -0.82037,-3.2493 -1.07927,3.95939 -1.43389,2.76223 -1.81915,2.46917 -1.15907,2.79943 3.43292,-3.79724 z m 105.72947,64.92811 0.48137,-1.1242 -1.22534,-1.3631 -1.18785,-2.5476 -0.7939,-0.912 -0.23001,-1.1969 -0.41227,0.389 0.40813,3.0627 1.04553,2.5515 1.09526,1.542 0.81908,-0.4014 z m -7.08999,-9.3265 -0.23563,-2.0933 -1.01284,-1.2888 -1.05911,-1.6918 -1.1478,-0.9671 -0.92811,-0.8865 -1.48659,-1.1284 -0.8114,0.9733 1.99449,1.1844 1.53795,1.7188 1.21968,1.3199 0.58366,1.5558 0.40868,2.376 0.93702,-1.0723 z m -3.48035,3.9348 1.09007,-2.4552 0.1738,-2.2324 -0.53626,-0.661 -1.68902,0.077 0.1889,2.3718 -1.65081,1.4348 -0.87624,1.3761 -1.62355,0.3071 -0.14618,-2.1351 -0.40929,0.099 -0.5383,1.9282 -1.55818,0.3145 -2.48499,-0.587 -0.31072,1.2439 1.53186,1.121 2.22369,1.167 1.49271,0 1.50866,-0.9401 1.60376,-0.9767 0.51665,-1.1274 1.49344,-0.3306 z m -41.64202,-256.43034 -2.16323,-1.17239 -1.40356,0.71101 1.37651,0.55034 2.19028,-0.089 z m -33.47774,47.8048 -2.9696,-2.93358 -1.87499,-2.81422 -2.75895,-2.71034 -1.95608,-1.83282 -0.78674,0.38728 1.88558,1.28511 -1.31613,1.28701 2.45924,3.88327 3.32576,2.84919 2.42869,3.94774 0.83815,2.26783 2.26609,3.28083 1.48198,3.00523 1.95837,2.62074 0.26404,-2.41828 2.98296,1.8814 -1.18881,-2.17948 -4.30177,-3.159 -1.15719,-4.37657 4.28462,0.99186 -5.86522,-5.2632 z m -40.8689,-54.52352 -5.91968,-0.36777 -4.26187,-0.2096 0.40685,0.45183 4.93671,0.56193 3.5623,0.12907 1.27569,-0.56546 z m -9.74493,2.78693 -0.94192,-0.40781 -3.97423,-0.58375 -2.372,0.14022 -0.97064,0.60647 0.5023,0.0821 4.58963,0.1737 3.16686,-0.0109 z m -3.23718,-3.45509 -8.87754,-0.71878 -5.52214,-0.0584 -2.20018,0.25101 0.70014,0.94425 5.78772,0.92785 2.81804,-0.34096 7.70679,0.0397 -0.41283,-1.04466 z M 710.8959,5.3827 l -0.30037,-0.46027 -6.29854,-0.61941 -1.63286,-0.0692 -1.381,0.11976 -0.88491,1.47915 10.49768,-0.44999 z m -11.48625,-0.64595 -1.45757,-0.95472 -6.68448,-0.94754 -4.9312,-0.46047 -3.68378,0.20372 -3.59657,0.64411 3.08582,0.1941 2.98591,0.73318 4.06466,0.40849 6.1327,0.3171 4.08451,-0.13797 z m -75.49715,11.69753 -4.90458,-1.40934 -1.25313,-1.37654 2.32559,-1.52863 2.07676,-1.47842 5.36221,-1.36973 5.71055,-0.65904 6.62303,-0.66583 0.95464,-0.40757 -1.94699,-0.50577 -3.78044,0.16498 -3.01138,0.47842 -6.5662,0.24582 -6.02953,0.86555 -4.04008,0.73621 1.03597,0.65073 -4.09599,1.30428 2.04424,0.18647 -3.33777,1.33268 0.58603,0.88121 -1.96894,0.35289 0.80461,0.90359 4.1111,0.45656 0.98475,0.76777 7.13565,0.22738 1.1799,-0.15367 z m -23.51562,-13.41086 0.57378,-0.14455 -3.14888,-0.20418 -1.64339,0.15323 -0.85034,0.22678 -0.70105,-0.25486 -2.94653,0.0113 -3.61387,0.17174 4.37843,0.0289 -0.78102,0.30211 2.37747,0.23517 2.11664,-0.16449 0.0919,-0.16092 1.6749,-0.0736 2.47199,-0.12668 z m -487.57897,21.25001 1.99237,-1.25362 -2.82482,-1.95047 -3.03241,-1.45185 -11.899808,8.01119 2.507044,-0.90385 0.372619,-0.98817 3.362485,-0.49343 -1.57147,0.77367 0.19399,0.73669 2.91565,-0.27403 1.79817,0.34572 -0.73786,0.92531 2.15922,0.62891 0.73761,0.75904 2.0266,0.0655 1.47862,-0.45438 2.78262,-2.09628 3.94978,-0.21837 3.4231,-0.91206 -1.7059,-1.91577 -5.56637,-0.29982 -1.58217,1.47517 -0.77907,-0.50907 z m 4.92807,-8.13978 2.95371,-0.41408 0.61007,-0.23422 -2.1848,-0.48561 -1.79887,-0.004 -0.40632,0.0708 -2.16323,1.17239 2.98944,-0.10571 z m 714.65931,144.13276 0.29612,-6.10586 -0.0591,-2.28431 -1.50873,-1.12502 -1.51164,2.86277 -0.77237,3.73152 0.9191,2.82913 2.11606,3.23424 0.5206,-3.14247 z M 138.99377,46.37407 l 3.10899,-1.23433 -0.29704,-0.79948 -1.40742,-0.17327 -1.60258,0.39132 -2.94898,0.91751 -0.69989,1.21998 0.62731,0.67717 3.21961,-0.9989 z m -26.71072,-16.13331 -1.16392,0.84063 0.29989,0.1978 2.15674,-0.13041 0.37378,0.4083 1.14464,0.49232 2.28693,-0.47914 0.47834,-0.24544 -1.89289,-0.30011 -1.117,-0.58938 -1.68995,0.22907 -0.87656,-0.42364 z m 3.92039,9.056 0.74791,-0.93706 -1.60617,-0.21997 -2.72263,0.41599 0.71499,0.66397 1.04895,0.45945 1.81695,-0.38238 z m -45.309328,135.26537 1.021625,-0.60707 1.268593,-0.82916 0.115994,-0.2151 -0.386144,-1.35854 -0.324672,-0.51872 -0.409633,-0.33578 -0.898171,-0.65374 -0.192169,-0.0716 -0.246852,0.36078 0.0078,0.76125 -0.628617,0.63171 -0.239052,0.43132 0.127601,1.41249 -0.327304,1.08579 0.560618,0.55679 0.55037,-0.65042 z m -0.0496,-6.04574 0.344865,-0.46353 -0.571772,-0.59188 -0.885675,-0.36648 -0.352767,0.33058 -0.03605,0.24092 0.237843,0.31369 0.272586,0.81307 0.990971,-0.27637 z m -1.352582,-2.05526 -1.310739,-0.16463 -0.325865,0.46929 1.445296,0.11192 0.191308,-0.41658 z m -2.315825,-0.55968 -0.462454,-1.27162 -0.164601,-0.24691 -0.873877,0.52988 0.0665,0.15356 0.122353,0.87255 0.921832,0.13534 0.183981,0.0496 0.206271,-0.22236 z m -3.9794,-2.53643 0.185455,-0.89359 -0.610047,-0.0814 -0.520841,0.37571 -0.217834,0.27953 0.73563,0.69988 0.427637,-0.3801 z M 966.4104,316.4126 l -1.27934,-2.2566 -0.31682,1.0538 0.57229,1.7188 1.02387,-0.516 z m -0.84474,-6.0288 -1.10526,-1.213 -0.51575,3.021 0.18469,1.0869 0.62063,-0.2133 0.64901,0.4935 0.16668,-3.1751 z M 524.9745,90.83498 l -0.5295,-2.80696 -1.60294,1.2466 -0.47843,1.21838 0.66064,2.21926 1.18686,0.67477 0.76337,-2.55205 z m -13.36979,7.69759 0.0708,-0.18766 -0.0189,-0.0665 -0.23643,-0.38775 -0.43246,-0.14376 -0.53111,0.0406 -0.0195,0.0894 -0.005,0.20236 0.0641,0.0594 0.26033,0.0434 0.80071,0.38957 0.0469,-0.039 z m -2.96815,0.17459 0.033,-0.1568 0.0825,-0.0837 0.0189,-0.096 -0.0824,-0.0602 -0.007,-0.0556 0.0843,-0.12419 -0.1008,-0.0317 -0.65431,0.20957 -0.30816,0.18023 -1.06348,0.81616 -0.002,0.13867 0.0638,0.10718 0.16718,0.0335 0.1069,0.17796 0.19632,-0.17862 0.14999,-0.0864 0.17263,0.0476 0.11856,0.10788 0.0648,0.33854 0.0784,0.0854 0.26042,0.0566 0.44996,0.22742 0.21078,-0.10843 0.23173,-0.18087 0.12174,-0.30623 0.14154,-0.26599 0.168,-0.24169 0.11941,-0.23854 -0.0358,-0.21431 -0.1378,-0.0542 -0.1393,-0.0318 -0.26039,0.10134 -0.24902,-0.11271 z m -4.38413,2.95319 0.12783,-0.047 0.3333,-0.36159 -0.028,-0.16514 -0.12701,-0.1143 -0.55929,0.1367 -0.1189,0.1688 -0.006,0.16806 -0.11295,0.0284 -0.0845,0.23663 0.0876,0.0846 0.39518,0.074 0.0931,-0.20915 z m 0.39043,0.84053 -0.004,-0.10028 -0.24913,-0.0357 -0.15822,-0.19197 -0.0493,0.0974 -0.0392,0.0962 0.0105,0.13793 0.25788,0 0.17229,0.0415 0.0589,-0.0452 z" />
</svg>
