<?xml version="1.0" encoding="UTF-8" standalone="no"?>
<svg
   xmlns:dc="http://purl.org/dc/elements/1.1/"
   xmlns:cc="http://creativecommons.org/ns#"
   xmlns:rdf="http://www.w3.org/1999/02/22-rdf-syntax-ns#"
   xmlns:svg="http://www.w3.org/2000/svg"
   xmlns="http://www.w3.org/2000/svg"
   xmlns:sodipodi="http://sodipodi.sourceforge.net/DTD/sodipodi-0.dtd"
   xmlns:inkscape="http://www.inkscape.org/namespaces/inkscape"
   enable_background="new 0 0 1000 2001"
   height="424.10925"
   pretty_print="True"
   style="fill:#483737;stroke:#ffffff;stroke-linejoin:round"
   version="1.1"
   viewBox="0 0 1001 424.10925"
   width="1001"
   id="svg2"
   inkscape:version="0.48.4 r9939"
   sodipodi:docname="cea_joined.svg"><sodipodi:namedview
   pagecolor="#ffffff"
   bordercolor="#666666"
   borderopacity="1"
   objecttolerance="10"
   gridtolerance="10"
   guidetolerance="10"
   inkscape:pageopacity="0"
   inkscape:pageshadow="2"
   inkscape:window-width="640"
   inkscape:window-height="480"
   id="namedview19"
   showgrid="false"
   inkscape:zoom="0.11794103"
   inkscape:cx="500.5"
   inkscape:cy="211.05463"
   inkscape:window-x="0"
   inkscape:window-y="0"
   inkscape:window-maximized="0"
   inkscape:current-layer="svg2" />

utf-8<defs
   id="defs4">
utf-8utf-8<style
   type="text/css"
   id="style6">path { fill-rule: evenodd; }utf-8utf-8</style>

utf-8
utf-8utf-8
utf-8</defs>

utf-8<metadata
   id="metadata8">
utf-8utf-8<views
   id="views10">
utf-8utf-8utf-8<view
   h="2001.0"
   padding="0"
   w="1000"
   id="view12">
utf-8utf-8utf-8utf-8<proj
   flip="auto"
   id="cea"
   lat1="30.0"
   lon0="20.0" />

utf-8utf-8utf-8utf-8<bbox
   h="2302.31"
   w="5441.4"
   x="-2720.7"
   y="-1147.61"
   id="bbox15" />

utf-8utf-8utf-8</view>

utf-8utf-8</views>

utf-8<rdf:RDF>
  <cc:Work
     rdf:about="">
    <dc:format>image/svg+xml</dc:format>
    <dc:type
       rdf:resource="http://purl.org/dc/dcmitype/StillImage" />
  </cc:Work>
</rdf:RDF>
</metadata>

utf-8<path
   inkscape:connector-curvature="0"
   id="---"
   data-name="---"
   data-id="---"
   d="m 611.48613,65.50402 1.01774,0.82603 1.5391,0.31116 1.60556,1.00094 0.69361,1.86862 -0.41413,1.18068 -3.27959,1.45296 -2.39118,-0.24881 -3.23595,0.43079 -3.98483,-1.07878 -4.84839,-1.94955 -4.59562,0.0585 -3.23695,0.77958 -3.33902,1.80171 -5.29425,-0.36914 -1.16674,2.12945 -4.27766,0.11274 -3.0812,2.71579 1.76087,1.37102 -1.35134,2.25094 2.02931,1.62066 1.6456,2.93567 3.03255,-0.0535 2.68631,1.58713 1.91978,-0.35451 0.64036,-1.23569 2.99436,0.0998 2.24879,1.60047 4.21593,-0.33607 1.91016,-1.71345 2.32329,0.68344 1.69413,-0.2532 -1.05205,1.11882 1.02133,1.35789 -0.67983,1.23906 0.25938,2.32042 -0.0522,0.10623 -1.38163,2.15691 -0.98931,2.51574 -0.0766,0.0322 -0.39734,0.78678 -0.56342,2.35794 -0.73466,1.47059 0.18962,0.17896 -0.80816,1.0417 0,1e-5 -1.36676,0.79892 -2.16522,-0.17973 -2.22625,-0.74896 -0.64461,1.03624 -0.75681,-1.57164 -1.97508,-0.39875 -2.44972,0.26036 -1.14337,0.90651 -2.13858,1.00548 -1.28625,-0.49464 -2.75794,-0.93637 -2.67303,-0.83544 -3.69586,0.0522 -0.67689,-1.04016 -2.76011,-0.36863 -0.88436,-0.53521 -1.03425,-0.0133 -0.94734,-1.39787 -3.75772,-0.63745 -1.91239,0.42476 -2.00153,1.4642 -0.87122,1.52785 0.64728,2.42244 -1.33142,1.46389 -1.35452,0.82878 -2.95923,-1.58636 -3.91519,-1.32934 -2.49356,-0.61433 -1.30086,-2.79713 -3.68597,-1.39608 -2.32061,-0.5195 -1.16653,0.26776 -3.26256,-1.06963 -1.05635,-0.48445 -0.69907,-1.46772 -1.43661,-0.0523 -0.52796,-1.67237 1.82849,-1.53299 0.36575,-2.61717 -0.96175,-0.74614 0.0187,-1.38283 1.38894,-1.45591 -0.19766,-0.56826 -2.35616,1.09001 0.0815,-1.49704 -1.94447,-0.35357 -3.02508,1.19138 -1.89968,0.17981 -1.12971,-0.68821 -2.96824,0.0228 -2.61583,1.16714 -1.401,-0.44051 -4.59461,0.24053 -4.70773,0.52938 -2.67511,0.90674 -1.7537,1.23484 -3.00319,0.52211 -2.67031,1.64888 -1.20664,-0.0324 -2.87709,-0.66739 -2.64153,0.20884 -1.6746,-1.2792 -2.04481,-0.0144 -0.87318,1.8528 -1.85612,3.15543 -2.0601,1.27082 -2.78694,1.41138 -1.78671,2.10074 -0.3725,1.64849 -1.05535,2.71379 0.69419,3.96804 -2.31884,2.69116 -1.39268,0.86339 -2.18878,2.22489 -2.5831,0.36091 -1.39661,1.25765 -0.0509,0.0459 -1.76073,3.36623 -1.85037,1.20874 -1.00274,2.05869 -0.0659,1.7828 -0.73524,1.96084 -0.9352,0.5433 -1.54613,2.15044 -0.95501,2.39889 0.17914,1.15508 -0.90893,1.78415 -1.06697,0.93558 -0.13106,1.59529 -0.11943,1.459 1.46417,1.49549 0.71801,1.65086 -0.27726,1.73738 0.33547,1.73716 0.30705,3.46885 -0.34502,3.32315 -0.77543,1.74713 0.24058,1.91451 -0.66002,1.82931 -1.34574,2.50837 -1.22186,0.68005 1.38593,1.27631 1.1455,2.79806 -0.35499,1.59828 0.45575,2.76882 0.17671,0.77425 0.84692,0.7686 -0.0162,0.55158 0.6377,1.02258 1.16954,0.23998 1.48297,1.51863 0.80766,0.59575 0.40645,0.80146 0.31537,1.60935 0.69339,0.72466 0.7112,0.4726 1.08025,1.42903 1.21835,2.16327 0.34034,2.70709 0.48605,1.33986 1.44708,1.96697 1.99974,1.48069 0.74837,0.2728 1.87055,2.37445 2.36656,2.01586 2.52396,2.80736 2.86302,1.75975 0.72763,-0.0325 0.53672,0.097 2.75048,-1.35428 1.92854,-1.06511 3.29049,-0.64399 1.78083,-0.0426 1.93815,0.72129 1.26378,-0.0376 2.47616,1.04813 2.50301,-1.07054 1.54441,-1.26491 4.35488,-2.15753 2.23644,-0.7857 2.29573,-0.42954 2.45133,0.002 2.08729,-0.0455 1.96658,2.42706 0.91453,2.66959 1.48713,2.30934 2.22195,0.0807 1.06812,-0.82759 1.0542,0.19416 2.88383,-1.32859 -0.0319,1.02023 0.71142,0.52954 0.56442,1.65527 1.26736,0.62676 1.08564,2.44427 -0.40566,2.921 -0.95429,4.15714 0.52021,0.55839 -0.55983,2.74593 -0.67481,2.69627 -0.60648,1.1841 -0.0891,1.2303 1.6868,3.8244 1.83581,3.0531 2.85455,3.7314 2.28108,3.9106 0.74271,2.7725 0.38915,1.1426 -0.26413,0.7156 1.39153,2.3277 0.56873,2.4594 0.84276,3.5426 -0.85381,1.4512 -0.14915,0.7602 0.68228,2.1918 0.73983,2.2123 0.8307,1.3017 0.14541,2.0605 -0.29168,2.687 -0.89113,1.6105 -1.59566,2.3629 -0.66217,1.4768 -0.90133,3.2394 -0.14455,1.5378 -0.95845,3.27 -0.38456,3.1269 0.2614,2.227 0.16866,2.7073 2.26013,3.4276 0.60634,2.1938 1.46014,4.1679 1.43374,2.8512 1.08075,1.4164 0.35556,1.8679 0.0623,4.0709 0.93075,5.1846 0.68472,2.4166 0.61322,3.2241 1.08707,2.4001 2.06433,2.4658 1.99428,4.1994 0.004,0.01 1.39583,2.7087 1.81901,2.9652 0.0726,2.4094 -0.89644,0.5689 0.90247,2.0828 -0.0155,1.8093 0.3692,0.8252 0.1312,-0.4254 1.19631,1.3672 0.93879,0.056 1.17535,1.0865 1.26349,-0.073 1.71609,-1.1522 2.37152,-0.4842 2.86488,-1.2112 1.15009,0.1609 1.68293,-0.3751 3.01058,0.5925 1.37503,-0.5852 1.68824,0.4545 0.35843,-0.8543 1.41608,-0.1606 2.90321,-1.1994 2.09763,-1.4133 1.96055,-1.8745 3.13934,-3.2528 1.57527,-2.2798 0.77486,-1.6453 1.17722,-1.635 0.54289,-0.4668 1.89552,-1.6358 0.71873,-1.4688 0.32815,-2.7199 0.69404,-2.4 0.23843,-1.7449 -0.70998,-0.2236 -0.23814,-1.4031 1.21827,-1.2356 3.3406,-1.8155 2.29141,-1.1377 1.16115,-1.2008 0.41312,-1.4086 -0.65471,-0.581 0.45044,-1.5803 0.0795,-3.354 -0.49083,0.1716 -0.0345,-1.0274 -0.54806,-2.0204 -1.31731,-2.6207 0.23469,-2.4794 1.14449,-0.8063 1.93916,-2.4853 1.06884,-0.6403 3.13848,-3.778 3.13116,-1.7158 2.53947,-1.3471 1.76863,-2.2031 1.07774,-2.4755 0.8284,-2.5557 -0.48849,-1.7566 -0.1078,-5.6299 -0.34322,-3.1765 0.11427,-3.6187 -0.44944,-1.6325 -1e-5,-1e-4 0,1e-4 -1.01941,-0.7972 -1.14961,-3.6007 -0.97006,-2.2944 0.18198,-1.751 -0.15928,-1.115 0.76475,-2.218 -0.0833,-0.9559 -1.77842,-1.3403 -0.16453,-2.0866 1.28245,-4.5441 1.11852,-1.2193 0.54214,-2.4583 0.89203,-1.4916 0.39403,-2.6062 1.04114,-0.2712 0.68589,-1.5441 1.94544,-1.4781 0.62728,-0.8766 0.64061,-1.9526 3.04,-4.48633 2.58939,-2.81693 4.15511,-3.67613 2.77992,-2.99549 3.26675,-5.04252 2.37155,-4.13259 2.38375,-5.39736 1.71728,-4.68994 1.33742,-4.09006 0.78275,-3.94587 0.58647,-1.31547 -0.0105,-1.91155 0.2565,-2.11129 -0.063,-1.00207 -1.05328,0.01 -1.31456,1.24087 -1.47266,0.36519 -1.28017,0.53921 -0.88766,0.0716 10e-6,-10e-6 -1.58173,0.12758 -0.99219,0.66256 -1.3776,0.23922 -2.44516,1.12963 -3.0235,0.43125 -2.61856,0.93142 -1.37905,-0.0121 -1.25315,-1.52375 -0.54447,-1.50313 -0.90376,-0.6693 -1.19286,-0.99264 1.58474,-0.86735 0.0874,-1.50322 -0.6573,-1.11889 -1.36569,-1.08611 -0.86874,-1.239 -1.50522,-2.07698 -1.54354,-2.0467 -3.79162,-3.37973 -1.52273,-1.73686 -0.76524,-3.26159 -1.6126,-4.091 -1.52036,-1.30036 -1.05825,-0.86489 -1.01969,-4.17543 -0.40358,-3.57549 0.60919,-0.62757 -0.89581,-3.38077 -0.48761,-0.70295 -3.2353,-3.06789 -0.0896,-2.20871 0.55191,-0.59061 -2.49261,-3.73151 -0.89222,-1.89098 -1.02589,-1.81192 -2.09942,-5.14363 -1.70538,-3.28139 -1.151,-3.41037 0.28547,-0.29133 1.98203,4.63719 1.25375,1.4568 0.92569,1.05701 0.64764,-0.57237 0.75567,-1.70142 0.59775,-2.45363 0.78016,-1.29811 -0.27599,-0.83623 0.276,0.83624 0.0929,0.467 -0.34393,1.29076 -0.12345,1.13632 -0.43179,1.78935 1.38292,-0.0157 1.41665,2.25186 1.69155,2.66169 1.08463,2.47217 0.81117,0.74502 0.77185,1.73527 -0.15187,0.75898 0.91338,1.92999 1.50062,0.69874 1.30254,1.32155 1.59321,3.77637 -0.11843,2.03151 0.3214,2.39255 1.83969,3.29936 1.23879,0.57063 1.92136,2.39755 0.78348,2.85228 1.48052,2.94947 1.43474,1.26462 0.21417,1.41082 0.83774,1.06713 0.36044,1.51496 0.12316,1.55177 -0.33676,0.68725 0.28494,1.63083 -0.55595,0.17377 0.79826,1.4706 0.5436,2.65286 0.45418,1.0607 -0.0794,1.96867 0.72247,2.10866 1.92265,0.18379 0.8874,-0.4904 1.37488,0.0797 0.43006,-0.91854 0.72806,-0.26333 0.6072,-0.95225 0.70151,-0.20477 2.3319,-0.18714 1.77049,-0.69335 1.6235,-1.49271 0.83343,0.21256 1.22301,-0.19808 2.48707,-2.53158 4.43872,-1.6693 2.76569,-1.50755 0.0655,-1.21548 0.53743,-1.57938 2.00935,-0.95391 1.28316,-0.20085 1.85762,-1.19552 1.53264,0.33394 1.34416,-0.98295 -0.0138,-1.42743 1.08765,-0.88822 1.72785,0.0284 0.63519,-0.74347 0.27073,-1.71271 1.73504,-1.31062 1.27813,0.0115 0.26197,-0.43024 -0.3415,-2.33508 0.44614,-1.76464 0.57763,-0.8279 1.26019,0.18201 1.03654,-2.37229 1.17019,-1.10391 0.44384,-0.96664 1.01099,-2.04642 0.005,-0.76379 -0.99434,-0.43309 -0.74888,-1.13375 -1.25358,-1.95038 -1.64518,-0.61832 -2.03749,-0.44274 -1.55086,-1.2279 -1.24526,-2.30052 -0.37724,-2.64441 0.36217,-0.6048 0.26182,-1.37404 -0.3435,-0.28813 -0.80888,1.13119 -1.75499,2.05603 -2.07222,2.1504 -1.90284,2.27944 -1.67777,-0.0999 -2.29701,-0.0883 -2.17415,0.53288 -0.10263,-0.92678 -0.49423,0.16401 -0.52753,-1.2877 0.60304,-1.97594 -0.0489,-1.95694 -0.84061,-1.04387 -0.75864,0.35797 -0.74844,1.74998 0.18388,2.44023 -0.41542,-0.82372 -0.36992,-1.09923 -0.79869,-0.93707 -0.35154,-1.12036 0.27676,-1.10765 -0.1681,-1.36791 -1.89308,-1.38835 -0.47599,-1.15607 -1.36656,-0.74986 -1.0875,-2.81693 -0.89486,-2.44507 0.2479,-0.73611 -0.57964,-1.41909 1.64848,0.15738 1.03712,-1.25038 1.76532,1.06126 1.49489,-0.51945 2.04983,4.29849 1.85504,3.09296 2.67454,0.93386 2.80417,2.53154 3.39442,1.09807 2.80172,-1.60105 2.13453,-0.58933 1.32952,0.58447 1.18468,4.06945 3.13475,0.43374 3.02881,0.76825 5.22564,1.01155 3.91205,-0.46994 4.51307,-0.0624 5.11784,-0.62969 2.14615,2.55528 0.8284,2.42615 2.03605,0.85682 3.2582,2.88795 0.82036,1.34129 -1.33555,1.23894 3.62869,4.17683 1.95782,0.41504 4.04239,-2.06887 0.53873,3.24055 -0.01,4.22052 0.83056,4.49268 1.1508,6.86501 2.52684,4.90628 0.48016,2.24173 0.68916,4.50645 1.47579,3.47691 0.97324,1.71638 1.06554,3.66937 1.28589,5.11374 2.63032,3.42088 1.11464,-1.05389 0.93548,-2.49055 2.53272,-1.03685 -0.84548,-1.20438 1.26435,-2.78256 1.43747,-0.17643 0.0126,-6.17217 1.17707,-3.43482 -0.14728,-2.98833 -0.57834,-4.66396 0.83285,-2.72207 1.29751,-0.18801 2.502,-1.27459 1.38478,-0.87547 0.004,-1.631 2.76785,-2.31415 2.0883,-2.22207 3.10906,-4.12289 3.99746,-2.3452 1.48282,-2.05329 -0.15962,-2.59896 3.42442,-0.71493 1.88964,0.0433 0.39776,-1.25495 1.07473,0.30743 0.78663,0.37475 0.40394,-0.62532 1.18195,0.69665 0.87219,-1.90922 -0.25265,-1.40952 2.55856,0.13658 1.16057,1.99212 0.52868,1.65369 0.16019,1.75593 0.79352,1.80337 1.97146,2.83425 1.62494,0.44671 -0.33963,1.25813 2.1773,4.04264 0.57964,3.30265 -0.95745,4.39731 1.72111,0.83514 1.55819,0.31746 3.15671,-2.53699 1.82992,-1.77924 1.20148,2.94072 0.50183,4.50924 0.9052,4.29644 1.1277,1.86672 -0.22566,3.93789 0.93391,2.14564 -0.85381,2.78443 0.26771,2.70492 -0.81778,3.50371 -0.30317,2.28443 0.52682,2.037 0.4559,-2.15535 1.34574,1.73899 1.47608,2.07238 0.47513,1.82018 1.09741,1.41161 0.61251,1.56076 -0.30432,2.68331 1.00195,2.01149 0.38341,3.05831 1.60585,2.4723 0.32527,1.88434 3.28605,2.9371 2.62803,2.74255 1.96974,-0.24703 0.0531,-1.25179 -1.09238,-3.27306 -0.97841,-1.01951 -0.20283,-2.18885 -0.2703,-1.27099 0.29571,-1.68082 -0.15934,-2.4863 -1.1653,-2.46943 -1.64044,-2.2244 -0.63878,-0.34403 -1.43919,-1.90988 -1.68264,-0.42751 -1.55015,-2.10466 -0.49897,-3.17568 -1.12726,-3.34102 -1.80954,-0.11476 -0.19062,-2.6432 0.90318,-3.21768 1.49948,-5.29956 0.21963,-3.97135 2.4463,-0.0211 -0.40738,2.83494 2.37597,-0.0674 2.49382,1.66076 1.40488,3.74655 1.12941,1.89524 2.32516,0.53162 2.06074,2.07063 -0.7806,2.47408 1.00855,2.34636 3.46347,-3.40533 2.26615,-3.04113 3.18112,-2.34321 2.31668,-2.39142 0.37537,-6.35961 -1.27267,-6.64012 -1.68781,-2.86358 -2.52095,-2.19487 -2.5976,-4.61918 -2.12448,-3.7014 0.61021,-2.42394 2.31496,-3.28348 3.70865,-2.95567 1.31287,-0.5606 3.72687,1.10286 -0.65787,1.3357 0.72835,2.5154 1.53939,-0.20346 0.9484,-3.65486 2.93924,-0.52854 3.88191,-1.7224 1.57139,-1.70298 0.96047,1.11155 1.698,-1.52093 3.1303,-0.39217 3.86353,-2.86497 3.82018,-3.12048 2.57952,-4.00106 2.24993,-4.35393 2.0283,-3.55304 1.55216,-0.29329 0.70553,-2.57652 0.4269,-2.62748 -1.63498,-0.99572 -0.66462,-1.70361 1.7435,-0.86866 0.0451,-2.35025 -1.88648,-2.41065 -1.69068,-2.84912 -1.09123,-3.02481 -2.98977,-1.6746 1.42598,-2.11674 2.70124,-1.50577 1.29765,-1.60984 3.93287,-0.82837 -0.45016,-1.54562 -1.79633,-0.0783 -2.46611,-1.14121 -3.11294,2.09771 -2.19768,-0.86049 -0.093,-1.31584 -2.27347,-0.47922 -1.46388,-1.9626 1.41679,-1.34368 2.72421,-0.13788 1.7115,-1.84339 3.13618,-1.96567 2.42148,-0.99015 1.46732,1.47153 -2.19955,1.90469 0.58121,1.11199 -1.47622,1.33132 2.99121,-0.78535 2.04495,-1.33742 3.88348,-0.8274 1.31072,0.76307 1.6212,0.31092 0.18187,0.46726 -0.70481,1.54996 0.24748,0.52767 -0.65543,0.33973 -0.76065,1.27877 0.74687,0.4654 0.71959,0.26768 0.0979,0.55091 0.81419,-0.24325 0.33518,-0.54961 1.34904,0.55665 1.90385,2.52049 -2.06319,0.49947 1.22732,3.11087 -0.51475,2.26671 0.31063,1.65878 2.50214,-0.26157 2.22037,-1.26302 2.51535,-0.58293 1.04702,-1.66028 -0.0218,-3.44276 -0.68758,-1.91458 -2.39779,-3.44236 -1.57326,-1.26558 -1.1053,-0.46707 0.32412,-0.31672 0.087,-1.23651 1.2055,-0.76318 1.84987,-0.46579 1.04731,-0.83449 0.49365,-0.49617 1.43632,-0.61993 -0.10507,-2.00034 0.8294,-0.93989 1.20579,-0.93044 1.05545,0.16448 2e-5,3e-5 1e-5,-2e-5 10e-6,0 -10e-6,-10e-6 0.43296,-0.91022 3.72833,-1.9849 1.745,1.31573 1.75167,-0.0353 3.70144,-1.58659 1.79434,-1.5821 3.74158,-3.04628 3.77053,-3.01068 0.93058,-1.75845 4.1867,-3.6053 1.25319,-3.86553 0.23428,-2.80466 2.17169,-2.29139 -0.0942,-1.91109 -4.01055,-2.41557 -3.04689,-0.14046 -1.77759,1.08736 -2.698,-0.48552 -1.36586,-1.35376 -4.37644,-0.26997 10.64525,-4.89575 8.99816,-3.82394 9.13723,-0.56229 8.4933,0.3255 3.44139,-0.92589 4.31789,0.28462 -0.20117,1.37357 4.29478,-0.19736 6.19972,-0.49785 -2.29358,-1.15438 6.95172,-3.04792 7.17122,-0.59804 2.27545,2.19698 7.04564,-1.96621 1.66808,-1.42979 3.37536,-0.1442 -2.23294,2.46353 -4.99347,1.44431 -4.78167,1.91395 -4.96197,2.42351 -4.31661,0.43976 -0.145,0.92749 -2.3437,1.20166 -1.33544,2.86676 1.55044,4.8057 1.18939,3.29464 1.02719,1.59347 4.00387,-2.14906 0.83266,-2.29327 4.14109,-0.5426 0.964,-2.49905 4.85755,-1.09594 -1.15564,-0.91302 1.18922,-1.74571 2.57878,-0.0765 0.37214,-2.94541 -3.16372,-0.44316 -0.099,-0.79232 3.33272,-1.86058 0.89495,-1.23486 3.71513,0.25544 2.67573,-0.79463 1.26383,0.6884 7.23744,-1.44572 3.97331,1.27224 1.02125,-0.83873 4.03194,-1.11453 4.25037,-1.2496 2.46988,-0.20456 7.76392,-1.30261 5.17764,0.37357 0.71697,-0.45389 -0.32228,-0.70092 -1.28358,-0.45107 -1.65347,-1.35383 -2.50478,-0.85361 3.59978,0.11653 3.57115,-0.69408 0.02,-0.008 0,-5.77091 -3.8889,-0.57438 -7.9888,-0.61502 -5.77812,0.0763 -8.86238,-0.3549 -1.23681,0.56614 2.24633,0.83544 -3.44236,0.42733 -4.83878,-1.17238 -5.26472,0.1434 -5.24414,-0.2537 -4.92614,0.0337 -3.71816,0.2651 -3.42186,-0.3679 0.33791,-0.92242 -2.31255,-0.50716 -5.53031,-0.1991 -11.21661,0.22886 -7.27144,-0.911 -2.36439,-0.68287 -25.08842,-0.72228 -3.66739,0.47894 2.00534,1.06525 -4.54373,-0.16427 -2.04594,0.32974 -5.37672,-0.36149 -4.73409,0.31558 -4.456,-0.52562 -2.68033,1.24524 -4.36831,-0.48986 -3.48886,-0.92066 1.64325,-0.47435 -1.27864,-0.70413 -4.48561,-0.56059 -4.43455,0.006 -5.89509,-0.18252 -0.15863,0.81041 -11.61295,-0.16069 -0.67686,-0.49623 -8.91253,-0.17196 -4.44169,0.16447 -1.22009,0.27388 -1.41677,-0.66899 -2.50098,0.19452 -4.10886,-0.25887 -3.44444,-0.14197 2.0868,-0.29687 7.29981,-0.54065 3.07281,-0.28035 0.69105,-0.47922 -2.22961,-0.33482 -6.26181,-0.42276 -8.12072,-0.0114 -2.53833,0.20885 -0.74964,-0.42023 -6.29203,-0.12715 3.78234,-0.20147 -4.764,-0.25902 -6.55767,0.32916 -2.65422,0.35263 -0.7657,0.36921 -5.10314,-0.0144 -6.23425,0.4701 -2.2728,-0.20078 -7.29386,0.0826 -0.92675,0.24693 -7.33495,0.12192 -5.4008,0.46337 -3.19136,0.0261 -3.21462,0.63824 2.25762,0.52726 -6.01956,0.13475 -6.68128,-0.0455 -4.8303,0.20916 0.27672,1.146 2.47025,0.94466 -5.13328,-0.65126 -5.76492,0.0596 -4.64866,0.44827 1.26661,0.84689 -2.97258,-0.21756 1.09591,-1.11523 -1.45972,-0.6148 -1.38542,0.0248 0.64323,0.79297 -4.97145,0.78035 3.6075,0.98126 -2.21647,1.26404 0.66803,0.72645 3.03744,0.10905 -1.29605,0.88983 1.61872,0.78725 -2.40414,0.67428 -0.73756,0.715 -3.05616,0.37679 -1.10489,0.53481 -3.17503,-0.2198 5.44083,-2.05293 1.19214,-0.92314 -3.06436,-0.82411 0.63106,-1.76021 -0.89381,-0.85399 -1.72778,-0.37953 2.63311,-0.93752 -0.57913,-0.61955 -7.35428,-0.28706 -2.06567,0.21364 -1.82305,1.01843 -5.12612,1.06519 0.0841,0.38852 1.48567,0.97313 -0.91578,0.60945 3.34761,0.12783 0.0812,0.27835 2.82289,0.7056 -1.857,0.71493 -10.0668,-1.53958 -3.84476,-0.40746 -8.20556,-0.38886 -1.44444,0.42433 2.91067,0.76085 -3.15673,0.89457 -3.16505,-0.81479 -4.12495,0.55838 -5.2065,0.0376 -1.99,0.46851 -3.44572,-0.14377 2.73859,-0.82355 -2.09523,-0.0658 -9.6938,1.16933 -5.8025,0.66765 -0.67945,0.9153 -4.29169,0.31675 -2.18647,-0.49876 -0.019,-0.79574 3.51714,-0.17402 -1.58706,-0.77801 -7.76994,-0.43717 2.04203,0.85089 -1.35989,0.84224 2.3163,0.86073 -1.61808,1.01853 -2.59364,-0.52146 -2.56375,-0.0853 -6.47358,1.47617 1.86944,1.14072 -2.3393,0.3865 -6.71503,-0.98038 -1.76795,0.59388 1.67331,0.68398 -0.359,0.78465 -2.17067,-0.42183 -3.57605,-0.49042 -0.18149,-1.60389 -0.17724,-0.70797 -4.52869,-1.09174 2.03964,-0.1862 12.40067,1.12794 4.53577,-0.3996 3.08367,-0.77503 -0.18356,-0.95822 -2.13202,-0.66809 -10.4955,-1.53538 -7.60692,-0.31327 -4.56319,-0.78031 -2.86567,0.44628 -1.1e-4,10e-6 -3.04335,-0.80059 3.57773,-0.33368 -8.68853,-0.89033 -4.98749,0.23917 -5.0653,-0.0533 -4.23,1.01832 -4.57035,-0.0665 -6.09552,0.55351 -7.63362,1.65029 -4.65217,1.03569 -6.67444,2.81197 -5.0851,2.16648 -5.48417,1.67738 -7.33475,1.40996 -2.55784,1.10809 0.87822,4.16737 0.99333,2.04323 3.84143,0.9902 3.70347,-0.45753 5.48488,-2.21303 1.86337,1.16503 2.1127,2.76423 2.32544,2.29665 0.88281,1.96625 3.21614,-0.0969 1.57211,-1.65088 3.36974,0.19925 1.57756,-1.91136 1.05966,-3.30562 2.889,-0.44836 2.55138,-2.1195 -2.6566,-1.01599 -1.9772,-1.26558 2.02284,-2.44491 5.36416,-1.43739 4.41877,-1.30488 -0.43365,-0.96862 2.69349,-1.07678 4.77834,-0.42885 3.86296,0.7183 0.28896,0.65397 -1.85432,0.32718 -6.35491,1.7381 -2.51866,1.0378 -1.32449,0.98257 1.34904,1.56042 -0.61839,1.75706 2.69033,0.59763 1.60814,1.00662 4.51925,-0.3912 4.88486,-0.67402 5.04118,-0.14526 10e-6,0 2.91027,0.87341 -3.15715,1.03114 -3e-5,-3e-5 -2.86661,0.0557 -3.01374,-0.31044 -3.49993,0.2727 -3.51228,0.52642 0.24102,1.09904 1.76288,0.68899 1.02147,-0.24515 -0.3224,1.15508 -0.5337,1.53156 -2.22855,0.0392 -2.20586,-1.49169 -2.61799,0.67805 -1.36512,1.26345 -0.0962,1.54262 0.59069,1.75842 -3.83324,0.68848 -0.63289,0.94311 -2.67885,-0.0272 -0.20943,-0.52376 -2.7723,-0.36095 -3.49821,0.72451 -4.33493,0.99992 -1.89782,0.64081 -1.31172,-0.69473 -3.13618,-0.85395 -1.56164,0.59146 -2.8244,0.40781 0.0296,-0.76918 -2.80704,-0.50145 -0.0491,-0.82527 -0.75534,-1.02849 2.00002,-1.49774 0.82726,0.22418 0.67883,-0.77583 -1.50609,-0.30913 -0.33331,-0.56867 0.82252,-0.65609 0.0942,-1.02418 -2.23458,0.55996 -0.97525,0.55184 -2.44731,0.12472 -0.79682,0.60587 -0.46279,0.5493 0.0843,2.11564 1.12755,1.1719 0.12747,1.21433 0.63505,0.81197 -1.8862,1.07905 -0.51518,-0.4842 -2.32171,0.11914 -0.54246,0.46557 -2.30821,-0.0622 -3.80051,0.92652 -2.43253,3.32795 -1.43132,0.63374 -1.2e-4,-10e-6 -2.2261,0.45736 -2.42937,0.47011 -0.834,1.92893 -6.4673,1.86657 -2.6223,-1.03051 0.88051,2.73871 -4.66473,-0.62797 -3.60149,0.53076 0.27999,1.79593 4.24522,0.95759 2.04875,1.27041 2.86647,2.67353 -0.52897,5.21571 -1.43646,1.60546 -4.48939,-0.089 -2.30642,0.14108 -2.95568,-0.45893 -3.72946,0.017 -3.39916,-0.48346 -3.9297,1.94253 1.13458,1.1788 -0.13996,1.95295 0.1223,0.93205 0.55538,0.99827 0.0616,1.18481 -0.57963,1.69455 -0.19709,1.14755 -1.10746,1.03638 -0.22106,1.88252 0.66419,1.09765 1.24296,0.26806 0.26082,1.79562 -0.42432,2.30671 1.43345,-0.32591 1.46445,0.41642 1.11636,-0.76796 2.59315,0.45799 0.78749,1.70917 1.02851,1.00979 1.35908,0.24863 1.06095,-1.13024 1.73977,-1.05134 2.64756,0.0563 3.52591,-0.0453 1.96686,-2.27263 2.09721,-0.58524 0.60073,-1.89794 1.60671,-1.2929 -1.08334,-1.64428 1.07056,-2.31888 1.70734,-1.56362 0.24776,-0.94254 3.55921,-0.5897 2.63234,-1.84582 -0.14857,-1.59424 0.31781,-1.63713 4.04598,-0.87544 5.47856,0.73025 2.5165,-1.52001 1.15439,-0.19618 1.60499,-1.23643 1.27885,-0.35814 2.25984,0.87636 1.38205,0.30989 0.86644,2.65902 1.88878,1.56934 2.54104,1.79065 2.17056,1.25268 2.05528,0.18053 1.20191,1.12372 1.78499,0.51051 0.82008,1.21753 1.1531,0.35292 0.84778,1.43501 1.08478,1.66204 -0.60376,0.61606 -0.56672,1.555 -0.0108,0.89158 1.15798,-0.22504 1.48369,-2.48892 1.16042,-0.17099 0.32958,-1.4985 -2.00763,-1.05773 1.16904,-1.83199 2.41329,0.46443 1.54168,1.32382 0.51906,-1.01613 -0.28767,-0.52783 -2.38199,-1.46621 -2.03936,-0.84508 -2.48793,-1.00487 0.77931,-0.55139 -0.67696,-0.60976 -2.17673,0.017 -3.09097,-2.20552 -1.39698,-2.23296 -2.60464,-1.34543 -0.91051,-1.34846 0.34006,-0.74944 -0.15359,-1.29701 2.2584,-0.92037 2.21118,0.37707 -0.61825,0.23524 -0.0991,0.042 -0.0623,0.90438 0.82022,0.8773 0.85137,-1.1301 1.78571,0.41193 0.052,0.88551 1.26651,1.11046 -0.56055,0.19814 2.33592,1.96491 2.54061,0.80036 1.61102,0.97467 2.61123,1.00768 1e-5,0 1.20034,0.54302 0.77867,0.89695 0.58141,0.21351 0,0 0.46738,0.43504 -0.3791,0.86022 -0.2347,1.90529 0.24173,1.34207 1.53867,0.95148 0.0556,0.626 0.47227,0.19957 0.18804,0.81402 1.42311,1.64007 1.08334,1.33161 0.48605,1.9424 1.04171,2.35867 2.27778,1.29292 1.84499,-0.0373 -1.05348,-2.61501 1.76389,-0.30906 -0.81936,-1.49529 2.56947,0.77564 -0.0416,-1.65032 -1.37502,-0.84218 -1.547,-1.33147 1.04703,-0.62994 -1.38967,-1.34265 -0.62069,-1.69555 0.52136,-0.61926 1.46948,1.45649 1.54713,-0.003 1.4112,-0.46213 -1.92552,-1.58537 3.36399,-0.72858 1.44952,0.2646 1.69241,0.0796 -0.0378,0.57928 0.87405,1.31397 2.31769,-1.51856 1.18511,-0.86647 3.29839,-0.15406 0.50557,-0.6829 -2.42477,-0.89637 -0.33001,-1.06129 -0.89673,-1.56308 1.01444,-1.93951 1.44162,-1.11301 0.77716,-3.19721 0.84376,0.24586 1.34703,-0.56425 -0.0646,-0.67352 2.15089,-1.91311 1.03094,-1.40891 2.57378,-0.31312 0.1912,0.95034 4.31785,0.64784 0.80443,0.58961 -2.65933,0.86001 -0.49064,0.49837 3.03542,0.76412 -0.61251,1.23489 1.5447,0.53766 3.7708,-1.52429 3.04087,-0.45344 0.54246,-0.92959 -2.83331,0.15591 -1.35894,-0.62587 -0.16235,-1.60131 2.39261,-0.95106 2.60048,-0.13402 1.848,-0.81932 2.21779,-0.20176 2.4935,-0.40571 0.0735,0.5506 -4.09431,1.03409 1.55342,1.00996 -2.30495,2.15866 -2.02141,0.41618 2.39905,1.53987 3.16911,0.997 3.54169,2.25665 z m -26.20342,176.47201 0.1252,-0.6182 -0.80414,-0.978 -0.36202,-2.016 -1.69585,-2.0036 -0.95372,-2.6359 0.49667,-1.5533 -0.75075,-2.0741 0.49811,-5.9039 0.0125,0.043 1.01963,3.5212 -0.0136,0.1641 -0.13224,1.594 0.53298,0.5331 -0.0932,1.5712 0.53557,1.4525 -0.63662,1.411 2.23888,2.4968 0.21144,2.2751 1.3975,3.7474 0,0 0.22715,0.6082 -0.46365,0.2073 -0.60031,-0.7623 -0.94884,-0.2936 0.15931,-0.7861 z m 9.36742,-30.7948 0.67277,1.4041 -0.17671,2.7424 0,0 -1.37,1.6521 -0.91022,1.6732 1.09841,1.2692 -1.5846,0.9111 -0.34709,-0.4317 -1.60743,0.2201 -1.24038,0.8309 -0.77371,-1.4256 0.52222,-2.5907 0.0838,-2.2288 -10e-6,0 -0.14181,-1.433 1.27138,-2.16401 1.75915,-0.5292 1.18253,-0.88232 1.44034,0.72901 0.12133,0.25322 z m 55.63209,-128.07529 -0.26614,0.69107 -4.33823,0.78441 -3.94909,-0.51135 -1.9294,-1.48171 -2.63377,-0.61226 -0.87879,-2.15346 -0.0742,-1.43413 1.0186,-0.67339 0.47786,-1.00497 0.48318,-2.21024 2.28783,-0.22755 -0.85553,-0.7605 -1.29421,-0.13161 -1.41292,-1.98499 -1.46086,-1.45966 4e-5,-3e-5 -3.03291,-3.22109 0.27339,-1.8149 -2.52481,-2.52268 2.76083,-2.69752 2.69306,-0.42611 1.26597,-1.52293 2.59145,-0.53448 3.21629,-1.11423 2.36132,0.61734 2.77977,-0.12257 0.4948,1.57521 -0.49997,2.52145 -2.42635,-0.38883 -2.36248,0.42286 -0.10665,1.91878 -2.70239,-0.25064 0.093,0.86149 1.53379,0.6722 1.25315,2.4094 3.21945,0.92336 0.52968,0.94956 -0.68271,1.14279 0.1559,0.67213 0.8673,1.79846 0.2835,-2.03251 2.23601,-0.70211 0.79611,1.57833 2.0237,1.67126 -2.44085,0.89725 -2.61913,-0.68875 -0.61466,2.37542 1.84398,0.16552 -0.71328,1.95306 2.1664,0.97258 -0.40394,3.0347 0.51691,2.07657 z m -52.74657,170.53109 -0.66375,3.4149 0.43217,4.1337 0.0503,0.4797 0.52337,0.1504 0.56729,1.9209 -0.0666,0.4443 -0.98616,-1.3977 -0.48519,0.8979 -0.44384,-0.7697 0.0121,-1.3506 -0.63935,-1.054 0.0251,-1.5681 -0.82625,-2.6606 0.80601,-2.0132 -0.17441,-4.3816 -0.98142,-2.3548 0.0895,-0.4046 0,0 0.15772,-0.7137 1.46848,1.9516 0.2324,3.8244 0.91424,1.3909 -0.0116,0.06 z m -287.51217,125.6672 1.17098,0.1144 -1.8488,-1.3182 -0.89716,-2.4075 1.13832,-1.1033 2.53516,-0.938 1.8053,-2.8323 3.28081,-1.3865 0.95572,-2.2369 -2.65566,-0.5095 -2.73189,-1.8608 0.79653,-1.9319 2.1773,-1.3346 2.62416,-0.01 0.6568,-1.4079 0.40838,-2.6802 2.23056,-1.6793 2.55762,-0.8446 -0.82747,-1.4229 -1.52072,0.8651 -1.87542,-0.8258 -0.38743,-2.7537 1.07207,-0.7321 2.6711,1.018 2.84636,-0.3852 1.66614,-0.9858 -0.5126,-1.4219 0.5688,-2.1298 -0.58388,-1.7135 3.05142,0.2904 5.57108,-0.6008 4.11861,-1.5557 2.66909,-3.7656 0.14111,-1.4512 -1.73575,-1.3024 0.37924,-2.0752 -3.5267,-2.603 0.18991,-1.5997 1.69226,1.6945 1.88382,-0.098 2.56775,1.3083 1.50335,-0.3259 2.05062,0.6078 3.13734,-1.693 1.20212,-1.9277 1.83767,-1.7663 1.26672,-2.9639 1.88848,-1.4688 2.44265,-2.5081 3.08207,-5.639 1.94131,-1.7837 0.63038,-1.5893 0.51885,-3.3133 -0.46186,-1.824 0.40429,-2.4802 2.35135,-3.3188 3.26911,-2.6837 3.11099,-0.9889 1.95646,-1.5102 4.36975,-1.3085 3.01783,0.01 0.65033,-2.0484 2.24836,-1.4866 0.47226,-3.5609 2.81644,-4.5358 0.4925,-4.6833 0.87829,-1.3892 0.29513,-2.3285 0.77443,-5.4752 -0.19716,-6.7112 0.77608,-2.6504 0.69447,-0.071 2.05629,-3.1334 1.7697,-4.1013 3.91543,-5.0696 1.4132,-2.3861 1.10617,-6.0605 -0.46122,-2.224 -0.94266,-4.6889 -1.00669,-1.1633 -2.37539,-0.1479 -2.13976,-1.0644 -3.54759,-4.1377 -4.10634,-3.0601 -4.14997,0.1441 -5.40593,-1.9568 -3.23,1.1404 0.45547,-2.0484 -1.35578,-2.1693 -4.61356,-2.2613 -3.49548,-1.3311 -2.10983,2.43 -0.1002,-3.71188 -4.91012,-0.58165 -0.864,-1.1164 2.0893,-3.04869 -0.0749,-2.55588 -1.48555,-0.6111 -1.55805,-6.46931 -0.68715,-2.04367 -0.94625,0.17456 -0.45985,-1.5124 -2.94111,-3.11437 -2.04531,-0.87251 -0.94331,-0.40546 -2.98668,-0.99009 -2.24592,0.26583 -0.29871,0.66409 -3.32811,-0.73786 -1.09662,-1.28191 -1.48856,-1.79491 -1.0466,-0.0871 -0.078,-1.89246 -1.71867,-2.39138 -1.8239,-1.34847 -1.08836,-0.86349 -1.44766,0.0827 -0.44262,-2.93088 -2.10603,-1.79556 -2.22151,-0.27413 -0.94891,-1.72084 2.35881,-1.07535 -3.32882,0.0506 -3.44079,0.2195 -0.0319,0.917 -1.55826,1.13857 -2.1244,-0.45057 -1.59063,-1.63124 -2.96773,0.37409 -2.49411,-0.032 -0.10873,-1.20486 -1.8048,-2.02624 -1.94806,-0.0589 -0.99707,-2.54746 -0.97389,1.1429 0.38485,1.70998 -3.45923,1.47707 0.14038,2.75605 0.86135,1.28354 -0.62378,2.64031 -1.19746,0.23745 -1.05147,-2.89841 1.22531,-2.11755 0.0339,-1.90318 -0.90606,-1.64883 1.63068,-0.42361 0.079,-0.8571 0.53923,-1.22002 -0.72878,-0.95213 -0.98408,-0.2216 -1.34473,1.74399 -1.08234,0.81044 -2.18591,1.83279 -2.1735,-0.30314 -0.22091,0.75727 -1.7504,0.069 -1.59314,1.68799 -0.51188,3.08013 -0.0275,1.20782 -1.14385,0.3889 -2.08414,2.55369 -1.43524,-0.11628 -1.04487,-1.0114 -0.9067,-1.10038 -1.236,-0.63126 -1.54879,-0.12461 0.1035,-0.35932 -1.53364,-0.2143 -0.94805,1.09178 -1.68695,0.73737 -1.18167,0.92396 -1.36662,0.2645 -0.76352,-0.8991 -0.26226,0.29756 -1.10839,-0.16448 0.0568,-0.77484 -0.99743,-1.31067 -1.30411,-1.55794 -1.07401,-1.46704 -0.70359,-1.97754 -0.4259,-0.59722 -0.12926,-0.9818 0.56837,-0.9281 -0.19099,-0.95758 0.25974,-1.54893 0.4244,-0.3554 -0.07,-1.62698 -0.14914,-0.93021 0.0899,-1.58793 0.29814,-1.44746 0.63993,-1.22335 -0.28343,-1.31213 0.14146,-0.79944 0.23893,-0.34339 -0.731,-0.98346 -1.00999,-0.54706 -0.803,-0.79993 -0.84778,-0.66631 -0.4409,-0.0786 -1.26872,-0.49398 -0.55201,0.30898 -0.72655,0.0834 -0.66476,-0.24185 -0.88511,-0.18427 -0.32577,0.39869 -0.89365,0.39413 -1.28401,0.0931 -1.29048,-0.32155 -0.43099,0.17696 -0.25767,-0.29046 -0.79481,0.0511 -0.60928,0.62659 -0.28853,-0.13929 -0.81484,-0.45499 -0.2395,0.53108 -0.90563,-0.64467 0.5505,-1.23275 0.50169,-0.11319 0.54554,-0.94264 0.32198,-1.79173 -0.17534,-0.33855 0.29104,-1.2651 -0.24303,-0.54613 0.44966,-1.52476 0.0463,-0.95693 -0.52645,-0.0162 -0.0103,-0.51551 0.58157,-0.0585 0.70409,0.90266 0.6962,-2.73827 0.41614,-1.51144 -0.51196,-0.60778 0.66046,-2.11966 1.49273,-2.06156 0.0942,-1.66438 -0.66641,-0.73096 -1.68479,0.29186 -2.45958,-0.12004 -2.93738,0.79996 -1.88138,0.90468 -0.48016,1.01179 -0.22809,2.91844 -0.66189,2.03549 -1.76676,1.42822 -1.74846,0.60138 -2.07991,0.63084 -2.11815,0.35481 -2.43633,0.9828 -1.14815,-1.47061 -2.94951,-0.93077 -1.08678,-1.72339 -0.64847,-1.99066 -1.84377,-2.58675 -0.55452,-2.68131 -0.86134,-1.6787 -0.48146,-1.87105 0.26757,-1.6688 0.20305,-4.54688 0.48576,-2.42332 1.07795,-2.93624 -1.08331,0.1 1.08334,-0.1 -0.52778,-1.13142 -0.13889,-1.59168 0.0278,-2.2763 0.63889,-1.47693 1.51655,-1.56044 2.7605,-1.40304 2.5285,-2.39898 2.33772,-0.75239 1.72792,-0.22548 2.02031,0.74485 2.42298,-0.40152 2.07378,1.70498 2.01554,0.10063 1.04264,-0.61326 1.0307,0.47681 0.52933,-0.42494 -0.58981,-0.63754 0.0452,-1.30482 -0.50026,-0.85233 1.14817,-0.49912 2.11852,-0.22028 2.46517,0.35347 3.13989,-0.40171 1.74139,0.79128 1.34794,1.49748 0.49728,0.16082 2.80228,-1.45772 1.08447,0.49209 2.16553,2.69618 0.77778,1.78463 -0.57017,2.16619 0.41697,1.28295 1.29209,2.5221 1.47222,2.85544 1.05555,0.76723 0.43853,1.46763 1.36703,0.40657 0.83047,-0.42299 0.69297,-2.04102 0.12096,-1.29477 0.0874,-2.23395 -1.31516,-3.81218 -0.0155,-1.40977 -1.23448,-2.29686 -0.92698,-2.75484 -0.49086,-2.21886 0.42814,-2.25358 1.3092,-1.86728 1.5657,-1.49081 3.04932,-2.0198 0.39695,-1.03844 1.40644,-1.13231 1.3872,-0.19719 1.8259,-1.79631 2.87349,-0.90336 1.7658,-2.24679 -0.39042,-2.99591 -0.28822,-1.02716 -0.79705,-0.2047 -0.11911,-2.7981 -1.91217,-0.9389 1.83519,0.45643 -0.59276,-1.84124 0.53535,-1.24571 0.32536,2.40019 1.41894,1.11342 -0.85894,1.99679 0.25289,0.11709 1.56322,-2.34295 0.89094,-1.13092 -0.0419,-1.09398 -0.68935,-0.51318 -0.57792,-1.54493 0.9112,0.7159 0.61002,0.14935 0.20659,0.73861 2.02127,-2.20529 0.59984,-2.0361 -0.81742,-0.12931 0.84551,-0.77949 -0.0824,0.34473 1.76945,-0.006 3.88889,-0.84136 -0.82295,-0.52944 -4.07983,0.52635 2.31547,-0.80841 1.61509,-0.13743 1.20833,-0.13914 2.05447,-0.4846 1.33442,0.054 1.87491,-0.44946 0.22239,-0.78896 -0.83341,-0.61117 0.29166,1.00521 -1.15277,-0.069 -0.91667,-1.45715 0.0281,-1.44574 0.4706,-0.60952 1.47029,-1.59829 2.93381,-0.7907 2.85411,-0.91732 2.96628,-1.2784 -0.47987,-0.85896 3.08712,-0.31782 4.446,-0.0853 -4.82289,2.1702 0.10647,2.25352 2.10928,0.19703 3.10416,-1.92208 2.75514,-1.06943 6.15231,-1.55942 3.43614,-1.69793 -1.7937,-0.93026 -0.19319,-1.84414 -2.78492,2.86881 -4.59047,0.37369 -3.60806,-1.2853 -0.90652,-1.91941 -0.88031,-2.69537 2.6235,-1.65131 -2.45908,-1.19164 -4.15603,0.24131 -5.82658,2.03579 -4.45895,3.27868 -2.35933,0.41588 3.19711,-2.31944 4.00689,-3.25392 3.54119,-1.07062 2.32572,-1.71253 2.87706,-0.16391 4.16889,0.0171 5.94125,0.49927 4.69603,-0.38511 3.49519,-1.92908 4.57753,-0.82409 1.99375,-0.80753 2.01605,-0.85802 -0.20261,-2.52155 -1.11608,-0.83164 -2.16328,-0.29115 -1.10086,-1.83309 -1.783,-0.68126 -4.42928,-0.54829 -2.49697,-1.19901 -3.6948,-1.16629 1.11697,-1.27855 -3.0717,-2.38282 -3.61775,-2.44685 -2.16325,-1.65919 -1.83791,0.85818 -2.65725,2.08522 -4.02217,1.07482 -2.01331,-1.1396 -2.53708,-0.29919 -0.92342,-2.36949 0.0831,-1.52558 -4.95353,-0.13561 -0.84275,-0.68973 -3.42069,-1.01411 -2.58709,-0.58366 -2.30089,0.45207 -2.85558,-0.16789 -4.76239,-0.46673 -1.93389,0.39572 0.9282,2.75651 1.211,1.66091 -3.27811,1.98003 3.37394,1.45916 1.88631,1.68451 0.22727,1.35304 -1.53952,1.43622 -3.14762,1.47095 -4.44677,0.99818 1.95936,1.13451 1.45083,3.49147 -1.50305,2.34187 -2.13856,0.75262 -4.13294,-2.18025 -2.01187,-2.51078 -0.86438,-2.19993 0.45375,-1.85282 -3.02139,-0.20414 -4.58684,-0.12176 -2.94277,-0.88335 -3.48056,-0.57224 -1.98769,-0.97257 -2.77709,-0.77369 -5.16155,-0.87175 -3.88706,0.39658 -1.29886,-1.51104 -1.25111,-1.82169 -4.08217,-0.31923 0.15359,-2.1812 1.07716,-1.43774 3.01264,-1.99242 3.39878,-1.38916 3.23161,-0.21114 0.1835,-1.08218 2.19317,-0.69044 3.97633,-0.10729 3.22144,-1.0814 0.81059,-0.68469 2.6773,-1.2885 0.82825,-0.74723 2.87225,0.44622 3.8635,-0.2293 5.43898,-1.02183 0.35347,-0.6936 -1.95856,-0.74713 2.06711,-0.72692 -0.1673,-0.66138 -3.7282,-0.64635 -4.10619,-0.18877 -3.94767,-0.0979 -0.15186,1.43464 -2.02619,1.1792 -2.90028,1.02177 -2.687,-0.95477 0.8273,-1.01818 -3.3208,-0.85676 -3.71211,1.04654 0.0122,-1.35821 -5.16617,-0.2612 2.46467,-0.62399 -3.77372,-1.37628 -2.81053,-0.51773 -3.66342,-0.18513 -3.2843,0.85028 -0.22267,1.3566 3.2423,0.51458 2.97573,0.80445 -1.25606,1.36044 -2.23453,-0.0372 -1.76791,1.12092 0.0166,-1.32574 -4.30436,-0.46236 -2.46978,0.23723 0.32056,0.85992 -4.05209,-0.0336 -4.31216,0.22288 -4.90784,-0.62898 -3.10211,0.11037 -2.79141,-0.74424 -2.24217,-0.32153 -2.22222,0.13424 -3.38114,0.0621 -1.79384,0.46497 2.835,0.58613 -3.02169,0.71299 -2.96108,-0.84334 -2.36614,0.24381 -7.49797,0.16546 -5.02117,-0.30018 3.90819,-0.68408 -3.74711,-0.68357 -2.72091,0.086 -3.82292,-0.22609 -6.50056,-0.48225 -4.24827,-0.54243 -3.36456,-0.0738 -1.04883,0.37479 -3.41278,0.21294 -0.37542,-0.97126 -3.69858,0.86605 -4.69667,-1.13966 -1.91958,-0.13228 -0.62053,0.5895 -2.07269,0.29737 -1.90828,-0.5253 -4.54625,0.3146 -4.16081,0.56364 -4.12608,-0.15787 -3.36422,0.40563 -2.43839,0.5509 -2.89661,-0.12239 -4.37267,-0.63173 -5.18185,-0.31123 -4e-5,0 -3.01808,-0.17912 -4.21371,-0.38071 -3.696016,0.20517 -2.13883,-0.16426 -5.342699,-0.11815 -5.851782,-0.39311 -2.833304,0.12374 -4.250028,-0.21 0.166657,-0.28133 -4.694445,-0.0729 -1.233775,0.23586 -2.01007,-0.54641 -4.202873,-0.24995 -4.274717,0.63977 -2.554036,-0.0813 -5.265613,0.54428 -2.705836,0.14215 -2.837969,0.59927 -0.661243,0.62822 -3.506102,0.60074 -4.927492,0.0433 -1.554814,0.70768 3.817094,0.43477 2.664709,0.596 1.975762,0.71257 3.416674,0.5528 2.255389,0.91754 -5.863409,0.0584 0.378028,-0.74273 -2.283883,0 -6.196005,0.72605 -3.90358,0.63315 3.515433,0.89663 1.165878,0.63222 4.06794,0.38131 3.928988,-0.17891 2.190578,0.35233 0.846489,-0.35278 2.947566,-0.34512 1.705968,-0.0179 -2.056363,0.61302 1.554815,0.28896 0.51619,0.74162 -2.116509,0.51079 -2.01696,-0.14232 -2.240747,0.80289 -1.905856,-0.26773 -2.24771,0.12209 -0.990752,0.86635 -2.264647,0.95908 -1.074798,1.00672 2.140409,0.75822 0.01234,1.02371 1.900472,0.43925 2.344101,0.86845 3.611895,-0.35608 1.788579,0.6632 -0.502266,0.69032 0.239147,1.1365 1.70525,0.002 2.777034,-0.76642 1.03884,0.95597 0.748949,-0.68944 1.814059,0.97656 1.503855,-0.7015 0.895797,0.3309 3.202934,-0.58205 -1.412776,1.13881 -0.479156,1.49044 -2.050908,0.70467 -0.620404,0.40267 -3.850325,1.21667 -1.369569,0.84446 -3.446029,0.23447 -2.960629,1.14383 -2.717606,0.65243 -3.038574,0.99731 0.435159,0.36154 4.767007,-0.61347 2.310224,-0.71302 2.818662,-0.71993 2.592578,-0.5849 1.906645,0.16087 3.250017,-0.89034 0.878069,-0.96651 4.336442,-1.0494 0.688229,-0.88834 2.780121,-0.60574 2.986108,-0.82297 2.624947,-1.38992 -2.032391,-0.92331 4.00234,-1.32905 1.895807,-1.21776 3.540913,-1.00036 0.761581,0.44814 -2.95216,0.55475 -1.249206,1.80337 0.397335,1.10912 3.078192,-0.40206 2.445516,-0.63363 3.213987,-0.38835 1.535436,-0.119 -0.572891,-1.27372 3.083145,-0.38271 3.30227,0.7729 5.462984,0.8449 3.84566,-0.1577 4.8588,0.66285 2.65969,0.3553 5.74384,1.97848 3.25539,0.55919 4.41626,0.0478 2.66708,0.12633 1.49689,1.87112 3.58103,1.64154 0.78555,1.80952 2.44832,0.67166 1.52696,0.79927 1e-5,-1e-5 0.0587,1.10681 3.36039,1.5833 0.48733,1.79038 3.55408,0.95904 -0.39566,1.39884 1.54763,2.05109 5.03056,0.97288 1.98436,1.02416 5.37786,2.36241 0.37281,0.006 0.94444,2.00881 0.44445,2.0412 -0.68711,0.66399 -1.47956,-2.35897 -4.01695,-0.83847 -0.33641,0.4813 0.80983,1.15163 0.87788,2.14885 0.50196,3.4388 -0.3378,2.37379 -0.33779,2.41118 -1.08528,2.54276 0.8865,2.09654 0.0968,2.37634 -0.60891,2.32626 1.48027,1.54879 0.38325,2.3348 2.15003,2.42771 1.2255,0.96474 -0.0985,0.67908 2.31361,4.11981 2.69511,3.02327 0.33742,1.66589 0.70856,0.4926 2.58038,0.30143 0.994,0.82841 1.55863,0.1541 0.30359,0.88204 1.29612,0.36883 1.80017,1.7793 0.46716,1.59065 1.12843,2.82289 1.2866,2.53114 1.03051,2.0922 1.0242,2.0055 1.63003,0.89326 2.1384,2.31255 -0.10364,1.47051 -1.03066,1.22228 -1.14413,-0.18586 -0.20247,0.24735 1.63721,1.90869 1.71336,0.79854 0.70058,0.86175 0.36683,-0.42591 1.90937,1.47847 1.32385,1.03032 0.42145,1.8078 -0.0918,2.45403 1.42075,0.85524 2.00296,1.63268 1.81786,1.93279 0.73244,2.07052 0.49215,0.0164 1.16897,-1.25227 0.0675,-0.60929 -1.00762,-1.51557 -1.11391,-1.53688 -1.33943,-0.11157 -0.15266,-1.7766 -0.7717,-1.57217 -0.8246,-1.46398 -0.9217,-3.09133 -1.74573,-1.68065 -0.59156,-1.16484 -0.84354,-0.83461 -0.55753,-2.10715 -0.49373,0.0453 -0.36647,-1.11715 -0.42245,-0.23172 -0.45784,-0.76308 -2.06139,-2.22248 -0.95257,-1.32287 -0.27037,-2.39544 -0.45963,-1.52097 0.44513,-1.28094 1.58532,0.86846 0.92738,-0.13751 2.00892,1.25432 -0.0421,1.21962 0.98393,2.44612 1.49381,2.42793 0.12108,1.011 1.30175,1.58017 1.61302,1.71916 1.49417,0.26632 0.69246,2.29206 1.63965,1.60475 1.41615,0.7727 -0.42346,2.05504 0.51081,0.81521 2.38415,1.36629 1.35127,2.09492 2.79296,2.6397 2.44796,3.38202 0.93139,1.72661 0.25071,1.36583 0.93706,1.54583 -0.0137,1.19372 -0.63863,0.89722 0.2858,0.98819 -0.92673,0.33868 0.6621,1.69403 1.39175,2.1999 2.98467,1.98717 1.15705,1.60239 2.84127,1.11415 1.55446,0.21021 0.70122,0.94187 2.32386,1.6891 3.14472,1.64718 2.08256,0.49724 2.59624,1.6304 2.08177,0.67728 1.96155,0.9393 1.40015,-0.35146 2.23099,-1.33986 1.55158,-0.25846 2.26802,0.92822 1.43252,1.1574 3.14365,3.8501 1.49445,1.48061 1.27038,0.71286 1.73274,0.0649 1.42519,0.62735 0.78656,0.77285 1.54347,0.22362 1.14866,0.71636 0.99979,0.34537 1.60886,0.0539 0.30834,-0.84882 0.84361,0.31333 0.47988,1.12836 -0.21037,0.25507 -0.45856,-0.54326 -0.3084,0.5581 1.3916,1.63195 1.1709,1.13734 0.61151,1.22129 1.29822,1.46366 0.96097,1.14425 -0.63663,0.7023 0.78448,0.51274 -0.36776,1.14674 -0.0159,1.10948 0.37961,0.73502 0.8925,0.36051 0.6349,1.01311 0.5543,-0.87242 -0.17857,-1.06061 0.72864,0.65169 0.18252,1.0677 0.95622,0.46817 1.0931,0.71822 0.77013,0.87539 0.10091,0.80836 -0.31989,0.63552 0.56399,0.7688 1.50737,0.81316 0.31896,0.55437 0.0858,-0.79567 1.19207,-0.005 0.72082,0.42876 1.13925,0.24355 0.56054,1.47603 0.91611,0.21547 0.36159,-0.62396 0.48095,2.19348 1.29234,-0.18749 0.40136,-0.54432 0.75828,-0.46919 -1.325,-1.99161 0.27231,-0.76288 0.60605,-0.12792 1.12195,-0.92025 0.56306,-1.27334 1.21547,-0.23311 1.38385,1.01723 0.51849,1.21017 0.7038,0.25109 -0.68629,0.97933 0.59507,1.98079 0.92601,1.05964 1.12475,1.95826 0.43846,3.1137 -0.59557,0.96754 0.62672,3.37467 -0.52408,2.14327 1.02384,0.87925 -1.06317,1.93922 -1.16976,2.32423 -1.37796,0.24806 -0.65141,1.34026 0.12302,1.85422 -1.03641,0.27778 0.37688,1.14938 -1.90973,1.47371 -1.5218,0.79438 0.19365,1.51137 -1.05119,2.38533 -0.51124,2.30711 -0.97302,0.5584 0.46904,3.3603 -0.56378,1.0433 1.66384,1.6215 1.06173,-1.7183 0.60074,1.616 -1.47852,2.7641 -2.21419,2.3341 -0.86465,2.5863 1.3461,3.5179 -0.89902,1.6441 1.9792,1.4902 2.15807,2.4 0.87405,2.704 1.13602,1.6708 2.62444,7.2756 2.73878,6.7006 2.35264,4.7381 -0.45618,1.0369 1.15073,2.9656 2.14256,2.2056 4.98154,3.8974 5.50691,3.559 0.24109,1.4488 2.78521,2.0218 0.5782,4.9307 0.20326,5.6756 -0.86866,7.6488 -0.89164,6.99 -0.50047,6.4019 -1.62436,3.9837 0.33281,3.9794 -0.82955,2.6324 0.63964,4.7226 -1.17578,4.6201 -1.92057,4.8705 -1.70439,4.8193 -1.1704,0.096 0.22917,3.3005 0.79991,2.8177 -1.27641,1.9506 -0.94683,5.1885 -0.87218,3.9045 1.75169,0.3796 0.86788,-3.3952 1.86415,0.7287 -1.45153,5.5727 -3.0871,-0.9332 -0.94568,4.3547 -2.64511,2.2651 4.21615,0.7394 -2.93386,1.9397 -1.18123,2.3748 0.35628,4.0979 1.39756,1.5596 -0.78721,1.3559 0.87018,1.446 3.45557,1.2889 0,0 3.18004,1.5455 3.13374,0.7128 1.17629,-0.051 0.44786,-2.0642 2.50645,-0.8105 1.33749,-0.5556 2.47149,0.017 z m -58.41235,-325.62657 1.12759,-0.97612 1.57678,-0.38554 0.61718,-0.59616 0.62578,-0.31762 2.58311,0.49144 1.91396,0.0587 0.66383,0.3274 0.92917,1.39701 3.11752,0.37289 -0.48999,0.7086 1.09892,0.73537 -0.47299,0.95787 1.16581,0.31795 -0.57922,0.85479 -0.002,0.003 -0.8475,-0.1031 -0.58329,-0.71229 -2.72952,0.22183 -2.46497,0.56699 -1.95631,-0.96892 -1.57484,-0.32278 0.89249,-1.32645 -2.4519,0.83135 -2.22883,0.8184 -2.14458,0.64603 -1.70266,-0.87178 -2.78314,0.52804 0.009,-0.37219 1.88547,-1.06349 1.97225,-1.00126 2.8333,-0.82023 3e-5,-2e-5 z m 14.62024,4.02857 0.52222,-0.37488 0.54483,0.56524 2.08349,0.31778 2.11256,0.027 2.25173,0.26194 2.48492,0.49844 0.9062,0.81071 1.79899,1.99758 -0.89465,0.87115 -2.25747,-0.36341 -1.4018,-1.62123 0.35183,1.65147 -1.32492,1.47146 0.14577,1.2681 -0.22932,0.75072 -1.79795,0.894 -3e-5,1e-5 -0.13888,-1.10722 -0.49997,-1.55353 -1.02778,-0.26631 -1.72227,1.17521 -0.55193,-0.0223 -0.14247,-0.67314 1.52776,-1.06414 0.25336,-1.20353 -0.22558,-1.19023 -2.05558,-1.01425 -2.36111,-0.51747 -0.38886,0.98471 -0.61237,0.2648 -0.49071,1.29148 -0.25802,-0.87874 -1.11069,0.62668 -0.69311,0.88336 -0.72476,1.29968 -0.13816,1.1327 0.92106,1.66599 -0.0767,1.7953 -1.12741,1.33827 -0.56255,0.38152 -0.75003,0.30423 -0.94381,0.0151 -0.25544,-0.18756 -0.74866,-1.4473 -0.0215,-0.71119 0.0742,-0.67282 -0.34838,-1.32665 0.5276,-1.52022 0.62736,-1.85203 1.44135,-2.01955 -0.4183,0.009 -2.041,1.68915 -0.37638,-0.31148 1.08858,-0.94525 1.65673,-1.68022 1.88892,-0.23243 2.16668,-0.51525 2.18455,0.2716 0.0932,0.0116 2.44667,-0.23229 -1.38199,-1.02151 0,0 z m 3.37976,11.48242 1.52433,0.17325 2.06125,-0.87422 1.21368,-0.76393 0.82581,-0.12418 1.52726,0.2744 0.73883,-0.42388 1.35507,-0.34354 2.42039,-0.3336 10e-6,7e-5 0.054,0.26653 -2.3934,1.62868 -2.09512,0.79466 -1.42986,0.37159 -1.64532,0.76473 -2.01093,0.36896 -1.38515,-0.14207 -1.71314,-0.57301 0.95228,-1.06444 5e-5,0 z m 11.42025,-3.22841 -0.13223,0.031 -0.84828,0.1396 -1.10774,-0.25581 0.83141,-0.91928 0.84721,-0.3166 1.96011,-0.38943 2.34769,-0.36289 1.23299,0.50451 0.77443,-0.5847 0.88094,-0.36832 0.59033,0.19487 0.0317,0.0415 0.28429,0.37244 0.16465,1.04054 -2.08335,0.88768 -2.27541,-0.22328 -2.1829,-0.10005 -1.31586,0.30821 z m 37.52418,319.69569 1.25,-1.0635 -3.88889,-0.5367 -3.61111,-1.3015 -1.38889,-1.6532 -1.0667,-1.0366 -1.97678,-0.2657 -2.56063,0.9263 -0.90084,1.5162 -1.43319,1.0018 -3.68459,-0.7833 -3.89977,-1.4757 -2.29009,-0.4685 3.82592,2.4734 2.83694,1.164 3.49506,1.1935 2.90997,0.3062 2.01664,0.6331 1.64475,0.1696 1.36489,0.067 2.38222,-0.6523 0.91975,-0.857 1.41645,0.7489 2.63889,-0.1056 z m 19.12738,16.7236 2.82892,-0.4771 1.03375,-0.5468 -1.63212,-0.4225 -2.17615,0.1954 -1.57785,0.5173 -2.01302,0.4162 -2.28496,0.1908 -1.95853,0.3162 -1.74099,0.5012 -2.66586,0.093 -1.741,0.4022 -1.5233,0.4289 -1.08815,0.6649 -2.2307,0.4471 -1.90413,0.4714 -1.79547,0.5521 -1.52324,0.4301 -1.36009,0.6495 0.32642,0.5549 0.54397,0.5998 -0.43516,0.5355 -1.08815,0.5525 -1.30569,0.491 -0.27202,0.5078 0.16321,0.4985 0.70725,0.4407 0.87046,0.4807 0.97927,0.4714 0.87053,0.462 0.32643,0.4749 -0.65285,0.4863 -1.63211,0.3466 -2.72027,0.2347 -3.53646,0.1478 -3.91714,0.1259 -3.37311,0.1457 -2.82914,0.2675 -2.8834,0.2232 -3.69953,0.1005 -1.90414,-0.3442 -2.82914,-0.2263 -3.80841,0.1032 -2.77473,-0.4165 -1.08794,0.3753 -2.17629,0.3878 -3.31871,-0.2235 -3.37317,-0.1231 -3.64513,-0.041 -2.28496,-0.4175 -3.48199,0.1053 -3.21004,-0.1899 -2.23055,-0.494 -2.39384,0.8303 -3.69953,0.083 -2.829,-0.2505 -3.42751,0.1257 -3.80848,0.2075 -3.59065,0.1439 -3.75401,-0.062 -1.19681,-0.3736 -2.82914,-0.3173 -3.2643,-0.1713 -3.59087,0.064 -3.64512,-0.064 -2.12168,-0.1512 0.97927,0.8067 0.59844,0.3906 1.57771,0.3819 3.59065,0.079 1.36017,0.3522 1.7954,0.3254 -1.46898,0.4109 -3.80827,-0.1666 -3.754,-0.1311 -4.18924,-0.038 -3.53632,0.1687 -3.91721,0.056 -3.2099,-0.2622 -3.75393,-0.1137 -3.31871,-0.366 -2.8834,0.2897 -1.79547,-0.3288 -0.97927,-0.3556 -1.79539,-0.3225 -2.99228,0.3624 -3.31878,0.1783 -3.48191,-0.2182 -3.37318,0.159 -2.82893,0.294 -3.80848,0.039 -4.13483,-0.019 -4.02596,-0.019 -3.86274,0.039 -4.13483,-0.097 -3.75393,-0.098 -3.64513,0.1367 -3.80841,0.019 -3.6996,-0.1757 -4.13469,0.1368 -1.90427,-0.078 -2.17608,-0.059 -3.37311,0.2145 -2.9925,0.2117 -3.75386,0.2275 -3.75393,0.094 -3.97155,0.019 -3.20997,0.2408 -4.243568,0.1825 -1.632185,-0.3116 -3.590795,0.1658 -0.816059,0.3259 0.979343,0.3354 0.108664,0.3268 -4.189095,0.084 -3.155564,0.283 -3.481843,0.2277 -3.69953,0.1757 -4.406852,0.079 -2.284959,-0.3515 -4.407067,0.1131 -4.569991,0.08 -2.502503,-0.2583 -1.360167,-0.082 0.870461,0.9141 2.176296,0.2671 3.59065,0.2308 1.795254,0.266 5.386263,0.069 5.005293,0.095 5.712543,0.04 4.080428,0.1982 3.590723,0.1802 0.979271,0.2611 -2.230558,0.2036 -4.570135,0.2191 -4.950817,0.1667 -4.026025,-0.1894 -6.419792,0.09 -6.746287,-0.034 4.297972,0.1764 2.121892,0.1911 4.624395,0.143 0.54411,0.2056 -1.033673,0.1766 -1.033744,0.1849 -0.489705,0.19 7.453535,0.086 2.339436,0.1492 8.976842,0.085 10.935523,0.014 -0.59844,0.1577 -7.725555,0.085 -7.344874,0.086 -6.691739,-0.092 -11.805984,-0.061 -7.997573,0.084 -10.717764,-0.072 -6.256581,-0.1016 -7.888766,-0.087 -4.189164,-0.1203 -1.304974,-0.045 -2.642316,-0.09 -8.160786,0.069 -0.631816,0.022 -3.516509,0.1525 -4.020498,-0.1525 -0.325979,0 -0.381773,0 -2.933705,0.1181 -0.322126,0.013 -5.005293,-0.1154 -2.455061,0.2092 -0.159724,0 0,0.9026 1000,0 0,-0.9026 -4.78552,-0.084 -6.36539,-0.115 -7.67108,0.094 -2.0751,-0.1095 -0.53643,-0.029 -7.99764,-0.084 -1.41421,-0.2029 -6.36539,-0.1379 -4.18938,-0.1442 -3.86282,-0.1505 -3.37317,-0.1669 -2.39363,-0.1948 -1.41464,-0.2257 -3.69946,-0.1906 1.46876,-0.2215 1.19703,-0.2302 0.48963,-0.3035 2.33951,-0.3855 5.27731,-0.027 4.2435,-0.1522 5.00529,-0.1124 -1.08793,-0.3174 -5.16851,-0.1034 -1.30583,-0.2715 -0.59859,-0.2951 -1.57771,-0.32 -0.0545,-0.313 0.27216,-0.3906 0.7071,-0.3322 1.14277,-0.3774 2.01294,-0.2946 1.90428,-0.3579 1.25114,-0.386 3.5908,-0.2164 1.63225,-0.3603 3.64506,-0.1626 1.30569,-0.4342 0.97941,-0.3804 1.25129,-0.4973 1.4689,-0.3979 0.32657,-0.4512 -1.95868,-0.3445 -2.88355,-0.2326 -2.88326,-0.2823 -3.10144,-0.1662 -3.31849,-0.095 -3.31878,0.024 -2.99235,-0.072 -3.20982,0.024 -3.10116,-0.1923 -2.12175,-0.4382 -3.15542,-0.2962 -1.36024,-0.5014 -3.20968,-0.1522 -3.37332,-0.1274 -2.44817,-0.3083 -2.12204,-0.4163 -2.44803,-0.3691 -1.79547,0.4477 -3.15542,-0.026 -2.82928,-0.2099 -3.75386,-0.2115 -3.5908,-0.2396 -3.10101,-0.3495 -2.99221,-0.3261 -1.79547,-0.4122 0.54404,-0.5296 -1.95868,-0.4524 -3.10102,-0.1139 -3.64506,-0.057 -2.61152,0.029 -3.6452,0 -2.50272,0.086 -3.64505,0.029 -3.15542,0.085 -2.33951,-0.2566 -1.14262,-0.4898 -0.92472,-0.614 -0.48978,-0.6841 -1.74092,-0.4222 -0.10881,0.6317 -0.76165,0.739 -2.50258,0.1169 -2.55712,0.1456 -3.15542,0 -2.82914,0.058 -2.99221,0.2315 -2.50272,0.2587 -2.55698,-0.1435 -2.44817,-0.1441 -2.50286,0 -2.61153,0.2302 -2.88326,-0.1436 -2.50271,-0.2022 -2.50258,0.1156 -1.84987,0.459 -2.17615,0.4531 -2.88355,0.1124 -3.48184,-0.1405 -3.31878,-0.3681 -1.90427,-0.3718 -3.04662,0.057 -1.95853,-0.4622 -1.4145,-0.468 -2.17615,-0.2955 -2.06749,0.3249 -3.10116,0.059 -1.90413,0.4379 -2.28511,0.4041 -2.99221,0.2005 -2.99235,0.1708 -2.55698,0 -2.72033,-0.029 -3.53639,-0.8923 -1.84973,-0.5282 -2.12189,-0.4158 -1.79518,-0.2097 -3.48199,1.1245 -1.90428,0.4061 -1.41435,0.487 -1.85002,0.4805 -2.88326,-0.1971 -2.55712,0.1971 -2.99235,0 -2.50258,0.1959 -2.12189,-0.3083 -2.33936,-0.085 -1.74107,0.1409 -2.61138,-0.028 -2.829,-0.1128 -2.66593,0.169 -2.66593,-0.1126 -2.3395,-0.2829 -1.30555,-0.6884 -1.03367,-0.4077 -1.41465,0.9823 -2.01293,0.3967 -3.04676,-0.085 -2.72034,0.1691 -2.50243,0.1403 -2.77473,-0.1403 -2.01294,0.2242 -1.57771,0.2504 -1.52345,0.468 -2.33951,0.2722 -2.72019,0.3504 -1.90413,0.505 -0.8162,0.4967 -1.3601,0.5139 -2.829,0.2029 -2.77474,0.1513 -3.15556,0.05 -1.74078,0.1251 -1.46904,0.617 -0.70725,0.4352 -1.74107,0.3569 -1.52316,0.3749 -0.92501,0.4372 -1.5233,0.4512 -3.20997,0.1999 -3.20983,-0.1108 -2.12189,-0.3587 1.30584,-0.4798 1.41435,-0.4432 0.38097,-0.4756 -3.10116,0.024 -0.38097,-0.4845 2.17644,-0.469 2.66579,-0.3256 0.32642,-0.5859 0.10881,-0.3366 -2.28496,-1.4125 -2.77474,0 -2.72019,-0.1093 -2.61153,-0.1645 -2.72019,-0.1655 -2.61138,-0.3052 -2.39405,0.5805 -2.23056,0.2729 -2.66578,-0.082 -2.28496,-0.3836 -1.84973,-0.3881 -3.31892,-0.1677 -1.68652,-0.3946 -2.44831,-0.4851 -0.27188,-0.6375 -2.2307,-0.4115 -2.61138,-0.148 -2.44832,-0.089 -2.55697,0.1187 -2.77474,0.2364 -2.28496,0.2935 -2.33951,0.407 -0.54404,0.5167 -2.28496,0.3403 -2.61152,-0.028 -1.79533,0.3933 -2.50272,0.499 -2.61138,-0.1655 -2.17615,0.3028 -2.2851,0.3271 -2.17616,0.297 -3.26437,0.2675 -2.72019,0.186 -2.88354,0.4468 -2.50258,0.2338 -0.97927,0.5638 -2.82914,0.3027 -2.06748,-0.3282 -1.95854,-0.4607 -2.8834,0.103 -2.39391,-0.3102 -1.08808,-0.4717 -2.88354,-0.2119 -1.57771,0.4487 -1.52331,0.7246 -2.12189,0.3555 -2.829,0.1258 -2.61153,0.225 -2.44817,0.3464 -2.93795,0.147 -2.77459,0.1705 -3.10116,0.024 -3.15542,0 -3.26437,0.048 -3.04661,0.2169 -1.79547,-0.3625 -1.30569,-0.4172 -2.99236,-0.074 -3.10101,-0.1493 -2.93795,-0.025 -3.26423,0.05 -2.99235,0.1491 -2.28496,0.4668 -1.08822,-0.4668 -3.64506,-0.074 -2.82914,0.3457 -1.25128,0.4859 -3.15557,0.2394 -1.57771,-0.4326 -2.01308,-0.5887 -2.8834,0.1731 -2.06735,-0.3224 -1.68652,0.4453 -2.39391,0.2684 -3.10101,0.1934 -2.82914,0.2873 -3.10117,0.1661 -3.15542,0.1649 -2.82914,0.2103 -3.04675,0.3921 -1.19681,-0.4853 -3.15557,-0.07 -3.48191,0.1401 -3.5908,0.2086 -3.31863,-0.069 -0.70725,-0.444 -2.99235,-0.1182 -1.4145,0.4695 -0.10881,0.4372 -3.31877,-0.046 -1.3601,-0.3916 -3.31877,-0.07 -2.01294,0.3241 -1.3601,0.5447 -2.17622,0.4435 -2.82907,0.3481 -3.04676,0.257 -2.88347,0.2116 -1.8498,0.3337 -0.97927,0.4286 2.9378,0.2402 -0.81605,0.3927 -2.61139,0.2883 -2.44831,0.3202 -3.86267,0.295 -3.04676,0.2172 -3.3731,0.2137 -3.42751,0.1755 -4.08043,0.1214 -4.29797,0.034 -1.90421,0.069 -3.75393,0.1192 -3.80841,0.1515 -2.50265,0.3298 -3.37311,0.2409 -3.3731,0.2356 -4.67887,0.1844 -3.97163,0.1809 -1.25128,0.1629 -0.38083,0.5398 0.76165,0.2567 5.44053,0 5.71254,-0.107 5.38612,-0.027 0,0.2525 1.19695,0.2311 1.95861,0.2232 -4.29804,0.1563 -6.14777,0.1058 -5.76695,0.081 -5.22298,0.1247 -5.49486,0.1217 -7.01837,0.011 -3.86274,0.1609 -1.7954,0.2259 -5.60374,-0.1218 -6.80061,-0.073 -6.9095,0.01 -4.95082,0.1438 -5.76702,0.1291 -4.84201,0.1533 -4.57006,0.138 -3.37325,0.1582 -1.3601,-0.1672 -2.72026,-0.224 -5.16836,-0.1673 -4.73334,-0.1535 -6.8007,-0.1482 -6.90935,-0.087 -5.05977,-0.1784 -3.97162,-0.1847 -5.00529,-0.1667 -5.87568,-0.098 -3.53647,-0.2377 -0.59837,-0.2465 -3.2643,-0.2281 0.10867,-0.2773 0.16335,-0.3016 3.97155,-0.1922 4.78768,0.074 3.10116,-0.2401 -1.74099,-0.2776 -3.10116,-0.2213 -4.24357,-0.1447 -0.87053,-0.3288 4.67887,0 4.40678,-0.067 4.89655,0.033 4.46126,-0.033 2.23055,-0.3577 3.75401,-0.1915 3.48184,-0.1945 3.69953,-0.1433 4.18931,-0.3464 1.68652,-0.3173 1.25136,-0.3436 3.69953,-0.1357 1.63211,-0.3344 1.52345,-0.4226 0.38083,-0.5588 -0.87053,-0.4251 -0.21755,-0.4346 -0.8162,-0.4216 -0.38083,-1.0796 -0.81598,-0.4511 -1.30576,-0.4108 -0.81606,-0.4919 -0.59844,-0.4761 -1.14262,-0.5101 -2.12168,-0.4148 -2.28503,-0.3149 -1.46898,-0.4253 -0.97927,-0.5669 0.43516,-0.5217 1.74092,-0.6145 1.63219,-0.4537 1.52338,-0.4887 2.61145,-0.1159 1.90414,-0.35 -1.3057,-0.5013 -0.16314,-0.568 0.38083,-0.6068 1.36017,-0.461 2.01301,-0.4037 1.90413,-0.3759 2.28496,-0.1576 2.06742,0.2519 1.19703,-0.3467 z m 37.38718,16.6287 -4.18917,-0.1669 -4.13483,0.1669 -1.4145,-1e-4 0,0 -1.7954,0.3104 -1.68659,0.2573 -1.25128,0.2632 -1.74092,0.2938 -2.39391,0.2188 -5.93016,0.175 -0.48964,0.2534 3.6452,0.1973 6.583,0.034 5.82135,-0.1144 5.22291,-0.1406 4.51566,-0.1562 4.29797,-0.198 -0.1088,-0.3351 -0.32643,-0.2964 -1.19688,-0.4377 -3.42758,-0.3247 z m -40.04816,1.4029 -2.8834,-0.269 -1.46905,0.2312 -2.06741,0.2598 -5.98457,-0.061 -6.25651,-0.025 1.52324,0.1814 0,0.024 3.48206,0.1982 6.20203,-0.034 5.82149,0.08 0.81613,-0.2676 0.81599,-0.3181 z m -24.66459,-8.4165 -0.76165,-0.5509 -0.92494,-0.5385 -1.19695,-0.575 -0.65285,-0.4844 -1.4689,-0.4926 -2.55712,0.2084 -1.57771,0.6166 0.0545,1.0222 -0.16328,0.4603 -0.81599,0.6163 -3.21003,-0.047 -1.90414,0.1403 0,0 -3.04668,0.4614 0.16314,0.4743 2.12182,0.3324 3.10116,-0.1545 3.26422,-0.1556 -1.36009,0.4416 3.64513,0.022 3.10116,-0.2193 3.26437,-0.155 0.76158,-0.4265 0.4897,-0.4581 -0.32642,-0.5384 z m -84.80612,1.1521 -4.02602,-0.09 -3.53625,-0.1588 -1.74099,0.2039 0,0 1.46904,0.4685 2.82893,0.2194 3.754,-0.066 3.42759,0.044 3.3731,-0.044 2.17616,0.087 -1.63219,-0.6421 -3.04668,0.1345 -3.04669,-0.157 z m -61.74989,1.7248 -3.31871,-0.1864 -0.59858,0.3506 0,0 2.77474,0.3637 3.86281,0.08 2.61138,-0.2606 1.57771,-0.3676 -3.31863,0.1847 -3.59072,-0.1641 z m -12.07793,-0.021 -2.77474,-0.2493 -2.01294,0.2286 0,0 3.80819,0.287 3.59087,0.1013 1.63218,0.04 -4.24356,-0.4079 z m -93.468384,5.2029 -0.761725,-0.3107 -2.121677,-0.2522 -2.774737,-0.2307 -5.168576,-0.1178 -1.686375,0.2771 0,0 1.795254,0.1985 0.108879,0.042 1.632114,0.2469 3.645127,0.239 5.331716,-0.092 z m 841.027764,-158.1635 0.0982,-1.3077 -0.20842,-2.0418 -1.0097,-1.8389 -0.11857,-1.521 -0.69218,-0.4383 -0.19293,-2.2771 -0.78347,-1.779 -1.03209,1.3624 -0.07,1.0366 -0.52739,1.9934 -0.67122,1.9195 0.43251,1.2072 -0.5327,0.7335 -0.36403,2.7152 0.32125,2.0569 -0.20039,1.0436 0.38556,1.7316 -0.84433,2.8403 -0.3448,1.9511 -0.56384,1.5729 -0.54347,1.901 -1.83394,1.2069 -2.65186,-1.1979 -0.42231,-1.0929 -1.45383,-0.9072 -0.78319,0 -2.00763,-2.1041 -1.43086,-1.2256 -2.1394,-1.1426 -2.20831,-1.9741 -0.19867,-1.0107 0.98659,-1.7624 0.81606,-1.796 -0.32183,-1.4396 0.95458,-0.1199 1.05477,-1.4574 0.74027,-1.9346 -1.27541,-1.7917 -0.65026,0.6962 -1.04357,-0.3154 -1.62279,1.0369 -1.72183,-1.1133 -0.79323,0.3665 -2.33951,-0.9271 -1.47579,-1.488 -1.83983,-0.9005 -1.47923,0.5278 2.03476,1.1951 0.0502,1.8523 -2.33391,0.6821 -1.4211,-0.43 -1.6825,1.2761 -1.20636,2.0626 0.43322,0.9008 -1.25229,0.9412 -1.33067,2.8817 0.58854,1.9672 -1.76647,-0.3356 -1.73849,-0.024 -1.54182,-2.123 -2.05213,-1.649 -1.34244,0.4848 -1.22157,0.5145 -0.0491,0.9024 -1.22043,-0.4188 -0.0436,1.0025 -1.3967,0.6105 -0.66978,1.4129 -1.51785,1.7573 -0.33733,2.7096 -1.2256,-0.7704 -0.87175,1.7243 0.98917,1.6751 -1.18209,0.7061 -1.17004,-3.0606 -1.9439,3.0125 -0.0726,1.92 -0.12489,1.4056 -1.62924,1.7836 -0.70912,1.8718 -1.5101,1.5504 -2.91943,1.0201 -1.53536,-0.082 -0.73524,0.3176 -0.42145,0.7618 -1.6848,0.3852 -2.18893,1.2924 -0.76452,-0.4272 -1.26306,0.2706 -2.12289,1.2699 -1.35335,1.4719 -2.25668,1.1508 -1.17349,2.3596 -0.20986,-2.6128 -1.1478,2.4691 0.29686,1.9961 -0.37896,1.7015 -0.56931,0.8348 -0.30144,1.9556 0.64394,1.0081 0.26643,1.0587 1.37473,2.6343 0.0464,1.7043 -0.82209,-1.2878 -1.37761,-0.9672 0.93721,3.0861 -1.22057,-1.4355 0.38485,1.416 1.58718,2.6138 0.34638,2.568 1.23033,1.2987 0.0708,0.9549 1.10573,2.1056 -0.11943,1.8318 0.45518,1.8252 1.46862,3.2054 0.31121,1.8633 -0.33963,2.1706 0.098,1.1147 -0.47097,0.7042 -1.37919,0.4203 -0.0606,1.7616 1.49316,0.5811 2.94657,1.9446 1.86221,0 2.02629,0.1191 1.33541,-0.9657 1.3934,-0.8617 0.80988,0.1381 1.65221,-1.6328 1.90715,-0.141 1.99701,-0.3356 2.4552,0.5605 1.74437,-0.2732 2.3573,-0.075 1.02578,-1.2522 0.53528,-1.6246 2.40827,-0.718 2.94469,-1.6023 2.65043,0.2077 3.16131,-1.047 3.59682,-1.1275 4.97371,-0.2987 2.67153,1.5335 1.95193,0.09 3.56424,1.8968 -0.52222,0.7192 1.46532,1.1634 1.73833,2.2375 -0.0861,1.6255 2.16897,1.253 1.06396,-2.4278 1.73547,-1.0511 2.2597,-2.6389 0.22163,2.2929 -1.07286,1.5059 -0.42088,1.7632 -1.45268,1.6786 2.47157,-0.5562 1.35665,-2.1066 0.67194,2.2594 -0.9131,1.4649 2.67239,0.3624 1.36483,1.2164 0.64567,1.5063 0.51548,2.2453 1.79561,1.8061 2.6889,0.8421 1.58818,0.2077 1.57528,0.4589 2.40151,0.7842 2.43253,-2.1005 1.51814,-0.552 -0.43121,1.518 1.70187,0.5111 2.30075,1.2755 1.67834,-1.2386 1.27669,-1.124 2.56358,-1.1968 3.10906,-0.1065 1.59278,-1.0195 -0.14211,-0.932 0.35858,-2.0438 0.7028,-2.241 1.072,-1.5043 0.82337,-2.6267 0.92616,-1.5168 1.0143,-2.3945 2.05801,-1.5297 1.2266,-2.8538 0.55006,-2.2689 -0.0566,-1.8273 0.74959,-2.8639 0.48059,-1.4969 0.15934,-2.8791 -1.32378,-2.787 0.19178,-2.0435 -0.0716,-1.8922 -0.78046,-2.6827 -2.17127,-2.7207 -1.2899,-1.2885 -1.97117,-2.0813 -0.47858,-3.615 -0.67869,0.5262 -1.12654,-1.4846 -1.10846,0.7533 -1.08033,-3.7207 -1.58876,-2.1689 0.36374,-0.8404 -1.86336,-1.5132 -1.96256,-1.6569 -3.01001,-1.8271 -0.89945,-2.3804 0.26843,-1.8258 -0.7539,-3.0219 -0.69964,-0.4325 -0.4216,-1.7726 -0.59241,-3.0549 0.28537,-1.5841 -1.33282,-1.3984 -0.91999,-1.5186 -1.78226,1.3531 -1.0008,-2.8178 z m 5.10046,88.1516 -1.81729,-0.2485 -0.0713,1.2831 1.60283,2.4125 0.38011,1.8066 1.71236,2.314 1.70819,0.083 0.57504,0.1441 1.9284,-1.8789 0.9708,0.7409 0.2868,-2.1859 0.95156,-0.9449 -0.19665,-3.2942 -1.66614,-0.1883 -2.16854,0.5383 -1.5124,0.383 -2.68373,-0.9653 z m -83.18685,-158.78565 -2.36319,2.02031 -1.09985,1.38101 -1.36411,2.33576 -1.99256,2.92457 -3.32969,0.80075 -1.18568,0.69767 -0.55897,3.1333 -2.14644,0.69176 -2.03576,-1.26858 -1.65035,2.46017 -0.32355,3.43125 0.38671,3.24028 1.33354,3.1677 1.38608,1.0292 0.42475,4.9633 2.28998,0.4268 1.81959,-0.2034 1.01343,1.7896 3.30241,-1.3297 1.38522,1.1847 1.9805,0.209 1.10042,2.259 3.1557,-1.6627 0.40897,1.3144 1.07142,-5.6544 0.0729,-3.6861 2.6711,-2.5326 -0.12029,-3.3562 0.92644,-2.52497 3.29136,-0.43691 -3.11422,-3.42647 0.47973,-1.70279 -2.04194,-3.50232 1.58001,-3.33795 2.04523,-1.2581 -0.49609,-1.80244 1.8638,-0.18304 0.1978,-1.44477 -2.31725,-1.10905 -1.82949,-1.0272 -0.1269,-1.60048 -1.42713,-1.86094 -1.12367,0.0121 -1.40101,2.87592 -2.13897,2.5626 z m -476.6243,-144.03713 1.48283,-1.46849 0.53679,-0.62593 -1.2889,-0.10079 -2.4102,0.79535 -1.72233,1.32653 -2.86977,3.79774 -2.33283,1.46887 1.20844,0.66818 -1.7303,0.87125 0.42633,0.73736 5.39107,0.0763 2.98453,-0.14919 2.6655,0.60786 -1.96184,1.18334 1.65752,0.0879 3.22303,-2.17757 0.77393,0.31681 -0.60296,2.05817 1.82633,0.47939 1.25638,-0.0946 1.16961,-2.21894 -0.86264,-1.5451 -0.35412,-1.30426 -1.94411,0.41887 0.85962,-1.78368 -2.77007,-0.74124 -1.28158,0.58692 -2.46461,-0.66003 0.97475,-0.83422 -1.86559,-0.50974 -1.81327,0.80454 1.83846,-2.07155 z m -15.7563,3.77416 -0.0813,-0.44409 -2.84085,-1.00515 -3.65258,-0.59909 -0.96084,0.20066 2.58295,1.13299 3.60022,0.75807 1.35243,-0.0434 z m -18.5936,-50.2631 -6.01601,-0.0281 -6.01602,-0.0278 -8.02013,0.0748 -1.47562,-0.0479 -8.49066,0.0183 -4.98156,0.0494 -3.66666,0.0728 -2.11112,0.25794 L 266.44443,0.96317 263,0.93837 l -4.084,0.18097 -5.45008,0.0815 -3.2437,0.0166 -4.13061,0.0984 0.60878,0.18189 3.24405,0.16221 2.31492,0.23276 4.91022,0.20346 9.71931,-0.0388 6.25492,0.0705 -4.33463,0.22783 -2.19374,-0.0686 -7.59263,-0.0271 1.17902,0.33155 3.92331,0.26276 -0.78814,0.24252 -4.92583,0.17021 -2.24984,0.28405 4.50534,0.14436 3.78794,0.4995 -7.42683,-0.33896 -1.69445,0.0544 1.36836,0.57673 -5.1353,0.18752 0.34839,0.40839 5.25189,0.0455 4.13377,0.10568 8.15959,-0.13523 7.25872,0.24174 7.42261,-0.51945 -0.0605,-0.2049 -4.74655,0.0322 -0.3885,-0.18718 3.88005,-0.24227 1.31717,-0.30865 4.29158,-0.21722 2.63914,-0.25632 -2.29725,-0.3557 1.92006,-0.12499 -3.82914,-0.0866 8.41036,-0.0731 1.77,-0.13726 5.73,-0.10966 4.75083,-0.51449 4.52695,-0.16843 6.55469,-0.34356 -6.04789,0.003 2.51147,-0.12093 6.72061,-0.10661 6.77812,-0.21964 0.12188,-0.12913 -5.08333,-0.12661 -5.96486,-0.0581 -7.42403,-0.035 z m -50.17272,7.56856 2.04452,-0.68069 -7.17247,0.27691 -2.85649,0.43383 -2.13495,0.98604 0.88058,1.17569 3.94564,0.005 -2.90472,0.5503 2.3103,0.43247 4.50475,0.18787 5.87582,0.3696 10.10899,0.28502 5.03616,-0.16443 1.4867,-0.37344 2.19058,0.43126 2.44795,0.0728 2.94089,0.80803 -1.77903,0.33552 5.6272,0.45707 4.2547,0.66408 1.07099,0.4773 0.76359,0.62681 -3.59374,1.42123 -0.96936,0.74961 0.92802,0.54553 -5.71799,0.1971 -5.21947,0.0275 -1.82963,1.15501 2.34991,0.54947 8.03189,-0.25618 -0.0442,-0.46179 4.04476,0.77529 4.14452,0.83637 -0.96972,0.46565 3.3665,0.81474 5.96131,0.98885 7.53277,0.69123 -0.45202,-0.60504 -2.89273,-1.02991 -3.92641,-1.43326 6.96706,1.33016 3.50345,0.4585 0.95666,-1.20713 -1.80767,-1.61348 -1.1442,-0.42337 -3.77102,-0.72336 -2.92122,-0.89632 0.35075,-0.86389 3.59388,-0.18637 4.36766,1.45447 3.41783,0.66361 4.87574,-1.77862 0.86443,-1.03608 -4.36931,-0.0964 -3.99273,-1.30876 -4.40986,-0.30528 -6.54238,-0.8906 5.10025,-0.61969 -2.62761,-1.20512 -2.41967,-0.50267 -6.70545,-0.48297 -2.89503,-0.7587 -5.1581,0.26647 -0.35965,-0.51143 -3.82564,-0.54524 -6.16327,-0.56358 -2.62782,0.4414 -5.49529,0.32851 0.41349,-0.73355 -4.76529,-1.10514 -7.04034,0.43083 -2.56738,0.87606 -2.18836,-0.6809 z m 63.60467,49.04724 -0.97323,-1.23235 -1.0493,0.78107 0.69392,0.85267 3.52352,1.08851 1.02895,-0.16777 1.36619,-1.04966 -2.57561,0.0696 -2.01444,-0.34209 z m -33.89273,-41.4953 1.80531,-0.42226 0.31289,-0.19516 -0.031,-0.59952 -2.16864,-0.38164 -2.54569,0.19056 -1.17984,0.78203 0.69314,0.69816 3.11386,-0.0722 z m -1.317,-7.49308 -4.7901,-0.58193 -6.35728,-0.11201 -1.33563,0.0691 -0.11726,0.37839 3.05629,0.57199 0.8044,0.0666 3.0405,-0.14718 2.99231,0.023 2.95287,0.0319 -0.2461,-0.2998 z m -8.12727,15.40256 -0.70611,-0.35345 -1.13714,-0.0376 -1.07224,0.51766 -0.12987,0.11991 0.72941,0.52109 1.22789,0.1494 1.08806,-0.91701 z m -42.82852,-19.20652 -5.7251,-0.0524 -1.04516,0.34298 3.21923,0.26589 5.7462,0.10652 2.78866,0.38842 0.33784,0.45562 0.96068,0.52248 7.38255,0.31536 4.48437,0.12234 5.70249,-0.0177 7.96822,-0.15255 3.5557,0.1203 4.14186,-0.21198 1.73289,-0.25829 -0.62106,-0.39323 -2.97505,-0.34913 -4.51365,-0.0641 -5.65606,0.0776 -4.41546,0.1998 -4.05301,-0.0776 -3.74669,-0.0405 -1.76432,-0.21694 -3.18728,-0.20326 0.63282,-0.33036 -2.39772,-0.28203 -5.46916,0.002 -3.08379,-0.2692 z m 26.45216,13.50837 -2.00705,-0.12421 -0.94733,1.41845 -0.35521,1.25823 -2.41451,0.80909 3.76449,-0.15818 0.95379,0.9718 3.95274,-0.86059 2.7545,-0.86909 1.56005,0.73409 4.32266,0.39697 2.46547,-0.51888 -1.98308,-0.54031 -2.04466,0.12636 -0.24604,-0.76605 -3.18212,-0.49476 -3.04181,-0.538 -1.61496,-0.40664 -1.42153,0.23878 -0.5154,-0.67706 z m 9.06405,4.75185 0.0591,-0.32797 -3.81525,-0.016 -2.06442,0.78403 0.60847,0.46541 1.96125,0.0399 3.25089,-0.94535 z M 258.77778,2.64192 256.58333,2.21703 252.02778,2.10027 247.35308,1.97096 243.806,1.66128 l -6.45994,0.0288 1.21386,0.13145 -2.84728,0.0408 -1.92497,0.18146 -1.92578,0.27516 1.75994,0.29316 3.0615,0.22362 5.07989,-0.005 -2.19583,0.18407 -0.0428,0.2579 2.98463,0.2998 5.75648,0.0963 4.91391,-0.0542 5.13275,-0.54754 3.81448,-0.20676 -3.34903,-0.21811 z m -17.15638,6.07468 3.31203,-0.21191 4.15048,-0.94159 -5.30617,-0.2487 -5.7879,-0.0354 -2.75593,0.2782 -1.45132,0.4431 -0.043,0.53254 1.73302,0.97822 3.16892,0.0426 2.97986,-0.83708 z m -1.15683,-2.27097 -1.01387,-0.30065 -2.4252,-0.32586 -3.9938,0.2496 -1.47873,0.42726 3.36736,0.25327 4.0327,0.0732 1.51154,-0.37677 z m -0.63125,-2.23583 0.33152,-0.0911 -1.94978,-0.14618 -5.59368,-0.0114 0.74069,0.22063 5.20568,0.051 1.26557,-0.023 z m -5.52858,-0.42064 0.75282,-0.27284 -3.31978,-0.25457 -1.61898,-0.0476 -3.59654,-0.0286 0.21977,0.30124 1.1905,0.28254 2.26235,0.17933 4.10986,-0.15949 z m 0.50726,9.3586 -1.69367,-0.50057 -0.83333,-0.24546 -1.66667,-0.23053 -2.94683,-0.3591 -1.94206,0.55107 -2.44444,0.40106 3.79333,0.59163 2.26222,-0.14508 3.74411,0.40383 1.72734,-0.46685 z m -13.07983,-5.57143 -3.28773,0.50595 3.06012,0.70698 -5.67123,-0.13618 -0.0555,0.35303 6.90328,0.87735 1.92211,0.44768 2.67555,0.0991 4.55461,-0.45578 0.5,-1.02396 -4.20441,-0.47217 2.5933,-0.51237 -0.72222,-0.30299 -4.95519,0.13164 -3.31264,-0.21831 z m 5.15672,-2.70606 -0.21386,0.11234 -3.90695,-0.0495 -4.184,0.29532 -2.9883,-0.0274 0.17619,0.69484 4.55325,-0.0709 -0.0576,0.5465 2.98589,0.15352 4.57983,-0.0986 1.26552,-0.69538 -0.0866,-0.45975 -2.12337,-0.40104 z m -4.33387,-1.28411 -2.1249,-0.34937 -7.51146,-0.25826 -5.4528,-0.0943 0.20197,0.26817 3.35875,0.17335 -2.6825,0.21882 6.18423,0.0277 4.57186,0.24596 4.53611,0.0861 -1.08126,-0.31821 z m -39.18605,4.75088 -2.83866,-0.20654 -7.43703,0.65869 -1.93403,0.4432 -2.33144,0.8606 4.85086,0.31072 4.28491,-0.0166 -6.44241,0.47962 1.4655,0.45071 3.93877,0.0248 5.93567,-0.0981 5.37195,0.28907 -3.62587,0.21747 -3.91586,-0.0563 -4.2878,0.21472 -1.84797,0.13489 3.42238,1.02392 2.4665,-0.14686 3.79178,0.3594 1.50489,0.63284 4.94181,-0.12783 7.0393,-0.20168 5.21517,-0.45127 3.22928,-0.0801 4.77777,0.35763 5.02712,0.21022 0.93597,-0.48826 -1.77186,-0.50297 4.56075,-0.10413 0.30141,-0.5624 -5.01275,-0.59221 -4.66497,-0.60483 -0.86133,-0.83568 -1.74339,-1.10384 -3.11147,-0.43998 -2.76073,-0.17168 -2.44427,0.15711 1.97333,1.1356 -1.39544,0.47811 -2.27275,-1.11583 -2.53837,-0.35905 -3.139,0.56233 -3.86286,-0.55611 -6.18144,0.33137 1.38658,-0.51078 z m 26.85325,-0.31829 -2.11111,-0.23101 -3.72222,0.0418 -0.94445,0.14701 4.33334,0.75323 2.44444,-0.71101 z m -10.30947,-2.69906 -0.93661,-0.41391 -2.86808,-0.0984 -2.54489,0.31246 3.97266,0.86002 -4.85311,-0.0704 -4.93428,-0.53631 -7.81752,-0.29586 -2.61431,0.24478 -3.78994,0.89296 3.88386,0.16988 12.55,-0.11337 -5.76984,0.42551 0.35428,0.32152 4.22428,-0.0226 7.00853,-0.42501 9.40703,-0.14954 1.69025,-0.44742 -0.48895,-0.4474 -2.91092,-0.0389 -2.47361,0.15064 -1.08883,-0.31859 z m -4.0326,-1.93887 -3.61254,-0.14689 -1.48986,-0.0327 -2.84967,0.21731 -0.045,0.10552 4.61327,7.3e-4 3.3838,-0.14397 z m -1.45498,0.68829 0.92357,-0.23338 -3.91664,-0.11987 -4.05595,0.0778 -2.24915,0.24771 4.11969,0.25747 5.17848,-0.22974 z m -28.53628,6.22984 0,-0.51013 3.44444,-0.79384 6.81128,-0.76674 3.49203,-0.26772 -2.98225,-0.43788 -2.69783,-0.29501 -7.09484,-0.056 -3.96694,-0.20745 -9.38853,0.15583 2.71597,0.62606 -2.40914,0.69762 -1.92419,0.80626 -1.19153,0.48269 6.41375,0.61793 1.46614,0.52533 7.31164,-0.57694 z m 11.83726,-6.18893 -3.80985,0.11715 -4.26058,-0.0111 -5.70443,0.53195 -4.71497,0.64714 0,0 3.76369,0.1939 4.44633,-0.13749 5.16363,-0.37628 2.59544,-0.0422 2.13955,-0.29552 0.38119,-0.62749 z m -20.30949,48.33434 -1.14585,-1.34817 -2.77294,-0.99759 -1.37287,-1.13691 -0.94446,-0.81929 -2.6111,-0.25025 -1.70439,-0.35749 -2.9162,-0.51199 -0.23936,0.54361 1.07013,1.28831 2.85929,0.42928 0.49997,0.6831 2.48613,0.84438 0.83329,0.86253 4.56145,1.11242 1.39691,-0.34194 z m -26.86112,-13.09011 -0.16572,0.69406 0.51404,0.96548 1.40172,0.69009 1.02656,1.02909 1.67389,1.03322 1.10774,0.004 -2.41788,-1.80976 0.83192,-2.49817 -2.66672,0.17381 -1.30555,-0.28222 z m 676.4422,104.08763 0.64294,-2.0227 1.22057,-1.53655 -0.62083,-1.32907 -1.59709,-0.0825 -3.03484,0.97548 -1.369,1.58114 0.0805,3.01347 2.27778,1.08968 2.39994,-1.68895 z m -527.82975,-14.15449 -2.60901,-1.16202 -2.18247,-0.0385 -2.39915,-0.24294 -0.67302,0.37419 -2.10308,0.32621 -1.41859,0.66511 -1.25588,0.7599 -0.60196,1.23561 -1.46625,1.06046 1.18856,0.32589 1.37466,-0.37588 0.3982,-0.83767 1.15095,-0.0479 1.996,-1.77898 2.72471,0.17494 -1.04164,0.85488 0.96958,0.66843 3.62058,0.53177 0.8335,0.72064 2.59021,0.92281 1.56981,-0.13411 0.65845,1.96499 0.95982,0.99889 1.79066,0.23158 1.13207,0.90086 -1.86215,1.93992 3.97729,-0.33923 1.91383,0.2755 1.86968,-0.17294 1.84707,-0.44185 0.32951,-0.81439 -2.09964,-1.41995 -2.04768,-0.14268 0.20233,-0.97426 -1.65666,-0.70461 -0.91446,0.0475 -1.72944,-1.55497 -2.35242,-2.1273 -0.98372,-0.80464 -2.59459,0.38667 -1.10566,-1.25197 z m 256.58203,-93.00055 -0.8864,-1.04221 -4.07497,0.68743 0.38786,0.86917 2.9068,1.19747 1.66671,-1.71186 z m -234.43976,109.38151 0.14068,1.01299 0.71514,0.56111 1.11184,-2.41282 0.91847,-0.50465 0.42267,0.85303 1.0664,-0.2168 0.50083,-0.64122 0.91374,0.16726 1.27512,-0.14738 1.32119,0.76478 1.03159,-1.43046 -1.36519,-1.28635 -1.23592,-0.12649 0.0895,-1.0426 -1.51979,0.0697 -0.50435,-1.23869 -0.73208,0.0876 -1.6454,-0.89724 -2.16832,-0.0161 -0.34738,0.59399 -2.4092,-0.54729 -1.69477,-0.15387 -0.62565,0.96239 1.75255,0.54428 -0.021,1.33525 1.2688,1.51808 -1.00015,0.78166 -2.09613,-0.2819 -2.55662,-0.48743 -0.24474,1.1322 1.48778,1.09627 1.29966,-0.65793 1.69484,0.25439 1.31093,-0.24403 1.84492,0.59825 z m 697.42347,127.07318 1.76627,-0.8733 0,-1.7349 -1.62914,1.1092 -0.88028,0.1952 -1.38825,0.7284 0.35617,1.322 1.77523,-0.7466 z m -2.75151,1.9068 -0.68897,0.5827 -1.26306,-0.437 -1.07175,1.213 0.26784,1.5492 1.53111,0.4351 1.72236,-0.4834 0.45931,-1.8403 -0.95684,-1.0193 z m -995.252691,-2.9694 0.344582,-1.7099 -0.574111,0.1647 0,1.7349 0.229529,-0.1897 z M 492.15276,30.20606 l -3.35136,0.16242 -2.21806,-0.15281 -2.15785,1.58204 -1.00877,2.06846 1.40273,1.04171 0.16278,2.00691 1.4956,-0.99072 0.91352,0.57582 -1.00948,0.94256 0.6621,0.57596 3.37268,0.37656 0.0425,0.0302 1.86026,1.33142 -0.40853,1.27311 -0.005,-2.3e-4 -4.12825,-0.19952 -0.52782,1.45428 1.5213,1.21252 -2.90264,0.70445 0.78591,0.91159 4.33792,0.38406 0.0218,0.002 -2.48649,0.50002 -4.07383,2.46467 1.47651,0.47478 1.95143,-0.90618 2.56961,0.26856 1.8366,-1.10465 1.29521,0.46281 4.72911,-0.6459 3.71625,0.0217 2.4987,-1.21989 -1.10917,-1.19151 1.41507,-0.66934 0.33762,-1.44454 -3.36543,-0.42619 -0.79165,-0.87786 -1.70963,-2.4866 -1.90141,-0.34505 -2.47412,-2.49308 -0.22037,-0.21846 -2.87221,-0.13232 2.49727,-1.83583 0.72418,-1.63127 -3.04367,-0.0103 -2.83007,0.27171 2.96895,-2.11794 z m -7.3804,8.31857 -2.97749,-1.31785 -2.32867,0.0873 -2.0995,0.99481 -3.77927,1.69371 1.45067,2.24659 -2.25223,2.36266 3.93186,0.34662 4.92433,-1.34825 2.09965,-2.00403 -0.45806,-1.57346 1.48871,-1.48807 z m 81.56092,49.0317 -0.5139,1.28163 3.38897,0.59029 -0.0278,0.50059 4.00004,-0.25803 0.34724,-0.89331 -1.51384,0.36298 0.0672,-0.52624 -2.0672,-0.2143 -2.16208,0.17201 -1.51857,-1.01562 z M 425.22094,0.55194 l -22.18725,-0.0519 -9.81741,0.0397 -3.54275,0.15787 -9.74697,-0.0197 -9.32598,0.27237 -0.3803,0.20935 6.60472,0.28029 -5.769,-0.17133 -3.90006,-0.0405 -6.62986,-0.18676 -7.36852,0.27799 -3.03095,-0.15958 -8.53617,0.004 -8.5418,0.0799 -6.57964,0.13732 1.15756,0.24467 -4.04114,0.0602 -9.61678,0.41051 -2.42136,0.24833 7.49744,0.23235 -1.07444,0.24377 -10.17431,0.33486 -10.51647,0.35001 -0.38228,0.29331 6.26131,0.31849 11.886,0.20833 -5.59095,0.0429 -7.29405,0.25878 4.827,0.53601 3.22353,0.28083 6.77808,-0.0654 7.42394,-0.0358 5.89734,0.0646 7.45402,0.53123 -0.0323,0.39327 3.53655,0.37458 3.34334,1.07075 2.20469,0.73542 1.68931,0.40845 -3.10136,1.05955 2.31855,0.29088 2.76606,-0.1655 2.48569,0.40492 4.77564,0.77014 -5.66993,-0.32554 -2.57646,0.0176 -1.08658,0.65592 0.18514,0.86256 3.40853,0.42442 2.49547,-0.18613 1.51204,-0.19296 3.17324,-0.45397 -0.58109,1.01155 -1.09708,0.55666 -4.18067,0.50397 -2.74641,1.63719 1.85416,0.50984 -1.00014,1.08972 3.84742,1.40992 0.37903,1.42034 1.40803,1.05958 4.8135,2.09055 1.85363,1.70383 2.69484,0.98055 5.55361,0.009 4.10039,1.49167 3.91416,-0.11266 1.42281,-1.77586 1.24869,-1.4619 -1.11866,-1.34565 4.52966,-1.34157 1.40525,-1.07319 0.0384,-1.11808 2.37992,-0.96271 3.99214,-0.35783 3.69797,-0.37258 1.91928,-0.0622 5.97467,-1.04211 3.86363,-1.51473 2.87334,-0.53625 3.06372,-0.006 8.12872,-0.47309 7.55028,-1.05278 7.44514,-1.11905 -3.82889,-0.0686 -7.32039,-0.0532 3.22614,-0.65039 -0.95017,-0.81456 3.43442,0.68763 2.14164,0.47274 4.9513,-0.23743 -1.05347,-0.96776 -3.6393,-0.70796 -3.75,-0.28302 1.4295,-0.29871 5.49666,0.46363 -0.0377,-0.49838 -3.48006,-0.73481 3.87145,-0.003 3.9163,-0.16393 0.91056,-0.368 -3.22133,-0.41466 6.17058,-0.0721 -3.59825,-0.83934 2.97005,-0.0875 -0.65308,-0.77873 -5.12603,-0.46269 4.56781,-0.26786 4.33939,-0.0345 -3.33522,-0.53115 -0.0874,-0.84309 2.23608,-0.45533 3.24903,-0.47985 -6.43303,-0.0304 8.87844,-0.10831 1.56853,-0.14113 11.32439,-0.41515 -1.56008,-0.23378 -8.32778,-0.10208 -13.48736,0.2069 -7.07217,0.20743 3.04961,-0.32059 -2.3098,-0.18686 -5.39222,0.15901 -8.36717,-0.17863 -9.83278,0.0563 -1.39872,-0.0907 14.9513,-0.0488 10.62698,-0.0218 5.12897,-0.1853 -17.3752,-0.35165 z m 447.89953,215.11659 -0.43839,-1.3763 -4.45953,-1.5209 -1.42383,1.2071 -3.74439,0.8971 1.17578,1.8322 2.48162,0.6836 1.10042,2.2038 4.06622,0.01 0.23283,0.9818 -1.98108,-0.072 -2.99178,1.3324 2.12218,1.8168 0.009,1.6062 0.6306,1.3549 1.06597,-0.3257 0.81993,-1.7959 4.17144,3.4141 2.2907,0.3087 5.38497,3.1246 1.33354,3.0932 0.72418,3.9991 -1.74867,1.0196 -1.17951,2.9847 3.51945,-0.1126 0.68414,-1.0443 2.82124,0.7373 2.47344,3.0047 2.87335,0.1525 1.55604,0.6113 2.18189,-1.257 -0.35427,-2.7009 1.69642,-1.2107 2.353,-1.0466 3.6231,1.6044 1.44277,3.2056 1.57656,2.0103 2.15994,2.3284 2.80588,0.5485 2.38659,0.4094 0.68357,0.9439 1.83939,-0.254 0.30848,-1.0528 -2.9523,-1.5342 0.83314,-0.6885 -2.14472,-0.6204 0.11168,-1.6191 -1.59092,0.1215 -1.80408,-3.884 -2.47989,-2.408 -0.6138,-2.4493 2.55611,-0.396 -0.67509,-1.9522 -4.6282,-2.2775 -0.4226,-2.173 -1.54613,-1.856 -1.91447,-1.8925 -5.13534,-2.1154 -4.81955,-2.5485 -2.98202,-0.7071 -2.06045,-1.324 -2.37554,-1.2904 -2.46941,0 -3.18729,2.2339 -2.32142,3.9237 -2.87493,-2.2137 -0.77572,-5.9864 z m 1.6146,18.7053 0.007,-1.7564 -0.6316,-1.0783 -0.58136,1.2459 -0.49322,1.324 0.27044,2.77 1.42914,-2.5052 z m -11.81467,-11.5183 -3.05652,-1.0786 -3.43088,0.1535 -0.6583,2.0332 1.92164,0.1303 1.56824,-0.2442 2.32027,0.3093 2.34525,1.5235 -1.0097,-2.827 z m -4.95304,-15.64661 -0.26025,-1.51227 -1.64001,-0.32477 -0.19939,-2.02134 -0.92184,1.34698 -0.5584,2.95823 0.82496,4.73432 1.12095,2.34576 0.77773,-0.4443 -1.14435,-1.95524 0.4226,-2.25366 1.43273,0.36269 0.14527,-3.2364 z m -3.99732,16.99731 -0.69045,-1.2193 -2.81005,0.1774 0.54102,1.5902 1.91978,0.6786 1.0397,-1.2269 z m -5.57976,-18.06168 -0.48475,-0.82719 -2.74575,2.68878 -3.19432,0.1552 -3.50208,-0.51382 -2.16955,-1.0934 -2.36133,2.75052 -0.5825,1.52672 -1.39613,5.58247 -0.39561,2.9392 -1.14779,2.4233 0.86271,2.5333 1.16803,0.027 0.42992,3.5654 -0.79639,3.3965 1.19344,1.0821 1.76159,-0.535 -0.11297,-5.28 -0.23499,-4.3102 1.8526,-1.1245 -0.20613,3.6038 2.00275,2.1667 -0.3603,1.4257 0.69103,1.0217 2.72593,-1.4292 -1.34215,3.0214 1.08923,1.2966 1.48282,-1.0839 0.024,-2.4237 -2.4974,-4.2637 0.50743,-1.2698 -2.62861,-4.7418 2.44516,-1.435 1.20607,-2.1695 1.21023,0.5379 0.22824,-1.7055 -5.17985,1.2602 -1.49976,1.6772 -2.48621,-3.293 0.39504,-2.80335 2.42678,-0.53322 4.62877,-0.18488 2.6734,0.72422 2.08758,-0.71216 2.23185,-3.67339 z m -2.23486,42.61798 1.81269,-2.726 2.32601,-1.0497 2.89475,-1.6018 1.02204,-0.9924 -1.0519,-0.4543 -0.86817,0.4577 -1.93786,0.124 -2.39118,0.8233 -0.32657,0.8635 -2.74632,1.4528 -1.19444,2.2276 -0.25006,1.2398 0.33332,0.4372 2.37769,-0.8017 z m -4.2567,-7.4808 -2.48937,1.3428 -1.84916,0.2788 -1.74049,-1.0984 -2.20601,0.7619 0.01,1.3386 3.69472,0.451 4.17359,-1.039 0.4071,-2.0357 z m -6.07758,7.8438 0.16637,-0.9842 -0.97152,-1.1085 -1.45957,-1.1126 -2.59029,0.7184 3.68669,2.5564 1.16832,-0.07 z m -7.82109,-7.8385 -0.74443,1.2961 -1.52302,0.029 -0.95443,2.1077 1.4933,0.029 1.92409,-0.4912 3.2114,-0.735 -0.68902,-1.5573 -1.71623,0.2994 -1.00166,-0.9776 z m -25.76816,-4.8404 -0.37954,-1.3086 -1.1521,-0.2806 -2.24189,-1.4389 -3.37046,-0.2176 -1.90599,3.5169 2.54205,0.2702 0.48188,1.5803 5.06572,1.5117 1.15526,-0.459 2.03892,0.3636 3.21801,1.4011 2.59975,0.6581 2.88226,0.2713 2.51405,-0.1 3.05494,1.4755 3.16949,-1.3954 -3.4072,-2.1793 -4.16713,-0.6691 -1.01099,-2.3814 -5.15343,-1.7687 -0.61208,1.5162 -5.32152,-0.3666 z m -7.79396,-3.4062 0.11053,-5.7064 0.69763,-4.5968 -1.35134,-2.3415 -2.03949,-0.3272 -0.96779,-2.0656 -0.47083,-2.5826 -0.99778,-0.095 -1.59207,-1.286 1.1132,-3.02395 -2.11543,-1.69189 -1.60714,-3.10078 -2.33405,-2.53584 -2.82383,-0.058 -2.63177,-3.97701 -1.53177,-1.53813 -2.14831,-2.50527 -2.45635,-3.60952 -4.30005,-0.71242 -1.78844,-0.14861 0.24403,1.87749 2.89761,4.06899 2.09146,2.07026 1.45182,3.16488 2.50487,2.3305 1.02406,2.89027 0.81591,3.18402 2.43956,3.08701 2.11256,5.1833 1.37947,2.7735 2.10295,3.0114 1.18913,2.2396 3.56654,3.0162 2.33936,3.0822 3.07575,-0.077 z M 460.19807,16.86168 l -4.60868,-0.10475 -4.53001,0.79463 -3.49505,-0.42368 -4.22067,0.82009 -4.32956,-1.01903 -4.20997,0.21993 -1.87686,0.98361 5.82989,0.35731 0.1195,0.45561 -4.91845,0.30354 6.046,0.77554 -2.73469,0.71287 7.75061,0.51758 3.65696,0.24275 2.39392,-0.30045 8.01278,-1.11185 3.6114,-1.205 -3.13863,-1.04889 0.64151,-0.96981 z m 83.41409,63.21999 -2.10869,0.25408 -2.83359,0.31747 -3.25059,-0.26651 -0.38872,1.50114 3.87702,1.49672 1.41249,0.31895 2.12433,1.11688 0.58308,-1.5235 -0.4157,-0.91294 1.00037,-2.30229 z m -17.52879,-8.48509 -1.38895,0.86582 -1.52776,-0.13999 0.63404,1.60613 0.11125,3.43417 1.05176,0.76298 1.13301,-0.95994 1.26305,0.18108 0.39016,-3.76134 -1.66656,-1.98891 z m -239.2016,74.69494 1.95251,-0.0657 -0.46028,-0.96443 -1.47572,-0.84461 -1.86939,-0.31501 -0.63268,-0.11834 -1.16767,0.24478 -0.33332,0.80353 1.58805,1.28315 1.55467,0.56598 0.84383,-0.58939 z m 613.36868,-82.7631 -2.13137,-0.89068 -3.26451,-2.7251 -0.82137,2.03528 -0.80945,3.68033 -2.96795,0.14958 -1.37374,2.08613 0.38212,2.73353 3.08939,-0.0417 1.51168,-3.00537 4.36767,1.87146 2.43281,-2.71226 4.12076,-0.73995 -0.61753,-2.99981 -1.965,1.12593 -1.95351,-0.56741 z m -8.14937,19.74528 -0.0469,-3.02568 2.56975,-2.9112 0.0824,-2.31413 -1.5147,-3.89518 -2.9533,0.51083 -1.17335,1.76895 0.47614,3.19034 -1.74551,3.52825 -1.58001,1.13345 -4.07497,2.94537 -1.85217,-1.41145 -2.90637,5.29862 -2.9701,-0.61557 -5.52953,0.89829 -2.03734,2.07188 -2.79383,1.57812 -1.45699,1.93194 -2.62631,0.95209 1.12842,2.13117 1.75829,0.90883 -0.68127,2.83472 1.34416,1.23096 1.79576,-1.33245 1.85346,-5.32068 -2.81637,-2.27191 3.25174,-0.0589 3.28763,-1.44382 4.83088,-0.67347 0.11541,2.28907 1.86667,1.18463 3.95727,-3.5034 4.88313,-0.18684 3.54931,-1.42918 1.44665,-2.12527 -0.48417,-1.49971 1.04616,-2.36862 z m -17.60545,9.00673 -2.03978,-0.66029 -1.14205,1.28821 -1.57943,-0.35518 -1.53666,1.83714 -0.0224,1.46935 1.8104,0.88622 0.73725,-1.81718 1.42411,-0.71859 1.14019,0.99238 1.56378,-1.86891 -0.35542,-1.05315 z m -148.39002,96.21459 1.16473,-1.04775 0.41843,-3.82778 -1.34344,-3.81812 -1.29306,-2.57669 -1.91949,-2.02946 -1.25732,5.93756 0.49251,5.27816 1.32191,2.92661 2.41573,-0.84253 z m -86.55975,72.64711 -0.68758,-2.3813 -0.73739,-1.5373 -0.96908,-1.5537 -0.91984,1.6189 -0.0513,2.1718 -1.5312,2.5032 -1.17994,-0.4325 0.37824,1.5367 -0.83357,1.8051 -2.28596,2.2043 -1.58317,2.0338 -1.22014,0.048 -1.0285,0.6445 -1.54943,0.7295 -1.3845,0.1311 -0.37236,2.252 -0.97051,1.9801 0.22192,3.2481 0.52624,2.2129 0.64437,1.6561 -0.25019,2.2201 -1.32766,2.6307 -0.007,1.1509 -1.27885,0.5978 -0.49753,2.4809 0.25407,2.4634 0.97812,2.7144 0.18331,2.9992 0.76654,1.7752 2.20514,1.1992 1.59982,0.8538 2.42492,-1.4153 2.25912,-0.7946 1.25545,-3.9125 1.06396,-4.7373 1.71609,-6.531 1.37014,-4.802 1.09396,-4.0935 0.17498,-2.9914 0.76654,-0.8182 0.24661,-1.5044 -0.52983,-2.6365 0.52222,-1.0559 0.94353,2.0893 0.49121,-1.0481 0.27618,-1.7118 -0.71973,-1.6734 -0.44701,-4.3202 z M 571.18785,2.16328 l -7.02326,-0.15219 -2.80919,0.18292 -4.0332,-0.14734 -8.57771,0.17145 3.03958,0.2926 3.98611,0.0114 0.49423,0.18239 8.19244,0.11276 8.05607,-0.0798 4.11904,-0.35367 -5.44411,-0.22052 z m -2.00974,1.78324 -4.00772,-0.17427 -1.103,-0.28273 -5.75656,0.14976 1.67836,0.24418 -1.91694,0.20183 4.90086,0.18517 6.205,-0.32394 z m -17.97858,-1.3319 -3.50272,-0.22728 -4.07862,0.0223 -1.0548,0.22317 -3.95639,0.009 -1.52153,-0.22881 -7.57289,0.23413 2.1605,0.54044 5.41192,0.6263 4.16378,0.22495 -2.51936,0.28352 5.97377,0.50524 3.34737,-0.033 1.3228,-0.67862 2.43697,-0.14852 1.54348,-0.55762 6.99016,-0.2841 -9.14444,-0.51137 z m 434.33383,333.98811 -0.78505,-2.6792 -2.16137,-0.7854 -1.51182,-1.691 -1.03066,0.2395 1.16157,2.1511 2.18563,2.6621 1.32779,1.2318 -0.0749,0.524 1.12497,1.9807 0.12905,1.8949 -0.46853,2.2342 -2.00706,1.0047 -0.0784,1.0378 2.9892,1.14 0.90965,1.5571 -1.60183,2.3038 1.15813,0.4005 0.47686,0.7273 2.14687,-1.1061 1.3766,-1.9158 1.04946,-1.5212 0.40867,-0.528 -0.25823,-1.2266 0.7417,-0.8712 2.12074,0.059 0.8452,-1.6826 0.67322,-2.5851 -1.4076,-0.3388 -1.58762,1.1166 -1.87671,-0.2337 -2.2353,-0.9547 -0.41556,-2.2322 -1.25359,-0.8104 -0.0583,2.0235 -2.01279,-3.1267 z m -4.42121,13.7936 -0.6161,-1.1935 -1.9482,1.2972 -0.41255,1.555 -1.05276,0.7003 -1.23507,2.0469 -1.66714,1.4108 -2.38085,1.4116 -1.99557,1.018 -1.79346,0.5011 -3.49261,2.6019 -1.49244,1.9262 0.46595,0.9442 3.01905,0.1799 1.79892,0.8414 2.55827,0.054 1.38636,-0.7278 2.18132,-1.1469 1.579,-2.6312 0.74386,-1.7271 2.37682,-1.003 2.14314,-0.033 -1.02463,-1.29 1.42082,-1.0865 1.81585,-2.0088 1.03353,-1.2748 -0.003,-1.1663 -0.80328,-1.1784 -1.97547,1.1307 -0.63017,-1.1521 z M 851.5467,180.349 l -0.19493,-1.34683 -0.23312,-1.842 -2.25166,-1.7323 0.16465,2.82594 -1.96327,0.0973 -0.45318,1.6336 -2.11198,1.00338 -0.98186,-1.65834 -1.51469,1.38011 -1.75011,1.03117 -1.09008,3.09409 0.45992,1.07587 2.05557,-2.05028 1.30713,0.14139 0.87261,-1.52216 1.75958,1.73616 -0.84706,1.74742 0.78075,2.6633 3.26867,2.13817 0.79625,-1.72682 -0.88697,-2.71187 1.2988,-1.86446 1.01487,3.74915 0.94625,-3.36581 -0.16364,-2.06004 -0.2825,-2.43611 z m -2.4285,-13.65579 -0.7651,-1.34961 -2.66765,-0.0797 1.69786,2.7644 0.0362,1.37358 -1.6347,-0.28962 0.43495,2.19971 0.83629,0.18891 0.1157,2.56135 1.32119,-0.81655 -0.67968,-2.24603 -0.058,-1.21967 2.14328,0.96407 -0.78031,-4.05086 z m -11.61457,-22.63896 -1.68178,-0.004 -0.90505,3.19086 -0.28767,5.5463 -1.11865,-1.17041 0.10321,3.41033 0.41528,1.55653 1.37143,2.0586 0.35887,-1.29181 0.82912,0.82876 -0.86788,0.91255 -0.14096,1.48507 1.38263,0.79495 2.52296,-0.53179 1.76862,2.15607 0.71472,-1.32272 1.02606,1.89378 2.16496,1.77291 0.28852,-1.66465 -0.90606,-0.86658 0.26441,-1.96035 -3.46949,-1.99185 -1.22875,0.42475 -1.4725,-0.39545 -0.62155,-2.85285 0.4381,-2.87693 1.63757,-1.17938 0.73151,-2.94849 -0.94826,-2.53252 0.45188,-1.46025 -0.25264,-0.89313 -0.85668,0.9154 -1.71193,-1.00362 z m 7.39203,29.48274 0.26527,-3.47102 -2.056,3.51255 0.44743,-2.45089 -1.53178,0.21368 -0.30647,2.2599 -0.6972,1.02131 -0.57231,0.97682 1.71063,2.52574 0.87233,-1.08258 0.87017,-2.30706 0.99793,-1.19845 z m -5.83025,-5.86233 0.43006,1.72631 -0.19723,1.8537 0.0979,1.69124 1.76418,-1.09324 1.28645,-1.54404 0.0538,-1.51674 -1.76776,0.005 -1.66743,-1.12258 z m -0.98932,-4.25919 -0.96462,-1.29822 -2.3797,-0.13226 1.41794,2.74862 1.18971,1.80442 0.73667,-3.12256 z m -8.3967,13.63393 1.45799,-2.50934 1.83394,-2.00667 -0.49494,-2.96478 -1.45599,3.61308 -1.66785,2.52301 -2.00677,2.25688 -1.36167,2.56039 3.69529,-3.47257 z m 103.82068,59.55293 0.38872,-1.03 -1.31172,-1.2491 -1.34674,-2.3352 -0.84147,-0.8363 -0.29857,-1.0975 -0.38442,0.3567 0.59744,2.808 1.21612,2.3384 1.20277,1.4127 0.77787,-0.3677 z m -7.61108,-8.5502 -0.33345,-1.9205 -1.05549,-1.1827 -1.11119,-1.5526 -1.1666,-0.8877 -0.94453,-0.8138 -1.50005,-1.0358 -0.77199,0.8934 2.0062,1.0873 1.58043,1.5776 1.25775,1.2112 0.64624,1.4276 0.52395,2.1796 0.86873,-0.9836 z m -3.21456,3.6088 0.93305,-2.2516 0.0557,-2.0478 -0.56098,-0.6064 -1.6637,0.07 0.30561,2.1758 -1.55058,1.3159 -0.7839,1.2618 -1.58489,0.2816 -0.26986,-1.9579 -0.39863,0.091 -0.41858,1.768 -1.51986,0.2884 -2.49052,-0.5381 -0.23024,1.1404 1.58646,1.0275 2.2775,1.0696 1.47565,0 1.42569,-0.8615 1.51929,-0.8953 0.4381,-1.0335 1.45469,-0.3031 z M 1000.5,10.96059 l 0,-0.81691 -3.54083,0.49488 0.49479,0.3842 3.04604,-0.0622 z m -81.30092,-4.61411 -6.97066,-0.24742 -5.17707,-0.14075 -0.66471,0.30365 5.16187,0.37888 4.44017,0.0872 3.2104,-0.38158 z m -15.68162,-0.44907 -10.04075,-0.48085 -7.33483,-0.039 -3.66477,0.16758 -1.49269,0.633 5.50291,0.62583 4.60659,-0.2304 10.23941,0.0268 2.18413,-0.70299 z m -3.99522,41.17966 -1.1465,-2.3391 0.0711,-2.23146 -0.96176,-2.13717 -0.72174,-1.43842 -1.23622,0.30348 1.10329,1.00881 -2.56774,1.01303 -0.24575,3.07268 1.62752,2.26939 -0.12273,3.16452 -0.64266,1.82813 0.31666,2.65753 -0.30977,2.4472 0.51418,2.14389 1.82131,-1.97859 2.10438,1.53866 0.0784,-1.78202 -2.70785,-2.57168 1.70906,-3.54021 4.11172,0.79996 -2.79484,-4.22863 z m -0.12266,-38.83722 -0.33616,-0.279 -3.94656,-0.39822 -3.47322,0.0955 -2.63497,0.41409 0.4862,0.0562 5.69299,0.11892 4.21172,-0.007 z M 792.37631,3.59996 793.20119,3.3001 786.1606,2.89863 l -2.08741,-0.0447 -2.2818,0.0774 -5.07433,0.96304 L 792.37631,3.6 z m -14.26587,-0.42046 0.68582,-0.61658 -6.39668,-0.60558 -5.39709,-0.29172 -6.00899,0.12884 -7.21275,0.40962 3.78981,0.12407 2.13188,0.47113 4.61031,0.26407 7.73708,0.20574 6.06061,-0.0896 z m -117.78907,7.91735 -5.31349,-0.98237 -0.56528,-0.95295 4.35403,-1.05024 4.13971,-1.00723 8.62896,-0.92517 8.48283,-0.44224 9.84235,-0.44476 1.86566,-0.27121 -1.93097,-0.3354 -5.40579,0.10926 -4.75725,0.31763 -9.24534,0.16365 -9.17056,0.57847 -6.21308,0.49472 0.75146,0.43925 -6.65047,0.88569 2.55367,0.12719 -5.50956,0.91286 0.0947,0.60723 -2.84034,0.24395 0.40595,0.62664 5.02811,0.31769 0.73711,0.53579 9.07668,0.15905 1.64087,-0.1075 z m -17.77641,-9.01932 1.0743,-0.092 -4.1199,-0.12965 -2.61828,0.0973 -1.59551,0.1443 -0.56758,-0.16214 -4.22038,0.007 -5.42273,0.10922 6.18194,0.0184 -1.5823,0.19275 3.00914,0.15053 3.24672,-0.10533 0.38743,-0.10285 2.49798,-0.047 3.72917,-0.0808 z M 14.349306,16.67212 14.588194,15.76878 7.305556,14.37186 0.5,13.33905 l 0,5.77091 1.575889,-0.65952 -1.253028,-0.71871 3.326833,-0.35794 -0.603361,0.56151 1.509417,0.53609 3.159083,-0.19958 2.820834,0.25182 0.621194,0.67544 3.693361,0.46028 2.116889,0.55679 2.601417,0.0481 1.112028,-0.33355 0.06875,-1.53232 4.553277,-0.159 2.754139,-0.66277 -5.438139,-1.38512 -7.540305,-0.21589 0.644416,1.06454 -1.873388,-0.36801 z M 4.128389,10.88674 6.990069,10.59784 7.227931,10.43467 3.210194,10.09697 0.855903,10.09497 0.5,10.14368 l 0,0.81691 3.628389,-0.0739 z m 832.970591,118.31378 1.67274,-5.44202 0.48174,-2.03014 -1.26723,-0.99864 -2.22323,2.54274 -1.6347,3.32197 0.31638,2.52414 1.46387,2.89118 1.19043,-2.80923 z M 75.482461,33.19794 77.885702,32.24847 76.708915,31.635 l -1.844274,-0.13279 -1.483473,0.29999 -2.522815,0.70451 0.429417,0.93917 1.420313,0.52248 2.774378,-0.77042 z m -7.043878,108.82475 0.888723,-0.5466 1.085277,-0.7463 0.06683,-0.19354 -0.707917,-1.22191 -0.450722,-0.46631 -0.493389,-0.30178 -1.063639,-0.58739 -0.211194,-0.0643 -0.161084,0.32412 0.191639,0.68412 -0.482222,0.56791 -0.138306,0.38788 0.459473,1.27086 -0.07942,0.97758 0.690222,0.50151 0.405722,-0.58584 z m -1.492083,-5.43555 0.232222,-0.41599 -0.72625,-0.53101 -0.987416,-0.3287 -0.272139,0.29649 0.02467,0.21612 0.319278,0.28144 0.478556,0.72972 0.931083,-0.24807 z m -1.886056,-1.84361 -1.36675,-0.14758 -0.208166,0.42073 1.488555,0.10035 0.08636,-0.3735 z m -2.484972,-0.50166 -0.802166,-1.13917 -0.232195,-0.22109 -0.742917,0.47451 0.107917,0.13754 0.353139,0.78178 0.966861,0.12129 0.198806,0.0444 0.150555,-0.19928 z m -4.700805,-2.27137 -0.05714,-0.79937 -0.640306,-0.0728 -0.423805,0.33602 -0.143723,0.25006 0.935528,0.62627 0.329445,-0.34016 z m -17.31679,-104.17721 -0.264626,-0.70822 -2.203785,-0.16599 -2.743013,0.31399 1.685943,0.5019 1.82102,0.34783 1.704461,-0.28951 z m -17.090257,-6.76616 -0.165149,0.62042 0.661243,0.14623 2.449104,-0.0964 1.057859,0.30201 2.114212,0.36465 2.104164,-0.3549 0.229171,-0.1816 -2.758517,-0.22185 -2.24613,-0.43508 -1.731448,0.169 -1.714509,-0.31246 z m 943.26815,250.5259 -1.74465,-2.0435 -0.10221,0.9546 0.93104,1.5559 0.91582,-0.467 z m -2.04768,-5.4637 -1.32938,-1.1009 0.0576,2.7409 0.39805,0.9853 0.57791,-0.1933 0.74673,0.4472 -0.45088,-2.8792 z M 527.0556,68.98953 l -0.47226,-2.33845 -1.78887,1.0374 -0.56055,1.01566 0.64309,1.8544 1.26119,0.56495 0.9174,-2.13396 z m -14.62879,6.45861 0.0789,-0.15824 -0.0193,-0.056 -0.24821,-0.32679 -0.46278,-0.12112 -0.57156,0.0342 -0.0222,0.0753 -0.008,0.17052 0.0681,0.05 0.27913,0.0366 0.85449,0.32845 0.051,-0.0329 z m -3.18983,0.14724 0.0372,-0.13225 0.0895,-0.0705 0.0214,-0.0809 -0.0879,-0.0508 -0.007,-0.0469 0.092,-0.10468 -0.10797,-0.0268 -0.70529,0.17665 -0.33285,0.15196 -1.14909,0.68856 -0.004,0.11706 0.0675,0.0905 0.17904,0.0283 0.11312,0.15028 0.21213,-0.15084 0.16167,-0.0729 0.18474,0.0402 0.12614,0.0911 0.0662,0.28595 0.0833,0.0721 0.27859,0.0478 0.47987,0.19219 0.22705,-0.0917 0.25038,-0.15283 0.134,-0.25869 0.1549,-0.22461 0.18311,-0.20402 0.13102,-0.20131 -0.0358,-0.18081 -0.1473,-0.0457 -0.1492,-0.0268 -0.28076,0.0855 -0.26611,-0.0951 z m -4.72249,2.49549 0.13699,-0.0398 0.35861,-0.30603 -0.029,-0.13971 -0.13537,-0.0967 -0.5995,0.11564 -0.12804,0.14282 -0.008,0.14221 -0.12099,0.024 -0.0914,0.20031 0.0933,0.0716 0.42236,0.0627 0.10065,-0.17709 z m 0.41314,0.71193 -0.004,-0.085 -0.26611,-0.0302 -0.16819,-0.16264 -0.0532,0.0825 -0.0423,0.0815 0.0106,0.11688 0.27561,0 0.18392,0.0352 0.0632,-0.0383 z" />
</svg>
