<?xml version="1.0" encoding="UTF-8" standalone="no"?>
<svg
   xmlns:dc="http://purl.org/dc/elements/1.1/"
   xmlns:cc="http://creativecommons.org/ns#"
   xmlns:rdf="http://www.w3.org/1999/02/22-rdf-syntax-ns#"
   xmlns:svg="http://www.w3.org/2000/svg"
   xmlns="http://www.w3.org/2000/svg"
   xmlns:sodipodi="http://sodipodi.sourceforge.net/DTD/sodipodi-0.dtd"
   xmlns:inkscape="http://www.inkscape.org/namespaces/inkscape"
   enable_background="new 0 0 1000 2001"
   height="506.41113"
   pretty_print="True"
   style="fill:#483737;stroke:#ffffff;stroke-linejoin:round"
   version="1.1"
   viewBox="0 0 1001 506.41113"
   width="1001"
   id="svg2"
   inkscape:version="0.48.4 r9939"
   sodipodi:docname="eckert_iv_joined.svg"><sodipodi:namedview
   pagecolor="#ffffff"
   bordercolor="#666666"
   borderopacity="1"
   objecttolerance="10"
   gridtolerance="10"
   guidetolerance="10"
   inkscape:pageopacity="0"
   inkscape:pageshadow="2"
   inkscape:window-width="640"
   inkscape:window-height="480"
   id="namedview19"
   showgrid="false"
   inkscape:zoom="0.11794103"
   inkscape:cx="500.5"
   inkscape:cy="252.20556"
   inkscape:window-x="0"
   inkscape:window-y="0"
   inkscape:window-maximized="0"
   inkscape:current-layer="svg2" />

utf-8<defs
   id="defs4">
utf-8utf-8<style
   type="text/css"
   id="style6">path { fill-rule: evenodd; }utf-8utf-8</style>

utf-8
utf-8utf-8
utf-8</defs>

utf-8<metadata
   id="metadata8">
utf-8utf-8<views
   id="views10">
utf-8utf-8utf-8<view
   h="2001.0"
   padding="0"
   w="1000"
   id="view12">
utf-8utf-8utf-8utf-8<proj
   flip="auto"
   id="eckert4"
   lon0="65.3146660706" />

utf-8utf-8utf-8utf-8<bbox
   h="2.64"
   w="5.22"
   x="-2.61"
   y="-1.31"
   id="bbox15" />

utf-8utf-8utf-8</view>

utf-8utf-8</views>

utf-8<rdf:RDF>
  <cc:Work
     rdf:about="">
    <dc:format>image/svg+xml</dc:format>
    <dc:type
       rdf:resource="http://purl.org/dc/dcmitype/StillImage" />
  </cc:Work>
</rdf:RDF>
</metadata>

utf-8<path
   inkscape:connector-curvature="0"
   id="---"
   data-name="---"
   data-id="---"
   d="m 600.3426,90.19149 1.09884,0.99577 1.45649,0.37462 1.67224,1.2034 1.0394,2.23973 -0.1217,1.41068 -2.68485,1.73137 -2.23079,-0.29613 -2.86729,0.51263 -3.83761,-1.28454 -4.76902,-2.32852 -4.15773,0.07 -2.80486,0.93213 -2.74684,2.1486 -4.88208,-0.43957 -0.75654,2.53136 -3.89891,0.13374 -2.47733,3.21262 1.79198,1.61569 -0.97559,2.64397 2.07397,1.89718 1.87789,3.42332 2.82308,-0.0622 2.70355,1.84408 1.75102,-0.41151 0.43992,-1.43614 2.80707,0.11609 2.31584,1.85927 3.89682,-0.39002 1.53621,-1.99177 2.26914,0.79511 1.54283,-0.29447 -0.8138,1.30028 1.15716,1.57499 -0.45662,1.43423 0.57391,2.67862 -0.0343,0.1224 -1.00825,2.48118 -0.60669,2.88427 -0.0686,0.0368 -0.27698,0.89992 -0.24357,2.69124 -0.524,1.67419 0.20216,0.20351 -0.65011,1.18373 10e-6,1e-5 -1.21581,0.90677 -2.09151,-0.20391 -2.21072,-0.85024 -0.50483,1.17615 -0.89205,-1.78445 -1.92843,-0.45331 -2.31155,0.29601 -1.00049,1.02988 -1.94706,1.14092 -1.27812,-0.56108 -2.7248,-1.06314 -2.62939,-0.9496 -3.52289,0.0593 -0.73552,-1.18366 -2.66163,-0.41987 -0.88683,-0.60998 -0.98574,-0.0151 -1.01554,-1.59523 -3.6202,-0.72845 -1.78373,0.48547 -1.79647,1.67131 -0.72363,1.74051 0.78237,2.75254 -1.17898,1.65929 -1.24674,0.93808 -2.93284,-1.79641 -3.82286,-1.50807 -2.41645,-0.69779 -1.3903,-3.18416 -3.5773,-1.59367 -2.22899,-0.5938 -1.09511,0.3061 -3.14286,-1.22348 -1.02142,-0.55474 -0.7217,-1.68296 -1.36051,-0.0601 -0.56375,-1.92209 1.66038,-1.76603 0.22985,-3.0245 -0.9338,-0.86452 -0.0433,-1.60491 1.22925,-1.69361 -0.21107,-0.66214 -2.14645,1.26954 0.0106,-1.74419 -1.82385,-0.41257 -2.76983,1.38923 -1.76412,0.20942 -1.07455,-0.80192 -2.76276,0.0266 -2.40887,1.35941 -1.31588,-0.51277 -4.27957,0.28003 -4.38669,0.61593 -2.49481,1.05375 -1.63979,1.43258 -2.81512,0.60489 -2.51723,1.90705 -1.13352,-0.0374 -2.69367,-0.77134 -2.48335,0.24145 -1.54556,-1.48019 -1.91585,-0.0167 -0.86483,2.14302 -1.82921,3.63589 -1.98187,1.45958 -2.68155,1.61791 -1.76426,2.40229 -0.40904,1.88032 -1.09677,3.0866 0.53911,4.49417 -2.31543,3.03579 -1.37097,0.97194 -2.1894,2.50028 -2.51146,0.40499 -1.3992,1.41005 -0.0511,0.0515 -1.83651,3.7647 -1.84665,1.34864 -1.05738,2.29323 -0.13287,1.9822 -0.79316,2.17631 -0.93623,0.6023 -1.59783,2.38109 -1.02927,2.65089 0.13308,1.2745 -0.96094,1.96618 -1.08654,1.02991 -0.18776,1.75437 -0.17033,1.60258 1.39684,1.64082 0.65684,1.8092 -0.33027,1.90169 0.27933,1.89916 0.20338,3.78572 -0.43606,3.61886 -0.82097,1.89967 0.19045,2.07947 -0.70657,1.98486 -1.41001,2.71847 -1.24154,0.7364 1.35907,1.38139 1.08682,3.02543 -0.39081,1.72638 0.40225,2.98784 0.16289,0.83487 0.83837,0.8285 -0.0264,0.59442 0.62425,1.10165 1.1745,0.25847 1.47019,1.63509 0.80532,0.64119 0.39802,0.86236 0.29516,1.73091 0.6901,0.77908 0.71191,0.508 1.07315,1.53556 1.20627,2.32322 0.31575,2.90517 0.47885,1.43709 1.44752,2.10881 2.01365,1.58682 0.75613,0.29229 1.87962,2.54337 2.38783,2.1583 2.54703,3.00442 2.89847,1.88257 0.73847,-0.0348 0.54433,0.1038 2.79477,-1.44874 1.95939,-1.13962 3.33922,-0.68913 1.80632,-0.0456 1.96466,0.77185 1.28201,-0.0402 2.51083,1.12145 2.53993,-1.14542 1.56691,-1.35367 4.41534,-2.30961 2.26636,-0.84132 2.32625,-0.46 2.48443,0.002 2.11536,-0.0487 1.99986,2.5987 0.93428,2.85704 1.5144,2.47049 2.25502,0.0864 1.08158,-0.88523 1.07027,0.20769 2.92146,-1.42131 -0.0286,1.09146 0.72375,0.56644 0.57842,1.77036 1.28842,0.67024 1.10953,2.61336 -0.40488,3.12223 -0.96301,4.44242 0.52898,0.59664 -0.5672,2.9339 -0.68576,2.88091 -0.61672,1.2651 -0.0915,1.3146 1.7081,4.0867 1.85723,3.2633 2.8851,3.9897 2.29567,4.1833 0.73638,2.9676 0.38676,1.2233 -0.27277,0.7664 1.39205,2.4936 0.55456,2.6361 0.81778,3.8 -0.87892,1.5578 -0.15908,0.8163 0.66407,2.3546 0.71924,2.3783 0.82073,1.4002 0.11731,2.2179 -0.33439,2.8947 -0.92223,1.7365 -1.64228,2.55 -0.68908,1.5951 -0.95808,3.5028 -0.17113,1.6647 -1.01726,3.5443 -0.44167,3.3951 0.21816,2.4219 0.11343,2.9485 2.17238,3.7403 0.54904,2.3985 1.33734,4.567 1.33452,3.1324 1.02251,1.5587 0.29035,2.0583 -0.0759,4.4971 0.72148,5.7509 0.57262,2.6902 0.4623,3.5993 0.94806,2.6872 1.87945,2.7682 1.70375,4.732 0.004,0.01 1.18682,3.0648 1.55992,3.3668 -0.0844,2.7454 -0.88897,0.6495 0.71967,2.3822 -0.1377,2.075 0.29145,0.9482 0.15367,-0.4889 1.03145,1.5725 0.88093,0.064 1.02502,1.2521 1.19492,-0.084 1.70801,-1.3275 2.27621,-0.5572 2.80716,-1.3921 1.07313,0.1848 1.62374,-0.4307 2.79135,0.6804 1.35461,-0.672 1.55204,0.5219 0.42195,-0.9808 1.35553,-0.1843 2.86917,-1.3746 2.13338,-1.6169 2.05493,-2.1396 3.3252,-3.7004 1.73747,-2.5844 0.90701,-1.8606 1.29264,-1.8453 0.56838,-0.5263 1.98719,-1.8416 0.8367,-1.6509 0.57565,-3.0499 0.89464,-2.6839 0.38881,-1.9471 -0.6715,-0.2493 -0.11001,-1.5629 1.29472,-1.3745 3.42045,-2.0168 2.34085,-1.262 1.24169,-1.3307 0.5262,-1.5591 -0.59346,-0.6425 0.57396,-1.7459 0.34784,-3.698 -0.49727,0.1889 0.0457,-1.1308 -0.38844,-2.2212 -1.11373,-2.8761 0.40343,-2.7159 1.1899,-0.8822 2.092,-2.7161 1.105,-0.699 3.37027,-4.1186 3.23239,-1.8674 2.62095,-1.4646 1.90601,-2.393 1.22933,-2.6853 0.97962,-2.7686 -0.39137,-1.9009 0.18317,-6.0817 -0.19704,-3.4247 0.27068,-3.8964 -0.38812,-1.7561 0,0 -10e-6,0 -0.9984,-0.8571 -1.03243,-3.8688 -0.90649,-2.4629 0.23702,-1.8785 -0.12913,-1.1958 0.83455,-2.3777 -0.0599,-1.0243 -1.76935,-1.4359 -0.12016,-2.2346 1.38766,-4.8633 1.15503,-1.3044 0.58655,-2.6291 0.92477,-1.5948 0.42846,-2.786 1.05987,-0.2898 0.70993,-1.6503 1.9866,-1.5796 0.64245,-0.9367 0.65971,-2.0864 3.09383,-4.79343 2.62286,-3.00977 4.19695,-3.92826 2.7918,-3.20163 3.2382,-5.39169 2.31762,-4.42151 2.26677,-5.77967 1.57669,-5.02778 1.18621,-4.38983 0.60783,-4.2403 0.52593,-1.41487 -0.11078,-2.05719 0.1419,-2.27387 -0.12097,-1.0799 -1.06007,0.0107 -1.25394,1.33717 -1.46378,0.39341 -1.26111,0.58077 -0.89086,0.0771 0,-2e-5 -1.58757,0.1374 -0.96621,0.71341 -1.37693,0.25754 -2.41095,1.2158 -3.02991,0.46401 -2.60044,1.00195 -1.39225,-0.0131 -1.33138,-1.63931 -0.61733,-1.61801 -0.94203,-0.72075 -1.24861,-1.06929 1.55445,-0.93467 0.013,-1.62067 -0.71882,-1.20698 -1.43023,-1.17217 -0.93903,-1.33787 -1.6251,-2.24441 -1.66387,-2.21386 -3.99559,-3.66074 -1.6273,-1.8838 -0.96625,-3.54247 -1.87532,-4.45294 -1.60133,-1.41778 -1.11152,-0.94364 -1.30565,-4.56336 -0.66512,-3.91836 0.55423,-0.68881 -1.15209,-3.71645 -0.53771,-0.77399 -3.43583,-3.38317 -0.27315,-2.44114 0.4907,-0.65356 -2.76722,-4.13729 -1.04075,-2.10212 -1.16505,-2.01785 -2.52325,-5.74842 -1.96971,-3.68371 -1.45227,-3.843 0.24443,-0.329 2.37861,5.22355 1.35602,1.63536 1.00001,1.18494 0.57079,-0.64147 0.55924,-1.90921 0.32027,-2.75965 0.61102,-1.46316 -0.35736,-0.94372 0.35737,0.94373 0.14037,0.52664 -0.19234,1.45407 9.9e-4,1.27834 -0.23244,2.00968 1.3362,-0.0176 1.60278,2.5236 1.91031,2.97517 1.29922,2.7561 0.86334,0.82928 0.92035,1.92919 -0.0766,0.8428 1.07384,2.14047 1.53507,0.77402 1.39957,1.4626 1.90661,4.1702 0.0599,2.23796 0.5185,2.63101 2.08793,3.62032 1.27278,0.62524 2.09504,2.62422 0.99707,3.11629 1.69113,3.21631 1.52102,1.3772 0.31349,1.53516 0.91046,1.16031 0.46346,1.64602 0.22627,1.68455 -0.29226,0.74558 0.38889,1.76817 -0.546,0.18831 0.8902,1.59301 0.70243,2.87067 0.51669,1.14675 0.0295,2.12688 0.83865,2.27603 1.94403,0.19828 0.86668,-0.52909 1.38737,0.086 0.38219,-0.99128 0.71738,-0.28426 0.55621,-1.02821 0.69314,-0.22117 2.33229,-0.20214 1.73693,-0.74907 1.53682,-1.6135 0.85027,0.22984 1.21496,-0.21417 2.32462,-2.73907 4.328,-1.80801 2.65439,-1.63418 -0.0306,-1.31854 0.40885,-1.71463 1.92738,-1.03633 1.26433,-0.21828 1.74947,-1.29979 1.55965,0.36316 1.25193,-1.06916 -0.14702,-1.55374 0.99886,-0.96751 1.72407,0.031 0.55934,-0.81025 0.0965,-1.86799 1.58832,-1.43086 1.27141,0.0126 0.21414,-0.46997 -0.59539,-2.55319 0.24184,-1.93223 0.47574,-0.90739 1.26915,0.19954 0.73955,-2.60276 1.01851,-1.21274 0.31508,-1.0628 0.72902,-2.25269 -0.0972,-0.84172 -1.03731,-0.47753 -0.89072,-1.25088 -1.50108,-2.15468 -1.70087,-0.68385 -2.06025,-0.48989 -1.69108,-1.35968 -1.54426,-2.5515 -0.7541,-2.93971 0.26278,-0.67339 0.0466,-1.53137 -0.37848,-0.32138 -0.61556,1.26123 -1.40822,2.28877 -1.72087,2.389 -1.55513,2.52716 -1.65733,-0.11065 -2.26235,-0.0978 -2.06303,0.59013 -0.21804,-1.02654 -0.46328,0.18173 -0.68104,-1.42754 0.331,-2.19382 -0.31163,-2.17678 -0.96239,-1.16284 -0.68984,0.3989 -0.49448,1.94807 0.49748,2.71099 -0.51215,-0.91442 -0.50432,-1.22137 -0.9026,-1.04221 -0.49152,-1.24731 0.12015,-1.2345 -0.35129,-1.52647 -2.03164,-1.55147 -0.62379,-1.29361 -1.43005,-0.83992 -1.45548,-3.16138 -1.22352,-2.75212 0.12795,-0.83008 -0.77344,-1.60226 1.60784,0.17782 0.79931,-1.41377 1.86304,1.20007 1.35219,-0.5872 2.65211,4.84833 2.26404,3.4739 2.73101,1.04656 3.10015,2.83185 3.46364,1.22603 2.47841,-1.78807 1.97932,-0.65893 1.38382,0.65349 1.78557,4.5392 3.12347,0.48273 3.07417,0.85452 5.26171,1.12419 3.74671,-0.52214 4.39759,-0.0694 4.89005,-0.70003 2.53331,2.83815 1.21397,2.68852 2.13711,0.94808 3.66632,3.19037 1.01897,1.4791 -1.12464,1.36478 4.20563,4.59124 1.9972,0.45542 3.68587,-2.27156 1.01998,3.55646 0.58869,4.61937 1.41988,4.9027 1.97398,7.46516 3.06309,5.31761 0.70981,2.42524 1.12045,4.86761 1.78869,3.74903 1.12206,1.84879 1.35823,3.94842 1.65058,5.49443 2.86845,3.6708 1.06579,-1.13051 0.78977,-2.67295 2.49079,-1.11336 -0.93806,-1.2937 1.07161,-2.99085 1.43724,-0.18973 -0.50802,-6.64523 0.8579,-3.70517 -0.454,-3.2281 -1.0971,-5.04739 0.50873,-2.95147 1.27468,-0.20401 2.34089,-1.38366 1.27012,-0.95096 -0.21304,-1.77291 2.43905,-2.51847 1.75519,-2.42165 2.44691,-4.50252 3.57252,-2.56683 1.10873,-2.25089 -0.63111,-2.85405 3.24592,-0.7861 1.87315,0.0476 0.14907,-1.3809 1.11995,0.33841 0.84916,0.41241 0.27554,-0.68822 1.3029,0.7667 0.47871,-2.10224 -0.53755,-1.55413 2.54579,0.15067 1.55335,2.19573 0.85391,1.82001 0.50258,1.92995 1.12933,1.97938 2.47777,3.10557 1.69267,0.48889 -0.11118,1.37612 2.86141,4.41384 1.11489,3.59739 -0.28918,4.77869 1.84243,0.90622 1.60483,0.34438 2.78027,-2.75375 1.55029,-1.93363 1.6565,3.19483 1.15617,4.8888 1.47989,4.64763 1.3666,2.01636 0.23505,4.24815 1.17534,2.31177 -0.57486,2.99721 0.52828,2.90875 -0.52071,3.76388 -0.12481,2.45191 0.68396,2.18502 0.30105,-2.31201 1.49231,1.86549 1.64062,2.22203 0.60111,1.95068 1.19926,1.51226 0.71174,1.67152 -0.16664,2.87254 1.1108,2.15245 0.51331,3.27134 1.7135,2.64356 0.38359,2.01438 3.40272,3.13914 2.71117,2.93067 1.9979,-0.26396 0.0363,-1.33761 -1.17481,-3.49794 -1.01951,-1.08974 -0.27069,-2.33997 -0.31767,-1.359 0.23643,-1.79754 -0.26944,-2.65972 -1.30468,-2.64272 -1.7868,-2.38151 -0.66765,-0.36843 -1.57573,-2.04578 -1.73206,-0.45805 -1.71108,-2.25565 -0.73896,-3.40577 -1.41365,-3.5863 -1.83872,-0.12326 -0.42866,-2.83994 0.59891,-3.46059 0.93323,-5.70867 -0.26371,-4.2861 2.45541,-0.0228 -0.0561,3.0604 2.38222,-0.0727 2.70921,1.79116 1.83999,4.03628 1.33994,2.03961 2.40105,0.57187 2.28814,2.22637 -0.55535,2.65817 1.22532,2.51909 3.19519,-3.65659 1.985,-3.26886 2.95531,-2.52102 2.057,-2.57514 -0.44828,-6.86039 -2.26913,-7.18437 -2.15723,-3.10586 -2.8931,-2.3839 -3.42061,-5.02713 -2.82261,-4.03884 0.11803,-2.65037 1.59783,-3.59744 3.00102,-3.24581 1.16526,-0.61646 3.93749,1.2125 -0.34189,1.46711 1.28399,2.75887 1.47984,-0.22296 0.10315,-4.01096 2.77694,-0.58095 3.40911,-1.89491 1.11739,-1.87611 1.22968,1.22485 1.28139,-1.67625 2.97743,-0.43256 3.01708,-3.16439 2.84634,-3.45565 1.29596,-4.44539 0.76553,-4.85723 0.73011,-3.98006 1.39562,-0.32923 -0.26507,-2.89681 -0.59053,-2.96293 -1.95861,-1.12525 -1.31151,-1.92839 1.31887,-0.98482 -0.92821,-2.67 -2.82267,-2.7471 -2.85398,-3.25831 -2.40545,-3.47356 -3.59651,-1.92964 0.32998,-2.44611 1.7897,-1.74496 0.39916,-1.8702 3.23852,-0.96424 -1.23618,-1.80269 -1.71119,-0.0915 -2.89891,-1.33422 -1.78881,2.45049 -2.48945,-1.00414 -0.77513,-1.53837 -2.36053,-0.56112 -2.40196,-2.30295 0.57278,-1.58136 2.43255,-0.16249 0.52858,-2.17636 1.72022,-2.32909 1.61408,-1.17658 2.23145,1.74778 -0.89228,2.25489 1.17557,1.31271 -0.60667,1.56811 2.31392,-0.92457 1.10881,-1.57757 3.07668,-0.97795 1.65885,0.90197 1.67511,0.36714 0.44435,0.55135 0.25605,1.82553 0.53219,0.62032 -0.41139,0.39907 0.0177,1.49998 0.95165,0.54508 0.81612,0.31331 0.39575,0.64436 0.62126,-0.28443 0.005,-0.64312 1.56216,0.65134 3.15492,2.94159 -1.65503,0.58145 2.77866,3.61095 0.66375,2.62001 1.10989,1.91165 2.23091,-0.30114 1.46151,-1.45569 2.06945,-0.67278 0.1224,-1.91949 -1.87031,-3.99625 -1.7059,-2.23209 -4.20146,-4.03158 -2.19946,-1.48837 -1.29665,-0.55014 0.10906,-0.37333 -0.66795,-1.45959 0.63744,-0.90255 1.40592,-0.55151 0.43256,-0.98926 0.13483,-0.58896 0.91221,-0.73666 -1.41234,-2.38321 0.12099,-1.12313 0.45684,-1.11398 1.06954,0.19708 4e-5,4e-5 0,-3e-5 10e-6,0 -2e-5,-1e-5 -0.24069,-1.09151 1.94723,-2.38762 2.52438,1.58383 1.55629,-0.0424 2.17276,-1.9106 0.41522,-1.91186 0.94016,-3.70085 0.83264,-3.68422 -0.71144,-2.16478 0.36421,-4.46995 -2.70583,-4.84306 -2.71792,-3.54922 -0.65597,-2.92336 -2.25614,-2.4554 -6.21487,-3.12731 -2.71117,-0.1827 -0.20153,1.41185 -2.82472,-0.62971 -2.74012,-1.76178 -3.96111,-0.35241 2.54228,-6.4566 1.77968,-5.13814 6.43639,-0.76328 7.30353,0.44211 1.24536,-1.25943 3.90953,0.38776 2.06925,1.86376 3.12794,-0.26703 4.14778,-0.67473 -3.77297,-1.57082 0.0376,-4.19218 4.46318,-0.83063 5.93141,3.0382 1.79631,-2.71736 -1.57891,-1.99468 2.31581,-0.20208 3.19834,3.4297 -1.21317,1.98936 -0.38526,2.61353 0.069,3.2747 -2.787,0.59027 1.33578,1.24116 -0.0768,1.60057 3.06861,3.7861 7.74989,6.25297 5.11209,4.22537 2.77957,2.02712 0.81839,-2.73639 -2.19543,-2.94159 2.77848,-0.6994 -2.57383,-3.23883 2.49477,-1.42983 -2.27816,-1.19577 -1.61544,-2.29839 2.00181,-0.10103 -4.34693,-3.91708 -3.28777,-0.5937 -1.38929,-1.06443 -0.50864,-2.51502 -1.49242,-1.6817 3.41811,0.34871 0.66013,-1.08628 2.27902,0.94132 3.00302,-1.98071 5.58387,1.74379 -0.79664,-1.14831 0.97884,-1.53367 0.76083,-1.73048 1.49582,-0.28442 3.1921,-1.8189 4.85117,0.52303 -0.46878,-0.63564 -1.85892,-0.98494 -2.04059,-0.63606 -4.50515,-1.91977 -4.01106,-1.21906 3.02086,0.16683 0.93629,-0.99557 -0.007,-0.0121 -16.65612,-8.47905 -4.68043,-0.86627 -7.76572,-0.93268 -3.87113,0.11606 -7.48934,-0.54033 0.95587,0.86106 4.23926,1.26226 -1.18483,0.64195 -7.08824,-1.76718 -3.32655,0.21718 -4.53994,-0.38442 -3.42156,0.0512 -1.86415,0.40154 -3.55543,-0.55753 -2.60908,-1.40657 -3.25638,-0.77889 -4.53755,-0.30688 -7.17522,0.3527 -7.97943,-1.40908 -3.87678,-1.0655 -19.69481,-1.13618 -0.99075,0.75449 4.64493,1.66314 -3.6613,-0.25517 -0.46744,0.51174 -4.80663,-0.56112 -2.40649,0.48999 -4.60613,-0.81706 1.55798,1.92819 -4.38511,-0.75546 -4.97254,-1.43063 -0.21928,-0.74291 -2.97369,-1.11049 -4.78773,-0.89104 -2.99973,0.009 -4.56717,-0.29147 2.30518,1.289 -8.41743,-0.25454 -1.88782,-0.78931 -6.55425,-0.2747 -2.55069,0.26275 -0.0722,0.43629 -2.83572,-1.06846 -1.14393,0.31165 -3.50908,-0.41493 -2.72577,-0.22816 0.55749,-0.47855 3.26543,-0.87675 1.16038,-0.45738 -1.11461,-0.78641 -2.60253,-0.55304 -5.5593,-0.70273 -5.32242,-0.019 -0.94855,0.34786 -1.91531,-0.70123 -4.51233,-0.21322 1.73476,-0.33886 -3.99179,-0.43754 -3.06125,0.55566 -0.5459,0.59151 0.67459,0.61536 -3.37815,-0.024 -2.69746,0.77815 -2.07066,-0.3316 -4.55452,0.13655 0.0691,0.40713 -4.51877,0.20041 -2.41113,0.75828 -2.06118,0.0426 -0.66053,1.03549 2.69614,0.84842 -3.78864,0.21585 -4.62494,-0.0728 -2.85486,0.33448 2.38219,1.81691 3.41248,1.47903 -4.71925,-1.01792 -3.8849,0.0935 -2.46806,0.70097 2.25435,1.31477 -2.42938,-0.3366 -1.06149,-1.73815 -2.0661,-0.9678 -0.90863,0.0392 1.78943,1.24658 -2.21496,1.21572 4.02592,1.51421 0.23669,1.92846 1.46846,1.09781 2.33688,0.16418 0.23779,1.33363 2.18486,1.17142 -0.93184,0.99726 0.30767,1.05166 -1.8295,0.55184 -0.22043,0.78059 -2.60696,-0.32043 1.62923,-3.01918 -0.28951,-1.37408 -3.28771,-1.23596 -1.96345,-2.67146 -1.88198,-1.31285 -1.78327,-0.58724 0.36451,-1.46113 -1.42312,-0.97425 -5.52728,-0.45387 -1.06885,0.33794 0.32144,1.59917 -2.05943,1.65298 0.58637,0.59825 2.3338,1.48815 0.1161,0.92484 2.5627,0.19331 0.40641,0.42014 2.90809,1.06032 -0.49445,1.06765 -9.10773,-2.30753 -3.24422,-0.61607 -6.32372,-0.59015 -0.55101,0.64387 2.93784,1.14815 -1.33233,1.33996 -3.14633,-1.22002 -2.41257,0.83701 -3.74279,0.0562 -1.0017,0.69896 -2.64397,-0.21418 1.20746,-1.23206 -1.57795,-0.0989 -5.97872,1.74775 -3.69574,0.99018 0.21349,1.34881 -2.93984,0.46451 -1.98181,-0.73195 -0.60578,-1.17375 2.44421,-0.2577 -1.77364,-1.15665 -5.98547,-0.6533 2.13011,1.26931 -0.37951,1.24753 2.32057,1.26624 -0.50259,1.4876 -2.27999,-0.76019 -1.96104,-0.12466 -3.91718,2.14583 2.0711,1.64282 -1.5542,0.55372 -5.61325,-1.40739 -1.02112,0.85367 1.6226,0.97895 0.12497,1.11764 -1.86645,-0.60013 -2.96145,-0.6998 -0.93876,-2.30476 -0.50051,-1.02555 -3.94283,-1.59194 1.41239,-0.27282 9.85114,1.64679 3.14178,-0.58182 1.79709,-1.13344 -0.77207,-1.41078 -2.01573,-0.99008 -8.64866,-2.29673 -5.67583,-0.47247 -3.74965,-1.18285 -1.78195,0.67757 -7e-5,1e-5 -2.63854,-1.21756 2.33861,-0.5103 -6.66488,-1.37008 -3.37152,0.36929 -3.59211,-0.0822 -2.50663,1.56303 -3.27634,-0.10162 -4.12519,0.84352 -4.95588,2.48906 -3.10995,1.54363 -4.32889,4.1267 -3.4703,3.12176 -3.96653,2.38614 -5.51836,1.98649 -1.90985,1.54956 0.9409,5.74385 0.91493,2.77198 3.16061,1.33375 2.95182,-0.61552 4.17763,-2.9959 1.62409,1.5811 2.02843,3.71709 2.1693,3.05398 0.95917,2.59156 2.64665,-0.1272 1.07594,-2.17536 2.7961,0.26331 0.99617,-2.53505 0.30048,-4.43446 2.2352,-0.60668 1.60958,-2.88586 -2.31258,-1.3943 -1.81354,-1.7473 1.04636,-3.41052 3.77302,-2.02813 3.00381,-1.85706 -0.62031,-1.38886 1.68193,-1.55483 3.42375,-0.62258 3.15608,1.0417 0.45978,0.94378 -1.2815,0.47057 -4.25934,2.48265 -1.62785,1.46921 -0.75223,1.38244 1.46101,2.17913 -0.039,2.43111 2.27338,0.82169 1.5302,1.37833 3.48482,-0.53482 3.67453,-0.92397 3.93813,-0.19954 10e-6,0 2.58642,1.19757 -2.18625,1.40705 -4e-5,-4e-5 -2.26975,0.0758 -2.49183,-0.42273 -2.7143,0.37137 -2.66827,0.7155 0.4659,1.48796 1.58918,0.92889 0.76184,-0.33017 0.0273,1.55244 -0.0661,2.04609 -1.80778,0.0522 -2.13101,-1.99231 -1.97445,0.90723 -0.84872,1.68333 0.22916,2.0431 0.82769,2.31332 -3.05163,0.90139 -0.3628,1.2309 -2.23626,-0.0355 -0.25968,-0.68312 -2.36096,-0.47156 -2.80028,0.94588 -3.48126,1.30121 -1.50907,0.83136 -1.17928,-0.9014 -2.71248,-1.11118 -1.23941,0.76999 -2.31924,0.52992 -0.0477,-1.00017 -2.38321,-0.65358 -0.1131,-1.07837 -0.7157,-1.34874 1.50865,-1.974 0.7016,0.29623 0.47815,-1.02633 -1.26429,-0.40987 -0.32876,-0.75539 0.60382,-0.8738 -0.031,-1.36902 -1.75572,0.74926 -0.74079,0.73661 -1.98205,0.16623 -0.60051,0.80626 -0.33536,0.72918 0.22903,2.79304 1.02093,1.53698 0.19715,1.5853 0.5907,1.05601 -1.50256,1.39848 -0.46458,-0.62686 -1.93769,0.15435 -0.42766,0.6025 -1.94076,-0.0805 -3.15349,1.19633 -1.94683,4.26569 -1.20272,0.80698 -1e-4,-2e-5 -1.89078,0.58136 -2.07018,0.59668 -0.69471,2.43915 -5.58107,2.34673 -2.25607,-1.29399 0.72905,3.43043 -4.04403,-0.78419 -3.14436,0.66289 0.1892,2.23568 3.69204,1.18756 1.77717,1.57082 2.50054,3.28885 -0.51089,6.3542 -1.30478,1.94045 -4.03719,-0.1074 -2.07798,0.17022 -2.64563,-0.55391 -3.35286,0.0205 -3.03389,-0.58411 -3.62936,2.34315 0.96594,1.41707 -0.21968,2.33989 0.0677,1.11338 0.46037,1.19015 0.004,1.40948 -0.60434,2.01018 -0.2307,1.3576 -1.06368,1.22358 -0.28691,2.21659 0.56683,1.28899 1.1393,0.31441 0.17149,2.10229 -0.48288,2.69126 1.34782,-0.37961 1.35034,0.485 1.06523,-0.89469 2.40162,0.5337 0.68872,1.98822 0.93644,1.17208 1.26646,0.2883 1.01668,-1.31149 1.64524,-1.22208 2.46932,0.0654 3.29034,-0.0527 1.84913,-2.64887 1.95108,-0.68377 0.56178,-2.22218 1.48638,-1.51801 -0.99823,-1.93567 0.98444,-2.73982 1.55951,-1.85427 0.22261,-1.12047 3.24051,-0.70211 2.36958,-2.20302 -0.15994,-1.90953 0.26014,-1.96762 3.6256,-1.05504 4.95575,0.8802 2.20543,-1.83374 1.02825,-0.23713 1.38196,-1.4969 1.1267,-0.43438 2.07006,1.06228 1.25669,0.37512 0.93189,3.20814 1.79844,1.88471 2.41395,2.14291 2.05506,1.49441 1.88484,0.21506 1.17471,1.33691 1.66761,0.60637 0.83937,1.44377 1.08312,0.41786 0.88554,1.69622 1.12303,1.95894 -0.51166,0.7246 -0.41233,1.82544 0.0526,1.04439 1.0577,-0.26345 1.18754,-2.92078 1.05749,-0.20113 0.18383,-1.76534 -1.92996,-1.24902 0.92349,-2.16922 2.24873,0.55064 1.52923,1.56687 0.38592,-1.20234 -0.31097,-0.62547 -2.30793,-1.7408 -1.93311,-1.00564 -2.34884,-1.19798 0.66283,-0.65841 -0.66551,-0.72896 -1.97373,0.0204 -2.96888,-2.64437 -1.42724,-2.69007 -2.43628,-1.62729 -0.91078,-1.63599 0.24963,-0.91148 -0.23168,-1.58124 1.93467,-1.12509 1.99295,0.46124 -0.52942,0.28754 -0.0845,0.0513 0.0183,1.1038 0.80228,1.06848 0.66453,-1.37678 1.62523,0.50227 0.12384,1.07806 1.22909,1.34875 -0.48436,0.24029 2.26847,2.37707 2.35933,0.96526 1.54418,1.17319 2.45703,1.21034 0,0 1.14035,0.65115 0.79555,1.07394 0.54913,0.25534 0,1e-5 0.4684,0.51993 -0.25865,1.02672 -0.0281,2.26777 0.34914,1.5923 1.50153,1.12641 0.11094,0.73998 0.45307,0.23573 0.25072,0.96059 1.46817,1.93102 1.12838,1.56366 0.63415,2.27435 1.18848,2.75169 2.24616,1.50381 1.71996,-0.0433 -1.23791,-3.04504 1.60919,-0.36075 -0.91383,-1.74809 2.46506,0.90733 -0.21507,-1.93197 -1.36278,-0.98805 -1.57072,-1.56511 0.89715,-0.7418 -1.42506,-1.58391 -0.75541,-2.00592 0.40831,-0.73423 1.51013,1.72552 1.41912,-0.003 1.24013,-0.54698 -1.94963,-1.88011 2.98358,-0.86599 1.35647,0.31464 1.55557,0.0947 0.0405,0.68817 0.96895,1.55809 1.92136,-1.80105 0.96345,-1.03004 2.98673,-0.18333 0.36086,-0.81331 -2.33741,-1.06925 -0.45428,-1.26851 -1.04232,-1.87339 0.62201,-2.33325 1.12153,-1.34345 0.16942,-3.87812 0.79423,0.29925 1.10341,-0.68702 -0.1758,-0.82129 1.56142,-2.34018 0.64368,-1.73057 2.20792,-0.38544 0.35742,1.16891 3.94837,0.79522 0.83318,0.72263 -2.18696,1.05214 -0.33884,0.6087 2.85131,0.93185 -0.30509,1.50241 1.48519,0.65276 3.06113,-1.85277 2.61341,-0.55244 0.28059,-1.13445 -2.48399,0.19045 -1.3397,-0.76494 -0.48688,-1.96252 1.90198,-1.16934 2.2619,-0.16501 1.43427,-1.01 1.90133,-0.24905 2.08997,-0.5012 0.20302,0.68006 -3.35358,1.2746 1.61079,1.24159 -1.54608,2.64323 -1.70552,0.50799 2.47436,1.8752 3.05233,1.2105 3.67755,2.72972 z m -14.06927,194.45157 0.14114,-0.6632 -0.7916,-1.049 -0.32347,-2.1614 -1.67852,-2.1472 -0.92041,-2.8232 0.52817,-1.6631 -0.73132,-2.2198 0.57346,-6.3149 0.0122,0.046 0.99693,3.7657 -0.0158,0.1755 -0.15467,1.7053 0.53335,0.5705 -0.11731,1.6815 0.52021,1.5549 -0.66902,1.511 2.22242,2.6747 0.16724,2.4384 1.32716,4.0197 0,0 0.2144,0.6527 -0.47413,0.2226 -0.58793,-0.8182 -0.95249,-0.3151 0.17995,-0.8435 z m 9.87516,-32.94723 0.68289,1.50013 -0.18547,2.9302 0,0 -1.39829,1.7653 -0.9335,1.788 1.10722,1.3564 -1.61607,0.9739 -0.3492,-0.4615 -1.63404,0.2352 -1.26603,0.8882 -0.77515,-1.5238 0.54547,-2.7686 0.0939,-2.3815 0,-1e-4 -0.14055,-1.531 1.29384,-2.31216 1.78712,-0.56542 1.20079,-0.94269 1.46376,0.7789 0.12334,0.27054 z m 43.74068,-140.63887 -0.0878,0.80558 -3.86736,0.91326 -3.79449,-0.59522 -2.11839,-1.72757 -2.58048,-0.71509 -1.28491,-2.52117 -0.3884,-1.68428 0.78673,-0.79235 0.20803,-1.18429 -0.0802,-2.61244 2.0407,-0.26959 -0.97056,-0.90182 -1.21601,-0.1562 -1.78064,-2.36079 -1.6949,-1.742 3e-5,-3e-5 -3.56718,-3.8629 -0.22951,-2.18836 -2.93865,-3.05664 1.70442,-3.28853 2.26428,-0.52143 0.66187,-1.86815 2.12132,-0.65734 2.475,-1.37327 2.28106,0.76135 2.40727,-0.15106 0.96112,1.93779 0.36987,3.08598 -2.27963,-0.47465 -1.97017,0.51616 0.48211,2.3356 -2.48822,-0.30448 0.33304,1.04583 1.56766,0.8146 1.81222,2.90967 3.16481,1.11099 0.7465,1.14022 -0.30133,1.3692 0.32527,0.80378 1.27401,2.14529 -0.29308,-2.42505 1.8327,-0.84007 1.16465,1.88674 2.30496,1.99125 -1.98643,1.0663 -2.57568,-0.81836 0.0546,2.81782 1.73381,0.19587 -0.16059,2.30655 2.23915,1.14552 0.36743,3.5615 0.96994,2.42628 z m -41.59763,186.1199 -0.80276,3.6805 0.25728,4.4622 0.0288,0.5184 0.51876,0.1626 0.47928,2.0771 -0.0883,0.4807 -0.92318,-1.5119 -0.52904,0.9712 -0.40944,-0.8326 0.0737,-1.46 -0.59563,-1.1388 0.0925,-1.6931 -0.72297,-2.8702 0.88935,-2.1698 -0.0194,-4.7163 -0.9145,-2.5317 0.10292,-0.4349 0,0 0.18115,-0.7668 1.42195,2.0974 0.10324,4.1139 0.87023,1.4976 -0.014,0.064 z m -259.15851,143.8005 1.05394,0.1467 -2.27814,-1.6859 -2.02712,-3.0604 0.41762,-1.3947 1.7205,-1.1821 0.22505,-3.5494 2.2348,-1.7272 -0.12914,-2.7727 -2.55029,-0.6292 -3.19478,-2.291 -0.091,-2.367 1.40413,-1.6288 2.33481,-0.01 0.0481,-1.7125 -0.62414,-3.2448 1.41323,-2.0232 2.02002,-1.0148 -1.22843,-1.7055 -1.08589,1.0363 -1.98078,-0.9892 -1.27305,-3.2867 0.7401,-0.8707 2.76558,1.2111 2.47229,-0.4586 1.2136,-1.1719 -0.90392,-1.6864 -0.11287,-2.5175 -1.0356,-2.0183 2.89854,0.3416 4.97524,-0.7065 3.39544,-1.8259 1.5351,-4.3996 -0.2165,-1.6882 -1.9314,-1.5117 -0.12648,-2.4022 -3.91035,-3.0026 -0.17792,-1.8394 1.97368,1.9487 1.75425,-0.1129 2.7074,1.5076 1.34353,-0.3758 2.06174,0.7011 2.59579,-1.9512 0.74203,-2.2158 1.3921,-2.025 0.6438,-3.3867 1.53306,-1.6733 1.89729,-2.85 2.04898,-6.3755 1.60327,-2.0078 0.37728,-1.7857 0.0375,-3.7127 -0.69561,-2.0382 0.0676,-2.7656 1.88095,-3.6901 2.88607,-2.9757 2.94059,-1.0945 1.75895,-1.6699 4.16112,-1.4451 2.96851,0.01 0.44524,-2.2591 2.08016,-1.637 0.15686,-3.9135 2.42543,-4.9699 0.14563,-5.115 0.77836,-1.5143 0.13893,-2.5352 0.43524,-5.9474 -0.5655,-7.2662 0.6485,-2.8631 0.69487,-0.076 1.92644,-3.3805 1.61523,-4.418 3.77262,-5.4519 1.35435,-2.5629 0.95759,-6.5017 -0.51793,-2.3833 -1.04879,-5.0211 -1.04126,-1.245 -2.41188,-0.1583 -2.18864,-1.1389 -3.66191,-4.4257 -4.20547,-3.2717 -4.21231,0.1541 -5.50996,-2.0916 -3.26832,1.2189 0.44218,-2.1894 -1.39362,-2.3182 -4.69843,-2.4163 -3.5554,-1.4221 -2.13344,2.5964 -0.11407,-3.96608 -4.98868,-0.62144 -0.87737,-1.19279 2.13149,-3.25739 -0.0597,-2.73109 -1.50373,-0.65304 -1.49757,-6.91531 -0.65935,-2.18555 -0.96377,0.1867 -0.43498,-1.61776 -2.90787,-3.3325 -2.05014,-0.93394 -0.94488,-0.43406 -2.99827,-1.06007 -2.2849,0.28463 -0.32307,0.71101 -3.35121,-0.78999 -1.06948,-1.37277 -1.44489,-1.92276 -1.05702,-0.0934 -0.006,-2.02814 -1.6391,-2.56418 -1.78412,-1.44661 -1.05978,-0.92662 -1.46812,0.0888 -0.29776,-3.14683 -2.02826,-1.92927 -2.2276,-0.29465 -0.85493,-1.85023 2.44672,-1.15677 -3.36146,0.0544 -3.48543,0.23614 -0.0905,0.98636 -1.64374,1.22426 -2.11673,-0.48442 -1.49985,-1.75443 -3.01932,0.40244 -2.51453,-0.0344 -0.0268,-1.29634 -1.67346,-2.18139 -1.95891,-0.0634 -0.80605,-2.74501 -1.07168,1.23188 0.25615,1.84206 -3.59776,1.59018 -0.0543,2.96481 0.78358,1.3798 -0.79754,2.83651 -1.22487,0.25499 -0.87742,-3.11369 1.38218,-2.2767 0.17155,-2.04764 -0.78855,-1.77516 1.67627,-0.45625 0.14685,-0.92336 0.64119,-1.31489 -0.65502,-1.02661 -0.97177,-0.239 -1.49868,1.8803 -1.15589,0.87333 -2.3479,1.97399 -2.1673,-0.3264 -0.28211,0.81529 -1.77036,0.0743 -1.73661,1.81647 -0.73975,3.31179 -0.11013,1.29774 -1.18181,0.41774 -2.27122,2.74187 -1.4442,-0.12479 -0.99185,-1.08573 -0.84348,-1.1816 -1.2058,-0.67804 -1.55625,-0.13386 0.12988,-0.38602 -1.5341,-0.23025 -1.03513,1.17285 -1.75602,0.79191 -1.25734,0.99204 -1.39955,0.28394 -0.71077,-0.96527 -0.2856,0.31948 -1.1092,-0.17659 0.11175,-0.83204 -0.9129,-1.40788 -1.19882,-1.67426 -0.96729,-1.57737 -0.54404,-2.12755 -0.37757,-0.64282 -0.0431,-1.05708 0.65715,-0.99962 -0.10338,-1.03177 0.40993,-1.66977 0.46192,-0.38327 0.0924,-1.75534 -0.0541,-1.00415 0.25864,-1.71513 0.45777,-1.5645 0.77963,-1.32311 -0.13309,-1.42001 0.23594,-0.86563 0.28031,-0.37193 -0.61359,-1.06556 -0.9441,-0.59297 -0.70373,-0.86737 -0.76346,-0.72277 -0.43098,-0.0853 -1.20496,-0.53603 -0.59246,0.3353 -0.73767,0.0905 -0.63328,-0.26243 -0.86094,-0.19998 -0.37848,0.43265 -0.94582,0.42761 -1.29699,0.101 -1.2486,-0.34883 -0.45473,0.19198 -0.21906,-0.31513 -0.80196,0.0554 -0.69323,0.67974 -0.2702,-0.15109 -0.75426,-0.49359 -0.31096,0.57613 -0.81924,-0.69938 0.71973,-1.33804 0.51721,-0.12291 0.67698,-1.02385 0.57794,-1.94762 -0.12559,-0.36823 0.47747,-1.37669 -0.16016,-0.59463 0.68132,-1.66125 0.19557,-1.04342 -0.52136,-0.0176 0.0715,-0.56237 0.58786,-0.0639 0.55836,0.98463 1.12947,-2.98873 0.6627,-1.65203 -0.40593,-0.66479 1.01875,-2.32076 1.84209,-2.26056 0.3952,-1.8276 -0.52282,-0.80338 -1.71807,0.32084 -2.40623,-0.13195 -3.05261,0.87908 -2.02997,0.99349 -0.66357,1.11032 -0.7541,3.19802 -1.01126,2.22653 -1.99808,1.56042 -1.83946,0.6566 -2.17445,0.68849 -2.16684,0.38709 -2.58935,1.07179 -0.89375,-1.60402 -2.7709,-1.01601 -0.77065,-1.88287 -0.2741,-2.17767 -1.32605,-2.83437 -0.005,-2.94373 -0.4974,-1.8461 -0.0695,-2.06054 0.63451,-1.84047 1.25767,-5.02799 1.068,-2.68811 1.79622,-3.26529 -1.08176,0.11134 1.08179,-0.11135 -0.21932,-1.26071 0.28815,-1.77599 0.64899,-2.54491 1.03276,-1.6545 1.91161,-1.75091 3.07067,-1.57688 3.1398,-2.70206 2.47192,-0.849 1.72797,-0.25457 1.72448,0.84071 2.44698,-0.45311 1.51045,1.92257 1.91408,0.11336 1.17512,-0.69101 0.86048,0.5373 0.62741,-0.47884 -0.39018,-0.71883 0.41218,-1.47289 -0.23579,-0.96336 1.24611,-0.56459 2.09556,-0.24929 2.26358,0.39998 3.12527,-0.45458 1.44989,0.89522 0.8862,1.69184 0.43498,0.18151 3.0855,-1.64656 0.90919,0.55616 1.37907,3.04146 0.30084,2.00798 -1.08202,2.43191 0.0968,1.43762 0.66829,2.82048 0.79794,3.18449 0.86383,0.8541 0.11772,1.63205 1.25104,0.45171 0.8988,-0.46996 1.10432,-2.27034 0.3954,-1.44258 0.57574,-2.49341 -0.39911,-4.26833 0.32174,-1.58292 -0.62658,-2.58432 -0.18773,-3.10869 0.11746,-2.51135 1.02523,-2.55776 1.77129,-2.12492 1.91409,-1.70025 3.47726,-2.30905 0.67916,-1.18967 1.66445,-1.29919 1.36934,-0.22647 2.25748,-2.06601 2.97706,-1.04106 2.33928,-2.59543 0.57117,-3.47496 0.0616,-1.19526 -0.67614,-0.23843 0.82032,-3.26753 -1.44965,-1.09992 1.54255,0.53493 0.0896,-2.16056 0.93477,-1.46576 -0.54071,2.82128 0.93507,1.3047 -1.46276,2.33357 0.19681,0.1366 2.23038,-2.73838 1.20757,-1.32577 0.33633,-1.28496 -0.45788,-0.60364 0.0137,-1.82067 0.58437,0.84432 0.50936,0.17599 -0.0673,0.86971 2.63384,-2.60019 1.28058,-2.41024 -0.70084,-0.15339 1.05893,-0.92545 -0.20194,0.40945 1.61959,-0.007 3.85663,-0.99983 -0.55859,-0.63001 -3.91471,0.62634 2.41021,-0.96226 1.52203,-0.16373 1.15154,-0.16582 2.04698,-0.57788 1.19447,0.0644 1.86752,-0.53643 0.48803,-0.94281 -0.53173,-0.73142 -0.10352,1.20249 -1.02182,-0.0825 -0.29122,-1.7442 0.5738,-1.73584 0.65889,-0.73344 1.94467,-1.9279 2.94245,-0.95632 2.91468,-1.1116 3.14995,-1.55311 -0.0886,-1.04615 2.87305,-0.38764 3.98794,-0.10409 -5.13156,2.64161 -0.74997,2.72897 1.82369,0.23794 3.48726,-2.32569 2.85636,-1.29843 6.05341,-1.8992 3.66934,-2.07604 -1.24277,-1.14112 0.53158,-2.27013 -3.55157,3.52691 -4.21127,0.45753 -2.6921,-1.57549 -0.0197,-2.36233 0.37019,-3.33752 3.00735,-2.05687 -1.60158,-1.4903 -3.71287,0.30221 -6.00805,2.5412 -5.3974,4.06282 -2.26371,0.51282 3.86339,-2.86726 5.01364,-4.05309 3.57588,-1.34178 2.82668,-2.15511 2.55322,-0.20686 3.57675,0.0215 4.88505,0.62973 4.21213,-0.48565 3.8465,-2.44141 4.27144,-1.04748 2.05119,-1.02913 2.08848,-1.09648 0.96298,-3.24083 -0.54927,-1.07515 -1.67391,-0.37716 -0.0178,-2.38391 -1.13461,-0.89016 -3.3828,-0.71812 -1.40753,-1.57579 -2.37193,-1.5401 1.66782,-1.69694 -1.01882,-3.18774 -1.27043,-3.30981 -0.53467,-2.26694 -2.08267,1.17489 -3.60503,2.83397 -3.98552,1.44976 -0.81232,-1.53738 -1.81611,-0.405 1.06784,-3.22835 1.289,-2.09926 -3.77758,-0.18743 -0.0726,-0.95543 -1.77317,-1.41145 -1.47383,-0.81606 -2.20538,0.63231 -2.06064,-0.23463 -3.24285,-0.65347 -1.88612,0.55417 -1.86008,3.82603 -0.5021,2.27819 -4.28803,2.69124 1.53632,1.9671 0.23214,2.25474 -0.81657,1.79913 -2.29907,1.8986 -3.63879,1.93314 -4.3899,1.3055 0.85021,1.47781 -1.06499,4.50995 -2.72581,2.99473 -2.28122,0.95755 -2.15806,-2.78039 -0.0412,-3.22721 0.8053,-2.8513 1.71923,-2.41956 -2.34957,-0.26765 -3.70266,-0.15973 -1.74179,-1.16118 -2.40686,-0.75439 -0.82961,-1.28623 -1.61458,-1.02694 -3.44075,-1.16117 -3.52063,0.52878 0.33436,-2.01968 0.74101,-2.4533 -2.95606,-0.43206 2.37862,-2.97018 2.40483,-1.97582 4.59605,-2.76343 4.25176,-1.94527 2.74155,-0.29706 1.43109,-1.52859 2.51819,-0.98068 3.16187,-0.15279 3.772,-1.5459 1.46956,-0.98463 3.66593,-1.86582 1.60755,-1.09008 1.54396,0.65169 3.17171,-0.33461 5.35938,-1.49826 1.18416,-1.02388 -0.40241,-1.10937 2.53501,-1.08615 0.84501,-0.99426 -1.69427,-0.97748 -2.6381,-0.2866 -2.6603,-0.14886 -2.37254,2.16755 -3.23353,1.76095 -3.5987,1.51186 -0.58292,-1.41233 2.15181,-1.51857 -1.03051,-1.28832 -4.3675,1.57238 2.22906,-2.04354 -3.25141,-0.39592 2.85703,-0.94986 -0.10228,-2.11611 -0.93605,-0.80405 -2.17052,-0.28863 -4.02942,1.3208 -2.7789,2.08291 1.37152,0.78275 0.72679,1.21609 -3.17221,2.0367 -1.56898,-0.0553 -3.08948,1.66109 2.15091,-1.96629 -2.34546,-0.69093 -2.19997,0.35486 -1.21545,1.28025 -2.90843,-0.0499 -3.53293,0.33042 -2.50019,-0.93404 -2.45808,0.16426 -0.67977,-1.11059 -1.02088,-0.48202 -1.86214,0.20141 -2.56639,0.093 -2.18513,0.69543 0.98021,0.8727 -3.50114,1.0559 -0.62815,-1.2496 -2.18404,0.36214 -5.79948,0.24536 -3.09604,-0.44537 4.19319,-1.01916 -1.32841,-1.02443 -2.14388,0.12918 -2.28436,-0.33993 -3.63043,-0.72742 -1.81576,-0.8221 -2.23135,-0.11212 -1.61944,0.56887 -2.93746,0.32231 2.02204,-1.47544 -4.70078,1.31627 -0.58771,-1.73443 -1.02645,-0.20257 -1.91774,0.9007 -2.2101,0.4524 -0.0536,-0.80003 -4.03036,0.47962 -4.38279,0.85568 -2.56093,-0.2392 -3.43148,0.61389 -3.11967,0.8301 -1.78867,-0.18407 -1.54375,-0.9533 -2.89409,-0.47172 -2e-5,0 -1.67559,-0.27211 -1.95676,-0.57993 -3.20304,0.3128 -1.06249,-0.25039 -3.46249,-0.18034 -2.99988,-0.60157 -2.37559,0.18962 -2.37686,-0.32194 0.98001,-0.43235 -3.08284,-0.11217 -1.60618,0.36284 0.30931,-0.84193 -2.13568,-0.38677 -5.08244,0.9879 -1.53865,-0.12513 -5.46907,0.83599 -2.37118,0.21757 -3.90286,0.91392 -2.39576,0.95243 -4.31806,0.90559 -3.68701,0.0651 -3.20679,1.06017 1.53608,0.6481 0.29298,0.88462 -0.46457,1.05203 1.08295,0.81205 -0.63577,1.34031 -4.5178,0.085 2.16088,-1.08377 -1.69418,0 -6.46774,1.05949 -4.51641,0.91931 0.43912,1.29477 -0.6243,0.90814 2.19701,0.54585 3.39246,-0.25594 0.86066,0.50374 1.44336,-0.50438 3.02171,-0.49459 1.33161,-0.0257 -2.94842,0.87783 0.5364,0.41253 -1.23224,1.05528 -2.7207,0.72392 -1.24043,-0.20148 -3.4388,1.13428 -0.89619,-0.37761 -1.99097,0.17228 -2.60205,1.2188 -3.74389,1.34201 -2.87373,1.40078 0.18396,1.04986 -1.95464,1.41069 0.67778,0.60297 0.2635,1.18816 3.51518,-0.48653 0.23071,0.90547 -1.61788,0.93934 -1.76836,1.53965 1.36727,0.002 3.5333,-1.03737 -0.78529,1.29334 1.76254,-0.93214 -0.17726,1.31946 2.37477,-0.94721 0.16859,0.44719 3.53837,-0.78707 -3.01192,1.53794 -2.7735,2.00067 -2.76967,0.94128 -1.12978,0.53658 -5.00976,1.6157 -2.39583,1.11658 -3.18595,0.30934 -4.14156,1.50493 -3.20711,0.85535 -3.97144,1.30334 -0.15676,0.47126 4.84574,-0.80003 2.94433,-0.9322 3.37929,-0.94386 2.99689,-0.76879 1.33789,0.21163 3.98226,-1.17297 2.15852,-1.27814 5.1306,-1.39362 1.92438,-1.18464 3.19776,-0.81042 3.70766,-1.10459 4.33854,-1.87504 -0.10638,-1.25243 5.42998,-1.81278 3.60968,-1.67175 4.55767,-1.38137 -0.19898,0.61975 -3.29885,0.7651 -4.07905,2.47196 -1.51588,1.50921 3.11551,-0.54614 2.98928,-0.86289 3.19655,-0.53022 1.41582,-0.16268 1.68777,-1.74744 3.08425,-0.52732 1.29739,1.06386 2.94277,1.15808 3.30367,-0.21578 2.81454,0.9058 1.57044,0.48428 1.66916,2.6815 1.82887,0.75337 3.49634,0.0643 1.97839,0.16989 -1.29482,2.50504 0.82463,2.18097 -1.57138,2.38699 1.22621,0.88163 0.33566,1.0461 0,0 -1.21244,1.44336 1.06247,2.05447 -1.49319,2.30916 2.01762,1.23104 -1.73917,1.78847 -0.66969,2.60769 3.40467,1.23098 0.77474,1.29191 2.58293,2.96498 0.31828,0.008 -0.85546,2.50534 -1.25643,2.53154 -1.12738,0.82052 0.59617,-2.92169 -2.80909,-1.043 -0.69664,0.59901 -0.2435,1.43004 -0.9536,2.65653 -2.19126,4.22079 -2.03952,2.89286 -2.00759,2.92203 -2.71424,3.06443 -0.58225,2.51406 -1.42955,2.8364 -1.99409,2.76362 0.42726,1.8331 -1.00848,2.75339 0.62298,2.85067 0.60914,1.12944 -0.4577,0.7939 0.0129,4.79714 1.03902,3.50021 -0.47314,1.92177 0.43771,0.56735 2.29391,0.34696 0.5601,0.95276 1.40243,0.17711 -0.10746,1.01296 1.06296,0.4232 0.93338,2.03849 -0.22886,1.8181 -0.0811,3.21701 0.23368,2.87451 0.19263,2.36915 0.24517,2.26536 1.24761,1.00728 1.25281,2.6029 -0.60005,1.65163 -1.40612,1.37078 -1.04604,-0.20833 -0.2786,0.27725 0.96135,2.13686 1.40785,0.89273 0.4091,0.96258 0.49018,-0.47564 1.39798,1.65018 0.97647,1.14855 -0.1251,2.0124 -0.79524,2.7262 1.15071,0.94863 1.51553,1.8089 1.27168,2.13801 0.18959,2.2864 0.48005,0.0181 1.46666,-1.38232 0.22248,-0.67312 -0.59384,-1.67584 -0.68065,-1.70171 -1.28171,-0.12362 0.34158,-1.9703 -0.30834,-1.7463 -0.37936,-1.62846 0.0327,-3.44639 -1.17048,-1.87822 -0.20112,-1.30372 -0.54592,-0.9351 0.16127,-2.36465 -0.49229,0.0509 0.0268,-1.25585 -0.32781,-0.26069 -0.17661,-0.85895 -1.19381,-2.50605 -0.43079,-1.49477 0.64183,-2.71286 0.14857,-1.72673 0.92948,-1.45684 1.17058,0.98798 0.93892,-0.15635 1.43535,1.42523 -0.50133,1.38365 0.0426,2.7688 0.57492,2.74018 -0.23294,1.13872 0.72066,1.77719 0.99252,1.92994 1.36003,0.29865 -0.0553,2.56677 1.09932,1.79342 1.14472,0.86248 -1.01729,2.29059 0.26303,0.90735 1.9413,1.51914 0.74728,2.32548 2.04278,2.92388 1.5618,3.73621 0.50506,1.90332 -0.0706,1.50374 0.57396,1.69993 -0.27844,1.31134 -0.82761,0.98482 0.0699,1.08392 -0.98979,0.37132 0.30014,1.85584 0.93463,2.40672 2.57911,2.17085 0.85087,1.74843 2.62644,1.21462 1.51086,0.22907 0.53315,1.02601 2.02889,1.83849 2.86875,1.79107 2.00088,0.54034 2.34208,1.77064 1.98013,0.73506 1.82457,1.01897 1.45219,-0.38121 2.42799,-1.45396 1.58949,-0.28059 2.13267,1.00752 1.26905,1.25556 2.63373,4.17109 1.31306,1.6019 1.18802,0.77084 1.73179,0.0702 1.35648,0.67813 0.69992,0.83515 1.52505,0.24158 1.07329,0.77377 0.96652,0.37294 1.61137,0.0582 0.40388,-0.91668 0.81297,0.33842 0.35933,1.21833 -0.23891,0.27533 -0.40251,-0.58644 -0.37037,0.60245 1.22843,1.76081 1.06347,1.22642 0.49605,1.31631 1.16973,1.57671 0.86457,1.23199 -0.70443,0.7559 0.74646,0.55174 -0.46908,1.23362 -0.10811,1.19305 0.32392,0.79014 0.87272,0.38748 0.56279,1.08864 0.62725,-0.93744 -0.0962,-1.14002 0.68383,0.70053 0.10154,1.1474 0.93064,0.50299 1.0514,0.77148 0.71538,0.94009 0.0454,0.86788 -0.36697,0.68217 0.51902,0.82507 1.47217,0.87248 0.28774,0.59469 0.13716,-0.85358 1.20635,-0.006 0.70213,0.45999 1.13755,0.26127 0.47836,1.58303 0.9148,0.23104 0.40254,-0.66908 0.36235,2.35164 1.31894,-0.20096 0.43636,-0.58347 0.79398,-0.50301 -1.22445,-2.13581 0.32249,-0.81841 0.62109,-0.13726 1.19306,-0.9875 0.65248,-1.36683 1.24431,-0.25028 1.33268,1.09204 0.44839,1.29873 0.69662,0.26942 -0.75302,1.05061 0.48962,2.12413 0.88083,1.13588 1.04069,2.09842 0.30383,3.33471 -0.64363,1.03581 0.51133,3.61134 -0.59916,2.29259 1.01413,0.94032 -1.12908,2.07353 -1.23808,2.48463 -1.40408,0.26515 -0.68539,1.43248 0.0977,1.98159 -1.0562,0.29684 0.36993,1.2282 -1.95272,1.57468 -1.55108,0.84878 0.1904,1.61481 -1.06858,2.54855 -0.50914,2.46508 -0.98435,0.5966 0.51441,3.5907 -0.55615,1.115 1.71955,1.7331 1.04695,-1.8365 0.63922,1.7272 -1.4391,2.9548 -2.18257,2.4959 -0.79188,2.7666 1.5035,3.7648 -0.83809,1.7603 2.0769,1.5961 2.30918,2.5715 1.03673,2.8991 1.25034,1.7924 3.1545,7.8153 3.31476,7.2151 2.80983,5.1138 -0.35513,1.1206 1.46164,3.2081 2.38588,2.3889 5.42423,4.2282 5.91805,3.8693 0.41664,1.5775 3.02522,2.2037 1.22019,5.3869 1.00996,6.2238 0.35538,8.4317 0.36566,7.7547 0.76479,7.1486 -0.72921,4.4729 1.21026,4.4884 -0.17872,2.9808 1.773,5.3728 0.098,5.2892 -0.43516,5.6142 -0.12911,5.597 -1.05916,0.1119 1.28342,3.8596 1.68944,3.3127 -0.49211,2.3032 1.05177,6.1688 0.75688,4.6856 1.73182,0.4576 -0.56111,-4.0799 1.96989,0.8732 0.94458,6.7232 -3.15731,-1.1317 1.06423,5.3025 -1.28622,2.7803 4.0645,0.9111 -1.63872,2.3986 0.16849,2.9537 2.49734,5.1442 2.06932,1.9748 0.10436,1.7245 1.58809,1.8477 3.68995,1.6546 -10e-6,0 3.60652,1.9937 3.05811,0.9233 0.95399,-0.066 -0.8389,-2.6667 1.65586,-1.0417 0.82331,-0.7126 2.10314,0.022 z M 283.029,75.7197 l 1.56878,-1.2142 1.60561,-0.48048 0.89737,-0.74401 0.73665,-0.3969 1.94789,0.61396 1.62929,0.0733 0.38444,0.40848 8.2e-4,1.73877 2.51422,0.46298 -0.82453,0.87852 0.55875,0.90994 -0.93583,1.18261 0.85603,0.39189 -0.96473,1.052 -0.004,0.004 -0.69359,-0.12676 -0.13371,-0.87669 -2.52547,0.2732 -2.48243,0.69758 -1.19256,-1.1927 -1.20582,-0.398 1.53663,-1.63907 -2.62746,1.02796 -2.42676,1.00975 -2.25704,0.79556 -1.00063,-1.07388 -2.75745,0.65075 0.22443,-0.45859 2.28192,-1.3128 2.32225,-1.23937 2.96657,-1.01778 4e-5,-4e-5 z m 10.58747,4.97761 0.65839,-0.46097 0.18445,0.6949 1.67691,0.39024 1.85427,0.0331 1.8593,0.32142 1.95207,0.61102 0.40714,0.99222 0.65042,2.43649 -1.20359,1.05894 -1.8476,-0.44149 -0.47615,-1.97416 -0.47584,2.01091 -1.87385,1.78518 -0.452,1.53366 -0.54623,0.90589 -2.02197,1.07681 -3e-5,2e-5 0.37536,-1.33397 0.26805,-1.87719 -0.79632,-0.32246 -2.09677,1.42151 -0.4855,-0.0269 0.1888,-0.81381 1.87464,-1.28903 0.80595,-1.46169 0.38253,-1.44963 -1.31888,-1.23855 -1.8299,-0.6331 -0.85033,1.20405 -0.67925,0.3233 -1.08838,1.5738 0.21252,-1.07031 -1.30655,0.76353 -1.06208,1.07433 -1.29226,1.57666 -0.67591,1.37026 0.0351,2.00913 -0.90191,2.15695 -1.63014,1.60252 -0.68268,0.45604 -0.81829,0.3634 -0.86472,0.018 -0.14744,-0.22401 -0.0164,-1.73143 0.31184,-0.85272 0.38368,-0.80791 0.31955,-1.59645 1.21578,-1.83512 1.48592,-2.24418 2.31823,-2.45823 -0.3769,0.0113 -2.6879,2.0568 -0.17677,-0.37865 1.4578,-1.15083 2.35114,-2.05209 1.79728,-0.28455 2.19007,-0.63134 1.79287,0.3329 0.0766,0.0142 2.28673,-0.28468 -0.69082,-1.25393 0,-1e-5 z m -2.47373,13.92224 1.30721,0.20734 2.24647,-1.04707 1.43027,-0.91655 0.80052,-0.14913 1.26177,0.32948 0.85061,-0.50905 1.37206,-0.4129 2.32774,-0.40125 -1e-5,8e-5 -0.0654,0.32061 -2.85527,1.95512 -2.23398,0.95149 -1.4542,0.4444 -1.81658,0.91348 -1.98451,0.44022 -1.20031,-0.16947 -1.31252,-0.68402 1.32606,-1.27279 5e-5,1e-5 z m 11.72544,-3.87786 -0.13256,0.0374 -0.82477,0.16822 -0.88575,-0.30831 1.15351,-1.10939 0.90143,-0.38261 1.93174,-0.47099 2.26532,-0.43926 0.88523,0.61059 0.94907,-0.70771 0.95004,-0.44629 0.44376,0.23617 0.0104,0.0503 0.0936,0.45104 -0.29738,1.25811 -2.25038,1.071 -1.95348,-0.26919 -1.92142,-0.12067 -1.31835,0.37164 z m 47.00355,358.46587 0.42014,-1.3915 -3.54454,-0.7001 -3.76479,-1.6918 -2.10337,-2.1376 -1.47624,-1.3339 -1.81828,-0.3412 -1.63997,1.1906 0.12543,1.9574 -0.59829,1.2992 -3.56017,-1.0163 -4.17255,-1.9066 -2.21413,-0.6033 4.73436,3.1961 3.09684,1.514 3.65752,1.5594 2.60382,0.4012 2.06585,0.8311 1.46446,0.223 1.16787,0.088 1.56674,-0.857 0.24757,-1.1227 1.62016,0.9809 2.12157,-0.1385 z m 26.63439,22.7872 1.77962,-0.679 0.36988,-0.7755 -1.57385,-0.5976 -1.52168,0.2762 -0.80369,0.7327 -1.20347,0.5911 -1.58567,0.2715 -1.22562,0.4508 -0.89065,0.7165 -1.93821,0.1336 -0.95566,0.577 -0.75459,0.617 -0.18954,0.9604 -1.23511,0.6481 -0.94914,0.6858 -0.76588,0.8062 -0.67253,0.6304 -0.29501,0.956 0.86104,0.8207 1.08379,0.8914 0.31158,0.7997 -0.12099,0.8288 -0.32981,0.7402 0.45395,0.769 0.76958,0.7585 1.09212,0.6737 1.27162,0.7382 1.34593,0.7275 1.26713,0.7166 0.92011,0.7404 0.27916,0.7625 -0.58642,0.5459 -1.4919,0.3711 -2.1786,0.2343 -2.46501,0.1998 -2.04853,0.2317 -1.44573,0.4264 -1.54297,0.3572 -2.31375,0.161 -1.94986,-0.5508 -2.35501,-0.3609 -2.3969,0.1645 -2.69576,-0.6623 -0.0154,0.5967 -0.70119,0.6194 -2.70892,-0.3574 -2.54673,-0.1964 -2.5676,-0.066 -2.42004,-0.6635 -2.1661,0.1669 -2.59382,-0.301 -2.55139,-0.7798 0.10324,1.3133 -2.3418,0.1323 -2.48597,-0.3981 -2.06301,0.1996 -2.12359,0.3303 -2.10627,0.2294 -2.70041,-0.098 -1.70214,-0.5945 -2.6783,-0.5026 -2.6408,-0.2706 -2.31839,0.1017 -2.65924,-0.1017 -1.82043,-0.2383 2.63669,1.2769 1.39564,0.6228 2.05849,0.6122 2.63098,0.1275 1.84302,0.568 2.07809,0.5274 0.16032,0.6695 -3.00357,-0.2721 -2.87258,-0.2134 -2.90264,-0.061 -1.86806,0.2746 -2.44164,0.091 -2.91996,-0.427 -2.84647,-0.1848 -3.30243,-0.5922 -1.07697,0.4685 -2.18483,-0.5316 -1.69675,-0.5722 -2.13713,-0.5167 -0.98324,0.5807 -1.71074,0.2869 -3.00419,-0.3509 -1.79828,0.2555 -0.99299,0.474 -2.4351,0.063 -2.83954,-0.031 -2.76773,-0.031 -2.46713,0.063 -3.10094,-0.1569 -2.85158,-0.1577 -1.99179,0.2205 -2.49277,0.031 -3.09321,-0.2835 -2.30738,0.2207 -1.55474,-0.126 -1.67129,-0.095 -1.50589,0.3462 -1.23492,0.3426 -1.65699,0.3695 -2.14382,0.1527 -2.57353,0.031 -1.17913,0.393 -2.06846,0.2988 -2.35643,-0.5098 -1.70737,0.271 0.82834,0.5345 2.09632,0.5532 1.52916,0.5418 -2.34597,0.1406 -0.72036,0.4723 -1.1435,0.3818 -1.50245,0.2957 -2.42927,0.133 -3.27159,-0.5915 -2.27394,0.1899 -2.53304,0.1347 -2.95719,-0.4338 -1.30135,-0.1374 5.46284,1.5421 2.91741,0.4559 3.63224,0.396 2.74362,0.4588 3.79912,0.1187 3.7172,0.1647 3.81682,0.07 3.77094,0.3455 3.368,0.3153 2.31524,0.4598 0.0285,0.3606 -1.20286,0.3905 -1.7298,0.2988 -3.89213,-0.3394 -3.20389,0.1611 -4.35347,-0.06 4.01153,0.3166 2.86042,0.3447 3.99414,0.2596 2.1638,0.3752 1.06546,0.3248 1.26137,0.3423 1.77715,0.3545 5.29168,0.162 3.11934,0.2817 6.18444,0.1611 6.4042,0.026 1.70554,0.3018 -3.1374,0.1647 -2.78349,0.167 -5.1888,-0.1785 -7.56194,-0.1172 -3.18243,0.1629 -7.17707,-0.1391 -5.09473,-0.1951 -5.76371,-0.1665 -4.08341,-0.2284 -1.35643,-0.085 -2.70945,-0.1702 -3.79396,0.1292 -0.0671,0.041 0.17183,0.2891 -4.50259,-0.2891 -0.22685,-0.01 -0.27869,-0.01 0.0164,0.2236 0.004,0.024 -4.55204,-0.2187 1.75696,0.3975 -0.13481,-0.01 30.08064,1.7877 507.9574,0 30.08064,-1.7877 -1.41711,-0.1602 -1.9674,-0.2181 -5.73576,0.178 0.35329,-0.2073 0.0881,-0.055 -3.50604,-0.1588 1.65353,-0.3793 -2.16076,-0.256 -0.92731,-0.2662 -0.76861,-0.2763 -0.41605,-0.3045 0.32393,-0.3533 1.0697,-0.4065 -0.70497,-0.3412 2.6026,-0.394 2.4371,-0.4071 2.4433,-0.5328 4.03359,-0.671 3.48503,-0.047 3.65332,-0.263 3.8764,-0.1938 1.30433,-0.5446 -2.65779,-0.1766 0.76231,-0.4619 1.28738,-0.4993 0.72691,-0.5383 1.60993,-0.5235 2.15804,-0.6493 2.09191,-0.549 2.54699,-0.6199 2.69949,-0.4815 2.88769,-0.582 2.53742,-0.6245 3.35407,-0.3485 2.63527,-0.5781 3.15636,-0.2601 2.68113,-0.6914 2.20107,-0.6028 2.80968,-0.7837 2.53672,-0.6239 1.90928,-0.7038 -0.11619,-0.5351 -1.19359,-0.3602 -1.04258,-0.4359 -1.61663,-0.256 -2.01912,-0.1469 -2.42235,0.037 -1.8746,-0.1103 -2.34543,0.037 -1.56654,-0.2953 -0.11079,-0.6708 -1.32618,-0.4519 0.54536,-0.7617 -1.84907,-0.2306 -2.04804,-0.1928 -0.87496,-0.4653 -0.36116,-0.6265 -0.75888,-0.5535 -2.52426,0.6716 -2.20692,-0.04 -1.47637,-0.3151 -2.15519,-0.317 -1.97952,-0.3583 -1.361,-0.5214 -1.36636,-0.4849 -0.30294,-0.6113 1.67206,-0.7824 -0.38118,-0.6656 -2.02929,-0.1673 -2.566,-0.084 -1.99691,0.042 -2.6967,0 -2.04222,0.1257 -2.75777,0.042 -2.51991,0.1254 -1.16939,-0.3767 0.20204,-0.7169 0.59649,-0.8952 1.02874,-0.9924 -0.46602,-0.6101 -1.34253,0.9135 -2.07911,1.074 -2.10477,0.1704 -2.20244,0.2125 -2.34568,0 -2.22119,0.085 -2.69201,0.3384 -2.38149,0.3789 -1.6031,-0.2102 -1.527,-0.2109 -1.85692,0 -2.39075,0.337 -1.85443,-0.2104 -1.46555,-0.2957 -2.07945,0.1691 -2.25474,0.6726 -2.48984,0.6664 -2.34333,0.1657 -2.29182,-0.2071 -1.75008,-0.5414 -0.71887,-0.5453 -2.36253,0.084 -0.61991,-0.6761 -0.2284,-0.6822 -1.1145,-0.4295 -2.10174,0.4723 -2.41328,0.086 -2.16932,0.6387 -2.39566,0.5912 -2.56327,0.2939 -2.508,0.2509 -1.88871,0 -1.96097,-0.042 -1.1408,-1.3065 -0.53307,-0.7693 -0.93723,-0.6035 -1.02393,-0.3036 -4.33979,1.6338 -2.05433,0.5933 -1.82297,0.714 -2.14007,0.7071 -1.80713,-0.2903 -2.19801,0.2903 -2.20294,0 -2.14914,0.2891 -1.08168,-0.4548 -1.59478,-0.1246 -1.49727,0.2074 -1.88105,-0.041 -1.91684,-0.166 -2.21394,0.2488 -1.79924,-0.1658 -1.31955,-0.4162 -0.003,-1.0089 -0.2125,-0.595 -2.39809,1.4367 -2.04122,0.5834 -2.12833,-0.1246 -2.23812,0.249 -2.03459,0.2069 -1.85213,-0.2069 -1.78286,0.3308 -1.49619,0.37 -1.7514,0.6937 -2.0803,0.4047 -2.46086,0.5223 -2.07916,0.7555 -1.28721,0.7466 -1.71296,0.7757 -2.3196,0.3074 -2.20201,0.2295 -2.32663,0.076 -1.41964,0.1902 -1.92503,0.9412 -1.13488,0.6674 -1.75534,0.5495 -1.63086,0.5793 -1.31258,0.6789 -1.76055,0.7038 -2.53797,0.3131 -2.05269,-0.1737 -0.93581,-0.5603 1.61238,-0.7463 1.6271,-0.6857 0.93613,-0.7324 -2.22413,0.037 0.38325,-0.7426 2.16828,-0.7153 2.33136,-0.4949 0.99186,-0.8864 0.50484,-0.5072 0.0524,-2.1119 -2.02666,0 -1.8632,-0.1623 -1.72668,-0.2441 -1.81179,-0.2451 -1.59094,-0.4515 -2.36941,0.8595 -1.91964,0.4054 -1.86005,-0.1214 -1.27724,-0.5693 -0.96962,-0.5742 -2.27762,-0.2475 -0.86954,-0.5811 -1.36517,-0.712 0.36621,-0.9317 -1.3066,-0.599 -1.82612,-0.215 -1.75723,-0.1292 -2.00861,0.1722 -2.26245,0.3437 -1.93752,0.4273 -2.06342,0.5943 -0.81775,0.7571 -1.96205,0.5004 -1.90325,-0.042 -1.63336,0.5798 -2.23217,0.7381 -1.78375,-0.2451 -1.82716,0.4488 -1.92027,0.4862 -1.81232,0.4425 -2.57476,0.3995 -2.11159,0.2783 -2.41544,0.6705 -1.97576,0.352 -1.1176,0.8517 -2.2475,0.4592 -1.24335,-0.4977 -1.08745,-0.6963 -2.14372,0.1555 -1.5221,-0.4676 -0.49015,-0.7085 -1.96186,-0.3173 -1.40932,0.6726 -1.53257,1.0918 -1.73559,0.5383 -2.09789,0.1911 -1.99513,0.3421 -1.94095,0.528 -2.16893,0.2247 -2.06027,0.261 -2.20968,0.037 -2.23509,0 -2.33502,0.074 -2.25484,0.3328 -1.11007,-0.5559 -0.75107,-0.6373 -2.10122,-0.1133 -2.15429,-0.2273 -2.08757,-0.038 -2.34581,0.076 -2.1802,0.227 -1.76522,0.7129 -0.6375,-0.7129 -2.57717,-0.1133 -2.09969,0.5273 -1.00381,0.7441 -2.28304,0.3681 -1.02366,-0.6644 -1.31641,-0.8995 -2.08274,0.264 -1.42238,-0.4913 -1.26471,0.679 -1.73377,0.4106 -2.21695,0.2966 -2.02452,0.4416 -2.19667,0.2559 -2.22724,0.2545 -1.99154,0.3253 -2.13393,0.6084 -0.84217,-0.7527 -2.21693,-0.1085 -2.43625,0.2168 -2.4988,0.3233 -2.32985,-0.1075 -0.54869,-0.6867 -2.12166,-0.1824 -0.92463,0.7253 -0.007,0.6789 -2.32328,-0.071 -1.0247,-0.6079 -2.34098,-0.1081 -1.33656,0.5024 -0.81508,0.8486 -1.39037,0.6948 -1.84949,0.5477 -2.01076,0.406 -1.90111,0.3352 -1.13637,0.5304 -0.49273,0.6847 2.08443,0.3853 -0.39113,0.6328 -1.62626,0.4667 -1.48448,0.5208 -2.4153,0.482 -1.89479,0.3563 -2.09551,0.3518 -2.13904,0.2898 -2.59084,0.2009 -2.78901,0.057 -1.19185,0.1139 -2.35372,0.1981 -2.34859,0.2522 -1.31363,0.5515 -1.93537,0.405 -1.91486,0.3976 -2.78269,0.3127 -2.30981,0.3079 -0.584,0.2781 0.50125,0.9287 0.84933,0.4456 3.39166,0 3.42216,-0.186 3.33369,-0.047 0.31038,0.4396 1.03539,0.4047 1.49634,0.3932 -2.42227,0.2767 -3.59831,0.1879 -3.38263,0.1441 -2.95392,0.2228 -3.09406,0.2184 -4.21685,0.02 -1.97393,0.2898 -0.54157,0.4096 -3.649,-0.2212 -4.26069,-0.1315 -4.11901,0.019 -2.55899,0.2607 -3.04467,0.2353 -2.36906,0.2806 -2.20767,0.254 -1.37526,0.2931 -1.44211,-0.3097 -2.42638,-0.4116 -3.66603,-0.3051 -3.36607,-0.2784 -4.60187,-0.2676 -4.47326,-0.1562 -3.69005,-0.3197 -3.0553,-0.329 -3.63086,-0.2957 -3.94172,-0.1721 -2.98457,-0.4181 -1.17694,-0.4309 -2.76192,-0.3964 -0.7845,-0.4792 -0.78622,-0.5179 1.9811,-0.3282 3.25045,0.1269 1.33623,-0.409 -1.82961,-0.4703 -2.5558,-0.3732 -3.10561,-0.2432 -1.38178,-0.5501 3.04402,0 2.71071,-0.1116 3.26558,0.056 2.82963,-0.056 0.68159,-0.5941 2.06577,-0.3168 1.90311,-0.3206 2.16538,-0.2356 2.13502,-0.5674 0.56176,-0.517 0.25079,-0.5572 2.26064,-0.2192 0.56569,-0.5387 0.3818,-0.6772 -0.56561,-0.8898 -1.20503,-0.6727 -0.75624,-0.6841 -1.13989,-0.6603 -1.67788,-1.6768 -1.14191,-0.6949 -1.4318,-0.6301 -1.17779,-0.7511 -0.99416,-0.7234 -1.41582,-0.7715 -2.00764,-0.6249 -2.01387,-0.4727 -1.55107,-0.6363 -1.35108,-0.8447 -0.25584,-0.7738 0.623,-0.9072 0.73468,-0.6671 0.63586,-0.7158 1.82541,-0.1693 1.07915,-0.5106 -1.44968,-0.729 -0.65248,-0.8229 -0.26789,-0.8754 0.61571,-0.6626 1.17308,-0.5785 1.12644,-0.5374 1.60704,-0.2248 1.77936,0.3595 0.62869,-0.4947 z m 44.03151,25.5174 -2.94692,-0.2835 -2.35969,0.2835 -0.90182,0 0,0 -0.58466,0.53 -0.57988,0.4423 -0.26509,0.4548 -0.47309,0.511 -1.00102,0.3831 -3.24745,0.3077 0.33372,0.4484 2.73319,0.3512 4.08743,0.061 3.26341,-0.2042 2.8698,-0.2499 2.43672,-0.2766 2.25498,-0.3488 -0.6908,-0.5864 -0.7287,-0.5148 -1.49259,-0.7539 -2.70754,-0.5548 z m -22.21605,2.4257 -2.48493,-0.4712 -0.30442,0.4048 -0.55474,0.4577 -3.8522,-0.1075 -3.92077,-0.043 1.48756,0.3209 0.0735,0.042 2.74563,0.3526 3.6685,-0.062 3.78233,0.1429 -0.2769,-0.4762 -0.36359,-0.5615 z m -31.70663,-13.7315 -1.29928,-0.8467 -1.38344,-0.8233 -1.61315,-0.8742 -1.09416,-0.7328 -1.68412,-0.7419 -1.57972,0.3135 -0.32492,0.9308 1.44057,1.5553 0.53999,0.7056 0.3309,0.9498 -2.3247,-0.072 -1.12178,0.2169 0,0 -1.40431,0.7159 0.88701,0.7398 2.02237,0.5208 1.89128,-0.2423 2.01278,-0.2436 -0.22805,0.6925 2.5517,0.034 1.7939,-0.3446 2.02102,-0.2428 -0.11264,-0.6662 -0.3275,-0.712 -0.99375,-0.8324 z m -57.3047,1.787 -2.99687,-0.1407 -2.81084,-0.2474 -0.76201,0.3178 0,0 2.0759,0.7328 2.45674,0.3446 2.44323,-0.103 2.46489,0.069 2.23265,-0.069 1.69387,0.1373 -2.51275,-1.0062 -1.8289,0.2101 -2.45591,-0.2453 z m -38.11321,2.7201 -2.81421,-0.2969 0.64105,0.5588 10e-6,0 2.99356,0.5823 2.8565,0.128 0.97787,-0.418 -0.009,-0.5872 -1.71661,0.2948 -2.92898,-0.2618 z m -8.28883,-0.033 -2.65332,-0.3966 -0.67215,0.3638 0,0 3.48393,0.4578 2.7528,0.1622 1.23206,0.065 -4.14332,-0.6518 z m -37.92317,8.6321 -2.48815,-0.5394 -2.90524,-0.4349 -3.15163,-0.3959 -3.98427,-0.2013 0.61369,0.4744 0,0 2.3777,0.3416 0.33561,0.072 2.62705,0.4274 3.87537,0.4162 2.69987,-0.1605 z m 675.98698,-193.2314 0.34123,-1.413 0.15554,-2.2045 -0.70175,-1.9838 0.13009,-1.6396 -0.62706,-0.4724 0.15761,-2.4525 -0.52937,-1.9145 -1.23922,1.4661 -0.22597,1.116 -0.84149,2.1473 -0.98844,2.0694 0.2313,1.3022 -0.66242,0.7917 -0.8525,2.9326 -0.0656,2.224 -0.4044,1.1293 0.0393,1.875 -1.44096,3.0792 -0.77247,2.118 -0.91912,1.7091 -0.98567,2.0678 -2.11684,1.3139 -2.35902,-1.3042 -0.1678,-1.189 -1.24507,-0.9865 -0.78279,0 -1.54366,-2.2858 -1.17115,-1.3302 -1.90521,-1.2395 -1.8189,-2.1394 -0.005,-1.0945 1.3198,-1.9072 1.1443,-1.9419 -0.0715,-1.5554 0.98,-0.1295 1.30762,-1.5735 1.0613,-2.0871 -1.00375,-1.9315 -0.76215,0.7503 -1.0022,-0.34 -1.79491,1.1179 -1.5618,-1.2002 -0.85473,0.3951 -2.2164,-0.9992 -1.27025,-1.6029 -1.72798,-0.9695 -1.56495,0.5682 1.88023,1.2872 -0.22454,1.996 -2.45371,0.7354 -1.36509,-0.4637 -1.88892,1.3763 -1.54037,2.2259 0.28794,0.9728 -1.41524,1.0168 -1.83494,3.1161 0.23215,2.1297 -1.70835,-0.3635 -1.73798,-0.026 -1.16756,-2.2978 -1.77845,-1.7832 -1.42916,0.5241 -1.31311,0.5564 -0.20368,0.9761 -1.15259,-0.453 -0.2166,1.0846 -1.50737,0.6608 -0.92278,1.5301 -1.84181,1.9047 -0.85402,2.9404 -1.07597,-0.8365 -1.20728,1.8727 0.65073,1.8211 -1.32448,0.7681 -0.55478,-3.3272 -2.54164,3.2748 -0.47148,2.0904 -0.4251,1.5319 -2.01216,1.9458 -1.12665,2.0446 -1.85726,1.6954 -3.13438,1.1166 -1.50282,-0.09 -0.80326,0.3477 -0.59742,0.8346 -1.7602,0.4221 -2.47592,1.4172 -0.65407,-0.4687 -1.31453,0.2968 -2.40494,1.3938 -1.69672,1.617 -2.51267,1.2656 -1.75439,2.5986 0.45239,-2.8772 -1.7524,2.7187 -0.22647,2.2021 -0.8266,1.8798 -0.78545,0.9234 -0.8369,2.1657 0.34496,1.1179 -0.044,1.1751 0.5617,2.9292 -0.47655,1.8991 -0.40573,-1.4353 -1.0523,-1.0767 -0.0287,3.4392 -0.74495,-1.6011 -0.0617,1.5793 0.71064,2.9213 -0.51321,2.878 0.74724,1.4586 -0.2623,1.0737 0.31968,2.3719 -0.78222,2.0681 -0.2454,2.0652 0.1614,3.6385 -0.45296,2.1218 -1.22004,2.4785 -0.37785,1.2757 -0.74706,0.807 -1.48584,0.4819 -0.82294,2.0233 1.15153,0.6685 1.89326,2.2415 1.75052,0 1.84966,0.1375 1.70588,-1.1141 1.71059,-0.9928 0.69976,0.1589 2.30712,-1.8781 1.86613,-0.162 2.04067,-0.3854 2.06236,0.6438 1.77483,-0.3138 2.26256,-0.086 1.55094,-1.4368 1.24795,-1.8604 2.60998,-0.8209 3.51652,-1.8289 2.42996,0.2369 3.47933,-1.1934 3.9324,-1.2832 4.88114,-0.3396 1.85063,1.745 1.81827,0.1023 2.4953,2.1638 -0.84327,0.8218 0.82048,1.3312 0.51961,2.5662 -0.92225,1.8694 1.37984,1.4443 2.28245,-2.7958 2.1831,-1.2073 3.47834,-3.0233 -0.95307,2.6262 -1.79672,1.7295 -1.33175,2.0297 -2.27495,1.9374 2.62625,-0.6425 2.41323,-2.4286 -0.59018,2.6051 -1.6698,1.6936 2.30128,0.4196 0.58226,1.4101 -0.27657,1.75 -0.86721,2.6166 0.54937,2.1119 1.95667,0.987 1.33619,0.2437 1.15968,0.5386 1.7038,0.9215 3.62359,-2.4654 1.76357,-0.6464 -1.38712,1.7791 1.2357,0.6 1.26606,1.4999 2.38618,-1.4565 1.93095,-1.319 3.16574,-1.4017 2.95493,-0.1245 2.14928,-1.1915 0.47323,-1.0874 1.63581,-2.3788 2.04553,-2.5992 1.91641,-1.7397 2.32466,-3.0282 1.74653,-1.7433 2.30451,-2.7445 2.7936,-1.7484 2.69457,-3.2525 1.70047,-2.5771 0.86676,-2.0702 2.11975,-3.2355 1.17409,-1.6867 1.48251,-3.2362 -0.047,-3.1229 1.061,-2.284 0.71837,-2.1106 0.31965,-2.9857 -1.07213,-3.0201 -0.78206,-1.4278 -1.17794,-2.3025 0.78452,-3.9897 -0.84658,0.5799 -0.61161,-1.6357 -1.34305,0.8297 0.14168,-4.0934 -0.90086,-2.3806 0.61328,-0.9214 -1.39968,-1.6577 -1.47238,-1.813 -2.48413,-1.9969 -0.26221,-2.598 0.73479,-1.99 -0.011,-3.2886 -0.59594,-0.4701 -0.01,-1.9259 0.0843,-3.3145 0.62128,-1.7166 -1.04898,-1.5142 -0.62113,-1.6431 -2.05549,1.464 -0.45755,-3.0477 z m -31.59459,98.9005 -1.48075,-0.2952 -0.99614,1.526 -0.34346,2.8801 -1.0494,2.1662 -0.30082,2.7867 1.46748,0.1008 0.39885,0.1741 3.25876,-2.265 0.27781,0.892 2.0058,-2.6278 1.60127,-1.1321 2.32335,-3.9297 -1.38217,-0.2237 -2.3764,0.6401 -1.66226,0.4558 -1.74192,-1.1483 z m -43.66399,-174.58704 -2.28524,2.16207 -1.04675,1.47749 -1.28042,2.49828 -1.9153,3.12701 -3.35588,0.85601 -1.18386,0.74575 -0.4943,3.34876 -2.16773,0.73923 -2.09144,-1.35566 -1.63464,2.62896 -0.29828,3.66622 0.39214,3.46202 1.32626,3.3846 1.39276,1.0998 0.31683,5.3045 2.31208,0.4563 1.85386,-0.2174 0.96888,1.9132 3.39852,-1.4216 1.3655,1.2666 2.00289,0.2234 1.02568,2.4157 3.27205,-1.778 0.36087,1.4056 1.28567,-6.0453 0.153,-3.9393 2.74478,-2.7061 -0.10941,-3.58584 0.92899,-2.69778 3.33956,-0.46682 -3.21463,-3.66136 0.44899,-1.81976 -2.17881,-3.74372 1.46972,-3.5693 2.01601,-1.34571 -0.59693,-1.92837 1.88053,-0.19586 0.1173,-1.54618 -2.41774,-1.18717 -1.92065,-1.09976 -0.23732,-1.71399 -1.58168,-1.99368 -1.13733,0.0129 -1.21587,3.08069 -2.00866,2.74354 z M 389.09638,0.92887 l -3.38922,-0.0521 -3.38094,-0.0517 -5.06485,0.1387 -0.62035,-0.0889 -5.06279,0.034 -3.18104,0.0915 -2.54017,0.13462 -2.56317,0.47373 -1.08863,-0.24935 -1.90362,-0.0457 -3.3627,0.33164 -3.66042,0.14864 -2.01867,0.0301 -2.97245,0.17887 -0.54131,0.32901 1.18813,0.29178 0.36106,0.4162 2.14033,0.36152 6.10705,-0.0687 3.55772,0.12491 -3.522,0.40208 -1.0943,-0.12086 -4.56878,-0.0478 -0.53646,0.58236 1.49937,0.45812 -1.32455,0.42032 -3.6718,0.2936 -2.36166,0.48757 2.40055,0.24666 0.91501,0.84797 -3.73604,-0.57451 -1.25172,0.0924 -0.85493,0.97424 -3.86723,0.31453 -0.93193,0.68132 3.30579,0.0756 2.42162,0.17538 5.68719,-0.22449 4.14476,0.40095 6.123,-0.8636 0.47496,-0.34281 -3.1572,0.054 0.23786,-0.31409 3.14333,-0.40815 1.68087,-0.52273 3.33654,-0.3698 2.39322,-0.43851 -0.40817,-0.61256 1.58237,-0.21639 -2.12691,-0.15025 5.47631,-0.12712 1.52403,-0.23929 3.89467,-0.19173 4.55692,-0.90686 3.31864,-0.29964 5.1344,-0.61584 -3.65308,0.005 1.9463,-0.21832 4.41181,-0.19319 4.83796,-0.40021 0.55745,-0.23677 -2.49217,-0.23326 -3.2561,-0.10739 -4.19386,-0.0649 z m -53.11339,12.80295 2.82406,-1.08457 -5.47028,0.44236 -2.88072,0.68988 -3.50903,1.55431 -1.66677,1.83027 2.75927,0.008 -3.04837,0.84866 0.865,0.66356 2.87237,0.28737 3.56548,0.56378 6.76483,0.43339 3.84825,-0.24989 1.6287,-0.56896 0.90967,0.65688 1.6412,0.11067 0.95675,1.22271 -1.7475,0.50505 3.45606,0.68557 2.24126,0.99124 0.19231,0.709 -0.1937,0.92689 -4.31268,2.08471 -1.56945,1.09059 0.0941,0.78994 -4.51441,0.28466 -3.95677,0.0397 -2.67643,1.66002 1.18715,0.78519 6.37733,-0.36572 0.45098,-0.66085 2.26962,1.10833 2.33792,1.18937 -1.18986,0.65945 1.82877,1.1493 3.73329,1.38736 5.27781,0.96507 0.14462,-0.84452 -1.36598,-1.44442 -1.73235,-2.02509 4.16655,1.88002 2.31927,0.6445 1.75223,-1.70071 0.0409,-2.29327 -0.47944,-0.60573 -2.16375,-1.03895 -1.30512,-1.2946 1.1535,-1.25566 2.86749,-0.27194 1.81576,2.11243 1.95098,0.95655 5.31995,-2.57395 1.64509,-1.5149 -3.13315,-0.14162 -1.55637,-1.93267 -2.87991,-0.45378 -3.70384,-1.33063 4.43863,-0.93202 -0.35116,-1.8279 -1.04288,-0.76875 -4.05443,-0.74232 -0.89704,-1.17374 -4.02149,0.41333 0.55586,-0.79436 -1.76087,-0.85187 -3.27186,-0.88622 -2.60081,0.69458 -4.39099,0.51463 1.62029,-1.15186 -1.10035,-1.75494 -5.67448,0.68706 -3.51414,1.38568 -0.1369,-1.07568 z m 30.81786,53.89038 1.88505,-1.86325 0.72369,-0.79685 -1.05441,-0.12846 -2.39785,1.01257 -2.04212,1.68314 -4.05405,4.78098 -2.62065,1.83492 0.78696,0.83218 -1.85451,1.08277 0.0853,0.91437 4.69491,0.0945 2.67037,-0.18482 2.11596,0.75257 -2.14699,1.46159 1.42793,0.10835 3.60113,-2.69252 0.56521,0.39271 -1.24625,2.54314 1.44675,0.59039 1.1396,-0.11647 1.77983,-2.73961 -0.2157,-1.91726 0.15899,-1.62476 -1.84426,0.52245 1.40559,-2.22909 -2.11566,-0.92972 -1.33502,0.73633 -1.87443,-0.82813 1.17286,-1.04901 -1.40163,-0.64226 -1.89008,1.01326 2.43352,-2.61402 z m -11.49678,-53.79704 -2.18002,-0.92592 -4.09736,-0.17901 -1.04509,0.1104 -0.82801,0.60318 1.00615,0.9063 0.43036,0.10509 2.35994,-0.2324 2.01352,0.0364 1.97198,0.0503 0.36853,-0.47437 z m -24.93044,-6.19389 -3.5365,-0.088 -1.75397,0.5743 1.29313,0.44284 3.4458,0.17684 0.74117,0.64219 -0.99815,0.74819 -0.69887,0.85157 4.17897,0.51085 2.72835,0.19756 3.876,-0.0285 5.69346,-0.24646 2.12638,0.19441 3.23572,-0.34278 1.71752,-0.41908 0.45762,-0.64108 -1.16427,-0.57242 -2.82526,-0.10548 -3.92221,0.12769 -3.41237,0.3279 -2.48989,-0.12716 -2.37489,-0.0665 -0.59942,-0.35673 -1.55139,-0.33538 1.32855,-0.54748 -0.75468,-0.46984 -3.56031,0.003 -1.18049,-0.45064 z m 21.2422,64.74133 0.12107,-0.5562 -2.01412,-1.26158 -2.87879,-0.75371 -0.92125,0.2526 1.71598,1.42343 2.7855,0.94976 1.19161,-0.0543 z m -1.30778,-68.0108 0.27733,-0.74624 -2.31742,-0.20653 -2.30642,-0.22949 -0.74758,-0.5531 -4.04706,0.0516 0.11301,0.23517 -1.92226,0.0728 -2.00994,0.32281 -2.40231,0.48641 -0.14587,0.51439 1.01262,0.38988 3.19104,-0.009 -2.07124,0.3194 -0.97673,0.44527 0.83253,0.51444 3.33203,0.16457 3.30109,-0.0926 5.08026,-0.94126 3.1085,-0.35844 -1.30158,-0.38001 z m -5.83792,75.89256 -0.35927,-1.51848 -1.24238,0.96299 0.26852,1.04905 2.68923,1.33592 0.97556,-0.20567 1.61241,-1.28871 -2.30136,0.0856 -1.64271,-0.42067 z m 0.71036,-55.00944 1.84925,-0.62291 0.47222,-0.28861 0.73435,-0.88951 -1.08538,-0.56856 -2.104,0.28412 -1.8794,1.16126 -0.37189,1.03047 2.38485,-0.10626 z m -12.21247,-18.19185 0.50578,-0.15398 -0.77096,-0.24766 -3.5399,-0.0194 -0.26184,0.3736 3.1798,0.0862 0.88712,-0.0388 z m -2.14322,-0.71332 1.43248,-0.46592 -1.17174,-0.43714 -0.84136,-0.082 -2.15501,-0.0493 -0.99393,0.51788 -0.26217,0.48272 0.82048,0.30497 3.17125,-0.27117 z m -7.59828,22.13446 -1.34479,-0.18 -2.49422,2.04611 -1.78366,1.79855 -2.79258,1.1488 3.0664,-0.22413 -0.36501,1.37352 3.99679,-1.21591 3.08678,-1.2346 0.36786,1.04326 2.88137,0.56215 2.44619,-0.73506 -0.925,-0.768 -1.69929,0.17984 0.6747,-1.09258 -1.83897,-0.70858 -1.65493,-0.77322 -0.71728,-0.58633 -1.36492,0.3445 0.46056,-0.97832 z m -0.76779,-14.08062 2.73272,-0.33489 4.91551,-1.49883 -3.01415,-0.39897 -3.82403,-0.0568 -2.5344,0.44643 -2.03456,0.70763 -1.25045,0.84517 -0.93209,1.53831 2.11152,0.0666 3.82993,-1.31457 z m 6.91059,22.17988 -0.19819,-0.49412 -0.84431,-0.0526 -1.34945,0.72349 -0.21997,0.16727 0.0571,0.72564 0.8143,0.20765 1.74047,-1.27732 z m -2.36404,-25.81714 0.107,-0.49021 -0.73017,-0.53386 -3.32639,0.40916 -2.12943,0.6968 1.59503,0.41095 2.51912,0.11843 1.96484,-0.61127 z m -2.34403,24.49195 0.38997,-0.46102 -2.92595,-0.0226 -2.43148,1.1007 -0.0162,0.651 1.48278,0.0558 3.5009,-1.32387 z m -0.58709,-29.25493 -0.0193,-0.59965 -3.67855,-0.44625 -3.01291,-0.16354 -1.00286,0.46432 1.4137,0.29864 -2.55901,0.37539 3.81646,0.0474 1.99578,0.41966 2.5879,0.14636 0.45875,-0.54236 z m -1.56359,2.16834 -0.48816,0.18727 -2.39103,-0.0825 -3.65469,0.49097 -1.87007,-0.0454 -1.99676,1.14625 3.21851,-0.11632 -1.59322,0.89375 1.57057,0.24975 3.32365,-0.1604 2.7641,-1.13758 1.28099,-0.759 -0.16389,-0.66684 z m -10.97409,4.41937 -3.49319,0.80748 0.4116,1.11967 -3.5805,-0.21492 -0.87052,0.55642 2.82173,1.37288 0.39379,0.69532 1.67013,0.1535 4.12707,-0.70716 2.53505,-1.60198 -1.82673,-0.74523 2.97013,-0.81363 0.23492,-0.48364 -3.68636,0.21036 -1.70712,-0.34907 z m -2.42308,8.63894 -0.33333,-0.75601 -0.15353,-0.37201 -0.76784,-0.35016 -1.42518,-0.54701 -2.4247,0.83866 -2.49641,0.60759 1.65935,0.89221 1.8886,-0.21834 2.0001,0.60704 2.05294,-0.70197 z m -1.12969,-15.57854 -1.65902,-0.25269 -0.79721,-0.0564 -2.7298,0.37379 -0.47294,0.18089 2.92145,10e-4 2.73752,-0.24689 z m -4.52855,3.26721 0.77563,-0.68774 -1.52444,-0.1643 -2.73774,0.5205 -0.18642,1.41875 -2.99224,-0.11541 -1.49063,-0.88339 -4.08502,-0.49066 -2.57991,0.40613 -5.53931,1.46791 2.03474,0.27698 8.71621,-0.18477 -5.16208,0.69187 -0.73104,0.51995 2.90807,-0.0364 5.95506,-0.68805 6.72132,-0.2431 2.44982,-0.73059 1.05441,-0.73566 -1.79083,-0.0643 -2.10682,0.24844 0.31122,-0.52615 z m 0.86184,-2.09352 1.49378,-0.39613 -2.01925,-0.20418 -2.8977,0.1326 -2.42725,0.42073 1.65063,0.43515 4.19979,-0.38817 z m -1.72318,6.4723 -0.84395,-0.36833 -2.63994,0.0667 -1.02725,0.23439 1.06831,1.19416 3.44283,-1.12691 z m -19.18093,0.5057 -1.37388,-0.32792 -6.90761,1.04287 -2.52604,0.69702 -3.8582,1.34332 2.61789,0.48186 3.0445,-0.0257 -5.68973,0.74079 -0.0381,0.69275 2.73039,0.0381 4.4259,-0.15041 3.15502,0.44297 -3.0561,0.33241 -2.65731,-0.086 -3.53283,0.32768 -1.62033,0.2055 0.21577,1.55137 2.08541,-0.22161 1.97987,0.54178 -0.19241,0.94976 3.83531,-0.19141 5.48981,-0.30244 4.64218,-0.6787 2.48067,-0.12079 2.76324,0.53848 3.24475,0.31572 1.57423,-0.73421 -0.32454,-0.75974 3.46632,-0.15774 1.29446,-0.85461 -2.38079,-0.905 -2.02904,-0.92987 1.23184,-1.29461 1.37057,-1.72864 -1.0488,-0.69534 -1.45128,-0.27236 -2.07648,0.24926 -1.4431,1.78758 -2.0929,0.74557 1.10975,-1.74643 -0.83287,-0.56685 -3.59344,0.8867 -1.22631,-0.87686 -5.12324,0.5232 2.31745,-0.80737 z m 10.03621,-6.90875 -2.91588,0.198 -2.69403,-0.0188 -5.79806,0.89383 -5.53046,1.07608 0,0 1.76827,0.32014 3.41754,-0.22691 4.74559,-0.62363 1.84823,-0.0702 2.48403,-0.49297 2.67477,-1.0555 z m -27.28068,9.98362 1.31243,-0.79288 4.50037,-1.24293 6.78932,-1.21169 3.13428,-0.42582 -0.76723,-0.69965 -0.94507,-0.47367 -4.61323,-0.0901 -2.01764,-0.3345 -6.81896,0.25136 -0.13637,1.00444 -3.74058,1.10959 -3.6443,1.27052 -2.16615,0.75488 2.83189,0.96046 -0.30991,0.8115 6.59115,-0.89147 z m -64.42073,57.31753 0.14856,-1.6837 -1.53332,-1.25007 -0.17137,-1.42913 -0.0675,-1.03289 -2.01334,-0.31601 -1.12979,-0.45184 -2.01596,-0.64801 -0.72236,0.68799 -0.2842,1.62589 2.07231,0.54036 -0.18507,0.85843 1.40266,1.05872 -0.028,1.07881 3.02405,1.38746 1.50331,-0.42601 z m -10.09735,-16.64913 -0.92735,0.90121 -0.64812,1.24988 0.42165,0.89073 -0.24114,1.3243 0.33072,1.32493 0.93473,0.006 -0.1315,-2.32376 3.4547,-3.23202 -2.4246,0.22582 -0.76909,-0.36673 z m 613.63321,121.27395 0.2246,-2.20933 0.88629,-1.68037 -0.90379,-1.45493 -1.6008,-0.0904 -2.79853,1.06806 -1.02733,1.72962 0.68611,3.2913 2.47921,1.18853 2.05424,-1.84252 z m -522.56688,-15.5287 -2.35147,-1.28246 -2.1381,-0.0425 -2.31177,-0.26829 -0.73323,0.41321 -2.13035,0.36012 -1.52296,0.73394 -1.3811,0.83805 -0.82621,1.36156 -1.64324,1.16746 1.11238,0.35858 1.42505,-0.41358 0.54722,-0.92216 1.14328,-0.0527 2.29766,-1.96055 2.64912,0.19292 -1.18358,0.94235 0.83323,0.73637 3.47379,0.58553 0.69544,0.7931 2.39742,1.01493 1.57247,-0.14745 0.32377,2.15896 0.78761,1.09624 1.73495,0.25403 0.9794,0.98781 -2.14303,2.12493 3.9946,-0.37137 1.8565,0.30161 1.87929,-0.18933 1.89582,-0.4838 0.44659,-0.89214 -1.86461,-1.55676 -2.0041,-0.15652 0.35234,-1.0692 -1.52554,-0.77376 -0.91127,0.0521 -1.45364,-1.709 -1.95847,-2.34143 -0.82809,-0.88667 -2.62369,0.42616 -0.86348,-1.38035 z m 246.86697,-109.75663 -0.85056,-1.37397 -3.27842,0.9069 0.4072,1.14309 2.53259,1.56847 1.18919,-2.24449 z m -227.44494,127.71383 0.0138,1.10377 0.6439,0.61109 1.40701,-2.62928 0.97793,-0.55042 0.31331,0.93031 1.08859,-0.23639 0.57865,-0.69937 0.88826,0.18245 1.28713,-0.16076 1.22088,0.83408 1.20224,-1.56043 -1.19527,-1.40447 -1.21188,-0.13818 0.22432,-1.13933 -1.51823,0.0762 -0.33535,-1.3546 -0.73817,0.0958 -1.50924,-0.98188 -2.14775,-0.0176 -0.42733,0.6501 -2.31256,-0.59897 -1.65845,-0.16845 -0.75761,1.05324 1.66273,0.59535 -0.2045,1.45958 1.0578,1.65783 -1.09743,0.85297 -2.0482,-0.30757 -2.47745,-0.53194 -0.39548,1.23533 1.33716,1.19527 1.37951,-0.71724 1.65435,0.27737 1.33643,-0.26607 1.76088,0.65219 z m 695.85384,136.60359 2.01666,-0.949 0.4908,-1.8841 -1.94006,1.2044 -0.93501,0.2119 -1.59474,0.7915 -0.0283,1.4371 1.99061,-0.8118 z m -3.30902,2.074 -0.86241,0.6342 -1.12804,-0.4757 -1.43492,1.3207 -0.21236,1.6882 1.38699,0.4744 1.86733,-0.5271 1.02897,-2.0051 -0.64556,-1.1096 z M 1.165648,316.68726 1.028421,314.83066 0.5,315.00936 l 0.490761,1.8841 0.174887,-0.2062 z M 493.79175,45.42161 l -2.70048,0.21929 -1.77589,-0.2063 -1.82839,2.12884 -0.94209,2.76078 1.08985,1.38112 0.0302,2.64425 1.28266,-1.30268 0.72773,0.75776 -0.87679,1.23665 0.524,0.75345 2.78955,0.49169 0.0344,0.0394 1.51378,1.73275 -0.3747,1.64895 -0.004,-3e-4 -3.45991,-0.25792 -0.50011,1.8758 1.24237,1.55675 -2.48826,0.90152 0.63208,1.16346 3.68455,0.48916 0.0186,0.002 -2.13684,0.63591 -3.58525,3.11994 1.25288,0.5983 1.71193,-1.14267 2.20174,0.33897 1.60403,-1.39607 1.10197,0.58549 4.06424,-0.81734 3.18451,0.0274 2.12795,-1.54811 -0.95646,-1.51795 1.19513,-0.85533 0.26709,-1.85249 -2.84311,-0.5483 -0.66875,-1.13196 -1.42782,-3.2258 -1.58027,-0.44998 -2.013,-3.26902 -0.17732,-0.288 -2.35998,-0.17456 2.09277,-2.43174 0.62263,-2.1768 -2.46659,-0.0138 -2.30475,0.36367 2.47421,-2.84665 z m -6.38132,11.03399 -2.39951,-1.72305 -1.93422,0.11438 -1.81256,1.30105 -3.28415,2.20387 1.04293,2.90243 -2.08711,3.0281 3.32009,0.44225 4.26333,-1.72304 1.87688,-2.57565 -0.30406,-2.03501 1.31838,-1.93533 z m 74.79693,59.77328 -0.36019,1.48266 3.24101,0.6819 0.0227,0.57779 3.73639,-0.29777 0.23316,-1.0318 -1.38436,0.41942 0.009,-0.60813 -1.96236,-0.24781 -2.01249,0.1989 -1.52285,-1.17516 z M 456.75885,0.59714 l -12.76051,-0.0971 -5.80204,0.0742 -2.49544,0.29404 -5.64098,-0.0366 -6.27416,0.50327 -0.81392,0.3833 3.23105,0.50879 -3.02478,-0.31043 -2.21919,-0.0737 -3.403,-0.34095 -5.22013,0.5067 -1.32177,-0.29026 -5.09466,0.008 -5.36067,0.14543 -4.40726,0.24916 -0.11608,0.44116 -2.63887,0.10812 -7.16658,0.7316 -2.25474,0.43852 3.96001,0.40776 -1.33917,0.42525 -7.28118,0.58017 -7.59086,0.60181 -1.02783,0.50089 3.19643,0.54052 7.15197,0.35175 -3.70016,0.0722 -5.31181,0.43469 1.94547,0.89399 1.52379,0.46512 4.58207,-0.10806 4.93981,-0.0592 3.7481,0.10689 3.98145,0.87458 -0.66922,0.64277 1.77129,0.60874 0.69396,1.72243 0.51866,1.16896 0.64107,0.64464 -3.44746,1.65789 1.27804,0.45168 2.12581,-0.25681 1.28476,0.62753 2.54615,1.18614 -3.66185,-0.50023 -1.83628,0.027 -1.48196,1.00603 -0.77262,1.31305 2.01909,0.64215 1.97444,-0.2813 1.27203,-0.29213 2.71012,-0.68942 -1.37954,1.53216 -1.30568,0.83708 -3.4944,0.7543 -3.47962,2.42838 0.92929,0.74968 -1.65082,1.59257 1.77243,2.04171 -0.76363,2.0367 0.32685,1.50703 2.33474,2.94446 0.40992,2.37326 1.55166,1.35566 4.36657,0.0128 2.46531,2.04878 3.16,-0.15419 2.00285,-2.44236 1.72533,-2.02814 -0.15179,-1.88175 4.22063,-1.89105 1.66705,-1.52415 0.66532,-1.59923 2.35468,-1.38674 3.20175,-0.51782 2.97753,-0.5406 1.4681,-0.0904 5.01257,-1.52064 3.67028,-2.23221 2.39224,-0.79684 2.23596,-0.009 6.15135,-0.70604 5.95237,-1.58172 5.82503,-1.69818 -2.69241,-0.10467 -5.17714,-0.0813 2.61765,-0.99673 -0.24132,-1.25779 2.05753,1.0625 1.28661,0.72606 3.61065,-0.36423 -0.30318,-1.49386 -2.1872,-1.1028 -2.44644,-0.44335 1.15329,-0.46952 3.55586,0.72803 0.22494,-0.78276 -1.991,-1.16273 2.64519,-0.005 2.75652,-0.26087 0.80607,-0.58764 -1.95693,-0.66559 4.19704,-0.11617 -1.95849,-1.36052 2.02448,-0.14284 0.0134,-1.27947 -3.05722,-0.76794 3.14666,-0.44738 2.83405,-0.0578 -1.81149,-0.89416 0.54841,-1.43862 1.7523,-0.78792 2.3921,-0.83964 -3.93911,-0.0535 5.55263,-0.19109 1.07037,-0.24985 7.17931,-0.74076 -0.78521,-0.42125 -4.90902,-0.18493 -8.29924,0.37418 -4.5075,0.37271 2.21962,-0.57704 -1.14652,-0.33911 -3.4366,0.28869 -4.73549,-0.32443 -5.9595,0.10243 -0.66867,-0.16521 8.97315,-0.089 6.34231,-0.0398 3.2805,-0.33998 -9.60569,-0.65206 z m 422.26131,255.89322 -0.42885,-1.4706 -4.51963,-1.62504 -1.45432,1.28964 -3.81271,0.9586 1.16813,1.9578 2.50808,0.7305 1.06612,2.3551 4.1295,0.01 0.20793,1.0493 -2.00966,-0.077 -3.08127,1.4242 2.08643,1.9422 -0.0608,1.7174 0.57445,1.449 1.09821,-0.3483 0.91631,-1.9205 4.06343,3.6513 2.3068,0.3302 5.26499,3.3434 1.12102,3.3117 0.384,4.2847 -1.86864,1.0931 -1.50113,3.2014 3.57239,-0.1209 0.8039,-1.1204 2.77562,0.791 2.15709,3.2251 2.88581,0.1638 1.49724,0.6565 2.3595,-1.3498 -0.0463,-2.8988 1.8478,-1.2987 2.49125,-1.1223 3.49607,1.7206 1.0863,3.4401 1.33846,2.159 1.86519,2.5023 2.75445,0.5898 2.34945,0.4402 0.54973,1.0153 1.89403,-0.2732 0.46708,-1.1323 -2.76242,-1.6494 0.93617,-0.7399 -2.08306,-0.6666 0.32334,-1.739 -1.62355,0.1305 -1.36235,-4.1684 -2.25425,-2.5821 -0.38485,-2.6248 2.62603,-0.4242 -0.51374,-2.091 -4.51284,-2.4382 -0.27638,-2.3254 -1.45277,-1.9856 -1.83821,-2.0242 -5.11232,-2.2618 -4.79505,-2.7243 -3.00529,-0.7558 -2.05447,-1.415 -2.38173,-1.3791 -2.50834,0 -3.29394,2.3873 -2.49724,4.1943 -2.83411,-2.3666 -0.64201,-6.3975 z m 0.77974,20.0042 0.13818,-1.8806 -0.56502,-1.1543 -0.67683,1.3337 -0.5985,1.4176 0.0485,2.9671 1.65363,-2.6835 z m -11.32553,-12.3233 -3.06526,-1.153 -3.48897,0.1641 -0.74355,2.1736 1.94556,0.1393 1.60198,-0.2611 2.3429,0.3308 2.31339,1.629 -0.90605,-3.0227 z m -4.84626,-16.71965 -0.28841,-1.61592 -1.67197,-0.34705 -0.24802,-2.16012 -0.90456,1.43949 -0.51797,3.16103 0.85887,5.05834 1.12257,2.50638 0.7945,-0.4748 -1.15057,-2.08904 0.42793,-2.40786 1.45684,0.38751 0.12079,-3.45796 z m -4.29342,18.16375 -0.65368,-1.3035 -2.8596,0.1896 0.48623,1.7001 1.91928,0.7257 1.10777,-1.3119 z m -5.45105,-19.30106 -0.50707,-0.88392 -2.74947,2.87305 -3.24341,0.16583 -3.56312,-0.54901 -2.21814,-1.16831 -2.37001,2.93888 -0.58568,1.6312 -1.45527,5.96464 -0.45858,3.1409 -1.23166,2.5901 0.78816,2.7082 1.18469,0.029 0.27915,3.8131 -0.99323,3.6343 1.14374,1.1582 1.81967,-0.5727 0.16938,-5.6492 -0.0696,-4.6087 1.91611,-1.2019 -0.33502,3.8526 1.93788,2.3171 -0.43604,1.5251 0.64675,1.093 2.84115,-1.529 -1.52892,3.2329 1.02405,1.3877 1.57158,-1.1601 0.16322,-2.5935 -2.33527,-4.5602 0.56349,-1.3576 -2.53304,-5.0683 2.51132,-1.5335 1.25526,-2.3181 1.22328,0.5747 0.24831,-1.8223 -5.27329,1.3465 -1.54573,1.7921 -2.49022,-3.5185 0.40572,-2.99515 2.46355,-0.56971 4.70155,-0.19753 2.71867,0.77378 2.11808,-0.7609 2.22803,-3.92495 z m -4.41831,45.61726 2.14255,-2.9294 2.46494,-1.1275 3.09519,-1.7196 1.1344,-1.065 -1.01913,-0.4875 -0.92348,0.4911 -1.97257,0.1331 -2.50104,0.8836 -0.41886,0.9269 -2.92999,1.56 -1.45476,2.3934 -0.39729,1.3328 0.28415,0.4702 2.49589,-0.8621 z m -3.51233,-8.0334 -2.64566,1.4407 -1.89731,0.2993 -1.65642,-1.1786 -2.30312,0.8174 -0.11981,1.4367 3.69043,0.4842 4.3244,-1.1153 0.60749,-2.1844 z m -6.96286,8.4237 0.28076,-1.0581 -0.85802,-1.1913 -1.3554,-1.1953 -2.6933,0.7717 3.43855,2.7477 1.18741,-0.075 z m -7.10133,-8.418 -0.87113,1.3906 -1.54322,0.031 -1.16674,2.2625 1.50667,0.031 1.99369,-0.5273 3.31896,-0.789 -0.54974,-1.6712 -1.76383,0.3212 -0.92466,-1.0488 z m -25.70948,-5.189 -0.29727,-1.4019 -1.14949,-0.3005 -2.18371,-1.5409 -3.40401,-0.233 -2.15203,3.7669 2.55673,0.2895 0.37618,1.6936 5.01399,1.6208 1.20522,-0.4921 2.03547,0.3898 3.14259,1.5027 2.57424,0.706 2.89207,0.2912 2.55205,-0.1071 2.95526,1.5835 3.33423,-1.4976 -3.25858,-2.3375 -4.16369,-0.7176 -0.84172,-2.5524 -5.0978,-1.895 -0.72435,1.6244 -5.36538,-0.3928 z m -7.68413,-3.6482 0.39691,-6.1064 0.87445,-4.9155 -1.3092,-2.5028 -2.06364,-0.3497 -0.94167,-2.2075 -0.44248,-2.7596 -1.01262,-0.1014 -1.60639,-1.3741 1.13969,-3.23092 -2.15446,-1.80767 -1.6615,-3.31315 -2.41244,-2.70985 -2.86915,-0.062 -2.76972,-4.25095 -1.60299,-1.64452 -2.27055,-2.67921 -2.64803,-3.86182 -4.39511,-0.76248 -1.82082,-0.15907 0.33436,2.00928 3.10016,4.3526 2.18972,2.21364 1.55643,3.38315 2.58928,2.49066 1.07807,3.08843 0.84677,3.40197 2.4717,3.29811 2.08079,5.5387 1.33794,2.9643 2.04402,3.2195 1.12367,2.3951 3.48483,3.2268 2.20937,3.299 3.12261,-0.083 z M 470.5636,26.72794 l -3.39692,-0.15312 -3.58005,1.15863 -2.486,-0.6169 -3.3976,1.19237 -2.89809,-1.48271 -3.20922,0.32095 -1.75908,1.42904 4.25376,0.51663 -0.0573,0.65687 -3.8132,0.43648 4.33021,1.11114 -2.30048,1.01635 5.7749,0.735 2.7394,0.34389 1.90692,-0.42571 6.35863,-1.58251 2.9767,-1.72825 -2.13768,-1.5161 0.69509,-1.41205 z m 69.8501,80.79257 -1.93539,0.29783 -2.605,0.37193 -3.02743,-0.31222 -0.27727,1.75672 3.69057,1.7471 1.33473,0.37174 2.0506,1.30019 0.44471,-1.77415 -0.44699,-1.06529 0.77147,-2.69385 z m -16.60175,-10.02565 -1.22764,1.03045 -1.40024,-0.16648 0.64541,1.90743 0.24043,4.05881 1.00025,0.89827 1.00412,-1.13035 1.17146,0.21338 0.18233,-4.44702 -1.61612,-2.36449 z m -236.12533,84.42268 1.95385,-0.0716 -0.32946,-1.05114 -1.35358,-0.92108 -1.8162,-0.34366 -0.61279,-0.12912 -1.19607,0.26706 -0.44408,0.87641 1.40571,1.39858 1.47339,0.61653 0.91923,-0.64203 z m 577.34418,-70.66493 -1.92029,-3.5371 0.4867,-3.42094 -1.48475,-2.7323 -4.12316,-4.62643 -2.32416,0.60876 0.16865,2.10328 2.59416,3.77521 0.66223,4.14925 -0.76023,1.32746 -2.02332,3.43754 -2.55594,-1.64518 0.30573,6.15663 -3.1222,-0.71259 -4.70029,1.03963 -0.82831,2.39241 -1.83101,1.81728 -0.42303,2.21904 -2.02852,1.09133 2.07394,2.43761 2.09284,1.03735 0.63246,3.2276 1.82689,1.39788 1.12653,-1.51324 -0.71186,-6.06898 -3.77676,-2.60494 3.04391,-0.0677 2.3726,-1.66002 4.20387,-0.77552 1.2926,2.63281 2.36605,1.35911 1.92116,-4.02613 4.49926,-0.2153 2.55393,-1.64885 0.15348,-2.4586 -1.32462,-1.73986 -0.43854,-2.7565 z m -6.5146,-23.4501 -2.64066,-1.08057 -5.20012,-3.32021 0.98065,2.48177 2.23349,4.45786 -2.55482,0.18041 0.34749,2.50983 2.35177,3.27195 2.77919,-0.0497 -0.86306,-3.59867 5.36704,2.24355 0.12315,-3.25444 3.12786,-0.89116 -3.00729,-3.62793 -0.82925,1.36457 -2.21544,-0.68723 z m -4.95381,33.87723 -2.26451,-0.75956 -0.42071,1.4812 -1.67146,-0.40812 -0.53794,2.10871 0.69315,1.68259 2.14395,1.01319 -0.18076,-2.07887 0.99372,-0.82351 1.57128,1.13707 0.54659,-2.14274 -0.87331,-1.20996 z m -124.4005,105.7586 1.13006,-1.12218 0.21975,-4.10192 -1.59335,-4.09547 -1.48164,-2.76635 -2.08548,-2.18039 -0.87053,6.37534 0.79252,5.65859 1.47852,3.13458 2.41015,-0.9022 z m -88.97836,77.83422 -0.54172,-2.5715 -0.65002,-1.6587 -0.88657,-1.6753 -1.01806,1.7456 -0.18021,2.3437 -1.69383,2.7042 -1.15786,-0.4675 0.2824,1.6612 -0.95451,1.9531 -2.43969,2.3873 -1.72583,2.205 -1.22416,0.052 -1.07384,0.6993 -1.60044,0.7919 -1.39327,0.1423 -0.53139,2.4467 -1.11325,2.1539 -0.0271,3.5389 0.3456,2.4154 0.50194,1.8098 -0.43955,2.4296 -1.54886,2.8839 -0.11244,1.2635 -1.31862,0.6566 -0.72318,2.7287 0.0111,2.7147 0.68594,2.9978 -0.13916,3.3207 0.55372,1.9697 2.01713,1.3325 1.46078,0.9496 2.53573,-1.5737 2.30251,-0.8826 1.68729,-4.3364 1.57068,-5.2307 2.36581,-7.1783 1.81491,-5.2557 1.45252,-4.4667 0.42599,-3.2569 0.8318,-0.8897 0.36686,-1.635 -0.32676,-2.8617 0.60122,-1.145 0.78648,2.2662 0.57174,-1.1372 0.40459,-1.8559 -0.6003,-1.8125 -0.15614,-4.6728 z m -96.30106,-301.7527 -4.47371,-0.26972 -1.52967,0.32404 -2.61758,-0.26089 -5.10922,0.30348 2.10848,0.51475 2.4785,0.02 0.46211,0.31885 5.20597,0.19642 4.94096,-0.139 2.14861,-0.6191 -3.61445,-0.38887 z m 0.5315,3.08675 -2.70697,-0.29633 -0.93991,-0.48303 -3.53132,0.2562 1.25493,0.41605 -1.07762,0.34236 3.2848,0.31292 3.71609,-0.54817 z m -12.43375,-2.29321 -2.34255,-0.39844 -2.5027,0.0392 -0.50536,0.39104 -2.45232,0.0162 -1.07562,-0.40086 -4.57272,0.41015 1.58871,0.93795 3.71354,1.07298 2.77179,0.38201 -1.48032,0.47909 4.11072,0.84751 2.15788,-0.0551 0.46322,-1.14088 1.46798,-0.25165 0.60131,-0.95155 4.18477,-0.48914 -6.12833,-0.88848 z m 422.18493,384.89186 1.16552,-3.1026 -1.48845,-0.9071 -0.27845,-1.9493 -1.13164,0.2757 -0.36926,2.4815 0.17315,3.0823 0.34656,1.4307 -0.45538,0.6095 -0.4361,2.3084 -1.33968,2.2158 -2.20301,2.6218 -2.66275,1.1824 -0.92073,1.2237 1.79703,1.3468 -0.49301,1.8444 -3.47789,2.739 0.69741,0.4776 -0.22097,0.868 2.94883,-1.3197 2.95004,-2.2786 2.27689,-1.8034 0.82584,-0.6247 0.79755,-1.4488 1.40762,-1.0271 1.90504,0.07 2.16432,-1.9792 2.69219,-3.0294 -1.0415,-0.3961 -2.35042,1.3062 -1.55616,-0.2736 -1.33219,-1.1164 1.30768,-2.6034 -0.56821,-0.9426 -1.56665,2.3562 0.43678,-3.6376 z m -15.01563,16.1977 0.46238,-1.4177 -2.89225,1.541 -1.73313,1.8526 -1.57718,0.8362 -2.96412,2.4511 -2.80535,1.6957 -3.46553,1.7017 -2.75804,1.2307 -2.08659,0.6067 -5.65128,3.162 -3.25545,2.3535 -0.55348,1.1576 2.48234,0.221 0.70492,1.0345 2.19845,0.067 1.99571,-0.895 3.13335,-1.4072 4.09592,-3.2132 2.37842,-2.0982 3.10852,-1.2148 1.95513,-0.04 0.32283,-1.5581 2.30984,-1.3089 3.509,-2.4119 2.0982,-1.5254 1.04218,-1.392 0.30469,-1.4031 -2.79266,1.3462 0.43318,-1.3717 z m -83.54846,-186.69652 -0.33399,-1.44548 -0.43241,-1.97783 -2.46952,-1.86108 0.47782,3.0355 -1.97454,0.10444 -0.29175,1.7535 -2.03886,1.07662 -1.15547,-1.77955 -1.39682,1.48104 -1.67416,1.10621 -0.83513,3.31748 0.55201,1.15296 1.91376,-2.19744 1.33554,0.15157 0.74966,-1.63207 1.93382,1.86148 -0.71395,1.87276 0.99177,2.8529 3.45939,2.28926 0.69007,-1.84876 -1.10214,-2.9047 1.16188,-1.99805 1.32662,4.01692 0.69203,-3.60604 -0.34726,-2.20847 -0.51837,-2.61317 z m -4.1141,-14.68551 -0.96787,-1.45543 -2.69603,-0.086 2.10601,2.98037 0.22437,1.47966 -1.68649,-0.31192 0.72718,2.36823 0.8676,0.20329 0.43195,2.755 1.23535,-0.87802 -0.9679,-2.4164 -0.21863,-1.31301 2.28826,1.0379 -1.3438,-4.36372 z m -3.35361,7.36848 -0.16826,-3.73476 -1.63436,3.77942 0.14968,-2.63659 -1.51786,0.22997 -0.033,2.43102 -0.58474,1.09801 -0.46743,1.04983 2.00067,2.71302 0.76716,-1.16258 0.62163,-2.47889 0.86655,-1.28845 z m -12.37987,-31.91119 -1.67394,-0.004 -0.22594,3.47798 0.79702,6.02934 -1.33758,-1.27073 0.72771,3.70035 0.6878,1.68665 1.72268,2.22862 0.14285,-1.39824 0.97149,0.89715 -0.71903,0.98741 0.0987,1.60596 1.51428,0.8592 2.44949,-0.57473 2.11522,2.3293 0.51181,-1.42872 1.32563,2.04528 2.44337,1.91318 0.0401,-1.79632 -1.04472,-0.93563 -0.0464,-2.11795 -3.81164,-2.15399 -1.16199,0.45951 -1.54313,-0.42781 -1.11164,-3.0887 -0.0827,-3.11944 1.41465,-1.2802 0.14968,-3.20434 -1.46965,-2.75676 0.13727,-1.59152 -0.44668,-0.97415 -0.65276,0.99844 -1.92195,-1.09469 z m 5.74841,25.6006 0.66497,1.85976 0.0391,1.99562 0.30598,1.81954 1.64681,-1.17605 1.10168,-1.66178 -0.1461,-1.63335 -1.78055,0.006 -1.83185,-1.2095 z m -1.60828,-4.59408 -1.16784,-1.40199 -2.41145,-0.14287 1.83725,2.96753 1.45488,1.94621 0.28716,-3.36888 z m -6.73687,14.67941 1.20274,-2.69631 1.61979,-2.1578 -0.86528,-3.19093 -1.02739,3.88821 -1.40197,2.71222 -1.79374,2.42424 -1.13177,2.74826 3.39762,-3.72789 z m 105.99275,63.71751 0.49374,-1.1034 -1.21396,-1.3379 -1.16691,-2.5003 -0.78768,-0.8951 -0.22098,-1.1745 -0.41598,0.3817 0.38314,3.0057 1.02297,2.5043 1.08103,1.5135 0.82463,-0.394 z m -7.02161,-9.1533 -0.2228,-2.0541 -1.00734,-1.2648 -1.0524,-1.66 -1.14546,-0.949 -0.92605,-0.8699 -1.485,-1.1072 -0.81663,0.955 1.99317,1.1622 1.53255,1.6867 1.21481,1.2951 0.5755,1.5267 0.39355,2.3316 0.9461,-1.0523 z m -3.51572,3.8616 1.1109,-2.4095 0.18936,-2.1908 -0.53307,-0.6486 -1.69251,0.075 0.17356,2.3276 -1.66418,1.408 -0.88851,1.3505 -1.6288,0.3014 -0.12986,-2.0954 -0.41073,0.098 -0.55416,1.8923 -1.56339,0.3087 -2.48448,-0.5761 -0.32138,1.2208 1.52475,1.1001 2.21673,1.1454 1.4951,0 1.51979,-0.9227 1.6151,-0.9585 0.52708,-1.1065 1.4987,-0.3244 z M 842.48695,67.4423 l -3.52686,-2.97339 -2.47041,-2.85789 -3.33171,-2.75782 -2.35739,-1.86813 -0.65767,0.39497 2.14724,1.30975 -0.95095,1.3104 3.29197,3.94644 3.85247,2.88889 3.17643,3.99419 1.25775,2.29029 2.81618,3.30826 1.97203,3.02539 2.35015,2.63469 -0.14376,-2.43104 3.23248,1.89156 -1.53013,-2.1914 -4.75804,-3.18048 -1.9547,-4.41507 4.36622,1.00152 -6.7813,-5.32113 z m 10.6274,-49.55301 -3.05155,-1.26275 -0.62357,0.76628 1.75225,0.59213 1.92287,-0.0957 z m -73.67231,-7.29503 -5.66717,-0.40387 -4.02066,-0.23042 0.80985,0.4965 4.96895,0.61634 3.32115,0.14139 0.58788,-0.61994 z m -6.21563,3.04405 -1.19659,-0.44371 -4.08797,-0.63613 -2.01752,0.15291 -0.36606,0.66057 0.52167,0.0893 4.29238,0.18891 2.85409,-0.0119 z m -6.06561,-3.7782 -8.64006,-0.79183 -4.9787,-0.0645 -1.71593,0.27683 1.51576,1.03903 6.02941,1.01749 2.22003,-0.37351 6.94923,0.0435 -1.37974,-1.14707 z m -81.34019,-3.84385 -0.66252,-0.51425 -6.07123,-0.69383 -1.49133,-0.0777 -1.10603,0.13436 0.44521,1.65313 8.8859,-0.50172 z M 675.17178,5.29424 673.0775,4.22295 666.42047,3.15459 661.739,2.6335 l -3.02577,0.2307 -2.59899,0.72778 2.8483,0.21884 3.2034,0.82465 3.89056,0.45815 5.64126,0.35502 3.47402,-0.1544 z m -61.80269,12.80462 -4.88319,-1.51766 -1.55064,-1.4879 1.61564,-1.65926 1.35187,-1.61227 4.27588,-1.50091 4.82082,-0.7248 5.59389,-0.73409 0.64744,-0.45031 -1.98556,-0.55982 -3.27249,0.18273 -2.44655,0.52923 -5.73237,0.27155 -5.01613,0.95401 -3.3321,0.80902 1.16621,0.71332 -3.23982,1.42494 1.90475,0.20323 -2.60158,1.44898 0.78947,0.95493 -1.68962,0.38173 0.97935,0.97576 3.87321,0.49211 1.10677,0.82624 6.58889,0.24438 1.03586,-0.16514 z m -25.89747,-14.73083 0.4333,-0.16328 -2.83037,-0.23085 -1.36098,0.17327 -0.64145,0.25619 -0.71992,-0.28793 -2.55757,0.0128 -3.0741,0.19406 3.82324,0.0327 -0.55509,0.34088 2.17175,0.26499 1.77726,-0.18531 0.0106,-0.18144 1.42724,-0.083 2.09607,-0.143 z m -436.75885,14.40756 3.07045,-0.44567 0.76949,-0.25231 -1.54297,-0.5236 -1.63572,-0.004 -0.43682,0.0763 -3.05155,1.26275 2.82712,-0.1137 z m -23.79134,10.24005 -3.87142,1.9708 2.90838,-0.95045 0.96304,-1.02035 z m 0.0489,-0.0249 3.42807,-0.51592 -1.96857,0.81571 -0.28708,0.77571 2.89534,-0.28844 1.46392,0.36388 -1.25449,0.97284 1.64796,0.66037 0.25192,0.79613 1.8634,0.0686 1.64548,-0.47643 3.84214,-2.20248 3.82137,-0.22988 3.75326,-0.96104 -0.35689,-2.02374 -4.96755,-0.31737 -2.45401,1.5598 -0.39039,-0.53779 2.69929,-1.32653 -1.21673,-2.07033 -1.68061,-1.5465 -12.73583,6.48337 z m 704.70774,135.19464 0.0683,-6.01769 -0.15048,-2.25241 -1.5502,-1.10954 -1.39134,2.82308 -0.62861,3.67836 1.01825,2.78779 2.22194,3.18595 0.41215,-3.09554 z M 154.30136,49.43502 l 3.3854,-1.26784 -0.0128,-0.82199 -1.28541,-0.17824 -1.66659,0.40249 -3.13346,0.9431 -1.0775,1.25269 0.38014,0.69471 3.41026,-1.02492 z m -18.49245,-16.70957 -1.54901,0.87915 0.17662,0.20671 2.09822,-0.13627 0.13647,0.42658 0.8222,0.51403 2.40082,-0.50026 0.57788,-0.2564 -1.62289,-0.31362 -0.73482,-0.61633 -1.71191,0.23961 -0.59358,-0.4432 z m -0.62784,9.41843 1.1072,-0.96957 -1.43033,-0.22776 -2.76489,0.43066 0.39616,0.68697 0.80472,0.47504 1.88714,-0.39534 z m -63.918606,135.11621 1.042053,-0.59731 1.296853,-0.8159 0.123584,-0.21166 -0.336334,-1.33694 -0.305089,-0.51052 -0.396604,-0.33048 -0.872385,-0.64345 -0.189204,-0.0705 -0.260257,0.35511 -0.02083,0.74924 -0.651381,0.62171 -0.254676,0.42448 0.07635,1.38996 -0.365397,1.06836 0.540781,0.54781 0.572535,-0.63994 z m 0.174442,-5.95 0.362616,-0.45631 -0.547426,-0.58271 -0.869637,-0.36081 -0.365538,0.32546 -0.04564,0.23719 0.22501,0.30883 0.240186,0.80042 1.000431,-0.27207 z m -1.268378,-2.02344 -1.301928,-0.1621 -0.344556,0.46207 1.438527,0.1102 0.207957,-0.41017 z m -2.289098,-0.55109 -0.408296,-1.25219 -0.153795,-0.24316 -0.89489,0.52182 0.05988,0.15122 0.08558,0.8592 0.914733,0.13326 0.181636,0.0488 0.215143,-0.21895 z m -3.864295,-2.49784 0.224577,-0.88014 -0.605217,-0.0802 -0.536555,0.37006 -0.2298,0.27533 0.703539,0.68932 0.443456,-0.37436 z m 902.347365,150.31284 -1.21098,-2.2186 -0.34828,1.0361 0.51944,1.6898 1.03982,-0.5073 z m -0.66915,-5.9263 -1.07296,-1.192 -0.59865,2.9691 0.15363,1.0683 0.62686,-0.2097 0.63475,0.4851 0.25637,-3.1208 z m -441.1242,-216.24313 -0.54557,-2.80737 -1.56429,1.24715 -0.46048,1.21835 0.66737,2.21781 1.17353,0.67397 0.72944,-2.54991 z m -13.11968,7.68436 0.0692,-0.18711 -0.0188,-0.0663 -0.23445,-0.38663 -0.4268,-0.14337 -0.52343,0.0405 -0.019,0.0891 -0.004,0.20179 0.0634,0.0592 0.2568,0.0433 0.79079,0.38843 0.0461,-0.0389 z m -2.92622,0.17406 0.0321,-0.15633 0.0811,-0.0834 0.0184,-0.0957 -0.0814,-0.0601 -0.007,-0.0554 0.0828,-0.12384 -0.0995,-0.0317 -0.64458,0.20897 -0.30343,0.1797 -1.04704,0.81361 -0.002,0.13822 0.0631,0.10683 0.16496,0.0334 0.1058,0.17736 0.19329,-0.17802 0.14776,-0.0861 0.17037,0.0474 0.11717,0.10752 0.0646,0.33739 0.0776,0.0851 0.25704,0.0564 0.44444,0.22662 0.20768,-0.10805 0.22815,-0.18023 0.1193,-0.30518 0.13891,-0.26511 0.16505,-0.24089 0.1171,-0.23779 -0.0359,-0.21364 -0.13603,-0.054 -0.13745,-0.0317 -0.2565,0.10103 -0.24585,-0.11236 z m -4.31973,2.94282 0.12611,-0.0468 0.3285,-0.36018 -0.0278,-0.16451 -0.12547,-0.11387 -0.55175,0.13619 -0.11716,0.16816 -0.006,0.1674 -0.11144,0.0283 -0.0832,0.2357 0.0865,0.0843 0.39013,0.0737 0.0917,-0.20832 z m 0.38637,0.8371 -0.004,-0.0999 -0.24599,-0.0355 -0.1564,-0.19118 -0.0486,0.097 -0.0385,0.0959 0.0105,0.13735 0.25458,0 0.17015,0.0413 0.0581,-0.045 z" />
</svg>
