<?xml version="1.0" encoding="UTF-8" standalone="no"?>
<svg
   xmlns:dc="http://purl.org/dc/elements/1.1/"
   xmlns:cc="http://creativecommons.org/ns#"
   xmlns:rdf="http://www.w3.org/1999/02/22-rdf-syntax-ns#"
   xmlns:svg="http://www.w3.org/2000/svg"
   xmlns="http://www.w3.org/2000/svg"
   xmlns:sodipodi="http://sodipodi.sourceforge.net/DTD/sodipodi-0.dtd"
   xmlns:inkscape="http://www.inkscape.org/namespaces/inkscape"
   enable_background="new 0 0 1000 2001"
   height="483.3476"
   pretty_print="True"
   style="fill:#483737;stroke:#ffffff;stroke-linejoin:round"
   version="1.1"
   viewBox="0 0 1001 483.3476"
   width="1001"
   id="svg2"
   inkscape:version="0.48.4 r9939"
   sodipodi:docname="equirectangular_joined.svg"><sodipodi:namedview
   pagecolor="#ffffff"
   bordercolor="#666666"
   borderopacity="1"
   objecttolerance="10"
   gridtolerance="10"
   guidetolerance="10"
   inkscape:pageopacity="0"
   inkscape:pageshadow="2"
   inkscape:window-width="640"
   inkscape:window-height="480"
   id="namedview19"
   showgrid="false"
   inkscape:zoom="0.11794103"
   inkscape:cx="500.5"
   inkscape:cy="240.67379"
   inkscape:window-x="0"
   inkscape:window-y="0"
   inkscape:window-maximized="0"
   inkscape:current-layer="svg2" />

utf-8<defs
   id="defs4">
utf-8utf-8<style
   type="text/css"
   id="style6">path { fill-rule: evenodd; }utf-8utf-8</style>

utf-8
utf-8utf-8
utf-8</defs>

utf-8<metadata
   id="metadata8">
utf-8utf-8<views
   id="views10">
utf-8utf-8utf-8<view
   h="2001.0"
   padding="0"
   w="1000"
   id="view12">
utf-8utf-8utf-8utf-8<proj
   flip="auto"
   id="lonlat"
   lon0="65.3146660706" />

utf-8utf-8utf-8utf-8<bbox
   h="173645.13"
   w="360000.0"
   x="-180000.0"
   y="-83645.13"
   id="bbox15" />

utf-8utf-8utf-8</view>

utf-8utf-8</views>

utf-8<rdf:RDF>
  <cc:Work
     rdf:about="">
    <dc:format>image/svg+xml</dc:format>
    <dc:type
       rdf:resource="http://purl.org/dc/dcmitype/StillImage" />
  </cc:Work>
</rdf:RDF>
</metadata>

utf-8<path
   inkscape:connector-curvature="0"
   id="---"
   data-name="---"
   data-id="---"
   d="m 611.48613,112.19481 1.01774,0.85101 1.5391,0.31946 1.60556,1.02363 0.69361,1.89494 -0.41413,1.18691 -3.27959,1.44995 -2.39118,-0.24747 -3.23595,0.42827 -3.98483,-1.07437 -4.84839,-1.95796 -4.59562,0.0591 -3.23695,0.78527 -3.33902,1.80178 -5.29425,-0.36769 -1.16674,2.11105 -4.27766,0.11111 -3.0812,2.65667 1.76087,1.32736 -1.35134,2.16008 2.02931,1.54103 1.6456,2.76261 3.03255,-0.05 2.68631,1.47909 1.91978,-0.32951 0.64036,-1.15246 2.99436,0.0933 2.24879,1.49086 4.21593,-0.31221 1.91016,-1.59881 2.32329,0.63914 1.69413,-0.23657 -1.05205,1.04336 1.02133,1.25962 -0.67983,1.14312 0.25938,2.12527 -0.0522,0.0968 -1.38163,1.95725 -0.98931,2.26263 -0.0766,0.0288 -0.39734,0.70322 -0.56342,2.0957 -0.73466,1.2983 0.18962,0.15754 -0.80816,0.91518 0,0 -1.36676,0.69972 -2.16522,-0.15725 -2.22625,-0.65631 -0.64461,0.90761 -0.75681,-1.37777 -1.97508,-0.35072 -2.44972,0.22905 -1.14337,0.79595 -2.13858,0.88002 -1.28625,-0.43255 -2.75794,-0.82081 -2.67303,-0.7345 -3.69586,0.0459 -0.67689,-0.91725 -2.76011,-0.32586 -0.88436,-0.47386 -1.03425,-0.0118 -0.94734,-1.24192 -3.75772,-0.56839 -1.91239,0.37889 -2.00153,1.30167 -0.87122,1.35113 0.64728,2.12787 -1.33142,1.27761 -1.35452,0.72064 -2.95923,-1.38106 -3.91519,-1.1628 -2.49356,-0.53912 -1.30086,-2.46894 -3.68597,-1.24133 -2.32061,-0.4635 -1.16653,0.239 -3.26256,-0.95616 -1.05635,-0.4343 -0.69907,-1.32054 -1.43661,-0.0472 -0.52796,-1.51398 1.82849,-1.39648 0.36575,-2.4041 -0.96175,-0.69017 0.0187,-1.28488 1.38894,-1.3611 -0.19766,-0.53363 -2.35616,1.02241 0.0815,-1.40546 -1.94447,-0.33331 -3.02508,1.12102 -1.89968,0.16866 -1.12971,-0.64631 -2.96824,0.0215 -2.61583,1.09482 -1.401,-0.41255 -4.59461,0.22537 -4.70773,0.49516 -2.67511,0.84548 -1.7537,1.14614 -3.00319,0.48282 -2.67031,1.51792 -1.20664,-0.0297 -2.87709,-0.61323 -2.64153,0.19206 -1.6746,-1.17908 -2.04481,-0.0133 -0.87318,1.7059 -1.85612,2.87608 -2.0601,1.14836 -2.78694,1.26895 -1.78671,1.87657 -0.3725,1.46273 -1.05535,2.38989 0.69419,3.45601 -2.31884,2.31941 -1.39268,0.74012 -2.18878,1.8986 -2.5831,0.30683 -1.39661,1.06677 -0.0509,0.0389 -1.76073,2.83682 -1.85037,1.01243 -1.00274,1.7171 -0.0659,1.47981 -0.73524,1.6202 -0.9352,0.44757 -1.54613,1.76604 -0.95501,1.95998 0.17914,0.94008 -0.90893,1.44751 -1.06697,0.75692 -0.13106,1.28731 -0.11943,1.17378 1.46417,1.19968 0.71801,1.3204 -0.27726,1.38529 0.33547,1.38084 0.30705,2.74509 -0.34502,2.61533 -0.77543,1.36965 0.24058,1.49682 -0.66002,1.42641 -1.34574,1.95014 -1.22186,0.5276 1.38593,0.98896 1.1455,2.16266 -0.35499,1.23212 0.45575,2.12929 0.17671,0.59428 0.84692,0.58947 -0.0162,0.42274 0.6377,0.78311 1.16954,0.18367 1.48297,1.16128 0.80766,0.45511 0.40645,0.61187 0.31537,1.22731 0.69339,0.55208 0.7112,0.35987 1.08025,1.08728 1.21835,1.6436 0.34034,2.05306 0.48605,1.01473 1.44708,1.48806 1.99974,1.11901 0.74837,0.20606 1.87055,1.79224 2.36656,1.51986 2.52396,2.11429 2.86302,1.32406 0.72763,-0.0245 0.53672,0.073 2.75048,-1.01889 1.92854,-0.8017 3.29049,-0.4849 1.78083,-0.0321 1.93815,0.54311 1.26378,-0.0283 2.47616,0.78892 2.50301,-0.80579 1.54441,-0.95257 4.35488,-1.62601 2.23644,-0.59256 2.29573,-0.32405 2.45133,0.001 2.08729,-0.0343 1.96658,1.83013 0.91453,2.01064 1.48713,1.73755 2.22195,0.0607 1.06812,-0.62248 1.0542,0.14606 2.88383,-0.99966 -0.0319,0.76769 0.71142,0.39833 0.56442,1.24469 1.26736,0.47112 1.08564,1.83645 -0.40566,2.19316 -0.95429,3.11932 0.52021,0.41886 -0.55983,2.0596 -0.67481,2.02227 -0.60648,0.88812 -0.0891,0.92285 1.6868,2.86948 1.83581,2.29213 2.85455,2.80376 2.28108,2.9421 0.74271,2.0887 0.38915,0.8616 -0.26413,0.5399 1.39153,1.7574 0.56873,1.8595 0.84276,2.6836 -0.85381,1.1013 -0.14915,0.5773 0.68228,1.6666 0.73983,1.6852 0.8307,0.993 0.14541,1.5744 -0.29168,2.0578 -0.89113,1.236 -1.59566,1.8175 -0.66217,1.1383 -0.90133,2.504 -0.14455,1.1921 -0.95845,2.5431 -0.38456,2.4426 0.2614,1.7465 0.16866,2.1312 2.26013,2.7117 0.60634,1.744 1.46014,3.3324 1.43374,2.295 1.08075,1.1449 0.35556,1.5151 0.0623,3.3233 0.93075,4.2775 0.68472,2.0123 0.61322,2.7044 1.08707,2.0286 2.06433,2.0985 1.99428,3.6091 0.004,0.01 1.39583,2.353 1.81901,2.5998 0.0726,2.1319 -0.89644,0.506 0.90247,1.8615 -0.0155,1.6287 0.3692,0.7466 0.1312,-0.3852 1.19631,1.2401 0.93879,0.051 1.17535,0.9905 1.26349,-0.067 1.71609,-1.0498 2.37152,-0.4399 2.86488,-1.0965 1.15009,0.1454 1.68293,-0.3388 3.01058,0.5353 1.37503,-0.5287 1.68824,0.4106 0.35843,-0.7712 1.41608,-0.1446 2.90321,-1.0778 2.09763,-1.2639 1.96055,-1.6664 3.13934,-2.8661 1.57527,-1.9902 0.77486,-1.4273 1.17722,-1.411 0.54289,-0.4017 1.89552,-1.4027 0.71873,-1.2539 0.32815,-2.3079 0.69404,-2.0221 0.23843,-1.4621 -0.70998,-0.1869 -0.23814,-1.1701 1.21827,-1.0271 3.3406,-1.5035 2.29141,-0.9388 1.16115,-0.9882 0.41312,-1.1556 -0.65471,-0.4756 0.45044,-1.2905 0.0795,-2.7244 -0.49083,0.1389 -0.0345,-0.831 -0.54806,-1.6291 -1.31731,-2.1037 0.23469,-1.9806 1.14449,-0.6422 1.93916,-1.9738 1.06884,-0.5071 3.13848,-2.9815 3.13116,-1.3482 2.53947,-1.0559 1.76863,-1.7225 1.07774,-1.9291 0.8284,-1.9849 -0.48849,-1.3605 -0.1078,-4.3411 -0.34322,-2.4374 0.11427,-2.7674 -0.44944,-1.2454 -1e-5,0 0,0 -1.01941,-0.6075 -1.14961,-2.739 -0.97006,-1.7412 0.18198,-1.327 -0.15928,-0.8442 0.76475,-1.6775 -0.0833,-0.7222 -1.77842,-1.0121 -0.16453,-1.5742 1.28245,-3.4227 1.11852,-0.9173 0.54214,-1.8483 0.89203,-1.12075 0.39403,-1.9572 1.04114,-0.20361 0.68589,-1.159 1.94544,-1.10916 0.62728,-0.65773 0.64061,-1.46475 3.04,-3.36489 2.58939,-2.11286 4.15511,-2.75814 2.77992,-2.24869 3.26675,-3.78919 2.37155,-3.11031 2.38375,-4.07097 1.71728,-3.54742 1.33742,-3.1028 0.78275,-3.00273 0.58647,-1.00327 -0.0105,-1.46003 0.2565,-1.61567 -0.063,-0.76803 -1.05328,0.008 -1.31456,0.95092 -1.47266,0.27964 -1.28017,0.41269 -0.88766,0.0548 10e-6,-1e-5 -1.58173,0.0976 -0.99219,0.50672 -1.3776,0.18287 -2.44516,0.863 -3.0235,0.32922 -2.61856,0.71063 -1.37905,-0.009 -1.25315,-1.16287 -0.54447,-1.14872 -0.90376,-0.51203 -1.19286,-0.76 1.58474,-0.66469 0.0874,-1.15339 -0.6573,-0.85969 -1.36569,-0.83551 -0.86874,-0.95436 -1.50522,-1.60291 -1.54354,-1.58345 -3.79162,-2.6238 -1.52273,-1.35299 -0.76524,-2.54973 -1.6126,-3.21578 -1.52036,-1.02653 -1.05825,-0.68397 -1.01969,-3.31631 -0.40358,-2.85967 0.60919,-0.50391 -0.89581,-2.72542 -0.48761,-0.56903 -3.2353,-2.4933 -0.0896,-1.80536 0.55191,-0.48428 -2.49261,-3.07511 -0.89222,-1.56892 -1.02589,-1.51031 -2.09942,-4.32672 -1.70538,-2.79261 -1.151,-2.93111 0.28547,-0.2518 1.98203,3.98174 1.25375,1.2397 0.92569,0.89628 0.64764,-0.485 0.75567,-1.44636 0.59775,-2.09842 0.78016,-1.11642 -0.27599,-0.72153 0.276,0.72154 0.0929,0.40215 -0.34393,1.10853 -0.12345,0.97238 -0.43179,1.52467 1.38292,-0.0133 1.41665,1.90786 1.69155,2.23996 1.08463,2.06641 0.81117,0.62019 0.77185,1.44005 -0.15187,0.62794 0.91338,1.59163 1.50062,0.57447 1.30254,1.08399 1.59321,3.07999 -0.11843,1.64661 0.3214,1.93047 1.83969,2.64734 1.23879,0.45619 1.92136,1.91153 0.78348,2.26357 1.48052,2.32931 1.43474,0.99535 0.21417,1.1081 0.83774,0.83658 0.36044,1.1854 0.12316,1.21153 -0.33676,0.53571 0.28494,1.26923 -0.55595,0.13508 0.79826,1.1419 0.5436,2.0545 0.45418,0.81957 -0.0794,1.51843 0.72247,1.62264 1.92265,0.14125 0.8874,-0.37695 1.37488,0.0613 0.43006,-0.70653 0.72806,-0.20269 0.6072,-0.73344 0.70151,-0.15783 2.3319,-0.14427 1.77049,-0.53477 1.6235,-1.15282 0.83343,0.16429 1.22301,-0.15309 2.48707,-1.9599 4.43872,-1.29579 2.76569,-1.1727 0.0655,-0.94725 0.53743,-1.23328 2.00935,-0.74622 1.28316,-0.15725 1.85762,-0.937 1.53264,0.2619 1.34416,-0.77127 -0.0138,-1.1221 1.08765,-0.69949 1.72785,0.0224 0.63519,-0.58624 0.27073,-1.3532 1.73504,-1.03813 1.27813,0.009 0.26197,-0.34128 -0.3415,-1.85676 0.44614,-1.40833 0.57763,-0.66232 1.26019,0.1457 1.03654,-1.90291 1.17019,-0.88848 0.44384,-0.7796 1.01099,-1.65551 0.005,-0.61969 -0.99434,-0.35182 -0.74888,-0.92257 -1.25358,-1.59243 -1.64518,-0.50628 -2.03749,-0.36296 -1.55086,-1.00855 -1.24526,-1.89738 -0.37724,-2.1941 0.36217,-0.50385 0.26182,-1.14757 -0.3435,-0.24116 -0.80888,0.94575 -1.75499,1.712 -2.07222,1.78126 -1.90284,1.87815 -1.67777,-0.0821 -2.29701,-0.0726 -2.17415,0.43781 -0.10263,-0.76179 -0.49423,0.13493 -0.52753,-1.0608 0.60304,-1.63413 -0.0489,-1.62623 -0.84061,-0.87074 -0.75864,0.29886 -0.74844,1.45713 0.18388,2.02134 -0.41542,-0.68098 -0.36992,-0.91087 -0.79869,-0.77845 -0.35154,-0.93312 0.27676,-0.92515 -0.1681,-1.14621 -1.89308,-1.1676 -0.47599,-0.97561 -1.36656,-0.63447 -1.0875,-2.39549 -0.89486,-2.09526 0.2479,-0.63383 -0.57964,-1.22595 1.64848,0.13622 1.03712,-1.0842 1.76532,0.92049 1.49489,-0.45016 2.04983,3.70348 1.85504,2.63564 2.67454,0.79122 2.80417,2.13467 3.39442,0.92142 2.80172,-1.34438 2.13453,-0.49631 1.32952,0.49222 1.18468,3.40612 3.13475,0.36095 3.02881,0.63835 5.22564,0.83866 3.91205,-0.38937 4.51307,-0.0517 5.11784,-0.52251 2.14615,2.11536 0.8284,1.99658 2.03605,0.70244 3.2582,2.35773 0.82036,1.09002 -1.33555,1.0041 3.62869,3.36658 1.95782,0.33302 4.04239,-1.66269 0.53873,2.60141 -0.01,3.36464 0.83056,3.55462 1.1508,5.3831 2.52684,3.81509 0.48016,1.73511 0.68916,3.47402 1.47579,2.66858 0.97324,1.31387 1.06554,2.80173 1.28589,3.88987 2.63032,2.59373 1.11464,-0.7984 0.93548,-1.88914 2.53272,-0.78749 -0.84548,-0.91553 1.26435,-2.11866 1.43747,-0.13451 0.0126,-4.71928 1.17707,-2.63901 -0.14728,-2.3042 -0.57834,-3.6129 0.83285,-2.1188 1.29751,-0.14663 2.502,-0.99513 1.38478,-0.68457 0.004,-1.2777 2.76785,-1.81829 2.0883,-1.75219 3.10906,-3.26825 3.99746,-1.86961 1.48282,-1.64353 -0.15962,-2.08959 3.42442,-0.5767 1.88964,0.035 0.39776,-1.01423 1.07473,0.2487 0.78663,0.30295 0.40394,-0.50564 1.18195,0.56327 0.87219,-1.54562 -0.25265,-1.14507 2.55856,0.11111 1.16057,1.6169 0.52868,1.33712 0.16019,1.41493 0.79352,1.44809 1.97146,2.26594 1.62494,0.35607 -0.33963,1.0013 2.1773,3.20272 0.57964,2.60076 -0.95745,3.44251 1.72111,0.65134 1.55819,0.2474 3.15671,-1.98014 1.82992,-1.39304 1.20148,2.30046 0.50183,3.50912 0.9052,3.32452 1.1277,1.43911 -0.22566,3.02609 0.93391,1.6436 -0.85381,2.12784 0.26771,2.06197 -0.81778,2.66399 -0.30317,1.7331 0.52682,1.54304 0.4559,-1.63276 1.34574,1.31753 1.47608,1.56817 0.47513,1.37567 1.09741,1.0659 0.61251,1.17757 -0.30432,2.02242 1.00195,1.51448 0.38341,2.30039 1.60585,1.85791 0.32527,1.41521 3.28605,2.20472 2.62803,2.05773 1.96974,-0.18532 0.0531,-0.93915 -1.09238,-2.45642 -0.97841,-0.76546 -0.20283,-1.64403 -0.2703,-0.95508 0.29571,-1.26363 -0.15934,-1.87054 -1.1653,-1.85971 -1.64044,-1.67697 -0.63878,-0.25953 -1.43919,-1.44163 -1.68264,-0.32291 -1.55015,-1.59084 -0.49897,-2.40439 -1.12726,-2.5353 -1.80954,-0.0872 -0.19062,-2.01057 0.90318,-2.45363 1.49948,-4.05731 0.21963,-3.05516 2.4463,-0.0163 -0.40738,2.18233 2.37597,-0.0518 2.49382,1.2754 1.40488,2.86926 1.12941,1.44751 2.32516,0.40559 2.06074,1.57793 -0.7806,1.88181 1.00855,1.78133 3.46347,-2.58633 2.26615,-2.31568 3.18112,-1.78844 2.31668,-1.82927 0.37537,-4.88658 -1.27267,-5.14073 -1.68781,-2.2307 -2.52095,-1.71587 -2.5976,-3.62963 -2.12448,-2.9279 0.61021,-1.92745 2.31496,-2.62445 3.70865,-2.37647 1.31287,-0.45231 3.72687,0.88934 -0.65787,1.0745 0.72835,2.01603 1.53939,-0.16271 0.9484,-2.93364 2.93924,-0.42597 3.88191,-1.39132 1.57139,-1.38047 0.96047,0.90161 1.698,-1.23421 3.1303,-0.31889 3.86353,-2.33785 3.82018,-2.56359 2.57952,-3.31497 2.24993,-3.64563 2.0283,-3.00685 1.55216,-0.24955 0.70553,-2.20142 0.4269,-2.26249 -1.63498,-0.86221 -0.66462,-1.48153 1.7435,-0.75857 0.0451,-2.0634 -1.88648,-2.13373 -1.69068,-2.54557 -1.09123,-2.73224 -2.98977,-1.52647 1.42598,-1.94425 2.70124,-1.39347 1.29765,-1.4997 3.93287,-0.77579 -0.45016,-1.45519 -1.79633,-0.074 -2.46611,-1.0814 -3.11294,1.98344 -2.19768,-0.81132 -0.093,-1.24684 -2.27347,-0.45597 -1.46388,-1.87822 1.41679,-1.29622 2.72421,-0.1335 1.7115,-1.79367 3.13618,-1.93148 2.42148,-0.98056 1.46732,1.45541 -2.19955,1.86717 0.58121,1.08169 -1.47622,1.28717 2.99121,-0.75828 2.04495,-1.29815 3.88348,-0.80752 1.31072,0.74486 1.6212,0.30266 0.18187,0.45397 -0.70481,1.49833 0.24748,0.5075 -0.65543,0.32607 -0.76065,1.22257 0.74687,0.44313 0.71959,0.25443 0.0979,0.52265 0.81419,-0.2306 0.33518,-0.522 1.34904,0.52867 1.90385,2.37712 -2.06319,0.46789 1.22732,2.89151 -0.51475,2.08328 0.31063,1.51254 2.50214,-0.23786 2.22037,-1.15195 2.51535,-0.53363 1.04702,-1.52683 -0.0218,-3.20013 -0.68758,-1.80057 -2.39779,-3.27736 -1.57326,-1.21849 -1.1053,-0.45159 0.32412,-0.30683 0.087,-1.20255 1.2055,-0.74601 1.84987,-0.45676 1.04731,-0.82108 0.49365,-0.48992 1.43632,-0.61395 -0.10507,-1.99521 0.8294,-0.94518 1.20579,-0.94065 1.05545,0.16665 2e-5,2e-5 1e-5,-2e-5 10e-6,0 -10e-6,-1e-5 0.43296,-0.92424 3.72833,-2.03284 1.745,1.3502 1.75167,-0.0361 3.70144,-1.62983 1.79434,-1.64109 3.74158,-3.20694 3.77053,-3.23458 0.93058,-1.92139 4.1867,-4.01961 1.25319,-4.44117 0.23428,-3.31706 2.17169,-2.77527 -0.0942,-2.36334 -4.01055,-3.05586 -3.04689,-0.18019 -1.77759,1.38761 -2.698,-0.61753 -1.36586,-1.73953 -4.37644,-0.35011 10.64525,-6.55128 8.99816,-5.42202 9.13723,-0.82331 8.4933,0.47747 3.44139,-1.36458 4.31789,0.42158 -0.20117,2.00853 4.29478,-0.286 6.19972,-0.72528 -2.29358,-1.70341 6.95172,-4.65623 7.17122,-0.94316 2.27545,3.41591 7.04564,-3.05075 1.66808,-2.28824 3.37536,-0.23428 -2.23294,3.91586 -4.99347,2.21639 -4.78167,2.85619 -4.96197,3.49728 -4.31661,0.62142 -0.145,1.29816 -2.3437,1.65773 -1.33544,3.85247 1.55044,6.17244 1.18939,4.05264 1.02719,1.91375 4.00387,-2.58789 0.83266,-2.82219 4.14109,-0.67748 0.964,-3.17155 4.85755,-1.41892 -1.15564,-1.19594 1.18922,-2.32364 2.57878,-0.10292 0.37214,-4.04386 -3.16372,-0.62247 -0.099,-1.12267 3.33272,-2.68814 0.89495,-1.82694 3.71513,0.38086 2.67573,-1.19 1.26383,1.03181 7.23744,-2.18056 3.97331,1.92161 1.02125,-1.26225 4.03194,-1.70505 4.25037,-1.9517 2.46988,-0.32372 7.76392,-2.09097 5.17764,0.605 0.71697,-0.73567 -0.32228,-1.14911 -1.28358,-0.74819 -1.65347,-2.28878 -2.50478,-1.47856 3.59978,0.20356 3.57115,-1.22056 0.02,-0.0149 0,-11.06647 -3.8889,-1.21212 -7.9888,-1.32569 -5.77812,0.16617 -8.86238,-0.77667 -1.23681,1.23408 2.24633,1.77536 -3.44236,0.88842 -4.83878,-2.46914 -5.26472,0.3075 -5.24414,-0.54511 -4.92614,0.0727 -3.71816,0.56878 -3.42186,-0.79084 0.33791,-2.03127 -2.31255,-1.14856 -5.53031,-0.45747 -11.21661,0.52553 -7.27144,-2.12281 -2.36439,-1.6488 -25.08842,-1.80392 -3.66739,1.20339 2.00534,2.57878 -4.54373,-0.38945 -2.04594,0.77889 -5.37672,-0.8545 -4.73409,0.74675 -4.456,-1.24967 -2.68033,2.91475 -4.36831,-1.12791 -3.48886,-2.186 1.64325,-1.16311 -1.27864,-1.77775 -4.48561,-1.46328 -4.43455,0.0153 -5.89509,-0.4862 -0.15863,2.1217 -11.61295,-0.41328 -0.67686,-1.29922 -8.91253,-0.4587 -4.44169,0.43881 -1.22009,0.72175 -1.41677,-1.783 -2.50098,0.52553 -4.10886,-0.70073 -3.44444,-0.38888 2.0868,-0.82425 7.29981,-1.54203 3.07281,-0.82203 0.69105,-1.44403 -2.22961,-1.04055 -6.26181,-1.35489 -8.12072,-0.0371 -2.53833,0.67598 -0.74964,-1.37275 -6.29203,-0.42559 3.78234,-0.68469 -4.764,-0.90008 -6.55767,1.13994 -2.65422,1.18236 -0.7657,1.19892 -5.10314,-0.0461 -6.23425,1.47614 -2.2728,-0.62367 -7.29386,0.25778 -0.92675,0.76075 -7.33495,0.37036 -5.4008,1.37797 -3.19136,0.0764 -3.21462,1.82433 2.25762,1.4522 -6.01956,0.3638 -6.68128,-0.12247 -4.8303,0.56056 0.27672,2.9593 2.47025,2.31348 -5.13328,-1.58364 -5.76492,0.14705 -4.64866,1.09211 1.26661,2.00317 -2.97258,-0.50747 1.09591,-2.68056 -1.45972,-1.54003 -1.38542,0.0631 0.64323,1.97522 -4.97145,1.87228 3.6075,2.26506 -2.21647,2.78922 0.66803,1.54491 3.03744,0.22856 -1.29605,1.83386 1.61872,1.57922 -2.40414,1.32273 -0.73756,1.37452 -3.05616,0.71331 -1.10489,1 -3.17503,-0.40925 5.44083,-3.94556 1.19214,-1.85416 -3.06436,-1.70264 0.63106,-3.80636 -0.89381,-1.94181 -1.72778,-0.88553 2.63311,-2.253 -0.57913,-1.54508 -7.35428,-0.73253 -2.06567,0.54623 -1.82305,2.52461 -5.12612,2.51536 0.0841,0.88911 1.48567,2.16711 -0.91578,1.317 3.34761,0.27256 0.0812,0.58925 2.82289,1.46869 -1.857,1.45361 -10.0668,-3.17362 -3.84476,-0.86821 -8.20556,-0.84059 -1.44444,0.91667 2.91067,1.60919 -3.15673,1.83959 -3.16505,-1.67328 -4.12495,1.1515 -5.2065,0.0767 -1.99,0.949 -3.44572,-0.28969 2.73859,-1.68567 -2.09523,-0.13675 -9.6938,2.38531 -5.8025,1.32302 -0.67945,1.77175 -4.29169,0.60245 -2.18647,-0.95106 -0.019,-1.54575 3.51714,-0.34291 -1.58706,-1.55564 -7.76994,-0.89108 2.04203,1.72299 -1.35989,1.66128 2.3163,1.65586 -1.61808,1.90906 -2.59364,-0.97083 -2.56375,-0.16014 -6.47358,2.72058 1.86944,2.03433 -2.3393,0.67687 -6.71503,-1.72898 -1.76795,1.05211 1.67331,1.19375 -0.359,1.34689 -2.17067,-0.72116 -3.57605,-0.847 -0.18149,-2.83846 -0.17724,-1.28871 -4.52869,-2.03439 2.03964,-0.353 12.40067,2.11133 4.53577,-0.74069 3.08367,-1.45945 -0.18356,-1.84875 -2.13202,-1.32019 -10.4955,-3.14172 -7.60692,-0.66111 -4.56319,-1.67925 -2.86567,0.96622 -1.1e-4,2e-5 -3.04335,-1.74488 3.57773,-0.74313 -8.68853,-2.03247 -4.98749,0.55337 -5.0653,-0.12287 -4.23,2.30118 -4.57035,-0.1475 -6.09552,1.21591 -7.63362,3.48399 -4.65217,2.09046 -6.67444,5.36365 -5.0851,3.87136 -5.48417,2.86675 -7.33475,2.33204 -2.55784,1.78743 0.87822,6.41046 0.99333,2.98632 3.84143,1.41465 3.70347,-0.65112 5.48488,-3.21256 1.86337,1.70461 2.1127,3.9287 2.32544,3.15205 0.88281,2.62595 3.21614,-0.1279 1.57211,-2.20307 3.36974,0.26829 1.57756,-2.60227 1.05966,-4.66308 2.889,-0.64983 2.55138,-3.13375 -2.6566,-1.54074 -1.9772,-1.95718 2.02284,-3.91176 5.36416,-2.38931 4.41877,-2.23343 -0.43365,-1.70116 2.69349,-1.93815 4.77834,-0.78663 3.86296,1.31272 0.28896,1.17478 -1.85432,0.58078 -6.35491,3.0126 -2.51866,1.74465 -1.32449,1.61762 1.34904,2.50573 -0.61839,2.73655 2.69033,0.9118 1.60814,1.51542 4.51925,-0.58596 4.88486,-1.01845 5.04118,-0.22099 10e-6,-1e-5 2.91027,1.32075 -3.15715,1.53521 -3e-5,-4e-5 -2.86661,0.0822 -3.01374,-0.45913 -3.49993,0.40343 -3.51228,0.77393 0.24102,1.5958 1.76288,0.98716 1.02147,-0.35011 -0.3224,1.63886 -0.5337,2.13259 -2.22855,0.054 -2.20586,-2.07538 -2.61799,0.94862 -1.36512,1.74444 -0.0962,2.0911 0.59069,2.33499 -3.83324,0.90089 -0.63289,1.22243 -2.67885,-0.0351 -0.20943,-0.67747 -2.7723,-0.46925 -3.49821,0.93994 -4.33493,1.28459 -1.89782,0.81577 -1.31172,-0.88467 -3.13618,-1.09683 -1.56164,0.76079 -2.8244,0.52164 0.0296,-0.98587 -2.80704,-0.64732 -0.0491,-1.0735 -0.75534,-1.35249 2.00002,-2.00002 0.82726,0.30173 0.67883,-1.04788 -1.50609,-0.42045 -0.33331,-0.77787 0.82252,-0.90477 0.0942,-1.42857 -2.23458,0.78355 -0.97525,0.76632 -2.44731,0.17239 -0.79682,0.83343 -0.46279,0.74988 0.0843,2.83969 1.12755,1.54161 0.12747,1.57527 0.63505,1.04128 -1.8862,1.36943 -0.51518,-0.61251 -2.32171,0.15101 -0.54246,0.58825 -2.30821,-0.0784 -3.80051,1.16279 -2.43253,4.08682 -1.43132,0.76324 -1.2e-4,-10e-6 -2.2261,0.54799 -2.42937,0.56083 -0.834,2.2762 -6.4673,2.16611 -2.6223,-1.19158 0.88051,3.14423 -4.66473,-0.71464 -3.60149,0.60425 0.27999,2.02558 4.24522,1.0684 2.04875,1.40546 2.86647,2.91513 -0.52897,5.53418 -1.43646,1.66614 -4.48939,-0.0919 -2.30642,0.14569 -2.95568,-0.47441 -3.72946,0.0176 -3.39916,-0.50119 -3.9297,2.00476 1.13458,1.20514 -0.13996,1.97834 0.1223,0.93642 0.55538,0.99757 0.0616,1.17693 -0.57963,1.67037 -0.19709,1.12282 -1.10746,1.00841 -0.22106,1.81843 0.66419,1.05262 1.24296,0.25623 0.26082,1.70805 -0.42432,2.17371 1.43345,-0.30575 1.46445,0.39059 1.11636,-0.72089 2.59315,0.43021 0.78749,1.59788 1.02851,0.9385 1.35908,0.23046 1.06095,-1.0496 1.73977,-0.98093 2.64756,0.0526 3.52591,-0.0424 1.96686,-2.13589 2.09721,-0.55358 0.60073,-1.80559 1.60671,-1.2393 -1.08334,-1.5874 1.07056,-2.26099 1.70734,-1.53996 0.24776,-0.93448 3.55921,-0.5871 2.63234,-1.85009 -0.14857,-1.6136 0.31781,-1.67273 4.04598,-0.90125 5.47856,0.7521 2.5165,-1.56931 1.15439,-0.20362 1.60499,-1.28911 1.27885,-0.3753 2.25984,0.91682 1.38205,0.32298 0.86644,2.74596 1.88878,1.6001 2.54104,1.80803 2.17056,1.25402 2.05528,0.18 1.20191,1.1165 1.78499,0.50499 0.82008,1.1989 1.1531,0.34609 0.84778,1.40079 1.08478,1.60979 -0.60376,0.59334 -0.56672,1.48987 -0.0108,0.84928 1.15798,-0.21402 1.48369,-2.38243 1.16042,-0.16472 0.32958,-1.44952 -2.00763,-1.02973 1.16904,-1.79676 2.41329,0.45712 1.54168,1.29694 0.51906,-0.9947 -0.28767,-0.51878 -2.38199,-1.44866 -2.03936,-0.84017 -2.48793,-1.0041 0.77931,-0.55337 -0.67696,-0.61395 -2.17673,0.0172 -3.09097,-2.23853 -1.39698,-2.29644 -2.60464,-1.399 -0.91051,-1.41421 0.34006,-0.79136 -0.15359,-1.3789 2.2584,-0.98587 2.21118,0.40465 -0.61825,0.25192 -0.0991,0.0449 -0.0623,0.96449 0.82022,0.93003 0.85137,-1.19904 1.78571,0.4381 0.052,0.93771 1.26651,1.16825 -0.56055,0.20757 2.33592,2.04438 2.54061,0.8256 1.61102,1.00001 2.61123,1.02779 1e-5,-10e-6 1.20034,0.55134 0.77867,0.90692 0.58141,0.21519 0,1e-5 0.46738,0.43767 -0.3791,0.86228 -0.2347,1.89538 0.24173,1.32349 1.53867,0.93269 0.0556,0.61114 0.47227,0.19443 0.18804,0.79101 1.42311,1.58403 1.08334,1.27684 0.48605,1.84815 1.04171,2.22223 2.27778,1.20829 1.84499,-0.0347 -1.05348,-2.4514 1.76389,-0.29161 -0.81936,-1.41672 2.56947,0.7361 -0.0416,-1.56939 -1.37502,-0.80557 -1.547,-1.28029 1.04703,-0.60863 -1.38967,-1.30361 -0.62069,-1.65903 0.52136,-0.60957 1.46948,1.43058 1.54713,-0.003 1.4112,-0.45274 -1.92552,-1.56149 3.36399,-0.72204 1.44952,0.26255 1.69241,0.079 -0.0378,0.57325 0.87405,1.29378 2.31769,-1.49604 1.18511,-0.85905 3.29839,-0.15316 0.50557,-0.68048 -2.42477,-0.89709 -0.33001,-1.06798 -0.89673,-1.58481 1.01444,-1.98689 1.44162,-1.1508 0.77716,-3.35115 0.84376,0.26018 1.34703,-0.59773 -0.0646,-0.71643 2.15089,-2.05306 1.03094,-1.5297 2.57378,-0.34207 0.1912,1.03583 4.31785,0.70208 0.80443,0.63619 -2.65933,0.92329 -0.49064,0.53255 3.03542,0.81305 -0.61251,1.30526 1.5447,0.56499 3.7708,-1.60699 3.04087,-0.48117 0.54246,-0.99104 -2.83331,0.16666 -1.35894,-0.67007 -0.16235,-1.72772 2.39261,-1.03546 2.60048,-0.14649 1.848,-0.89867 2.21779,-0.22213 2.4935,-0.4477 0.0735,0.60725 -4.09431,1.13383 1.55342,1.09917 -2.30495,2.32322 -2.02141,0.44395 2.39905,1.63189 3.16911,1.0478 3.54169,2.34723 z m -26.20342,143.66288 0.1252,-0.4684 -0.80414,-0.7407 -0.36202,-1.5253 -1.69585,-1.5142 -0.95372,-1.9892 0.49667,-1.1711 -0.75075,-1.5623 0.49811,-4.4403 0.0125,0.032 1.01963,2.6472 -0.0136,0.1234 -0.13224,1.1995 0.53298,0.4013 -0.0932,1.1834 0.53557,1.0947 -0.63662,1.0643 2.23888,1.885 0.21144,1.72 1.3975,2.8385 0,0 0.22715,0.4614 -0.46365,0.1574 -0.60031,-0.5784 -0.94884,-0.2226 0.15931,-0.596 z m 9.36742,-23.17619 0.67277,1.05305 -0.17671,2.05699 0,2e-5 -1.37,1.23937 -0.91022,1.25545 1.09841,0.95257 -1.5846,0.684 -0.34709,-0.32413 -1.60743,0.16522 -1.24038,0.62385 -0.77371,-1.07028 0.52222,-1.94418 0.0838,-1.67202 -10e-6,-5e-5 -0.14181,-1.07482 1.27138,-1.62307 1.75915,-0.3969 1.18253,-0.66175 1.44034,0.54677 0.12133,0.18991 z m 55.63209,-103.16425 -0.26614,0.64969 -4.33823,0.73503 -3.94909,-0.47887 -1.9294,-1.39376 -2.63377,-0.57863 -0.87879,-2.04825 -0.0742,-1.37567 1.0186,-0.64926 0.47786,-0.97295 0.48318,-2.15728 2.28783,-0.2235 -0.85553,-0.74888 -1.29421,-0.12991 -1.41292,-1.97045 -1.46086,-1.46273 4e-5,-3e-5 -3.03291,-3.27139 0.27339,-1.87105 -2.52481,-2.63622 2.76083,-2.86747 2.69306,-0.45778 1.26597,-1.64734 2.59145,-0.58238 3.21629,-1.22144 2.36132,0.67797 2.77977,-0.13436 0.4948,1.71767 -0.49997,2.71 -2.42635,-0.41485 -2.36248,0.45109 -0.10665,2.03096 -2.70239,-0.26384 0.093,0.90506 1.53379,0.70272 1.25315,2.49461 3.21945,0.94633 0.52968,0.96778 -0.68271,1.15763 0.1559,0.67732 0.8673,1.79984 0.2835,-2.0354 2.23601,-0.70854 0.79611,1.58883 2.0237,1.66721 -2.44085,0.88884 -2.61913,-0.68192 -0.61466,2.34138 1.84398,0.16206 -0.71328,1.90198 2.1664,0.94022 -0.40394,2.90544 0.51691,1.96449 z m -52.74657,135.21904 -0.66375,2.6179 0.43217,3.1819 0.0503,0.3702 0.52337,0.1161 0.56729,1.4848 -0.0666,0.344 -0.98616,-1.0814 -0.48519,0.6945 -0.44384,-0.5954 0.0121,-1.0433 -0.63935,-0.813 0.0251,-1.2078 -0.82625,-2.0446 0.80601,-1.5432 -0.17441,-3.3484 -0.98142,-1.794 0.0895,-0.3079 0,0 0.15772,-0.5429 1.46848,1.4853 0.2324,2.9177 0.91424,1.0637 -0.0116,0.046 z m -287.51217,113.3875 1.17098,0.1404 -1.8488,-1.608 -0.89716,-2.885 1.13832,-1.3008 2.53516,-1.0959 1.8053,-3.2565 3.28081,-1.5668 0.95572,-2.4921 -2.65566,-0.5617 -2.73189,-2.0338 0.79653,-2.083 2.1773,-1.4229 2.62416,-0.01 0.6568,-1.4873 0.40838,-2.7944 2.23056,-1.7273 2.55762,-0.8623 -0.82747,-1.4429 -1.52072,0.8759 -1.87542,-0.8361 -0.38743,-2.7603 1.07207,-0.7267 2.6711,1.0114 2.84636,-0.3834 1.66614,-0.9774 -0.5126,-1.4009 0.5688,-2.0791 -0.58388,-1.6567 3.05142,0.2798 5.57108,-0.5783 4.11861,-1.4899 2.66909,-3.5619 0.14111,-1.3568 -1.73575,-1.2104 0.37924,-1.9149 -3.5267,-2.3793 0.18991,-1.4501 1.69226,1.5364 1.88382,-0.089 2.56775,1.1928 1.50335,-0.2977 2.05062,0.5555 3.13734,-1.544 1.20212,-1.7457 1.83767,-1.5883 1.26672,-2.6422 1.88848,-1.2991 2.44265,-2.2034 3.08207,-4.8889 1.94131,-1.5288 0.63038,-1.3555 0.51885,-2.8062 -0.46186,-1.5339 0.40429,-2.0741 2.35135,-2.7551 3.26911,-2.2117 3.11099,-0.8115 1.95646,-1.2358 4.36975,-1.0674 3.01783,0.01 0.65033,-1.6649 2.24836,-1.2038 0.47226,-2.8689 2.81644,-3.6261 0.4925,-3.7134 0.87829,-1.096 0.29513,-1.8315 0.77443,-4.2815 -0.19716,-5.2047 0.77608,-2.0437 0.69447,-0.054 2.05629,-2.4081 1.7697,-3.1402 3.91543,-3.8651 1.4132,-1.8136 1.10617,-4.5922 -0.46122,-1.6806 -0.94266,-3.5368 -1.00669,-0.8762 -2.37539,-0.1114 -2.13976,-0.8013 -3.54759,-3.1119 -4.10634,-2.2989 -4.14997,0.10823 -5.40593,-1.46919 -3.23,0.85611 0.45547,-1.53766 -1.35578,-1.62781 -4.61356,-1.69642 -3.49548,-0.99836 -2.10983,1.82274 -0.1002,-2.78421 -4.91012,-0.43624 -0.864,-0.8373 2.0893,-2.28668 -0.0749,-1.91748 -1.48555,-0.45856 -1.55805,-4.85787 -0.68715,-1.53637 -0.94625,0.13127 -0.45985,-1.1376 -2.94111,-2.34467 -2.04531,-0.65744 -0.94331,-0.30561 -2.98668,-0.74651 -2.24592,0.20046 -0.29871,0.50069 -3.32811,-0.55631 -1.09662,-0.967 -1.48856,-1.35507 -1.0466,-0.0658 -0.078,-1.43029 -1.71867,-1.80975 -1.8239,-1.02176 -1.08836,-0.65479 -1.44766,0.0627 -0.44262,-2.22546 -2.10603,-1.3659 -2.22151,-0.20872 -0.94891,-1.31129 2.35881,-0.82043 -3.32882,0.0386 -3.44079,0.16752 -0.0319,0.6995 -1.55826,0.86773 -2.1244,-0.34329 -1.59063,-1.24397 -2.96773,0.28544 -2.49411,-0.0244 -0.10873,-0.9197 -1.8048,-1.549 -1.94806,-0.0451 -0.99707,-1.95194 -0.97389,0.87635 0.38485,1.30928 -3.45923,1.1292 0.14038,2.10288 0.86135,0.97761 -0.62378,2.00778 -1.19746,0.18036 -1.05147,-2.20385 1.22531,-1.61346 0.0339,-1.45268 -0.90606,-1.26062 1.63068,-0.3242 0.079,-0.65636 0.53923,-0.93527 -0.72878,-0.73072 -0.98408,-0.17017 -1.34473,1.3382 -1.08234,0.62105 -2.18591,1.40266 -2.1735,-0.23183 -0.22091,0.57899 -1.7504,0.0528 -1.59314,1.28904 -0.51188,2.34718 -0.0275,0.91877 -1.14385,0.29563 -2.08414,1.93909 -1.43524,-0.0882 -1.04487,-0.76761 -0.9067,-0.8358 -1.236,-0.4798 -1.54879,-0.0947 0.1035,-0.27324 -1.53364,-0.163 -0.94805,0.83013 -1.68695,0.56026 -1.18167,0.70158 -1.36662,0.20075 -0.76352,-0.68256 -0.26226,0.22594 -1.10839,-0.12489 0.0568,-0.58854 -0.99743,-0.99635 -1.30411,-1.18568 -1.07401,-1.11793 -0.70359,-1.50924 -0.4259,-0.45634 -0.12926,-0.75074 0.56837,-0.71033 -0.19099,-0.7336 0.25974,-1.18812 0.4244,-0.27288 -0.07,-1.25057 -0.14914,-0.71601 0.0899,-1.22401 0.29814,-1.11772 0.63993,-0.94618 -0.28343,-1.01645 0.14146,-0.62012 0.23893,-0.26656 -0.731,-0.76409 -1.00999,-0.42547 -0.803,-0.6227 -0.84778,-0.51921 -0.4409,-0.0613 -1.26872,-0.38528 -0.55201,0.24101 -0.72655,0.065 -0.66476,-0.18862 -0.88511,-0.14376 -0.32577,0.31099 -0.89365,0.30726 -1.28401,0.0726 -1.29048,-0.25063 -0.43099,0.13795 -0.25767,-0.22644 -0.79481,0.0398 -0.60928,0.48834 -0.28853,-0.10852 -0.81484,-0.35463 -0.2395,0.41392 -0.90563,-0.50248 0.5505,-0.96212 0.50169,-0.0884 0.54554,-0.73697 0.32198,-1.40358 -0.17534,-0.26564 0.29104,-0.99383 -0.24303,-0.42964 0.44966,-1.20147 0.0463,-0.75556 -0.52645,-0.0128 -0.0103,-0.40753 0.58157,-0.0463 0.70409,0.71342 0.6962,-2.16754 0.41614,-1.20076 -0.51196,-0.48375 0.66046,-1.69125 1.49273,-1.65128 0.0942,-1.33792 -0.66641,-0.58896 -1.68479,0.23527 -2.45958,-0.0967 -2.93738,0.6443 -1.88138,0.72742 -0.48016,0.81204 -0.22809,2.33362 -0.66189,1.62027 -1.76676,1.13344 -1.74846,0.47642 -2.07991,0.49926 -2.11815,0.28056 -2.43633,0.77629 -1.14815,-1.16207 -2.94951,-0.73697 -1.08678,-1.36763 -0.64847,-1.58488 -1.84377,-2.06807 -0.55452,-2.1544 -0.86134,-1.35464 -0.48146,-1.51534 0.26757,-1.35658 0.20305,-3.72156 0.48576,-1.99945 1.07795,-2.43848 -1.08331,0.0833 1.08334,-0.0833 -0.52778,-0.94444 -0.13889,-1.33334 0.0278,-1.91666 0.63889,-1.25 1.51655,-1.32634 2.7605,-1.19764 2.5285,-2.05936 2.33772,-0.64897 1.72792,-0.19478 2.02031,0.64292 2.42298,-0.34639 2.07378,1.46796 2.01554,0.0864 1.04264,-0.52697 1.0307,0.40981 0.52933,-0.3652 -0.58981,-0.54878 0.0452,-1.12653 -0.50026,-0.73834 1.14817,-0.43329 2.11852,-0.19145 2.46517,0.30714 3.13989,-0.34908 1.74139,0.68719 1.34794,1.29581 0.49728,0.1388 2.80228,-1.26069 1.08447,0.42622 2.16553,2.32378 0.77778,1.52778 -0.57017,1.84377 0.41697,1.08667 1.29209,2.12511 1.47222,2.38889 1.05555,0.63889 0.43853,1.21872 1.36703,0.33683 0.83047,-0.35044 0.69297,-1.69615 0.12096,-1.08053 0.0874,-1.87288 -1.31516,-3.22222 -0.0155,-1.20036 -1.23448,-1.9663 -0.92698,-2.37645 -0.49086,-1.92908 0.42814,-1.97361 1.3092,-1.6467 1.5657,-1.32237 3.04932,-1.80288 0.39695,-0.93211 1.40644,-1.0205 1.3872,-0.17817 1.8259,-1.62927 2.87349,-0.8237 1.7658,-2.06166 -0.39042,-2.7792 -0.28822,-0.96114 -0.79705,-0.19205 -0.11911,-2.64318 -1.91217,-0.89458 1.83519,0.43537 -0.59276,-1.7621 0.53535,-1.20107 0.32536,2.30774 1.41894,1.06157 -0.85894,1.89014 0.25289,0.1103 1.56322,-2.21839 0.89094,-1.07947 -0.0419,-1.04976 -0.68935,-0.49435 -0.57792,-1.49583 0.9112,0.69458 0.61002,0.14458 0.20659,0.7135 2.02127,-2.13811 0.59984,-1.99547 -0.81742,-0.12744 0.84551,-0.77012 -0.0824,0.34098 1.76945,-0.006 3.88889,-0.83333 -0.82295,-0.52634 -4.07983,0.52327 2.31547,-0.80429 1.61509,-0.13709 1.20833,-0.13889 2.05447,-0.48458 1.33442,0.054 1.87491,-0.45047 0.22239,-0.7935 -0.83341,-0.61714 0.29166,1.01389 -1.15277,-0.0694 -0.91667,-1.47222 0.0281,-1.47306 0.4706,-0.62482 1.47029,-1.64948 2.93381,-0.82209 2.85411,-0.95888 2.96628,-1.34584 -0.47987,-0.91064 3.08712,-0.33827 4.446,-0.0909 -4.82289,2.297 0.10647,2.35125 2.10928,0.204 3.10416,-2.00083 2.75514,-1.12392 6.15231,-1.65308 3.43614,-1.81987 -1.7937,-1.00622 -0.19319,-2.01469 -2.78492,3.12267 -4.59047,0.40208 -3.60806,-1.38742 -0.90652,-2.09578 -0.88031,-2.99411 2.6235,-1.86564 -2.45908,-1.36194 -4.15603,0.27689 -5.82658,2.31416 -4.45895,3.64984 -2.35933,0.45653 3.19711,-2.56437 4.00689,-3.67633 3.54119,-1.23111 2.32572,-1.99281 2.87706,-0.1923 4.16889,0.02 5.94125,0.5848 4.69603,-0.45086 3.49519,-2.28203 4.57753,-0.98727 1.99375,-0.97495 2.01605,-1.04428 -0.20261,-3.12144 -1.11608,-1.04758 -2.16328,-0.36898 -1.10086,-2.3505 -1.783,-0.88608 -4.42928,-0.71828 -2.49697,-1.58725 -3.6948,-1.56658 1.11697,-1.74444 -3.0717,-3.33231 -3.61775,-3.54311 -2.16325,-2.4805 -1.83791,1.2913 -2.65725,3.065 -4.02217,1.54236 -2.01331,-1.63611 -2.53708,-0.43416 -0.92342,-3.51081 0.0831,-2.33378 -4.95353,-0.21044 -0.84275,-1.07828 -3.42069,-1.61033 -2.58709,-0.94092 -2.30089,0.7297 -2.85558,-0.27025 -4.76239,-0.75592 -1.93389,0.64136 0.9282,4.33822 1.211,2.51464 -3.27811,2.9112 3.37394,2.09025 1.88631,2.35961 0.22727,1.85666 -1.53952,1.93562 -3.14762,1.94711 -4.44677,1.30202 1.95936,1.46187 1.45083,4.38713 -1.50305,2.85598 -2.13856,0.90419 -4.13294,-2.63739 -2.01187,-3.10875 -0.86438,-2.79233 0.45375,-2.4057 -3.02139,-0.26825 -4.58684,-0.1603 -2.94277,-1.17009 -3.48056,-0.76474 -1.98769,-1.31245 -2.77709,-1.05583 -5.16155,-1.20267 -3.88706,0.54886 -1.29886,-2.10728 -1.25111,-2.60114 -4.08217,-0.46305 0.15359,-3.22608 1.07716,-2.19011 3.01264,-3.12789 3.39878,-2.25109 3.23161,-0.34758 0.1835,-1.80544 2.19317,-1.17378 3.97633,-0.184 3.22144,-1.87961 0.81059,-1.21484 2.6773,-2.34244 0.82825,-1.39467 2.87225,0.8362 3.8635,-0.42845 5.43898,-1.94233 0.35347,-1.35106 -1.95856,-1.48714 2.06711,-1.48094 -0.1673,-1.37875 -3.7282,-1.37845 -4.10619,-0.40869 -3.94767,-0.21311 -0.15186,3.04875 -2.02619,2.3975 -2.90028,2.00761 -2.687,-1.87406 0.8273,-2.06027 -3.3208,-1.78792 -3.71211,2.17706 0.0122,-2.84075 -5.16617,-0.56198 2.46467,-1.36477 -3.77372,-3.13167 -2.81053,-1.22628 -3.66342,-0.4455 -3.2843,2.01586 -0.22267,3.06961 3.2423,1.12237 2.97573,1.713 -1.25606,2.79222 -2.23453,-0.0746 -1.76791,2.21478 0.0166,-2.62781 -4.30436,-0.94236 -2.46978,0.48528 0.32056,1.72858 -4.05209,-0.0667 -4.31216,0.44102 -4.90784,-1.25239 -3.10211,0.22153 -2.79141,-1.50894 -2.24217,-0.66328 -2.22222,0.27778 -3.38114,0.128 -1.79384,0.95078 2.835,1.17855 -3.02169,1.40533 -2.96108,-1.66555 -2.36614,0.48589 -7.49797,0.32769 -5.02117,-0.59572 3.90819,-1.37858 -3.74711,-1.40836 -2.72091,0.17888 -3.82292,-0.47158 -6.50056,-1.01828 -4.24827,-1.16644 -3.36456,-0.16042 -1.04883,0.81059 -3.41278,0.45564 -0.37542,-2.10753 -3.69858,1.88283 -4.69667,-2.49064 -1.91958,-0.29619 -0.62053,1.30827 -2.07269,0.64887 -1.90828,-1.15117 -4.54625,0.69217 -4.16081,1.21991 -4.12608,-0.33914 -3.36422,0.86753 -2.43839,1.15856 -2.89661,-0.2555 -4.37267,-1.33611 -5.18185,-0.66939 -4e-5,0 -3.01808,-0.38872 -4.21371,-0.83493 -3.696016,0.45145 -2.13883,-0.36116 -5.342699,-0.26118 -5.851782,-0.87771 -2.833304,0.27776 -4.250028,-0.4722 0.166657,-0.63885 -4.694445,-0.16665 -1.233775,0.53772 -2.01007,-1.2538 -4.202873,-0.5833 -4.274717,1.48067 -2.554036,-0.18589 -5.265613,1.2332 -2.705836,0.31767 -2.837969,1.32019 -0.661243,1.35263 -3.506102,1.2655 -4.927492,0.0903 -1.554814,1.45598 3.817094,0.87807 2.664709,1.18454 1.975762,1.38873 3.416674,1.05786 2.255389,1.72068 -5.863409,0.10809 0.378028,-1.38737 -2.283883,0 -6.196005,1.35651 -3.90358,1.162 3.515433,1.61417 1.165878,1.11729 4.06794,0.66591 3.928988,-0.31171 2.190578,0.61265 0.846489,-0.61344 2.947566,-0.60497 1.705968,-0.0316 -2.056363,1.07171 1.554815,0.49997 0.51619,1.26858 -2.116509,0.86192 -2.01696,-0.23922 -2.240747,1.34022 -1.905856,-0.44442 -2.24771,0.20298 -0.990752,1.42583 -2.264647,1.55022 -1.074798,1.59717 2.140409,1.18367 0.01234,1.57333 1.900472,0.6667 2.344101,1.30397 3.611895,-0.53241 1.788579,0.98917 -0.502266,1.0186 0.239147,1.65351 1.70525,0.002 2.777034,-1.1119 1.03884,1.38493 0.748949,-0.99678 1.814059,1.4089 1.503855,-1.00999 0.895797,0.47772 3.202934,-0.8419 -1.412776,1.64044 -0.479156,2.10646 -2.050908,0.98078 -0.620404,0.55624 -3.850325,1.66283 -1.369569,1.13889 -3.446029,0.31408 -2.960629,1.51929 -2.717606,0.85725 -3.038574,1.2978 0.435159,0.46681 4.767007,-0.79324 2.310224,-0.92902 2.818662,-0.94597 2.592578,-0.77457 1.906645,0.2136 3.250017,-1.18741 0.878069,-1.30404 4.336442,-1.43438 0.688229,-1.22998 2.780121,-0.84727 2.986108,-1.16272 2.624947,-1.99543 -2.032391,-1.34876 4.00234,-1.97604 1.895807,-1.84873 3.540913,-1.54785 0.761581,0.69677 -2.95216,0.85496 -1.249206,2.72449 0.397335,1.63657 3.078192,-0.58998 2.445516,-0.93735 3.213987,-0.57921 1.535436,-0.17821 -0.572891,-1.92961 3.083145,-0.58796 3.30227,1.18346 5.462984,1.27619 3.84566,-0.23685 4.8588,0.99147 2.65969,0.5271 5.74384,2.88268 3.25539,0.79941 4.41626,0.068 2.66708,0.17958 1.49689,2.62272 3.58103,2.24692 0.78555,2.42283 2.44832,0.88575 1.52696,1.04487 1e-5,0 0.0587,1.43107 3.36039,2.01661 0.48733,2.23947 3.55408,1.18269 -0.39566,1.70495 1.54763,2.45894 5.03056,1.15014 1.98436,1.2 5.37786,2.72784 0.37281,0.007 0.94444,2.27778 0.44445,2.27778 -0.68711,0.73333 -1.47956,-2.62222 -4.01695,-0.94365 -0.33641,0.54244 0.80983,1.28962 0.87788,2.37617 0.50196,3.72594 -0.3378,2.52088 -0.33779,2.52087 -1.08528,2.61775 0.8865,2.12875 0.0968,2.38228 -0.60891,2.30228 1.48027,1.51725 0.38325,2.26481 2.15003,2.32763 1.2255,0.91756 -0.0985,0.64342 2.31361,3.86175 2.69511,2.79075 0.33742,1.52308 0.70856,0.44845 2.58038,0.27397 0.994,0.75133 1.55863,0.1395 0.30359,0.79686 1.29612,0.33243 1.80017,1.59725 0.46716,1.41913 1.12843,2.49888 1.2866,2.22022 1.03051,1.8213 1.0242,1.73454 1.63003,0.76911 2.1384,1.98158 -0.10364,1.25308 -1.03066,1.03755 -1.14413,-0.15754 -0.20247,0.20965 1.63721,1.61288 1.71336,0.67229 0.70058,0.7239 0.36683,-0.35757 1.90937,1.23952 1.32385,0.86098 0.42145,1.50522 -0.0918,2.03254 1.42075,0.70553 2.00296,1.34294 1.81786,1.58331 0.73244,1.68859 0.49215,0.0134 1.16897,-1.02032 0.0675,-0.49746 -1.00762,-1.2403 -1.11391,-1.26213 -1.33943,-0.0918 -0.15266,-1.46502 -0.7717,-1.30167 -0.8246,-1.21662 -0.9217,-2.58397 -1.74573,-1.41364 -0.59156,-0.98357 -0.84354,-0.70668 -0.55753,-1.79159 -0.49373,0.0386 -0.36647,-0.95414 -0.42245,-0.19831 -0.45784,-0.654 -2.06139,-1.91339 -0.95257,-1.14513 -0.27037,-2.08594 -0.45963,-1.33296 0.44513,-1.12791 1.58532,0.76524 0.92738,-0.12101 2.00892,1.10178 -0.0421,1.06691 0.98393,2.12713 1.49381,2.09519 0.12108,0.86788 1.30175,1.35127 1.61302,1.46308 1.49417,0.22602 0.69246,1.93822 1.63965,1.34983 1.41615,0.6479 -0.42346,1.7168 0.51081,0.67854 2.38415,1.13416 1.35127,1.73166 2.79296,2.16984 2.44796,2.76117 0.93139,1.40187 0.25071,1.10537 0.93706,1.24734 -0.0137,0.96061 -0.63863,0.72052 0.2858,0.79216 -0.92673,0.27116 0.6621,1.35371 1.39175,1.75175 2.98467,1.57657 1.15705,1.26743 2.84127,0.87929 1.55446,0.16572 0.70122,0.74185 2.32386,1.32765 3.14472,1.29141 2.08256,0.38922 2.59624,1.27426 2.08177,0.52846 1.96155,0.73209 1.40015,-0.27382 2.23099,-1.04508 1.55158,-0.20183 2.26802,0.72448 1.43252,0.90204 3.14365,2.99056 1.49445,1.14614 1.27038,0.55107 1.73274,0.0502 1.42519,0.48454 0.78656,0.59643 1.54347,0.17247 1.14866,0.55222 0.99979,0.26606 1.60886,0.0415 0.30834,-0.65406 0.84361,0.24151 0.47988,0.86903 -0.21037,0.1963 -0.45856,-0.41815 -0.3084,0.42956 1.3916,1.25459 1.1709,0.87304 0.61151,0.93635 1.29822,1.12066 0.96097,0.87499 -0.63663,0.53657 0.78448,0.39152 -0.36776,0.87498 -0.0159,0.8457 0.37961,0.55983 0.8925,0.27446 0.6349,0.77084 0.5543,-0.66376 -0.17857,-0.80758 0.72864,0.49631 0.18252,0.81254 0.95622,0.35606 1.0931,0.54598 0.77013,0.66504 0.10091,0.61373 -0.31989,0.48224 0.56399,0.58309 1.50737,0.61638 0.31896,0.42002 0.0858,-0.6029 1.19207,-0.004 0.72082,0.32492 1.13925,0.18453 0.56054,1.11764 0.91611,0.16307 0.36159,-0.47227 0.48095,1.65939 1.29234,-0.14175 0.40136,-0.41162 0.75828,-0.35491 -1.325,-1.50774 0.27231,-0.57805 0.60605,-0.097 1.12195,-0.69777 0.56306,-0.96628 1.21547,-0.17699 1.38385,0.77213 0.51849,0.91783 0.7038,0.19034 -0.68629,0.74206 0.59507,1.49941 0.92601,0.80134 1.12475,1.4796 0.43846,2.34934 -0.59557,0.72928 0.62672,2.54119 -0.52408,1.61216 1.02384,0.66103 -1.06317,1.45727 -1.16976,1.74559 -1.37796,0.18625 -0.65141,1.00611 0.12302,1.39153 -1.03641,0.20843 0.37688,0.86235 -1.90973,1.10552 -1.5218,0.59586 0.19365,1.13358 -1.05119,1.78901 -0.51124,1.73044 -0.97302,0.41887 0.46904,2.52109 -0.56378,0.78304 1.66384,1.21727 1.06173,-1.28991 0.60074,1.21311 -1.47852,2.07596 -2.21419,1.7543 -0.86465,1.9455 1.3461,2.6494 -0.89902,1.2397 1.9792,1.1245 2.15807,1.813 0.87405,2.0458 1.13602,1.2659 2.62444,5.531 2.73878,5.125 2.35264,3.6453 -0.45618,0.8004 1.15073,2.2948 2.14256,1.7122 4.98154,3.038 5.50691,2.7892 0.24109,1.1398 2.78521,1.5949 0.5782,3.9125 0.20326,4.5468 -0.86866,6.2102 -0.89164,5.7692 -0.50047,5.3735 -1.62436,3.3919 0.33281,3.4284 -0.82955,2.2916 0.63964,4.1618 -1.17578,4.1394 -1.92057,4.4438 -1.70439,4.4859 -1.1704,0.09 0.22917,3.1294 0.79991,2.7106 -1.27641,1.8987 -0.94683,5.1461 -0.87218,3.9726 1.75169,0.3912 0.86788,-3.4674 1.86415,0.7384 -1.45153,5.7545 -3.0871,-0.9776 -0.94568,4.6137 -2.64511,2.4547 4.21615,0.81 -2.93386,2.1463 -1.18123,2.6718 0.35628,4.735 1.39756,1.8473 -0.78721,1.6277 0.87018,1.7594 3.45557,1.5898 0,0 3.18004,1.9343 3.13374,0.9029 1.17629,-0.064 0.44786,-2.5946 2.50645,-1.0035 1.33749,-0.6833 2.47149,0.021 z m -58.41235,-278.63732 1.12759,-1.09853 1.57678,-0.43623 0.61718,-0.67725 0.62578,-0.36216 2.58311,0.55997 1.91396,0.0667 0.66383,0.37164 0.92917,1.57484 3.11752,0.41744 -0.48999,0.78993 1.09892,0.81526 -0.47299,1.05521 1.16581,0.3486 -0.57922,0.93322 -0.002,0.004 -0.8475,-0.11225 -0.58329,-0.77781 -2.72952,0.24267 -2.46497,0.61846 -1.95631,-1.05843 -1.57484,-0.35427 0.89249,-1.46481 -2.4519,0.91977 -2.22883,0.89988 -2.14458,0.70653 -1.70266,-0.95421 -2.78314,0.5787 0.009,-0.40767 1.88547,-1.17105 1.97225,-1.11111 2.8333,-0.91661 3e-5,-3e-5 z m 14.62024,4.44786 0.52222,-0.40831 0.54483,0.61523 2.08349,0.3448 2.11256,0.0292 2.25173,0.28358 2.48492,0.53815 0.9062,0.87132 1.79899,2.12649 -0.89465,0.91855 -2.25747,-0.38255 -1.4018,-1.71782 0.35183,1.74968 -1.32492,1.54312 0.14577,1.31832 -0.22932,0.77558 -1.79795,0.91896 -3e-5,2e-5 -0.13888,-1.13889 -0.49997,-1.61109 -1.02778,-0.27776 -1.72227,1.22222 -0.55193,-0.0231 -0.14247,-0.69907 1.52776,-1.11118 0.25336,-1.26593 -0.22558,-1.26184 -2.05558,-1.08327 -2.36111,-0.55559 -0.38886,1.05556 -0.61237,0.28264 -0.49071,1.37129 -0.25802,-0.93175 -1.11069,0.66505 -0.69311,0.93276 -0.72476,1.36267 -0.13816,1.17844 0.92106,1.71832 -0.0767,1.8325 -1.12741,1.35356 -0.56255,0.38399 -0.75003,0.30561 -0.94381,0.0151 -0.25544,-0.18833 -0.74866,-1.46 -0.0215,-0.7219 0.0742,-0.68571 -0.34838,-1.36017 0.5276,-1.57218 0.62736,-1.93572 1.44135,-2.13753 -0.4183,0.01 -2.041,1.78965 -0.37638,-0.3285 1.08858,-1.00109 1.65673,-1.79525 1.88892,-0.24999 2.16668,-0.55559 2.18455,0.29312 0.0932,0.0125 2.44667,-0.25063 -1.38199,-1.1071 0,0 z m 3.37976,12.02432 1.52433,0.17498 2.06125,-0.88474 1.21368,-0.7768 0.82581,-0.12661 1.52726,0.27963 0.73883,-0.43214 1.35507,-0.35105 2.42039,-0.34156 10e-6,6e-5 0.054,0.27296 -2.3934,1.6586 -2.09512,0.80357 -1.42986,0.37451 -1.64532,0.76825 -2.01093,0.36949 -1.38515,-0.14218 -1.71314,-0.57461 0.95228,-1.07236 5e-5,0 z m 11.42025,-3.29329 -0.13223,0.0319 -0.84828,0.14369 -1.10774,-0.26341 0.83141,-0.94998 0.84721,-0.32843 1.96011,-0.40487 2.34769,-0.37817 1.23299,0.52552 0.77443,-0.60921 0.88094,-0.38492 0.59033,0.20376 0.0317,0.0434 0.28429,0.38864 0.16465,1.08097 -2.08335,0.91668 -2.27541,-0.23011 -2.1829,-0.10321 -1.31586,0.31775 z m 37.52418,273.51553 1.25,-1.3889 -3.88889,-0.6944 -3.61111,-1.6667 -1.38889,-2.0833 -1.0667,-1.2879 -1.97678,-0.3279 -2.56063,1.147 -0.90084,1.9017 -1.43319,1.2736 -3.68459,-0.9971 -3.89977,-1.8554 -2.29009,-0.5832 3.82592,3.1112 2.83694,1.4934 3.49506,1.5519 2.90997,0.4017 2.01664,0.835 1.64475,0.2249 1.36489,0.088 2.38222,-0.8628 0.91975,-1.1234 1.41645,0.9811 2.63889,-0.1389 z m 19.12738,24.868 2.82892,-0.8165 1.03375,-0.9253 -1.63212,-0.7077 -2.17615,0.3266 -1.57785,0.8709 -2.01302,0.7077 -2.28496,0.3265 -1.95853,0.5444 -1.74099,0.8708 -2.66586,0.1633 -1.741,0.7076 -1.5233,0.7621 -1.08815,1.1975 -2.2307,0.8163 -1.90413,0.8711 -1.79547,1.0341 -1.52324,0.8164 -1.36009,1.2519 0.32642,1.0887 0.54397,1.1974 -0.43516,1.0885 -1.08815,1.1431 -1.30569,1.0342 -0.27202,1.0885 0.16321,1.0887 0.70725,0.9798 0.87046,1.0885 0.97927,1.0887 0.87053,1.0886 0.32643,1.1431 -0.65285,1.1974 -1.63211,0.8709 -2.72027,0.5988 -3.53646,0.3809 -3.91714,0.3267 -3.37311,0.381 -2.82914,0.7075 -2.8834,0.5989 -3.69953,0.272 -1.90414,-0.9253 -2.82914,-0.5987 -3.80841,0.2722 -2.77473,-1.0887 -1.08794,0.9799 -2.17629,1.0341 -3.31871,-0.5988 -3.37317,-0.3265 -3.64513,-0.1088 -2.28496,-1.0887 -3.48199,0.2722 -3.21004,-0.4899 -2.23055,-1.2519 -2.39384,2.1228 -3.69953,0.2177 -2.829,-0.6531 -3.42751,0.3265 -3.80848,0.5444 -3.59065,0.3809 -3.75401,-0.1633 -1.19681,-0.9797 -2.82914,-0.8165 -3.2643,-0.4354 -3.59087,0.1632 -3.64512,-0.1632 -2.12168,-0.3809 0.97927,2.0682 0.59844,1.0342 1.57771,1.0343 3.59065,0.2176 1.36017,0.9798 1.7954,0.9253 -1.46898,1.1975 -3.80827,-0.4898 -3.754,-0.3811 -4.18924,-0.1088 -3.53632,0.4899 -3.91721,0.1632 -3.2099,-0.7621 -3.75393,-0.3266 -3.31871,-1.0341 -2.8834,0.8165 -1.79547,-0.9254 -0.97927,-0.9797 -1.79539,-0.8709 -2.99228,0.9797 -3.31878,0.4899 -3.48191,-0.5987 -3.37318,0.4354 -2.82893,0.8165 -3.80848,0.1089 -4.13483,-0.054 -4.02596,-0.054 -3.86274,0.1089 -4.13483,-0.2722 -3.75393,-0.2721 -3.64513,0.381 -3.80841,0.054 -3.6996,-0.4898 -4.13469,0.3809 -1.90427,-0.2177 -2.17608,-0.1632 -3.37311,0.5987 -2.9925,0.5987 -3.75386,0.6532 -3.75393,0.2721 -3.97155,0.054 -3.20997,0.7077 -4.243568,0.5443 -1.632185,-0.9254 -3.590795,0.4899 -0.816059,0.9799 0.979343,1.0341 0.108664,1.0342 -4.189095,0.2722 -3.155564,0.9253 -3.481843,0.7619 -3.69953,0.5989 -4.406852,0.272 -2.284959,-1.1975 -4.407067,0.381 -4.569991,0.2723 -2.502503,-0.8709 -1.360167,-0.2723 0.870461,3.1569 2.176296,0.9798 3.59065,0.8709 1.795254,1.0343 5.386263,0.2721 5.005293,0.381 5.712543,0.1634 4.080428,0.8163 3.590723,0.7621 0.979271,1.143 -2.230558,0.9253 -4.570135,1.0343 -4.950817,0.8165 -4.026025,-0.9255 -6.419792,0.4355 -6.746287,-0.1633 4.297972,0.8709 2.121892,0.9798 4.624395,0.762 0.54411,1.143 -1.033673,1.0343 -1.033744,1.143 -0.489705,1.2519 7.453535,0.5987 2.339436,1.0887 8.976842,0.6531 10.935523,0.1089 -0.59844,1.3063 -7.725555,0.7621 -7.344874,0.8165 -6.691739,-0.8709 -11.805984,-0.5443 -7.997573,0.762 -10.717764,-0.6532 -6.256581,-0.8709 -7.888766,-0.7076 -4.189164,-0.9253 -1.304974,-0.3318 -2.642316,-0.648 -8.160786,0.4899 -0.631816,0.1581 -3.516509,1.1567 -4.020498,-1.1567 -0.325979,-0.021 -0.381773,-0.031 -2.933705,0.8853 -0.322126,0.097 -5.005293,-0.8709 -2.455061,1.6167 -0.159724,-0.0222 0,14.6851 1000,0 0,-14.6851 -4.78552,-0.669 -6.36539,-0.8709 -7.67108,0.7075 -2.0751,-0.8216 -0.53643,-0.2125 -7.99764,-0.5987 -1.41421,-1.3608 -6.36539,-0.8709 -4.18938,-0.8709 -3.86282,-0.8709 -3.37317,-0.9254 -2.39363,-1.0341 -1.41464,-1.1431 -3.69946,-0.9253 1.46876,-1.0342 1.19703,-1.0343 0.48963,-1.3062 2.33951,-1.5785 5.27731,-0.1089 4.2435,-0.5988 5.00529,-0.4353 -1.08793,-1.1976 -5.16851,-0.3809 -1.30583,-0.9798 -0.59859,-1.0342 -1.57771,-1.0886 -0.0545,-1.0341 0.27216,-1.252 0.7071,-1.0341 1.14277,-1.143 2.01294,-0.8709 1.90428,-1.0343 1.25114,-1.0886 3.5908,-0.5987 1.63225,-0.9797 3.64506,-0.4356 1.30569,-1.143 0.97941,-0.9797 1.25129,-1.2519 1.4689,-0.9798 0.32657,-1.0887 -1.95868,-0.8163 -2.88355,-0.5443 -2.88326,-0.6533 -3.10144,-0.381 -3.31849,-0.2177 -3.31878,0.054 -2.99235,-0.1632 -3.20982,0.054 -3.10116,-0.4354 -2.12175,-0.9799 -3.15542,-0.6531 -1.36024,-1.0886 -3.20968,-0.3266 -3.37332,-0.2722 -2.44817,-0.653 -2.12204,-0.871 -2.44803,-0.7621 -1.79547,0.9256 -3.15542,-0.055 -2.82928,-0.4352 -3.75386,-0.4357 -3.5908,-0.4896 -3.10101,-0.7077 -2.99221,-0.6531 -1.79547,-0.8165 0.54404,-1.0343 -1.95868,-0.8708 -3.10102,-0.2177 -3.64506,-0.1089 -2.61152,0.054 -3.6452,0 -2.50272,0.1633 -3.64505,0.054 -3.15542,0.1634 -2.33951,-0.4899 -1.14262,-0.9253 -0.92472,-1.1431 -0.48978,-1.252 -1.74092,-0.7619 -0.10881,1.143 -0.76165,1.3609 -2.50258,0.2176 -2.55712,0.2721 -3.15542,0 -2.82914,0.109 -2.99221,0.4354 -2.50272,0.4899 -2.55698,-0.2722 -2.44817,-0.2721 -2.50286,0 -2.61153,0.4353 -2.88326,-0.272 -2.50271,-0.3811 -2.50258,0.2178 -1.84987,0.8708 -2.17615,0.8709 -2.88355,0.2178 -3.48184,-0.2722 -3.31878,-0.7076 -1.90427,-0.7076 -3.04662,0.1088 -1.95853,-0.8709 -1.4145,-0.8709 -2.17615,-0.5443 -2.06749,0.5987 -3.10116,0.109 -1.90413,0.8165 -2.28511,0.7619 -2.99221,0.3811 -2.99235,0.3266 -2.55698,0 -2.72033,-0.054 -3.53639,-1.6873 -1.84973,-0.9798 -2.12189,-0.762 -1.79518,-0.3811 -3.48199,2.0684 -1.90428,0.7621 -1.41435,0.9253 -1.85002,0.9254 -2.88326,-0.3811 -2.55712,0.3811 -2.99235,0 -2.50258,0.381 -2.12189,-0.5988 -2.33936,-0.1633 -1.74107,0.2721 -2.61138,-0.054 -2.829,-0.2177 -2.66593,0.3265 -2.66593,-0.2177 -2.3395,-0.5442 -1.30555,-1.3064 -1.03367,-0.7621 -1.41465,1.8507 -2.01293,0.762 -3.04676,-0.1632 -2.72034,0.3265 -2.50243,0.2722 -2.77473,-0.2722 -2.01294,0.4356 -1.57771,0.4897 -1.52345,0.9255 -2.33951,0.5443 -2.72019,0.7075 -1.90413,1.034 -0.8162,1.0342 -1.3601,1.0887 -2.829,0.4354 -2.77474,0.3267 -3.15556,0.1088 -1.74078,0.2721 -1.46904,1.3607 -0.70725,0.9799 -1.74107,0.8164 -1.52316,0.8709 -0.92501,1.0341 -1.5233,1.0887 -3.20997,0.4899 -3.20983,-0.2722 -2.12189,-0.8708 1.30584,-1.1431 1.41435,-1.0342 0.38097,-1.0887 -3.10116,0.055 -0.38097,-1.0887 2.17644,-1.0342 2.66579,-0.7076 0.32642,-1.2518 0.10881,-0.7077 -2.28496,-2.8847 -2.77474,0 -2.72019,-0.2178 -2.61153,-0.3265 -2.72019,-0.3267 -2.61138,-0.5986 -2.39405,1.143 -2.23056,0.5443 -2.66578,-0.1633 -2.28496,-0.762 -1.84973,-0.762 -3.31892,-0.3266 -1.68652,-0.7621 -2.44831,-0.9253 -0.27188,-1.1974 -2.2307,-0.7621 -2.61138,-0.2722 -2.44832,-0.1632 -2.55697,0.2176 -2.77474,0.4355 -2.28496,0.5444 -2.33951,0.762 -0.54404,0.9797 -2.28496,0.6532 -2.61152,-0.054 -1.79533,0.7621 -2.50272,0.9797 -2.61138,-0.3266 -2.17615,0.5987 -2.2851,0.6532 -2.17616,0.5987 -3.26437,0.5442 -2.72019,0.3811 -2.88354,0.9253 -2.50258,0.4897 -0.97927,1.1977 -2.82914,0.6531 -2.06748,-0.7077 -1.95854,-0.9797 -2.8834,0.2178 -2.39391,-0.6532 -1.08808,-0.9798 -2.88354,-0.4352 -1.57771,0.9251 -1.52331,1.524 -2.12189,0.7621 -2.829,0.2722 -2.61153,0.4898 -2.44817,0.762 -2.93795,0.3266 -2.77459,0.3811 -3.10116,0.054 -3.15542,0 -3.26437,0.1088 -3.04661,0.49 -1.79547,-0.8165 -1.30569,-0.9253 -2.99236,-0.1634 -3.10101,-0.3266 -2.93795,-0.054 -3.26423,0.1089 -2.99235,0.3265 -2.28496,1.0343 -1.08822,-1.0343 -3.64506,-0.1632 -2.82914,0.7621 -1.25128,1.0885 -3.15557,0.5443 -1.57771,-0.9797 -2.01308,-1.3064 -2.8834,0.3811 -2.06735,-0.7077 -1.68652,0.9799 -2.39391,0.5987 -3.10101,0.4354 -2.82914,0.6531 -3.10117,0.3811 -3.15542,0.381 -2.82914,0.4899 -3.04675,0.9253 -1.19681,-1.143 -3.15557,-0.1634 -3.48191,0.3267 -3.5908,0.4898 -3.31863,-0.1632 -0.70725,-1.0343 -2.99235,-0.2721 -1.4145,1.0886 -0.10881,1.0341 -3.31877,-0.1088 -1.3601,-0.9253 -3.31877,-0.1633 -2.01294,0.7621 -1.3601,1.3064 -2.17622,1.0885 -2.82907,0.8709 -3.04676,0.6531 -2.88347,0.5443 -1.8498,0.8711 -0.97927,1.143 2.9378,0.6532 -0.81605,1.0885 -2.61139,0.8164 -2.44831,0.9255 -3.86267,0.8709 -3.04676,0.6531 -3.3731,0.6531 -3.42751,0.5444 -4.08043,0.3809 -4.29797,0.109 -1.90421,0.2176 -3.75393,0.3811 -3.80841,0.4898 -2.50265,1.0886 -3.37311,0.8165 -3.3731,0.8165 -4.67887,0.653 -3.97163,0.6531 -1.25128,0.5989 -0.38083,2.0684 0.76165,1.0341 5.44053,0 5.71254,-0.4354 5.38612,-0.1088 0,1.0341 1.19695,0.9797 1.95861,0.9798 -4.29804,0.7076 -6.14777,0.4899 -5.76695,0.381 -5.22298,0.5987 -5.49486,0.5989 -7.01837,0.054 -3.86274,0.8165 -1.7954,1.1974 -5.60374,-0.6533 -6.80061,-0.3809 -6.9095,0.054 -4.95082,0.7621 -5.76702,0.7075 -4.84201,0.8709 -4.57006,0.8165 -3.37325,0.9798 -1.3601,-1.0342 -2.72026,-1.3063 -5.16836,-0.9254 -4.73334,-0.8165 -6.8007,-0.762 -6.90935,-0.4355 -5.05977,-0.8709 -3.97162,-0.8709 -5.00529,-0.7619 -5.87568,-0.4355 -3.53647,-1.0343 -0.59837,-1.0341 -3.2643,-0.9253 0.10867,-1.0886 0.16335,-1.1431 3.97155,-0.7077 4.78768,0.2722 3.10116,-0.8709 -1.74099,-0.9797 -3.10116,-0.7621 -4.24357,-0.4896 -0.87053,-1.0887 4.67887,0 4.40678,-0.2177 4.89655,0.1088 4.46126,-0.1088 2.23055,-1.1431 3.75401,-0.5987 3.48184,-0.5987 3.69953,-0.4355 4.18931,-1.0341 1.68652,-0.9253 1.25136,-0.9799 3.69953,-0.381 1.63211,-0.9252 1.52345,-1.1431 0.38083,-1.4696 -0.87053,-1.0887 -0.21755,-1.0886 -0.8162,-1.0341 -0.38083,-2.5584 -0.81598,-1.0341 -1.30576,-0.9253 -0.81606,-1.0887 -0.59844,-1.0342 -1.14262,-1.0885 -2.12168,-0.8711 -2.28503,-0.653 -1.46898,-0.871 -0.97927,-1.1429 0.43516,-1.0341 1.74092,-1.1976 1.63219,-0.8708 1.52338,-0.9254 2.61145,-0.2176 1.90414,-0.6533 -1.3057,-0.9253 -0.16314,-1.0341 0.38083,-1.0886 1.36017,-0.8165 2.01301,-0.7077 1.90413,-0.6531 2.28496,-0.2722 2.06742,0.4355 1.19703,-0.5987 z m 37.38718,38.5961 -4.18917,-0.5989 -4.13483,0.5989 -1.4145,-1e-4 0,0 -1.7954,1.1432 -1.68659,0.9795 -1.25128,1.0341 -1.74092,1.1976 -2.39391,0.9253 -5.93016,0.762 -0.48964,1.143 3.6452,0.9255 6.583,0.1632 5.82135,-0.5444 5.22291,-0.6531 4.51566,-0.7075 4.29797,-0.8709 -0.1088,-1.4152 -0.32643,-1.1975 -1.19688,-1.6874 -3.42758,-1.1973 z m -40.04816,5.5364 -2.8834,-1.143 -1.46905,0.9797 -2.06741,1.143 -5.98457,-0.272 -6.25651,-0.1088 1.52324,0.8163 0,0.1088 3.48206,0.9253 6.20203,-0.1632 5.82149,0.381 0.81613,-1.2519 0.81599,-1.4152 z m -24.66459,-25.2343 -0.76165,-1.2519 -0.92494,-1.1976 -1.19695,-1.2518 -0.65285,-1.0343 -1.4689,-1.0341 -2.55712,0.4354 -1.57771,1.3064 0.0545,2.2317 -0.16328,1.0341 -0.81599,1.4152 -3.21003,-0.1088 -1.90414,0.3266 0,0 -3.04668,1.0886 0.16314,1.1431 2.12182,0.8165 3.10116,-0.3811 3.26422,-0.381 -1.36009,1.0886 3.64513,0.054 3.10116,-0.5444 3.26437,-0.3809 0.76158,-1.0343 0.4897,-1.0886 -0.32642,-1.2519 z m -84.80612,2.7153 -4.02602,-0.2176 -3.53625,-0.3811 -1.74099,0.4899 0,0 1.46904,1.1431 2.82893,0.5443 3.754,-0.1632 3.42759,0.1088 3.3731,-0.1088 2.17616,0.2176 -1.63219,-1.5784 -3.04668,0.3265 -3.04669,-0.3811 z m -61.74989,4.3546 -3.31871,-0.4899 -0.59858,0.9254 0,0 2.77474,0.9797 3.86281,0.2176 2.61138,-0.7075 1.57771,-0.9798 -3.31863,0.4899 -3.59072,-0.4354 z m -12.07793,-0.054 -2.77474,-0.6532 -2.01294,0.5988 0,0 3.80819,0.762 3.59087,0.2722 1.63218,0.1088 -4.24356,-1.0886 z m -93.468384,16.7103 -0.761725,-1.252 -2.121677,-0.9797 -2.774737,-0.8708 -5.168576,-0.4357 -1.686375,1.0343 0,0 1.795254,0.7619 0.108879,0.1634 1.632114,0.9797 3.645127,0.9798 5.331716,-0.3809 z m 841.027764,-182.5928 0.0982,-1.009 -0.20842,-1.5724 -1.0097,-1.4131 -0.11857,-1.1667 -0.69218,-0.3359 -0.19293,-1.7427 -0.78347,-1.3588 -1.03209,1.0405 -0.07,0.7925 -0.52739,1.5262 -0.67122,1.4726 0.43251,0.9276 -0.5327,0.5643 -0.36403,2.0927 0.32125,1.5898 -0.20039,0.8081 0.38556,1.3433 -0.84433,2.2101 -0.3448,1.5231 -0.56384,1.2311 -0.54347,1.4917 -1.83394,0.9493 -2.65186,-0.9423 -0.42231,-0.8581 -1.45383,-0.7112 -0.78319,0 -2.00763,-1.6459 -1.43086,-0.9565 -2.1394,-0.8902 -2.20831,-1.5348 -0.19867,-0.7842 0.98659,-1.3651 0.81606,-1.3881 -0.32183,-1.1105 0.95458,-0.092 1.05477,-1.1223 0.74027,-1.4868 -1.27541,-1.3743 -0.65026,0.5337 -1.04357,-0.2419 -1.62279,0.7954 -1.72183,-0.854 -0.79323,0.2811 -2.33951,-0.7107 -1.47579,-1.1392 -1.83983,-0.6886 -1.47923,0.4036 2.03476,0.9145 0.0502,1.4195 -2.33391,0.5234 -1.4211,-0.33 -1.6825,0.9798 -1.20636,1.5865 0.43322,0.694 -1.25229,0.7259 -1.33067,2.2277 0.58854,1.5253 -1.76647,-0.2605 -1.73849,-0.019 -1.54182,-1.6451 -2.05213,-1.2749 -1.34244,0.3745 -1.22157,0.3978 -0.0491,0.6982 -1.22043,-0.3241 -0.0436,0.7761 -1.3967,0.4732 -0.66978,1.0964 -1.51785,1.3665 -0.33733,2.1136 -1.2256,-0.6018 -0.87175,1.3478 0.98917,1.3126 -1.18209,0.5542 -1.17004,-2.3982 -1.9439,2.3605 -0.0726,1.5101 -0.12489,1.1084 -1.62924,1.4102 -0.70912,1.4846 -1.5101,1.2332 -2.91943,0.8133 -1.53536,-0.065 -0.73524,0.2535 -0.42145,0.6087 -1.6848,0.308 -2.18893,1.0353 -0.76452,-0.3425 -1.26306,0.2169 -2.12289,1.0194 -1.35335,1.1847 -2.25668,0.9287 -1.17349,1.9111 -0.20986,-2.1156 -1.1478,1.9989 0.29686,1.6236 -0.37896,1.3895 -0.56931,0.6837 -0.30144,1.6067 0.64394,0.8312 0.26643,0.8749 1.37473,2.1871 0.0464,1.4226 -0.82209,-1.0756 -1.37761,-0.8054 0.93721,2.5771 -1.22057,-1.2013 0.38485,1.1849 1.58718,2.199 0.34638,2.1759 1.23033,1.1064 0.0708,0.8162 1.10573,1.808 -0.11943,1.5823 0.45518,1.5857 1.46862,2.8079 0.31121,1.6462 -0.33963,1.9314 0.098,0.9978 -0.47097,0.6325 -1.37919,0.3782 -0.0606,1.5919 1.49316,0.5275 2.94657,1.7741 1.86221,10e-4 2.02629,0.1091 1.33541,-0.8831 1.3934,-0.7852 0.80988,0.1256 1.65221,-1.4813 1.90715,-0.1275 1.99701,-0.3032 2.4552,0.5066 1.74437,-0.2471 2.3573,-0.067 1.02578,-1.1287 0.53528,-1.4566 2.40827,-0.6409 2.94469,-1.4244 2.65043,0.1842 3.16131,-0.9272 3.59682,-0.9946 4.97371,-0.2629 2.67153,1.3524 1.95193,0.079 3.56424,1.6833 -0.52222,0.6412 1.46532,1.0409 1.73833,2.0144 -0.0861,1.4742 2.16897,1.1429 1.06396,-2.2093 1.73547,-0.95 2.2597,-2.3688 0.22163,2.0569 -1.07286,1.3605 -0.42088,1.603 -1.45268,1.5366 2.47157,-0.5103 1.35665,-1.9225 0.67194,2.0626 -0.9131,1.3473 2.67239,0.3346 1.36483,1.1267 0.64567,1.4035 0.51548,2.1092 1.79561,1.7122 2.6889,0.8033 1.58818,0.1987 1.57528,0.4395 2.40151,0.7534 2.43253,-2.0115 1.51814,-0.5254 -0.43121,1.4479 1.70187,0.4898 2.30075,1.2277 1.67834,-1.1922 1.27669,-1.0759 2.56358,-1.1393 3.10906,-0.1011 1.59278,-0.9651 -0.14211,-0.8783 0.35858,-1.9135 0.7028,-2.0787 1.072,-1.3845 0.82337,-2.3975 0.92616,-1.3731 1.0143,-2.1519 2.05801,-1.3648 1.2266,-2.5266 0.55006,-1.9911 -0.0566,-1.5928 0.74959,-2.4779 0.48059,-1.2864 0.15934,-2.4584 -1.32378,-2.3605 0.19178,-1.7193 -0.0716,-1.5838 -0.78046,-2.2324 -2.17127,-2.2489 -1.2899,-1.0601 -1.97117,-1.7056 -0.47858,-2.944 -0.67869,0.427 -1.12654,-1.2037 -1.10846,0.6103 -1.08033,-3.0055 -1.58876,-1.7418 0.36374,-0.673 -1.86336,-1.209 -1.96256,-1.3201 -3.01001,-1.4512 -0.89945,-1.8839 0.26843,-1.4401 -0.7539,-2.3742 -0.69964,-0.3389 -0.4216,-1.3868 -0.59241,-2.3819 0.28537,-1.2312 -1.33282,-1.0847 -0.91999,-1.1758 -1.78226,1.0476 -1.0008,-2.1796 z m 5.10046,75.0802 -1.81729,-0.246 -0.0713,1.2738 1.60283,2.4196 0.38011,1.8338 1.71236,2.3777 1.70819,0.086 0.57504,0.1493 1.9284,-1.9358 0.9708,0.7606 0.2868,-2.2347 0.95156,-0.9572 -0.19665,-3.2972 -1.66614,-0.1866 -2.16854,0.5341 -1.5124,0.381 -2.68373,-0.9588 z m -83.18685,-128.44519 -2.36319,1.52144 -1.09985,1.03927 -1.36411,1.75657 -1.99256,2.19754 -3.32969,0.60138 -1.18568,0.52387 -0.55897,2.35185 -2.14644,0.51906 -2.03576,-0.95192 -1.65035,1.84593 -0.32355,2.57377 0.38671,2.43023 1.33354,2.37611 1.38608,0.77213 0.42475,3.72544 2.28998,0.32054 1.81959,-0.15273 1.01343,1.34431 3.30241,-0.99894 1.38522,0.88994 1.9805,0.1571 1.10042,1.698 3.1557,-1.2499 0.40897,0.9881 1.07142,-4.24785 0.0729,-2.76627 2.6711,-1.89982 -0.12029,-2.51722 0.92644,-1.8938 3.29136,-0.32771 -3.11422,-2.57062 0.47973,-1.27791 -2.04194,-2.62983 1.58001,-2.50868 2.04523,-0.94625 -0.49609,-1.35643 1.8638,-0.13781 0.1978,-1.08807 -2.31725,-0.83573 -1.82949,-0.77443 -0.1269,-1.20743 -1.42713,-1.40524 -1.12367,0.009 -1.40101,2.17106 -2.13897,1.93184 z m -476.6243,-125.66467 1.48283,-1.75018 0.53679,-0.75333 -1.2889,-0.12172 -2.4102,0.95737 -1.72233,1.58102 -2.86977,4.42415 -2.33283,1.67331 1.20844,0.75462 -1.7303,0.97797 0.42633,0.82252 5.39107,0.0848 2.98453,-0.16593 2.6655,0.67495 -1.96184,1.30511 1.65752,0.0965 3.22303,-2.40913 0.77393,0.35298 -0.60296,2.27262 1.82633,0.52437 1.25638,-0.10336 1.16961,-2.44458 -0.86264,-1.72671 -0.35412,-1.474 -1.94411,0.47507 0.85962,-2.03433 -2.77007,-0.85431 -1.28158,0.67689 -2.46461,-0.76144 0.97475,-0.96858 -1.86559,-0.59528 -1.81327,0.93836 1.83846,-2.42973 z m -15.7563,4.39431 -0.0813,-0.5097 -2.84085,-1.16072 -3.65258,-0.69658 -0.96084,0.23372 2.58295,1.31208 3.60022,0.87089 1.35243,-0.0497 z m -18.5936,-94.44795 -6.01601,-0.17628 -6.01602,-0.17627 -8.02013,0.47 -1.47562,-0.30005 -8.49066,0.11527 -4.98156,0.30711 -3.66666,0.44444 -2.11112,1.5 L 266.44443,3.40364 263,3.25843 l -4.084,1.03518 -5.45008,0.45028 -3.2437,0.0903 -4.13061,0.52975 0.60878,0.94775 3.24405,0.81417 2.31492,1.12308 4.91022,0.94284 9.71931,-0.17703 6.25492,0.32105 -4.33463,1.01228 -2.19374,-0.301 -7.59263,-0.11969 1.17902,1.43114 3.92331,1.08558 -0.78814,0.96814 -4.92583,0.66175 -2.24984,1.07461 4.50534,0.5328 3.78794,1.78131 -7.42683,-1.19859 -1.69445,0.19506 1.36836,2.00464 -5.1353,0.62833 0.34839,1.33262 5.25189,0.14552 4.13377,0.33609 8.15959,-0.43061 7.25872,0.76641 7.42261,-1.66621 -0.0605,-0.67802 -4.74655,0.10746 -0.3885,-0.62867 3.88005,-0.83031 1.31717,-1.087 4.29158,-0.78625 2.63914,-0.95236 -2.29725,-1.37017 1.92006,-0.49608 -3.82914,-0.34842 8.41036,-0.29742 1.77,-0.56663 5.73,-0.4607 4.75083,-2.26897 4.52695,-0.78658 6.55469,-1.68492 -6.04789,0.0143 2.51147,-0.62184 6.72061,-0.56244 6.77812,-1.20528 0.12188,-0.74153 -5.08333,-0.75389 -5.96486,-0.35558 -7.42403,-0.21753 z m -50.17272,27.63576 2.04452,-1.79547 -7.17247,0.73869 -2.85649,1.13451 -2.13495,2.48442 0.88058,2.81256 3.94564,0.0121 -2.90472,1.26708 2.3103,0.97582 4.50475,0.41872 5.87582,0.81491 10.10899,0.62069 5.03616,-0.35728 1.4867,-0.81965 2.19058,0.94554 2.44795,0.15818 2.94089,1.72715 -1.77903,0.70287 5.6272,0.94474 4.2547,1.34775 1.07099,0.95142 0.76359,1.22875 -3.59374,2.70555 -0.96936,1.38558 0.92802,0.99168 -5.71799,0.35499 -5.21947,0.0494 -1.82963,2.04524 2.34991,0.95379 8.03189,-0.4432 -0.0442,-0.80551 4.04476,1.34754 4.14452,1.4277 -0.96972,0.78376 3.3665,1.35313 5.96131,1.61267 7.53277,1.10903 -0.45202,-0.96994 -2.89273,-1.67747 -3.92641,-2.39362 6.96706,2.2238 3.50345,0.75254 0.95666,-1.9965 -1.80767,-2.74948 -1.1442,-0.73796 -3.77102,-1.27792 -2.92122,-1.61482 0.35075,-1.59148 3.59388,-0.3481 4.36766,2.67224 3.41783,1.18712 4.87574,-3.22661 0.86443,-1.94964 -4.36931,-0.18431 -3.99273,-2.55296 -4.40986,-0.61007 -6.54238,-1.81399 5.10025,-1.29413 -2.62761,-2.59962 -2.41967,-1.11965 -6.70545,-1.09719 -2.89503,-1.7692 -5.1581,0.62801 -0.35965,-1.21196 -3.82564,-1.3237 -6.16327,-1.40539 -2.62782,1.10401 -5.49529,0.8063 0.41349,-1.81844 -4.76529,-2.87335 -7.04034,1.14076 -2.56738,2.23931 -2.18836,-1.73145 z m 63.60467,73.90955 -0.97323,-1.35 -1.0493,0.85705 0.69392,0.93006 3.52352,1.17908 1.02895,-0.18114 1.36619,-1.13819 -2.57561,0.0757 -2.01444,-0.37261 z m -33.89273,-57.21903 1.80531,-0.82053 0.31289,-0.38269 -0.031,-1.18984 -2.16864,-0.76902 -2.54569,0.38514 -1.17984,1.55686 0.69314,1.35933 3.11386,-0.13925 z m -1.317,-16.5384 -4.7901,-1.52569 -6.35728,-0.29941 -1.33563,0.18482 -0.11726,1 3.05629,1.47301 0.8044,0.16861 3.0405,-0.37348 2.99231,0.0586 2.95287,0.081 -0.2461,-0.7675 z m -8.12727,30.40003 -0.70611,-0.56955 -1.13714,-0.0608 -1.07224,0.83343 -0.12987,0.19187 0.72941,0.82887 1.22789,0.23616 1.08806,-1.45998 z m -42.82852,-41.49779 -5.7251,-0.17642 -1.04516,1.13975 3.21923,0.86027 5.7462,0.33927 2.78866,1.21275 0.33784,1.37732 0.96068,1.52517 7.38255,0.89501 4.48437,0.34235 5.70249,-0.0492 7.96822,-0.42777 3.5557,0.33769 4.14186,-0.59679 1.73289,-0.7384 -0.62106,-1.14922 -2.97505,-1.0476 -4.51365,-0.19537 -5.65606,0.23643 -4.41546,0.60217 -4.05301,-0.23269 -3.74669,-0.12216 -1.76432,-0.66002 -3.18728,-0.62844 0.63282,-1.04329 -2.39772,-0.91367 -5.46916,0.006 -3.08379,-0.89328 z m 26.45216,31.77943 -2.00705,-0.22638 -0.94733,2.54406 -0.35521,2.18635 -2.41451,1.37387 3.76449,-0.26671 0.95379,1.62465 3.95274,-1.43703 2.7545,-1.47823 1.56005,1.25042 4.32266,0.66799 2.46547,-0.87426 -1.98308,-0.92085 -2.04466,0.21633 -0.24604,-1.32091 -3.18212,-0.86544 -3.04181,-0.95257 -1.61496,-0.7282 -1.42153,0.42848 -0.5154,-1.22157 z m 9.06405,8.18467 0.0591,-0.53827 -3.81525,-0.0264 -2.06442,1.28136 0.60847,0.75136 1.96125,0.0641 3.25089,-1.53217 z m -14.22708,-47.08111 -2.19445,-1.83333 -4.55555,-0.52589 -4.6747,-0.5948 -3.54708,-1.48317 -6.45994,0.14147 1.21386,0.63664 -2.84728,0.19439 -1.92497,0.84711 -1.92578,1.23489 1.75994,1.25764 3.0615,0.92372 5.07989,-0.0212 -2.19583,0.73992 -0.0428,1.00761 2.98463,1.13239 5.75648,0.35556 4.91391,-0.19973 5.13275,-2.08908 3.81448,-0.82667 -3.34903,-0.8975 z m -17.15638,19.13336 3.31203,-0.53959 4.15048,-2.47358 -5.30617,-0.67581 -5.7879,-0.0969 -2.75593,0.75691 -1.45132,1.18052 -0.043,1.38098 1.73302,2.43999 3.16892,0.10357 2.97986,-2.0761 z m -1.15683,-6.13335 -1.01387,-0.87914 -2.4252,-0.97425 -3.9938,0.7483 -1.47873,1.25058 3.36736,0.72433 4.0327,0.20699 1.51154,-1.07681 z m -0.63125,-7.05555 0.33152,-0.3176 -1.94978,-0.51576 -5.59368,-0.0406 0.74069,0.77644 5.20568,0.17713 1.26557,-0.0796 z m -5.52858,-1.49151 0.75282,-1.00382 -3.31978,-0.96527 -1.61898,-0.18381 -3.59654,-0.11096 0.21977,1.14951 1.1905,1.04236 2.26235,0.64516 4.10986,-0.57317 z m 0.50726,24.85902 -1.69367,-1.06205 -0.83333,-0.52778 -1.66667,-0.5 -2.94683,-0.78753 -1.94206,1.2042 -2.44444,0.86111 3.79333,1.24814 2.26222,-0.3037 3.74411,0.84164 1.72734,-0.97403 z m -13.07983,-13.15611 -3.28773,1.34414 3.06012,1.817 -5.67123,-0.34477 -0.0555,0.88888 6.90328,2.1437 1.92211,1.06078 2.67555,0.23205 4.55461,-1.07541 0.5,-2.5 -4.20441,-1.19589 2.5933,-1.33189 -0.72222,-0.80556 -4.95519,0.3517 -3.31264,-0.58473 z m 5.15672,-7.98919 -0.21386,0.36503 -3.90695,-0.16042 -4.184,0.94714 -2.9883,-0.0867 0.17619,2.14667 4.55325,-0.21375 -0.0576,1.62052 2.98589,0.44423 4.57983,-0.28489 1.26552,-2.06511 -0.0866,-1.42534 -2.12337,-1.28733 z m -4.33387,-4.45765 -2.1249,-1.32141 -7.51146,-1.01358 -5.4528,-0.37845 0.20197,1.0646 3.35875,0.66921 -2.6825,0.82525 6.18423,0.10306 4.57186,0.90068 4.53611,0.30956 -1.08126,-1.15892 z m -39.18605,14.45362 -2.83866,-0.5365 -7.43703,1.6907 -1.93403,1.1058 -2.33144,2.08128 4.85086,0.73164 4.28491,-0.0388 -6.44241,1.11105 1.4655,1.024 3.93877,0.0559 5.93567,-0.22097 5.37195,0.64895 -3.62587,0.48336 -3.91586,-0.12481 -4.2878,0.47431 -1.84797,0.29597 3.42238,2.19942 2.4665,-0.31053 3.79178,0.75711 1.50489,1.31083 4.94181,-0.26255 7.0393,-0.4165 5.21517,-0.94228 3.22928,-0.16884 4.77777,0.75 5.02712,0.43662 0.93597,-1.01889 -1.77186,-1.06778 4.56075,-0.22347 0.30141,-1.22181 -5.01275,-1.31511 -4.66497,-1.37558 -0.86133,-1.95953 -1.74339,-2.70608 -3.11147,-1.12061 -2.76073,-0.44437 -2.44427,0.40681 1.97333,2.84458 -1.39544,1.15164 -2.27275,-2.72905 -2.53837,-0.9105 -3.139,1.41869 -3.86286,-1.40278 -6.18144,0.84064 1.38658,-1.30189 z m 26.85325,-0.8293 -2.11111,-0.61111 -3.72222,0.11111 -0.94445,0.38889 4.33334,1.94444 2.44444,-1.83333 z m -10.30947,-7.72689 -0.93661,-1.324 -2.86808,-0.32181 -2.54489,1.01209 3.97266,2.65725 -4.85311,-0.21106 -4.93428,-1.64486 -7.81752,-0.93758 -2.61431,0.77733 -3.78994,2.71342 3.88386,0.49658 12.55,-0.33075 -5.76984,1.22836 0.35428,0.90561 4.22428,-0.063 7.00853,-1.20289 9.40703,-0.4313 1.69025,-1.31733 -0.48895,-1.36081 -2.91092,-0.12061 -2.47361,0.46472 -1.08883,-0.98933 z m -4.0326,-6.66748 -3.61254,-0.56241 -1.48986,-0.12654 -2.84967,0.83178 -0.045,0.39625 4.61327,0.003 3.3838,-0.54181 z m -1.45498,2.51377 0.92357,-0.83142 -3.91664,-0.43508 -4.05595,0.28307 -2.24915,0.88568 4.11969,0.89716 5.17848,-0.79941 z m -28.53628,17.53726 0,-1.21222 3.44444,-1.94444 6.81128,-1.95256 3.49203,-0.70075 -2.98225,-1.16911 -2.69783,-0.80472 -7.09484,-0.15439 -3.96694,-0.57661 -9.38853,0.43383 2.71597,1.70208 -2.40914,1.82623 -1.92419,2.02861 -1.19153,1.17659 6.41375,1.46857 1.46614,1.21767 7.31164,-1.33878 z m 11.83726,-17.39357 -3.80985,0.40824 -4.26058,-0.0386 -5.70443,1.7992 -4.71497,2.07768 0,0 3.76369,0.60146 4.44633,-0.42554 5.16363,-1.18878 2.59544,-0.13572 2.13955,-0.96369 0.38119,-2.13424 z m -20.30949,80.93132 -1.14585,-1.53465 -2.77294,-1.14664 -1.37287,-1.31868 -0.94446,-0.95838 -2.6111,-0.29413 -1.70439,-0.4213 -2.9162,-0.60577 -0.23936,0.64309 1.07013,1.51161 2.85929,0.49989 0.49997,0.79166 2.48613,0.97223 0.83329,0.98609 4.56145,1.26155 1.39691,-0.38657 z m -26.86112,-15.72212 -0.16572,0.88582 0.51404,1.22114 1.40172,0.86515 1.02656,1.27863 1.67389,1.27038 1.10774,0.005 -2.41788,-2.23386 0.83192,-3.15384 -2.66672,0.2222 -1.30555,-0.36101 z m 676.4422,98.58772 0.64294,-1.60412 1.22057,-1.22236 -0.62083,-1.06002 -1.59709,-0.0659 -3.03484,0.77837 -1.369,1.25875 0.0805,2.38946 2.27778,0.86106 2.39994,-1.33526 z m -527.82975,-11.35252 -2.60901,-0.94633 -2.18247,-0.0314 -2.39915,-0.19817 -0.67302,0.30518 -2.10308,0.26585 -1.41859,0.54145 -1.25588,0.61768 -0.60196,1.00224 -1.46625,0.85811 1.18856,0.26334 1.37466,-0.30375 0.3982,-0.67775 1.15095,-0.0388 1.996,-1.44342 2.72471,0.14218 -1.04164,0.69405 0.96958,0.54181 3.62058,0.43049 0.8335,0.58265 2.59021,0.74486 1.56981,-0.10816 0.65845,1.58195 0.95982,0.80184 1.79066,0.18568 1.13207,0.72153 -1.86215,1.54965 3.97729,-0.27059 1.91383,0.21977 1.86968,-0.13794 1.84707,-0.35262 0.32951,-0.6507 -2.09964,-1.13688 -2.04768,-0.1144 0.20233,-0.78204 -1.65666,-0.5665 -0.91446,0.0382 -1.72944,-1.25287 -2.35242,-1.72039 -0.98372,-0.6527 -2.59459,0.31379 -1.10566,-1.01695 z m 256.58203,-91.23525 -0.8864,-1.39282 -4.07497,0.9207 0.38786,1.15303 2.9068,1.56903 1.66671,-2.24994 z m -234.43976,104.34721 0.14068,0.7984 0.71514,0.44169 1.11184,-1.90212 0.91847,-0.39877 0.42267,0.67387 1.0664,-0.17118 0.50083,-0.50664 0.91374,0.13221 1.27512,-0.11649 1.32119,0.60418 1.03159,-1.13071 -1.36519,-1.0191 -1.23592,-0.10034 0.0895,-0.82783 -1.51979,0.0554 -0.50435,-0.98537 -0.73208,0.0698 -1.6454,-0.715 -2.16832,-0.0128 -0.34738,0.47348 -2.4092,-0.43623 -1.69477,-0.12273 -0.62565,0.76703 1.75255,0.43322 -0.021,1.06102 1.2688,1.20334 -1.00015,0.6184 -2.09613,-0.22293 -2.55662,-0.3857 -0.24474,0.89543 1.48778,0.86544 1.29966,-0.5192 1.69484,0.20082 1.31093,-0.19264 1.84492,0.47212 z m 697.42347,96.7954 1.76627,-0.6837 0,-1.3558 -1.62914,0.8665 -0.88028,0.1525 -1.38825,0.57 0.35617,1.0358 1.77523,-0.5853 z m -2.75151,1.496 -0.68897,0.4581 -1.26306,-0.3436 -1.07175,0.9542 0.26784,1.2213 1.53111,0.3436 1.72236,-0.3817 0.45931,-1.4504 -0.95684,-0.8015 z m -995.252691,-2.3286 0.344582,-1.3359 -0.574111,0.1285 0,1.3558 0.229529,-0.1484 z M 492.15276,69.97258 l -3.35136,0.23376 -2.21806,-0.21991 -2.15785,2.25324 -1.00877,2.87177 1.40273,1.41666 0.16278,2.67741 1.4956,-1.31344 0.91352,0.76531 -1.00948,1.24131 0.6621,0.75175 3.37268,0.48877 0.0425,0.0391 1.86026,1.71094 -0.40853,1.61266 -0.005,-2.9e-4 -4.12825,-0.25127 -0.52782,1.81944 1.5213,1.49625 -2.90264,0.86099 0.78591,1.10537 4.33792,0.46283 0.0218,0.002 -2.48649,0.60002 -4.07383,2.91756 1.47651,0.55466 1.95143,-1.06065 2.56961,0.31522 1.8366,-1.30146 1.29521,0.54684 4.72911,-0.7638 3.71625,0.0257 2.4987,-1.45469 -1.10917,-1.43704 1.41507,-0.81455 0.33762,-1.77645 -3.36543,-0.5291 -0.79165,-1.09727 -1.70963,-3.16489 -1.90141,-0.44614 -2.47412,-3.27755 -0.22037,-0.29193 -2.87221,-0.17721 2.49727,-2.48951 0.72418,-2.26328 -3.04367,-0.0145 -2.83007,0.38054 2.96895,-3.00549 z m -7.3804,11.33444 -2.97749,-1.71738 -2.32867,0.11455 -2.0995,1.29751 -3.77927,2.17543 1.45067,2.82426 -2.25223,2.90048 3.93186,0.41988 4.92433,-1.64116 2.09965,-2.48069 -0.45806,-1.98444 1.48871,-1.90844 z m 81.56092,52.35999 -0.5139,1.18059 3.38897,0.54167 -0.0278,0.45835 4.00004,-0.23614 0.34724,-0.81943 -1.51384,0.33332 0.0672,-0.48339 -2.0672,-0.19716 -2.16208,0.15826 -1.51857,-0.93607 z M 425.22094,0.84853 403.03369,0.5 l -9.81741,0.26689 -3.54275,1.02464 -9.74697,-0.12495 -9.32598,1.65889 -0.3803,1.18936 6.60472,1.49747 -5.769,-0.90345 -3.90006,-0.21907 -6.62986,-1.03895 -7.36852,1.52917 -3.03095,-0.8647 -8.53617,0.0247 -8.5418,0.43642 -6.57964,0.73114 1.15756,1.24811 -4.04114,0.29761 -9.61678,1.93928 -2.42136,1.10725 7.49744,0.99741 -1.07444,1.0105 -10.17431,1.33467 -10.51647,1.33658 -0.38228,1.07922 6.26131,1.134 11.886,0.72223 -5.59095,0.14675 -7.29405,0.87375 4.827,1.74672 3.22353,0.88428 6.77808,-0.20403 7.42394,-0.11206 5.89734,0.20228 7.45402,1.62531 -0.0323,1.16294 3.53655,1.07875 3.34334,2.94581 2.20469,1.91989 1.68931,1.03433 -3.10136,2.58836 2.31855,0.68862 2.76606,-0.3907 2.48569,0.95094 4.77564,1.76408 -5.66993,-0.73881 -2.57646,0.0401 -1.08658,1.47776 0.18514,1.88692 3.40853,0.90668 2.49547,-0.39593 1.51204,-0.41324 3.17324,-0.98382 -0.58109,2.17025 -1.09708,1.16175 -4.18067,1.03331 -2.74641,3.24611 1.85416,0.97914 -1.00014,2.04703 3.84742,2.56352 0.37903,2.49522 1.40803,1.80975 4.8135,3.45431 1.85363,2.71264 2.69484,1.52328 5.55361,0.0143 4.10039,2.26811 3.91416,-0.16933 1.42281,-2.712 1.24869,-2.29692 -1.11866,-2.17055 4.52966,-2.22259 1.40525,-1.82377 0.0384,-1.94709 2.37992,-1.71808 3.99214,-0.64903 3.69797,-0.68208 1.91928,-0.1145 5.97467,-1.94678 3.86363,-2.93258 2.87334,-1.07031 3.06372,-0.0118 8.12872,-0.95953 7.55028,-2.18983 7.44514,-2.4185 -3.82889,-0.15153 -7.32039,-0.11792 3.22614,-1.46055 -0.95017,-1.88523 3.43442,1.5957 2.14164,1.0708 4.9513,-0.53525 -1.05347,-2.23691 -3.6393,-1.69772 -3.75,-0.69456 1.4295,-0.74356 5.49666,1.14942 -0.0377,-1.23664 -3.48006,-1.88153 3.87145,-0.008 3.9163,-0.43002 0.91056,-0.97992 -3.22133,-1.1297 6.17058,-0.19941 -3.59825,-2.38956 2.97005,-0.25703 -0.65308,-2.36027 -5.12603,-1.47187 4.56781,-0.87886 4.33939,-0.11475 -3.33522,-1.81372 -0.0874,-3.0908 2.23608,-1.802 3.24903,-2.02534 -6.43303,-0.13322 8.87844,-0.48033 1.56853,-0.639 11.32439,-1.97639 -1.56008,-1.18697 -8.32778,-0.53778 -13.48736,1.0773 -7.07217,1.03309 3.04961,-1.61606 -2.3098,-0.99633 -5.39222,0.85055 -8.36717,-0.9578 -9.83278,0.30622 -1.39872,-0.49572 14.9513,-0.27125 10.62698,-0.12222 5.12897,-1.06956 -17.3752,-2.20269 z m 447.89953,235.19868 -0.43839,-1.03238 -4.45953,-1.14075 -1.42383,0.90534 -3.74439,0.67294 1.17578,1.37445 2.48162,0.51289 1.10042,1.65379 4.06622,0.006 0.23283,0.73696 -1.98108,-0.054 -2.99178,1.00037 2.12218,1.36454 0.009,1.20693 0.6306,1.0186 1.06597,-0.2449 0.81993,-1.3499 4.17144,2.5669 2.2907,0.2323 5.38497,2.3523 1.33354,2.3319 0.72418,3.0204 -1.74867,0.7713 -1.17951,2.2606 3.51945,-0.085 0.68414,-0.7914 2.82124,0.5587 2.47344,2.2798 2.87335,0.1158 1.55604,0.4645 2.18189,-0.9548 -0.35427,-2.0489 1.69642,-0.9171 2.353,-0.7922 3.6231,1.2147 1.44277,2.4309 1.57656,1.5275 2.15994,1.7722 2.80588,0.418 2.38659,0.3121 0.68357,0.72 1.83939,-0.1938 0.30848,-0.8028 -2.9523,-1.1688 0.83314,-0.5239 -2.14472,-0.472 0.11168,-1.2305 -1.59092,0.092 -1.80408,-2.946 -2.47989,-1.8224 -0.6138,-1.851 2.55611,-0.299 -0.67509,-1.4733 -4.6282,-1.7168 -0.4226,-1.6364 -1.54613,-1.3965 -1.91447,-1.4231 -5.13534,-1.5897 -4.81955,-1.9139 -2.98202,-0.53083 -2.06045,-0.99376 -2.37554,-0.96836 -2.46941,0.002 -3.18729,1.67647 -2.32142,2.94648 -2.87493,-1.66275 -0.77572,-4.49255 z m 1.6146,14.06258 0.007,-1.3245 -0.6316,-0.8126 -0.58136,0.9389 -0.49322,0.9984 0.27044,2.091 1.42914,-1.8912 z m -11.81467,-8.66842 -3.05652,-0.81003 -3.43088,0.11527 -0.6583,1.52718 1.92164,0.098 1.56824,-0.1835 2.32027,0.2324 2.34525,1.145 -1.0097,-2.12422 z m -4.95304,-11.73931 -0.26025,-1.13451 -1.64001,-0.24367 -0.19939,-1.51684 -0.92184,1.01084 -0.5584,2.21936 0.82496,3.55089 1.12095,1.75944 0.77773,-0.33331 -1.14435,-1.46646 0.4226,-1.69025 1.43273,0.27202 0.14527,-2.42751 z m -3.99732,12.75403 -0.69045,-0.91596 -2.81005,0.13321 0.54102,1.19475 1.91978,0.51 1.0397,-0.922 z m -5.57976,-13.5525 -0.48475,-0.62062 -2.74575,2.01711 -3.19432,0.11641 -3.50208,-0.38542 -2.16955,-0.82022 -2.36133,2.06318 -0.5825,1.14507 -1.39613,4.18722 -0.39561,2.20544 -1.14779,1.81915 0.86271,1.90288 1.16803,0.02 0.42992,2.6806 -0.79639,2.5568 1.19344,0.8153 1.76159,-0.4032 -0.11297,-3.974 -0.23499,-3.23887 1.8526,-0.84433 -0.20613,2.7068 2.00275,1.6289 -0.3603,1.0724 0.69103,0.7688 2.72593,-1.0754 -1.34215,2.2743 1.08923,0.9768 1.48282,-0.8166 0.024,-1.8248 -2.4974,-3.206 0.50743,-0.95405 -2.62861,-3.55993 2.44516,-1.07673 1.20607,-1.62752 1.21023,0.4035 0.22824,-1.27928 -5.17985,0.94525 -1.49976,1.25818 -2.48621,-2.47013 0.39504,-2.10252 2.42678,-0.39991 4.62877,-0.13867 2.6734,0.54318 2.08758,-0.53414 2.23185,-2.75543 z m -2.23486,32.1107 1.81269,-2.0746 2.32601,-0.7976 2.89475,-1.216 1.02204,-0.7526 -1.0519,-0.3444 -0.86817,0.347 -1.93786,0.094 -2.39118,0.6244 -0.32657,0.6553 -2.74632,1.1034 -1.19444,1.6944 -0.25006,0.9444 0.33332,0.3333 2.37769,-0.611 z m -4.2567,-5.6827 -2.48937,1.0177 -1.84916,0.2115 -1.74049,-0.8328 -2.20601,0.5775 0.01,1.0155 3.69472,0.3423 4.17359,-0.7885 0.4071,-1.5432 z m -6.07758,5.9593 0.16637,-0.7498 -0.97152,-0.8437 -1.45957,-0.8461 -2.59029,0.5462 3.68669,1.9463 1.16832,-0.053 z m -7.82109,-5.9553 -0.74443,0.9823 -1.52302,0.022 -0.95443,1.5994 1.4933,0.022 1.92409,-0.3729 3.2114,-0.5579 -0.68902,-1.1809 -1.71623,0.2269 -1.00166,-0.7408 z m -25.76816,-3.6611 -0.37954,-0.9881 -1.1521,-0.2117 -2.24189,-1.0855 -3.37046,-0.1641 -1.90599,2.6542 2.54205,0.2041 0.48188,1.1945 5.06572,1.1437 1.15526,-0.3473 2.03892,0.2751 3.21801,1.061 2.59975,0.4987 2.88226,0.2057 2.51405,-0.076 3.05494,1.1191 3.16949,-1.0584 -3.4072,-1.6507 -4.16713,-0.5065 -1.01099,-1.8005 -5.15343,-1.3357 -0.61208,1.145 -5.32152,-0.2769 z m -7.79396,-2.5704 0.11053,-4.2967 0.69763,-3.45487 -1.35134,-1.75815 -2.03949,-0.24561 -0.96779,-1.55015 -0.47083,-1.93758 -0.99778,-0.0712 -1.59207,-0.96463 1.1132,-2.26802 -2.11543,-1.26895 -1.60714,-2.32594 -2.33405,-1.90277 -2.82383,-0.0436 -2.63177,-2.98597 -1.53177,-1.15561 -2.14831,-1.88339 -2.45635,-2.71653 -4.30005,-0.53665 -1.78844,-0.11196 0.24403,1.41399 2.89761,3.0609 2.09146,1.55575 1.45182,2.37668 2.50487,1.74911 1.02406,2.1684 0.81591,2.38817 2.43956,2.31524 2.11256,3.88865 1.37947,2.08199 2.10295,2.2621 1.18913,1.6836 3.56654,2.2696 2.33936,2.3222 3.07575,-0.058 z M 460.19807,48.24788 l -4.60868,-0.19694 -4.53001,1.48038 -3.49505,-0.78541 -4.22067,1.51247 -4.32956,-1.88432 -4.20997,0.41097 -1.87686,1.80925 5.82989,0.6461 0.1195,0.81562 -4.91845,0.53844 6.046,1.35838 -2.73469,1.2276 7.75061,0.87929 3.65696,0.40903 2.39392,-0.50657 8.01278,-1.9037 3.6114,-2.11831 -3.13863,-1.89466 0.64151,-1.79762 z m 83.41409,78.40205 -2.10869,0.24245 -2.83359,0.30252 -3.25059,-0.25393 -0.38872,1.42619 3.87702,1.41228 1.41249,0.29972 2.12433,1.04623 0.58308,-1.42842 -0.4157,-0.86063 1.00037,-2.18641 z m -17.52879,-8.27455 -1.38895,0.86113 -1.52776,-0.13895 0.63404,1.58805 0.11125,3.35129 1.05176,0.73674 1.13301,-0.92737 1.26305,0.17527 0.39016,-3.67398 -1.66656,-1.97218 z m -239.2016,64.83821 1.95251,-0.0517 -0.46028,-0.76065 -1.47572,-0.66713 -1.86939,-0.24905 -0.63268,-0.0936 -1.16767,0.19357 -0.33332,0.6349 1.58805,1.01214 1.55467,0.44578 0.84383,-0.46422 z m 613.36868,-73.07184 -2.13137,-0.93405 -3.26451,-2.89202 -0.82137,2.16489 -0.80945,3.8425 -2.96795,0.15431 -1.37374,2.13754 0.38212,2.76167 3.08939,-0.0418 1.51168,-3.03943 4.36767,1.89882 2.43281,-2.75873 4.12076,-0.76037 -0.61753,-3.11845 -1.965,1.17736 -1.95351,-0.59227 z m -8.14937,19.5334 -0.0469,-2.86646 2.56975,-2.79684 0.0824,-2.25209 -1.5147,-3.85262 -2.9533,0.50987 -1.17335,1.7547 0.47614,3.12363 -1.74551,3.39679 -1.58001,1.0791 -4.07497,2.77804 -1.85217,-1.32664 -2.90637,4.93847 -2.9701,-0.56801 -5.52953,0.8284 -2.03734,1.89911 -2.79383,1.43603 -1.45699,1.74609 -2.62631,0.85582 1.12842,1.90485 1.75829,0.80787 -0.68127,2.50344 1.34416,1.07961 1.79576,-1.16882 1.85346,-4.72122 -2.81637,-2.0438 3.25174,-0.0533 3.28763,-1.30835 4.83088,-0.61279 0.11541,2.07631 1.86667,1.06741 3.95727,-3.17078 4.88313,-0.17032 3.54931,-1.30698 1.44665,-1.95768 -0.48417,-1.39196 1.04616,-2.21692 z m -17.60545,8.31345 -2.03978,-0.59916 -1.14205,1.16753 -1.57943,-0.32133 -1.53666,1.65738 -0.0224,1.31739 1.8104,0.79115 0.73725,-1.62501 1.42411,-0.64559 1.14019,0.89113 1.56378,-1.68099 -0.35542,-0.9525 z m -148.39002,77.6447 1.16473,-0.79065 0.41843,-2.89244 -1.34344,-2.89209 -1.29306,-1.95617 -1.91949,-1.54347 -1.25732,4.50898 0.49251,3.99272 1.32191,2.2086 2.41573,-0.63548 z m -86.55975,54.86919 -0.68758,-1.8347 -0.73739,-1.1818 -0.96908,-1.1924 -0.91984,1.2425 -0.0513,1.6703 -1.5312,1.9303 -1.17994,-0.3339 0.37824,1.1871 -0.83357,1.3974 -2.28596,1.7108 -1.58317,1.5829 -1.22014,0.037 -1.0285,0.5026 -1.54943,0.5694 -1.3845,0.1023 -0.37236,1.7619 -0.97051,1.554 0.22192,2.5596 0.52624,1.7517 0.64437,1.3152 -0.25019,1.7692 -1.32766,2.1058 -0.007,0.9246 -1.27885,0.481 -0.49753,2.0026 0.25407,1.9986 0.97812,2.2144 0.18331,2.4627 0.76654,1.4658 2.20514,0.9937 1.59982,0.7093 2.42492,-1.1749 2.25912,-0.6579 1.25545,-3.2213 1.06396,-3.8624 1.71609,-5.2628 1.37014,-3.8281 1.09396,-3.2381 0.17498,-2.3528 0.76654,-0.6417 0.24661,-1.1778 -0.52983,-2.0579 0.52222,-0.822 0.94353,1.6278 0.49121,-0.8172 0.27618,-1.3321 -0.71973,-1.2993 -0.44701,-3.3417 z M 571.18785,9.49386 l -7.02326,-0.6939 -2.80919,0.83185 -4.0332,-0.66799 -8.57771,0.77572 3.03958,1.27504 3.98611,0.0487 0.49423,0.76539 8.19244,0.46336 8.05607,-0.32728 4.11904,-1.49603 -5.44411,-0.97482 z m -2.00974,7.09303 -4.00772,-0.62692 -1.103,-1.04278 -5.75656,0.55642 1.67836,0.88775 -1.91694,0.71667 4.90086,0.64475 6.205,-1.13589 z m -17.97858,-5.13306 -3.50272,-0.96975 -4.07862,0.0966 -1.0548,0.94936 -3.95639,0.0387 -1.52153,-0.97242 -7.57289,0.99464 2.1605,2.17525 5.41192,2.34547 4.16378,0.80356 -2.51936,0.98695 5.97377,1.69416 3.34737,-0.10822 1.3228,-2.30153 2.43697,-0.52425 1.54348,-2.04419 6.99016,-1.09309 -9.14444,-2.07122 z m 434.33383,321.82816 -0.78505,-2.4747 -2.16137,-0.7203 -1.51182,-1.5431 -1.03066,0.2179 1.16157,1.9667 2.18563,2.4579 1.32779,1.1468 -0.0749,0.4896 1.12497,1.8613 0.12905,1.7963 -0.46853,2.1385 -2.00706,0.9693 -0.0784,1.0062 2.9892,1.1113 0.90965,1.5287 -1.60183,2.2849 1.15813,0.4002 0.47686,0.7289 2.14687,-1.1074 1.3766,-1.9023 1.04946,-1.4967 0.40867,-0.5168 -0.25823,-1.195 0.7417,-0.8443 2.12074,0.057 0.8452,-1.6209 0.67322,-2.4651 -1.4076,-0.321 -1.58762,1.0595 -1.87671,-0.2222 -2.2353,-0.9052 -0.41556,-2.1012 -1.25359,-0.7577 -0.0583,1.897 -2.01279,-2.9242 z m -4.42121,13.2296 -0.6161,-1.1808 -1.9482,1.2837 -0.41255,1.5509 -1.05276,0.7028 -1.23507,2.0704 -1.66714,1.4415 -2.38085,1.4545 -1.99557,1.0569 -1.79346,0.5227 -3.49261,2.7416 -1.49244,2.0604 0.46595,1.0201 3.01905,0.1952 1.79892,0.9159 2.55827,0.059 1.38636,-0.793 2.18132,-1.2412 1.579,-2.8106 0.74386,-1.8183 2.37682,-1.0468 2.14314,-0.034 -1.02463,-1.3362 1.42082,-1.1174 1.81585,-2.0468 1.03353,-1.2866 -0.003,-1.169 -0.80328,-1.1735 -1.97547,1.1258 -0.63017,-1.1471 z M 851.5467,209.4734 l -0.19493,-1.02162 -0.23312,-1.39885 -2.25166,-1.31739 0.16465,2.14816 -1.96327,0.0739 -0.45318,1.23958 -2.11198,0.76065 -0.98186,-1.25746 -1.51469,1.04659 -1.75011,0.78132 -1.09008,2.34123 0.45992,0.81305 2.05557,-1.54987 1.30713,0.10694 0.87261,-1.15181 1.75958,1.31366 -0.84706,1.32076 0.78075,2.0105 3.26867,1.6121 0.79625,-1.30182 -0.88697,-2.04675 1.2988,-1.40897 1.01487,2.83173 0.94625,-2.54191 -0.16364,-1.55826 -0.2825,-1.84542 z m -2.4285,-10.41108 -0.7651,-1.03618 -2.66765,-0.0612 1.69786,2.12103 0.0362,1.05169 -1.6347,-0.22163 0.43495,1.68178 0.83629,0.14426 0.1157,1.95366 1.32119,-0.62235 -0.67968,-1.71415 -0.058,-0.93232 2.14328,0.73703 -0.78031,-3.10159 z m -11.61457,-17.61492 -1.68178,-0.003 -0.90505,2.51708 -0.28767,4.3457 -1.11865,-0.9141 0.10321,2.65932 0.41528,1.20966 1.37143,1.59609 0.35887,-1.00109 0.82912,0.64244 -0.86788,0.7066 -0.14096,1.14822 1.38263,0.6138 2.52296,-0.41054 1.76862,1.66291 0.71472,-1.01968 1.02606,1.45943 2.16496,1.36347 0.28852,-1.28014 -0.90606,-0.66735 0.26441,-1.51211 -3.46949,-1.54002 -1.22875,0.32872 -1.4725,-0.30604 -0.62155,-2.21233 0.4381,-2.23945 1.63757,-0.92064 0.73151,-2.3085 -0.94826,-1.99105 0.45188,-1.15166 -0.25264,-0.70574 -0.85668,0.72332 -1.71193,-0.79309 z m 7.39203,22.84802 0.26527,-2.64985 -2.056,2.6815 0.44743,-1.87011 -1.53178,0.16321 -0.30647,1.7242 -0.6972,0.77809 -0.57231,0.74356 1.71063,1.91993 0.87233,-0.82245 0.87017,-1.75506 0.99793,-0.91302 z m -5.83025,-4.48049 0.43006,1.32198 -0.19723,1.41709 0.0979,1.29076 1.76418,-0.83415 1.28645,-1.17951 0.0538,-1.16035 -1.76776,0.004 -1.66743,-0.85991 z m -0.98932,-3.27177 -0.96462,-1.00029 -2.3797,-0.10199 1.41794,2.11643 1.18971,1.38594 0.73667,-2.40009 z m -8.3967,10.42558 1.45799,-1.90908 1.83394,-1.52956 -0.49494,-2.26493 -1.45599,2.75938 -1.66785,1.92164 -2.00677,1.71559 -1.36167,1.94275 3.69529,-2.63579 z m 103.82068,44.82325 0.38872,-0.7777 -1.31172,-0.9427 -1.34674,-1.7607 -0.84147,-0.63 -0.29857,-0.8266 -0.38442,0.2686 0.59744,2.1159 1.21612,1.7642 1.20277,1.0668 0.77787,-0.2778 z m -7.61108,-6.4445 -0.33345,-1.4443 -1.05549,-0.889 -1.11119,-1.16658 -1.1666,-0.66677 -0.94453,-0.61108 -1.50005,-0.77773 -0.77199,0.67079 2.0062,0.81649 1.58043,1.18508 1.25775,0.9103 0.64624,1.0732 0.52395,1.6398 0.86873,-0.7402 z m -3.21456,2.7169 0.93305,-1.6955 0.0557,-1.5408 -0.56098,-0.4561 -1.6637,0.053 0.30561,1.6369 -1.55058,0.9906 -0.7839,0.9504 -1.58489,0.2122 -0.26986,-1.4747 -0.39863,0.069 -0.41858,1.3317 -1.51986,0.2173 -2.49052,-0.4055 -0.23024,0.8594 1.58646,0.7747 2.2775,0.8069 1.47565,0 1.42569,-0.65 1.51929,-0.6751 0.4381,-0.779 1.45469,-0.2284 z M 1000.5,36.09147 l 0,-1.89865 -3.54083,1.1581 0.49479,0.88238 3.04604,-0.14183 z m -81.30092,-11.81072 -6.97066,-0.72718 -5.17707,-0.41938 -0.66471,0.89956 5.16187,1.09618 4.44017,0.24843 3.2104,-1.09761 z m -15.68162,-1.32935 -10.04075,-1.47296 -7.33483,-0.12186 -3.66477,0.52109 -1.49269,1.90972 5.50291,1.80608 4.60659,-0.65611 10.23941,0.0769 2.18413,-2.06285 z m -3.99522,68.93062 -1.1465,-2.80294 0.0711,-2.73361 -0.96176,-2.67727 -0.72174,-1.83695 -1.23622,0.39001 1.10329,1.28703 -2.56774,1.27827 -0.24575,3.79592 1.62752,2.73082 -0.12273,3.71438 -0.64266,2.09993 0.31666,2.99738 -0.30977,2.70612 0.51418,2.33104 1.82131,-2.15003 2.10438,1.67461 0.0784,-1.94117 -2.70785,-2.8468 1.70906,-4.01382 4.11172,0.91711 -2.79484,-4.92003 z m -0.12266,-62.40233 -0.33616,-0.73003 -3.94656,-1.06202 -3.47322,0.257 -2.63497,1.09786 0.4862,0.14697 5.69299,0.30967 4.21172,-0.0195 z m -107.02327,-14.15125 0.82488,-1.12903 -7.04059,-1.57763 -2.08741,-0.18089 -2.2818,0.31228 -5.07433,3.64719 15.65925,-1.07192 z m -14.26587,-1.59458 0.68582,-2.49776 -6.39668,-2.68567 -5.39709,-1.3984 -6.00899,0.62722 -7.21275,1.89761 3.78981,0.54908 2.13188,1.99247 4.61031,1.06044 7.73708,0.80151 6.06061,-0.3465 z m -117.78907,22.66799 -5.31349,-2.27814 -0.56528,-2.30743 4.35403,-2.6716 4.13971,-2.71114 8.62896,-2.64397 8.48283,-1.32464 9.84235,-1.37746 1.86566,-0.86436 -1.93097,-1.09691 -5.40579,0.36088 -4.75725,1.02979 -9.24534,0.51992 -9.17056,1.78471 -6.21308,1.4666 0.75146,1.26091 -6.65047,2.43798 2.55367,0.33963 -5.50956,2.36893 0.0947,1.51469 -2.84034,0.59601 0.40595,1.50033 5.02811,0.74472 0.73711,1.23334 9.07668,0.36088 1.64087,-0.24367 z m -17.77641,-27.29671 1.0743,-0.42346 -4.1199,-0.60878 -2.61828,0.45805 -1.59551,0.66505 -0.56758,-0.74845 -4.22038,0.0336 -5.42273,0.50586 6.18194,0.0844 -1.5823,0.86716 3.00914,0.65852 3.24672,-0.45913 0.38743,-0.45583 2.49798,-0.21073 3.72917,-0.36625 z M 14.349306,47.89105 14.588194,46.16455 7.305556,43.40314 0.5,41.28192 l 0,11.06647 1.575889,-1.17889 -1.253028,-1.30681 3.326833,-0.65986 -0.603361,1.03242 1.509417,0.972 3.159083,-0.36033 2.820834,0.45436 0.621194,1.20497 3.693361,0.81008 2.116889,0.96847 2.601417,0.0831 1.112028,-0.57806 0.06875,-2.71422 4.553277,-0.28745 2.754139,-1.21069 -5.438139,-2.59956 -7.540305,-0.41419 0.644416,2.01842 -1.873388,-0.69109 z M 4.128389,35.92253 6.990069,35.25655 7.227931,34.8768 3.210194,34.08222 0.855903,34.07622 0.5,34.19282 l 0,1.89865 3.628389,-0.16894 z m 832.970591,133.61711 1.67274,-4.45393 0.48174,-1.67589 -1.26723,-0.8274 -2.22323,2.1028 -1.6347,2.7283 0.31638,2.05945 1.46387,2.34525 1.19043,-2.27858 z M 75.482461,74.19246 l 2.403241,-1.32004 -1.176787,-0.86214 -1.844274,-0.18761 -1.483473,0.42332 -2.522815,0.98716 0.429417,1.30124 1.420313,0.71687 2.774378,-1.0588 z m -7.043878,105.64546 0.888723,-0.434 1.085277,-0.59323 0.06683,-0.15397 -0.707917,-0.9733 -0.450722,-0.37201 -0.493389,-0.24091 -1.063639,-0.46931 -0.211194,-0.0514 -0.161084,0.25905 0.191639,0.54628 -0.482222,0.45297 -0.138306,0.30911 0.459473,1.01128 -0.07942,0.77636 0.690222,0.39778 0.405722,-0.46469 z m -1.492083,-4.3347 0.232222,-0.33353 -0.72625,-0.42614 -0.987416,-0.264 -0.272139,0.23814 0.02467,0.1735 0.319278,0.22584 0.478556,0.58497 0.931083,-0.19878 z m -1.886056,-1.48019 -1.36675,-0.11873 -0.208166,0.33837 1.488555,0.0807 0.08636,-0.3003 z m -2.484972,-0.4037 -0.802166,-0.91819 -0.232195,-0.17845 -0.742917,0.38289 0.107917,0.11092 0.353139,0.62986 0.966861,0.0976 0.198806,0.0358 0.150555,-0.16042 z m -4.700805,-1.83286 -0.05714,-0.64705 -0.640306,-0.059 -0.423805,0.27217 -0.143723,0.20242 0.935528,0.5065 0.329445,-0.27503 z m -17.31679,-105.35552 -0.264626,-1.06561 -2.203785,-0.25156 -2.743013,0.47528 1.685943,0.75462 1.82102,0.51934 1.704461,-0.43207 z M 23.46762,55.67393 l -0.165149,1.0463 0.661243,0.2446 2.449104,-0.1612 1.057859,0.50385 2.114212,0.60418 2.104164,-0.58796 0.229171,-0.30252 -2.758517,-0.37114 -2.24613,-0.73295 -1.731448,0.28552 -1.714509,-0.52868 z m 943.26815,222.91346 -1.74465,-1.5958 -0.10221,0.7449 0.93104,1.2162 0.91582,-0.3653 z m -2.04768,-4.2567 -1.32938,-0.8539 0.0576,2.1283 0.39805,0.767 0.57791,-0.1506 0.74673,0.3484 -0.45088,-2.2392 z M 527.0556,115.75733 l -0.47226,-2.38193 -1.78887,1.06073 -0.56055,1.03224 0.64309,1.86918 1.26119,0.56557 0.9174,-2.14579 z m -14.62879,6.41846 0.0789,-0.15462 -0.0193,-0.0548 -0.24821,-0.31983 -0.46278,-0.11867 -0.57156,0.0335 -0.0222,0.0738 -0.008,0.16697 0.0681,0.049 0.27913,0.0358 0.85449,0.32104 0.051,-0.0321 z m -3.18983,0.14377 0.0372,-0.12912 0.0895,-0.0689 0.0214,-0.0791 -0.0879,-0.0496 -0.007,-0.0458 0.092,-0.1024 -0.10797,-0.0262 -0.70529,0.1728 -0.33285,0.14852 -1.14909,0.67152 -0.004,0.11393 0.0675,0.088 0.17904,0.0275 0.11312,0.14608 0.21213,-0.14662 0.16167,-0.0709 0.18474,0.0391 0.12614,0.0886 0.0662,0.27777 0.0833,0.07 0.27859,0.0464 0.47987,0.18636 0.22705,-0.0888 0.25038,-0.14825 0.134,-0.25119 0.1549,-0.21837 0.18311,-0.19857 0.13102,-0.19613 -0.0358,-0.17632 -0.1473,-0.0446 -0.1492,-0.0262 -0.28076,0.0834 -0.26611,-0.0928 z m -4.72249,2.42052 0.13699,-0.0384 0.35861,-0.29527 -0.029,-0.13496 -0.13537,-0.0934 -0.5995,0.11177 -0.12804,0.13793 -0.008,0.13726 -0.12099,0.0232 -0.0914,0.19314 0.0933,0.069 0.42236,0.0604 0.10065,-0.17063 z m 0.41314,0.68508 -0.004,-0.0816 -0.26611,-0.029 -0.16819,-0.15639 -0.0532,0.0793 -0.0423,0.0784 0.0106,0.11231 0.27561,0 0.18392,0.0338 0.0632,-0.0368 z" />
</svg>
