<?xml version="1.0" encoding="UTF-8" standalone="no"?>
<svg
   xmlns:dc="http://purl.org/dc/elements/1.1/"
   xmlns:cc="http://creativecommons.org/ns#"
   xmlns:rdf="http://www.w3.org/1999/02/22-rdf-syntax-ns#"
   xmlns:svg="http://www.w3.org/2000/svg"
   xmlns="http://www.w3.org/2000/svg"
   xmlns:sodipodi="http://sodipodi.sourceforge.net/DTD/sodipodi-0.dtd"
   xmlns:inkscape="http://www.inkscape.org/namespaces/inkscape"
   enable_background="new 0 0 1000 2001"
   height="448.16986"
   pretty_print="True"
   style="fill:#483737;stroke:#ffffff;stroke-linejoin:round"
   version="1.1"
   viewBox="0 0 1001 448.16986"
   width="1001"
   id="svg2"
   inkscape:version="0.48.4 r9939"
   sodipodi:docname="goode_homolosine_joined.svg"><sodipodi:namedview
   pagecolor="#ffffff"
   bordercolor="#666666"
   borderopacity="1"
   objecttolerance="10"
   gridtolerance="10"
   guidetolerance="10"
   inkscape:pageopacity="0"
   inkscape:pageshadow="2"
   inkscape:window-width="640"
   inkscape:window-height="480"
   id="namedview19"
   showgrid="false"
   inkscape:zoom="0.11794103"
   inkscape:cx="500.5"
   inkscape:cy="223.08493"
   inkscape:window-x="0"
   inkscape:window-y="0"
   inkscape:window-maximized="0"
   inkscape:current-layer="svg2" />

utf-8<defs
   id="defs4">
utf-8utf-8<style
   type="text/css"
   id="style6">path { fill-rule: evenodd; }utf-8utf-8</style>

utf-8
utf-8utf-8
utf-8</defs>

utf-8<metadata
   id="metadata8">
utf-8utf-8<views
   id="views10">
utf-8utf-8utf-8<view
   h="2001.0"
   padding="0"
   w="1000"
   id="view12">
utf-8utf-8utf-8utf-8<proj
   flip="auto"
   id="goodehomolosine"
   lon0="65.3146660706" />

utf-8utf-8utf-8utf-8<bbox
   h="2786.3"
   w="6230.96"
   x="-3115.48"
   y="-1372.08"
   id="bbox15" />

utf-8utf-8utf-8</view>

utf-8utf-8</views>

utf-8<rdf:RDF>
  <cc:Work
     rdf:about="">
    <dc:format>image/svg+xml</dc:format>
    <dc:type
       rdf:resource="http://purl.org/dc/dcmitype/StillImage" />
  </cc:Work>
</rdf:RDF>
</metadata>

utf-8<path
   inkscape:connector-curvature="0"
   id="---"
   data-name="---"
   data-id="---"
   d="m 583.06972,90.62465 1.02078,0.84542 1.24844,0.31776 1.52191,1.0197 1.11228,1.89361 2.44198,5.93625 -1.85332,1.5089 -1.99427,-0.25753 -2.34171,0.44567 -3.60599,-1.11804 -6.41107,-6.73016 -3.45281,0.0591 -0.4786,5.51214 -1.91871,1.87502 -4.28102,-0.38263 -0.19065,2.19686 -3.35129,0.11562 -1.63039,2.76467 1.82336,1.38132 -0.44897,2.24788 2.12477,1.60368 2.19351,2.87491 2.51602,-0.0521 2.71564,1.53922 1.50587,-0.3429 0.15632,-1.19931 2.5312,0.0971 2.39975,1.55147 3.4307,-0.32491 1.00395,-1.6638 2.18258,0.66512 1.32334,-0.24618 -0.47537,1.08577 1.34353,1.31082 -0.13952,1.18959 1.01756,2.21166 -0.009,0.10076 -0.47332,2.0368 -0.0578,2.35462 -0.0568,0.0299 -0.1036,0.73181 0.21708,2.18089 -0.21882,1.35107 0.21984,0.16395 -0.42009,0.95237 0,2e-5 -0.99469,0.72815 -1.98059,-0.16364 -2.18379,-0.68298 -0.30131,0.9445 -1.08611,-1.43378 -1.85689,-0.36498 -2.10689,0.23837 -0.79167,0.8283 -1.66567,0.9158 -1.26386,-0.45014 -2.67133,-0.85417 -2.56074,-0.76436 -3.26534,0.0478 -0.81854,-0.95453 -2.51348,-0.33911 -0.88831,-0.49312 -0.91352,-0.0122 -1.11113,-1.2924 -3.41325,-0.5915 -1.59433,0.39429 -1.49708,1.35458 -0.50915,1.40607 0.9762,2.21435 -0.95554,1.32955 -1.08781,0.74993 -2.88928,-1.43719 -3.68158,-1.21008 -2.2999,-0.56102 -1.51625,-2.56931 -3.41206,-1.29179 -2.09159,-0.48234 -0.98969,0.24871 -2.96267,-0.99502 -0.96851,-0.45195 -0.75193,-1.37423 -1.2477,-0.0491 -0.61294,-1.57551 1.41574,-1.45325 0.0366,-2.50183 -0.8905,-0.71823 -0.13031,-1.3371 0.99943,-1.41643 -0.22881,-0.55532 -1.8423,1.06396 -0.0888,-1.46259 -1.64603,-0.34686 -2.39898,1.16659 -1.5657,0.17552 -0.9921,-0.67258 -2.46158,0.0223 -2.10731,1.13932 -1.19032,-0.42932 -3.81759,0.23453 -3.91579,0.51529 -2.23017,0.87985 -1.47235,1.19273 -2.53816,0.50245 -2.29093,1.57962 -1.02568,-0.0309 -2.42377,-0.63815 -2.24998,0.19987 -1.35706,-1.22702 -1.72602,-0.0139 -0.84959,1.77524 -1.78461,2.993 -1.86406,1.19504 -2.52298,1.32053 -1.72731,1.95285 -0.46065,1.52219 -1.15426,2.48704 0.31285,3.59649 -2.30703,2.4137 -1.33734,0.7702 -2.18767,1.97579 -2.40329,0.3193 -1.40155,1.11014 -0.0512,0.0405 -1.94681,2.95213 -1.83971,1.05358 -1.13781,1.7869 -0.23253,1.53996 -0.87919,1.68606 -0.93733,0.46577 -1.6746,1.83783 -1.1404,2.03965 0.0638,0.97829 -1.03907,1.50636 -1.11584,0.78768 -0.2734,1.33965 -0.24732,1.22149 1.29463,1.24844 0.56395,1.37408 -0.41085,1.4416 0.19383,1.43697 0.0451,2.85668 -0.57544,2.72165 -0.89082,1.42531 0.11343,1.55767 -0.77817,1.4844 -1.50903,2.02941 -1.27188,0.54905 1.31758,1.02916 0.9961,2.25057 -0.44624,1.28221 0.3193,2.21584 0.14148,0.61843 0.82504,0.61343 -0.0423,0.43993 0.60332,0.81495 1.18214,0.19113 1.45023,1.20849 0.80162,0.47361 0.38487,0.63674 0.26366,1.2772 0.68491,0.57452 0.71294,0.3745 1.06198,1.13148 1.18728,1.71041 0.2773,2.13652 0.46754,1.05597 1.44795,1.54856 2.03508,1.1645 0.76813,0.21443 1.8935,1.8651 2.42066,1.58164 2.58264,2.20023 2.95344,1.37789 0.75529,-0.0255 0.55616,0.076 2.86361,-1.06031 2.00735,-0.83429 3.41488,-0.50461 1.84589,-0.0334 2.00581,0.56519 1.31031,-0.0294 2.56465,0.821 2.59727,-0.83855 1.60186,-0.99129 4.50914,-1.69211 2.3128,-0.61665 2.37362,-0.33722 2.53578,10e-4 2.15891,-0.0357 2.05158,1.90453 0.96507,2.09237 1.5568,1.80818 2.30642,0.0632 1.10242,-0.64779 1.09526,0.15199 2.9798,-1.04028 -0.0235,0.79889 0.74293,0.41453 0.60024,1.29528 1.32118,0.49027 1.14677,1.9111 -0.40358,2.28231 -0.97645,3.24612 0.54261,0.43589 -0.57862,2.14332 -0.70278,2.10447 -0.63265,0.92422 -0.0952,0.96037 1.74112,2.9861 1.89039,2.3853 2.93237,2.9177 2.31804,3.0617 0.7263,2.1736 0.38294,0.8966 -0.28625,0.5619 1.39259,1.8288 0.53232,1.9351 0.77864,2.7927 -0.918,1.146 -0.17458,0.6008 0.63561,1.7343 0.6871,1.7538 0.80513,1.0334 0.0736,1.6384 -0.40071,2.1414 -0.97044,1.2863 -1.71449,1.8913 -0.7307,1.1846 -1.04581,2.6058 -0.21212,1.2406 -1.10786,2.6464 -0.52944,2.5419 0.15183,1.8175 0.0289,2.2179 2.03837,2.8219 0.46177,1.8148 1.15078,3.4679 1.18424,2.3883 0.93438,1.1915 0.19205,1.5767 -0.28352,3.4583 0.40863,4.4514 0.40564,2.0942 0.23842,2.8143 0.7421,2.111 1.60555,2.1838 1.27643,3.7558 0.003,0.01 0.8807,2.4487 1.1816,2.7054 -0.31057,2.2186 -0.87597,0.5266 0.45552,1.9372 -0.31195,1.6948 0.17966,0.777 0.18521,-0.4008 0.79329,1.2905 0.79564,0.053 0.80787,1.0307 1.09333,-0.07 1.69059,-1.0926 2.13297,-0.4577 2.7159,-1.1411 0.95995,0.1513 1.53423,-0.3525 2.46983,0.557 1.32125,-0.5501 1.35285,0.4272 0.51134,-0.8025 1.26493,-0.1505 2.81212,-1.1216 2.17883,-1.3153 2.18554,-1.7341 3.58642,-2.9826 1.9696,-2.0711 1.09788,-1.4853 1.45914,-1.4685 0.60482,-0.4179 2.11877,-1.4598 1.00879,-1.3048 0.93941,-2.4018 1.19021,-2.1043 0.6113,-1.5214 -0.61392,-0.1945 0.0804,-1.2178 1.40765,-1.0688 3.53761,-1.5646 2.41354,-0.977 1.36162,-1.0283 0.69536,-1.2027 -0.50141,-0.4949 0.75924,-1.3429 0.75178,-2.8351 -0.50689,0.1445 0.16667,-0.8648 -0.14713,-1.6953 -0.80515,-2.1892 0.65966,-2.0611 1.2589,-0.6684 2.32476,-2.054 1.16011,-0.5277 3.72453,-3.1027 3.38747,-1.4029 2.74595,-1.0989 2.11705,-1.7926 1.4626,-2.0075 1.21276,-2.0655 -0.24143,-1.4158 0.63349,-4.5176 0.0298,-2.5365 0.51381,-2.8799 -0.29264,-1.296 0,0 -10e-6,0 -0.96558,-0.6322 -0.84963,-2.8503 -0.80717,-1.8121 0.32299,-1.3808 -0.082,-0.8786 0.94358,-1.7456 -0.0233,-0.7516 -1.75485,-1.0532 -0.0507,-1.6382 1.55229,-3.5619 1.21203,-0.9546 0.65608,-1.9234 0.97594,-1.1663 0.48241,-2.0368 1.08902,-0.2118 0.7475,-1.2062 2.05072,-1.1542 0.66613,-0.6845 0.68953,-1.52422 3.17759,-3.50167 2.67476,-2.19875 4.26158,-2.87026 2.80976,-2.3401 3.1926,-3.94322 2.23256,-3.23674 2.08312,-4.23646 1.35658,-3.69162 0.94998,-3.22893 0.33511,-3.12478 0.43164,-1.04406 -0.26677,-1.51938 -0.0362,-1.68134 -0.21101,-0.79925 -1.07059,0.008 -1.15973,0.98957 -1.44988,0.291 -1.23144,0.42948 -0.89578,0.057 10e-6,-1e-5 -1.59655,0.10158 -0.92576,0.52731 -1.37578,0.19031 -2.35756,0.89808 -3.03966,0.3426 -2.57201,0.73951 -1.41268,-0.01 -1.45301,-1.21014 -0.7306,-1.19542 -1.00144,-0.53284 -1.33515,-0.79089 1.50733,-0.69171 -0.10251,-1.20028 -0.81419,-0.89464 -1.53018,-0.86947 -1.04787,-0.99316 -1.81049,-1.66806 -1.84975,-1.64782 -4.31012,-2.73045 -1.78824,-1.40799 -1.27505,-2.65338 -2.27777,-3.3465 -1.72503,-1.06826 -1.19284,-0.71178 -1.74122,-3.45111 -1.06202,-2.97591 0.47091,-0.5244 -1.5393,-2.83621 -0.61316,-0.59215 -3.73677,-2.59466 -0.54851,-1.87875 0.39881,-0.50396 -3.17631,-3.20012 -1.26134,-1.63269 -1.371,-1.5717 -3.14779,-4.5026 -2.35599,-2.90613 -1.89086,-3.05026 0.18419,-0.26204 2.95563,4.1436 1.50481,1.29009 1.10842,0.93271 0.45698,-0.50471 0.26973,-1.50516 -0.087,-2.18372 0.36285,-1.16179 -0.4756,-0.75086 0.47561,0.75087 0.20957,0.41849 0.0297,1.15359 0.18341,1.01191 0.0607,1.58664 1.26598,-0.0139 1.87537,1.98542 2.23206,2.33101 1.61661,2.15041 0.94034,0.6454 1.14094,1.49859 0.0358,0.65347 1.31304,1.65633 1.58596,0.59782 1.54437,1.12805 2.37688,3.20519 0.32875,1.71354 0.8162,2.00895 2.46386,2.75496 1.32424,0.47473 2.35896,1.98923 1.32258,2.35558 2.01288,2.424 1.65308,1.03581 0.46569,1.15314 1.02202,0.8706 0.62166,1.23358 0.38478,1.26077 -0.22378,0.55749 0.54897,1.32083 -0.53067,0.14057 1.03195,1.18832 0.94767,2.13801 0.6133,0.85289 0.19793,1.58015 1.01863,1.6886 1.97708,0.14699 0.83455,-0.39227 1.40667,0.0638 0.30798,-0.73525 0.7008,-0.21093 0.47726,-0.76326 0.68017,-0.16424 2.33282,-0.15013 1.68497,-0.55652 1.40275,-1.19967 0.87628,0.17096 1.20251,-0.15931 2.0737,-2.03957 4.15725,-1.34846 2.48294,-1.22037 -0.1784,-0.98576 0.21119,-1.28341 1.8015,-0.77655 1.23541,-0.16365 1.58355,-0.97508 1.60108,0.27254 1.11048,-0.80262 -0.35111,-1.16771 0.863,-0.72793 1.71824,0.0233 0.44334,-0.61007 -0.16977,-1.40821 1.36443,-1.08032 1.26111,0.009 0.1412,-0.35515 -0.98189,-1.93224 -0.0686,-1.46557 0.32106,-0.68925 1.28261,0.15163 0.28936,-1.98027 0.7889,-0.92459 0.12046,-0.81129 0.30341,-1.72281 -0.25164,-0.64487 -1.10174,-0.36614 -1.10386,-0.96007 -1.87221,-1.65715 -1.78378,-0.52687 -2.09357,-0.37771 -1.90029,-1.04954 -1.99015,-1.97452 -1.31485,-2.28328 0.11492,-0.52433 -0.2729,-1.19423 -0.43002,-0.25095 -0.32838,0.98419 -0.89187,1.78159 -1.19626,1.85366 -1.03477,1.9545 -1.62607,-0.0854 -2.20952,-0.0755 -1.89589,0.45562 -0.39063,-0.79277 -0.41681,0.14042 -0.91015,-1.10392 -0.075,-1.70055 -0.70228,-1.69234 -1.1426,-0.90614 -0.58723,0.31101 -0.11667,1.51636 0.96458,2.10351 -0.65617,-0.70866 -0.70433,-0.9479 -1.05671,-0.81009 -0.69923,-0.97105 -0.11235,-0.96276 -0.62245,-1.19281 -2.23478,-1.21506 -0.8414,-1.01527 -1.52223,-0.66026 -1.99496,-2.49286 -1.70333,-2.18044 -0.0475,-0.65959 -1.05498,-1.27579 1.54601,0.14177 0.45172,-1.12828 2.00218,0.95791 1.14214,-0.46846 3.528,3.85402 2.86219,2.74278 2.8114,0.82339 3.53443,2.22144 3.56331,0.95888 1.99788,-1.39903 1.74819,-0.51648 1.46285,0.51222 2.675,3.54458 3.10472,0.37562 3.13979,0.6643 5.31248,0.87275 3.49824,-0.40519 4.22306,-0.0539 4.54803,-0.54375 3.10914,2.20135 1.79005,2.07774 2.28772,0.73099 4.278,2.45358 1.31767,1.13432 -0.80648,1.04492 5.07708,3.50343 2.05664,0.34656 3.14559,-1.73028 1.74892,2.70716 1.49877,3.50141 2.31942,3.69911 3.23652,5.60193 3.88928,3.97017 1.06451,1.80564 1.78798,3.61523 2.27405,2.77707 1.35323,1.36728 1.81349,2.91561 2.21897,4.048 3.23996,2.69916 0.98931,-0.83086 0.56213,-1.96592 2.42506,-0.81951 -1.08232,-0.95275 0.77118,-2.20478 1.43675,-0.13997 -1.31742,-4.91112 0.36294,-2.74629 -0.92869,-2.39786 -1.89794,-3.75976 0.01,-2.20494 1.23956,-0.15259 2.09321,-1.03558 1.09397,-0.7124 -0.54658,-1.32964 1.93526,-1.8922 1.24574,-1.82342 1.43708,-3.4011 2.92618,-1.94561 0.54102,-1.71033 -1.34471,-2.17454 2.97565,-0.60013 1.84791,0.0364 -0.22638,-1.05545 1.18794,0.2588 0.94337,0.31527 0.0817,-0.52619 1.48516,0.58617 -0.11484,-1.60846 -0.96633,-1.19161 2.52588,0.11562 2.1446,1.68262 1.34457,1.39149 1.02015,1.47244 1.63784,1.50695 3.2462,2.35805 1.79556,0.37054 0.23648,1.04201 3.9049,3.33291 1.93399,2.70648 0.7367,3.58245 2.02903,0.67781 1.67662,0.25746 2.20145,-2.06063 1.12103,-1.44967 2.35531,2.39398 2.16386,3.65176 2.36759,3.45966 1.73634,1.49761 0.94935,3.1491 1.55027,1.71041 -0.14101,2.21434 0.93397,2.14578 -0.0574,2.77229 0.15367,1.80355 0.92943,1.60576 0.059,-1.69913 1.7211,1.37109 1.89762,1.63191 0.79808,1.43159 1.35847,1.10923 0.86701,1.22544 0.0491,2.10463 1.28119,1.57604 0.71696,2.3939 1.88204,1.93344 0.47505,1.47274 3.58507,2.29434 2.84106,2.14137 2.04162,-0.19285 0.01,-0.97732 -1.30396,-2.55628 -1.08381,-0.79657 -0.37714,-1.71086 -0.39193,-0.9939 0.14336,-1.315 -0.44206,-1.94658 -1.5229,-1.9353 -2.01572,-1.74514 -0.71273,-0.27008 -1.78922,-1.50024 -1.80908,-0.33603 -1.96257,-1.65551 -1.11393,-2.50213 -1.86055,-2.63836 -1.88401,-0.0907 -0.79972,-2.0923 0.12509,-2.55337 0.0535,-4.22224 -1.01264,-3.17935 2.46944,-0.0169 0.48803,2.27103 2.39181,-0.0539 3.04318,1.32724 2.51575,2.9859 1.66734,1.50636 2.51897,0.42207 2.6421,1.64207 -0.20411,1.95831 1.56349,1.85374 2.7762,-2.69147 1.5467,-2.40981 2.60368,-1.86114 1.65324,-1.90363 -1.72535,-5.08522 -3.80788,-5.3497 -2.87976,-2.32137 -3.46485,-1.78563 -4.68151,-3.77716 -3.88838,-3.04692 -0.63131,-2.00581 0.50884,-2.73113 1.92952,-2.47307 0.94203,-0.4707 4.25513,0.92549 0.13632,1.11819 2.12628,2.09798 1.38933,-0.16933 -1.1774,-3.05289 2.53112,-0.44329 2.69456,-1.44787 0.43287,-1.4366 1.63502,0.93826 0.65351,-1.28437 2.74661,-0.33185 1.74478,-2.43289 1.38758,-2.66779 -0.61749,-3.44973 -1.43511,-3.79382 -1.18429,-3.12908 1.16392,-0.2597 -1.6886,-2.2909 -2.07635,-2.35446 -2.427,-0.89726 -2.2498,-1.54176 0.70025,-0.7894 -2.33473,-2.14727 -4.16535,-2.22047 -4.5152,-2.64905 -4.27322,-2.84331 -4.44589,-1.58852 -1.22251,-2.02328 0.49676,-1.45012 -0.86569,-1.56065 2.24961,-0.80733 -2.32938,-1.51435 -1.58347,-0.077 -3.48697,-1.12536 0.0687,2.06407 -2.88464,-0.8443 -1.72214,-1.29753 -2.46863,-0.4745 -3.68988,-1.95458 -0.59777,-1.3489 2.01428,-0.13893 -1.10393,-1.86659 -0.23332,-2.00999 0.49879,-1.02042 3.2586,1.51457 0.90805,1.94307 1.98623,1.12566 0.59822,1.3395 1.36328,-0.7891 -0.18912,-1.35093 1.94598,-0.84034 2.12605,0.77514 1.73799,0.31497 0.80312,0.47241 1.58163,1.55924 0.92316,0.52813 -0.0707,0.33932 1.09835,1.27228 1.23124,0.46114 0.94606,0.26477 0.80871,0.5439 0.34897,-0.23998 -0.45535,-0.54322 1.85051,0.55016 4.88728,2.47375 -1.07494,0.48691 4.94964,3.00905 2.3287,2.16796 2.24126,1.57403 1.83755,-0.24753 0.37866,-1.19878 1.42967,-0.55532 -1.18598,-1.58889 -4.46336,-3.33022 -3.12251,-1.87376 -6.68741,-3.41058 -3.05253,-1.26802 -1.55267,-0.46995 -0.18841,-0.31931 -1.70331,-1.25143 -0.14758,-0.77633 0.78665,-0.47533 -0.41278,-0.85446 -0.35698,-0.50984 0.1893,-0.6389 -3.18039,-2.07632 -7.62767,-5.68705 -0.004,-0.94107 0.95754,0.16659 5e-5,3e-5 -2e-5,-3e-5 10e-6,10e-6 -10e-6,-10e-6 -0.58251,-0.92315 0.75204,-2.02393 2.67046,1.34328 1.27516,-0.0359 1.09025,-1.62087 -0.39108,-1.62615 -0.71547,-3.16032 -0.89671,-3.16354 -1.55281,-1.86746 -1.83099,-3.87767 -4.66421,-4.23699 -4.1196,-3.1309 -2.22204,-2.59669 -3.2747,-2.1944 -6.84954,-2.81385 -2.22728,-0.16508 0.74715,1.27366 -2.60029,-0.56751 -3.26162,-1.59263 -3.29917,-0.31947 -2.56298,-5.90958 -2.79322,-4.78887 4.13378,-0.71874 5.84338,0.41655 -0.23118,-1.18846 3.26957,0.36651 3.25752,1.75428 2.09928,-0.25062 2.47348,-0.63433 -4.30934,-1.4829 -4.27424,-4.0028 2.33072,-0.80155 7.64839,2.91794 -1.66437,-2.60798 -3.4819,-1.9344 1.42445,-0.19697 6.32,3.31842 1.26362,1.90229 2.37163,2.47632 3.14029,3.06926 -1.57446,0.54954 2.09685,1.15203 1.29831,1.47887 5.38487,3.46982 10.58847,5.652 6.84676,3.7703 3.49155,1.79618 -1.11001,-2.42652 -3.72205,-2.62514 1.68639,-0.62683 -4.37943,-2.91698 0.83574,-1.29551 -2.70564,-1.08728 -3.11984,-2.10018 1.44909,-0.0926 -6.74227,-3.61384 -3.02839,-0.55169 -2.03331,-0.99184 -2.80876,-2.35813 -2.81649,-1.58893 2.89636,0.33031 -0.65284,-1.03043 2.68283,0.89317 0.0803,-1.88327 6.03499,1.65878 -1.84539,-1.09103 -1.01968,-1.46506 -1.50197,-1.66448 0.73891,-0.27477 -0.005,-1.76571 4.18597,0.50926 -1.17732,-0.61908 -2.66387,-0.96302 -2.33499,-0.6244 -5.9265,-1.89705 -4.62581,-1.21487 2.37352,0.16675 -0.86407,-0.99746 -0.0235,-0.0122 -26.44198,-8.76607 -4.87453,-0.92825 -7.03996,-1.00763 -2.25986,0.12586 -5.98972,-0.58717 2.41675,0.93428 5.30198,1.35623 0.45767,0.68397 -8.10575,-1.8922 -1.73512,0.23415 -3.71589,-0.4148 -2.12391,0.0553 -0.43913,0.43303 -3.3861,-0.60168 -4.48572,-1.53228 -3.69852,-0.85788 -3.5262,-0.33996 -3.82199,0.39062 -7.95553,-1.56968 -4.7242,-1.20403 -14.5962,-1.30173 1.0223,0.86655 6.25996,1.88138 -2.79233,-0.28622 0.69319,0.57318 -4.08661,-0.62867 -0.58309,0.54921 -4.41775,-0.91755 4.48172,2.15184 -4.10145,-0.83756 -5.71647,-1.60574 -1.55562,-0.84477 -4.04091,-1.27798 -4.75025,-1.0397 -1.77529,0.0108 -3.34041,-0.34301 4.00387,1.50594 -5.59368,-0.29518 -2.68182,-0.92216 -4.45715,-0.32345 -1.00994,0.30941 0.78295,0.51111 -3.74401,-1.25765 -0.0715,0.36893 -2.88354,-0.49159 -2.05246,-0.27169 -0.62236,-0.57314 0.0517,-1.06222 -0.35489,-0.56082 -2.4711,-0.97584 -2.80721,-0.69567 -4.84146,-0.8962 -2.95641,-0.0244 0.33767,0.4456 -2.7906,-0.90201 -2.98158,-0.2773 0.0499,-0.44377 -3.29408,-0.5789 -0.17319,0.73403 1.15642,0.76991 1.79847,0.78942 -1.91663,-0.0305 0.16427,0.98334 -1.84327,-0.41703 -2.25965,0.1721 0.84328,0.51015 -2.16811,0.24958 -0.0117,0.93549 -1.10959,0.0522 1.31296,1.25573 2.89554,1.01262 -1.92911,0.25546 -2.8534,-0.0861 -1.23473,0.39463 3.80113,2.11057 3.88596,1.68098 -4.12737,-1.15357 -2.28471,0.10659 -0.73852,0.795 2.8159,1.47343 -1.88127,-0.37512 -2.54801,-1.96055 -2.38679,-1.11016 -0.50698,0.0452 2.51781,1.42667 -0.0909,1.37027 4.05294,1.68045 1.9386,2.10249 1.91301,1.17987 1.67669,0.17546 1.27078,1.41622 2.39577,1.23133 0.13732,1.03956 0.98285,1.08809 -0.85745,0.56776 0.38597,0.79947 -2.00773,-0.32768 -1.06114,-3.12353 -1.27379,-1.44505 -3.18734,-1.31373 -3.62597,-2.88975 -2.4519,-1.44831 -1.70491,-0.6545 -1.29206,-1.64796 -1.95355,-1.11553 -3.87143,-0.52463 -0.27607,0.39094 1.8618,1.82657 0.27016,1.85124 0.90255,0.66165 2.76514,1.62827 0.82571,1.00013 1.82805,0.20797 0.60075,0.45075 2.74418,1.13023 0.47429,1.12797 -7.74604,-2.45064 -2.58649,-0.66261 -4.55091,-0.63827 0.11106,0.6962 2.73588,1.23136 0.0206,1.42175 -2.88926,-1.29384 -1.05213,0.88906 -2.45015,0.0594 -0.24911,0.73739 -1.88899,-0.22551 0.0662,-1.30496 -1.10149,-0.10531 -2.973,1.84878 -1.97205,1.03607 0.79582,1.39909 -1.79065,0.47872 -1.67948,-0.75504 -0.95071,-1.2191 1.52133,-0.26908 -1.75873,-1.21434 -4.29825,-0.69085 2.02231,1.33896 0.31384,1.3031 2.13121,1.31045 0.2818,1.52493 -1.87746,-0.77736 -1.39403,-0.12785 -1.88941,2.18628 2.0202,1.65414 -0.90419,0.55397 -4.3948,-1.4115 -0.44273,0.85753 1.44401,0.9782 0.42654,1.11028 -1.49999,-0.59534 -2.29546,-0.69668 -1.34983,-2.31434 -0.66999,-1.04022 -3.21802,-1.62843 0.87522,-0.28083 7.32034,1.6873 1.9492,-0.59401 0.78855,-1.16386 -1.10327,-1.4616 -1.7743,-1.03488 -6.71153,-2.43236 -3.91456,-0.50629 -2.90816,-1.27709 -0.89708,0.73326 -4e-5,2e-5 -2.16476,-1.32106 1.30298,-0.55835 -4.77687,-1.51381 -1.99636,0.41021 -2.30374,-0.0912 -1.11653,1.72009 -2.13596,-0.11099 -2.45063,0.91801 -2.73288,2.66762 -1.81399,1.62637 -2.39865,4.25754 -2.10668,3.14557 -2.62519,2.36682 -3.84366,1.94819 -1.31833,1.50674 0.8885,5.497 0.77535,2.60875 2.42617,1.24606 2.19529,-0.57434 2.95747,-2.81331 1.31487,1.48851 1.77175,3.467 1.85227,2.81724 0.90506,2.37051 2.03161,-0.11595 0.66793,-1.98933 2.16309,0.24147 0.54421,-2.33268 -0.19124,-4.12628 1.6104,-0.56941 0.86896,-2.7261 -1.872,-1.32807 -1.53525,-1.67513 0.3294,-3.30715 2.40436,-1.99244 1.81637,-1.84298 -0.68648,-1.39085 0.87045,-1.57074 2.2336,-0.63322 2.41648,1.05811 0.53147,0.95275 -0.79358,0.47304 -2.51593,2.47471 -0.90568,1.44898 -0.31682,1.35362 1.39322,2.11568 0.32796,2.33619 1.79155,0.78423 1.33125,1.30971 2.50047,-0.50735 2.56213,-0.87904 2.86636,-0.19026 10e-6,-10e-6 2.13132,1.13963 -1.36987,1.33215 -3e-5,-3e-5 -1.67628,0.0715 -1.92249,-0.39937 -1.96025,0.35088 -1.883,0.67464 0.55707,1.39737 1.32285,0.86862 0.52655,-0.30843 0.2374,1.44718 0.22357,1.89607 -1.36856,0.0482 -1.86794,-1.84575 -1.38326,0.84196 -0.45014,1.55576 0.40062,1.87746 0.8827,2.11226 -2.26839,0.81935 -0.16495,1.11566 -1.73947,-0.0321 -0.26205,-0.61877 -1.8696,-0.42779 -2.0932,0.85755 -2.61078,1.17621 -1.12086,0.74944 -0.97667,-0.81265 -2.17661,-1.00437 -0.91868,0.69628 -1.77685,0.47839 -0.0882,-0.90346 -1.88203,-0.59165 -0.13912,-0.97847 -0.61733,-1.22784 1.05851,-1.80555 0.5537,0.27161 0.30844,-0.94207 -0.98865,-0.37703 -0.29218,-0.6961 0.40999,-0.80726 -0.10367,-1.26933 -1.2866,0.6954 -0.5233,0.682 -1.49812,0.15369 -0.42054,0.74429 -0.22421,0.67154 0.29183,2.55876 0.85087,1.39936 0.21764,1.43724 0.50223,0.95404 -1.1181,1.25951 -0.38563,-0.56401 -1.50694,0.13895 -0.31497,0.54191 -1.51938,-0.0723 -2.43958,1.07385 -1.4561,3.80442 -0.94115,0.71562 -7e-5,-1e-5 -1.49348,0.51477 -1.63979,0.52768 -0.53952,2.15025 -4.46789,2.05891 -1.80153,-1.13411 0.56334,3.0005 -3.24967,-0.6842 -2.54119,0.57843 0.11711,1.94572 2.97451,1.03041 1.42883,1.35974 2.01958,2.8355 -0.44414,5.43774 -1.08673,1.65067 -3.33787,-0.0912 -1.72041,0.14461 -2.1798,-0.4707 -2.7715,0.0174 -2.49435,-0.49674 -3.05908,1.99028 0.76546,1.20066 -0.2387,1.97773 -0.48599,5.68454 0.32732,1.03812 -0.0747,1.22477 -0.63362,1.73827 -0.27526,1.16846 -0.99623,1.0494 -0.37607,1.89235 0.42849,1.09541 0.98877,0.26665 0.0462,1.77748 -0.56232,2.26207 1.22136,-0.31818 1.18397,0.40646 0.98847,-0.75019 2.12171,0.4477 0.54692,1.66283 0.80279,0.97665 1.13056,0.23983 0.94997,-1.09227 1.50497,-1.02079 2.20772,0.0547 2.94447,-0.0441 1.67526,-2.22271 1.73697,-0.57609 0.50445,-1.87899 1.31074,-1.28968 -0.87431,-1.65192 0.8592,-2.3529 1.34551,-1.60256 0.18653,-0.97246 2.78007,-0.61097 1.83187,-6.63409 -0.14825,-1.61362 0.19944,-1.66687 2.98972,-0.89557 4.11506,0.74724 1.78816,-1.55775 0.8441,-0.20172 1.10491,-1.27495 0.91719,-0.37048 1.73476,0.9056 1.04751,0.31947 0.86391,2.72548 1.54782,1.59574 2.7439,6.53848 1.8808,1.30499 1.63735,0.18732 1.12827,1.16188 1.49438,0.52553 0.85955,1.24762 0.97933,0.36016 0.93133,1.45773 1.16855,1.67523 -0.38108,0.61747 -0.19576,1.55042 0.14035,0.88381 0.91229,-0.22272 0.76966,-2.47928 0.90853,-0.17141 -0.0186,-1.50845 -1.80999,-1.07158 0.57998,-1.8698 2.0067,0.4757 1.50123,1.34966 0.20037,-1.03514 -0.34066,-0.53986 -2.18905,-1.50755 -1.7728,-0.87432 -2.14014,-1.04492 -0.38794,-5.30089 -0.58469,-0.61515 -1.64176,0.0172 -2.56982,-2.23622 -1.2845,-2.28283 -2.07192,-1.38502 -0.80959,-1.39562 0.17178,-0.77898 -0.24933,-1.35389 1.54004,-0.96529 1.65062,0.39593 -0.4213,0.24669 -0.0671,0.044 0.0611,0.94589 0.70322,0.91415 0.48705,-1.17818 1.35573,0.43009 0.14996,0.92207 1.0717,1.15155 -0.38835,0.20492 1.97848,2.02349 1.9963,0.81978 1.33499,0.99497 2.09776,1.02485 0,0 0.9799,0.5507 0.71571,0.90728 0.46998,0.21553 0,1e-5 1.49347,5.16583 -0.0928,0.89733 0.25374,1.97243 0.49352,1.37729 1.43981,0.9706 0.18631,0.63599 0.42358,0.20233 0.33541,0.82317 1.52115,1.64841 1.18415,1.32874 0.83675,1.92328 1.38772,2.31256 2.19138,1.25742 1.53652,-0.0362 -1.49049,-2.55105 1.38483,-0.30347 -1.04072,-1.47431 2.30631,0.76602 -0.45532,-1.63318 -1.33787,-0.83832 -1.59403,-1.33233 0.68439,-0.63338 -1.46443,-1.3566 -0.93512,-1.72646 0.25046,-0.63435 1.55487,1.48873 1.23328,-0.003 0.99648,-0.47115 -1.96815,-1.62496 2.44088,-0.75139 1.2188,0.27322 1.3566,0.0822 0.14717,0.59655 1.09174,1.34637 1.36441,-1.55685 0.6533,-0.89397 2.53792,-0.15939 0.16085,-0.70814 -2.19902,-0.93355 -2.05657,-5.80762 -1.00532,-1.58381 0.3371,-1.97799 0.8202,-1.1417 -0.18546,-3.3078 0.67854,0.2559 0.8457,-0.58767 -0.21806,-0.7033 1.0601,-2.00882 0.35603,-1.49027 1.75929,-0.33249 0.41099,1.00768 3.3054,0.68445 0.75703,0.62123 -1.68156,0.90326 -0.21682,0.5219 2.43263,0.79805 -0.10077,1.28437 1.28707,0.55715 2.32774,-1.58278 2.08599,-0.47277 0.1039,-0.97206 -2.01426,0.1633 -1.1805,-0.6562 -0.61409,-1.68712 1.41735,-1.00774 1.8226,-0.14236 1.04404,-0.8722 1.51414,-0.2153 1.63305,-0.43354 0.25341,0.58817 -2.56832,1.1006 1.46496,1.06988 -0.95181,2.27074 -1.34072,0.43535 2.24135,1.6042 2.6482,1.03322 3.34266,2.3235 z m 4.73889,154.02508 0.16602,-0.4875 -0.77189,-0.7708 -0.26313,-1.5873 -1.65112,-1.5757 -0.86809,-2.0701 0.57741,-1.2186 -0.70072,-1.6259 0.69153,-4.6208 0.0119,0.034 0.96108,2.7548 -0.0193,0.1284 -0.18982,1.2483 0.53382,0.4177 -0.15515,1.2315 0.49604,1.1391 -0.71962,1.1076 2.19624,1.9616 0.0981,1.7899 1.21706,2.954 0,0 0.19445,0.4801 -0.4904,0.1637 -0.56853,-0.6018 -0.95807,-0.2317 0.21217,-0.6202 z m 10.66865,-24.1183 0.69863,1.09585 -0.1992,2.14061 0,2e-5 -1.44237,1.28972 -0.96981,1.3065 1.12076,0.9913 -1.66506,0.7118 -0.35243,-0.3373 -1.67543,0.1719 -1.306,0.6492 -0.77719,-1.1137 0.58182,-2.0232 0.10964,-1.74003 -1e-5,-6e-5 -0.13852,-1.11851 1.32877,-1.68904 1.8306,-0.41304 1.22915,-0.68865 1.5002,0.569 0.12645,0.19763 z m 26.1803,-107.35785 0.16236,0.67609 -3.18889,0.76491 -3.55977,-0.49834 -2.37237,-1.45041 -2.49272,-0.60215 -1.84311,-2.13152 -0.82164,-1.43159 0.46116,-0.67565 -0.16578,-1.0125 -0.85437,-2.24497 1.68703,-0.23258 -1.12089,-0.77932 -1.09984,-0.13519 -2.26826,-2.05055 -4.61984,-6.23994 3e-5,-3e-5 -3.46051,-3.26724 -0.48049,-1.85827 -2.84005,-2.60503 0.92855,-2.81561 1.77457,-0.44773 0.25132,-1.6071 1.62392,-0.56663 1.78635,-1.18572 1.98455,0.6577 1.93289,-0.13043 1.11607,1.67072 0.81368,2.65011 -1.94523,-0.40679 -1.53354,0.44235 0.7551,1.9974 -2.09298,-0.26001 0.42881,0.89258 1.41183,0.69432 1.91803,2.47362 2.78122,0.94193 0.78184,0.9653 -0.059,1.15727 0.38132,0.67844 4.66646,6.59348 -3.88818,-6.82954 1.40709,-0.70933 4.33129,6.3368 2.66892,1.73498 -1.35042,0.92497 -2.49634,-0.70964 0.97031,2.43655 1.57024,0.16866 0.60127,1.97929 2.32539,0.97844 1.43557,3.02355 1.59705,2.04435 z m -25.1976,140.71565 -1.01851,2.7244 -0.0137,3.3111 -0.004,0.3853 0.5116,0.1208 0.34324,1.5452 -0.12169,0.358 -0.82587,-1.1253 -0.5968,0.7227 -0.35629,-0.6197 0.16901,-1.0857 -0.52795,-0.8461 0.19691,-1.2568 -0.56281,-2.1277 1.01869,-1.606 0.22159,-3.4844 -0.81017,-1.867 0.12388,-0.3204 0,0 0.21765,-0.565 1.3493,1.5457 -0.0978,3.0363 0.80174,1.1069 -0.0177,0.048 z m -215.23578,128.0213 -0.1158,-1.2641 -2.96821,-0.6341 -3.45787,-1.5279 -2.29885,-1.9211 -1.55776,-1.1937 -1.53167,-0.3048 -0.92829,1.0645 0.71267,1.7566 -0.0443,1.1707 -3.11039,-0.916 -3.88906,-1.7124 -1.9338,-0.5402 4.76362,2.8708 2.92331,1.3681 3.36966,1.4147 2.14961,0.365 1.87935,0.7572 1.20444,0.2036 0.92881,0.08 0.91795,-0.7816 -0.17725,-1.0211 1.57139,0.8919 1.59243,-0.1261 z m -10.89748,-7.4114 0.87309,0.1308 -2.28284,-1.5006 -2.46032,-2.71 -0.0412,-1.2292 1.0675,-1.0391 -0.69916,-3.1059 1.39779,-1.504 -0.72645,-2.4048 -2.21018,-0.5441 -3.10156,-1.9765 -0.57601,-2.0345 0.81858,-1.3957 1.91498,-0.01 -0.29458,-1.4637 -1.12456,-2.7637 0.80622,-1.717 1.49941,-0.8595 -1.31033,-1.4419 -0.72653,0.8758 -1.81666,-0.836 -5.75893,-7.5631 0.28133,-0.7563 2.87244,1.0525 1.94261,-0.399 0.58635,-1.0171 -1.43294,-1.4578 -1.04936,-2.1637 -1.65294,-1.724 2.66911,0.2912 4.12002,-0.6019 2.37223,-1.5504 -0.0554,-3.7067 -0.71733,-1.412 -2.19834,-1.2595 -0.84013,-1.9928 -4.44054,-2.476 -0.70129,-1.509 2.36806,1.5988 1.56401,-0.093 2.89631,1.2412 1.11189,-0.3098 2.07008,0.5781 1.81754,-1.6067 0.0839,-1.8166 0.75082,-1.6529 -0.2525,-2.7497 1.01707,-1.3519 1.1044,-2.293 0.54125,-5.0876 1.10603,-1.5909 0.005,-1.4106 -0.67182,-2.9202 -1.04069,-1.5963 -0.43189,-2.1584 1.17958,-2.8671 2.31235,-2.3016 2.68425,-0.8445 1.4621,-1.286 3.84644,-1.1108 2.89351,0.01 0.13644,-1.7327 1.82608,-1.2527 -0.32007,-2.9855 1.83158,-3.7735 -0.38327,-3.8644 0.62556,-1.1405 -0.10023,-1.9059 -0.0858,-4.4556 -1.1338,-5.4163 0.45103,-2.1267 0.69547,-0.056 1.72504,-2.506 1.37517,-3.2678 3.54993,-4.0223 1.2624,-1.8872 0.72534,-4.7789 -0.60659,-1.7489 -1.21479,-3.6806 -1.09524,-0.9118 -2.46857,-0.1159 -2.26478,-0.8339 -3.84041,-3.2384 -4.36006,-2.3924 -4.30913,0.1127 -5.67193,-1.5289 -3.3277,0.8909 0.4212,-1.6002 -1.45266,-1.694 -4.83054,-1.76535 -3.6486,-1.03894 -2.16995,1.89684 -0.13586,-2.89739 -5.11076,-0.45397 -0.89815,-0.87134 2.19719,-2.37963 -0.0357,-1.99543 -1.53188,-0.4772 -1.40226,-5.05534 -0.61557,-1.59882 -0.99105,0.1366 -0.39586,-1.18384 -2.85515,-2.43998 -2.05729,-0.68417 -0.94714,-0.31803 -3.01583,-0.77685 -2.34552,0.20861 -0.36115,0.52104 -3.38675,-0.57893 -1.02677,-1.0063 -1.37624,-1.41016 -1.07315,-0.0685 0.10691,-1.48843 -1.51444,-1.88331 -1.72172,-1.0633 -1.015,-0.6814 -1.49988,0.0653 -0.0716,-2.31592 -1.9068,-1.42143 -2.23687,-0.2172 -0.70847,-1.3646 2.58333,-0.85378 -3.41196,0.0402 -3.55461,0.17433 -0.18175,0.72793 -1.77671,0.90301 -2.10459,-0.35725 -1.35837,-1.29453 -3.09935,0.29704 -2.54611,-0.0254 0.10077,-0.95708 -1.46913,-1.61197 -1.97563,-0.0469 -0.50938,-2.03128 -1.22343,0.91197 0.0562,1.36251 -3.81287,1.1751 -0.35742,2.18835 0.66234,1.01736 -1.0684,2.08939 -1.26749,0.18769 -0.60591,-2.29344 1.62641,-1.67904 0.38578,-1.51173 -0.6058,-1.31186 1.74699,-0.33738 0.25233,-0.68304 0.79944,-0.97329 -0.54055,-0.76043 -0.95263,-0.17709 -1.73749,1.39261 -1.27004,0.64629 -2.59948,1.45968 -2.15751,-0.24125 -0.37723,0.60252 -1.80127,0.0549 -1.95967,1.34144 -1.09459,2.4426 -0.23897,0.95611 -1.24087,0.30765 -2.56288,2.01791 -1.45799,-0.0918 -0.90897,-0.79882 -0.74473,-0.86977 -1.15857,-0.4993 -1.5677,-0.0986 0.17099,-0.28435 -1.53464,-0.16962 -1.17081,0.86387 -1.86356,0.58303 -1.37528,0.7301 -1.45075,0.20891 -0.62835,-0.71031 -0.322,0.23513 -1.11032,-0.12996 0.1974,-0.61246 -0.78096,-1.03686 -1.03459,-1.23388 -0.80099,-1.16338 -0.29571,-1.57059 -0.30236,-0.47488 0.0908,-0.78126 0.79505,-0.73921 0.0327,-0.76341 0.643,-1.23643 0.52009,-0.28397 0.34404,-1.3014 0.0931,-0.74511 0.51978,-1.27377 0.70463,-1.16316 0.99547,-0.98464 0.099,-1.05777 0.38169,-0.64532 0.34412,-0.2774 -0.43261,-0.79516 -0.84259,-0.44276 -0.55088,-0.64801 -0.63369,-0.54031 -0.41572,-0.0638 -1.10687,-0.40094 -0.65469,0.25081 -0.75477,0.0677 -0.58485,-0.19628 -0.82378,-0.14961 -0.45955,0.32364 -1.02608,0.31975 -1.31696,0.0755 -1.18417,-0.26082 -0.49126,0.14355 -0.15966,-0.23565 -0.81296,0.0415 -0.8224,0.50819 -0.24199,-0.11293 -0.66105,-0.36905 -0.42092,0.43074 -0.68631,-0.5229 0.97996,-1.00123 0.54107,-0.092 0.87887,-0.76692 0.97077,-1.46064 -0.0493,-0.27643 0.76314,-1.03424 -0.0333,-0.4471 1.03572,-1.25031 0.42369,-0.78627 -0.51355,-0.0133 0.19645,-0.4241 0.59745,-0.0482 0.33574,0.74242 1.79068,-2.25565 1.03825,-1.24957 -0.24455,-0.50341 1.56318,-1.76 2.37176,-1.71841 0.85075,-1.3923 -0.30564,-0.61291 -1.76808,0.24484 -2.32518,-0.10069 -3.22641,0.6705 -2.25458,0.75699 -0.94139,0.84504 -1.55252,2.42849 -1.54282,1.68613 -2.35054,1.17951 -1.97821,0.4958 -2.3187,0.51954 -2.24111,0.29197 -2.8231,0.80785 -0.50511,-1.20931 -2.49826,-0.76692 -0.2888,-1.42323 0.29551,-1.64931 -0.53994,-2.15213 0.82708,-2.24198 0.0525,-1.40971 0.55168,-1.57693 1.18659,-1.41173 2.83876,-3.87284 1.93699,-2.08073 2.86423,-2.5376 -1.07874,0.0867 1.07877,-0.0867 0.23875,-0.98284 0.92072,-1.38753 1.56653,-1.99458 1.61231,-1.30081 2.49055,-1.38025 3.52219,-1.24632 4.03014,-2.14308 2.66412,-0.67535 1.72537,-0.20269 1.29008,0.66905 2.47832,-0.36047 0.68504,1.52763 1.76297,0.0899 1.36728,-0.54839 0.61031,0.42646 0.76997,-0.38004 -0.0979,-0.57108 0.94712,-1.17232 0.1499,-0.76836 1.38653,-0.45091 2.05852,-0.19922 1.96644,0.31962 3.09859,-0.36327 1.02328,0.71513 0.21174,1.34847 0.34339,0.14445 3.49356,-1.31194 0.65233,0.44355 0.22836,2.41824 -0.39851,1.58988 -1.83313,1.91873 -0.37501,1.13084 -0.2539,2.21149 -0.20246,2.486 0.5783,0.66486 -0.35987,1.26826 1.0775,0.35053 1.00012,-0.36469 1.71568,-1.7651 0.8026,-1.12445 1.29856,-1.94901 0.9525,-3.35321 0.81698,-1.24915 0.26513,-2.04624 0.89176,-2.47304 1.00187,-2.0075 1.88833,-2.05384 2.43459,-1.71363 2.41104,-1.37613 4.08226,-1.87616 1.08118,-0.97 2.02796,-1.06199 1.33959,-0.18541 2.86464,-1.6955 3.11374,-0.85718 3.1425,-2.14548 1.92319,-2.89216 0.55209,-1.00021 -0.50349,-0.19986 2.12793,-2.75063 -0.7983,-0.93094 1.12706,0.45306 1.0361,-1.83372 1.48135,-1.24989 -1.73675,2.40154 0.25708,1.10472 -2.29743,1.96698 0.1174,0.11478 3.14922,-2.30856 1.64069,-1.12335 0.85865,-1.09243 -0.1348,-0.51445 0.83007,-1.55664 0.12987,0.72282 0.36711,0.15046 -0.44518,0.7425 3.46156,-2.22502 2.20573,-2.07659 -0.53601,-0.13263 1.34265,-0.80141 -0.36369,0.35483 1.40234,-0.006 3.78261,-0.86721 -0.19372,-0.54773 -3.65827,0.54454 2.51995,-0.83699 1.38289,-0.14266 1.06474,-0.14453 2.01971,-0.50428 0.99422,0.0562 1.8416,-0.46878 4.5104,-5.53123 -0.30732,-0.61769 -0.3078,1.01522 -0.83584,-0.0696 0.0832,-1.47322 0.80866,-1.46943 0.68866,-0.62187 1.98866,-1.63757 2.61929,-0.81391 2.62361,-0.94744 2.9014,-1.32626 0.13827,-0.89506 2.43533,-0.332 3.29096,-0.0892 -4.73274,2.25907 -1.13929,2.32479 1.46301,0.20228 3.31005,-1.98001 2.59466,-1.10828 5.32632,-1.62486 3.39259,-1.78147 -0.79766,-0.98166 0.87892,-1.95826 -3.58827,3.03932 -3.5336,0.39303 -1.88306,-1.35457 0.47922,-2.03748 1.03371,-2.89233 2.89529,-1.79095 -0.93941,-1.30186 -3.05564,0.26429 -5.45393,2.21649 -5.33302,3.52297 -1.96049,0.44295 3.81276,-2.48152 5.03452,-3.52914 3.20569,-1.17415 2.80567,-1.89227 2.09074,-0.18205 2.8495,0.019 3.75008,0.55396 3.47791,-0.42716 3.63202,-2.1538 3.63429,-0.92747 1.86371,-0.91327 1.9063,-0.97534 1.53946,-2.89722 -0.1588,-0.96614 -1.20925,-0.33954 0.6224,-2.15367 -0.63166,-0.80767 -2.4077,-0.65299 -0.61218,-1.43747 -1.33479,-1.41123 1.82703,-1.56252 0.32869,-2.95804 0.29489,-3.1056 0.52585,-2.14919 -2.02937,1.11622 -3.82914,2.67199 -3.56142,1.35636 0.003,-1.43856 -1.19213,-0.38026 2.19052,-3.05175 1.91485,-2.00531 -2.67555,-0.1799 0.41775,-0.91928 -0.56463,-1.36517 -0.62875,-0.79333 -1.93618,0.61496 -1.3618,-0.22798 -1.97225,-0.63629 -1.67782,0.53973 -3.43526,3.68954 -1.5171,2.16883 -4.48244,2.53764 0.25963,1.83935 -0.79408,2.09335 -1.36116,1.65957 -2.5157,1.74153 -3.55167,1.76343 -3.89581,1.18554 0.106,1.33706 -2.42506,4.04972 -3.14265,2.66544 -2.11779,0.84853 -0.78344,-2.46879 1.11173,-2.88523 1.70086,-2.56806 2.28736,-2.19417 -1.70484,-0.2436 -2.79026,-0.14547 -0.84508,-1.05944 -1.51567,-0.69019 -0.0501,-1.1803 -0.74947,-0.94564 -2.0499,-1.0729 -2.93875,0.48907 1.28869,-1.8725 1.88094,-2.29161 -1.96951,-0.40562 3.51445,-2.80607 2.99602,-1.88476 5.1491,-2.66261 4.392,-1.89445 2.17273,-0.29087 2.09791,-1.50358 2.49741,-0.97094 2.34802,-0.15173 3.78984,-1.54248 1.76988,-0.98962 3.99815,-1.89163 1.98829,-1.11572 0.52983,0.66799 2.44254,-0.34262 4.85743,-1.54375 1.64642,-1.06451 0.68471,-1.16273 2.65607,-1.14838 1.47692,-1.06044 -0.15871,-1.05168 -1.423,-0.31016 -1.56916,-0.16143 -3.73253,2.32894 -3.80384,1.86042 -3.77797,1.57693 0.8844,-1.47256 2.88473,-1.60146 0.6243,-1.37463 -4.48374,1.67569 3.58623,-2.18232 -1.68133,-0.42743 2.92492,-1.032 2.50264,-2.33513 0.46785,-0.90156 -0.95826,-0.32571 -4.30348,1.48155 -4.39252,2.29341 -0.0336,0.84952 -0.88514,1.30764 -4.23755,2.15946 -0.99189,-0.0582 -3.73372,1.73619 3.42265,-2.05764 -0.82395,-0.73062 -1.84397,0.37576 -2.16345,1.34679 -1.90007,-0.0522 -2.72079,0.34556 -0.66758,-0.97909 -1.82491,0.17269 0.81359,-1.17208 -0.10464,-0.51205 -1.47162,0.21421 -1.80948,0.0988 -2.28226,0.7363 -0.35894,0.91816 -3.54169,1.10262 1.00008,-1.30587 -1.88566,0.37973 -4.18269,0.25668 -1.54336,-0.46627 4.05512,-1.07314 0.43208,-1.08774 -1.58307,0.13768 -1.05135,-0.36264 -1.3745,-0.77964 0.008,-0.88734 -1.27891,-0.12154 -1.89813,0.61537 -2.38997,0.34723 3.54534,-1.59811 -5.05775,1.42676 2.32475,-1.88385 -0.32591,-0.22212 -2.69235,0.98419 -2.14602,0.49106 1.24679,-0.86988 -3.38051,0.5223 -4.21687,0.9259 -1.28483,-0.25809 -3.22361,0.66122 -3.35376,0.88832 -0.88972,-0.19642 0.52746,-1.02239 -1.09119,-0.50919 -1e-5,0 -0.61795,-0.29475 -0.23791,-0.63075 -2.62853,0.34065 -0.2331,-0.27259 -1.89791,-0.19676 -0.78342,-0.65887 -1.88733,0.20812 -0.89107,-0.35359 1.48774,-0.47671 -1.73095,-0.12404 -1.76004,0.40069 1.9338,-0.93216 -0.52004,-0.43109 -5.31697,1.0975 -0.71438,-0.13836 -5.2358,0.92095 -1.96927,0.23838 -4.36936,0.99575 -3.42515,1.02851 -4.55259,0.96974 -2.552,0.0695 -4.09004,1.12508 -0.13869,0.68299 -1.33748,0.92664 -2.06964,1.09399 -0.56936,0.83878 -2.50476,1.3742 -3.23947,0.0867 3.16139,-1.10957 -1.15843,0 -6.09839,1.0848 -4.53142,0.93521 -1.61888,1.30809 -1.73705,0.91145 0.78358,0.54555 2.73905,-0.25558 -0.0802,0.50269 1.70098,-0.50334 2.79964,-0.49496 0.96886,-0.0258 -3.26427,0.87766 -0.1722,0.41097 -2.24925,1.04705 -2.85915,0.71488 -0.62738,-0.19869 -3.88816,1.11592 -0.16702,-0.37079 -1.64181,0.16926 -3.38683,1.19327 -4.3283,1.30582 -3.73333,1.35445 -1.06111,1.00965 -2.99218,1.34963 -0.14883,0.57449 -1.0516,1.12804 3.10811,-0.46128 -0.75532,0.85778 -2.14439,0.88676 -2.82275,1.44684 1.02305,0.002 3.64249,-0.97395 -1.82394,1.21372 2.20604,-0.87419 -1.3777,1.23658 2.66824,-0.88712 -0.29335,0.41919 3.38846,-0.73824 -3.68675,1.44062 -3.8865,1.86271 -2.92139,0.87215 -1.32131,0.49598 -5.19109,1.4885 -2.76231,1.02443 -2.69978,0.28322 -4.41395,1.37424 -3.16239,0.77849 -4.1069,1.18272 -0.48985,0.42664 4.38246,-0.72459 3.01101,-0.84626 3.35881,-0.85904 2.92509,-0.70139 0.85962,0.19323 4.00504,-1.07245 2.70193,-1.17282 5.07988,-1.28393 2.47372,-1.09582 3.1247,-0.75207 3.76979,-1.02831 4.94805,-1.75451 1.08723,-1.17847 5.77387,-1.71553 4.32161,-1.59292 4.75171,-1.32454 -0.78154,0.59521 -3.19482,0.73266 -5.43516,2.35164 -2.54402,1.42472 2.82779,-0.51464 3.02773,-0.81527 2.86961,-0.50228 1.20202,-0.15431 2.9269,-1.66389 2.78464,-0.50443 -0.0791,1.01656 1.08914,1.10163 2.64225,-0.20488 1.2715,0.85889 0.74237,0.45798 -0.9986,2.52106 0.77403,0.70398 2.58223,0.06 1.35876,0.15847 -2.85529,2.32622 -0.91866,2.01022 -2.81639,2.18511 0.3715,0.80329 -0.40588,0.95063 0,0 -1.83597,1.30724 -0.40124,1.8523 -2.49233,2.0707 0.90761,1.09928 -2.3317,1.59154 -1.87666,2.30939 2.10232,1.08577 -0.002,1.13657 0.70821,2.59764 0.25254,0.007 -1.78206,2.18367 -2.07764,2.19664 -1.25074,0.70992 1.69982,-2.53243 -1.81812,-0.90718 -0.82409,0.52121 -0.81147,1.24207 -1.87852,2.29926 -3.45381,3.63268 -2.75791,2.47618 -2.70657,2.49061 -3.30679,2.60124 -1.32107,2.12625 -9.88195,7.1762 -3.87116,2.39586 -1.0213,1.57893 -2.9211,2.35687 -1.49813,2.42225 -0.25215,0.95486 -0.95615,0.66957 -3.21174,4.01873 -1.30347,2.90419 -1.62124,1.585 0.0512,0.46667 1.87864,0.28512 -0.0597,0.78187 1.1753,0.14516 -0.69363,0.82926 0.72669,0.34594 -0.30993,1.66218 -1.22749,1.47681 -1.82397,2.60046 -1.29116,2.31047 -1.02536,1.89535 -0.89105,1.80504 0.68697,0.80038 -0.0461,2.06213 -1.32855,1.30402 -1.95722,1.07972 -0.90049,-0.16395 -0.39044,0.21817 -0.0366,1.67845 0.95508,0.69962 -0.0225,0.75333 0.67237,-0.37211 0.63939,1.2899 0.46038,0.89599 -0.93743,1.56641 -1.84328,2.11515 0.74686,0.73421 0.78577,1.39753 0.45249,1.64767 -0.62608,1.75724 0.46172,0.0139 1.91375,-1.0618 0.45515,-0.51768 0.0269,-1.29072 -0.0317,-1.31343 -1.19486,-0.0955 1.07976,-1.52458 0.38258,-1.35458 0.28334,-1.26608 1.44851,-2.689 -0.31885,-1.4711 0.37528,-1.02356 -0.10674,-0.7354 1.21818,-1.86442 -0.48962,0.0402 0.60373,-0.99293 -0.18867,-0.20637 0.23556,-0.68058 0.0758,-1.99117 0.33034,-1.19169 1.96612,-2.17072 1.02919,-1.38715 1.62734,-1.17376 0.56893,0.79635 0.95359,-0.12593 0.60256,1.14657 -1.16618,1.11027 -1.32608,2.2136 -0.7672,2.18036 -0.75072,0.90316 -0.13233,1.40619 0.0793,1.52257 1.16112,0.2352 -1.158,2.01701 0.29939,1.4047 0.74181,0.67423 -1.89775,1.7866 -0.10552,0.70612 1.28089,1.18026 -0.15428,1.80205 0.91943,2.25804 0.23066,2.87341 -0.13709,1.45886 -0.55519,1.1503 0.0253,1.29805 -0.67895,0.99965 -1.11371,0.74982 -0.25739,0.82436 -1.08536,0.28218 -0.24955,1.40873 0.23914,1.82297 1.96079,1.64065 0.38338,1.31896 2.29798,0.91503 1.44416,0.17246 0.27598,0.772 1.57701,1.38162 2.44539,1.3439 1.87548,0.40505 1.95157,1.32605 1.82383,0.54995 1.61376,0.76184 1.53231,-0.28494 2.73102,-1.08757 1.64775,-0.21003 1.92454,0.75393 1.01753,0.9387 1.84764,3.11213 1.0329,1.19273 1.06071,0.57347 1.7303,0.0522 1.2502,0.50423 0.56589,0.62068 1.49648,0.17948 0.95663,0.57467 0.91497,0.27688 1.61519,0.0432 0.5518,-0.68066 0.76551,0.25134 0.17266,0.90435 -0.28314,0.20428 -0.31566,-0.43515 -0.46636,0.44702 0.97543,1.30559 0.89676,0.90853 0.31679,0.97441 0.97004,1.16622 0.71464,0.91055 -0.80983,0.55838 0.68725,0.40744 -0.62672,0.91055 -0.25165,0.88008 0.23712,0.58258 0.84182,0.28562 0.45032,0.80217 0.74089,-0.69073 0.0321,-0.84042 0.61397,0.51649 -0.0247,0.84556 0.89065,0.37054 0.98623,0.56817 0.6299,0.69208 -0.0411,0.63868 -0.44041,0.50185 0.44872,0.60678 1.41697,0.64144 0.23892,0.43709 0.21744,-0.6274 1.22846,-0.004 0.67286,0.33812 1.13472,0.19203 0.34984,1.16308 0.91261,0.1697 0.4665,-0.49147 0.17683,1.72684 1.36033,-0.14751 0.49104,-0.42835 0.84967,-0.36934 -1.06709,-1.56902 0.40085,-0.60156 0.6445,-0.10091 1.30393,-0.72614 0.79198,-1.00555 1.28918,-0.18419 1.25262,0.80352 0.33887,0.95514 0.68531,0.19808 -0.85718,0.77222 0.32473,1.56036 0.81002,0.83392 0.90898,1.53974 0.0929,2.44484 -0.71881,0.75893 0.33035,2.64449 -0.7168,1.67769 0.99866,0.6879 -1.23225,1.51651 -1.34503,1.81655 -1.44472,0.19382 -0.73859,1.04701 0.058,1.4481 -1.08704,0.2169 0.35892,0.8974 -2.01973,1.15046 -1.59667,0.62008 0.18527,1.17966 -1.09564,1.86173 -0.50571,1.80078 -1.0019,0.4359 0.58556,2.62355 -0.54404,0.8149 1.8066,1.2667 1.02348,-1.3423 0.69949,1.2624 -1.37686,2.1603 -2.13245,1.8256 -0.67754,2.0246 1.7499,2.7571 -0.74248,1.29 2.22949,1.1703 2.54524,1.8867 1.29093,2.1289 1.42879,1.3174 3.98072,5.7558 4.20984,5.3334 3.51814,3.7935 -0.1988,0.8329 1.94188,2.388 2.76108,1.7818 6.10538,3.1615 6.54883,2.9027 0.68545,1.186 3.3921,1.6598 2.19865,4.0715 2.2332,4.7317 2.19851,6.4626 2.24271,6.0038 2.63704,5.5919 0.58711,3.5297 2.49027,3.5678 0.76741,2.3847 3.4061,4.331 1.92258,4.3077 1.67552,4.6244 2.08667,4.6683 -0.89827,0.094 2.74612,3.2566 2.91062,2.8208 0.59106,1.9758 7.77845,10.0746 1.56455,3.9649 1.52758,0.3886 -1.28202,-3.4559 1.80722,0.7381 2.15787,5.7117 -2.84473,-0.9651 2.06115,4.5358 -0.38472,2.393 3.53115,0.7866 -0.72991,2.0763 0.91318,2.5689 3.44627,4.5078 2.23148,1.7427 0.60768,1.5279 1.83373,1.6434 3.43195,1.4776 0,0 3.47221,1.7881 2.68966,0.831 0.72239,-0.059 -1.50332,-2.3948 0.98334,-0.9314 0.4362,-0.6357 1.6639,0.019 z m -48.69111,-296.30215 1.64628,-1.05608 1.44615,-0.41854 0.95812,-0.64882 0.71911,-0.34649 1.37439,0.53587 1.28961,0.0639 0.18398,0.35615 -0.5245,1.51304 1.89767,0.40209 -0.92254,0.76207 0.19329,0.78813 -1.09269,1.02249 0.58789,0.33838 -1.07415,0.90731 -0.004,0.003 -0.53087,-0.10925 0.13286,-0.75615 -2.13247,0.23575 -2.21813,0.60149 -0.63311,-1.02882 -0.86586,-0.34376 1.72951,-1.4181 -2.43701,0.88983 -2.27041,0.87259 -2.07101,0.68647 -0.49673,-0.92684 -2.43893,0.56183 0.32059,-0.39587 2.25314,-1.13491 2.26388,-1.07374 2.71599,-0.8835 4e-5,-2e-5 z m 7.15486,4.30635 0.66189,-0.39732 -0.0376,0.59882 1.2643,0.33599 1.50495,0.0285 1.43449,0.27657 1.43871,0.52537 0.0839,0.85207 -0.0599,2.08691 -1.24093,0.90466 -1.41523,-0.377 0.0903,-1.68877 -0.88217,1.72016 -1.9689,1.52286 -0.73127,1.30525 -0.65972,0.76968 -1.91927,0.91368 -3e-5,2e-5 0.61609,-1.13207 0.66138,-1.59657 -0.57985,-0.27467 -2.06965,1.20992 -0.39477,-0.0229 0.35038,-0.6924 1.85745,-1.09836 1.02218,-1.24792 0.67748,-1.24025 -0.76289,-1.0618 -1.33125,-0.54352 -1.01307,1.03324 -0.64112,0.27711 -1.29936,1.34706 0.45003,-0.91576 -1.2702,0.65343 -1.14854,0.91816 -1.46225,1.3449 -0.89721,1.16643 -0.45616,1.70629 -1.25352,1.82676 -1.72246,1.35394 -0.67176,0.38479 -5.64835,5.04138 -0.74993,0.0158 4.2e-4,-0.19599 5.22277,-6.19021 0.45941,-0.72113 0.51036,-0.68395 0.6506,-1.35367 1.45904,-1.55962 1.79474,-1.91269 2.54705,-2.10225 -0.31208,0.01 -2.74827,1.75944 -0.0465,-0.3235 1.50069,-0.98434 2.47674,-1.75943 1.54719,-0.2444 1.96074,-0.54265 1.37592,0.2862 0.0588,0.0122 1.94445,-0.24474 -0.22824,-1.07928 0,0 z m -5.43505,11.8723 1.04217,0.17512 2.09625,-0.88479 1.38888,-0.77547 0.69713,-0.12626 0.97517,0.27892 0.81677,-0.43098 1.22801,-0.3498 2.01678,-0.34011 -3e-5,7e-5 -0.12358,0.27177 -2.78898,1.65482 -2.05974,0.80386 -1.30458,0.3751 -6.36646,5.51331 -1.93185,0.38451 -0.93899,-0.14796 -0.75728,-0.59797 6.01029,-5.80415 4e-5,1e-5 z m 10.58167,-3.28372 -0.11793,0.0317 -0.71976,0.14279 -0.66483,-0.26173 1.20212,-0.94266 0.83081,-0.32543 1.70079,-0.40085 1.96751,-0.37408 0.5947,0.51992 0.93973,-0.60266 0.88242,-0.38036 0.31338,0.20131 -0.003,0.0429 -0.0221,0.38425 -0.51898,1.07053 -2.0912,0.90986 -1.55838,-0.22857 -1.56315,-0.10248 -1.17258,0.31558 z m 66.22485,351.29422 97.33808,5.2837 97.41254,-5.2877 1.94536,-0.3242 2.35536,-0.4291 -4.49552,0.3492 2.92905,-0.4061 0.74278,-0.1061 0.66247,-0.3016 4.90975,-0.6987 1.77582,-0.4564 2.1594,-0.4635 2.13412,-0.4702 2.34672,-0.5069 2.86913,-0.575 3.39472,-0.6459 1.97334,-0.5305 3.69441,-0.6008 3.58726,-0.6089 4.18041,-0.7804 5.51307,-0.9592 1.97734,-0.067 3.15954,-0.3689 2.92295,-0.2697 3.28896,-0.7487 -0.55907,-0.24 2.45028,-0.622 2.79913,-0.6632 2.5672,-0.7053 2.89714,-0.6768 3.58445,-0.8281 3.10596,-0.691 3.54255,-0.7711 3.12026,-0.5925 3.51588,-0.7091 3.39669,-0.7529 3.01523,-0.4168 3.25522,-0.6862 2.62908,-0.3067 3.55743,-0.8098 2.97722,-0.6994 3.78449,-0.9008 3.1575,-0.7107 2.93048,-0.7951 1.21199,-0.6001 0.0914,-0.4019 0.33655,-0.4842 -0.45395,-0.2834 -0.96122,-0.1622 -1.62213,0.04 -0.95534,-0.1217 -1.57309,0.041 -0.3744,-0.3252 1.31186,-0.7352 0.0497,-0.4925 1.83387,-0.8253 -0.76773,-0.2486 -0.97712,-0.2075 0.27856,-0.4994 0.87909,-0.6691 0.45815,-0.5882 -2.82971,0.714 -1.38588,-0.042 -0.43378,-0.3354 -0.89288,-0.3366 -0.72356,-0.3792 -0.0678,-0.55 -0.15318,-0.5095 0.73158,-0.6395 2.29549,-0.8142 0.70836,-0.689 -1.14315,-0.1727 -1.63029,-0.087 -1.41919,0.043 -1.83735,0 -1.5638,0.1297 -1.93427,0.043 -1.88477,0.1296 -0.2892,-0.3888 1.08147,-0.737 1.55494,-0.9154 1.94187,-1.0086 0.41234,-0.6169 -2.03656,0.9246 -2.77131,1.0939 -1.66135,0.1742 -1.77961,0.2177 -1.60837,0 -1.62861,0.087 -2.26466,0.3473 -2.10052,0.3899 -0.8319,-0.2164 -0.78434,-0.2168 -1.26996,0 -2.04244,0.3466 -1.01224,-0.2165 -0.651,-0.3038 -1.62208,0.1737 -2.33593,0.6926 -2.4937,0.6894 -1.78747,0.1719 -1.30351,-0.2149 -0.55337,-0.5601 0.13333,-0.5621 -1.70767,0.086 0.32404,-0.6943 0.57795,-0.6975 -0.31656,-0.4375 -1.94363,0.4812 -1.75091,0.087 -2.16059,0.6534 -2.26728,0.6073 -2.06214,0.3029 -1.97493,0.2591 -1.28419,0 -1.28944,-0.043 0.55267,-1.3435 0.38515,-0.7856 -0.0742,-0.6136 -0.42702,-0.3078 -4.53293,1.6634 -1.98018,0.6084 -1.94314,0.7356 -2.15755,0.7321 -0.9354,-0.3011 -1.77563,0.3011 -1.49115,0 -1.73511,0.3003 -0.29331,-0.4723 -0.96329,-0.1291 -1.21005,0.2151 -1.23547,-0.043 -1.14625,-0.1721 -1.72784,0.258 -1.0688,-0.172 -0.52637,-0.4306 0.86671,-1.039 0.35114,-0.6093 -2.85076,1.4756 -1.89083,0.6033 -1.33612,-0.129 -1.72967,0.2581 -1.55284,0.2147 -1.07963,-0.2147 -1.48174,0.3435 -1.31922,0.3853 -1.76425,0.7253 -1.73831,0.4249 -2.08981,0.5503 -2.03696,0.8004 -1.51265,0.7958 -1.82851,0.8326 -1.79451,0.3314 -1.64209,0.2482 -1.5794,0.082 -1.0925,0.2062 -2.10693,1.0259 -1.35749,0.7334 -1.64607,0.6077 -1.59905,0.6446 -1.50514,0.7607 -1.82105,0.7951 -1.8957,0.356 -1.08855,-0.1976 -0.0208,-0.6347 1.72913,-0.8387 1.67129,-0.7643 1.26604,-0.8101 -1.45116,0.041 0.89505,-0.8154 2.00768,-0.7798 1.92856,-0.5362 1.37965,-0.9545 0.73984,-0.5426 1.64586,-2.235 -1.35708,0 -1.13285,-0.1702 -0.9886,-0.2556 -1.05119,-0.2561 -0.77309,-0.4705 -2.16076,0.8971 -1.55515,0.4253 -1.16461,-0.1275 -0.49199,-0.5962 -0.29685,-0.5987 -1.39016,-0.2574 -0.24929,-0.6022 -0.52691,-0.7345 0.75981,-0.9559 -0.58256,-0.6113 -1.14978,-0.2189 -1.14914,-0.1314 -1.47304,0.1752 -1.72904,0.35 -1.54152,0.4364 -1.70479,0.609 -0.9318,0.7794 -1.58282,0.5173 -1.27067,-0.043 -1.39013,0.6016 -1.86819,0.7697 -1.08004,-0.2561 -1.44365,0.4692 -1.51921,0.5101 -1.42123,0.4661 -1.90214,0.4222 -1.5309,0.2949 -1.90825,0.7133 -1.46268,0.3761 -1.12981,0.915 -1.67795,0.4962 -0.57889,-0.5378 -0.40318,-0.7482 -1.4714,0.1666 -0.80547,-0.5006 -0.0417,-0.7545 -1.1785,-0.3366 -1.18494,0.7144 -1.42308,1.1685 -1.33907,0.5803 -1.43544,0.2067 -1.42031,0.3709 -1.44686,0.5751 -1.47552,0.2456 -1.41313,0.286 -1.42743,0.041 -1.43076,0 -1.51736,0.082 -1.53989,0.3663 -0.54958,-0.611 -0.3086,-0.6962 -1.32697,-0.1234 -1.33739,-0.2469 -1.34282,-0.041 -1.53487,0.082 -1.45547,0.2468 -1.27529,0.7785 -0.27604,-0.7785 -1.6451,-0.1233 -1.43875,0.5747 -0.75932,0.8161 -1.50924,0.406 -0.56166,-0.7318 -0.73414,-0.9828 -1.37313,0.2876 -0.86907,-0.5345 -0.87886,0.7394 -1.14765,0.4496 -1.43944,0.3258 -1.31649,0.4872 -1.40622,0.2834 -1.41792,0.2825 -1.26244,0.3623 -1.34176,0.6812 -0.53355,-0.8421 -1.40088,-0.1208 -1.52936,0.2416 -1.55467,0.3612 -1.47059,-0.1203 -0.39929,-0.7649 -1.36028,-0.2021 -0.51422,0.8064 0.0657,0.7607 -1.45965,-0.08 -0.71802,-0.6809 -1.48881,-0.1206 -0.76557,0.5617 -0.37123,0.9563 -0.73582,0.7903 -1.02577,0.628 -1.13593,0.4685 -1.07155,0.3887 -0.54696,0.6189 -0.10484,0.8061 1.34116,0.4575 -0.0522,0.7573 -0.80519,0.5638 -0.68484,0.6346 -1.20532,0.5927 -0.93202,0.4417 -1.02714,0.4393 -1.05999,0.3641 -1.33901,0.2539 -1.51553,0.072 -0.59449,0.1445 -1.17889,0.2523 -1.12626,0.323 -0.33228,0.7127 -0.73743,0.5297 -0.69847,0.5256 -1.19378,0.4172 -0.91744,0.4146 -0.0275,0.3777 1.23782,1.2862 0.92814,0.632 1.66618,0 1.49086,-0.2652 1.60493,-0.067 0.57812,0.6285 0.90975,0.5884 1.12151,0.5814 -0.82656,0.4154 -1.43546,0.2855 -1.35932,0.2206 -1.01777,0.3446 -1.04158,0.3418 -1.84624,0.031 -0.33491,0.4609 0.59401,0.6662 -2.03579,-0.362 -2.13458,-0.2127 -1.75335,0.03 -0.47732,0.4239 -0.67597,0.3892 -0.18309,0.4732 -0.10498,0.4375 0.45649,0.517 -1.6495,-0.546 -2.32743,-0.7034 -2.48517,-0.5073 -2.28242,-0.4537 -2.80471,-0.4283 -2.44751,-0.247 -2.59486,-0.4983 -2.33491,-0.5043 -2.51077,-0.4459 -2.33082,-0.2569 -2.55733,-0.6156 -1.68931,-0.6233 -2.35077,-0.5641 -1.53833,-0.6713 -1.57411,-0.7135 0.31842,-0.4461 1.94986,0.172 -0.13005,-0.5519 -1.87316,-0.6267 -2.06566,-0.4918 -2.12327,-0.3178 -1.75557,-0.712 1.66349,0 1.29067,-0.1433 1.88203,0.072 1.45754,-0.072 -0.56104,-0.7567 0.6756,-0.3995 0.60627,-0.4016 0.89555,-0.2935 0.46671,-0.7011 -0.32335,-0.6325 -0.52147,-0.675 1.06725,-0.2638 -0.26478,-0.6442 -0.49129,-0.8021 -1.23672,-1.0415 -1.38267,-0.7787 -1.10476,-0.7848 -1.30481,-0.7509 -2.49928,-1.8806 -1.2956,-0.7691 -1.42119,-0.6924 -1.34766,-0.8199 -1.19767,-0.7839 -1.4999,-0.8303 -1.77689,-0.6682 -1.67294,-0.5032 -1.48647,-0.6741 -1.49721,-0.8896 -0.70302,-0.8097 -0.18069,-0.9435 0.0724,-0.6897 -0.01,-0.7365 1.14789,-0.1737 0.43948,-0.5226 -1.42042,-0.7432 -0.91818,-0.8347 -0.66975,-0.8833 0.0749,-0.6655 0.5214,-0.579 0.52025,-0.5361 1.02252,-0.2238 1.43189,0.3581 0.20365,-0.4925 0.93984,-0.6738 -0.0913,-0.7667 -1.39108,-0.5885 -0.96134,0.2718 -0.23224,0.7229 -0.57158,0.5854 -0.98962,0.2694 -0.6402,0.4483 -0.25852,0.7148 -1.29124,0.1336 -0.35862,0.5782 -0.18524,0.6205 0.41703,0.9703 -0.47155,0.6582 -0.23552,0.6993 -0.0164,0.8262 -0.0482,0.6493 0.44398,0.99 1.15174,0.8556 1.36342,0.9353 0.79671,0.8447 0.55209,0.8815 0.36866,0.7926 0.9243,0.829 1.13734,0.8236 1.2852,0.7367 1.46727,0.813 1.51626,0.8076 1.46833,0.8018 1.28977,0.8356 0.93851,0.8685 0.21174,0.6271 -0.50535,0.4288 -1.05701,0.2719 -1.25745,0.2326 -0.9574,0.2706 -0.34186,0.5004 -0.46382,0.4214 -1.16047,0.1908 -1.88422,-0.6506 -1.8781,-0.4235 -1.222,0.1927 -2.49082,-0.7731 0.77841,0.6961 0.43354,0.7293 -2.11458,-0.4215 -1.79831,-0.2308 -1.63134,-0.077 -2.38774,-0.7738 -1.07586,0.1941 -1.99523,-0.3496 -2.63915,-0.8988 1.9315,1.5193 -1.21012,0.1546 -2.09668,-0.4643 -0.94218,0.2324 -0.76135,0.3861 -0.89229,0.2694 -1.77509,-0.1154 -1.98446,-0.695 -2.41723,-0.583 -2.03214,-0.3123 -1.2527,0.1172 -1.78375,-0.1172 -1.49409,-0.274 3.70631,1.4788 1.91401,0.7311 2.31451,0.7255 1.78152,0.1519 2.12042,0.6809 2.20018,0.6381 1.40175,0.8187 -2.26361,-0.3339 -2.07759,-0.2608 -1.79598,-0.075 -0.51298,0.3354 -1.20944,0.1114 -2.57561,-0.5215 -2.03094,-0.2245 -3.14023,-0.7147 0.34119,0.5648 -2.37966,-0.6404 -2.15449,-0.6831 -2.28422,-0.6115 0.56869,0.6877 -0.41884,0.3419 -2.49853,-0.4181 -0.52754,0.3042 0.43885,0.5677 -1.28328,0.075 -1.72816,-0.038 -1.68767,-0.038 -1.29701,0.075 -2.17507,-0.1887 -2.03603,-0.189 -0.64971,0.2645 -1.38204,0.038 -2.48994,-0.3401 -0.81931,0.2647 -1.2178,-0.1512 -1.2113,-0.1135 -0.0248,0.4156 0.15449,0.4136 0.0134,0.4489 -0.82181,0.1864 -1.39555,0.037 0.42859,0.4824 -0.30966,0.3692 -2.82205,-0.6286 -0.19014,0.3334 2.06955,0.6626 2.89532,0.6933 2.59919,0.6871 -0.82077,0.1798 1.2348,0.6077 0.75595,0.4966 0.29894,0.3877 -0.78353,0.1754 -3.99827,-0.7755 -0.51088,0.2477 -0.83985,0.1765 -3.25619,-0.5661 -1.22245,-0.178 9.07682,2.0346 3.50003,0.6185 3.6468,0.5444 3.53878,0.6399 2.46567,0.1672 2.63942,0.2331 2.22432,0.1 3.5384,0.4951 3.22011,0.458 3.5265,0.679 2.02714,0.5425 1.7721,0.5987 1.11951,0.4667 -3.92401,-0.5294 -0.42189,0.25 -2.35795,-0.094 3.91682,0.4964 3.67915,0.5513 3.63239,0.4232 3.83419,0.6255 3.1621,0.5562 3.6157,0.6034 4.22172,0.6467 3.70721,0.3039 4.32142,0.5433 4.12573,0.3199 2.5532,0.053 4.45652,0.6244 1.35023,0.3553 1.79131,0.3729 -4.52448,-0.3981 -4.25479,-0.2534 1.55748,0.3538 -4.58485,-0.3029 -4.69544,-0.4114 -4.38637,-0.3406 -4.54725,-0.4536 -1.58702,-0.1649 -3.11245,-0.3251 0.21569,0.2462 0.50652,0.079 4.04889,0.5697 -5.62435,-0.5697 -0.15354,-0.01 -0.2079,-0.015 3.08877,0.4377 0.34638,0.048 -4.69798,-0.4296 6.37977,0.7844 z m 55.67803,-10.4506 -1.8904,-0.3809 -0.87432,0.3809 -0.46993,-1e-4 0,0 0.42101,0.7206 0.34656,0.6105 0.56663,0.6374 0.60597,0.729 0.18904,0.5562 -0.96699,0.4533 1.06816,0.6721 2.00492,0.5367 1.98812,0.094 1.0796,-0.3142 0.8598,-0.3801 0.66192,-0.4154 0.51254,-0.5164 -1.20233,-0.851 -1.07509,-0.7311 -1.73735,-1.047 -2.08786,-0.7545 z m -7.17746,3.4069 -2.17492,-0.6859 0.69823,0.5884 0.75787,0.6777 -2.06484,-0.1604 -1.95585,-0.064 1.49182,0.4804 0.1407,0.064 2.1732,0.5376 1.52066,-0.094 2.0819,0.2199 -1.26122,-0.7268 -1.40755,-0.8359 z m -36.06872,-17.0248 -1.59032,-0.9339 -1.60769,-0.9003 -1.78636,-0.9482 -1.31881,-0.7887 -1.70486,-0.7934 -0.78651,0.3346 0.56583,0.999 2.30417,1.6886 0.99785,0.7746 1.12233,1.0519 -1.53944,-0.08 -0.48974,0.2415 0,0 -0.1374,0.8015 1.35286,0.8353 1.82693,0.5927 0.89833,-0.2763 0.98293,-0.2768 0.60756,0.7892 1.60345,0.039 0.73545,-0.3937 0.99619,-0.2764 -0.73691,-0.7541 -0.89272,-0.7994 -1.40312,-0.9264 z m -33.89202,1.9997 -2.06673,-0.1589 -2.11071,-0.279 -0.009,0.3585 0,0 2.387,0.8316 2.03874,0.3937 1.34314,-0.1179 1.61698,0.079 1.26915,-0.079 1.2418,0.1572 -2.99842,-1.1454 -0.83549,0.238 -1.87643,-0.2778 z m -18.60453,3.1303 -2.2891,-0.3473 1.52673,0.655 10e-6,0 3.00446,0.6885 1.96047,0.1522 -0.29418,-0.4959 -1.18993,-0.6911 -0.4356,0.3462 -2.28286,-0.3076 z m 2.30446,10.9875 -3.96889,-0.7651 -3.56123,-0.6063 -3.44811,-0.5443 -2.97026,-0.2742 2.51767,0.6489 0,0 2.85862,0.4735 0.52616,0.101 3.47564,0.6019 4.1028,0.5953 0.4676,-0.2307 z m -7.34031,-11.0261 -2.41993,-0.4635 0.35655,0.425 10e-6,0 3.05976,0.5382 1.98626,0.1914 0.87047,0.076 -3.85312,-0.7676 z m 545.5155,-162.9183 0.71723,-1.05 0.71923,-1.6363 -0.22425,-1.4705 0.51599,-1.2141 -0.5259,-0.3496 0.7023,-1.8135 -0.13405,-1.414 -1.56135,1.0827 -0.46838,0.8247 -1.3294,1.5882 -1.48069,1.5325 -0.0807,0.9653 -0.8634,0.5873 -1.60863,2.1778 -0.66348,1.6544 -0.71941,0.841 -0.49498,1.3979 -2.35983,2.2999 -1.42999,1.585 -1.4646,1.2811 -1.66367,1.5524 -2.55003,0.9878 -1.91057,-0.9805 0.22231,-0.893 -0.92485,-0.7402 -0.78219,0 -0.8311,-1.7128 -0.77177,-0.9954 -1.54475,-0.9264 -1.21891,-1.5972 0.29487,-0.8161 1.83424,-1.4206 1.65166,-1.4445 0.31594,-1.1556 1.01932,-0.096 1.6992,-1.1679 1.55897,-1.5472 -0.58209,-1.4302 -0.93581,0.5554 -0.93791,-0.2517 -2.06197,0.8277 -1.31335,-0.8887 -0.95015,0.2925 -2.02513,-0.7396 -0.95086,-1.1854 -1.55399,-0.7166 -1.69809,0.4199 1.63996,0.9517 -0.65119,1.4772 -2.63951,0.5447 -1.27811,-0.3435 -2.20904,1.0197 -2.05793,1.651 0.063,0.7222 -1.66737,0.7554 -2.61427,2.3183 -0.3178,1.5873 -1.61871,-0.2711 -1.73718,-0.02 -0.58988,-1.712 -1.35546,-1.3267 -1.56321,0.3898 -1.45457,0.4139 -0.44248,0.7266 -1.04781,-0.3373 -0.4837,0.8077 -1.67816,0.4924 -1.313,1.1409 -2.3409,1.4221 -1.64876,2.1995 -0.84599,-0.6262 -1.7228,1.4025 0.13143,1.366 -1.54275,0.5767 0.38927,-2.4957 -3.45883,2.4565 -1.08225,1.5714 -0.88417,1.1536 -2.59687,1.4675 -1.76318,1.5449 -2.38562,1.2833 -3.46095,0.8464 -1.45323,-0.068 -0.90657,0.2638 -0.86462,0.6334 -1.87448,0.3205 -2.91093,1.0774 -0.48655,-0.3565 -1.39241,0.2258 -2.83191,1.0609 -2.21593,1.2328 -2.89897,0.9665 -2.62994,1.9887 1.45103,-2.2016 -2.66392,2.0801 -1.01377,1.6897 -1.49841,1.446 -1.10921,0.7115 -1.63797,1.672 -0.10189,0.8649 -0.50727,0.9105 -0.64895,2.276 -1.25247,1.4805 0.21243,-1.1193 -0.56809,-0.8382 -1.46227,2.6818 -0.0393,-1.2501 -0.72365,1.2331 -0.586,2.2884 -1.77904,2.2643 0.0366,1.1514 -0.75048,0.8494 -0.83099,1.8814 -1.74795,1.6467 -1.26413,1.6502 -1.7327,2.922 -1.55429,1.7131 -2.48255,2.0099 -1.05892,1.0384 -1.13998,0.6581 -1.63388,0.3937 -1.90794,1.6566 0.66138,0.549 0.39088,1.8462 1.58573,10e-4 1.59249,0.1135 2.22513,-0.919 2.15535,-0.8171 0.54078,0.1307 3.23201,-1.5416 1.80175,-0.1326 2.0966,-0.3155 1.49545,0.5272 1.81268,-0.2571 2.12031,-0.07 2.2964,-1.1746 2.26508,-1.5158 2.89257,-0.667 4.33009,-1.4823 2.10667,0.1917 3.92937,-0.9649 4.40811,-1.035 4.73687,-0.2735 0.66125,1.4073 1.62135,0.083 0.95058,1.7518 -1.30214,0.6673 -0.10626,1.0831 -1.22376,2.0963 -2.10996,1.5341 0.25425,1.1894 4.00708,-2.2991 2.81478,-0.9886 5.21266,-2.4651 -2.6323,2.1405 -2.8239,1.4158 -2.62289,1.6681 -3.4323,1.5991 2.83538,-0.531 3.90481,-2.0007 -2.37975,2.1465 -2.73364,1.4021 1.76799,0.3482 -0.5233,1.1725 -1.57169,1.4605 -2.7989,2.195 -1.19088,1.7818 0.92782,0.8359 0.97861,0.2068 0.5763,0.4574 0.72694,0.7839 5.25482,-2.0933 2.09535,-0.5467 -2.70802,1.5068 0.58185,0.5097 -0.17379,1.2777 3.35119,-1.2408 2.82761,-1.1196 3.98595,-1.1856 2.72424,-0.1052 2.91433,-1.0043 1.33107,-0.9141 3.41931,-1.9912 3.92821,-2.1632 3.1029,-1.4408 4.44777,-2.4949 2.91026,-1.429 4.14346,-2.2394 3.84224,-1.4203 4.80374,-2.6292 3.36209,-2.0721 2.20609,-1.6575 4.11366,-2.5786 2.18683,-1.3388 3.42239,-2.5583 1.83436,-2.4564 2.34521,-1.7893 1.88895,-1.6481 1.95519,-2.3232 0.56831,-2.3403 -0.0222,-1.1032 0.0113,-1.7749 2.68343,-3.0637 -1.09925,0.4444 0.16453,-1.2527 -1.69642,0.6352 1.98681,-3.1277 0.14115,-1.8126 0.99174,-0.7003 -0.6954,-1.2583 -0.72676,-1.3737 -1.68286,-1.5102 0.71043,-1.9605 1.4479,-1.4986 1.12725,-2.4707 -0.43681,-0.3527 0.62289,-1.4432 1.12541,-2.4787 1.13896,-1.2812 -0.61108,-1.1289 -0.15963,-1.2235 -2.47743,1.0901 0.38181,-2.2682 z m -84.87535,78.1323 -1.00955,-0.256 -2.24997,1.3256 -10.395,7.2113 -1.71437,1.8318 -1.37337,2.3644 1.17125,0.086 0.25731,0.148 3.62658,-1.9231 -0.13388,0.7566 2.7246,-2.2264 1.77738,-0.9569 13.24065,-8.1214 -0.98368,-0.1942 -2.64132,0.5559 -1.85316,0.3964 -0.44347,-0.9977 z m 14.02374,-133.66649 -2.16257,1.58329 -0.96325,1.08151 -1.14883,1.82798 -1.7936,2.28687 -3.39617,0.62583 -1.18071,0.54516 -0.39263,2.44746 -2.20061,0.54016 -2.17834,-0.99062 -1.60954,1.92096 -0.25851,2.6784 0.40057,2.52901 1.31448,2.4727 1.40287,0.80348 0.1473,3.8769 2.3462,0.3336 1.90721,-0.159 0.89871,1.399 3.54855,-1.0395 1.33422,0.9261 2.03755,0.1634 0.90816,1.7671 3.45384,-1.3007 0.28531,1.0282 1.62165,-4.4205 0.27872,-2.8787 2.85983,-1.97705 -0.0923,-2.61954 0.93274,-1.97078 3.41441,-0.34104 -3.37151,-2.67511 0.4006,-1.32986 -2.39317,-2.73673 1.29631,-2.61065 1.9697,-0.98472 -0.75491,-1.41158 1.90633,-0.1434 -0.009,-1.13231 -2.57471,-0.86969 -2.06309,-0.80591 -0.41018,-1.25652 -1.82332,-1.46236 -1.15848,0.009 -0.92583,2.25931 -1.8041,2.01036 z M 456.34956,1.27667 l -1.12005,-0.0926 -1.10218,-0.0923 -2.62689,0.2467 0.16236,-0.15774 -2.16034,0.0605 -1.70294,0.16179 -1.66059,0.23567 -3.18794,0.80848 0.65485,-0.42171 -0.56948,-0.0781 -2.91482,0.56111 -2.20809,0.24697 -0.9929,0.0497 -2.0643,0.29318 -1.63252,0.53035 -0.63652,0.46145 -1.38724,0.64517 -0.26162,0.54918 3.07108,-0.10363 1.26438,0.18812 -2.88542,0.59819 -0.15457,-0.17866 -2.01422,-0.0709 -2.03733,0.85415 -0.56511,0.65774 -1.78399,0.59356 -2.61468,0.40943 -2.44275,0.67115 0.63912,0.33561 -1.44682,1.13543 -0.66934,-0.76625 -0.87251,0.12408 -2.64244,1.28915 -2.76158,0.40925 -1.92407,0.87597 1.67185,0.0963 0.99916,0.2229 3.56678,-0.28547 1.56624,0.50886 4.91743,-1.10178 0.89045,-0.44353 -1.81042,0.0701 0.73468,-0.40914 2.48596,-0.53658 1.95016,-0.69589 2.51226,-0.4986 2.17054,-0.59852 1.17618,-0.85043 1.30062,-0.30474 -0.69008,-0.21301 3.00948,-0.18117 1.327,-0.34342 2.35941,-0.27752 4.48051,-1.3442 2.34299,-0.45695 4.05264,-0.96254 -1.62876,0.008 1.52199,-0.34954 2.50895,-0.31341 3.31622,-0.66261 1.01314,-0.40142 -0.18977,-0.40309 -0.89746,-0.18833 -1.40669,-0.11464 z m -28.9462,5.42281 2.43142,-1.09432 -0.40022,-0.30932 -0.26871,-0.34734 1.74398,-0.8542 -2.02233,0.0807 -0.87648,0.36527 -1.15809,0.11216 -2.14754,0.49218 -2.87866,0.72723 -1.80224,0.75219 -0.73467,0.55971 1.60077,-0.0129 -1.97496,0.45255 -1.76308,0.62236 -0.9644,0.70762 1.29801,0.22395 1.93815,-0.1259 5.0173,-1.30089 2.52125,-0.50656 0.4405,-0.54453 z m -18.6639,4.46752 -1.70062,-0.11471 -2.27773,0.74447 -0.26909,0.56716 1.52859,0.2249 -0.88681,0.80948 -1.99677,0.92973 -1.94194,1.04213 1.55837,0.6176 1.27371,0.2374 2.31463,-0.0342 3.7089,-0.29642 0.94646,0.23392 2.40104,-0.41297 1.63032,-0.50824 1.26579,-0.78494 0.28015,-0.70898 -1.41157,-0.13152 -2.43367,0.15918 -2.50802,0.40691 -1.18669,-0.15748 -1.22385,-0.0826 0.32707,-0.44454 -0.22127,-0.42091 1.8339,-0.69362 0.5686,-0.60209 -1.94823,0.004 0.36873,-0.58378 z m 3.39404,-1.71139 1.98026,-0.633 0.62511,-0.60238 -0.1875,-0.114 -0.94157,-0.0687 -2.00441,0.7158 -1.46052,0.65668 -0.37216,0.41 2.36079,-0.36439 z m -11.04323,9.18295 3.2518,-1.27106 -3.91811,0.52088 -2.74228,0.80558 -4.30897,1.78725 -3.3923,2.06052 1.73067,0.009 -2.94491,0.94089 -0.2148,0.72981 1.52269,0.31452 1.69253,0.61446 3.94091,0.47007 2.74007,-0.2708 1.61097,-0.61902 -0.0513,0.71437 0.95937,0.11991 -0.49027,1.31667 -1.59301,0.53967 1.70003,0.72883 0.69174,1.04652 -0.41899,0.7435 -0.82368,0.96595 -4.43251,2.1492 -1.83207,1.1123 -0.4633,0.80086 -3.32863,0.28763 -2.78103,0.04 -2.99178,1.66725 0.32568,0.78309 4.72885,-0.36431 0.7323,-0.6602 0.91298,1.10586 0.9587,1.17924 -1.22175,0.65065 0.67502,1.12874 1.96511,1.35406 3.34971,0.93669 0.50835,-0.81946 -0.26669,-1.40913 -0.16571,-1.99267 1.98555,1.8506 1.34736,0.63041 2.09734,-1.6679 1.22973,-2.27239 -0.004,-0.60499 -0.92253,-1.04262 -0.1296,-1.30826 1.58512,-1.27913 2.14117,-0.27841 -0.027,2.14982 0.81813,0.96421 5.14882,-2.60759 2.02587,-1.55516 -2.04494,-0.1462 0.21185,-2.01045 -1.61151,-0.47632 -1.47539,-1.40674 3.64487,-0.99473 1.25804,-1.97536 -0.002,-0.8412 -1.90127,-0.81862 0.58712,-1.30788 -2.94623,0.46253 1.17618,-0.89088 -0.15986,-0.96477 -0.97076,-1.0147 -2.42744,0.79627 -3.32237,0.58541 2.40068,-1.31566 1.66671,-2.04437 -4.35976,0.80649 -4.01,1.60282 1.37511,-1.24157 z m 11.55972,0.10846 -0.12969,-1.08238 -2.20127,-0.21097 -0.77452,0.13018 -1.31163,0.70745 -0.55945,1.05158 0.13162,0.12109 1.72547,-0.26801 1.18044,0.042 1.13976,0.0581 0.79927,-0.54906 z m -1.16805,-8.33881 0.63837,-0.20403 0.20157,-0.32998 -1.81086,-0.0259 -1.07374,0.49719 1.48035,0.11397 0.56431,-0.0512 z m -1.90829,-1.42235 1.73539,-0.82535 -0.4491,-0.62507 -0.95367,-0.23158 -2.02521,0.65395 -0.22045,0.41505 -2.44184,0.51597 1.82466,0.0648 -0.14862,0.56889 0.9575,0.19674 1.72134,-0.73336 z m -6.31756,2.86762 -0.69237,0.2403 -1.12294,-0.10571 -3.12974,0.62634 -0.93236,-0.0576 -3.62479,1.43811 2.06468,-0.1444 -2.71334,1.10125 0.42217,0.30448 2.22217,-0.19539 3.81064,-1.40263 2.30647,-0.95373 1.38941,-0.85103 z m -0.87361,-3.35001 -0.0195,-0.34982 -0.21457,-0.0784 -2.6206,0.5174 -0.82571,0.24812 1.49674,0.002 2.18364,-0.339 z m -1.86512,6.59547 0.96214,-0.60036 0.60708,-0.66018 -2.68385,0.50659 -2.54111,0.85372 0.17552,0.49847 1.25676,0.14298 2.22346,-0.74122 z m -8.58253,4.30558 2.15151,-0.38675 5.21803,-1.75358 -1.14688,-0.47347 -2.16182,-0.0677 -2.24216,0.53006 -2.36243,0.8328 -2.07231,0.98349 -2.81886,1.76151 1.21636,0.0754 4.21856,-1.50182 z m 4.99707,-9.31193 1.93844,-0.53016 -0.43601,-0.27565 -1.91237,0.1792 -2.53962,0.56405 -0.38186,0.57646 3.33142,-0.5139 z m -1.72668,21.11109 1.72705,-0.64705 0.54129,-0.30081 1.19364,-0.93126 -0.26224,-0.59866 -1.63703,0.2995 -2.20298,1.21718 -1.05829,1.0712 1.69856,-0.1101 z m -1.16542,39.90474 1.91307,-1.6473 0.75372,-0.7065 -0.80538,-0.11401 -2.1325,0.89781 -2.00572,1.48806 -4.29052,4.19922 -2.49758,1.60142 0.46217,0.72452 -1.72126,0.94108 -0.11643,0.79333 3.7866,0.0819 2.19984,-0.16022 1.57385,0.65211 -2.01456,1.2641 1.14169,0.0936 3.41742,-2.33073 0.38546,0.34061 -1.47061,2.20023 1.07441,0.50945 0.94839,-0.10046 1.9265,-2.36872 0.17301,-1.6643 0.43212,-1.41483 -1.58586,0.4554 1.56203,-1.94609 -1.51224,-0.81409 -1.22001,0.64487 -1.33386,-0.72534 1.15843,-0.92047 -0.98397,-0.56451 -1.72865,0.89026 2.51044,-2.30041 z m -3.02404,-58.30248 2.10431,-0.87633 -0.41581,-0.21141 -2.81431,0.66698 -3.42703,1.78008 -1.43981,-0.14289 1.24353,-1.10474 -1.02164,-0.6226 -2.474,0.51582 -6.69651,1.82826 0.53297,0.33915 5.41688,-0.22605 -4.47713,0.8426 -1.51991,0.62657 1.77752,-0.0437 4.88662,-0.83084 4.3826,-0.29595 2.93478,-0.89744 2.2149,-0.91662 -0.85519,-0.0807 -1.7482,0.3115 1.39543,-0.66162 z m -2.77701,4.48331 -3.4625,0.94918 -1.5601,1.29806 -1.8428,-0.24762 -1.41533,0.63962 -0.30647,1.55889 -0.72709,0.77977 0.84237,0.17131 3.55266,-0.79171 3.85173,-1.81846 0.0199,-0.85874 3.08518,-0.94773 0.93447,-0.5687 -2.54989,0.24786 -0.42209,-0.41173 z m 2.74712,-7.10459 -2.13933,0.26231 -1.37566,-0.0249 -5.74673,1.16804 -6.01426,1.37341 0,0 0.14917,0.40238 2.49799,-0.28491 4.26869,-0.79024 1.20403,-0.0897 2.69073,-0.63361 4.46537,-1.38285 z m -9.31177,7.93556 0.1417,-0.43219 -1.69657,0.0784 -1.03428,0.27503 -1.39679,1.38696 3.98594,-1.30823 z m -0.8422,57.15992 0.22303,-0.48645 -1.32341,-1.1053 -2.12368,-0.66163 -0.7985,0.22185 1.0345,1.24811 2.01798,0.83088 0.97008,-0.0475 z m -3.14756,-40.76652 -0.79161,-0.18265 -3.28925,2.06441 -2.55029,1.79438 -2.78061,1.13694 2.33561,-0.22127 -1.1768,1.35201 3.65504,-1.19639 3.01881,-1.22256 -0.43469,1.03361 1.69002,0.5546 2.20872,-0.72552 -0.15799,-0.76103 -1.32154,0.17849 1.2098,-1.0871 -0.80053,-0.7086 -0.60238,-0.77655 -0.0659,-0.59125 -1.20786,0.34764 1.0614,-0.98916 z m -8.47282,-15.80378 -0.21697,-0.38185 -6.12918,1.20838 -2.80756,0.79825 -4.71837,1.51897 0.84982,0.53902 1.95852,-0.0287 -4.77391,0.82328 -1.09879,0.76397 1.68851,0.0418 3.05369,-0.16534 1.37307,0.48621 -2.43988,0.36343 -1.58574,-0.0939 -2.75189,0.3574 -1.34464,0.22355 -2.02751,1.67377 1.66529,-0.23764 0.57973,0.58016 -1.34287,1.0105 2.77998,-0.203 4.0034,-0.32142 3.89389,-0.72432 1.77671,-0.12936 1.16504,0.57563 1.7712,0.33626 1.89335,-0.78338 0.70125,-0.81598 2.45032,-0.17012 1.8925,-0.9261 -0.36453,-0.98911 -0.0252,-1.02591 2.64631,-1.44576 3.54341,-1.96552 0.52425,-0.80312 -0.40531,-0.31667 -1.69026,0.28987 -3.85116,2.05053 -2.46365,0.8417 3.49103,-1.98385 0.46446,-0.65353 -3.71674,1.02013 0.77317,-1.00875 -4.05294,0.60331 2.86819,-0.93279 z m 7.44729,23.83238 0.14243,-0.48029 -0.57875,-0.0512 -1.39721,0.70303 -0.25601,0.16222 -0.37255,0.70224 0.47581,0.20054 1.98628,-1.23654 z m -3.30733,39.57933 0.0246,-1.31085 -1.2137,0.83169 7e-4,0.90453 1.92579,1.14969 0.83782,-0.17684 1.57177,-1.10938 -1.89371,0.0737 -1.25326,-0.36258 z m 1.49535,-55.15464 0.63278,-0.81178 0.33009,-0.40151 -0.0856,-0.3792 -0.25871,-0.59494 -2.58657,0.91086 -2.34818,0.65542 0.0606,0.95594 1.48765,-0.23324 0.64759,0.64739 2.12035,-0.74894 z m -0.7985,14.28467 0.56438,-0.45093 -2.08518,-0.0221 -2.43689,1.07506 -0.41078,0.63319 1.0392,0.0541 3.32927,-1.28936 z m -20.86218,-19.04017 2.16957,-0.89021 4.98964,-1.41275 6.38504,-1.39941 2.69971,-0.49743 0.92232,-0.82414 0.41612,-0.56304 -2.52316,-0.10762 -0.45152,-0.4008 -4.55794,0.30139 -2.26635,1.19226 -4.52333,1.29627 -4.68821,1.46007 -2.73731,0.85633 0.0799,1.07841 -1.55326,0.90208 5.6388,-0.99141 z m -92.94254,39.89686 -1.27751,0.81304 -1.26132,1.12452 -0.19663,0.79929 -0.95509,1.18518 -0.48574,1.18208 0.73411,0.005 1.2138,-2.0756 4.6263,-2.90627 -2.02595,0.20382 -0.37197,-0.33108 z m -0.67647,14.75396 0.86692,-1.46912 -0.66045,-1.09376 0.5332,-1.25367 0.44184,-0.90827 -1.45237,-0.27827 -0.6777,-0.39818 -1.28061,-0.57169 -0.92166,0.60694 -1.02936,1.43098 1.39723,0.47455 -0.55591,0.75285 0.63265,0.9268 -0.5144,0.94248 1.82168,1.20937 1.39894,-0.37101 z m 543.09057,89.84851 -0.41323,-1.66933 0.3774,-1.27205 -1.33382,-1.10311 -1.60631,-0.0686 -2.43919,0.81002 -0.50739,1.30991 1.60944,2.4866 2.78686,0.89606 1.52624,-1.38954 z m -514.54364,-11.814 -1.96357,-0.9848 -2.07079,-0.0326 -2.17978,-0.20622 -0.82347,0.31758 -2.17071,0.27665 -1.67948,0.56347 -1.56923,0.64278 -1.1639,1.04298 -1.9099,0.893 0.99716,0.27403 1.50085,-0.31609 0.77193,-0.7053 1.13147,-0.0403 2.75155,-1.5021 2.53467,0.14797 -1.39707,0.72225 0.62755,0.56384 3.25165,0.44799 0.48693,0.60634 2.10578,0.77513 1.57621,-0.11255 -0.18252,1.64625 0.52665,0.83444 1.65029,0.19322 0.74774,0.75086 -2.56948,1.61264 4.02062,-0.28158 1.76924,0.2287 1.89373,-0.14355 1.96976,-0.36696 0.62436,-0.67714 -1.50788,-1.18309 -1.93781,-0.11906 0.57955,-0.81383 -1.32684,-0.58953 -0.90631,0.0397 -1.0364,-1.3038 -1.36357,-1.79033 -0.59344,-0.67923 -2.6669,0.32655 -0.49864,-1.05829 z m 234.76547,-96.43099 -0.74079,-1.25703 -2.46208,0.83027 0.37628,1.04343 2.04538,1.42631 0.78121,-2.04298 z m -219.47059,110.07595 -0.18021,0.83085 0.53481,0.45965 1.85846,-1.97945 1.06874,-0.41498 0.14622,0.70127 1.12248,-0.17813 0.6975,-0.52724 0.84934,0.13758 1.30545,-0.12123 1.06758,0.62875 1.46286,-1.17667 -0.93603,-1.06053 -1.17516,-0.10442 0.42972,-0.86148 -1.51577,0.0577 -0.0781,-1.02542 -0.74738,0.0726 -1.30208,-0.74407 -2.11632,-0.0134 -0.54885,0.49273 -2.16544,-0.45396 -1.60314,-0.12773 -0.95822,0.79822 1.52594,0.45083 -0.48402,1.10415 0.73597,1.25226 -1.2459,0.64353 -1.97497,-0.23199 -2.35653,-0.40138 -0.62562,0.93183 1.10693,0.90062 1.50155,-0.54031 1.59243,0.20898 1.37538,-0.20046 1.63237,0.49131 z m 693.44505,100.73013 2.40113,-0.7115 1.24487,-1.4109 -2.41795,0.9017 -1.01907,0.1587 -1.91185,0.5931 -0.61814,1.0779 2.32101,-0.609 z m -4.16388,1.5568 -1.12807,0.4767 -0.92124,-0.3575 -1.99101,0.993 -0.94677,1.2709 1.16671,0.3575 2.08883,-0.3972 1.90037,-1.5093 -0.16882,-0.8341 z M 1.835846,268.40583 0.958161,267.01573 0.5,267.14943 l 1.244875,1.4109 0.090971,-0.1545 z M 495.46888,50.97435 l -2.03077,0.20535 -1.32685,-0.19319 -1.44272,1.98693 -0.80541,2.55598 0.78954,1.27043 -0.0521,2.4179 1.02213,-1.18887 0.5412,0.69209 -0.7063,1.12631 0.38722,0.68435 2.1515,0.44585 0.026,0.0357 1.14985,1.56643 -0.31514,1.48425 -0.003,-2.8e-4 -2.70094,-0.23175 -0.43071,1.6822 0.94721,1.39039 -1.98101,0.8029 0.47509,1.0338 2.91038,0.43385 0.0147,0.002 -1.70475,0.56333 -2.91657,2.75293 0.98886,0.52591 1.38899,-1.00498 1.75215,0.29837 1.29681,-1.23016 0.8717,0.51633 3.24244,-0.72098 2.53441,0.0242 1.68465,-1.3689 -0.76526,-1.34666 0.93938,-0.76081 0.19749,-1.65284 -2.23516,-0.49059 -0.52574,-1.01484 -1.11106,-2.90776 -1.22427,-0.40754 -1.52859,-2.97578 -0.13318,-0.26348 -1.8089,-0.15981 1.63391,-2.23485 0.49755,-2.0149 -1.86548,-0.0129 -1.75151,0.33763 1.92243,-2.65379 z m -5.12258,10.15636 -1.80541,-1.56428 -1.49766,0.10406 -1.45246,1.18147 -2.64586,1.99204 0.69334,2.60661 -1.76771,2.70039 2.60915,0.39284 3.42258,-1.53273 1.54666,-2.30254 -0.18151,-1.82935 1.07888,-1.74851 z m 65.78555,56.36131 -0.14151,1.22858 3.01922,0.56369 0.0944,0.47698 3.34886,-0.24573 0.0707,-0.85275 -1.19579,0.34687 -0.0735,-0.50304 -1.80643,-0.20518 -1.79308,0.1647 -1.52285,-0.97412 z M 483.72849,0.67895 479.06284,0.5 l -2.39335,0.13692 -1.7034,0.53203 -2.12515,-0.0654 -3.83856,0.88015 -1.28297,0.64618 0.27085,0.8308 -0.64244,-0.50349 -0.77849,-0.12106 -0.57819,-0.56853 -3.52747,0.83998 0.19929,-0.47744 -2.17768,0.0135 -2.70441,0.24027 -2.63294,0.40613 -1.29093,0.70347 -1.47424,0.1696 -5.20873,1.12213 -2.15885,0.65352 0.95154,0.59643 -1.57946,0.61155 -4.85285,0.8187 -5.11788,0.83208 -1.55129,0.68053 0.64608,0.72323 3.18602,0.46488 -2.10022,0.0949 -3.60227,0.56759 -0.39549,1.14869 0.14059,0.58851 2.71179,-0.1362 2.83224,-0.0747 1.94172,0.13489 1.13809,1.09254 -1.13279,0.79106 0.34789,0.74059 -1.33223,2.05486 -0.7563,1.36406 -0.16351,0.74278 -3.48584,1.88236 0.44976,0.50636 1.52931,-0.28758 0.34229,0.70124 0.79247,1.31234 -1.99044,-0.55142 -1.18677,0.0299 -1.65788,1.10579 -1.38601,1.42672 0.90575,0.69134 1.4663,-0.30235 1.01128,-0.31481 2.18968,-0.74637 -1.83201,1.65228 -1.34963,0.89319 -2.75303,0.79944 -3.696,2.54149 0.23239,0.77538 -1.94414,1.63384 0.25177,2.07006 -1.43973,2.03986 -0.40091,1.4945 0.53365,2.88672 -0.54058,2.29747 0.6855,1.30163 3.20057,0.0123 1.20675,1.95317 2.38127,-0.14643 2.16855,-2.33175 1.85909,-1.95467 0.47547,-1.82973 3.63032,-1.85563 1.68329,-1.50882 1.01274,-1.59676 2.13034,-1.39665 2.40269,-0.52456 2.24455,-0.54945 1.04343,-0.092 3.94729,-1.55691 3.23813,-2.31558 1.87455,-0.83603 1.49558,-0.009 4.31903,-0.74523 4.3981,-1.68559 4.27079,-1.83651 -1.70402,-0.11417 -3.30603,-0.0888 2.00632,-1.09418 0.27909,-1.39734 0.94005,1.18164 0.59382,0.79975 2.41432,-0.40044 0.2507,-1.65877 -1.00364,-1.24274 -1.35212,-0.5043 0.88343,-0.5372 1.93101,0.83159 0.40252,-0.89442 -0.78412,-1.34592 1.59441,-0.006 1.74896,-0.30502 0.68619,-0.69142 -0.91192,-0.79075 2.50939,-0.13887 -0.6246,-1.64705 1.21603,-0.17526 0.53002,-1.59176 -1.33436,-0.97608 1.93351,-0.57661 1.56216,-0.0749 -0.54594,-1.17358 1.06755,-1.9513 1.34688,-1.10807 1.68292,-1.2181 -1.83588,-0.0791 2.75409,-0.28403 0.65734,-0.37518 3.70505,-1.14057 -0.11164,-0.67011 -2.0031,-0.2998 -3.93405,0.60297 -2.3651,0.58709 1.56126,-0.91457 -0.12793,-0.55315 -1.80995,0.4717 -1.62021,-0.53075 -2.69014,0.16885 -0.0245,-0.27294 3.91425,-0.14845 2.71083,-0.0667 1.75385,-0.57795 -2.85478,-1.15751 z m 404.46056,223.35501 -0.41376,-1.07435 -4.61286,-1.18713 -1.50183,0.94214 -3.91905,0.7003 1.15581,1.43031 2.54901,0.5337 1.01197,1.7211 4.22783,0.01 0.16878,0.7669 -2.05405,-0.056 -3.221,1.0411 2.02978,1.42 -0.17004,1.256 0.48622,1.06 1.14854,-0.2549 1.06731,-1.4047 3.89305,2.6712 2.33154,0.2417 5.07572,2.4479 0.78788,2.4267 -0.14847,3.1433 -2.05596,0.8026 -2.0035,2.3524 3.65458,-0.089 0.9909,-0.8235 2.70392,0.5814 1.66295,2.3725 2.9049,0.1205 1.40535,0.4834 2.6363,-0.9937 0.43448,-2.1321 2.08406,-0.9544 2.70699,-0.8244 3.29698,1.2641 0.52949,2.5297 0.96685,1.5896 1.40564,1.8442 2.67409,0.435 2.29139,0.3248 0.34136,0.7493 1.97891,-0.2017 0.71396,-0.8355 -2.46636,-1.2162 1.09667,-0.5453 -1.98671,-0.4911 0.65345,-1.2805 -1.67426,0.096 -0.67243,-3.0657 -1.90115,-1.8966 -0.0266,-1.9262 2.735,-0.3112 -0.26099,-1.5331 -4.33121,-1.7866 -0.0471,-1.7029 -1.30602,-1.4533 -1.71815,-1.481 -5.07498,-1.6542 -4.7554,-1.9917 -3.04109,-0.5524 -2.04455,-1.0342 -2.39083,-1.0077 -2.56884,0 -3.4606,1.7446 -2.77266,3.0662 -2.76933,-1.7303 -0.43186,-4.67517 z m -0.52988,14.63427 0.34426,-1.3784 -0.46057,-0.8456 -0.8263,0.9771 -0.76329,1.0389 -0.29885,2.1761 2.00475,-1.9681 z m -10.55614,-9.0208 -3.07824,-0.843 -3.57929,0.12 -0.87722,1.5892 1.98265,0.1019 1.65455,-0.1909 2.37785,0.2418 2.26286,1.1915 -0.74316,-2.2105 z m -4.67735,-12.21655 -0.33259,-1.18063 -1.72172,-0.25358 -0.32436,-1.5785 -0.87717,1.05194 -0.45433,2.30957 0.91191,3.69523 1.12483,1.83096 0.82063,-0.34686 -1.16005,-1.52607 0.43619,-1.75896 1.49435,0.28308 0.0823,-2.52618 z m -4.7573,13.27245 -0.5958,-0.9532 -2.93669,0.1387 0.40013,1.2432 1.91803,0.5308 1.21433,-0.9595 z m -5.24759,-14.10338 -0.54198,-0.64585 -2.75463,2.0991 -3.31968,0.12115 -3.65805,-0.40109 -2.2939,-0.85356 -2.38304,2.14705 -0.59049,1.19161 -1.54781,4.35747 -0.55738,2.295 -1.36304,1.8932 0.67096,1.9801 1.21055,0.021 0.0425,2.7895 -1.30164,2.6608 1.06563,0.8485 1.9103,-0.4196 0.61205,-4.1356 0.18993,-3.3705 2.01535,-0.8787 -0.53726,2.8169 1.83563,1.695 -0.55473,1.1161 0.57715,0.8 3.02123,-1.1191 -1.82145,2.3668 0.92172,1.0165 1.71034,-0.8498 0.38149,-1.8989 -2.08038,-3.3365 0.65134,-0.9928 -2.38234,-3.7046 2.6146,-1.1205 1.3322,-1.69368 1.24344,0.41991 0.27979,-1.33128 -5.4187,0.98367 -1.61754,1.30928 -2.49586,-2.5705 0.42239,-2.18798 2.52066,-0.41617 4.81464,-0.1443 2.78908,0.56525 2.16544,-0.55584 2.22145,-2.86744 z m -7.83298,33.41598 2.65643,-2.1589 2.68136,-0.8301 3.40766,-1.2654 1.3097,-0.7832 -0.96781,-0.3584 -1.00975,0.3611 -2.02649,0.098 -2.67226,0.6498 -0.56287,0.682 -3.21621,1.1483 -1.86047,1.7632 -0.62662,0.9828 0.20757,0.3469 2.67976,-0.6359 z m -2.35064,-5.9137 -2.88944,1.0591 -1.97224,0.22 -1.52489,-0.8665 -2.45446,0.6009 -0.32189,1.0568 3.68325,0.3562 4.55926,-0.8205 0.92041,-1.606 z m -8.34305,6.2015 0.45892,-0.7802 -0.68105,-0.8781 -1.19281,-0.8804 -2.85364,0.5684 3.05155,2.0254 1.21703,-0.055 z m -5.97771,-6.1973 -1.06893,1.0222 -1.57455,0.023 -1.49802,1.6644 1.52734,0.023 2.10206,-0.3881 3.48643,-0.5805 -0.33217,-1.229 -1.83793,0.2362 -0.80423,-0.7709 z m -25.61354,-3.81 -0.16844,-1.0282 -1.1452,-0.2203 -2.09216,-1.1296 -3.45591,-0.1708 -2.53684,2.7621 2.57923,0.2124 0.21077,1.243 4.9323,1.1903 1.28313,-0.3615 2.02976,0.2863 3.02425,1.1041 2.53401,0.5189 2.90699,0.2141 2.61102,-0.079 2.79922,1.1646 3.59103,-1.1014 -3.02586,-1.7179 -4.15767,-0.527 -0.57682,-1.8737 -5.0098,-1.39 -0.89995,1.1915 -5.43306,-0.2882 z m -7.51072,-2.6748 0.84575,-4.4714 1.15171,-3.5953 -1.24272,-1.8296 -2.10102,-0.2556 -0.90042,-1.6132 -0.39784,-2.01632 -1.03564,-0.0741 -1.62849,-1.00384 1.18103,-2.36022 -2.21522,-1.32052 -1.74645,-2.4205 -2.53496,-1.98011 -2.93958,-0.0453 -2.98564,-3.10734 -1.71437,-1.20259 -2.46183,-1.95995 -2.94802,-2.82696 -4.54318,-0.55846 -1.87119,-0.11651 0.47587,1.47147 3.41717,3.18532 2.3434,1.61899 1.72029,2.4733 2.72118,1.8202 1.16263,2.25655 0.89501,2.48524 2.52154,2.40936 2.03036,4.04669 1.27239,2.1666 1.95101,2.3541 1.02071,1.7521 3.35592,2.3619 2.00521,2.4165 3.19539,-0.061 z M 479.99423,32.73268 l -2.30314,-0.15714 -2.64448,1.18508 -1.60461,-0.62985 -2.56107,1.21514 -1.70176,-1.51247 -2.27161,0.32864 -1.5297,1.45495 2.84608,0.52276 -0.16809,0.6623 -2.75296,0.43865 2.82605,1.11168 -1.81096,1.01078 3.97332,0.72753 1.89758,0.33943 1.41845,-0.42028 4.71134,-1.5707 2.29746,-1.73132 -1.29301,-1.53354 0.67111,-1.44164 z m 55.74788,77.45702 -1.68357,0.2523 -2.27252,0.31482 -2.70011,-0.26425 -0.12055,1.48417 3.41125,1.46968 1.21932,0.31191 1.93752,1.08876 0.24866,-1.48649 -0.48846,-0.89561 0.44846,-2.27529 z m -15.21338,-8.61091 -0.99791,0.89614 -1.21519,-0.1446 0.656,1.6526 0.4164,3.48751 0.92276,0.7667 0.81968,-0.96508 1.03746,0.1824 -0.10462,-3.82333 -1.53458,-2.05234 z m -231.60769,67.47386 1.95586,-0.0539 -0.1294,-0.79157 -1.16695,-0.69424 -1.73489,-0.25918 -0.58243,-0.0974 -1.23939,0.20143 -0.61328,0.66072 1.12688,1.05328 1.34899,0.4639 1.03461,-0.4831 z m 536.42942,-55.71476 -4.52247,-2.98298 -2.40187,-2.91053 -3.6326,-2.34364 -7.65621,-4.00923 -1.44878,0.5306 1.99887,1.82603 5.48393,3.2506 3.99023,3.53487 0.38451,1.12297 0.85398,2.89097 -3.5285,-1.38058 4.81847,5.13922 -3.32442,-0.5911 -3.51006,0.86208 0.8877,1.97631 -0.45581,1.4944 1.05328,1.81707 -1.16755,0.89061 3.42453,1.98228 2.56877,0.84071 2.52657,2.6052 2.52212,1.1235 0.15538,-1.21634 -4.40272,-4.91313 -5.13879,-2.12688 2.73788,-0.0554 1.06125,-1.36153 3.29799,-0.63771 2.96469,2.16072 3.07235,1.11079 -0.9875,-3.29967 3.93821,-0.17724 1.13282,-1.36011 -1.67489,-2.03725 -2.50248,-1.44855 -2.51888,-2.30704 z m -2.75826,8.65139 -2.57696,-0.62351 0.60825,1.21498 -1.79736,-0.33439 0.88968,1.72475 1.71598,1.37095 2.61695,0.82331 -1.49669,-1.69107 0.37508,-0.67184 2.18368,0.92736 -0.90953,-1.74932 -1.60908,-0.99122 z m -26.99233,-33.39761 -2.62846,-0.92179 -5.6972,-2.84145 1.87281,2.12523 3.66519,3.7983 -2.04243,0.15323 1.25354,2.12779 11.15406,7.50642 2.33426,-0.0435 -10.0897,-7.78166 5.31333,1.89712 -1.1556,-2.7537 2.233,-0.75609 -3.99001,-3.08757 -0.10946,1.16316 -2.11333,-0.58552 z m -61.69539,114.19855 1.07554,-0.82279 -0.0911,-3.01002 -1.98361,-3.00965 -1.77577,-2.03569 -2.34407,-1.60621 -0.26687,4.69227 1.26152,4.15503 1.72344,2.29837 2.40097,-0.66131 z m -92.73739,57.09961 -0.31588,-1.9092 -0.51453,-1.2299 -0.75852,-1.2409 -1.17042,1.293 -0.38007,1.7382 -1.94548,2.0088 -1.12367,-0.3475 0.13422,1.2354 -1.14129,1.4542 -2.67677,1.7803 -1.94551,1.6472 -1.23034,0.039 -1.14358,0.523 -1.67888,0.5925 -1.40677,0.1066 -0.7756,1.8335 -1.3321,1.6172 -0.40794,2.6636 0.0699,1.8229 0.28491,1.3686 -0.72746,1.8411 -1.88434,2.1914 -0.27137,0.9622 -1.37861,0.5005 -1.0639,2.0841 -0.35497,2.0798 0.24682,2.3045 -0.62188,2.5628 0.23572,1.5253 1.73585,1.0341 1.25299,0.7381 2.69922,-1.2226 2.36594,-0.6847 2.33215,-3.3522 2.33165,-4.0194 3.34771,-5.4767 2.49101,-3.9837 1.9999,-3.3698 0.81034,-2.4485 0.93191,-0.6677 0.55145,-1.2257 -0.0145,-2.1415 0.72288,-0.8555 0.54475,1.694 0.69564,-0.8504 0.60236,-1.3863 -0.41615,-1.352 0.29326,-3.4776 z M 523.54767,9.81424 l -1.60582,-0.39841 -0.79661,-0.657 -1.65987,0.34968 0.89248,0.56211 -0.37647,0.45751 1.91577,0.41439 1.63052,-0.72828 z m -2.6891,-4.35204 -2.33511,-0.40643 -0.4377,0.48766 -1.43329,-0.39202 -2.1745,0.45556 1.33497,0.75851 1.20873,0.0292 0.43991,0.46126 2.69305,0.28127 2.31586,-0.19883 0.47452,-0.8991 -2.08644,-0.57707 z m -5.06728,1.16733 -1.37182,-0.58108 -1.174,0.0576 -0.037,0.56946 -1.18526,0.0233 -0.70485,-0.58348 -2.04082,0.5969 1.11027,1.32981 2.27794,1.46995 1.59468,0.51191 -0.61127,0.63437 2.52272,1.10316 1.15491,-0.071 -0.23823,-1.49273 0.65543,-0.33535 -0.18192,-1.29062 1.82396,-0.67873 -3.59478,-1.26348 z m 392.24856,318.5918 3.91402,-2.5753 -0.52972,-0.7496 1.47369,-1.6059 -1.27133,0.2268 -2.53946,2.0467 -2.6687,2.5578 -1.03482,1.1934 -0.9873,0.5096 -2.61935,1.9368 -3.38008,1.8694 -4.59711,2.2255 -3.55265,1.0086 -2.07661,1.0471 0.14451,1.1565 -2.41299,1.5908 -6.01116,2.3778 0.0649,0.4165 -1.16695,0.7586 4.01381,-1.1525 5.07307,-1.9796 3.9416,-1.5576 1.39294,-0.5378 2.24511,-1.2436 2.31717,-0.8786 1.59498,0.059 3.97594,-1.6868 5.48374,-2.5653 -0.52537,-0.334 -3.40075,1.1026 -1.10136,-0.2313 -0.0662,-0.942 3.7116,-2.1866 0.39623,-0.7884 -3.67315,1.974 3.87173,-3.043 z m -29.60946,13.7674 1.9325,-1.2288 -4.15974,1.3359 -3.51679,1.6139 -11.62568,5.4535 -3.57754,2.0709 -3.11602,1.4365 -3.6752,1.4449 -2.87088,1.0469 -2.01601,0.5168 -6.21852,2.7009 -3.87563,2.0184 -1.06131,0.9956 1.90797,0.1903 0.0149,0.8914 1.75425,0.057 2.11637,-0.7715 3.31857,-1.2107 5.04174,-2.7547 3.01897,-1.7919 3.16632,-1.0348 1.63355,-0.034 1.02906,-1.3248 2.54053,-1.1107 4.04439,-2.0418 2.44485,-1.288 11.94266,-5.9384 1.81166,-1.2212 -3.88341,1.1716 1.87843,-1.1937 z m -16.54642,-142.60881 -0.55108,-1.06314 -0.74332,-1.45572 -2.80895,-1.37094 0.96619,2.23548 -1.99189,0.0769 -0.0397,1.28998 -1.92435,0.79157 -1.42647,-1.30858 -1.21254,1.08914 -1.55526,0.81307 -0.43638,2.4364 0.69599,0.8461 1.69159,-1.61287 1.37976,0.11129 0.55731,-1.19863 2.20593,1.36706 -0.50557,1.37445 1.32194,2.09223 3.75748,1.67762 0.52358,-1.35474 -1.43882,-2.12994 0.94745,-1.46625 1.81428,2.94684 0.29401,-2.64524 -0.63432,-1.6216 -0.88686,-1.92044 z m -6.73795,-10.83429 -1.28237,-1.0783 -2.73993,-0.0637 2.73927,2.20725 0.51674,1.09443 -1.76688,-0.23064 1.18149,1.75015 0.91623,0.15012 0.92423,2.03308 1.10155,-0.64764 -1.41635,-1.78383 -0.46838,-0.97023 2.51352,0.76699 -2.21912,-3.22767 z m -2.00257,5.44583 -0.84281,-2.75757 -0.97816,2.79051 -0.31376,-1.94614 -1.49608,0.16985 0.39254,1.79429 -0.4095,0.80972 -0.30391,0.77379 2.45278,1.99796 0.603,-0.85587 0.23409,-1.82641 0.66181,-0.95013 z m -20.07162,-23.77679 -1.66192,-0.003 0.81239,2.61939 2.46137,4.52236 -1.6741,-0.95126 1.68842,2.76743 1.10779,1.25883 2.26467,1.66096 -0.19057,-1.04178 1.19121,0.66856 -0.48917,0.73532 0.46918,1.1949 1.71785,0.63875 2.33583,-0.42723 2.65149,1.7305 0.19774,-1.06112 1.78936,1.51875 2.87479,1.41889 -0.34497,-1.33217 -1.25944,-0.69447 -0.52741,-1.57358 -4.34033,-1.60263 -1.05886,0.34208 -1.65223,-0.31848 -1.86781,-2.30226 -0.88465,-2.33049 1.07191,-0.95805 -0.74346,-2.40234 -2.26824,-2.07198 -0.3438,-1.19849 -0.74309,-0.73443 -0.34124,0.75273 -2.24271,-0.82533 z m 12.19475,19.11417 1.02985,1.37572 0.40644,1.47469 0.62977,1.34323 1.46399,-0.86806 0.81419,-1.22746 -0.4568,-1.20752 -1.80033,0.004 -2.08711,-0.89486 z m -2.56808,-3.40476 -1.48244,-1.04096 -2.46055,-0.10614 2.48663,2.20247 1.86609,1.44227 -0.40973,-2.49764 z m -4.15659,10.84937 0.80469,-1.98669 1.28614,-1.59173 -1.44123,-2.357 -0.36056,2.87155 -0.9876,1.99976 -1.46131,1.78532 -0.77269,2.02172 2.93256,-2.74293 z m 109.37112,46.64538 0.65803,-0.8094 -1.06067,-0.981 -0.88496,-1.8323 -0.70324,-0.6556 -0.0993,-0.8601 -0.46537,0.2794 0.0472,2.2019 0.7203,1.8359 0.89031,1.1102 0.89766,-0.289 z m -6.09669,-6.7065 -0.0491,-1.5031 -0.93156,-0.9251 -0.95988,-1.214 -1.11201,-0.6939 -0.89681,-0.6359 -1.46098,-0.8093 -0.88654,0.698 1.97223,0.8497 1.45702,1.2333 1.14714,0.9472 0.46436,1.1169 0.18896,1.7064 1.06722,-0.7702 z m -3.98713,2.8273 1.38946,-1.7645 0.39894,-1.6034 -0.48915,-0.4746 -1.73733,0.055 -0.0336,1.7034 -1.84193,1.0308 -1.05229,0.9891 -1.69727,0.2208 0.0896,-1.5346 -0.42963,0.072 -0.76654,1.3859 -1.63129,0.2261 -2.47449,-0.422 -0.46414,0.8944 1.42779,0.8062 2.12112,0.8396 1.52528,0 1.66687,-0.6764 1.76484,-0.7025 0.66641,-0.8107 1.56734,-0.2377 z M 772.71126,70.94964 l -4.51958,-2.6329 -3.68203,-2.54702 -4.36375,-2.47414 -3.07097,-1.68563 -0.24713,0.35706 2.53447,1.18145 0.0979,1.17815 5.00071,3.52589 4.72266,2.5612 4.72256,3.51576 2.20215,2.00355 3.92202,2.87919 3.0381,2.61853 3.11745,2.26975 -1.22681,-2.09396 3.50662,1.62998 -2.26139,-1.88883 -5.38772,-2.75356 -3.81747,-3.84811 4.03448,0.87565 -8.3223,-4.67201 z m -48.03948,-47.60327 -5.02242,-1.40521 1.50013,0.85506 2.52604,0.65582 0.99625,-0.10567 z m -59.59409,-4.81661 -1.76837,-0.51827 -3.98029,-0.74895 -0.82764,0.18069 1.33924,0.77582 0.51962,0.10434 3.0226,0.22021 1.69484,-0.0138 z m -4.30026,-3.6287 -4.43605,-0.49571 -2.97229,-0.28452 1.91334,0.61152 4.6103,0.75135 2.32276,0.17121 -1.43806,-0.75385 z m -9.17612,-0.90393 -7.24472,-0.9897 -2.97006,-0.0813 -0.13436,0.34831 3.78981,1.28999 6.17335,1.23902 0.30676,-0.45221 4.13901,0.0529 -4.05979,-1.40696 z m -55.52319,-4.98005 -1.89622,-0.70629 -5.25915,-0.97248 -0.99219,-0.1104 -0.11142,0.19073 5.04585,2.27679 3.21313,-0.67835 z m -7.58197,-0.99504 -4.47565,-1.52357 -7.02872,-1.58797 -4.20481,-0.80513 -0.4452,0.35923 1.43042,1.1054 2.08294,0.32492 4.17143,1.19752 3.29647,0.64882 3.87557,0.49555 1.29755,-0.21477 z m -16.08148,15.55568 -4.25107,-1.68739 -2.16506,-1.68329 -0.48509,-1.91546 -0.79907,-1.90569 0.77371,-1.81999 1.80663,-0.89703 2.08553,-0.92202 -0.33252,-0.57284 -1.97623,-0.72047 -1.48869,0.23622 -0.54676,0.67844 -2.79069,0.34495 -1.60222,1.19619 -0.98138,0.99675 1.43169,0.86662 -0.51744,1.70033 1.32248,0.2394 -0.31194,1.68662 1.24884,1.09351 -0.75274,0.43343 1.32945,1.09886 2.79391,0.54952 1.29465,0.91593 4.37703,0.26936 0.53698,-0.18195 z m -31.39433,-18.34365 -0.12365,-0.24722 -1.76803,-0.353 -0.28039,0.26534 0.18782,0.3881 -0.87596,-0.43653 -1.15301,0.0195 -1.07458,0.29471 1.83648,0.0494 0.33694,0.51025 1.48172,0.39122 0.52802,-0.2731 -0.31963,-0.2696 0.51793,-0.12411 0.70634,-0.21492 z m -262.62519,17.98656 3.01213,-0.49432 1.09728,-0.28093 0.32764,-0.58554 -1.015,-0.004 -0.46656,0.0856 -5.02242,1.40521 2.06693,-0.12574 z m -36.43363,11.03768 -5.37474,1.78184 3.52477,-0.95779 1.84997,-0.82405 z m 0.87052,-0.2886 2.89541,-0.47282 -2.7012,0.83036 -1.44407,0.78569 2.46884,-0.2917 0.44444,0.36791 -2.37152,0.97966 0.16791,0.66182 -0.98166,0.79457 1.21677,0.0683 1.84299,-0.47487 5.96555,-2.21234 3.00642,-0.23259 4.08706,-0.97602 3.05375,-2.07552 -2.83149,-0.32812 -4.31604,1.60568 0.62939,-0.55166 4.12069,-1.36955 2.98453,-2.16433 1.95895,-1.64013 -20.19672,6.69563 z m 580.60137,120.85316 -2.33784,-4.63499 -1.09434,-1.74402 -1.97105,-0.86103 -0.14972,2.18828 0.87773,2.83921 2.07225,2.14316 3.36356,2.44058 -0.76059,-2.37119 z m -581.86127,-116.0517 -2.29629,0.868 -0.15048,0.20351 1.67918,-0.13415 -0.46653,0.41961 -0.0803,0.50442 2.36708,-0.49089 0.74761,-0.25208 -0.74458,-0.30878 0.30413,-0.60828 -1.54212,0.23671 0.18231,-0.43807 z m -4.21994,15.93749 3.63314,-1.1743 0.69463,-0.76395 -0.81528,-0.16593 -1.60855,0.37455 -3.18434,0.87568 -1.87731,1.15902 -0.28523,0.6408 3.44294,-0.94587 z m -7.53586,-6.82333 1.84872,-0.92114 -0.80938,-0.21689 -2.50712,0.40995 -0.44234,0.65249 0.0966,0.45019 1.81352,-0.3746 z m -154.231038,117.65443 1.275636,-0.45164 1.61897,-0.61734 0.209959,-0.16023 0.228911,-1.01287 -0.08372,-0.38712 -0.249524,-0.25071 -0.581854,-0.48838 -0.155799,-0.0535 -0.41082,0.26959 -0.343599,0.56848 -0.908465,0.47139 -0.431628,0.32167 -0.506736,1.05239 -0.801076,0.80792 0.31293,0.41395 0.826813,-0.48359 z m 2.707779,-4.5109 0.560236,-0.34708 -0.27641,-0.44346 -0.691146,-0.27474 -0.506941,0.24782 -0.152146,0.18056 0.08214,0.23501 -0.121216,0.60875 1.10548,-0.20686 z m -0.332565,-1.54036 -1.203649,-0.12355 -0.550929,0.35212 1.362593,0.0839 0.391985,-0.31251 z m -1.992406,-0.42011 0.187186,-0.95551 -0.03534,-0.1857 -1.124339,0.39845 -0.01272,0.11543 -0.31898,0.65546 0.835739,0.10161 0.155635,0.0372 0.312814,-0.16694 z m -2.59983,-1.90736 0.649451,-0.67336 -0.552183,-0.0614 -0.706446,0.28323 -0.359586,0.21065 0.353324,0.52708 0.61544,-0.2862 z m 893.87306,106.7126 -0.67737,-0.8886 -1.61041,2.2148 -0.22275,0.7982 0.7022,-0.1567 0.4624,0.3625 1.34593,-2.3302 z m -1.45247,4.4298 -0.39065,-1.6607 -0.7267,0.7751 -0.1129,1.2657 1.23025,-0.3801 z M 520.51483,94.17422 l -0.52472,-2.37631 -1.26625,1.05672 -0.35417,1.03066 1.10522,6.61348 1.0445,0.58856 -0.005,-6.91311 z m -10.48498,11.35946 0.0553,-0.16091 -0.0181,-0.057 -0.21388,-0.33282 -0.37438,-0.12351 -0.45362,0.0349 -0.0144,0.0768 0.001,0.17375 0.0565,0.051 0.22431,0.0373 0.69772,0.33409 0.0392,-0.0335 z m -2.54351,0.14962 0.025,-0.13437 0.069,-0.0717 0.0142,-0.0823 -0.072,-0.0517 -0.007,-0.0477 0.0696,-0.10657 -0.0871,-0.0272 -0.55664,0.17982 -0.26088,0.15456 -0.89949,0.69882 2.9e-4,0.11856 0.0566,0.0916 0.14447,0.0287 0.095,0.15201 0.16603,-0.15258 0.12761,-0.0738 0.14944,0.0407 0.10403,0.0922 0.062,0.28907 0.0692,0.0728 0.22563,0.0483 0.39265,0.19393 0.17962,-0.0924 0.19599,-0.15427 0.0982,-0.26141 0.11597,-0.22724 0.13907,-0.20664 0.0971,-0.2041 -0.0357,-0.18349 -0.11959,-0.0464 -0.12034,-0.0272 -0.22138,0.0868 -0.21629,-0.0965 z m -3.73595,2.51891 0.11026,-0.04 0.28482,-0.30727 -0.0259,-0.14044 -0.11101,-0.0973 -0.48228,0.1163 -0.10138,0.14355 -0.004,0.14284 -0.0975,0.0241 -0.0713,0.20099 0.0766,0.0718 0.34314,0.0628 0.0787,-0.17756 z m 0.34693,0.71293 -0.004,-0.085 -0.21661,-0.0302 -0.13913,-0.16275 -0.0419,0.0826 -0.0331,0.0816 0.0104,0.11687 0.22393,0 0.15003,0.0352 0.0507,-0.0383 z" />
</svg>
