<?xml version="1.0" encoding="UTF-8" standalone="no"?>
<svg
   xmlns:dc="http://purl.org/dc/elements/1.1/"
   xmlns:cc="http://creativecommons.org/ns#"
   xmlns:rdf="http://www.w3.org/1999/02/22-rdf-syntax-ns#"
   xmlns:svg="http://www.w3.org/2000/svg"
   xmlns="http://www.w3.org/2000/svg"
   xmlns:sodipodi="http://sodipodi.sourceforge.net/DTD/sodipodi-0.dtd"
   xmlns:inkscape="http://www.inkscape.org/namespaces/inkscape"
   enable_background="new 0 0 1000 2001"
   height="490.58618"
   pretty_print="True"
   style="fill:#483737;stroke:#ffffff;stroke-linejoin:round"
   version="1.1"
   viewBox="0 0 1001 490.58618"
   width="1001"
   id="svg2"
   inkscape:version="0.48.4 r9939"
   sodipodi:docname="hatano_joined.svg"><sodipodi:namedview
   pagecolor="#ffffff"
   bordercolor="#666666"
   borderopacity="1"
   objecttolerance="10"
   gridtolerance="10"
   guidetolerance="10"
   inkscape:pageopacity="0"
   inkscape:pageshadow="2"
   inkscape:window-width="640"
   inkscape:window-height="480"
   id="namedview19"
   showgrid="false"
   inkscape:zoom="0.11794103"
   inkscape:cx="500.5"
   inkscape:cy="244.29309"
   inkscape:window-x="0"
   inkscape:window-y="0"
   inkscape:window-maximized="0"
   inkscape:current-layer="svg2" />

utf-8<defs
   id="defs4">
utf-8utf-8<style
   type="text/css"
   id="style6">path { fill-rule: evenodd; }utf-8utf-8</style>

utf-8
utf-8utf-8
utf-8</defs>

utf-8<metadata
   id="metadata8">
utf-8utf-8<views
   id="views10">
utf-8utf-8utf-8<view
   h="2001.0"
   padding="0"
   w="1000"
   id="view12">
utf-8utf-8utf-8utf-8<proj
   flip="auto"
   id="hatano"
   lon0="65.3146660706" />

utf-8utf-8utf-8utf-8<bbox
   h="2576.91"
   w="5263.45"
   x="-2631.73"
   y="-1299.99"
   id="bbox15" />

utf-8utf-8utf-8</view>

utf-8utf-8</views>

utf-8<rdf:RDF>
  <cc:Work
     rdf:about="">
    <dc:format>image/svg+xml</dc:format>
    <dc:type
       rdf:resource="http://purl.org/dc/dcmitype/StillImage" />
  </cc:Work>
</rdf:RDF>
</metadata>

utf-8<path
   inkscape:connector-curvature="0"
   id="---"
   data-name="---"
   data-id="---"
   d="m 599.35842,87.461 1.08956,0.99023 1.44285,0.37254 1.65843,1.19667 1.03561,2.22713 -0.11559,1.40266 -2.65207,1.72144 -2.21049,-0.29442 -2.8376,0.50967 -3.80538,-1.27715 -4.72985,-2.31527 -4.11699,0.0696 -2.77507,0.92685 -2.71392,2.13631 -4.83626,-0.43704 -0.74144,2.51669 -3.86122,0.13295 -2.443,3.19356 1.78126,1.60589 -0.95592,2.62761 2.06337,1.88518 1.87742,3.40108 2.79793,-0.0618 2.68981,1.83176 1.73352,-0.40874 0.42807,-1.42657 2.78303,0.11532 2.3066,1.84684 3.8606,-0.3874 1.51029,-1.97851 2.25419,0.78985 1.52738,-0.29251 -0.79814,1.29161 1.15777,1.56434 -0.4428,1.42437 0.58813,2.65978 -0.0332,0.12153 -0.98192,2.46322 -0.58056,2.86279 -0.0678,0.0365 -0.26812,0.89307 -0.22155,2.67039 -0.50748,1.66093 0.2022,0.20188 -0.63641,1.17419 10e-6,1e-5 -1.2002,0.89938 -2.07788,-0.20224 -2.20071,-0.84333 -0.49287,1.16657 -0.89801,-1.76996 -1.9173,-0.44967 -2.2925,0.29364 -0.9864,1.02156 -1.9256,1.1316 -1.27243,-0.55649 -2.71148,-1.0545 -2.61561,-0.94196 -3.49646,0.0588 -0.73649,-1.17424 -2.64384,-0.41656 -0.88326,-0.60518 -0.97834,-0.015 -1.01568,-1.58286 -3.5956,-0.72286 -1.7677,0.48175 -1.77534,1.65838 -0.71064,1.72679 0.78865,2.73033 -1.16328,1.64561 -1.23393,0.93024 -2.91942,-1.78146 -3.80097,-1.49573 -2.40124,-0.69215 -1.39062,-3.1589 -3.55484,-1.58134 -2.21339,-0.58925 -1.08575,0.30376 -3.12145,-1.21419 -1.01469,-0.55056 -0.71981,-1.67044 -1.34971,-0.0596 -0.56321,-1.90807 1.64293,-1.7534 0.22148,-3.00343 -0.92755,-0.85862 -0.0461,-1.59411 1.21513,-1.6824 -0.21049,-0.65782 -2.12505,1.26122 0.007,-1.73278 -1.80824,-0.40991 -2.74298,1.38021 -1.74819,0.20805 -1.06608,-0.79669 -2.73813,0.0264 -2.38614,1.35049 -1.30473,-0.50939 -4.24156,0.2782 -4.34782,0.61185 -2.47279,1.04673 -1.62555,1.42291 -2.79103,0.60075 -2.49648,1.89386 -1.12396,-0.0371 -2.67043,-0.76597 -2.46251,0.23977 -1.531,-1.46998 -1.89942,-0.0166 -0.86,2.1282 -1.81888,3.60994 -1.96806,1.44887 -2.66298,1.60585 -1.7551,2.38399 -0.40972,1.86567 -1.09512,3.06192 0.52566,4.45683 -2.30646,3.00962 -1.36419,0.9634 -2.1815,2.47794 -2.49658,0.40133 -1.39445,1.39719 -0.0509,0.051 -1.83657,3.72953 -1.84001,1.33576 -1.05866,2.27099 -0.1385,1.96263 -0.79589,2.15448 -0.93325,0.59619 -1.59752,2.35667 -1.0331,2.62318 0.12817,1.26099 -0.96302,1.94511 -1.08506,1.01876 -0.19287,1.73519 -0.17495,1.58487 1.38557,1.6225 0.64847,1.78878 -0.3348,1.87999 0.27254,1.87724 0.19164,3.74133 -0.44465,3.57558 -0.82347,1.87664 0.18428,2.05402 -0.70961,1.96032 -1.41295,2.68452 -1.23996,0.72714 1.35182,1.36394 1.07671,2.98685 -0.39376,1.70417 0.39476,2.94907 0.16077,0.82396 0.83477,0.81765 -0.0276,0.58661 0.62073,1.08714 1.17145,0.25506 1.46412,1.61346 0.80254,0.63267 0.39578,0.85088 0.29182,1.70778 0.68757,0.76863 0.70977,0.50118 1.06896,1.51487 1.20104,2.29178 0.31178,2.8656 0.47648,1.41742 1.44303,2.07985 2.00903,1.56493 0.7547,0.28826 1.87483,2.50815 2.38293,2.12831 2.54184,2.96249 2.89371,1.85622 0.73748,-0.0343 0.54355,0.10235 2.79143,-1.42846 1.95703,-1.12369 3.3347,-0.67951 1.80377,-0.0449 1.96175,0.76108 1.28021,-0.0396 2.5072,1.10578 2.53648,-1.12941 1.56475,-1.33478 4.40887,-2.27746 2.26292,-0.82963 2.32269,-0.45363 2.48068,0.002 2.11215,-0.048 1.99766,2.5626 0.93378,2.81719 1.51299,2.43591 2.252,0.0851 1.07982,-0.87283 1.06889,0.20478 2.91689,-1.40142 -0.0281,1.07619 0.72299,0.55851 0.57832,1.74552 1.28697,0.66083 1.10899,2.5766 -0.40351,3.07821 -0.96104,4.37965 0.52839,0.5882 -0.56631,2.89238 -0.68489,2.84 -0.61593,1.2473 -0.0913,1.2959 1.7064,4.0289 1.8555,3.217 2.88261,3.933 2.29438,4.1238 0.73675,2.9252 0.38689,1.2059 -0.27212,0.7554 1.39187,2.4578 0.55554,2.5982 0.81955,3.7452 -0.87699,1.5352 -0.15834,0.8045 0.6654,2.3203 0.72076,2.3437 0.82145,1.3797 0.11948,2.1853 -0.33104,2.852 -0.91975,1.7108 -1.63852,2.5121 -0.68689,1.5712 -0.95341,3.4501 -0.1689,1.6395 -1.01227,3.4903 -0.43671,3.343 0.22199,2.3843 0.11841,2.9023 2.18047,3.6812 0.55445,2.36 1.34921,4.4929 1.34436,3.0809 1.02834,1.5327 0.29708,2.0238 -0.0612,4.4205 0.74459,5.6504 0.58535,2.642 0.48001,3.5337 0.96452,2.6373 1.90137,2.7158 1.74006,4.6402 0.004,0.01 1.21376,3.0036 1.59402,3.298 -0.0618,2.6879 -0.88869,0.6357 0.74548,2.331 -0.119,2.0295 0.30279,0.9272 0.14991,-0.478 1.05481,1.5373 0.88808,0.063 1.04635,1.2237 1.20306,-0.082 1.70559,-1.2974 2.28627,-0.5447 2.81048,-1.3611 1.0828,0.1807 1.62965,-0.4212 2.81943,0.6653 1.35512,-0.6571 1.56982,0.5104 0.4115,-0.9592 1.36218,-0.1802 2.86915,-1.3446 2.12455,-1.5821 2.0381,-2.0943 3.29459,-3.6237 1.71331,-2.5321 0.8884,-1.8237 1.27627,-1.8091 0.56457,-0.516 1.97382,-1.8062 0.82114,-1.6194 0.54461,-2.9926 0.86994,-2.6345 0.37084,-1.9117 -0.67572,-0.2448 -0.12485,-1.5348 1.28549,-1.35 3.41036,-1.9812 2.3347,-1.24 1.23252,-1.3075 0.51378,-1.5323 -0.59994,-0.6314 0.56068,-1.7162 0.3198,-3.6357 -0.49656,0.1858 0.0375,-1.1121 -0.40453,-2.1844 -1.1338,-2.829 0.38707,-2.6719 1.18552,-0.8681 2.07755,-2.6727 1.10161,-0.688 3.34905,-4.0538 3.22332,-1.8382 2.61374,-1.4419 1.89402,-2.3561 1.21632,-2.6443 0.96688,-2.7265 -0.39944,-1.8722 0.15955,-5.9907 -0.20857,-3.374 0.25854,-3.8391 -0.39279,-1.7304 0,0 -10e-6,0 -0.99994,-0.8446 -1.04118,-3.8125 -0.91115,-2.4273 0.23296,-1.8513 -0.13132,-1.1786 0.82941,-2.3435 -0.0616,-1.0096 -1.76984,-1.4153 -0.12331,-2.2026 1.38006,-4.7939 1.15233,-1.2858 0.58336,-2.5917 0.92237,-1.5722 0.42601,-2.7464 1.05844,-0.2858 0.70817,-1.6269 1.98348,-1.5572 0.64132,-0.9235 0.6583,-2.0568 3.08957,-4.7255 2.61872,-2.96719 4.18885,-3.87273 2.78443,-3.15646 3.2244,-5.31589 2.30362,-4.35968 2.24523,-5.69944 1.55456,-4.95867 1.16416,-4.3301 0.5849,-4.18321 0.51706,-1.39598 -0.12238,-2.02985 0.1279,-2.24385 -0.12743,-1.06572 -1.05761,0.0106 -1.2429,1.3196 -1.45819,0.38823 -1.25496,0.5731 -0.88847,0.0761 0,-1e-5 -1.58334,0.13558 -0.96013,0.70396 -1.37258,0.25413 -2.3994,1.19966 -3.02128,0.45784 -2.59019,0.98857 -1.3895,-0.0129 -1.33657,-1.61745 -0.62408,-1.59655 -0.94365,-0.71123 -1.25134,-1.05521 1.54607,-0.92238 0.004,-1.59947 -0.7238,-1.19127 -1.43334,-1.15698 -0.94432,-1.3206 -1.63394,-2.21565 -1.67257,-2.18573 -4.00649,-3.61479 -1.63406,-1.86044 -0.98565,-3.49908 -1.89831,-4.39946 -1.60513,-1.40101 -1.11382,-0.93255 -1.3319,-4.51054 -0.69012,-3.87414 0.54688,-0.68114 -1.17431,-3.67568 -0.54098,-0.76563 -3.44454,-3.34713 -0.28989,-2.41566 0.4833,-0.64682 -2.78372,-4.09539 -1.05076,-2.08134 -1.17352,-1.99823 -2.55087,-5.69435 -1.98419,-3.6505 -1.47035,-3.80954 0.24038,-0.32618 2.40084,5.1779 1.35949,1.62061 1.00262,1.17412 0.56238,-0.6356 0.54113,-1.89192 0.29695,-2.7352 0.59559,-1.45045 -0.36224,-0.93562 0.36224,0.93564 0.14352,0.52208 -0.17976,1.44138 0.0109,1.26703 -0.21542,1.99164 1.32757,-0.0175 1.6126,2.50048 1.92242,2.94723 1.3137,2.72959 0.86511,0.82117 0.93074,1.91014 -0.0694,0.83439 1.08522,2.11884 1.5333,0.76611 1.40422,1.44753 1.93082,4.12634 0.0774,2.21388 0.53667,2.60225 2.10684,3.57992 1.27234,0.61818 2.10672,2.59426 1.01667,3.08012 1.70863,3.17832 1.52574,1.36074 0.32343,1.51666 0.91568,1.14625 0.47348,1.62592 0.23709,1.66383 -0.28636,0.73636 0.39942,1.74616 -0.5432,0.18596 0.89791,1.57303 0.71845,2.83433 0.52229,1.13211 0.042,2.09956 0.8496,2.24657 1.94052,0.1957 0.86159,-0.52222 1.38454,0.0849 0.37542,-0.97843 0.71392,-0.28058 0.54858,-1.01494 0.69003,-0.21833 2.32514,-0.19953 1.72769,-0.73945 1.52208,-1.59287 0.84959,0.2269 1.21029,-0.21144 2.29885,-2.70435 4.30211,-1.7853 2.63366,-1.61381 -0.0413,-1.30222 0.39323,-1.69354 1.91236,-1.02368 1.25835,-0.21561 1.73215,-1.28402 1.55783,0.35877 1.23792,-1.05624 -0.16114,-1.53509 0.98613,-0.95597 1.71834,0.0306 0.5494,-0.80062 0.0774,-1.84597 1.56774,-1.41414 1.26677,0.0124 0.20838,-0.46451 -0.62033,-2.52375 0.21978,-1.91026 0.46372,-0.89715 1.26611,0.19729 0.70679,-2.57369 0.99994,-1.19936 0.30113,-1.05116 0.69863,-2.22829 -0.10701,-0.8327 -1.03823,-0.47243 -0.90172,-1.23761 -1.5201,-2.13211 -1.7007,-0.67675 -2.05573,-0.48484 -1.69881,-1.34574 -1.56694,-2.52573 -0.78577,-2.91065 0.25302,-0.66684 0.0274,-1.51659 -0.38025,-0.31831 -0.59646,1.24911 -1.37247,2.26644 -1.68308,2.36525 -1.51764,2.50154 -1.65002,-0.10952 -2.25172,-0.0968 -2.04585,0.58409 -0.22818,-1.01605 -0.45888,0.17988 -0.69311,-1.41305 0.30491,-2.17189 -0.33427,-2.15539 -0.96995,-1.15156 -0.68141,0.39504 -0.47011,1.92907 0.52445,2.68403 -0.51934,-0.90526 -0.51491,-1.20925 -0.90897,-1.03195 -0.50237,-1.23515 0.10591,-1.22259 -0.36606,-1.51191 -2.0365,-1.53687 -0.63412,-1.28159 -1.43032,-0.83219 -1.48039,-3.13278 -1.245,-2.72791 0.1182,-0.8229 -0.78526,-1.58856 1.59861,0.17631 0.77845,-1.40184 1.86314,1.18996 1.33629,-0.58224 2.68857,4.80647 2.28904,3.44272 2.72604,1.03697 3.11447,2.80546 3.45772,1.21439 2.44194,-1.77115 1.95918,-0.65275 1.38365,0.64737 1.8321,4.49573 3.11198,0.47802 3.06798,0.84611 5.2475,1.11305 3.71919,-0.51696 4.37246,-0.0687 4.85311,-0.69312 2.56035,2.80986 1.2461,2.66116 2.13978,0.93829 3.69389,3.15694 1.0352,1.46333 -1.10021,1.3501 4.25059,4.54083 1.995,0.45035 3.63801,-2.24636 1.06601,3.51684 0.6495,4.56663 1.47868,4.84517 2.05867,7.37471 3.11432,5.25124 0.73396,2.39448 1.16701,4.80498 1.8199,3.70005 1.1362,1.8244 1.38889,3.89589 1.68934,5.42036 2.8884,3.62076 1.05651,-1.11506 0.76962,-2.63656 2.47794,-1.09827 -0.94629,-1.27622 1.04513,-2.95067 1.43274,-0.18719 -0.56824,-6.55724 0.81788,-3.65693 -0.48816,-3.1866 -1.15304,-4.98355 0.47062,-2.91476 1.2682,-0.20149 2.3157,-1.36664 1.25345,-0.93932 -0.23642,-1.75136 2.39551,-2.48818 1.71368,-2.39289 2.36879,-4.45004 3.51696,-2.53752 1.06665,-2.22556 -0.67711,-2.82244 3.21776,-0.7775 1.8656,0.0471 0.12374,-1.36589 1.12091,0.33473 0.85272,0.40794 0.26187,-0.68076 1.31085,0.75839 0.4381,-2.07953 -0.56379,-1.53755 2.53641,0.14907 1.58709,2.17223 0.88366,1.80026 0.53557,1.90874 1.16011,1.95736 2.52254,3.07046 1.69452,0.48331 -0.0868,1.36031 2.92564,4.36229 1.1697,3.55447 -0.21423,4.72045 1.85036,0.89503 1.60515,0.34012 2.72962,-2.71983 1.51454,-1.91008 1.70195,3.15579 1.22645,4.82796 1.54126,4.58861 1.39009,1.99042 0.28825,4.19288 1.20022,2.28136 -0.53992,2.95744 0.55782,2.86984 -0.48328,3.71306 -0.10279,2.41855 0.70096,2.15514 0.28125,-2.2804 1.50548,1.83999 1.65557,2.19153 0.61465,1.92379 1.208,1.49136 0.72171,1.64834 -0.14912,2.83257 1.12075,2.12238 0.52781,3.22551 1.72146,2.6064 0.38964,1.986 3.40648,3.09485 2.71295,2.88925 1.99508,-0.26023 0.0341,-1.3187 -1.18136,-3.44855 -1.02141,-1.07437 -0.27828,-2.30702 -0.32255,-1.33989 0.22831,-1.77232 -0.28224,-2.62247 -1.3178,-2.60584 -1.79922,-2.34841 -0.6691,-0.36331 -1.58756,-2.01746 -1.73267,-0.45172 -1.72543,-2.22457 -0.7659,-3.35911 -1.44394,-3.53755 -1.83651,-0.12159 -0.45598,-2.80166 0.56066,-3.41434 0.86337,-5.63341 -0.31928,-4.23056 2.4489,-0.0225 -0.015,3.02084 2.37559,-0.0718 2.7261,1.7678 1.8857,3.98314 1.36085,2.0125 2.40265,0.56424 2.30827,2.19654 -0.5265,2.62233 1.24774,2.4849 3.15278,-3.60703 1.94506,-3.22495 2.9192,-2.48743 2.01984,-2.5411 -0.5433,-6.7711 -2.37629,-7.0933 -2.2034,-3.06734 -2.92564,-2.35471 -3.50026,-4.96667 -2.88882,-3.99142 0.0657,-2.61982 1.51846,-3.55675 2.91965,-3.20986 1.14675,-0.60972 3.94631,1.19921 -0.30873,1.4509 1.33711,2.72796 1.46907,-0.22044 0.0164,-3.96626 2.75183,-0.57458 3.35102,-1.87428 1.06896,-1.85593 1.25234,1.21171 1.23628,-1.65829 2.95298,-0.42797 2.92566,-3.13117 2.74535,-3.42024 1.1746,-4.40123 0.63314,-4.81078 0.61898,-3.94343 1.37782,-0.32626 -0.3419,-2.87106 -0.66698,-2.9373 -1.97546,-1.11571 -1.35406,-1.91228 1.28299,-0.97672 -0.99274,-2.64842 -2.87365,-2.72552 -2.91548,-3.2335 -2.47253,-3.44805 -3.61317,-1.91587 0.2701,-2.42907 1.73459,-1.73307 0.35415,-1.8577 3.18895,-0.95789 -1.26343,-1.791 -1.69771,-0.0909 -2.89969,-1.3257 -1.72294,2.43477 -2.48777,-0.99766 -0.79861,-1.52855 -2.34983,-0.55758 -2.42203,-2.28861 0.54035,-1.5717 2.40711,-0.1615 0.48879,-2.16331 1.67021,-2.31538 1.58313,-1.16976 2.23356,1.73761 -0.84988,2.24157 1.18595,1.30483 -0.57388,1.55857 2.27614,-0.91893 1.07186,-1.56806 3.03192,-0.97211 1.65774,0.89659 1.66546,0.36494 0.44959,0.54803 0.28631,1.81442 0.53885,0.61651 -0.40001,0.39661 0.0468,1.49061 0.95396,0.54165 0.81511,0.31133 0.40551,0.64026 0.60972,-0.28262 -0.008,-0.63903 1.56145,0.64721 3.19056,2.92258 -1.62729,0.57763 2.8392,3.58665 0.72276,2.60179 1.14923,1.89802 2.20481,-0.29897 1.41208,-1.44532 2.03498,-0.66805 0.0731,-1.90616 -1.95007,-3.96937 -1.74111,-2.21756 -4.24693,-4.00616 -2.20727,-1.47924 -1.29456,-0.5468 0.10138,-0.37106 -0.68674,-1.45083 0.61668,-0.89719 1.38384,-0.54824 0.41339,-0.98346 0.12494,-0.58552 0.89313,-0.73239 -1.42865,-2.36951 0.10767,-1.11676 0.44165,-1.10769 1.0609,0.19597 3e-5,3e-5 0,-2e-5 10e-6,0 -10e-6,-1e-5 -0.24779,-1.08538 1.91236,-2.3743 2.50927,1.575 1.54071,-0.0422 2.14004,-1.89995 0.40471,-1.90128 0.93438,-3.68037 0.85203,-3.66367 -0.67539,-2.15252 0.45609,-4.44385 -2.51451,-4.81292 -2.52286,-3.52532 -0.47226,-2.90214 -2.05968,-2.43625 -5.90148,-3.1008 -2.67635,-0.18107 -0.32802,1.39949 -2.75024,-0.62426 -2.55706,-1.74595 -3.902,-0.34913 3.31659,-6.3886 2.65407,-5.07047 6.5887,-0.75194 7.20767,0.4355 1.51953,-1.24027 3.8229,0.38175 1.67086,1.83622 3.17937,-0.26322 4.28824,-0.6649 -3.41603,-1.54681 1.15281,-4.11944 4.73709,-0.81455 5.05751,2.98214 2.60176,-2.66758 -0.91645,-1.95406 2.4025,-0.19775 2.08232,3.36141 -1.78016,1.95431 -1.03567,2.57189 -0.62158,3.22863 -2.89132,0.58261 1.11079,1.22562 -0.34002,1.58164 2.51801,3.74562 7.03321,6.19676 4.74587,4.193 2.62932,2.01281 0.98851,-2.7169 -1.94711,-2.91903 2.82012,-0.69376 -2.22988,-3.21105 2.64575,-1.4166 -2.11446,-1.1842 -1.28743,-2.27473 2.00759,-0.0999 -3.67464,-3.87155 -3.16714,-0.58617 -1.17747,-1.05047 0.0364,-2.47948 -1.08425,-1.65575 3.33184,0.34318 0.94244,-1.06875 2.03481,0.92608 3.54407,-1.94791 5.10958,1.71477 -0.48363,-1.12946 1.43305,-1.50694 1.324,-1.69805 1.60006,-0.27884 3.8771,-1.78148 4.67882,0.51194 -0.2248,-0.62213 -1.47236,-0.96322 -1.78766,-0.62149 -3.68089,-1.87307 -3.46053,-1.18712 2.97273,0.16235 1.46356,-0.96829 -3.1e-4,-0.0118 -11.2,-8.18308 -4.05364,-0.82821 -7.15381,-0.88973 -4.10833,0.11059 -7.2389,-0.51462 0.20111,0.82043 3.28772,1.20594 -1.7368,0.6147 -5.83455,-1.6899 -3.61823,0.20729 -4.35635,-0.36684 -3.57558,0.0488 -2.25766,0.38324 -3.20586,-0.53201 -1.46158,-1.33874 -2.64632,-0.73908 -4.41972,-0.29073 -7.79067,0.33416 -6.95568,-1.33284 -2.95495,-1.0038 -19.44426,-1.06623 -1.83255,0.70754 3.25324,1.56637 -3.58516,-0.2409 -0.94782,0.48332 -4.51081,-0.52991 -2.94198,0.46269 -4.08539,-0.77111 -8.8e-4,1.82294 -3.95309,-0.71553 -3.96724,-1.35037 0.45069,-0.69866 -2.03813,-1.04081 -4.12054,-0.83185 -3.17935,0.009 -4.51997,-0.27145 1.12756,1.20296 -8.61871,-0.23805 -1.22103,-0.73661 -6.65567,-0.25579 -2.95501,0.24465 -0.48952,0.40685 -1.96601,-0.99502 -1.51929,0.28976 -3.31002,-0.3857 -2.66488,-0.21178 1.07997,-0.44347 4.43865,-0.80982 1.77756,-0.42105 -0.21821,-0.72151 -2.07639,-0.50546 -5.04677,-0.63984 -5.74266,-0.0172 -1.49405,0.31634 -1.12413,-0.63696 -4.60734,-0.1931 2.37559,-0.30629 -3.70925,-0.3944 -4.14883,0.50108 -1.39136,0.53556 -0.0479,0.55938 -3.62316,-0.0218 -3.80705,0.7103 -1.86181,-0.3031 -5.05966,0.12475 -0.35674,0.37251 -5.05784,0.18369 -3.30355,0.69682 -2.24225,0.0392 -1.58674,0.95621 2.19257,0.78698 -4.17418,0.20071 -4.84312,-0.0677 -3.25541,0.31129 1.34205,1.6984 2.7222,1.39112 -4.36406,-0.9582 -4.12318,0.0879 -2.95924,0.65971 1.6953,1.24154 -2.36751,-0.31836 -0.21707,-1.63835 -1.62408,-0.9079 -0.978,0.0367 1.19019,1.17019 -2.92223,1.14616 3.49633,1.43378 -0.54515,1.83506 1.10589,1.04874 2.34581,0.15708 -0.2175,1.27814 1.86171,1.12572 -1.25348,0.96044 0.0171,1.01478 -2.01168,0.53326 -0.42326,0.75515 -2.57264,-0.31011 2.49399,-2.91336 0.13934,-1.3203 -2.95698,-1.18424 -1.00593,-2.54756 -1.38546,-1.24519 -1.58795,-0.55539 1.09868,-1.37727 -0.96979,-0.91443 -5.56277,-0.42485 -1.30801,0.31627 -0.46587,1.50201 -2.87623,1.56121 0.36759,0.56702 1.85274,1.41467 -0.20588,0.88202 2.57594,0.18462 0.27618,0.40155 2.64419,1.01517 -0.83571,1.02463 -8.6439,-2.21147 -3.14435,-0.58841 -6.33688,-0.56281 -0.7725,0.61408 2.68117,1.09745 -1.74215,1.2845 -2.89886,-1.16968 -2.70448,0.80214 -3.85607,0.0539 -1.19759,0.67105 -2.65978,-0.20573 1.54229,-1.18162 -1.59714,-0.0947 -6.54588,1.67677 -3.98479,0.95268 -0.0339,1.30067 -3.07774,0.44867 -1.89559,-0.70682 -0.40866,-1.13148 2.54874,-0.24808 -1.58713,-1.11188 -6.01082,-0.62681 1.93888,1.21865 -0.61326,1.20084 2.15478,1.22175 -0.7443,1.43881 -2.20525,-0.7357 -1.97784,-0.12056 -4.27676,2.0786 1.90004,1.59589 -1.63604,0.53874 -5.52674,-1.36849 -1.12754,0.82975 1.54013,0.95272 0.016,1.08914 -1.82758,-0.58502 -2.92605,-0.68161 -0.71358,-2.24039 -0.39282,-0.99451 -3.82395,-1.54054 1.47285,-0.26359 9.81824,1.59296 3.27316,-0.5633 1.99514,-1.0958 -0.56478,-1.36085 -1.89616,-0.95285 -8.47853,-2.20275 -5.76354,-0.45171 -3.66723,-1.12858 -1.95317,0.64606 -7e-5,2e-5 -2.5271,-1.16013 2.51091,-0.4851 -6.67719,-1.29891 -3.56947,0.34958 -3.72181,-0.0779 -2.81885,1.48349 -3.37935,-0.0966 -4.36018,0.80305 -5.32373,2.3796 -3.29399,1.4825 -4.62334,3.98485 -3.62707,3.03209 -4.06626,2.32609 -5.59345,1.94141 -1.93867,1.51716 0.89118,5.64166 0.89301,2.73108 3.14412,1.31569 2.95166,-0.60731 4.21184,-2.9528 1.59934,1.55768 1.9721,3.66773 2.12293,3.01854 0.92536,2.56453 2.63368,-0.12594 1.09786,-2.15274 2.77945,0.26048 1.03218,-2.50654 0.38714,-4.37722 2.24701,-0.59801 1.68809,-2.84141 -2.2739,-1.37075 -1.7637,-1.71568 1.17468,-3.3411 3.89357,-1.98135 3.13514,-1.81012 -0.5429,-1.35094 1.81128,-1.50924 3.52622,-0.60332 3.12199,1.00981 0.39226,0.91626 -1.33353,0.45732 -4.46835,2.41745 -1.72207,1.4341 -0.82519,1.35153 1.37184,2.13425 -0.13566,2.38599 2.24733,0.8075 1.48195,1.35567 3.50751,-0.52619 3.7177,-0.90857 3.95416,-0.19613 10e-6,-1e-5 2.53396,1.17757 -2.24865,1.38482 -4e-5,-4e-5 -2.27268,0.0746 -2.47542,-0.41622 -2.72844,0.36565 -2.69229,0.70471 0.41804,1.46654 1.5583,0.91618 0.77049,-0.32571 -0.0188,1.53197 -0.12069,2.02099 -1.80252,0.0516 -2.07398,-1.96794 -1.99142,0.89589 -0.88373,1.66335 0.18702,2.02052 0.78193,2.28971 -3.04835,0.89271 -0.37828,1.21947 -2.22168,-0.0352 -0.24893,-0.67681 -2.34043,-0.46713 -2.79498,0.93706 -3.47277,1.28952 -1.50663,0.82415 -1.16329,-0.89357 -2.68508,-1.10121 -1.23799,0.76304 -2.30802,0.52524 -0.04,-0.99127 -2.36345,-0.6476 -0.10445,-1.06822 -0.70119,-1.33549 1.51846,-1.95341 0.69548,0.29304 0.48636,-1.01515 -1.25473,-0.40528 -0.31963,-0.74674 0.61121,-0.86347 -0.0148,-1.35212 -1.75931,0.7399 -0.74609,0.72766 -1.97676,0.16425 -0.60532,0.79682 -0.33993,0.72091 0.2075,2.76332 1.00502,1.52186 0.18604,1.57053 0.58066,1.04659 -1.49973,1.38649 -0.45826,-0.62154 -1.92509,0.15302 -0.42725,0.59743 -1.92676,-0.0798 -3.13457,1.18649 -1.94058,4.2332 -1.19393,0.80123 -1e-4,-1e-5 -1.87555,0.57728 -2.05304,0.59256 -0.68988,2.42284 -5.5308,2.33176 -2.23606,-1.28582 0.72383,3.40914 -4.00671,-0.77942 -3.11448,0.65886 0.18932,2.22234 3.65741,1.18062 1.76056,1.56177 2.47668,3.27026 -0.50566,6.31896 -1.29198,1.92969 -3.99739,-0.1068 -2.05752,0.16927 -2.61946,-0.55083 -3.31979,0.0204 -3.00385,-0.58088 -3.59431,2.33014 0.95576,1.40915 -0.21903,2.32672 0.0662,1.10705 0.45491,1.18333 0.003,1.40133 -0.60062,1.99842 -0.23007,1.34955 -1.05519,1.21624 -0.28725,2.20308 0.55975,1.281 1.12841,0.31245 0.16693,2.08901 -0.48266,2.67384 1.33646,-0.37712 1.33769,0.48182 1.05699,-0.88884 2.37963,0.53021 0.68037,1.97507 0.927,1.16419 1.25522,0.28635 1.00914,-1.30265 1.63188,-1.21394 2.44755,0.065 3.26141,-0.0523 1.83353,-2.63159 1.93363,-0.67939 0.55688,-2.20815 1.47274,-1.5086 -0.98891,-1.92386 0.97518,-2.72345 1.54453,-1.8434 0.22038,-1.11398 3.20913,-0.69806 2.34609,-2.19046 -0.15879,-1.89876 0.25726,-1.95663 3.58974,-1.04918 4.90713,0.87531 2.18325,-1.82356 1.01807,-0.23581 1.36814,-1.48862 1.11555,-0.43198 2.04969,1.05641 1.24434,0.37305 0.92382,3.19032 1.782,1.87416 2.39231,2.13079 2.03684,1.48588 1.8669,0.21382 1.16531,1.32919 1.65257,0.60285 0.83387,1.4353 1.07361,0.41539 0.88059,1.68611 1.1169,1.94707 -0.5052,0.72016 -0.4041,1.81411 0.0547,1.03782 1.04741,-0.26179 1.16922,-2.9026 1.04718,-0.1999 0.17783,-1.75462 -1.9146,-1.24154 0.91028,-2.1564 2.2284,0.54741 1.51823,1.55759 0.37949,-1.19521 -0.3094,-0.62179 -2.28931,-1.73066 -1.91624,-0.99983 -2.32795,-1.19113 0.65548,-0.65465 -0.65999,-0.72483 -1.95446,0.0202 -2.94241,-2.6295 -1.41475,-2.6751 -2.41266,-1.61828 -0.90182,-1.62695 0.24733,-0.90643 -0.22883,-1.57248 1.9163,-1.11883 1.97303,0.45868 -0.5244,0.28594 -0.0837,0.051 0.0176,1.09767 0.79402,1.06257 0.65845,-1.36916 1.60898,0.49949 0.1223,1.07209 1.21684,1.34129 -0.47957,0.23896 2.24677,2.36392 2.33666,0.95989 1.52994,1.16666 2.43418,1.20356 0,0 1.12999,0.64749 0.78929,1.06788 0.54417,0.2539 0,1e-5 0.46468,0.51698 -0.25437,1.02086 -0.0234,2.25469 0.34935,1.583 1.49001,1.11975 0.1118,0.73557 0.44943,0.23432 0.251,0.95481 1.46018,1.91925 1.123,1.55397 0.63619,2.26 1.18807,2.73386 2.23242,1.49385 1.70476,-0.043 -1.23939,-3.02504 1.59334,-0.35843 -0.91236,-1.73693 2.44627,0.90156 -0.22067,-1.91975 -1.35393,-0.98189 -1.56163,-1.55549 0.88632,-0.73727 -1.4167,-1.57437 -0.75402,-1.99402 0.40246,-0.72992 1.50056,1.71536 1.40566,-0.003 1.22672,-0.54374 -1.93629,-1.86909 2.95265,-0.86097 1.34426,0.31282 1.54088,0.0941 0.0421,0.68417 0.96448,1.54895 1.89741,-1.79049 0.95117,-1.02407 2.95742,-0.18227 0.35506,-0.80864 -2.31754,-1.06314 -0.45278,-1.26131 -1.03573,-1.86285 0.61268,-2.32024 1.10929,-1.336 0.16745,-3.85666 0.78623,0.2976 1.09294,-0.68322 -0.17333,-0.81674 1.54968,-2.32714 0.64165,-1.72083 2.18757,-0.38326 0.35057,1.1623 3.90774,0.79076 0.82344,0.71859 -2.16728,1.04627 -0.33632,0.60532 2.82224,0.92669 -0.30287,1.4941 1.47046,0.64915 3.03154,-1.84253 2.58811,-0.54938 0.27929,-1.12815 -2.4598,0.1894 -1.32528,-0.76069 -0.47765,-1.95155 1.88703,-1.16274 2.24046,-0.16408 1.42434,-1.00425 1.88402,-0.24763 2.07217,-0.49832 0.1978,0.67616 -3.32619,1.26735 1.59096,1.23459 -1.53675,2.62847 -1.68941,0.50518 2.44843,1.86481 3.02204,1.20381 3.64331,2.71461 z m -13.16435,192.26799 0.13996,-0.6536 -0.79246,-1.0338 -0.32624,-2.1304 -1.67962,-2.1164 -0.92271,-2.7827 0.52587,-1.6393 -0.73262,-2.1881 0.5681,-6.2251 0.0123,0.045 0.9984,3.7122 -0.0156,0.173 -0.15307,1.6811 0.53326,0.5623 -0.11559,1.6575 0.52125,1.5327 -0.66664,1.4894 2.22339,2.6363 0.17043,2.4034 1.33222,3.9617 0,0 0.21532,0.6433 -0.47331,0.2193 -0.58881,-0.8063 -0.95215,-0.3105 0.17841,-0.8314 z m 9.83799,-32.4778 0.6821,1.4789 -0.18484,2.8887 0,0 -1.39615,1.7404 -0.93176,1.7626 1.10646,1.3372 -1.61367,0.9601 -0.34901,-0.455 -1.63199,0.2319 -1.26409,0.8756 -0.77494,-1.5022 0.54378,-2.7294 0.0932,-2.3477 -10e-6,-1e-4 -0.14062,-1.5094 1.29211,-2.2794 1.78494,-0.5574 1.19926,-0.9294 1.46205,0.7679 0.1232,0.2667 z m 42.61333,-139.04838 -0.0794,0.80032 -3.82455,0.90726 -3.76648,-0.59129 -2.11474,-1.71634 -2.56331,-0.7105 -1.29332,-2.50524 -0.39737,-1.67385 0.77375,-0.7875 0.19785,-1.17712 -0.0962,-2.59686 2.01965,-0.268 -0.9666,-0.89653 -1.20526,-0.15529 -1.77569,-2.34713 -1.68605,-1.73207 3e-5,-3e-5 -3.54445,-3.84119 -0.23112,-2.17619 -2.91096,-3.03974 1.69211,-3.2703 2.24337,-0.51852 0.66187,-1.85768 2.10355,-0.65363 2.4583,-1.36546 2.25456,0.75701 2.38471,-0.1502 0.94229,1.92684 0.35718,3.06877 -2.25623,-0.47202 -1.95174,0.5133 0.47507,2.32267 -2.46354,-0.3028 0.32964,1.04005 1.55252,0.81009 1.7986,2.89354 3.1365,1.10479 0.74274,1.13384 -0.29331,1.36149 0.32546,0.79922 1.27198,2.13303 -0.30181,-2.4112 1.81137,-0.83532 1.1616,1.87604 2.29315,1.97981 -1.96112,1.06012 -2.55569,-0.81361 0.0713,2.80133 1.71867,0.1947 -0.14277,2.29275 2.22702,1.13854 0.3937,3.53936 0.98319,2.41074 z m -40.41594,183.87738 -0.79182,3.626 0.27133,4.3958 0.0306,0.5106 0.51912,0.1601 0.48651,2.0459 -0.0865,0.4734 -0.92837,-1.4891 -0.52542,0.9566 -0.41228,-0.8201 0.0686,-1.4381 -0.59918,-1.1217 0.0871,-1.6679 -0.73117,-2.8275 0.88278,-2.1377 -0.0314,-4.6471 -0.91953,-2.4947 0.1019,-0.4286 0,0 0.17937,-0.7556 1.42538,2.0668 0.11311,4.0537 0.87361,1.4756 -0.0138,0.064 z m -264.60607,140.4342 1.06862,0.1396 -2.11318,-1.6061 -1.67592,-2.9214 0.60856,-1.3337 1.91495,-1.1314 0.63705,-3.4031 2.4736,-1.6589 0.14188,-2.6667 -2.54833,-0.6058 -3.05089,-2.2075 0.11724,-2.2836 1.56839,-1.573 2.38028,-0.01 0.18426,-1.6552 -0.39396,-3.1399 1.57682,-1.9599 2.11897,-0.9838 -1.13835,-1.6541 -1.16829,1.0052 -1.947,-0.9595 -1.08843,-3.1908 0.80123,-0.8459 2.73242,1.1766 2.53273,-0.4455 1.29567,-1.1386 -0.82419,-1.6393 0.0159,-2.449 -0.94833,-1.9648 2.91474,0.3327 5.06369,-0.688 3.51228,-1.7787 1.72694,-4.2894 -0.15568,-1.6473 -1.8937,-1.4755 -0.0441,-2.346 -3.84098,-2.934 -0.12087,-1.7984 1.9263,1.9052 1.77072,-0.1103 2.67963,1.4734 1.36572,-0.3673 2.05536,0.6851 2.67509,-1.9069 0.81126,-2.1665 1.45663,-1.9807 0.73404,-3.3144 1.5817,-1.6382 1.97115,-2.7915 2.18522,-6.249 1.64548,-1.9691 0.40898,-1.7517 0.0968,-3.6433 -0.66722,-2.0009 0.10707,-2.7155 1.934,-3.6247 2.92776,-2.9237 2.95849,-1.0757 1.77985,-1.6412 4.18257,-1.4205 2.97324,0.01 0.46662,-2.221 2.09723,-1.6097 0.18859,-3.8489 2.4633,-4.8894 0.17807,-5.0336 0.78747,-1.4905 0.15298,-2.4955 0.46488,-5.8558 -0.53468,-7.1561 0.65885,-2.8203 0.69483,-0.075 1.93674,-3.3302 1.62724,-4.3529 3.78332,-5.3722 1.35867,-2.5257 0.96843,-6.4078 -0.51379,-2.3491 -1.04109,-4.9493 -1.03871,-1.2272 -2.40903,-0.1561 -2.18494,-1.1226 -3.65345,-4.3628 -4.19803,-3.2252 -4.20744,0.1519 -5.50202,-2.0619 -3.26524,1.2016 0.44304,-2.1583 -1.39081,-2.2854 -4.69194,-2.3821 -3.55078,-1.402 -2.13151,2.5597 -0.1131,-3.91 -4.98258,-0.6126 -0.87625,-1.1759 2.13,-3.21132 -0.0576,-2.69247 -1.50122,-0.64382 -1.48529,-6.81784 -0.65381,-2.15488 -0.9629,0.18409 -0.43052,-1.59509 -2.89458,-3.28595 -2.04427,-0.92093 -0.94209,-0.42802 -2.99026,-1.04534 -2.2825,0.28068 -0.32506,0.70113 -3.3435,-0.77901 -1.06277,-1.35373 -1.43497,-1.89615 -1.05498,-0.0921 0.003,-2.00018 -1.62426,-2.529 -1.77369,-1.42685 -1.05299,-0.91399 -1.46602,0.0876 -0.2793,-3.10415 -2.01258,-1.90327 -2.2214,-0.29069 -0.84101,-1.82544 2.44962,-1.14134 -3.35491,0.0537 -3.47993,0.233 -0.0972,0.9732 -1.64886,1.20786 -2.10923,-0.47793 -1.48433,-1.73098 -3.0161,0.39707 -2.50916,-0.034 -0.0169,-1.27908 -1.65267,-2.15248 -1.95412,-0.0626 -0.78102,-2.70894 -1.07988,1.21573 0.24013,1.81779 -3.60304,1.56911 -0.0774,2.92527 0.77181,1.36129 -0.816,2.79822 -1.22436,0.25154 -0.8537,-3.07166 1.39668,-2.24618 0.18744,-2.02038 -0.77215,-1.75164 1.67646,-0.45023 0.15443,-0.9112 0.65121,-1.29763 -0.64433,-1.0132 -0.96732,-0.23588 -1.51214,1.85571 -1.16099,0.86185 -2.3598,1.94793 -2.15985,-0.32208 -0.2885,0.8045 -1.76723,0.0733 -1.74831,1.79231 -0.76475,3.26742 -0.11974,1.28025 -1.1827,0.4121 -2.28676,2.70468 -1.44077,-0.1231 -0.98233,-1.07097 -0.83321,-1.16559 -1.1984,-0.66888 -1.55229,-0.13205 0.13265,-0.38081 -1.52937,-0.22714 -1.0424,1.15701 -1.75888,0.7812 -1.26258,0.97858 -1.39916,0.28008 -0.70216,-0.95217 -0.28754,0.31515 -1.10583,-0.1742 0.11804,-0.82076 -0.89986,-1.38886 -1.18242,-1.65173 -0.95151,-1.55624 -0.52331,-2.09919 -0.37065,-0.63429 -0.0327,-1.04309 0.66562,-0.98644 -0.0927,-1.01819 0.42633,-1.64791 0.46489,-0.37827 0.11106,-1.73252 -0.0429,-0.99117 0.27741,-1.69305 0.4748,-1.54449 0.79327,-1.30628 -0.11549,-1.40205 0.24598,-0.85473 0.28416,-0.36726 -0.5984,-1.05222 -0.93374,-0.58557 -0.69038,-0.85659 -0.75164,-0.71382 -0.42854,-0.0842 -1.19411,-0.52942 -0.59517,0.33116 -0.73665,0.0894 -0.6278,-0.25919 -0.85559,-0.19751 -0.38323,0.42731 -0.94876,0.42231 -1.29446,0.0998 -1.24006,-0.34452 -0.45601,0.18961 -0.21405,-0.31124 -0.8003,0.0548 -0.70052,0.67132 -0.26731,-0.14921 -0.74514,-0.48749 -0.31803,0.569 -0.80702,-0.69072 0.73645,-1.32156 0.51735,-0.12139 0.68952,-1.01132 0.60448,-1.92394 -0.11973,-0.36378 0.49645,-1.36013 -0.15062,-0.58751 0.70439,-1.64147 0.21108,-1.03108 -0.5192,-0.0174 0.0801,-0.55576 0.58672,-0.0631 0.54096,0.97303 1.17237,-2.95372 0.68675,-1.63292 -0.39351,-0.65717 1.05297,-2.29433 1.87234,-2.23518 0.4246,-1.80735 -0.50668,-0.79455 -1.71602,0.31732 -2.39328,-0.1305 -3.05469,0.8694 -2.03871,0.9825 -0.68028,1.09794 -0.80625,3.16189 -1.04487,2.20097 -2.01647,1.54231 -1.84349,0.64893 -2.17788,0.68041 -2.16538,0.38255 -2.59787,1.05914 -0.8636,-1.58512 -2.74324,-1.00412 -0.73469,-1.86102 -0.2339,-2.15268 -1.26825,-2.80233 0.051,-2.91105 -0.45927,-1.82592 -0.0284,-2.03831 0.66841,-1.82088 1.35433,-4.97578 1.11844,-2.661 1.85514,-3.23313 -1.07798,0.11026 1.07801,-0.11026 -0.19126,-1.24853 0.32444,-1.75903 0.69982,-2.52106 1.06204,-1.63928 1.93717,-1.73505 3.08449,-1.56281 3.1761,-2.67843 2.47288,-0.84171 1.72141,-0.2524 1.69532,0.83351 2.43958,-0.44921 1.46119,1.90593 1.89902,0.11236 1.1811,-0.68498 0.84399,0.53262 0.63272,-0.47466 -0.37325,-0.71261 0.43864,-1.46028 -0.21501,-0.9552 1.24857,-0.55985 2.0857,-0.24719 2.23986,0.39663 3.11203,-0.45078 1.42263,0.88771 0.84795,1.67745 0.42856,0.17997 3.09518,-1.63255 0.89251,0.55145 1.31334,3.01525 0.26184,1.99025 -1.11987,2.40999 0.0698,1.42442 0.61282,2.79412 0.73606,3.15395 0.84378,0.84577 0.0883,1.61596 1.23631,0.44722 0.90205,-0.46528 1.1377,-2.24804 0.41839,-1.42862 0.61625,-2.46967 -0.32071,-4.22888 0.34804,-1.56867 -0.57598,-2.5615 -0.13036,-3.08198 0.16189,-2.49036 1.06357,-2.5369 1.79562,-2.10801 1.92908,-1.687 3.48945,-2.29141 0.69359,-1.18075 1.67241,-1.28958 1.36196,-0.2248 2.27185,-2.05105 2.96847,-1.03364 2.35831,-2.57729 0.61557,-3.45144 0.0774,-1.18738 -0.66694,-0.23687 0.8553,-3.2465 -1.4229,-1.093 1.52193,0.53156 0.11443,-2.1471 0.94246,-1.4568 -0.5679,2.80392 0.9107,1.29649 -1.47928,2.31865 0.19325,0.13572 2.24496,-2.72088 1.21234,-1.31746 0.34788,-1.27702 -0.44694,-0.59994 0.0328,-1.80964 0.57012,0.83923 0.50273,0.17493 -0.076,0.8644 2.63608,-2.58447 1.29056,-2.39598 -0.69283,-0.15249 1.05647,-0.92006 -0.20334,0.40707 1.60412,-0.007 3.82745,-0.99402 -0.54856,-0.62638 -3.88165,0.62273 2.39409,-0.95671 1.50847,-0.1628 1.14153,-0.16486 2.031,-0.57458 1.18247,0.064 1.85275,-0.53337 0.48875,-0.93746 -0.52263,-0.72729 -0.1091,1.19569 -1.0114,-0.082 -0.27912,-1.73435 0.57553,-1.72612 0.65491,-0.72935 1.93027,-1.91719 2.91474,-0.95103 2.88655,-1.10545 3.11813,-1.54452 -0.0894,-1.04036 2.8439,-0.38549 3.94838,-0.10351 -5.07765,2.62698 -0.74483,2.71388 1.80526,0.23662 3.45546,-2.31281 2.8279,-1.29126 5.99103,-1.88869 3.62715,-2.06448 -1.23545,-1.13472 0.51311,-2.25728 -3.49812,3.50702 -4.16824,0.45498 -2.67231,-1.56668 -0.034,-2.34896 0.33575,-3.31816 2.95348,-2.04456 -1.60867,-1.48115 -3.67388,0.30034 -5.9157,2.52579 -5.30377,4.03916 -2.23776,0.5099 3.8,-2.85075 4.9125,-4.02883 3.52053,-1.33342 2.75998,-2.14126 2.52636,-0.2055 3.54562,0.0214 4.85396,0.62561 4.16564,-0.48248 3.7632,-2.42496 4.21181,-1.04015 2.00977,-1.02174 2.04394,-1.08839 0.86161,-3.21546 -0.5812,-1.06618 -1.67566,-0.37395 -0.10974,-2.36265 -1.16597,-0.88178 -3.39628,-0.71117 -1.47864,-1.5599 -2.44607,-1.52368 1.55745,-1.6777 -1.23946,-3.14796 -1.55037,-3.26264 -0.76168,-2.23058 -1.96276,1.1556 -3.33529,2.79126 -3.85416,1.42981 -0.94603,-1.51618 -1.85216,-0.39918 0.73246,-3.17824 1.04046,-2.06268 -3.81312,-0.184 -0.20135,-0.93747 -1.98545,-1.38345 -1.60913,-0.79903 -2.11794,0.61906 -2.10922,-0.22976 -3.3702,-0.63962 -1.8042,0.5424 -1.29118,3.75237 -0.2121,2.23995 -3.98393,2.65064 1.72947,1.9402 0.42957,2.22643 -0.67252,1.77827 -2.15368,1.87808 -3.49469,1.91366 -4.28589,1.29307 0.92691,1.4644 -0.84926,4.47265 -2.59546,2.97247 -2.23162,0.95079 -2.23639,-2.76029 -0.17861,-3.20193 0.6521,-2.82683 1.56231,-2.39693 -2.35398,-0.26502 -3.69294,-0.15816 -1.8154,-1.14945 -2.45251,-0.7465 -0.93087,-1.27227 -1.69827,-1.01529 -3.53851,-1.14743 -3.45674,0.52246 0.12487,-1.99476 0.45281,-2.42015 -3.00807,-0.42587 1.96144,-2.92437 2.09414,-1.94191 4.1183,-2.71071 3.88788,-1.90397 2.69893,-0.29042 1.10874,-1.49292 2.31448,-0.95641 3.15837,-0.1489 3.43766,-1.50498 1.23361,-0.95693 3.20261,-1.80953 1.3091,-1.05473 1.76803,0.63033 3.12956,-0.32373 5.0082,-1.44725 0.88011,-0.98674 -0.79337,-1.06691 2.20334,-1.04217 0.48307,-0.95177 -2.15335,-0.93352 -2.85029,-0.27328 -2.81624,-0.14186 -1.51279,2.07082 -2.64149,1.68999 -3.14689,1.45581 -1.09826,-1.36011 1.61633,-1.45806 -1.60733,-1.23315 -3.81975,1.50552 1.40125,-1.95555 -3.5434,-0.37777 2.48072,-0.90471 -1.27142,-2.0069 -1.46938,-0.75915 -2.45364,-0.27202 -3.36975,1.24691 -1.70023,1.97663 1.82089,0.74577 1.33177,1.16157 -2.37583,1.95277 -1.63057,-0.0531 -2.50434,1.59864 1.41447,-1.89179 -2.7081,-0.66292 -2.1004,0.34035 -0.69966,1.23005 -2.99753,-0.048 -3.47727,0.31796 -2.96289,-0.89826 -2.44525,0.15784 -1.21346,-1.06613 -1.28581,-0.46192 -1.81338,0.19295 -2.59043,0.0891 -1.90088,0.66703 1.41411,0.83846 -3.11259,1.01644 -1.20594,-1.20267 -2.06745,0.34823 -5.82057,0.23608 -3.38174,-0.42844 3.78923,-0.97895 -1.90838,-0.98184 -2.13367,0.12368 -2.54005,-0.32539 -4.16634,-0.69542 -2.38819,-0.78443 -2.37835,-0.10686 -1.30443,0.54248 -2.82564,0.30771 1.11509,-1.40651 -3.97867,1.25452 -1.79399,-1.65214 -1.2124,-0.19246 -1.33704,0.85656 -1.97083,0.431 -0.61878,-0.76185 -3.82497,0.45654 -3.92967,0.81592 -2.80773,-0.22827 -3.1153,0.58611 -2.65928,0.79391 -1.96106,-0.17618 -2.2451,-0.91121 -3.32918,-0.45009 -2e-5,0 -1.93513,-0.2594 -2.4749,-0.55221 -3.0654,0.29774 -1.29854,-0.23835 -3.7306,-0.17158 -3.61784,-0.5717 -2.29823,0.1801 -2.74734,-0.30572 0.62619,-0.41013 -3.30636,-0.10632 -1.33252,0.34405 -0.47216,-0.79775 -2.60579,-0.36578 -4.31995,0.93516 -1.71834,-0.11861 -4.88523,0.79321 -2.25635,0.20676 -3.21963,0.86981 -1.66489,0.90868 -3.71749,0.86596 -3.74081,0.0624 -2.47973,1.01622 2.04704,0.62241 0.91178,0.85088 0.20996,1.01382 1.60272,0.78392 0.12182,1.29628 -4.54704,0.0823 1.57854,-1.04854 -1.72578,0 -5.96846,1.02503 -4.07937,0.89084 1.12146,1.25679 -0.18808,0.88288 2.47821,0.53119 3.31419,-0.24911 1.09912,0.49038 1.23178,-0.49101 2.82953,-0.48115 1.33621,-0.025 -2.58289,0.85418 0.72426,0.40176 -0.79827,1.02866 -2.45276,0.70642 -1.33193,-0.19667 -3.02185,1.10777 -1.04907,-0.36894 -1.93946,0.1683 -2.16043,1.19159 -3.29034,1.31375 -2.42331,1.37309 0.50989,1.03021 -1.5504,1.38571 0.84431,0.59276 0.57344,1.1688 3.39398,-0.47872 0.45714,0.89107 -1.39441,0.92499 -1.42369,1.51732 1.36591,0.002 3.30323,-1.02249 -0.50516,1.27489 1.56147,-0.91895 0.10095,1.30093 2.17454,-0.93401 0.26226,0.44089 3.36821,-0.7759 -2.69033,1.51645 -2.39013,1.97468 -2.59673,0.92976 -1.0356,0.53019 -4.73217,1.59726 -2.21874,1.10449 -3.12601,0.30608 -3.91284,1.48955 -3.07823,0.84698 -3.78789,1.29104 -0.10074,0.46695 4.72186,-0.79266 2.81285,-0.92337 3.23918,-0.93461 2.87804,-0.76104 1.35955,0.20948 3.80011,-1.1608 1.96049,-1.26428 4.89068,-1.3777 1.71889,-1.17042 3.04545,-0.80031 3.49489,-1.09026 3.95952,-1.84919 -0.37605,-1.23399 5.00975,-1.78428 3.19193,-1.6434 4.19391,-1.35632 -0.0281,0.60831 -3.10264,0.75142 -3.47337,2.43077 -1.17943,1.48615 2.99615,-0.53797 2.79705,-0.84958 3.07649,-0.52179 1.3791,-0.16005 1.26332,-1.71804 2.95528,-0.51799 1.56925,1.04526 3.22003,1.1388 3.25776,-0.21226 3.01686,0.89126 1.67307,0.47673 2.18366,2.64239 1.95626,0.74314 3.50002,0.0635 2.00234,0.16763 -0.90727,2.47351 1.11389,2.15594 -1.28307,2.36184 1.3136,0.87287 0.43885,1.03606 0,0 -1.0702,1.43008 1.22753,2.03661 -1.31377,2.29039 2.08196,1.22154 -1.62062,1.7752 -0.53301,2.58939 3.42834,1.22271 0.81811,1.28345 2.65536,2.94631 0.31555,0.008 -0.78502,2.49023 -1.19626,2.51674 -1.10382,0.8158 0.53863,-2.90471 -2.80577,-1.03681 -0.67628,0.59544 -0.2117,1.42162 -0.90162,2.64124 -2.13026,4.19708 -2.00985,2.87683 -1.99074,2.90587 -2.70273,3.04738 -0.59724,2.49994 -1.44685,2.82022 -2.01249,2.74755 0.39485,1.82226 -1.04613,2.73676 0.56343,2.83301 0.58107,1.1223 -0.46979,0.78883 -0.0913,4.76562 0.94888,3.47618 -0.51533,1.90819 0.4203,0.56328 2.26663,0.34447 0.5323,0.94586 1.38673,0.17581 -0.13141,1.00553 1.04404,0.42007 0.87558,2.0232 -0.27253,1.8042 -0.16188,3.19174 0.1585,2.85122 0.13045,2.34943 0.18525,2.24607 1.21335,0.99857 1.17813,2.57999 -0.63815,1.6368 -1.43209,1.35831 -1.03419,-0.20643 -0.28393,0.27471 0.90109,2.11709 1.37685,0.88437 0.38253,0.95347 0.49917,-0.47113 1.34869,1.63448 0.94253,1.13748 -0.17357,1.99277 -0.85685,2.69908 1.12189,0.93905 1.46487,1.79046 1.21557,2.11588 0.13644,2.26234 0.47734,0.0179 1.49088,-1.36773 0.2367,-0.66607 -0.55238,-1.65843 -0.63756,-1.68425 -1.27213,-0.12237 0.38637,-1.95038 -0.26494,-1.7289 -0.33796,-1.61247 0.11664,-3.41323 -1.11706,-1.86054 -0.16744,-1.29163 -0.51916,-0.92651 0.21959,-2.34325 -0.4904,0.0504 0.0582,-1.24466 -0.31908,-0.25838 -0.15372,-0.8514 -1.1222,-2.48436 -0.3898,-1.48209 0.70609,-2.69031 0.19105,-1.71269 0.95912,-1.44518 1.13721,0.98009 0.93587,-0.15509 1.38936,1.41374 -0.53217,1.37232 -0.0269,2.74567 0.50242,2.71666 -0.25984,1.12877 0.67162,1.76143 0.93832,1.91254 1.3441,0.29593 -0.11786,2.54308 1.04915,1.77655 1.11719,0.85428 -1.06625,2.26851 0.23995,0.89848 1.89474,1.50416 0.68921,2.30217 1.96562,2.89399 1.47137,3.69706 0.46154,1.88297 -0.1023,1.48747 0.53566,1.68135 -0.30442,1.29686 -0.84432,0.97387 0.0475,1.07179 -0.99321,0.36714 0.26162,1.83483 0.88371,2.37912 2.52803,2.14563 0.81538,1.72789 2.59511,1.20024 1.50148,0.22635 0.51324,1.01377 1.99035,1.81641 2.82947,1.76935 1.98568,0.53376 2.30657,1.74893 1.96267,0.726 1.80357,1.00636 1.45359,-0.37648 2.44261,-1.43601 1.58883,-0.27715 2.11097,0.99511 1.2468,1.24002 2.56777,4.11884 1.28823,1.58158 1.17489,0.76101 1.72635,0.0693 1.34437,0.66946 0.68775,0.82444 1.51821,0.23848 1.06124,0.76381 0.95968,0.36813 1.60668,0.0574 0.41373,-0.90487 0.80691,0.33407 0.34421,1.2026 -0.24151,0.27177 -0.39473,-0.57886 -0.37645,0.59466 1.20555,1.73793 1.04758,1.2104 0.48091,1.29905 1.15092,1.55593 0.85044,1.21568 -0.71031,0.74587 0.73962,0.54441 -0.47972,1.21716 -0.11881,1.17708 0.31623,0.77954 0.86763,0.38227 0.55236,1.07397 0.63407,-0.92481 -0.0861,-1.1247 0.67634,0.69113 0.0915,1.13195 0.92467,0.4962 1.04308,0.76107 0.70654,0.92736 0.0386,0.8561 -0.37153,0.6729 0.51194,0.81382 1.46328,0.86058 0.28304,0.58657 0.14299,-0.84192 1.2043,-0.006 0.69767,0.45371 1.13378,0.2577 0.46684,1.56134 0.91177,0.22788 0.40628,-0.65991 0.34672,2.31933 1.31806,-0.19819 0.43927,-0.57545 0.79585,-0.49609 -1.20834,-2.10654 0.32758,-0.80723 0.62098,-0.13538 1.19795,-0.97404 0.66128,-1.34826 1.24392,-0.24688 1.32232,1.07721 0.43848,1.28104 0.69357,0.26575 -0.75879,1.03625 0.47523,2.09501 0.87254,1.12026 1.02711,2.06947 0.28631,3.28848 -0.64753,1.02139 0.49545,3.56093 -0.60659,2.26047 1.00972,0.92712 -1.13371,2.04438 -1.24266,2.44963 -1.40288,0.26142 -0.68746,1.41227 0.0943,1.9536 -1.05532,0.29264 0.36789,1.21085 -1.95189,1.55241 -1.54982,0.83677 0.1894,1.59194 -1.06758,2.5125 -0.50921,2.4302 -0.98344,0.5882 0.5112,3.5398 -0.5566,1.0992 1.71546,1.7086 1.04784,-1.8105 0.63647,1.7027 -1.44166,2.9129 -2.18452,2.4604 -0.79689,2.7272 1.49219,3.7111 -0.84235,1.7352 2.0697,1.5732 2.29807,2.5346 1.0248,2.8574 1.24186,1.7665 3.1146,7.7018 3.26995,7.1089 2.77314,5.0377 -0.36337,1.1038 1.43592,3.1597 2.36541,2.3526 5.38618,4.1635 5.88174,3.8094 0.40083,1.5528 3.0033,2.1691 1.15991,5.301 0.93073,6.1224 0.22783,8.2899 0.22531,7.619 0.61369,7.0181 -0.84112,4.3882 1.09432,4.4007 -0.26681,2.9211 1.61056,5.2615 -0.0917,5.1747 -0.66764,5.4866 -0.39077,5.4628 -1.07486,0.1091 1.09477,3.7624 1.52139,3.2259 -0.63646,2.241 0.65555,5.9936 0.41455,4.5432 1.7239,0.4433 -0.25896,-3.9548 1.936,0.847 0.42507,6.511 -3.11697,-1.0946 0.60157,5.1237 -1.59425,2.681 4.05857,0.8777 -1.93836,2.3085 -0.17489,2.838 1.89533,4.9296 1.85147,1.8874 -0.14865,1.646 1.35328,1.7608 3.55159,1.5744 0,0 3.40631,1.8939 3.01692,0.8758 1.00186,-0.062 -0.43323,-2.5319 1.87542,-0.9908 0.95832,-0.6783 2.17174,0.021 z m -48.52495,-359.44383 1.53436,-1.207 1.58212,-0.47759 0.87522,-0.7395 0.72208,-0.39448 1.9415,0.61022 1.6154,0.0729 0.38813,0.40602 0.0286,1.72841 2.49676,0.46026 -0.80526,0.87339 0.56393,0.90468 -0.91483,1.17584 0.85123,0.38966 -0.94689,1.04605 -0.004,0.004 -0.68776,-0.12605 -0.13953,-0.87173 -2.49854,0.27165 -2.45262,0.69364 -1.19098,-1.18595 -1.19794,-0.39573 1.50361,-1.62965 -2.59021,1.02203 -2.39296,1.00399 -2.22793,0.79105 -1.00081,-1.06779 -2.72438,0.64705 0.21788,-0.45598 2.24563,-1.30529 2.28419,-1.2322 2.92361,-1.01181 4e-5,-4e-5 z m 10.53977,4.94899 0.64851,-0.45837 0.18773,0.69098 1.66307,0.38804 1.83632,0.0329 1.84301,0.31961 1.93621,0.6076 0.40754,0.98668 0.6503,2.42298 -1.19083,1.05309 -1.82959,-0.43905 -0.47487,-1.96323 -0.46768,1.99978 -1.85559,1.7753 -0.45007,1.52517 -0.5433,0.90086 -2.00586,1.07082 -3e-5,2e-5 0.37625,-1.32654 0.26932,-1.86679 -0.7881,-0.32068 -2.07837,1.41364 -0.48065,-0.0268 0.18847,-0.8093 1.85731,-1.2819 0.79739,-1.45361 0.37601,-1.4416 -1.31003,-1.23168 -1.81471,-0.62957 -0.83698,1.19736 -0.67149,0.32149 -1.07413,1.56508 0.20832,-1.06438 -1.29203,0.7593 -1.05034,1.06839 -1.27979,1.56794 -0.67144,1.36268 0.0285,1.99797 -0.90356,2.14488 -1.62435,1.59348 -0.67928,0.45345 -0.81303,0.36134 -0.85645,0.0179 -0.14432,-0.22273 -0.004,-1.72163 0.31379,-0.84794 0.38412,-0.80337 0.32315,-1.58756 1.20877,-1.82493 1.47298,-2.23177 2.2913,-2.44463 -0.37315,0.0112 -2.65755,2.04542 -0.17539,-0.37656 1.44136,-1.14446 2.32066,-2.04069 1.77822,-0.28296 2.16513,-0.62781 1.77713,0.33104 0.0759,0.0141 2.26273,-0.2831 -0.69207,-1.24688 1e-5,-1e-5 z m -2.45202,13.84473 1.29316,0.20618 2.23074,-1.04117 1.42101,-0.9114 0.79338,-0.1483 1.2478,0.32763 0.84467,-0.50619 1.36039,-0.4106 2.30648,-0.39901 -2e-5,8e-5 -0.066,0.31882 -2.8367,1.94416 -2.21778,0.94613 -1.44288,0.44188 -1.80524,0.90829 -1.96852,0.4377 -1.1874,-0.1685 -1.29476,-0.68012 1.32163,-1.26558 5e-5,0 z m 11.62854,-3.85614 -0.13137,0.0372 -0.81718,0.16729 -0.87606,-0.3066 1.14501,-1.10324 0.89328,-0.38049 1.91342,-0.46838 2.24348,-0.43683 0.87572,0.60721 0.94055,-0.70379 0.94097,-0.44382 0.43923,0.23486 0.0102,0.05 0.0922,0.44855 -0.29652,1.25115 -2.23098,1.06504 -1.93345,-0.26769 -1.90215,-0.12 -1.30645,0.36958 z m 38.64509,352.31205 0.67447,-1.3152 -3.5719,-0.6624 -3.63454,-1.6029 -1.84352,-2.0289 -1.32597,-1.2682 -1.83051,-0.3246 -1.88058,1.1323 -0.18602,1.859 -0.84174,1.2318 -3.52214,-0.9634 -4.005,-1.8102 -2.19341,-0.5735 4.36299,3.0343 2.94761,1.4341 3.52103,1.4746 2.63933,0.379 1.99931,0.7846 1.48646,0.2104 1.20269,0.083 1.79203,-0.8087 0.45675,-1.0607 1.51628,0.9268 2.23638,-0.1308 z m 22.87215,21.1754 2.13494,-0.6184 0.63112,-0.7075 -1.52149,-0.5459 -1.72063,0.2524 -1.08876,0.6689 -1.48528,0.5388 -1.80206,0.2473 -1.47544,0.4101 -1.2099,0.651 -2.14953,0.1213 -1.24562,0.5233 -1.05003,0.5587 -0.57713,0.8678 -1.60901,0.5845 -1.32412,0.6172 -1.18907,0.7241 -1.02249,0.565 -0.77243,0.8547 0.55129,0.7318 0.75148,0.7926 -0.0712,0.709 -0.58465,0.7328 -0.78706,0.6525 0.0566,0.6759 0.4026,0.6648 0.80707,0.5887 0.95887,0.6432 1.03968,0.6318 0.94695,0.6203 0.52129,0.6388 -0.24765,0.6553 -1.09779,0.4676 -2.01798,0.3171 -2.70959,0.1999 -3.02015,0.1703 -2.57538,0.1972 -2.06727,0.3623 -2.13284,0.3027 -2.85035,0.1362 -1.72341,-0.4666 -2.37981,-0.3066 -2.93753,0.1398 -2.47015,-0.5637 -0.6058,0.5079 -1.4512,0.5255 -2.77118,-0.3029 -2.74743,-0.1668 -2.90586,-0.056 -2.10446,-0.5649 -2.67555,0.1423 -2.67688,-0.2568 -2.13072,-0.6671 -1.27231,1.122 -2.85777,0.1125 -2.42756,-0.339 -2.60985,0.1701 -2.84244,0.2809 -2.71713,0.1949 -3.01171,-0.083 -1.25205,-0.5057 -2.49815,-0.4288 -2.7254,-0.2315 -2.78792,0.087 -2.93982,-0.087 -1.80973,-0.204 1.47159,1.0902 0.81149,0.5291 1.57528,0.5181 2.89484,0.1076 1.37256,0.4786 1.68972,0.4429 -0.79752,0.5599 -3.13074,-0.2272 -3.06014,-0.1785 -3.32061,-0.051 -2.62111,0.2298 -3.02014,0.076 -2.76142,-0.3572 -3.05342,-0.1549 -2.95352,-0.4979 -1.98942,0.394 -1.72706,-0.4471 -1.11231,-0.4829 -1.72465,-0.4375 -2.00671,0.4916 -2.43712,0.2422 -2.9572,-0.2963 -2.49627,0.2158 -1.92688,0.3995 -2.95375,0.053 -3.27021,-0.026 -3.18507,-0.026 -2.99498,0.053 -3.35501,-0.1321 -3.05838,-0.1328 -2.71637,0.1857 -2.97234,0.026 -3.10618,-0.2388 -3.09666,0.186 -1.58658,-0.1061 -1.77903,-0.08 -2.40406,0.2916 -2.1034,0.2879 -2.67721,0.3099 -2.83248,0.1278 -3.09229,0.025 -2.22142,0.3283 -3.09757,0.249 -1.66759,-0.4251 -2.60595,0.2262 -0.22646,0.4448 1.19217,0.4585 0.50165,0.4473 -3.15963,0.1158 -2.09221,0.3879 -2.41208,0.3125 -2.64509,0.2413 -3.32139,0.1083 -2.25412,-0.4828 -3.27713,0.1553 -3.44623,0.11 -2.30694,-0.3547 -1.17382,-0.1125 1.95647,1.256 2.06425,0.368 3.10667,0.3182 1.76201,0.3672 4.26281,0.095 4.00194,0.1311 4.47203,0.056 3.4203,0.2742 3.01361,0.2492 1.10369,0.3619 -1.44661,0.2822 -3.22247,0.3041 -3.58019,0.2316 -3.36094,-0.2631 -4.81441,0.125 -5.23947,-0.047 3.55931,0.2451 1.90351,0.2656 3.75508,0.1991 0.70815,0.2862 -0.54226,0.2462 -0.52868,0.2578 -0.10292,0.2652 5.82639,0.1205 1.99946,0.2085 6.98024,0.1185 8.37644,0.019 -0.24532,0.2206 -5.78281,0.1196 -5.48667,0.1206 -5.23765,-0.129 -9.10198,-0.085 -5.98177,0.1181 -8.29139,-0.1008 -4.9344,-0.1422 -6.16338,-0.1219 -3.39168,-0.1682 -1.06891,-0.063 -2.16443,-0.1262 -6.13294,0.096 -0.4481,0.03 -2.44021,0.2131 -3.32412,-0.2131 -0.25398,0 -0.29901,-0.01 -2.04779,0.165 -0.22535,0.018 -4.01965,-0.1613 -1.52451,0.2925 -0.12669,0 1.53625,1.2652 761.00716,0 1.53625,-1.2652 -3.51585,-0.1175 -4.67577,-0.1608 -6.01893,0.1313 -1.40937,-0.153 -0.36315,-0.041 -5.98374,-0.1179 -0.76237,-0.2832 -4.66113,-0.1924 -2.98923,-0.2011 -2.7336,-0.2097 -2.33752,-0.2323 -1.54744,-0.2711 -0.75271,-0.3137 -2.56655,-0.2647 1.45539,-0.3072 1.25983,-0.3193 0.82108,-0.4202 2.37032,-0.5329 4.123,-0.038 3.50933,-0.2101 4.04377,-0.1552 -0.36928,-0.4376 -3.85662,-0.1425 -0.61619,-0.3737 -0.0357,-0.4058 -0.76512,-0.4395 0.40725,-0.4292 0.77106,-0.535 1.02594,-0.4544 1.43039,-0.5153 1.99547,-0.4018 2.00186,-0.4875 1.52986,-0.525 3.13176,-0.2939 1.79728,-0.4889 3.10526,-0.2205 1.6492,-0.5878 1.31468,-0.5144 1.69477,-0.6712 1.7267,-0.5362 0.89363,-0.6069 -1.0775,-0.4627 -1.97482,-0.3122 -1.91174,-0.3785 -2.24896,-0.2226 -2.52047,-0.1278 -2.6815,0.032 -2.29404,-0.096 -2.59457,0.032 -2.22594,-0.2572 -1.13006,-0.5857 -2.14757,-0.3954 -0.45597,-0.6682 -2.38581,-0.2026 -2.55101,-0.1697 -1.58846,-0.4098 -1.2005,-0.5529 -1.52776,-0.4895 -1.98444,0.5939 -2.50941,-0.035 -2.03008,-0.2785 -2.77774,-0.2805 -2.61897,-0.3173 -2.10352,-0.4626 -2.04975,-0.4309 -0.99118,-0.5443 1.03068,-0.698 -1.09131,-0.5953 -2.39646,-0.1498 -2.90226,-0.075 -2.15452,0.038 -2.96432,0 -2.12559,0.1126 -2.99313,0.037 -2.65366,0.1123 -1.63677,-0.3374 -0.42855,-0.643 -0.13128,-0.8048 0.28666,-0.8946 -1.00557,-0.5511 -0.7164,0.8249 -1.36138,0.9672 -2.15782,0.1531 -2.22949,0.191 -2.57143,0 -2.36241,0.076 -2.66288,0.3037 -2.28801,0.3397 -1.94195,-0.1885 -1.85505,-0.1891 -2.03789,0 -2.34276,0.3022 -2.21182,-0.1886 -1.85033,-0.2654 -2.14448,0.1518 -1.92623,0.6029 -2.18355,0.5961 -2.44296,0.148 -2.6988,-0.185 -2.36731,-0.4843 -1.22101,-0.4886 -2.52934,0.075 -1.1954,-0.6067 -0.75361,-0.6134 -1.5271,-0.3867 -1.96115,0.4253 -2.57976,0.077 -1.91657,0.5741 -2.19596,0.5304 -2.59944,0.2633 -2.57256,0.2247 -2.07798,0 -2.18788,-0.037 -2.17114,-1.1716 -1.09796,-0.692 -1.41428,-0.5439 -1.30898,-0.2739 -3.69586,1.4715 -1.85908,0.5327 -1.51948,0.6398 -1.86661,0.6323 -2.19226,-0.2594 -2.22269,0.2594 -2.42834,0 -2.17358,0.2581 -1.49812,-0.4061 -1.83873,-0.1114 -1.51378,0.1854 -2.09982,-0.037 -2.21812,-0.1484 -2.28102,0.2224 -2.08705,-0.1482 -1.70924,-0.3722 -0.60337,-0.9044 -0.57399,-0.5345 -1.7981,1.2892 -1.89681,0.5219 -2.41873,-0.1114 -2.31783,0.2226 -2.12043,0.1848 -2.16288,-0.1848 -1.77369,0.2953 -1.43517,0.3301 -1.52472,0.6178 -2.06062,0.3597 -2.41297,0.4635 -1.84502,0.6691 -0.96134,0.6594 -1.40832,0.6832 -2.39487,0.2702 -2.31743,0.2015 -2.56066,0.067 -1.46944,0.1668 -1.53881,0.8235 -0.82139,0.5821 -1.59929,0.478 -1.43362,0.5026 -0.99222,0.5873 -1.47439,0.6069 -2.66327,0.2693 -2.48313,-0.1493 -1.48324,-0.4827 1.30625,-0.6449 1.37424,-0.5945 0.56927,-0.637 -2.49,0.032 -0.0403,-0.6478 1.99802,-0.626 2.31618,-0.4341 0.58419,-0.7796 0.27166,-0.4472 -1.08393,-1.871 -2.24435,0 -2.14404,-0.1443 -2.02984,-0.2173 -2.11997,-0.2183 -1.96614,-0.4025 -2.22183,0.7658 -1.93608,0.3605 -2.11681,-0.1079 -1.66961,-0.5065 -1.32029,-0.5119 -2.61635,-0.221 -1.19443,-0.5194 -1.77967,-0.6376 0.0516,-0.8365 -1.6466,-0.5389 -2.07159,-0.1937 -1.96426,-0.1165 -2.13668,0.1553 -2.35894,0.3094 -1.97825,0.3844 -2.06285,0.5338 -0.64026,0.6787 -1.98611,0.4477 -2.11023,-0.037 -1.60241,0.5179 -2.21064,0.6581 -2.05549,-0.2184 -1.86903,0.3997 -1.96231,0.4323 -1.86036,0.3928 -2.72523,0.3542 -2.25537,0.2465 -2.46771,0.5927 -2.08804,0.3105 -0.96393,0.7498 -2.36392,0.4032 -1.55943,-0.4371 -1.43733,-0.6129 -2.34806,0.137 -1.83841,-0.4122 -0.74698,-0.6259 -2.26854,-0.2809 -1.38913,0.5949 -1.4132,0.9627 -1.79457,0.4733 -2.30079,0.1677 -2.14815,0.2999 -2.04241,0.4623 -2.38448,0.1963 -2.25656,0.2279 -2.48427,0.032 -2.52236,0 -2.61867,0.065 -2.47435,0.2901 -1.36997,-0.4848 -0.97251,-0.5571 -2.38436,-0.099 -2.46124,-0.1991 -2.35115,-0.033 -2.62327,0.066 -2.41709,0.1989 -1.88672,0.6233 -0.8152,-0.6233 -2.91173,-0.099 -2.30098,0.4614 -1.04792,0.6494 -2.54161,0.3205 -1.22348,-0.5789 -1.56434,-0.7862 -2.32153,0.231 -1.63516,-0.4301 -1.37709,0.5943 -1.92916,0.3586 -2.48711,0.2586 -2.26975,0.3846 -2.47894,0.2225 -2.51919,0.221 -2.25655,0.2821 -2.42592,0.5265 -0.95446,-0.6516 -2.5152,-0.094 -2.77143,0.188 -2.85283,0.28 -2.64451,-0.093 -0.58397,-0.5956 -2.39277,-0.1585 -1.10033,0.6295 -0.0602,0.5873 -2.64203,-0.061 -1.11071,-0.526 -2.64894,-0.094 -1.57441,0.435 -1.03076,0.7325 -1.68302,0.5975 -2.20425,0.4695 -2.38124,0.3472 -2.25328,0.286 -1.41677,0.4516 -0.71341,0.5809 2.34627,0.3259 -0.58999,0.5335 -2.01166,0.3922 -1.87414,0.4361 -2.98089,0.4023 -2.34877,0.2965 -2.60035,0.2921 -2.64571,0.2399 -3.16295,0.1661 -3.34893,0.047 -1.47126,0.094 -2.90183,0.1633 -2.93328,0.2076 -1.86524,0.4522 -2.56091,0.3309 -2.55708,0.3237 -3.58108,0.2537 -3.02765,0.2491 -0.91908,0.2243 -0.12147,0.7448 0.67188,0.3548 4.20536,0 4.38506,-0.148 4.15795,-0.037 0.0677,0.3492 0.98605,0.3199 1.56968,0.3093 -3.27132,0.2166 -4.70615,0.1468 -4.41646,0.1122 -3.98011,0.1731 -4.18587,0.1692 -5.39414,0.015 -2.90853,0.2236 -1.29071,0.3143 -4.35315,-0.1695 -5.25618,-0.101 -5.30504,0.014 -3.73609,0.2 -4.36489,0.1798 -3.63784,0.2135 -3.43237,0.1923 -2.50011,0.2208 -1.13325,-0.2333 -2.20936,-0.3122 -4.06115,-0.2328 -3.72433,-0.2136 -5.31541,-0.206 -5.36709,-0.1208 -4.00654,-0.2478 -3.17803,-0.2563 -3.9675,-0.2313 -4.5967,-0.1351 -2.89309,-0.3292 -0.63353,-0.3411 -2.68338,-0.3152 -0.11045,-0.3829 -0.084,-0.416 2.94855,-0.2647 3.76516,0.1024 2.24841,-0.3306 -1.53505,-0.3818 -2.55872,-0.3041 -3.40052,-0.1987 -0.90114,-0.451 3.64808,0 3.39252,-0.092 3.84004,0.046 3.45815,-0.046 1.52138,-0.4897 2.81779,-0.2621 2.608,-0.2658 2.81212,-0.1957 3.08637,-0.4727 1.14793,-0.4324 0.79589,-0.4676 2.83538,-0.1845 1.10869,-0.4543 0.98186,-0.5733 0.0153,-0.7566 -0.90439,-0.5744 -0.3925,-0.5864 -0.86059,-0.5679 -0.84494,-1.4502 -0.876,-0.6042 -1.24843,-0.5494 -0.8987,-0.6569 -0.71686,-0.6345 -1.17138,-0.6788 -1.9139,-0.5511 -1.99902,-0.4177 -1.39983,-0.5635 -1.07792,-0.7499 0.0899,-0.6887 1.107,-0.8098 1.10459,-0.5969 1.00459,-0.6417 2.07243,-0.152 1.38911,-0.4589 -1.29806,-0.6563 -0.39578,-0.7423 0.034,-0.7915 0.90758,-0.6003 1.4744,-0.525 1.40194,-0.4882 1.8138,-0.2045 1.80993,0.327 0.8395,-0.4499 z m 36.8023,22.1934 -3.32113,-0.2296 -3.14043,0.2296 -1.09803,0 0,0 -1.25711,0.4275 -1.19241,0.355 -0.84982,0.3634 -1.21146,0.4061 -1.74673,0.3029 -4.49169,0.2423 -0.25252,0.3514 2.90401,0.2737 5.0837,0.047 4.43023,-0.1589 3.96252,-0.195 3.41572,-0.2166 3.2361,-0.2743 -0.21569,-0.4637 -0.36857,-0.4096 -1.09868,-0.604 -2.78801,-0.4475 z m -30.33583,1.9373 -2.373,-0.3723 -1.00682,0.32 -1.44947,0.3598 -4.64951,-0.084 -4.83972,-0.034 1.28357,0.2515 0.0143,0.033 2.80011,0.275 4.75556,-0.048 4.52697,0.1111 0.48176,-0.3713 0.45629,-0.4408 z m -23.97359,-11.4607 -0.91287,-0.7373 -1.03709,-0.7194 -1.2762,-0.7666 -0.7905,-0.6445 -1.45231,-0.6544 -1.94298,0.2767 -0.92134,0.8198 0.62709,1.3631 0.13486,0.6156 -0.29226,0.8256 -2.58583,-0.063 -1.43335,0.1881 0,0 -2.14455,0.6196 0.42164,0.638 1.88797,0.4478 2.36543,-0.2082 2.49726,-0.2096 -0.81545,0.5951 2.90146,0.029 2.33028,-0.2957 2.50079,-0.2088 0.36398,-0.574 0.13323,-0.6155 -0.55926,-0.7221 z m -66.71902,1.5469 -3.27229,-0.1214 -2.94228,-0.2135 -1.21296,0.2743 0,0 1.56001,0.6307 2.42653,0.2958 2.92067,-0.088 2.75225,0.059 2.63793,-0.059 1.79444,0.1178 -1.80634,-0.865 -2.3115,0.181 -2.54646,-0.2113 z m -47.31005,2.3284 -2.81071,-0.2525 -0.11109,0.4749 0,0 2.56212,0.4932 3.12339,0.1082 1.79269,-0.3536 0.87545,-0.4982 -2.43253,0.2503 -2.99932,-0.2223 z m -9.55307,-0.028 -2.45475,-0.3375 -1.34581,0.3095 0,0 3.30999,0.3888 2.9377,0.1374 1.32861,0.055 -3.77574,-0.5529 z m -66.54443,7.1189 -1.03572,-0.4294 -2.00493,-0.348 -2.48268,-0.3182 -4.17952,-0.1623 -0.90279,0.3819 0,0 1.68157,0.2739 0.14574,0.058 1.62465,0.341 3.16699,0.3305 3.98669,-0.1273 z m 742.13166,-184.2797 0.32144,-1.3918 0.12621,-2.1717 -0.72625,-1.9542 0.11048,-1.6154 -0.63215,-0.4654 0.13033,-2.4164 -0.5489,-1.8864 -1.22325,1.4446 -0.2139,1.0996 -0.81695,2.1156 -0.96339,2.0388 0.2473,1.2829 -0.65201,0.7798 -0.81295,2.8888 -0.0338,2.1906 -0.38747,1.1122 0.0683,1.8466 -1.39016,3.0323 -0.73544,2.0854 -0.88796,1.6827 -0.94636,2.0357 -2.09139,1.2934 -2.38534,-1.2838 -0.19049,-1.1706 -1.26354,-0.9711 -0.78283,0 -1.58425,-2.2506 -1.1936,-1.3098 -1.92528,-1.2204 -1.85191,-2.1069 -0.0208,-1.0779 1.2921,-1.8784 1.11733,-1.9127 -0.0918,-1.5321 0.97793,-0.1276 1.28725,-1.55 1.03568,-2.0561 -1.02513,-1.9029 -0.75334,0.7392 -1.00542,-0.3349 -1.7813,1.1013 -1.57437,-1.1824 -0.84987,0.3892 -2.226,-0.9845 -1.28624,-1.5792 -1.73658,-0.9552 -1.55826,0.5598 1.89218,1.2682 -0.20298,1.9666 -2.44419,0.7245 -1.36948,-0.4568 -1.87252,1.3558 -1.5136,2.1928 0.29967,0.9582 -1.40199,1.0016 -1.79345,3.0693 0.26193,2.0975 -1.71323,-0.3581 -1.73801,-0.026 -1.19875,-2.2631 -1.80096,-1.7563 -1.42203,0.5162 -1.30558,0.548 -0.1909,0.9614 -1.1582,-0.4462 -0.20226,1.0683 -1.49813,0.6508 -0.90154,1.5069 -1.81431,1.8757 -0.80947,2.8953 -1.08896,-0.8236 -1.17805,1.8438 0.6806,1.7928 -1.3118,0.7562 -0.60908,-3.2757 -2.48889,3.2242 -0.43563,2.0577 -0.39774,1.5078 -1.97682,1.9151 -1.08754,2.0121 -1.82425,1.6682 -3.11362,1.0986 -1.50589,-0.088 -0.79667,0.3422 -0.58035,0.821 -1.75276,0.4152 -2.44764,1.3942 -0.6649,-0.461 -1.30938,0.2919 -2.37685,1.371 -1.66218,1.5904 -2.48647,1.2446 -1.69435,2.5552 0.38421,-2.8291 -1.69004,2.6733 -0.17154,2.1648 -0.77868,1.8478 -0.76195,0.9075 -0.77811,2.1283 0.37805,1.0984 -0.009,1.1544 0.65431,2.8772 -0.41539,1.8649 -0.45422,-1.4095 -1.08948,-1.0574 0.0841,3.3773 -0.80062,-1.5722 -0.009,1.5508 0.81558,2.8676 -0.40688,2.8242 0.80751,1.4309 -0.2197,1.0533 0.42113,2.3259 -0.69393,2.0274 -0.15076,2.0241 0.34224,3.5642 -0.34352,2.0776 -1.08995,2.4258 -0.30662,1.2482 -0.70436,0.7894 -1.46704,0.4714 -0.70491,1.9784 1.20203,0.6536 2.05456,2.1905 1.76423,0 1.87346,0.1344 1.64342,-1.0886 1.65725,-0.9703 0.71544,0.1553 2.20122,-1.8361 1.86877,-0.1583 2.03009,-0.3769 2.11837,0.6295 1.76671,-0.3069 2.27266,-0.084 1.46848,-1.4053 1.13954,-1.82 2.57608,-0.8033 3.42813,-1.7901 2.45818,0.2319 3.42874,-1.1684 3.87957,-1.2565 4.88785,-0.3326 1.96436,1.7088 1.83482,0.1001 2.64598,2.1181 -0.79488,0.8043 0.9146,1.3025 0.7027,2.5099 -0.79131,1.8277 1.50067,1.4114 2.08765,-2.7327 2.11048,-1.1805 3.28987,-2.9576 -0.77598,2.5693 -1.6828,1.6911 -1.18733,1.984 -2.13931,1.893 2.59536,-0.6277 2.24181,-2.3733 -0.39027,2.5457 -1.54408,1.6544 2.35574,0.4098 0.70909,1.3766 -0.12204,1.708 -0.62877,2.5523 0.76521,2.0587 2.07952,0.9617 1.37623,0.2374 1.22983,0.5247 1.82327,0.8975 3.39627,-2.4016 1.714,-0.63 -1.21241,1.7336 1.31474,0.5844 1.449,1.4605 2.24805,-1.4183 1.80649,-1.2849 3.04811,-1.3659 2.97171,-0.1214 2.04522,-1.1616 0.36589,-1.0605 1.41515,-2.3208 1.81888,-2.5375 1.77569,-1.6992 2.08341,-2.9594 1.6171,-1.7044 2.10664,-2.6846 2.68108,-1.7111 2.48033,-3.1842 1.5381,-2.5243 0.74002,-2.0285 1.93571,-3.1716 1.08312,-1.6541 1.3136,-3.1745 -0.20425,-3.0645 0.95601,-2.2421 0.62499,-2.0723 0.19283,-2.9324 -1.19511,-2.967 -0.83775,-1.403 -1.26358,-2.263 0.65117,-3.9221 -0.82901,0.5702 -0.66483,-1.6083 -1.31869,0.8159 0.0172,-4.0254 -0.96904,-2.3417 0.58882,-0.9064 -1.44456,-1.6309 -1.51921,-1.7838 -2.53363,-1.965 -0.32127,-2.5568 0.69229,-1.9587 -0.0775,-3.2374 -0.60509,-0.4629 -0.0457,-1.8961 0.0261,-3.2638 0.59286,-1.6904 -1.07275,-1.4913 -0.64592,-1.6183 -2.03283,1.4419 -0.50237,-3.0018 z m -26.53362,96.9853 -1.53864,-0.2869 -0.80978,1.4826 0.0488,2.7959 -0.74826,2.1007 0.12736,2.7 1.5086,0.098 0.43388,0.1685 2.95271,-2.1939 0.42233,0.8642 1.63268,-2.5469 1.45812,-1.0981 1.80718,-3.8154 -1.43042,-0.2174 -2.32331,0.6219 -1.62388,0.4428 -1.9174,-1.1156 z m -49.05053,-171.58748 -2.26839,2.13189 -1.03686,1.45683 -1.26598,2.46324 -1.89963,3.08304 -3.34851,0.84395 -1.17988,0.73524 -0.48467,3.3015 -2.16351,0.72878 -2.09175,-1.33651 -1.62749,2.59181 -0.29418,3.61431 0.39233,3.413 1.32659,3.3368 1.3921,1.0842 0.32427,5.2293 2.31025,0.4498 1.85124,-0.2143 0.97186,1.886 3.3914,-1.4014 1.36669,1.2486 2.00108,0.2203 1.03079,2.3814 3.26351,-1.7528 0.36418,1.3856 1.27058,-5.9594 0.14744,-3.8835 2.73932,-2.6678 -0.11019,-3.5351 0.92636,-2.6596 3.33498,-0.46022 -3.21697,-3.60959 0.44373,-1.79406 -2.18896,-3.69095 1.45136,-3.51914 2.00601,-1.32685 -0.60754,-1.9014 1.87666,-0.19313 0.10698,-1.52459 -2.42253,-1.17064 -1.92584,-1.08448 -0.25016,-1.69022 -1.59569,-1.96611 -1.13542,0.0128 -1.1893,3.03806 -1.98626,2.70539 z M 370.24668,0.85973 l -4.08961,-0.0439 -4.08812,-0.0435 -5.5694,0.11673 -0.95759,-0.0748 -5.8319,0.0286 -3.46749,0.0771 -2.59709,0.11365 -1.75396,0.40198 -1.8952,-0.21198 -2.33154,-0.0387 -3.02545,0.28191 -3.84526,0.12683 -2.2496,0.0257 -2.9664,0.15305 0.1825,0.28256 2.02645,0.25165 1.30256,0.36057 3.14048,0.31468 6.76683,-0.0599 4.24346,0.10895 -3.26343,0.35173 -1.43938,-0.10589 -5.22498,-0.0418 0.41752,0.51119 2.41385,0.40427 -0.83265,0.37245 -3.63399,0.26101 -1.90939,0.43491 2.97902,0.22068 2.07741,0.76192 -4.81296,-0.51675 -1.25126,0.0829 0.27977,0.87817 -3.83523,0.2848 -0.23815,0.61896 3.65606,0.0688 2.80021,0.15984 5.91552,-0.20457 4.87024,0.36556 5.78349,-0.78623 0.16921,-0.31089 -3.37524,0.0489 -0.0747,-0.28432 2.98217,-0.36854 1.24788,-0.47041 3.23043,-0.33166 2.10841,-0.39202 -1.23338,-0.54518 1.46686,-0.19188 -2.57277,-0.13301 5.92299,-0.11238 1.36912,-0.21118 4.08674,-0.16884 3.79447,-0.79402 3.28957,-0.26059 4.84276,-0.53255 -4.16742,0.004 1.84401,-0.18777 4.72145,-0.16568 4.85377,-0.34173 0.19806,-0.20119 -3.36975,-0.19743 -4.03107,-0.0906 -5.04887,-0.0547 z m -2.28751,64.16409 1.83032,-1.85042 0.69963,-0.79118 -1.04875,-0.12754 -2.35465,1.00538 -1.98904,1.67154 -3.93726,4.75014 -2.57276,1.82373 0.7889,0.82721 -1.82584,1.07638 0.0928,0.90903 4.65063,0.094 2.64321,-0.18374 2.10155,0.74822 -2.11628,1.45319 1.41473,0.10775 3.54707,-2.67701 0.56299,0.39042 -1.21694,2.52853 1.43585,0.58703 1.12789,-0.11581 1.74532,-2.72391 -0.2298,-1.90602 0.14088,-1.61503 -1.82128,0.51929 1.36608,-2.21547 -2.1091,-0.92389 -1.31248,0.7317 -1.86915,-0.82293 1.14598,-1.04231 -1.39984,-0.63809 -1.85631,1.00671 2.36564,-2.59685 z m -40.80392,-52.6582 2.20223,-1.01127 -5.45519,0.41191 -2.53644,0.64391 -2.63054,1.45713 -0.63219,1.72612 2.8768,0.008 -2.70512,0.80381 1.24306,0.6299 3.11871,0.27316 3.95695,0.53652 7.183,0.41297 3.8685,-0.23817 1.43818,-0.54172 1.22173,0.6255 1.74111,0.10549 1.46573,1.16743 -1.61118,0.48323 3.79476,0.65685 2.62553,0.95147 0.41615,0.68177 0.0741,0.89272 -3.83093,2.01345 -1.32199,1.05614 0.28376,0.76612 -4.51299,0.27631 -4.00353,0.0385 -2.32748,1.61358 1.37023,0.76449 6.3715,-0.35618 0.31728,-0.64315 2.52368,1.07898 2.58682,1.15955 -1.08229,0.64364 2.03813,1.12287 3.97252,1.35728 5.44146,0.94525 0.0292,-0.82722 -1.58763,-1.41324 -2.07998,-1.97769 4.50942,1.83587 2.43136,0.63023 1.50803,-1.66211 -0.34564,-2.2361 -0.59634,-0.58955 -2.39374,-1.01009 -1.59756,-1.25653 0.88592,-1.21637 2.85423,-0.2631 2.30836,2.0468 2.16658,0.929 4.8819,-2.49676 1.33937,-1.46469 -3.22864,-0.13672 -2.0835,-1.86232 -3.07662,-0.43624 -4.20485,-1.27678 4.26258,-0.89204 -1.00687,-1.74358 -1.37797,-0.73078 -4.51768,-0.70414 -1.46693,-1.11013 -3.99527,0.39047 0.19234,-0.74996 -2.28535,-0.80205 -3.93457,-0.83181 -2.32502,0.65171 -4.3054,0.48392 1.02127,-1.08188 -2.31707,-1.63915 -5.51205,0.64034 -2.77525,1.29685 -0.85874,-1.00734 z m 25.83586,57.378 0.11166,-0.55275 -2.0163,-1.25363 -2.86648,-0.74889 -0.90827,0.25098 1.72509,1.41441 2.7745,0.94385 1.1798,-0.054 z m -6.99872,7.83548 -0.36585,-1.50985 -1.22361,0.95751 0.27215,1.04311 2.66922,1.32843 0.96513,-0.20452 1.59042,-1.28147 -2.27841,0.0851 -1.62905,-0.4183 z m 1.57762,-65.12624 -2.88935,-0.86396 -4.45547,-0.16665 -1.029,0.10276 -0.466,0.56229 1.63658,0.84746 0.51622,0.0985 2.33995,-0.21768 2.13932,0.0341 2.10316,0.0471 0.10459,-0.44389 z m -5.63126,10.86573 1.7039,-0.60046 0.3952,-0.27797 0.47257,-0.85569 -1.29971,-0.54614 -2.06207,0.27283 -1.54734,1.11679 -0.0657,0.99314 2.4031,-0.1025 z m -26.49482,-16.57202 -3.96069,-0.0796 -1.17759,0.52057 1.93264,0.40273 3.92674,0.16113 1.49859,0.58661 -0.30939,0.68618 0.0618,0.78434 4.90366,0.47214 3.06747,0.1829 4.09742,-0.0264 5.85922,-0.22811 2.41472,0.17991 3.17818,-0.31711 1.50082,-0.38698 -0.0377,-0.59039 -1.74805,-0.52545 -3.13254,-0.0966 -4.09584,0.117 -3.35612,0.30082 -2.79061,-0.11672 -2.61304,-0.061 -0.99882,-0.3269 -2.01748,-0.30673 0.84143,-0.49939 -1.35211,-0.42721 -3.85745,0.003 -1.83526,-0.40853 z m 17.23698,-2.92264 -1.00482,-0.65508 -3.00705,-0.18038 -3.06761,-0.19992 -2.04768,-0.4796 -4.49149,0.0446 0.66216,0.20366 -2.01977,0.0632 -1.57354,0.28074 -1.70309,0.42499 0.82774,0.45187 1.83156,0.34405 3.53836,-0.008 -1.76449,0.28279 -0.36177,0.39561 1.70217,0.45896 3.9043,0.14723 3.5019,-0.0829 4.23949,-0.83873 2.90026,-0.31756 -2.06663,-0.3355 z m -12.17465,22.6181 -1.41549,-0.17453 -1.98696,1.98671 -1.37332,1.75096 -2.56364,1.12048 3.04545,-0.21872 -0.0825,1.34126 3.78058,-1.18746 2.85047,-1.204 0.59544,1.01729 3.02096,0.54867 2.32033,-0.71737 -1.09454,-0.74884 -1.67811,0.17529 0.44096,-1.06434 -2.02625,-0.68947 -1.86673,-0.75159 -0.87854,-0.56938 -1.29417,0.33448 0.20601,-0.94944 z m 7.94614,7.89632 -0.28237,-0.48382 -0.85827,-0.0515 -1.23459,0.70845 -0.19338,0.16387 0.17466,0.71116 0.85036,0.2036 1.54359,-1.25176 z m -4.96756,-1.29704 0.30704,-0.45082 -2.95127,-0.0221 -2.24203,1.07668 0.10014,0.63735 1.5005,0.0546 3.28562,-1.29575 z m -10.09565,-20.05645 2.63396,-0.31357 4.05688,-1.39821 -3.51843,-0.37069 -4.10479,-0.0527 -2.30873,0.41471 -1.57362,0.65902 -0.66481,0.78965 0.11047,1.44381 2.25288,0.0626 3.11619,-1.23463 z m 4.13509,-6.76063 0.34727,-0.13874 -1.18214,-0.22282 -3.90524,-0.0174 0.23379,0.33624 3.58893,0.0777 0.91739,-0.0349 z m -2.30174,3.37864 -0.35882,-0.45142 -1.32448,-0.49027 -3.14535,0.37564 -1.58346,0.64158 2.09045,0.37945 2.79117,0.10949 1.53049,-0.56447 z m -1.03635,-4.02003 0.8804,-0.41702 -1.9834,-0.38981 -1.06561,-0.073 -2.46853,-0.0439 -0.25195,0.46145 0.45542,0.43192 1.34762,0.27371 3.08605,-0.24341 z m -6.61474,1.64472 -0.29716,0.17022 -2.69158,-0.075 -3.34639,0.447 -2.07533,-0.0414 -0.80535,1.04841 3.32536,-0.1067 -0.75302,0.82161 1.92986,0.23028 3.38901,-0.14793 1.77949,-1.04557 0.52579,-0.69392 -0.98068,-0.60704 z m -1.33386,-1.95491 -1.0052,-0.53491 -4.87051,-0.39625 -3.65797,-0.14481 -0.24783,0.41172 2.09338,0.26572 -2.18487,0.33497 4.28228,0.0424 2.85753,0.37584 3.05971,0.13136 -0.32652,-0.48604 z m -5.80226,6.02013 -3.00151,0.75227 1.3258,1.04722 -3.92932,-0.20137 -0.48397,0.52167 3.93419,1.29163 0.86632,0.65646 1.83642,0.14512 3.85321,-0.66796 1.56257,-1.5073 -2.47412,-0.6982 2.48892,-0.75997 -0.15078,-0.45053 -3.72159,0.19585 -2.10614,-0.32489 z m 3.02669,8.15937 -0.70666,-0.72239 -0.3443,-0.35497 -0.97279,-0.33382 -1.76497,-0.52086 -2.05993,0.79888 -2.26397,0.57985 2.14511,0.85303 1.84001,-0.20892 2.33833,0.58112 1.78917,-0.67192 z m -31.6417,-7.02921 -1.75188,-0.30632 -6.31471,0.97555 -2.04082,0.65417 -2.93161,1.26532 3.09836,0.45524 3.15149,-0.0243 -5.37753,0.70117 0.4474,0.6571 2.85722,0.0362 4.48899,-0.1428 3.56093,0.42073 -2.95299,0.31606 -2.80595,-0.0818 -3.44529,0.31178 -1.54442,0.19566 1.15886,1.48047 2.021,-0.21183 2.3436,0.51808 0.30907,0.90977 3.84018,-0.18351 5.48595,-0.2898 4.4237,-0.64959 2.49115,-0.1155 3.1188,0.51516 3.49065,0.30234 1.2596,-0.70276 -0.72461,-0.72592 3.4933,-0.15054 0.87774,-0.81458 -2.98378,-0.86058 -2.68115,-0.88193 0.41433,-1.2237 0.14338,-1.62571 -1.67316,-0.65104 -1.76269,-0.25452 -1.97218,0.23293 -0.0737,1.67694 -1.63728,0.7026 -0.17973,-1.64289 -1.35105,-0.531 -3.03239,0.83113 -2.0306,-0.82193 -4.92962,0.4901 1.72139,-0.75587 z m 16.08911,-4.51522 -0.0708,-0.62634 -1.88005,-0.14923 -2.24966,0.4733 1.5813,1.29766 -3.34632,-0.10596 -2.71651,-0.80872 -5.08232,-0.44737 -2.22035,0.3702 -4.0469,1.34539 2.50891,0.25507 9.10144,-0.17019 -4.72761,0.63811 -0.21268,0.481 3.05313,-0.0338 5.60567,-0.63613 6.9118,-0.22424 1.81384,-0.67221 0.26872,-0.67417 -2.00719,-0.0588 -1.96342,0.22728 -0.321,-0.48094 z m 3.68741,4.04301 -1.21586,-0.34332 -2.73057,0.0621 -0.87506,0.21847 2.13549,1.1163 2.686,-1.05358 z m -3.6966,-6.99231 -2.2987,-0.22506 -0.98887,-0.0501 -2.32017,0.33294 -0.19302,0.16149 3.22183,10e-4 2.57893,-0.22036 z m -2.04222,1.0515 0.99318,-0.35597 -2.56182,-0.18307 -2.95605,0.11885 -1.95352,0.37791 2.50139,0.39212 3.97682,-0.34984 z m -11.77445,0.0623 -2.8573,0.17842 -2.9733,-0.017 -4.86378,0.80842 -4.36964,0.97956 0,0 2.35531,0.29266 3.36564,-0.20748 4.23832,-0.56883 1.89782,-0.0639 1.96504,-0.44787 1.24189,-0.95399 z m -17.74089,9.24126 0.73711,-0.74833 3.65457,-1.16903 6.03396,-1.13452 2.9009,-0.3974 -1.50644,-0.65142 -1.4984,-0.43989 -4.9955,-0.0836 -2.52003,-0.30994 -6.9587,0.23286 0.96662,0.93318 -2.81346,1.03553 -2.62911,1.19127 -1.6005,0.7104 3.74791,0.90647 0.30241,0.76805 6.17866,-0.84363 z m -51.78677,56.23202 0.10238,-1.67345 -1.55749,-1.24229 -0.21916,-1.42003 -0.10642,-1.02616 -2.00842,-0.31392 -1.13888,-0.44884 -2.02704,-0.64364 -0.68568,0.68336 -0.21593,1.6152 2.07364,0.53688 -0.15364,0.85297 1.42348,1.05211 0.003,1.07218 3.03093,1.37909 1.47893,-0.42346 z m -10.89036,-16.52987 -0.84262,0.89333 -0.54153,1.23929 0.48657,0.88344 -0.14535,1.3138 0.41423,1.3148 0.92768,0.006 -0.2861,-2.30575 3.1724,-3.20484 -2.38884,0.22383 -0.79644,-0.3635 z m 610.49374,120.32125 0.17937,-2.18362 0.84832,-1.66104 -0.93054,-1.43833 -1.59622,-0.0893 -2.76518,1.0559 -0.98822,1.70977 0.74847,3.25299 2.49326,1.17452 2.01074,-1.82085 z m -520.40135,-15.35512 -2.31891,-1.2689 -2.12695,-0.042 -2.2959,-0.26547 -0.7367,0.40886 -2.12619,0.35632 -1.52825,0.72617 -1.38898,0.82913 -0.84571,1.34695 -1.65565,1.15483 1.10125,0.35468 1.42559,-0.40909 0.56032,-0.91217 1.13891,-0.0521 2.32009,-1.93954 2.63328,0.19087 -1.19378,0.93227 0.81711,0.72845 3.44821,0.5792 0.67946,0.78449 2.37052,1.00385 1.56779,-0.14584 0.28886,2.13516 0.76754,1.08404 1.72381,0.25119 0.96062,0.97671 -2.16558,2.10084 3.98401,-0.36714 1.84475,0.29818 1.87445,-0.18717 1.89502,-0.4783 0.45737,-0.88204 -1.83455,-1.53925 -1.99337,-0.15477 0.36658,-1.05729 -1.50742,-0.76519 -0.90809,0.0516 -1.42121,-1.69022 -1.91301,-2.31604 -0.81011,-0.87716 -2.61823,0.42159 -0.83695,-1.36561 z m 245.67423,-108.93933 -0.8312,-1.35961 -3.2719,0.89734 0.3945,1.13148 2.50396,1.55328 1.20464,-2.22249 z m -226.59269,126.69433 1e-5,1.09065 0.63415,0.60379 1.43469,-2.59803 0.98133,-0.54394 0.30055,0.91934 1.08764,-0.2336 0.58524,-0.69113 0.88278,0.18031 1.28446,-0.15887 1.2063,0.82424 1.21689,-1.54206 -1.17344,-1.38806 -1.20557,-0.13658 0.23792,-1.12612 -1.51337,0.0753 -0.31649,-1.33902 -0.73653,0.0947 -1.49029,-0.97065 -2.13893,-0.0174 -0.43437,0.64267 -2.29526,-0.59213 -1.64952,-0.16653 -0.76907,1.0412 1.64812,0.58852 -0.22327,1.44271 1.03203,1.63851 -1.10448,0.84295 -2.03673,-0.30395 -2.46132,-0.5257 -0.41045,1.22082 1.31677,1.18113 1.3839,-0.70874 1.64488,0.27408 1.33506,-0.26292 1.74637,0.64446 z m 695.21778,134.69753 1.99474,-0.9344 0.448,-1.8551 -1.91306,1.1859 -0.93023,0.2087 -1.57667,0.7792 0.006,1.4148 1.97156,-0.7991 z m -3.2595,2.0417 -0.84686,0.6244 -1.14015,-0.4683 -1.40224,1.3001 -0.16868,1.6617 1.40018,0.4669 1.85403,-0.5188 0.97723,-1.9737 -0.67351,-1.0923 z m -993.670045,-3.179 -0.095345,-1.8281 -0.53237,0.1759 0.448045,1.8551 0.17967,-0.2029 z M 493.80106,43.03584 l -2.69552,0.21624 -1.77455,-0.20343 -1.81049,2.10035 -0.92107,2.72728 1.0932,1.36567 0.043,2.61677 1.27009,-1.28947 0.72712,0.75 -0.86707,1.22443 0.52378,0.74626 2.77414,0.48711 0.0343,0.039 1.50797,1.71717 -0.36904,1.63492 -0.004,-3e-4 -3.43599,-0.25577 -0.49152,1.86055 1.23639,1.5447 -2.46652,0.89477 0.62955,1.15498 3.65491,0.48567 0.0184,0.002 -2.11798,0.63144 -3.54877,3.09888 1.2427,0.59441 1.69501,-1.13521 2.18274,0.33674 1.58847,-1.38678 1.09293,0.58156 4.02848,-0.81185 3.15704,0.0273 2.11042,-1.53743 -0.94778,-1.50708 1.18603,-0.84903 0.2665,-1.83832 -2.82146,-0.54396 -0.66366,-1.12279 -1.41846,-3.19782 -1.57071,-0.44584 -2.00584,-3.23694 -0.17696,-0.28499 -2.34891,-0.17272 2.07751,-2.40481 0.61565,-2.15047 -2.45983,-0.0137 -2.29672,0.35911 2.45656,-2.80908 z m -6.30946,10.90878 -2.39335,-1.7067 -1.92263,0.11326 -1.79405,1.28867 -3.24945,2.1841 1.05156,2.8784 -2.05673,3.00507 3.2948,0.43904 4.22313,-1.71032 1.85406,-2.55549 -0.3094,-2.01796 1.30206,-1.91807 z m 74.18761,59.39562 -0.35036,1.47242 3.21694,0.67713 0.0254,0.57373 3.70363,-0.29567 0.22587,-1.02458 -1.37053,0.41649 0.006,-0.6039 -1.94694,-0.24608 -1.99447,0.19752 -1.51532,-1.16706 z M 449.038,0.58122 l -15.14119,-0.0812 -6.73087,0.0621 -2.51264,0.24667 -6.65822,-0.0308 -6.56472,0.42498 -0.40128,0.32606 4.3582,0.43573 -3.85667,-0.26624 -2.65286,-0.063 -4.42101,-0.2907 -5.26638,0.43255 -1.96088,-0.24819 -5.86594,0.007 -5.93505,0.12423 -4.64393,0.21346 0.58044,0.37978 -2.83915,0.0934 -7.01788,0.6354 -1.91031,0.38345 4.98319,0.35816 -0.96706,0.37511 -7.39196,0.51421 -7.67745,0.53618 -0.55852,0.44832 4.07779,0.48576 8.15169,0.31716 -3.96711,0.0652 -5.37196,0.39323 2.90419,0.8123 2.02509,0.42442 4.85431,-0.0987 5.28236,-0.054 4.11969,0.0976 4.86962,0.80089 -0.32037,0.5911 2.24287,0.5616 1.62685,1.59796 1.0788,1.09129 0.94477,0.60397 -2.96176,1.55981 1.497,0.42648 2.12493,-0.24256 1.55496,0.59305 3.02152,1.12411 -3.9563,-0.47455 -1.89847,0.0256 -1.21712,0.95515 -0.4096,1.25063 2.25906,0.61315 1.96,-0.26872 1.23372,-0.27887 2.61139,-0.65729 -1.02072,1.46231 -1.1374,0.80123 -3.4082,0.72329 -3.02025,2.3363 1.10101,0.72347 -1.37788,1.54001 2.14757,1.9801 -0.46691,1.98103 0.53473,1.4692 2.69999,2.87783 0.6497,2.32575 1.6776,1.33074 4.37869,0.0126 2.62591,2.01384 3.15237,-0.15166 1.82707,-2.40007 1.56606,-1.98934 -0.32315,-1.8424 4.06639,-1.84791 1.52267,-1.48647 0.49117,-1.55664 2.2177,-1.34706 3.18537,-0.50231 2.95784,-0.52397 1.48107,-0.0876 4.91382,-1.4712 3.4568,-2.15249 2.34072,-0.76614 2.29059,-0.008 6.21822,-0.67776 5.923,-1.51448 5.80307,-1.61953 -2.79978,-0.0996 -5.37059,-0.0773 2.56527,-0.94666 -0.44953,-1.19064 2.30665,1.00548 1.43769,0.68893 3.6967,-0.34578 -0.5186,-1.41431 -2.45413,-1.03976 -2.6379,-0.41689 1.12487,-0.44079 3.85143,0.6838 0.1083,-0.73513 -2.30404,-1.08797 2.78909,-0.005 2.86284,-0.2434 0.74915,-0.5473 -2.19945,-0.61822 4.43532,-0.1077 -2.35338,-1.25696 2.13599,-0.13148 -0.2639,-1.17304 -3.49569,-0.69985 3.29364,-0.40615 3.06433,-0.0524 -2.20855,-0.80776 0.16376,-1.28825 1.67754,-0.69894 2.37644,-0.73904 -4.44794,-0.0469 6.17457,-0.1672 1.11765,-0.21807 7.90024,-0.64278 -1.03295,-0.36283 -5.70694,-0.15862 -9.33337,0.32137 -4.93766,0.32173 2.20328,-0.49743 -1.52822,-0.29048 -3.7609,0.24721 -5.68451,-0.27774 -6.7797,0.0875 -0.91995,-0.14114 10.28643,-0.0759 7.30258,-0.0339 3.57585,-0.28872 L 449.038,0.58127 z m 429.52346,251.39657 -0.42945,-1.4497 -4.51487,-1.602 -1.45202,1.2714 -3.80748,0.945 1.16851,1.93 2.50591,0.7202 1.06835,2.3217 4.12457,0.01 0.20963,1.0345 -2.00741,-0.076 -3.07466,1.404 2.08865,1.9146 -0.056,1.693 0.57831,1.4284 1.09582,-0.3434 0.90945,-1.8932 4.07051,3.5994 2.3054,0.3256 5.27286,3.2957 1.13605,3.2643 0.40847,4.2232 -1.85977,1.0774 -1.47745,3.1552 3.56823,-0.1191 0.79504,-1.1042 2.77876,0.7796 2.18036,3.1784 2.8847,0.1614 1.50154,0.647 2.34611,-1.3302 -0.0691,-2.8569 1.83656,-1.2799 2.48096,-1.1062 3.50507,1.6958 1.11254,3.3903 1.35614,2.1277 1.88732,2.4659 2.75822,0.5811 2.35216,0.4338 0.55993,1.0004 1.88977,-0.2692 0.45496,-1.1157 -2.77667,-1.6253 0.92836,-0.7291 -2.08758,-0.657 0.3075,-1.7137 -1.62101,0.1286 -1.39489,-4.1081 -2.27053,-2.5449 -0.40137,-2.5871 2.62076,-0.4181 -0.52525,-2.061 -4.52058,-2.4034 -0.2867,-2.2923 -1.45917,-1.9573 -1.84333,-1.9954 -5.1133,-2.2297 -4.79614,-2.6856 -3.00328,-0.7451 -2.05462,-1.395 -2.38097,-1.3595 -2.50532,0 -3.28612,2.3535 -2.4847,4.1347 -2.83659,-2.333 -0.65118,-6.3069 z m 0.83832,19.7199 0.12878,-1.8538 -0.56968,-1.1378 -0.66998,1.3147 -0.59093,1.3973 0.0645,2.9246 1.63734,-2.645 z m -11.35876,-12.1478 -3.06426,-1.1366 -3.48448,0.1617 -0.73753,2.1428 1.94365,0.1373 1.59943,-0.2573 2.34103,0.326 2.31533,1.6059 -0.91317,-2.9798 z m -4.85842,-16.48285 -0.29102,-1.59307 -1.67065,-0.34213 -0.25331,-2.12962 -0.89953,1.41917 -0.51127,3.11634 0.86067,4.98676 1.12231,2.4709 0.79323,-0.4681 -1.14998,-2.0594 0.42697,-2.3738 1.45523,0.382 0.11735,-3.40905 z m -4.26692,17.90645 -0.65616,-1.285 -2.85579,0.1869 0.49,1.676 1.91907,0.7154 1.10288,-1.2933 z m -5.46753,-19.02767 -0.50825,-0.87143 -2.74121,2.83243 -3.23925,0.16348 -3.55943,-0.54124 -2.21717,-1.15179 -2.36358,2.89731 -0.5842,1.60811 -1.4509,5.8802 -0.45417,3.0964 -1.22568,2.5534 0.79326,2.6698 1.18337,0.029 0.28968,3.7588 -0.97923,3.5825 1.14715,1.1417 1.81535,-0.5646 0.14944,-5.5687 -0.0811,-4.5431 1.91145,-1.1849 -0.326,3.7979 1.94218,2.2842 -0.43067,1.5033 0.64979,1.0775 2.83272,-1.5073 -1.51558,3.1868 1.02857,1.368 1.56511,-1.1436 0.15337,-2.5565 -2.34636,-4.4953 0.55951,-1.3384 -2.53934,-4.9964 2.50641,-1.5117 1.25169,-2.2854 1.22221,0.5666 0.24689,-1.7964 -5.26612,1.3274 -1.54235,1.7667 -2.4896,-3.4687 0.40471,-2.9528 2.46032,-0.5616 4.69571,-0.1947 2.7157,0.7628 2.11517,-0.7501 2.22048,-3.86947 z m -4.25146,44.96587 2.11757,-2.8868 2.45441,-1.111 3.08011,-1.6948 1.12602,-1.0496 -1.02147,-0.4804 -0.91934,0.4841 -1.96987,0.1311 -2.49275,0.8708 -0.41199,0.9135 -2.91612,1.5373 -1.43512,2.3586 -0.38612,1.3134 0.28788,0.4633 2.48679,-0.8495 z m -3.56764,-7.9168 -2.63397,1.4199 -1.89362,0.2949 -1.66249,-1.1616 -2.2958,0.8057 -0.11024,1.4158 3.6905,0.4772 4.31293,-1.0991 0.59269,-2.1528 z m -6.89633,8.3014 0.27207,-1.0426 -0.86654,-1.174 -1.36313,-1.1779 -2.68542,0.7605 3.45712,2.7076 1.1859,-0.074 z m -7.15464,-8.2958 -0.86174,1.3705 -1.54162,0.03 -1.15093,2.2297 1.50557,0.031 1.98839,-0.5197 3.31076,-0.7776 -0.55998,-1.647 -1.7602,0.3166 -0.93025,-1.0337 z m -25.71156,-5.1143 -0.30315,-1.3818 -1.14957,-0.2962 -2.18765,-1.5189 -3.40126,-0.2297 -2.13419,3.713 2.55543,0.2853 0.3838,1.6693 5.01734,1.5975 1.20147,-0.4851 2.03556,0.3843 3.14786,1.481 2.57592,0.6958 2.89113,0.287 2.54906,-0.1056 2.96241,1.5606 3.32183,-1.4759 -3.26922,-2.3038 -4.1636,-0.7072 -0.85392,-2.5158 -5.10132,-1.8678 -0.71621,1.6011 -5.36172,-0.3871 z m -7.69124,-3.596 0.37661,-6.0193 0.86199,-4.8457 -1.31196,-2.4673 -2.0617,-0.3448 -0.94335,-2.1761 -0.44438,-2.7206 -1.01145,-0.1 -1.60519,-1.3546 1.13768,-3.1852 -2.15251,-1.78205 -1.66301,-3.26628 -2.41458,-2.67156 -2.8657,-0.0612 -2.77814,-4.19101 -1.60677,-1.62138 -2.27856,-2.6416 -2.66341,-3.8078 -4.39299,-0.75186 -1.81908,-0.15685 0.34447,1.98125 3.11549,4.29163 2.19501,2.18252 1.56453,3.33548 2.5916,2.45549 1.0814,3.04477 0.84793,3.35385 2.46925,3.2515 2.08271,5.4602 1.34065,2.9223 2.04786,3.1738 1.12812,2.361 3.49017,3.1809 2.21836,3.2519 3.11895,-0.081 z m -328.15645,-245.5393 -3.46757,-0.14805 -3.57438,1.12124 -2.56717,-0.59726 -3.37441,1.15494 -3.0542,-1.43583 -3.24047,0.31051 -1.67344,1.38451 4.35471,0.50128 -0.0134,0.6379 -3.83335,0.42422 4.45489,1.08103 -2.26411,0.99018 5.87055,0.71685 2.78045,0.33562 1.90465,-0.41545 6.3553,-1.54247 2.94247,-1.68092 -2.23687,-1.47119 0.63638,-1.36711 z m 70.02964,79.938 -1.91698,0.29595 -2.5804,0.3696 -3.00048,-0.31025 -0.27116,1.74558 3.66144,1.73583 1.32377,0.36931 2.03592,1.29164 0.43598,-1.7625 -0.44579,-1.0584 0.7577,-2.67676 z m -16.46176,-9.96567 -1.21486,1.02452 -1.38691,-0.16552 0.64097,1.89632 0.24259,4.0346 0.99205,0.8928 0.9933,-1.12347 1.1608,0.21208 0.17503,-4.42053 -1.60297,-2.3508 z m -235.15735,83.68417 1.94797,-0.0707 -0.31427,-1.03867 -1.33624,-0.9102 -1.80488,-0.33962 -0.60877,-0.1276 -1.19542,0.26392 -0.45464,0.86608 1.38163,1.38198 1.46001,0.60919 0.92461,-0.63439 z m 573.35352,-70.01021 -1.98612,-3.51452 0.40937,-3.39984 -1.52265,-2.7159 -4.15581,-4.59951 -2.29346,0.60527 0.1982,2.0911 2.63576,3.75284 0.74183,4.12377 -0.7235,1.31909 -1.92378,3.41534 -2.5727,-1.63445 0.45651,6.11551 -3.11403,-0.70768 -4.63348,1.03247 -0.75901,2.37563 -1.76766,1.80425 -0.35976,2.20277 -1.9827,1.08318 2.12485,2.41908 2.1058,1.02932 0.71913,3.20204 1.85357,1.38655 1.0748,-1.50098 -0.87858,-6.02169 -3.81829,-2.58555 3.01749,-0.0672 2.30813,-1.64795 4.1482,-0.76996 1.35469,2.61373 2.38543,1.34905 1.79261,-3.99674 4.45604,-0.21377 2.48685,-1.6372 0.0854,-2.44162 -1.35892,-1.72811 -0.50423,-2.73832 z m -6.80295,-23.31194 -2.61484,-1.0746 -5.13694,-3.3018 0.96029,2.46801 2.21837,4.43318 -2.52873,0.17941 0.36134,2.49583 2.3632,3.25347 2.7516,-0.0494 -0.89189,-3.57836 5.3361,2.23094 0.0925,-3.23619 3.09145,-0.88619 -2.98827,-3.60784 -0.8195,1.35703 -2.19472,-0.68344 z m -4.29327,33.66739 -2.2668,-0.75406 -0.37674,1.47043 -1.66911,-0.40513 -0.47556,2.09315 0.73465,1.66994 2.15591,1.00545 -0.23808,-2.06308 0.96276,-0.81736 1.59084,1.12856 0.48195,-2.12678 -0.89982,-1.20112 z m -121.86835,104.5821 1.12224,-1.10663 0.19471,-4.04534 -1.61879,-4.03945 -1.49984,-2.72881 -2.09898,-2.15097 -0.82104,6.28889 0.8267,5.58084 1.49312,3.09115 2.40188,-0.88968 z m -88.68829,76.72096 -0.5535,-2.5332 -0.65697,-1.634 -0.89308,-1.6504 -1.01027,1.7197 -0.16989,2.3088 -1.68061,2.6637 -1.15965,-0.4604 0.29025,1.6362 -0.94448,1.9236 -2.42677,2.3511 -1.71367,2.1714 -1.22381,0.051 -1.06993,0.6885 -1.59604,0.7798 -1.39251,0.1401 -0.51746,2.4089 -1.10056,2.1205 -0.004,3.4834 0.36234,2.3771 0.51535,1.7809 -0.4214,2.3905 -1.52716,2.837 -0.102,1.2428 -1.31453,0.6458 -0.7002,2.6834 0.0363,2.6692 0.71687,2.9468 -0.10393,3.2633 0.57732,1.9352 2.03779,1.3089 1.47619,0.9327 2.52223,-1.5457 2.2969,-0.867 1.63919,-4.261 1.51672,-5.1418 2.30013,-7.0598 1.77217,-5.1711 1.41935,-4.396 0.40341,-3.206 0.82602,-0.876 0.35629,-1.6096 -0.34433,-2.8178 0.59448,-1.1275 0.79994,2.2315 0.56481,-1.1198 0.39366,-1.8275 -0.61036,-1.7851 -0.18014,-4.6023 z M 549.40647,3.08522 l -4.90799,-0.23523 -1.88533,0.28269 -2.83323,-0.22767 -5.88793,0.2649 2.17902,0.45133 2.76796,0.0176 0.39354,0.28083 5.72611,0.17345 5.57148,-0.12278 2.72726,-0.54477 -3.85089,-0.34037 z m -0.78531,2.73717 -2.86289,-0.26598 -0.85968,-0.4322 -3.97833,0.22903 1.24423,0.37294 -1.28624,0.30778 3.49309,0.282 4.24982,-0.49357 z m -12.92929,-2.0411 -2.48494,-0.35023 -2.82162,0.0344 -0.6842,0.34386 -2.74483,0.0142 -1.09816,-0.35252 -5.21499,0.36071 1.58349,0.83033 3.88411,0.9583 2.95928,0.34316 -1.71405,0.43176 4.30355,0.76734 2.35213,-0.05 0.77297,-1.03151 1.67263,-0.2264 0.93788,-0.85208 4.79592,-0.4354 -6.49917,-0.78593 z m 422.41843,378.6889 0.84507,-3.0297 -1.59227,-0.8862 -0.47172,-1.905 -1.1135,0.2695 -0.12647,2.4249 0.4999,3.0099 0.50881,1.3964 -0.39011,0.5947 -0.16837,2.2517 -1.07858,2.1599 -1.88404,2.5541 -2.53213,1.1512 -0.76096,1.191 2.01254,1.3103 -0.22313,1.7933 -3.09311,2.6613 0.78513,0.4637 -0.08,0.8427 2.77202,-1.2812 2.62618,-2.2138 2.03045,-1.7532 0.74305,-0.6076 0.5963,-1.4096 1.27857,-0.9996 1.93677,0.068 1.91546,-1.9271 2.32429,-2.9519 -1.10176,-0.3862 -2.20878,1.2732 -1.60709,-0.2666 -1.48544,-1.0883 1.00812,-2.539 -0.68189,-0.9198 -1.30615,2.2987 0.0228,-3.5494 z m -13.04598,15.7766 0.25048,-1.3777 -2.69391,1.4975 -1.46224,1.7992 -1.4628,0.8117 -2.59256,2.3778 -2.54892,1.6435 -3.21026,1.6484 -2.57267,1.1912 -2.00657,0.5871 -5.12334,3.0569 -2.82053,2.2722 -0.30909,1.1167 2.58474,0.2131 0.95819,0.9971 2.26205,0.064 1.8303,-0.8627 2.87889,-1.3571 3.4819,-3.1026 1.99496,-2.0286 2.92464,-1.1754 1.98131,-0.039 0.0303,-1.5085 2.10539,-1.2681 3.13451,-2.3384 1.86903,-1.48 0.82704,-1.3514 0.0845,-1.3628 -2.61645,1.3076 0.22115,-1.3323 z m -90.08144,-183.52381 -0.34982,-1.42581 -0.45515,-1.95101 -2.48807,-1.83598 0.5141,2.99449 -1.96975,0.10302 -0.27126,1.72966 -2.0236,1.06193 -1.17294,-1.75529 -1.37814,1.46086 -1.65968,1.0911 -0.80138,3.27194 0.56156,1.13706 1.89039,-2.16717 1.33483,0.14948 0.73229,-1.60967 1.94904,1.83593 -0.69541,1.84695 1.01459,2.81341 3.47201,2.25744 0.67479,-1.82306 -1.12512,-2.86446 1.14145,-1.9705 1.3607,3.96143 0.65865,-3.55621 -0.36861,-2.17812 -0.54547,-2.57742 z m -4.30281,-14.48909 -0.98867,-1.43643 -2.69102,-0.0848 2.14747,2.94139 0.24593,1.46017 -1.6874,-0.30781 0.75962,2.33687 0.86864,0.20058 0.4684,2.71821 1.22123,-0.86626 -0.99928,-2.3842 -0.23703,-1.29562 2.29838,1.02416 -1.40627,-4.30622 z m -3.24011,7.27094 -0.21942,-3.68504 -1.57902,3.72909 0.11367,-2.60142 -1.51149,0.22691 -2.9e-4,2.39859 -0.56944,1.08329 -0.45336,1.03572 2.02941,2.67635 0.75206,-1.14684 0.58978,-2.44548 0.8481,-1.27117 z m -12.90862,-31.5079 -1.66793,-0.004 -0.15173,3.43673 0.91445,5.95609 -1.35791,-1.25511 0.79551,3.65463 0.71656,1.66556 1.75745,2.20051 0.11773,-1.38057 0.98476,0.88582 -0.69977,0.9749 0.126,1.58551 1.52482,0.84821 2.43346,-0.56737 2.14884,2.29938 0.4867,-1.41034 1.35632,2.01894 2.46835,1.88836 0.0109,-1.77301 -1.05763,-0.92356 -0.0823,-2.09075 -3.83925,-2.12655 -1.15076,0.45367 -1.54649,-0.42238 -1.16409,-3.04978 -0.14117,-3.08065 1.38538,-1.26444 0.0848,-3.16531 -1.52217,-2.72367 0.10277,-1.57263 -0.4662,-0.96267 -0.62879,0.98667 -1.93863,-1.08179 z m 6.20253,25.28099 0.69067,1.83526 0.067,1.96919 0.32985,1.79529 1.62768,-1.16037 1.07628,-1.63971 -0.16934,-1.61176 -1.77655,0.006 -1.84559,-1.19358 z m -1.67583,-4.53423 -1.18784,-1.38392 -2.40771,-0.14104 1.88039,2.9292 1.48146,1.92084 0.2337,-3.32508 z m -6.51924,14.48509 1.16827,-2.65998 1.58911,-2.12892 -0.90666,-3.14855 -0.97316,3.83652 -1.36571,2.67581 -1.76245,2.39149 -1.10036,2.71089 3.35096,-3.67726 z m 106.1629,62.82171 0.48614,-1.0875 -1.22085,-1.3188 -1.17961,-2.4645 -0.79141,-0.8823 -0.22645,-1.1578 -0.4137,0.3763 0.39831,2.9628 1.03669,2.4684 1.08969,1.4918 0.82119,-0.3884 z m -7.06284,-9.0224 -0.23053,-2.025 -1.01059,-1.2467 -1.05637,-1.6365 -1.14679,-0.9356 -0.92721,-0.8575 -1.48585,-1.0915 -0.81343,0.9415 1.99382,1.1457 1.53569,1.6627 1.21766,1.2767 0.58038,1.5051 0.40267,2.2984 0.94055,-1.0373 z m -3.49406,3.8065 1.0982,-2.3752 0.17993,-2.1595 -0.53496,-0.6394 -1.69029,0.074 0.18282,2.2944 -1.65597,1.3879 -0.88101,1.3312 -1.6255,0.2971 -0.13977,-2.0655 -0.40983,0.096 -0.54449,1.8652 -1.56014,0.3043 -2.48463,-0.5678 -0.31488,1.2033 1.529,1.0844 2.22084,1.129 1.49356,0 1.51291,-0.9094 1.6081,-0.9449 0.5207,-1.0906 1.49541,-0.3198 z m -61.39468,-252.55442 -1.74771,-1.19477 -1.52698,0.72446 1.17462,0.561 2.10007,-0.0907 z m -27.217,48.56496 -3.33012,-2.95253 -2.25534,-2.83633 -3.08211,-2.73528 -2.16646,-1.85173 -0.69205,0.39142 2.0112,1.29829 -1.0566,1.29941 2.98034,3.91575 3.65339,2.86836 2.96847,3.96789 1.16683,2.27606 2.70178,3.28852 1.8973,3.00797 2.29562,2.61984 -0.11368,-2.41735 3.17741,1.88089 -1.48716,-2.17903 -4.65183,-3.16213 -1.80829,-4.38843 4.29169,0.99533 -6.50039,-5.28692 z m -40.89916,-55.39162 -5.43602,-0.37169 -3.94682,-0.21169 0.10087,0.45647 4.39274,0.56831 3.33426,0.13062 1.55497,-0.57202 z m -10.66551,2.82475 -0.73996,-0.41412 -3.54705,-0.59236 -2.32361,0.14224 -1.16876,0.61555 0.44782,0.0834 4.30957,0.17641 3.02199,-0.0111 z m -1.34176,-3.49979 -8.01479,-0.72501 -5.26179,-0.0589 -2.29153,0.25299 0.0678,0.95314 5.02884,0.93848 2.87608,-0.34506 7.35122,0.0402 0.24416,-1.05584 z m -82.10823,-3.48533 0.14642,-0.45898 -5.47707,-0.61601 -1.51476,-0.0687 -1.47867,0.1189 -2.22546,1.47445 10.54954,-0.44963 z m -10.54447,-0.64384 -0.37305,-0.94764 -5.26548,-0.93482 -4.12262,-0.45179 -3.97182,0.19966 -4.45288,0.63352 2.783,0.19152 2.08624,0.72567 3.54945,0.40569 5.66315,0.31553 4.10401,-0.13734 z m -76.31241,11.8296 -4.54404,-1.43631 -1.05023,-1.40131 2.41878,-1.55376 2.24177,-1.49969 5.446,-1.38602 5.66336,-0.66547 6.58412,-0.67124 1.07357,-0.41028 -1.66552,-0.50844 -3.71098,0.16575 -3.08208,0.48118 -6.39807,0.24751 -6.04707,0.87273 -4.05432,0.74375 0.84938,0.65835 -4.15,1.32188 1.92048,0.18921 -3.36617,1.35367 0.45798,0.89627 -1.90825,0.35915 0.68397,0.92014 3.86897,0.46517 0.87896,0.7826 6.75848,0.23184 1.13091,-0.15668 z m -18.94695,-13.52618 0.67636,-0.14224 -2.93788,-0.20062 -1.74031,0.15053 -1.00402,0.22313 -0.50236,-0.25073 -2.91036,0.0111 -3.67705,0.16893 4.28575,0.0285 -0.9687,0.29775 2.18321,0.23222 2.17887,-0.16247 0.19817,-0.15876 1.69611,-0.0725 2.52221,-0.12479 z m -465.54602,21.53018 1.88325,-1.28071 -2.7525,-1.99241 -2.99587,-1.48267 -11.2,8.18308 2.42808,-0.92313 0.39569,-1.00937 3.2014,-0.50406 -1.51469,0.79032 0.15045,0.75249 2.77645,-0.27991 1.68719,0.35313 -0.75296,0.94504 2.00378,0.64222 0.64111,0.77502 1.91612,0.0668 1.43754,-0.46392 2.76794,-2.14081 3.75313,-0.22305 3.27755,-0.93166 -1.59073,-1.95712 -5.27634,-0.3063 -1.50518,1.50704 -0.73141,-0.52006 z m 3.89486,-8.31051 2.70325,-0.42206 0.51847,-0.23868 -2.2117,-0.49474 -1.71054,-0.004 -0.36536,0.0721 -1.74771,1.19477 2.81359,-0.10778 z m 693.02874,143.71416 -0.0852,-5.95519 -0.20847,-2.22974 -1.57087,-1.09852 -1.31032,2.79485 -0.53169,3.64063 1.08281,2.75851 2.28967,3.15178 0.33404,-3.06232 z M 155.51344,46.99749 l 3.16231,-1.25237 -0.15816,-0.81154 -1.31478,-0.17593 -1.58927,0.39729 -2.95838,0.93125 -0.8652,1.23762 0.48823,0.68666 3.23525,-1.01298 z m -23.17752,-16.42036 -1.18505,0.85793 0.26437,0.20184 2.05912,-0.13308 0.31271,0.41664 1.03363,0.5023 2.22047,-0.48885 0.4789,-0.25045 -1.76553,-0.30624 -1.0027,-0.6015 -1.62451,0.23379 -0.79141,-0.43238 z m 2.57839,9.23015 0.85122,-0.95366 -1.495,-0.22391 -2.65071,0.42343 0.57986,0.67572 0.9277,0.46747 1.78693,-0.38905 z m -62.024859,133.99745 1.05509,-0.5904 1.315192,-0.80648 0.129182,-0.20922 -0.296297,-1.32164 -0.288935,-0.50469 -0.385289,-0.32673 -0.849801,-0.63616 -0.186334,-0.0697 -0.26974,0.35109 -0.04288,0.74075 -0.667034,0.61462 -0.266079,0.41962 0.03578,1.37398 -0.39457,1.056 0.52321,0.54144 0.588509,-0.6325 z m 0.348082,-5.88213 0.374874,-0.45122 -0.527407,-0.5762 -0.854892,-0.3568 -0.373928,0.32184 -0.05269,0.23455 0.214653,0.30538 0.214943,0.79146 1.004447,-0.26901 z m -1.201276,-2.00092 -1.291265,-0.16031 -0.357339,0.45696 1.428928,0.10897 0.219676,-0.40562 z m -2.262052,-0.545 -0.367283,-1.23846 -0.14544,-0.24049 -0.907344,0.51611 0.05486,0.14956 0.05829,0.84976 0.906581,0.13179 0.179327,0.0483 0.221011,-0.21653 z m -3.768087,-2.47055 0.251865,-0.87062 -0.599823,-0.0794 -0.546037,0.36608 -0.237628,0.27235 0.67819,0.68185 0.453433,-0.37031 z m 900.388832,148.25616 -1.25727,-2.1844 -0.32702,1.0201 0.55533,1.6638 1.02896,-0.4995 z m -0.78732,-5.8356 -1.09443,-1.174 -0.54338,2.924 0.17448,1.052 0.62267,-0.2064 0.64434,0.4776 0.19632,-3.0732 z M 524.33405,91.62722 l -0.54182,-2.79164 -1.54833,1.24018 -0.45529,1.21151 0.66239,2.20525 1.1627,0.67012 0.72035,-2.53542 z m -12.98813,7.63992 0.0684,-0.18599 -0.0187,-0.0659 -0.23243,-0.38435 -0.42283,-0.14252 -0.51844,0.0402 -0.0188,0.0886 -0.004,0.2006 0.0628,0.0588 0.25439,0.043 0.7835,0.38612 0.0457,-0.0387 z m -2.89848,0.17303 0.0318,-0.1554 0.0803,-0.0829 0.0182,-0.0951 -0.0807,-0.0597 -0.007,-0.0551 0.0819,-0.1231 -0.0985,-0.0315 -0.63839,0.20772 -0.30049,0.17863 -1.03689,0.80876 -0.002,0.13739 0.0626,0.10618 0.16342,0.0332 0.10487,0.17629 0.19141,-0.17695 0.14634,-0.0856 0.16878,0.0471 0.11611,0.10687 0.0641,0.33537 0.0769,0.0845 0.25465,0.056 0.44037,0.22524 0.20569,-0.10739 0.22593,-0.17914 0.11804,-0.30335 0.13749,-0.26351 0.16338,-0.23945 0.11589,-0.23636 -0.0356,-0.21237 -0.13477,-0.0537 -0.13616,-0.0315 -0.25404,0.10043 -0.24358,-0.11169 z m -4.27832,2.92505 0.12492,-0.0466 0.32537,-0.35798 -0.0276,-0.16351 -0.12433,-0.11318 -0.54658,0.13536 -0.11603,0.16713 -0.006,0.16638 -0.1104,0.0281 -0.0824,0.23426 0.0857,0.0838 0.38653,0.0733 0.0908,-0.20704 z m 0.38297,0.83195 -0.004,-0.0992 -0.24371,-0.0353 -0.155,-0.19001 -0.0481,0.0964 -0.0382,0.0953 0.0105,0.13651 0.25223,0 0.16858,0.0411 0.0576,-0.0447 z" />
</svg>
