<?xml version="1.0" encoding="UTF-8" standalone="no"?>
<svg
   xmlns:dc="http://purl.org/dc/elements/1.1/"
   xmlns:cc="http://creativecommons.org/ns#"
   xmlns:rdf="http://www.w3.org/1999/02/22-rdf-syntax-ns#"
   xmlns:svg="http://www.w3.org/2000/svg"
   xmlns="http://www.w3.org/2000/svg"
   xmlns:sodipodi="http://sodipodi.sourceforge.net/DTD/sodipodi-0.dtd"
   xmlns:inkscape="http://www.inkscape.org/namespaces/inkscape"
   enable_background="new 0 0 1000 2001"
   height="995.04999"
   pretty_print="True"
   style="fill:#483737;stroke:#ffffff;stroke-linejoin:round"
   version="1.1"
   viewBox="0 0 1001 995.04999"
   width="1001"
   id="svg2"
   inkscape:version="0.48.4 r9939"
   sodipodi:docname="mercator_joined.svg"><sodipodi:namedview
   pagecolor="#ffffff"
   bordercolor="#666666"
   borderopacity="1"
   objecttolerance="10"
   gridtolerance="10"
   guidetolerance="10"
   inkscape:pageopacity="0"
   inkscape:pageshadow="2"
   inkscape:window-width="640"
   inkscape:window-height="480"
   id="namedview19"
   showgrid="false"
   inkscape:zoom="0.11794103"
   inkscape:cx="500.5"
   inkscape:cy="496.525"
   inkscape:window-x="0"
   inkscape:window-y="0"
   inkscape:window-maximized="0"
   inkscape:current-layer="svg2" />

utf-8<defs
   id="defs4">
utf-8utf-8<style
   type="text/css"
   id="style6">path { fill-rule: evenodd; }utf-8utf-8</style>

utf-8
utf-8utf-8
utf-8</defs>

utf-8<metadata
   id="metadata8">
utf-8utf-8<views
   id="views10">
utf-8utf-8utf-8<view
   h="2001.0"
   padding="0"
   w="1000"
   id="view12">
utf-8utf-8utf-8utf-8<proj
   flip="auto"
   id="mercator"
   lon0="65.3146660706" />

utf-8utf-8utf-8utf-8<bbox
   h="6245.8"
   w="6283.19"
   x="-3141.59"
   y="-2891.13"
   id="bbox15" />

utf-8utf-8utf-8</view>

utf-8utf-8</views>

utf-8<rdf:RDF>
  <cc:Work
     rdf:about="">
    <dc:format>image/svg+xml</dc:format>
    <dc:type
       rdf:resource="http://purl.org/dc/dcmitype/StillImage" />
  </cc:Work>
</rdf:RDF>
</metadata>

utf-8<path
   inkscape:connector-curvature="0"
   id="---"
   data-name="---"
   data-id="---"
   d="m 611.48613,326.42835 1.01774,1.16899 1.5391,0.43731 1.60556,1.39577 0.69361,2.56222 -0.41413,1.59089 -3.27959,1.92929 -2.39118,-0.32819 -3.23595,0.56768 -3.98483,-1.42664 -4.84839,-2.62191 -4.59562,0.0795 -3.23695,1.05466 -3.33902,2.4025 -5.29425,-0.48834 -1.16674,2.79046 -4.27766,0.14598 -3.0812,3.46519 1.76087,1.71346 -1.35134,2.76387 2.02931,1.95378 1.6456,3.46638 3.03255,-0.0624 2.68631,1.83789 1.91978,-0.40835 0.64036,-1.43312 2.99436,0.11631 2.24879,1.85169 4.21593,-0.38671 1.91016,-1.98915 2.32329,0.79695 1.69413,-0.29469 -1.05205,1.29732 1.02133,1.55793 -0.67983,1.40617 0.25938,2.59538 -0.0522,0.11766 -1.38163,2.36811 -0.98931,2.71335 -0.0766,0.0344 -0.39734,0.83807 -0.56342,2.4835 -0.73466,1.52826 0.18962,0.18492 -0.80816,1.07202 0,1e-5 -1.36676,0.81711 -2.16522,-0.18344 -2.22625,-0.76682 -0.64461,1.05993 -0.75681,-1.61044 -1.97508,-0.41131 -2.44972,0.26869 -1.14337,0.93182 -2.13858,1.02698 -1.28625,-0.50436 -2.75794,-0.95933 -2.67303,-0.86102 -3.69586,0.0539 -0.67689,-1.07849 -2.76011,-0.38407 -0.88436,-0.55939 -1.03425,-0.0139 -0.94734,-1.47114 -3.75772,-0.67575 -1.91239,0.45063 -2.00153,1.5429 -0.87122,1.59316 0.64728,2.49215 -1.33142,1.48672 -1.35452,0.83548 -2.95923,-1.6031 -3.91519,-1.35619 -2.49356,-0.6308 -1.30086,-2.9057 -3.68597,-1.47166 -2.32061,-0.55139 -1.16653,0.28445 -3.26256,-1.13963 -1.05635,-0.51911 -0.69907,-1.58419 -1.43661,-0.0568 -0.52796,-1.82746 1.82849,-1.69618 0.36575,-2.94454 -0.96175,-0.85119 0.0187,-1.59182 1.38894,-1.69662 -0.19766,-0.66815 -2.35616,1.27865 0.0815,-1.7593 -1.94447,-0.41896 -3.02508,1.40642 -1.89968,0.21096 -1.12971,-0.80929 -2.96824,0.0269 -2.61583,1.36932 -1.401,-0.51516 -4.59461,0.28154 -4.70773,0.61754 -2.67511,1.05116 -1.7537,1.41842 -3.00319,0.5953 -2.67031,1.86317 -1.20664,-0.0363 -2.87709,-0.75128 -2.64153,0.23552 -1.6746,-1.44908 -2.04481,-0.0165 -0.87318,2.09419 -1.85612,3.49533 -2.0601,1.38362 -2.78694,1.52118 -1.78671,2.23511 -0.3725,1.73054 -1.05535,2.80622 0.69419,4.01345 -2.31884,2.66536 -1.39268,0.84594 -2.18878,2.16023 -2.5831,0.34781 -1.39661,1.20648 -0.0509,0.0439 -1.76073,3.18758 -1.85037,1.13067 -1.00274,1.90957 -0.0659,1.63776 -0.73524,1.78498 -0.9352,0.49163 -1.54613,1.93381 -0.95501,2.13516 0.17914,1.02013 -0.90893,1.56586 -1.06697,0.81649 -0.13106,1.38507 -0.11943,1.25907 1.46417,1.28319 0.71801,1.40813 -0.27726,1.47274 0.33547,1.46347 0.30705,2.89646 -0.34502,2.74438 -0.77543,1.43162 0.24058,1.56034 -0.66002,1.48301 -1.34574,2.02152 -1.22186,0.54577 1.38593,1.02174 1.1455,2.22873 -0.35499,1.26647 0.45575,2.18329 0.17671,0.60819 0.84692,0.60278 -0.0162,0.432 0.6377,0.79963 1.16954,0.18743 1.48297,1.18403 0.80766,0.46357 0.40645,0.62282 0.31537,1.24796 0.69339,0.5608 0.7112,0.36536 1.08025,1.10303 1.21835,1.66502 0.34034,2.07606 0.48605,1.02465 1.44708,1.50102 1.99974,1.12756 0.74837,0.20753 1.87055,1.80372 2.36656,1.52787 2.52396,2.12308 2.86302,1.32833 0.72763,-0.0245 0.53672,0.0732 2.75048,-1.02207 1.92854,-0.80458 3.29049,-0.48681 1.78083,-0.0322 1.93815,0.54524 1.26378,-0.0284 2.47616,0.79176 2.50301,-0.80869 1.54441,-0.95647 4.35488,-1.63392 2.23644,-0.59586 2.29573,-0.32596 2.45133,10e-4 2.08729,-0.0345 1.96658,1.84003 0.91453,2.01913 1.48713,1.74311 2.22195,0.0609 1.06812,-0.62429 1.0542,0.1465 2.88383,-1.00287 -0.0319,0.7702 0.71142,0.39953 0.56442,1.24792 1.26736,0.47217 1.08564,1.8397 -0.40566,2.19558 -0.95429,3.12078 0.52021,0.41894 -0.55983,2.05974 -0.67481,2.02229 -0.60648,0.88817 -0.0891,0.92298 1.6868,2.87067 1.83581,2.29444 2.85455,2.80894 2.28108,2.95128 0.74271,2.09811 0.38915,0.86622 -0.26413,0.54305 1.39153,1.7692 0.56873,1.87454 0.84276,2.71052 -0.85381,1.11429 -0.14915,0.58464 0.68228,1.68958 0.73983,1.7116 0.8307,1.01014 0.14541,1.60396 -0.29168,2.10116 -0.89113,1.26493 -1.59566,1.86384 -0.66217,1.16992 -0.90133,2.5807 -0.14455,1.2322 -0.95845,2.637 -0.38456,2.5441 0.2614,1.8262 0.16866,2.2369 2.26013,2.8605 0.60634,1.8485 1.46014,3.5525 1.43374,2.4631 1.08075,1.234 0.35556,1.6386 0.0623,3.6172 0.93075,4.7056 0.68472,2.2343 0.61322,3.0247 1.08707,2.2861 2.06433,2.3812 1.99428,4.1356 0.004,0.01 1.39583,2.7254 1.81901,3.0392 0.0726,2.5152 -0.89644,0.6001 0.90247,2.2183 -0.0155,1.9548 0.3692,0.9005 0.1312,-0.4649 1.19631,1.4998 0.93879,0.062 1.17535,1.2039 1.26349,-0.081 1.71609,-1.2756 2.37152,-0.5327 2.86488,-1.3236 1.15009,0.1752 1.68293,-0.408 3.01058,0.6449 1.37503,-0.6369 1.68824,0.4944 0.35843,-0.928 1.41608,-0.1738 2.90321,-1.2913 2.09763,-1.507 1.96055,-1.9753 3.13934,-3.3671 1.57527,-2.3166 0.77486,-1.6509 1.17722,-1.6237 0.54289,-0.4607 1.89552,-1.6039 0.71873,-1.4272 0.32815,-2.6111 0.69404,-2.2717 0.23843,-1.6333 -0.70998,-0.2083 -0.23814,-1.3013 1.21827,-1.1383 3.3406,-1.6601 2.29141,-1.0329 1.16115,-1.0842 0.41312,-1.2643 -0.65471,-0.519 0.45044,-1.4051 0.0795,-2.9507 -0.49083,0.15 -0.0345,-0.8963 -0.54806,-1.7515 -1.31731,-2.2514 0.23469,-2.1097 1.14449,-0.682 1.93916,-2.09 1.06884,-0.5356 3.13848,-3.1371 3.13116,-1.4124 2.53947,-1.1037 1.76863,-1.7957 1.07774,-2.0044 0.8284,-2.0553 -0.48849,-1.405 -0.1078,-4.46309 -0.34322,-2.49376 0.11427,-2.8218 -0.44944,-1.26677 -1e-5,-10e-6 0,0 -1.01941,-0.61726 -1.14961,-2.77796 -0.97006,-1.76202 0.18198,-1.34082 -0.15928,-0.85219 0.76475,-1.6916 -0.0833,-0.7276 -1.77842,-1.01893 -0.16453,-1.58344 1.28245,-3.43745 1.11852,-0.92018 0.54214,-1.85281 0.89203,-1.12285 0.39403,-1.95976 1.04114,-0.20381 0.68589,-1.15993 1.94544,-1.10977 0.62728,-0.65796 0.64061,-1.46507 3.04,-3.365 2.58939,-2.11303 4.15511,-2.75918 2.77992,-2.25077 3.26675,-3.79652 2.37155,-3.12121 2.38375,-4.09405 1.71728,-3.57764 1.33742,-3.13847 0.78275,-3.04668 0.58647,-1.02024 -0.0105,-1.48687 0.2565,-1.64853 -0.063,-0.78486 -1.05328,0.008 -1.31456,0.97162 -1.47266,0.2855 -1.28017,0.42116 -0.88766,0.0559 10e-6,-10e-6 -1.58173,0.0996 -0.99219,0.51671 -1.3776,0.1864 -2.44516,0.87907 -3.0235,0.33511 -2.61856,0.72289 -1.37905,-0.009 -1.25315,-1.18326 -0.54447,-1.17051 -0.90376,-0.52228 -1.19286,-0.77585 1.58474,-0.67917 0.0874,-1.17997 -0.6573,-0.88072 -1.36569,-0.85697 -0.86874,-0.98015 -1.50522,-1.64938 -1.54354,-1.63341 -3.79162,-2.71593 -1.52273,-1.40528 -0.76524,-2.65765 -1.6126,-3.37042 -1.52036,-1.08049 -1.05825,-0.72121 -1.01969,-3.51195 -0.40358,-3.04955 0.60919,-0.53951 -0.89581,-2.92947 -0.48761,-0.61416 -3.2353,-2.70179 -0.0896,-1.96757 0.55191,-0.52945 -2.49261,-3.37893 -0.89222,-1.73561 -1.02589,-1.67853 -2.09942,-4.85282 -1.70538,-3.16887 -1.151,-3.35897 0.28547,-0.29019 1.98203,4.55868 1.25375,1.4066 0.92569,1.01331 0.64764,-0.54796 0.75567,-1.63938 0.59775,-2.39285 0.78016,-1.2802 -0.27599,-0.83009 0.276,0.8301 0.0929,0.46172 -0.34393,1.26938 -0.12345,1.10945 -0.43179,1.73219 1.38292,-0.0151 1.41665,2.15523 1.69155,2.5134 1.08463,2.30302 0.81117,0.68836 0.77185,1.59341 -0.15187,0.6927 0.91338,1.75014 1.50062,0.62973 1.30254,1.1855 1.59321,3.34938 -0.11843,1.77952 0.3214,2.07686 1.83969,2.83224 1.23879,0.48626 1.92136,2.03204 0.78348,2.39516 1.48052,2.45275 1.43474,1.04454 0.21417,1.16045 0.83774,0.87446 0.36044,1.23671 0.12316,1.26118 -0.33676,0.55679 0.28494,1.31707 -0.55595,0.14 0.79826,1.18224 0.5436,2.12146 0.45418,0.84435 -0.0794,1.56154 0.72247,1.66486 1.92265,0.14474 0.8874,-0.38634 1.37488,0.0628 0.43006,-0.72462 0.72806,-0.20801 0.6072,-0.75322 0.70151,-0.16219 2.3319,-0.14829 1.77049,-0.54996 1.6235,-1.18709 0.83343,0.1693 1.22301,-0.15776 2.48707,-2.02308 4.43872,-1.34114 2.76569,-1.2163 0.0655,-0.98429 0.53743,-1.28401 2.00935,-0.77835 1.28316,-0.16416 1.85762,-0.97916 1.53264,0.27386 1.34416,-0.8069 -0.0138,-1.1761 1.08765,-0.7345 1.72785,0.0235 0.63519,-0.61634 0.27073,-1.42555 1.73504,-1.09638 1.27813,0.01 0.26197,-0.36096 -0.3415,-1.96856 0.44614,-1.49862 0.57763,-0.70647 1.26019,0.15551 1.03654,-2.03521 1.17019,-0.95345 0.44384,-0.83833 1.01099,-1.7857 0.005,-0.67036 -0.99434,-0.38109 -0.74888,-1.00096 -1.25358,-1.73356 -1.64518,-0.55274 -2.03749,-0.39672 -1.55086,-1.10452 -1.24526,-2.08653 -0.37724,-2.4273 0.36217,-0.55965 0.26182,-1.27792 -0.3435,-0.26912 -0.80888,1.05428 -1.75499,1.90071 -2.07222,1.96732 -1.90284,2.06335 -1.67777,-0.09 -2.29701,-0.0795 -2.17415,0.47962 -0.10263,-0.83492 -0.49423,0.14802 -0.52753,-1.16518 0.60304,-1.80192 -0.0489,-1.80188 -0.84061,-0.96845 -0.75864,0.33268 -0.74844,1.61772 0.18388,2.23248 -0.41542,-0.75063 -0.36992,-1.00638 -0.79869,-0.86224 -0.35154,-1.03622 0.27676,-1.0303 -0.1681,-1.2806 -1.89308,-1.30927 -0.47599,-1.09775 -1.36656,-0.71578 -1.0875,-2.71616 -0.89486,-2.39401 0.2479,-0.72767 -0.57964,-1.41214 1.64848,0.15722 1.03712,-1.25347 1.76532,1.06451 1.49489,-0.52015 2.04983,4.2545 1.85504,2.99461 2.67454,0.89383 2.80417,2.40003 3.39442,1.03091 2.80172,-1.50514 2.13453,-0.55728 1.32952,0.55269 1.18468,3.80126 3.13475,0.40049 3.02881,0.70722 5.22564,0.9271 3.91205,-0.43014 4.51307,-0.0572 5.11784,-0.57808 2.14615,2.33491 0.8284,2.19075 2.03605,0.76784 3.2582,2.5665 0.82036,1.18108 -1.33555,1.08504 3.62869,3.61803 1.95782,0.35628 4.04239,-1.78167 0.53873,2.78444 -0.01,3.57644 0.83056,3.74992 1.1508,5.62817 2.52684,3.95546 0.48016,1.79064 0.68916,3.57083 1.47579,2.73092 0.97324,1.34101 1.06554,2.85232 1.28589,3.94522 2.63032,2.6221 1.11464,-0.80647 0.93548,-1.91059 2.53272,-0.79747 -0.84548,-0.92795 1.26435,-2.15088 1.43747,-0.13672 0.0126,-4.81121 1.17707,-2.70345 -0.14728,-2.36891 -0.57834,-3.73162 0.83285,-2.19898 1.29751,-0.15249 2.502,-1.03591 1.38478,-0.71373 0.004,-1.33458 2.76785,-1.90491 2.0883,-1.84223 3.10906,-3.45437 3.99746,-1.98729 1.48282,-1.75406 -0.15962,-2.24007 3.42442,-0.62025 1.88964,0.0376 0.39776,-1.0929 1.07473,0.26824 0.78663,0.32654 0.40394,-0.54515 1.18195,0.60725 0.87219,-1.66838 -0.25265,-1.2403 2.55856,0.12051 1.16057,1.7498 0.52868,1.44156 0.16019,1.5202 0.79352,1.55041 1.97146,2.41545 1.62494,0.37841 -0.33963,1.06254 2.1773,3.38309 0.57964,2.73072 -0.95745,3.59339 1.72111,0.67732 1.55819,0.25706 3.15671,-2.06069 1.82992,-1.45421 1.20148,2.39947 0.50183,3.64109 0.9052,3.42996 1.1277,1.47928 -0.22566,3.10055 0.93391,1.6787 -0.85381,2.16813 0.26771,2.09577 -0.81778,2.7007 -0.30317,1.75311 0.52682,1.55849 0.4559,-1.64917 1.34574,1.33096 1.47608,1.58216 0.47513,1.3863 1.09741,1.07313 0.61251,1.18463 -0.30432,2.03239 1.00195,1.52036 0.38341,2.30707 1.60585,1.86161 0.32527,1.41718 3.28605,2.20661 2.62803,2.05854 1.96974,-0.18536 0.0531,-0.93945 -1.09238,-2.45806 -0.97841,-0.76628 -0.20283,-1.64643 -0.2703,-0.95692 0.29571,-1.26665 -0.15934,-1.87639 -1.1653,-1.86737 -1.64044,-1.68569 -0.63878,-0.26104 -1.43919,-1.45091 -1.68264,-0.32519 -1.55015,-1.6033 -0.49897,-2.42723 -1.12726,-2.56519 -1.80954,-0.0883 -0.19062,-2.03915 0.90318,-2.49467 1.49948,-4.14169 0.21963,-3.13377 2.4463,-0.0168 -0.40738,2.23992 2.37597,-0.0531 2.49382,1.30595 1.40488,2.92987 1.12941,1.47408 2.32516,0.41257 2.06074,1.60329 -0.7806,1.90843 1.00855,1.80315 3.46347,-2.61907 2.26615,-2.35105 3.18112,-1.82001 2.31668,-1.86569 0.37537,-5.00634 -1.27267,-5.30658 -1.68781,-2.31693 -2.52095,-1.78855 -2.5976,-3.80275 -2.12448,-3.08807 0.61021,-2.04356 2.31496,-2.79692 3.70865,-2.54771 1.31287,-0.48659 3.72687,0.95621 -0.65787,1.15253 0.72835,2.15439 1.53939,-0.17349 0.9484,-3.13967 2.93924,-0.45775 3.88191,-1.49849 1.57139,-1.49208 0.96047,0.9751 1.698,-1.33538 3.1303,-0.34573 3.86353,-2.54364 3.82018,-2.80811 2.57952,-3.66206 2.24993,-4.07012 2.0283,-3.39287 1.55216,-0.28311 0.70553,-2.50791 0.4269,-2.59762 -1.63498,-0.99547 -0.66462,-1.71788 1.7435,-0.88324 0.0451,-2.41542 -1.88648,-2.51818 -1.69068,-3.0325 -1.09123,-3.29068 -2.98977,-1.85525 1.42598,-2.38111 2.70124,-1.7194 1.29765,-1.86279 3.93287,-0.96874 -0.45016,-1.82675 -1.79633,-0.0932 -2.46611,-1.36631 -3.11294,2.50056 -2.19768,-1.01996 -0.093,-1.57526 -2.27347,-0.57848 -1.46388,-2.39664 1.41679,-1.66725 2.72421,-0.17234 1.7115,-2.32709 3.13618,-2.53053 2.42148,-1.29475 1.46732,1.91929 -2.19955,2.44054 0.58121,1.40296 -1.47622,1.65933 2.99121,-0.9762 2.04495,-1.68006 3.88348,-1.05081 1.31072,0.96943 1.6212,0.39285 0.18187,0.58806 -0.70481,1.93124 0.24748,0.65081 -0.65543,0.41726 -0.76065,1.55849 0.74687,0.56255 0.71959,0.32246 0.0979,0.66112 0.81419,-0.2915 0.33518,-0.66104 1.34904,0.66949 1.90385,2.98923 -2.06319,0.5844 1.22732,3.58354 -0.51475,2.55295 0.31063,1.83892 2.50214,-0.28838 2.22037,-1.40088 2.51535,-0.65133 1.04702,-1.87213 -0.0218,-3.96622 -0.68758,-2.2578 -2.39779,-4.16046 -1.57326,-1.56419 -1.1053,-0.58219 0.32412,-0.39632 0.087,-1.55939 1.2055,-0.97229 1.84987,-0.59721 1.04731,-1.07719 0.49365,-0.645 1.43632,-0.81069 -0.10507,-2.65349 0.8294,-1.26732 1.20579,-1.26799 1.05545,0.22514 2e-5,3e-5 1e-5,-3e-5 10e-6,1e-5 -10e-6,-2e-5 0.43296,-1.25133 3.72833,-2.77592 1.745,1.84742 1.75167,-0.0491 3.70144,-2.23235 1.79434,-2.26972 3.74158,-4.50158 3.77053,-4.63369 0.93058,-2.79926 4.1867,-5.97577 1.25319,-6.80396 0.23428,-5.23104 2.17169,-4.48197 -0.0942,-3.89693 -4.01055,-5.15479 -3.04689,-0.30821 -1.77759,2.36105 -2.698,-1.04724 -1.36586,-2.98037 -4.37644,-0.60538 10.64525,-11.69246 8.99816,-10.25318 9.13723,-1.60734 8.4933,0.93386 3.44139,-2.68155 4.31789,0.83262 -0.20117,3.91615 4.29478,-0.55261 6.19972,-1.4088 -2.29358,-3.35153 6.95172,-9.48638 7.17122,-1.9833 2.27545,7.08242 7.04564,-6.31197 1.66808,-4.88315 3.37536,-0.50752 -2.23294,8.30068 -4.99347,4.53514 -4.78167,5.68355 -4.96197,6.72978 -4.31661,1.17083 -0.145,2.42267 -2.3437,3.04922 -1.33544,6.90357 1.55044,10.57308 1.18939,6.64732 1.02719,3.06459 4.00387,-4.15523 0.83266,-4.63104 4.14109,-1.12782 0.964,-5.36703 4.85755,-2.44947 -1.15564,-2.08876 1.18922,-4.124 2.57878,-0.18472 0.37214,-7.40354 -3.16372,-1.16578 -0.099,-2.12103 3.33272,-5.17872 0.89495,-3.60401 3.71513,0.75716 2.67573,-2.37615 1.26383,2.06203 7.23744,-4.38537 3.97331,3.87005 1.02125,-2.5329 4.03194,-3.47806 4.25037,-4.0645 2.46988,-0.68307 7.76392,-4.47555 5.17764,1.30644 0.71697,-1.58985 -0.32228,-2.51191 -1.28358,-1.6547 -1.65347,-5.15955 -2.50478,-3.41482 3.59978,0.47406 3.57115,-2.86189 0.02,-0.0353 0,-28.35861 -3.8889,-3.41067 -7.9888,-3.81029 -5.77812,0.48231 -8.86238,-2.26621 -1.23681,3.58685 2.24633,5.0307 -3.44236,2.46274 -4.83878,-6.93458 -5.26472,0.87917 -5.24414,-1.56166 -4.92614,0.20925 -3.71816,1.62714 -3.42186,-2.26665 0.33791,-5.96478 -2.31255,-3.46826 -5.53031,-1.40155 -11.21661,1.60905 -7.27144,-6.59625 -2.36439,-5.30852 -25.08842,-6.00784 -3.66739,4.03173 2.00534,8.32545 -4.54373,-1.23107 -2.04594,2.45319 -5.37672,-2.69326 -4.73409,2.35602 -4.456,-3.9616 -2.68033,9.099 -4.36831,-3.46284 -3.48886,-6.92155 1.64325,-3.80278 -1.27864,-5.9851 -4.48561,-5.09317 -4.43455,0.0539 -5.89509,-1.7269 -0.15863,7.40757 -11.61295,-1.41724 -0.67686,-4.53573 -8.91253,-1.63143 -4.44169,1.56102 -1.22009,2.53606 -1.41677,-6.3369 -2.50098,1.89306 -4.10886,-2.52898 -3.44444,-1.4204 2.0868,-3.05147 7.29981,-5.86478 3.07281,-3.21383 0.69105,-5.80232 -2.22961,-4.31201 -6.26181,-5.79024 -8.12072,-0.16139 -2.53833,2.91728 -0.74964,-5.97984 -6.29203,-1.89921 3.78234,-3.10266 -4.764,-4.17061 -6.55767,5.26425 -2.65422,5.28642 -0.7657,5.19134 -5.10314,-0.19676 -6.23425,6.18088 -2.2728,-2.58303 -7.29386,1.07257 -0.92675,3.12508 -7.33495,1.50014 -5.4008,5.46422 -3.19136,0.29767 -3.21462,6.95381 2.25762,5.33337 -6.01956,1.30963 -6.68128,-0.43973 -4.8303,2.00313 0.27672,10.19227 2.47025,7.55547 -5.13328,-5.13485 -5.76492,0.48351 -4.64866,3.54774 1.26661,6.31829 -2.97258,-1.57829 1.09591,-8.59254 -1.45972,-5.14395 -1.38542,0.21377 0.64323,6.56105 -4.97145,5.9901 3.6075,6.97224 -2.21647,8.20791 0.66803,4.38094 3.03744,0.63865 -1.29605,5.03963 1.61872,4.22408 -2.40414,3.45983 -0.73756,3.52331 -3.05616,1.80052 -1.10489,2.49315 -3.17503,-1.016 5.44083,-10.11358 1.19214,-4.96592 -3.06436,-4.69055 0.63106,-10.97857 -0.89381,-5.88767 -1.72778,-2.75489 2.63311,-7.22015 -0.57913,-5.1381 -7.35428,-2.49245 -2.06567,1.86207 -1.82305,8.34615 -5.12612,7.92128 0.0841,2.713 1.48567,6.43551 -0.91578,3.79477 3.34761,0.77486 0.0812,1.66322 2.82289,4.07627 -1.857,3.94088 -10.0668,-8.72454 -3.84476,-2.46664 -8.20556,-2.42277 -1.44444,2.64037 2.91067,4.53819 -3.15673,5.0442 -3.16505,-4.58201 -4.12495,3.16633 -5.2065,0.2089 -1.99,2.56305 -3.44572,-0.77835 2.73859,-4.60061 -2.09523,-0.37871 -9.6938,6.48847 -5.8025,3.49578 -0.67945,4.57302 -4.29169,1.5278 -2.18647,-2.41808 -0.019,-4.00374 3.51714,-0.90096 -1.58706,-4.14757 -7.76994,-2.42175 2.04203,4.65222 -1.35989,4.36929 2.3163,4.24759 -1.61808,4.77123 -2.59364,-2.40999 -2.56375,-0.40076 -6.47358,6.68618 1.86944,4.83765 -2.3393,1.58049 -6.71503,-4.06575 -1.76795,2.48526 1.67331,2.77797 -0.359,3.08276 -2.17067,-1.64392 -3.57605,-1.95048 -0.18149,-6.69853 -0.17724,-3.12788 -4.52869,-5.05495 2.03964,-0.8923 12.40067,5.26987 4.53577,-1.83062 3.08367,-3.66446 -0.18356,-4.75617 -2.13202,-3.47853 -10.4955,-8.57334 -7.60692,-1.86024 -4.56319,-4.81869 -2.86567,2.7893 -1.1e-4,7e-5 -3.04335,-5.07103 3.57773,-2.20671 -8.68853,-6.18703 -4.98749,1.70715 -5.0653,-0.37758 -4.23,6.93453 -4.57035,-0.43602 -6.09552,3.5614 -7.63362,9.80967 -4.65217,5.62641 -6.67444,13.64815 -5.0851,9.22595 -5.48417,6.53337 -7.33475,5.1432 -2.55784,3.84448 0.87822,13.15359 0.99333,5.82008 3.84143,2.69475 3.70347,-1.2355 5.48488,-6.21861 1.86337,3.32553 2.1127,7.44594 2.32544,5.7685 0.88281,4.67623 3.21614,-0.22515 1.57211,-3.92007 3.36974,0.48168 1.57756,-4.72414 1.05966,-8.77225 2.889,-1.25578 2.55138,-6.17834 -2.6566,-3.11547 -1.9772,-4.03577 2.02284,-8.34638 5.36416,-5.29594 4.41877,-5.09734 -0.43365,-3.98374 2.69349,-4.65173 4.77834,-1.92388 3.86296,3.19883 0.28896,2.81387 -1.85432,1.37462 -6.35491,6.96309 -2.51866,3.91074 -1.32449,3.55091 1.34904,5.36535 -0.61839,5.68324 2.69033,1.85489 1.60814,3.04186 4.51925,-1.1702 4.88486,-2.05189 5.04118,-0.44827 10e-6,-2e-5 2.91027,2.66298 -3.15715,3.04766 -3e-5,-8e-5 -2.86661,0.16173 -3.01374,-0.90539 -3.49993,0.79579 -3.51228,1.51709 0.24102,3.08952 1.76288,1.88584 1.02147,-0.66666 -0.3224,3.10041 -0.5337,3.95945 -2.22855,0.0993 -2.20586,-3.85011 -2.61799,1.76956 -1.36512,3.21147 -0.0962,3.7796 0.59069,4.13429 -3.83324,1.57178 -0.63289,2.11268 -2.67885,-0.0603 -0.20943,-1.16837 -2.7723,-0.8134 -3.49821,1.6259 -4.33493,2.20043 -1.89782,1.38468 -1.31172,-1.50208 -3.13618,-1.8784 -1.56164,1.30482 -2.8244,0.88967 0.0296,-1.68482 -2.80704,-1.11418 -0.0491,-1.86188 -0.75534,-2.37144 2.00002,-3.5611 0.82726,0.54149 0.67883,-1.88714 -1.50609,-0.76246 -0.33331,-1.41872 0.82252,-1.6636 0.0942,-2.65687 -2.23458,1.46187 -0.97525,1.41887 -2.44731,0.31774 -0.79682,1.52861 -0.46279,1.36495 0.0843,5.08235 1.12755,2.70399 0.12747,2.72471 0.63505,1.78046 -1.8862,2.31729 -0.51518,-1.0331 -2.32171,0.25521 -0.54246,0.99101 -2.30821,-0.13187 -3.80051,1.94575 -2.43253,6.69227 -1.43132,1.22561 -1.2e-4,-2e-5 -2.2261,0.87544 -2.42937,0.89208 -0.834,3.58142 -6.4673,3.35168 -2.6223,-1.83709 0.88051,4.81324 -4.66473,-1.08436 -3.60149,0.91723 0.27999,3.04616 4.24522,1.58942 2.04875,2.07316 2.86647,4.2382 -0.52897,7.83027 -1.43646,2.30548 -4.48939,-0.12662 -2.30642,0.20063 -2.95568,-0.65391 -3.72946,0.0243 -3.39916,-0.69276 -3.9297,2.75867 1.13458,1.64275 -0.13996,2.67214 0.1223,1.25442 0.55538,1.32916 0.0616,1.55881 -0.57963,2.19539 -0.19709,1.46482 -1.10746,1.30826 -0.22106,2.34206 0.66419,1.34592 1.24296,0.32655 0.26082,2.16636 -0.42432,2.73119 1.43345,-0.38246 1.46445,0.48849 1.11636,-0.90227 2.59315,0.53882 0.78749,1.99178 1.02851,1.163 1.35908,0.28482 1.06095,-1.29963 1.73977,-1.22029 2.64756,0.0656 3.52591,-0.0528 1.96686,-2.67653 2.09721,-0.69818 0.60073,-2.29033 1.60671,-1.5839 -1.08334,-2.04333 1.07056,-2.93941 1.70734,-2.02223 0.24776,-1.23533 3.55921,-0.77934 2.63234,-2.47252 -0.14857,-2.17759 0.31781,-2.27885 4.04598,-1.2371 5.47856,1.03283 2.5165,-2.16031 1.15439,-0.28178 1.60499,-1.79207 1.27885,-0.52438 2.25984,1.2789 1.38205,0.44882 0.86644,3.78106 1.88878,2.1753 2.54104,2.43413 2.17056,1.67381 2.05528,0.23932 1.20191,1.4791 1.78499,0.66605 0.82008,1.57405 1.1531,0.45252 0.84778,1.82319 1.08478,2.07893 -0.60376,0.76196 -0.56672,1.90328 -0.0108,1.07867 1.15798,-0.27141 1.48369,-3.04068 1.16042,-0.21158 0.32958,-1.86954 -2.00763,-1.33661 1.16904,-2.34963 2.41329,0.59991 1.54168,1.69413 0.51906,-1.2983 -0.28767,-0.67983 -2.38199,-1.90845 -2.03936,-1.11372 -2.48793,-1.33779 0.77931,-0.74047 -0.67696,-0.82421 -2.17673,0.0231 -3.09097,-3.0294 -1.39698,-3.14901 -2.60464,-1.93962 -0.91051,-1.97757 0.34006,-1.11417 -0.15359,-1.95464 2.2584,-1.40805 2.21118,0.57901 -0.61825,0.35972 -0.0991,0.0641 -0.0623,1.37145 0.82022,1.31457 0.85137,-1.69624 1.78571,0.62125 0.052,1.32399 1.26651,1.63872 -0.56055,0.28993 2.33592,2.83612 2.54061,1.13552 1.61102,1.36801 2.61123,1.39773 1e-5,0 1.20034,0.74639 0.77867,1.22265 0.58141,0.28919 0,10e-6 0.46738,0.58709 -0.3791,1.15247 -0.2347,2.51405 0.24173,1.74023 1.53867,1.21902 0.0556,0.79553 0.47227,0.25256 0.18804,1.02487 1.42311,2.03987 1.08334,1.63243 0.48605,2.34466 1.04171,2.7916 2.27778,1.50561 1.84499,-0.0432 -1.05348,-3.06407 1.76389,-0.36687 -0.81936,-1.78971 2.56947,0.93143 -0.0416,-1.9899 -1.37502,-1.02743 -1.547,-1.64142 1.04703,-0.78406 -1.38967,-1.68762 -0.62069,-2.1644 0.52136,-0.80004 1.46948,1.87351 1.54713,-0.004 1.4112,-0.59139 -1.92552,-2.05065 3.36399,-0.95406 1.44952,0.34734 1.69241,0.10436 -0.0378,0.75637 0.87405,1.69853 2.31769,-1.96513 1.18511,-1.13559 3.29839,-0.20303 0.50557,-0.90408 -2.42477,-1.19708 -0.33001,-1.43296 -0.89673,-2.14248 1.01444,-2.71393 1.44162,-1.58651 0.77716,-4.68349 0.84376,0.3671 1.34703,-0.84425 -0.0646,-1.01611 2.15089,-2.93772 1.03094,-2.21445 2.57378,-0.49827 0.1912,1.50534 4.31785,1.01449 0.80443,0.91528 -2.65933,1.32163 -0.49064,0.75878 3.03542,1.15347 -0.61251,1.83951 1.5447,0.79165 3.7708,-2.25893 3.04087,-0.68079 0.54246,-1.40874 -2.83331,0.23752 -1.35894,-0.95652 -0.16235,-2.48549 2.39261,-1.50315 2.60048,-0.21349 1.848,-1.31427 2.21779,-0.3261 2.4935,-0.6587 0.0735,0.89298 -4.09431,1.65759 1.55342,1.59501 -2.30495,3.33384 -2.02141,0.63142 2.39905,2.30589 3.16911,1.46828 3.54169,3.25531 z m -26.20342,157.29946 0.1252,-0.47325 -0.80414,-0.74794 -0.36202,-1.53875 -1.69585,-1.52558 -0.95372,-2.00173 0.49667,-1.17713 -0.75075,-1.56916 0.49811,-4.45271 0.0125,0.0324 1.01963,2.65353 -0.0136,0.12378 -0.13224,1.20352 0.53298,0.40287 -0.0932,1.18839 0.53557,1.10005 -0.63662,1.07021 2.23888,1.89757 0.21144,1.73377 1.3975,2.86689 0,0 0.22715,0.46669 -0.46365,0.15918 -0.60031,-0.58505 -0.94884,-0.22513 0.15931,-0.60243 z m 9.36742,-23.25676 0.67277,1.05305 -0.17671,2.05715 0,2e-5 -1.37,1.23969 -0.91022,1.25602 1.09841,0.95323 -1.5846,0.68461 -0.34709,-0.32443 -1.60743,0.16537 -1.24038,0.6245 -0.77371,-1.07132 0.52222,-1.94535 0.0838,-1.67248 -10e-6,-6e-5 -0.14181,-1.07493 1.27138,-1.62311 1.75915,-0.3969 1.18253,-0.66175 1.44034,0.54677 0.12133,0.18992 z m 55.63209,-111.29663 -0.26614,0.81438 -4.33823,0.91833 -3.94909,-0.59793 -1.9294,-1.74803 -2.63377,-0.72915 -0.87879,-2.59759 -0.0742,-1.75947 1.0186,-0.83465 0.47786,-1.25595 0.48318,-2.80747 2.28783,-0.29269 -0.85553,-0.98325 -1.29421,-0.17096 -1.41292,-2.60806 -1.46086,-1.95442 4e-5,-4e-5 -3.03291,-4.43009 0.27339,-2.57196 -2.52481,-3.67325 2.76083,-4.06429 2.69306,-0.65573 1.26597,-2.37588 2.59145,-0.84612 3.21629,-1.78527 2.36132,0.99273 2.77977,-0.19638 0.4948,2.49738 -0.49997,3.88361 -2.42635,-0.59013 -2.36248,0.64162 -0.10665,2.86628 -2.70239,-0.3703 0.093,1.26777 1.53379,0.97951 1.25315,3.44384 3.21945,1.29316 0.52968,1.31514 -0.68271,1.56354 0.1559,0.91008 0.8673,2.40166 0.2835,-2.71778 2.23601,-0.95337 0.79611,2.13257 2.0237,2.21757 -2.44085,1.174 -2.61913,-0.90019 -0.61466,3.07712 1.84398,0.21157 -0.71328,2.46967 2.1664,1.21193 -0.40394,3.70897 0.51691,2.47797 z m -52.74657,143.56697 -0.66375,2.67595 0.43217,3.26546 0.0503,0.381 0.52337,0.1195 0.56729,1.5304 -0.0666,0.355 -0.98616,-1.1154 -0.48519,0.7161 -0.44384,-0.614 0.0121,-1.0746 -0.63935,-0.8363 0.0251,-1.24034 -0.82625,-2.0948 0.80601,-1.57734 -0.17441,-3.41167 -0.98142,-1.82242 0.0895,-0.31244 0,0 0.15772,-0.55057 1.46848,1.5071 0.2324,2.96798 0.91424,1.08459 -0.0116,0.0468 z m -287.51217,138.93621 1.17098,0.2297 -1.8488,-2.6154 -0.89716,-4.6096 1.13832,-2.045 2.53516,-1.7074 1.8053,-4.9925 3.28081,-2.3606 0.95572,-3.702 -2.65566,-0.8257 -2.73189,-2.9637 0.79653,-2.9947 2.1773,-2.0229 2.62416,-0.011 0.6568,-2.0949 0.40838,-3.8847 2.23056,-2.3689 2.55762,-1.1737 -0.82747,-1.951 -1.52072,1.1825 -1.87542,-1.1289 -0.38743,-3.6891 1.07207,-0.962 2.6711,1.3399 2.84636,-0.5088 1.66614,-1.2922 -0.5126,-1.8402 0.5688,-2.7062 -0.58388,-2.1355 3.05142,0.3593 5.57108,-0.7423 4.11861,-1.9025 2.66909,-4.4925 0.14111,-1.6913 -1.73575,-1.4998 0.37924,-2.3561 -3.5267,-2.8996 0.18991,-1.7527 1.69226,1.8573 1.88382,-0.1081 2.56775,1.4498 1.50335,-0.3626 2.05062,0.677 3.13734,-1.8775 1.20212,-2.1077 1.83767,-1.9043 1.26672,-3.1407 1.88848,-1.5321 2.44265,-2.581 3.08207,-5.6515 1.94131,-1.7471 0.63038,-1.5414 0.51885,-3.1689 -0.46186,-1.7201 0.40429,-2.3126 2.35135,-3.0494 3.26911,-2.4304 3.11099,-0.8879 1.95646,-1.3483 4.36975,-1.161 3.01783,0.01 0.65033,-1.8044 2.24836,-1.2997 0.47226,-3.0819 2.81644,-3.8651 0.4925,-3.9258 0.87829,-1.1528 0.29513,-1.9208 0.77443,-4.4642 -0.19716,-5.3818 0.77608,-2.1011 0.69447,-0.0557 2.05629,-2.46762 1.7697,-3.2058 3.91543,-3.92909 1.4132,-1.83784 1.10617,-4.63942 -0.46122,-1.69341 -0.94266,-3.55704 -1.00669,-0.87998 -2.37539,-0.11184 -2.13976,-0.80429 -3.54759,-3.1206 -4.10634,-2.30269 -4.14997,0.10837 -5.40593,-1.47077 -3.23,0.85695 0.45547,-1.53903 -1.35578,-1.62866 -4.61356,-1.69683 -3.49548,-0.99845 -2.10983,1.82298 -0.1002,-2.78448 -4.91012,-0.43623 -0.864,-0.83731 2.0893,-2.28684 -0.0749,-1.91806 -1.48555,-0.45879 -1.55805,-4.86376 -0.68715,-1.53999 -0.94625,0.13162 -0.45985,-1.14091 -2.94111,-2.35361 -2.04531,-0.66051 -0.94331,-0.30713 -2.98668,-0.75047 -2.24592,0.20156 -0.29871,0.50332 -3.32811,-0.55924 -1.09662,-0.97259 -1.48856,-1.36402 -1.0466,-0.0663 -0.078,-1.44131 -1.71867,-1.82612 -1.8239,-1.03227 -1.08836,-0.66203 -1.44766,0.0634 -0.44262,-2.2531 -2.10603,-1.38542 -2.22151,-0.21188 -0.94891,-1.33228 2.35881,-0.8346 -3.32882,0.0393 -3.44079,0.17047 -0.0319,0.71145 -1.55826,0.88176 -2.1244,-0.34874 -1.59063,-1.26485 -2.96773,0.2904 -2.49411,-0.0248 -0.10873,-0.93603 -1.8048,-1.57889 -1.94806,-0.046 -0.99707,-1.99416 -0.97389,0.89594 0.38485,1.33663 -3.45923,1.15102 0.14038,2.13933 0.86135,0.99281 -0.62378,2.0357 -1.19746,0.18267 -1.05147,-2.23432 1.22531,-1.63915 0.0339,-1.47843 -0.90606,-1.28508 1.63068,-0.33082 0.079,-0.67018 0.53923,-0.95598 -0.72878,-0.74772 -0.98408,-0.17425 -1.34473,1.36911 -1.08234,0.63456 -2.18591,1.43129 -2.1735,-0.23638 -0.22091,0.59025 -1.7504,0.0537 -1.59314,1.31252 -0.51188,2.38487 -0.0275,0.93184 -1.14385,0.29965 -2.08414,1.9632 -1.43524,-0.0892 -1.04487,-0.77678 -0.9067,-0.84644 -1.236,-0.48624 -1.54879,-0.096 0.1035,-0.27704 -1.53364,-0.1653 -0.94805,0.84157 -1.68695,0.56758 -1.18167,0.7103 -1.36662,0.20315 -0.76352,-0.6909 -0.26226,0.22875 -1.10839,-0.12643 0.0568,-0.59604 -0.99743,-1.00987 -1.30411,-1.20318 -1.07401,-1.13587 -0.70359,-1.53578 -0.4259,-0.46491 -0.12926,-0.76542 0.56837,-0.72489 -0.19099,-0.74932 0.25974,-1.21516 0.4244,-0.27936 -0.07,-1.28166 -0.14914,-0.73483 0.0899,-1.258 0.29814,-1.15079 0.63993,-0.97575 -0.28343,-1.04986 0.14146,-0.64136 0.23893,-0.2759 -0.731,-0.79155 -1.00999,-0.4412 -0.803,-0.64632 -0.84778,-0.53943 -0.4409,-0.0637 -1.26872,-0.40066 -0.55201,0.25067 -0.72655,0.0676 -0.66476,-0.19614 -0.88511,-0.14954 -0.32577,0.32345 -0.89365,0.31938 -1.28401,0.0754 -1.29048,-0.26048 -0.43099,0.14339 -0.25767,-0.23538 -0.79481,0.0414 -0.60928,0.50746 -0.28853,-0.11273 -0.81484,-0.36854 -0.2395,0.43012 -0.90563,-0.5222 0.5505,-1.00119 0.50169,-0.0921 0.54554,-0.76821 0.32198,-1.46604 -0.17534,-0.2779 0.29104,-1.04099 -0.24303,-0.45064 0.44966,-1.26232 0.0463,-0.7954 -0.52645,-0.0135 -0.0103,-0.42955 0.58157,-0.0488 0.70409,0.75181 0.6962,-2.28769 0.41614,-1.27192 -0.51196,-0.51337 0.66046,-1.79925 1.49273,-1.76353 0.0942,-1.43399 -0.66641,-0.63274 -1.68479,0.25287 -2.45958,-0.10397 -2.93738,0.69191 -1.88138,0.77985 -0.48016,0.86897 -0.22809,2.48799 -0.66189,1.71968 -1.76676,1.19932 -1.74846,0.50325 -2.07991,0.52682 -2.11815,0.2958 -2.43633,0.81757 -1.14815,-1.22436 -2.94951,-0.77801 -1.08678,-1.44709 -0.64847,-1.68243 -1.84377,-2.20452 -0.55452,-2.30806 -0.86134,-1.45751 -0.48146,-1.63634 0.26757,-1.47037 0.20305,-4.06144 0.48576,-2.19963 1.07795,-2.70015 -1.08331,0.0926 1.08334,-0.0926 -0.52778,-1.05115 -0.13889,-1.48922 0.0278,-2.15182 0.63889,-1.41058 1.51655,-1.50313 2.7605,-1.36309 2.5285,-2.3571 2.33772,-0.74636 1.72792,-0.22434 2.02031,0.73991 2.42298,-0.39844 2.07378,1.68518 2.01554,0.0989 1.04264,-0.60376 1.0307,0.46962 0.52933,-0.41847 -0.58981,-0.62983 0.0452,-1.2968 -0.50026,-0.8528 1.14817,-0.50153 2.11852,-0.22185 2.46517,0.35584 3.13989,-0.40447 1.74139,0.79573 1.34794,1.49506 0.49728,0.15974 2.80228,-1.45373 1.08447,0.49223 2.16553,2.67043 0.77778,1.74386 -0.57017,2.09248 0.41697,1.22722 1.29209,2.38749 1.47222,2.66476 1.05555,0.70936 0.43853,1.34937 1.36703,0.37208 0.83047,-0.38712 0.69297,-1.87941 0.12096,-1.20232 0.0874,-2.09355 -1.31516,-3.63145 -0.0155,-1.36275 -1.23448,-2.24444 -0.92698,-2.73338 -0.49086,-2.23622 0.42814,-2.30456 1.3092,-1.93623 1.5657,-1.56397 3.04932,-2.14567 0.39695,-1.11556 1.40644,-1.22632 1.3872,-0.21463 1.8259,-1.97037 2.87349,-1.00141 1.7658,-2.52242 -0.39042,-3.43758 -0.28822,-1.19915 -0.79705,-0.24026 -0.11911,-3.32917 -1.91217,-1.13646 1.83519,0.55371 -0.59276,-2.24849 0.53535,-1.54405 0.32536,2.9585 1.41894,1.34951 -0.85894,2.3856 0.25289,0.13855 1.56322,-2.80063 0.89094,-1.37382 -0.0419,-1.3431 -0.68935,-0.63496 -0.57792,-1.93106 0.9112,0.89852 0.61002,0.18663 0.20659,0.91899 2.02127,-2.764 0.59984,-2.60756 -0.81742,-0.16748 0.84551,-1.01446 -0.0824,0.44968 1.76945,-0.007 3.88889,-1.10052 -0.82295,-0.69766 -4.07983,0.69361 2.31547,-1.06694 1.61509,-0.18231 1.20833,-0.18486 2.05447,-0.64609 1.33442,0.0721 1.87491,-0.60199 0.22239,-1.06409 -0.83341,-0.83089 0.29166,1.36353 -1.15277,-0.0932 -0.91667,-1.98327 0.0281,-2.00119 0.4706,-0.85404 1.47029,-2.26976 2.93381,-1.13961 2.85411,-1.33646 2.96628,-1.88911 -0.47987,-1.28725 3.08712,-0.48006 4.446,-0.1292 -4.82289,3.24167 0.10647,3.27102 2.10928,0.28162 3.10416,-2.77712 2.75514,-1.5749 6.15231,-2.33653 3.43614,-2.60077 -1.7937,-1.45118 -0.19319,-2.93474 -2.78492,4.53214 -4.59047,0.57686 -3.60806,-1.99688 -0.90652,-3.05119 -0.88031,-4.43476 2.6235,-2.81044 -2.45908,-2.07545 -4.15603,0.4236 -5.82658,3.50757 -4.45895,5.41762 -2.35933,0.6682 3.19711,-3.7803 4.00689,-5.53842 3.54119,-1.88755 2.32572,-3.092 2.87706,-0.30083 4.16889,0.0314 5.94125,0.91333 4.69603,-0.70378 3.49519,-3.59949 4.57753,-1.57705 1.99375,-1.56943 2.01605,-1.69464 -0.20261,-5.15236 -1.11608,-1.75948 -2.16328,-0.62346 -1.10086,-4.01875 -1.783,-1.53666 -4.42928,-1.25463 -2.49697,-2.80165 -3.6948,-2.80574 1.11697,-3.17353 -3.0717,-6.21408 -3.61775,-6.84149 -2.16325,-4.94478 -1.83791,2.59075 -2.65725,6.00739 -4.02217,2.9511 -2.01331,-3.132 -2.53708,-0.84003 -0.92342,-6.93664 0.0831,-4.76045 -4.95353,-0.43544 -0.84275,-2.24764 -3.42069,-3.40955 -2.58709,-2.02247 -2.30089,1.57043 -2.85558,-0.58003 -4.76239,-1.63241 -1.93389,1.38598 0.9282,9.10532 1.211,5.07657 -3.27811,5.70749 3.37394,3.99252 1.88631,4.40724 0.22727,3.39709 -1.53952,3.4783 -3.14762,3.43663 -4.44677,2.26452 1.95936,2.51159 1.45083,7.35094 -1.50305,4.64411 -2.13856,1.44841 -4.13294,-4.25399 -2.01187,-5.13247 -0.86438,-4.72591 0.45375,-4.16489 -3.02139,-0.46999 -4.58684,-0.2814 -2.94277,-2.06653 -3.48056,-1.36272 -1.98769,-2.36147 -2.77709,-1.92118 -5.16155,-2.21227 -3.88706,1.01281 -1.29886,-3.91854 -1.25111,-4.95239 -4.08217,-0.89558 0.15359,-6.36263 1.07716,-4.44848 3.01264,-6.54799 3.39878,-4.86404 3.23161,-0.76294 0.1835,-4.01631 2.19317,-2.66066 3.97633,-0.42073 3.22144,-4.35625 0.81059,-2.874 2.6773,-5.67846 0.82825,-3.4709 2.87225,2.08934 3.8635,-1.06738 5.43898,-4.92309 0.35347,-3.50903 -1.95856,-3.94702 2.06711,-4.02299 -0.1673,-3.83246 -3.7282,-3.91983 -4.10619,-1.17979 -3.94767,-0.61847 -0.15186,8.64038 -2.02619,6.50012 -2.90028,5.2599 -2.687,-4.90495 0.8273,-5.55906 -3.3208,-4.97517 -3.71211,6.03906 0.0122,-7.92351 -5.16617,-1.61214 2.46467,-3.98016 -3.77372,-9.50385 -2.81053,-3.87281 -3.66342,-1.42943 -3.2843,6.37306 -0.22267,9.26322 3.2423,3.26411 2.97573,4.86391 -1.25606,7.64245 -2.23453,-0.19991 -1.76791,5.83534 0.0166,-6.94583 -4.30436,-2.56097 -2.46978,1.32358 0.32056,4.63328 -4.05209,-0.17647 -4.31216,1.16357 -4.90784,-3.32499 -3.10211,0.59284 -2.79141,-4.07937 -2.24217,-1.82438 -2.22222,0.76641 -3.38114,0.35202 -1.79384,2.59227 2.835,3.1598 -3.02169,3.69339 -2.96108,-4.38608 -2.36614,1.29114 -7.49797,0.86533 -5.02117,-1.57635 3.90819,-3.70438 -3.74711,-3.86903 -2.72091,0.49633 -3.82292,-1.31154 -6.50056,-2.86688 -4.24827,-3.34456 -3.36456,-0.46516 -1.04883,2.33751 -3.41278,1.29995 -0.37542,-6.09814 -3.69858,5.45832 -4.69667,-7.25858 -1.91958,-0.8843 -0.62053,3.87147 -2.07269,1.88776 -1.90828,-3.36373 -4.54625,2.03052 -4.16081,3.52053 -4.12608,-0.9714 -3.36422,2.47391 -2.43839,3.24872 -2.89661,-0.71115 -4.37267,-3.76801 -5.18185,-1.91961 -4e-5,-2e-5 -3.01808,-1.12478 -4.21371,-2.44149 -3.696016,1.32449 -2.13883,-1.05876 -5.342699,-0.76982 -5.851782,-2.61297 -2.833304,0.83128 -4.250028,-1.41562 0.166657,-1.93437 -4.694445,-0.50829 -1.233775,1.63454 -2.01007,-3.83615 -4.202873,-1.81492 -4.274717,4.5694 -2.554036,-0.5669 -5.265613,3.72569 -2.705836,0.94654 -2.837969,3.87796 -0.661243,3.88333 -3.506102,3.55459 -4.927492,0.2508 -1.554814,3.99427 3.817094,2.36454 2.664709,3.13908 1.975762,3.60877 3.416674,2.69923 2.255389,4.30264 -5.863409,0.26676 0.378028,-3.45544 -2.283883,0 -6.196005,3.37932 -3.90358,2.84349 3.515433,3.87474 1.165878,2.63273 4.06794,1.55059 3.928988,-0.72413 2.190578,1.42044 0.846489,-1.42228 2.947566,-1.41396 1.705968,-0.0741 -2.056363,2.4982 1.554815,1.15344 0.51619,2.89336 -2.116509,1.93926 -2.01696,-0.53611 -2.240747,2.98292 -1.905856,-0.98362 -2.24771,0.44991 -0.990752,3.12896 -2.264647,3.34105 -1.074798,3.37861 2.140409,2.46387 0.01234,3.22413 1.900472,1.34924 2.344101,2.61057 3.611895,-1.06142 1.788579,1.96718 -0.502266,2.00401 0.239147,3.20768 1.70525,0.004 2.777034,-2.15085 1.03884,2.6752 0.748949,-1.92155 1.814059,2.71026 1.503855,-1.93887 0.895797,0.91959 3.202934,-1.62368 -1.412776,3.1508 -0.479156,3.9696 -2.050908,1.82009 -0.620404,1.02452 -3.850325,3.03019 -1.369569,2.048 -3.446029,0.56096 -2.960629,2.69069 -2.717606,1.50184 -3.038574,2.25179 0.435159,0.80364 4.767007,-1.36757 2.310224,-1.61397 2.818662,-1.65729 2.592578,-1.36768 1.906645,0.37812 3.250017,-2.11148 0.878069,-2.34595 4.336442,-2.61417 0.688229,-2.27066 2.780121,-1.58019 2.986108,-2.19033 2.624947,-3.81977 -2.032391,-2.62701 4.00234,-3.9175 1.895807,-3.74231 3.540913,-3.19338 0.761581,1.44445 -2.95216,1.75685 -1.249206,5.48857 0.397335,3.21988 3.078192,-1.15429 2.445516,-1.84891 3.213987,-1.1518 1.535436,-0.35585 -0.572891,-3.89783 3.083145,-1.2044 3.30227,2.41619 5.462984,2.57024 3.84566,-0.4743 4.8588,1.97734 2.65969,1.04265 5.74384,5.6006 3.25539,1.52374 4.41626,0.12912 2.66708,0.34035 1.49689,4.90193 3.58103,4.10088 0.78555,4.32557 2.44832,1.55743 1.52696,1.82127 1e-5,-10e-6 0.0587,2.46714 3.36039,3.42478 0.48733,3.73506 3.55408,1.94469 -0.39566,2.77075 1.54763,3.93065 5.03056,1.81293 1.98436,1.87472 5.37786,4.19988 0.37281,0.0107 0.94444,3.44375 0.44445,3.38911 -0.68711,1.07989 -1.47956,-3.88657 -4.01695,-1.41604 -0.33641,0.81515 0.80983,1.92554 0.87788,3.50346 0.50196,5.38301 -0.3378,3.5695 -0.33779,3.51416 -1.08528,3.59333 0.8865,2.88198 0.0968,3.18436 -0.60891,3.03809 1.48027,1.98181 0.38325,2.92925 2.15003,2.97562 1.2255,1.16358 -0.0985,0.81284 2.31361,4.8266 2.69511,3.43487 0.33742,1.85669 0.70856,0.54433 2.58038,0.33204 0.994,0.90856 1.55863,0.16836 0.30359,0.9599 1.29612,0.39948 1.80017,1.91179 0.46716,1.68813 1.12843,2.94943 1.2866,2.59667 1.03051,2.114 1.0242,2.00024 1.63003,0.88297 2.1384,2.26398 -0.10364,1.42373 -1.03066,1.17432 -1.14413,-0.17805 -0.20247,0.23692 1.63721,1.81723 1.71336,0.75467 0.70058,0.8108 0.36683,-0.40026 1.90937,1.38558 1.32385,0.95931 0.42145,1.67105 -0.0918,2.24459 1.42075,0.77603 2.00296,1.47282 1.81786,1.72936 0.73244,1.83618 0.49215,0.0145 1.16897,-1.10846 0.0675,-0.54153 -1.00762,-1.35339 -1.11391,-1.38198 -1.33943,-0.10071 -0.15266,-1.61079 -0.7717,-1.43695 -0.8246,-1.34809 -0.9217,-2.87983 -1.74573,-1.58541 -0.59156,-1.10735 -0.84354,-0.7978 -0.55753,-2.03106 -0.49373,0.0439 -0.36647,-1.08658 -0.42245,-0.22628 -0.45784,-0.74734 -2.06139,-2.19639 -0.95257,-1.32171 -0.27037,-2.4219 -0.45963,-1.5576 0.44513,-1.32422 1.58532,0.89906 0.92738,-0.14199 2.00892,1.2904 -0.0421,1.24442 0.98393,2.46633 1.49381,2.41074 0.12108,0.99336 1.30175,1.5407 1.61302,1.66022 1.49417,0.25574 0.69246,2.18536 1.63965,1.51387 1.41615,0.72434 -0.42346,1.91232 0.51081,0.75305 2.38415,1.25527 1.35127,1.90854 2.79296,2.37814 2.44796,3.00574 0.93139,1.51761 0.25071,1.19278 0.93706,1.34199 -0.0137,1.03068 -0.63863,0.77151 0.2858,0.84669 -0.92673,0.28945 0.6621,1.44235 1.39175,1.85988 2.98467,1.66773 1.15705,1.33667 2.84127,0.92525 1.55446,0.17419 0.70122,0.77907 2.32386,1.3914 3.14472,1.34998 2.08256,0.40623 2.59624,1.32787 2.08177,0.54979 1.96155,0.76078 1.40015,-0.28443 2.23099,-1.08688 1.55158,-0.21013 2.26802,0.75394 1.43252,0.93736 3.14365,3.09722 1.49445,1.18296 1.27038,0.56801 1.73274,0.0517 1.42519,0.49899 0.78656,0.61371 1.54347,0.17736 1.14866,0.56758 0.99979,0.2733 1.60886,0.0426 0.30834,-0.672 0.84361,0.24821 0.47988,0.8924 -0.21037,0.20142 -0.45856,-0.42913 -0.3084,0.44084 1.3916,1.28597 1.1709,0.89356 0.61151,0.95719 1.29822,1.14405 0.96097,0.89211 -0.63663,0.5466 0.78448,0.39861 -0.36776,0.89017 -0.0159,0.85952 0.37961,0.56852 0.8925,0.27859 0.6349,0.78202 0.5543,-0.67334 -0.17857,-0.8199 0.72864,0.50396 0.18252,0.82448 0.95622,0.36107 1.0931,0.55339 0.77013,0.67366 0.10091,0.62128 -0.31989,0.48791 0.56399,0.58964 1.50737,0.62297 0.31896,0.4243 0.0858,-0.6091 1.19207,-0.004 0.72082,0.3283 1.13925,0.1864 0.56054,1.12838 0.91611,0.16455 0.36159,-0.4766 0.48095,1.67378 1.29234,-0.14289 0.40136,-0.41502 0.75828,-0.35797 -1.325,-1.52188 0.27231,-0.58403 0.60605,-0.098 1.12195,-0.70545 0.56306,-0.97768 1.21547,-0.17918 1.38385,0.78145 0.51849,0.92816 0.7038,0.19238 -0.68629,0.74969 0.59507,1.51335 0.92601,0.80802 1.12475,1.49058 0.43846,2.36349 -0.59557,0.73293 0.62672,2.55141 -0.52408,1.61689 1.02384,0.66262 -1.06317,1.46014 -1.16976,1.74801 -1.37796,0.18645 -0.65141,1.00703 0.12302,1.3924 -1.03641,0.20852 0.37688,0.86266 -1.90973,1.10576 -1.5218,0.59593 0.19365,1.13363 -1.05119,1.78902 -0.51124,1.73055 -0.97302,0.41893 0.46904,2.52199 -0.56378,0.78357 1.66384,1.2184 1.06173,-1.29109 0.60074,1.21421 -1.47852,2.07888 -2.21419,1.75799 -0.86465,1.9512 1.3461,2.66046 -0.89902,1.24629 1.9792,1.13146 2.15807,1.8261 0.87405,2.06378 1.13602,1.27887 2.62444,5.60625 2.73878,5.22657 2.35264,3.73946 -0.45618,0.8238 1.15073,2.3674 2.14256,1.7723 4.98154,3.1575 5.50691,2.9146 0.24109,1.1955 2.78521,1.6776 0.5782,4.1394 0.20326,4.8568 -0.86866,6.723 -0.89164,6.3491 -0.50047,6.0138 -1.62436,3.8506 0.33281,3.9385 -0.82955,2.6598 0.63964,4.8902 -1.17578,4.9452 -1.92057,5.406 -1.70439,5.5677 -1.1704,0.1133 0.22917,3.9564 0.79991,3.4767 -1.27641,2.4642 -0.94683,6.8059 -0.87218,5.3894 1.75169,0.5375 0.86788,-4.7215 1.86415,0.9976 -1.45153,7.9237 -3.0871,-1.3654 -0.94568,6.5179 -2.64511,3.5469 4.21615,1.1831 -2.93386,3.1665 -1.18123,4.0082 0.35628,7.2956 1.39756,2.9173 -0.78721,2.6054 0.87018,2.8544 3.45557,2.6145 0,0 3.18004,3.2279 3.13374,1.5249 1.17629,-0.1093 0.44786,-4.3484 2.50645,-1.6568 1.33749,-1.1202 2.47149,0.034 z m -58.41235,-323.46758 1.12759,-1.64838 1.57678,-0.65814 0.61718,-1.02582 0.62578,-0.55061 2.58311,0.85074 1.91396,0.10118 0.66383,0.56247 0.92917,2.36711 3.11752,0.62305 -0.48999,1.17414 1.09892,1.20512 -0.47299,1.54991 1.16581,0.50962 -0.57922,1.35846 -0.002,0.005 -0.8475,-0.16296 -0.58329,-1.13245 -2.72952,0.35394 -2.46497,0.89949 -1.95631,-1.54163 -1.57484,-0.51844 0.89249,-2.15683 -2.4519,1.3568 -2.22883,1.31931 -2.14458,1.03028 -1.70266,-1.39261 -2.78314,0.84563 0.009,-0.59537 1.88547,-1.71932 1.97225,-1.64404 2.8333,-1.36576 3e-5,-5e-5 z m 14.62024,6.54822 0.52222,-0.59298 0.54483,0.89288 2.08349,0.49881 2.11256,0.0422 2.25173,0.40932 2.48492,0.77472 0.9062,1.24862 1.79899,3.01832 -0.89465,1.29137 -2.25747,-0.53693 -1.4018,-2.42688 0.35183,2.47166 -1.32492,2.1577 0.14577,1.82739 -0.22932,1.06834 -1.79795,1.25951 -3e-5,2e-5 -0.13888,-1.56196 -0.49997,-2.22772 -1.02778,-0.38626 -1.72227,1.69482 -0.55193,-0.0319 -0.14247,-0.96798 1.52776,-1.54709 0.25336,-1.77543 -0.22558,-1.78368 -2.05558,-1.54265 -2.36111,-0.79537 -0.38886,1.50868 -0.61237,0.40225 -0.49071,1.9414 -0.25802,-1.3173 -1.11069,0.94102 -0.69311,1.31324 -0.72476,1.90497 -0.13816,1.63472 0.92106,2.36306 -0.0767,2.49399 -1.12741,1.82538 -0.56255,0.51529 -0.75003,0.40932 -0.94381,0.0203 -0.25544,-0.25215 -0.74866,-1.96376 -0.0215,-0.97701 0.0742,-0.93182 -0.34838,-1.85937 0.5276,-2.16792 0.62736,-2.69761 1.44135,-3.01659 -0.4183,0.014 -2.041,2.52822 -0.37638,-0.46195 1.08858,-1.41363 1.65673,-2.55759 1.88892,-0.35847 2.16668,-0.7988 2.18455,0.42179 0.0932,0.018 2.44667,-0.36057 -1.38199,-1.59981 0,0 z m 3.37976,16.79665 1.52433,0.23564 2.06125,-1.19386 1.21368,-1.05319 0.82581,-0.1721 1.52726,0.37994 0.73883,-0.58744 1.35507,-0.47827 2.42039,-0.4663 10e-6,9e-5 0.054,0.37271 -2.3934,2.25211 -2.09512,1.08345 -1.42986,0.50326 -1.64532,1.02908 -2.01093,0.49335 -1.38515,-0.18973 -1.71314,-0.76829 0.95228,-1.44045 5e-5,0 z m 11.42025,-4.47945 -0.13223,0.0439 -0.84828,0.19721 -1.10774,-0.36164 0.83141,-1.30896 0.84721,-0.45428 1.96011,-0.56123 2.34769,-0.52547 1.23299,0.72988 0.77443,-0.84632 0.88094,-0.53636 0.59033,0.28409 0.0317,0.0604 0.28429,0.54072 0.16465,1.49731 -2.08335,1.26217 -2.27541,-0.31618 -2.1829,-0.14196 -1.31586,0.43676 z m 37.52418,318.23486 1.25,-2.4185 -3.88889,-1.1981 -3.61111,-2.8458 -1.38889,-3.5005 -1.0667,-2.1335 -1.97678,-0.5397 -2.56063,1.8939 -0.90084,3.1802 -1.43319,2.1588 -3.68459,-1.692 -3.89977,-3.1108 -2.29009,-0.9677 3.82592,5.2182 2.83694,2.5547 3.49506,2.6906 2.90997,0.7025 2.01664,1.4688 1.64475,0.3974 1.36489,0.1564 2.38222,-1.5216 0.91975,-1.9634 1.41645,1.7136 2.63889,-0.2435 z m 19.12738,49.6022 2.82892,-1.863 1.03375,-2.0878 -1.63212,-1.5804 -2.17615,0.7276 -1.57785,1.9549 -2.01302,1.6045 -2.28496,0.7454 -1.95853,1.2494 -1.74099,2.0175 -2.66586,0.3807 -1.741,1.6602 -1.5233,1.8056 -1.08815,2.8752 -2.2307,1.9876 -1.90413,2.146 -1.79547,2.5827 -1.52324,2.0667 -1.36009,3.2174 0.32642,2.8476 0.54397,3.1876 -0.43516,2.9499 -1.08815,3.1536 -1.30569,2.9044 -0.27202,3.1114 0.16321,3.17 0.70725,2.9047 0.87046,3.2866 0.97927,3.3525 0.87053,3.4206 0.32643,3.6684 -0.65285,3.9312 -1.63211,2.9184 -2.72027,2.0364 -3.53646,1.3089 -3.91714,1.1307 -3.37311,1.3283 -2.82914,2.4954 -2.8834,2.142 -3.69953,0.9821 -1.90414,-3.3173 -2.82914,-2.1117 -3.80841,0.9566 -2.77473,-3.7937 -1.08794,3.4106 -2.17629,3.6771 -3.31871,-2.1389 -3.37317,-1.1551 -3.64513,-0.3831 -2.28496,-3.785 -3.48199,0.9382 -3.21004,-1.6851 -2.23055,-4.2299 -2.39384,7.2372 -3.69953,0.7606 -2.829,-2.2708 -3.42751,1.1315 -3.80848,1.9033 -3.59065,1.3452 -3.75401,-0.5781 -1.19681,-3.4258 -2.82914,-2.802 -3.2643,-1.4751 -3.59087,0.5515 -3.64512,-0.5515 -2.12168,-1.2801 0.97927,7.0709 0.59844,3.6521 1.57771,3.7343 3.59065,0.7966 1.36017,3.635 1.7954,3.5077 -1.46898,4.6531 -3.80827,-1.9191 -3.754,-1.478 -4.18924,-0.4196 -3.53632,1.8976 -3.91721,0.637 -3.2099,-2.9536 -3.75393,-1.2497 -3.31871,-3.8958 -2.8834,3.0683 -1.79547,-3.4735 -0.97927,-3.5993 -1.79539,-3.1352 -2.99228,3.5311 -3.31878,1.7944 -3.48191,-2.1903 -3.37318,1.5899 -2.82893,3.0234 -3.80848,0.4076 -4.13483,-0.2042 -4.02596,-0.2034 -3.86274,0.4076 -4.13483,-1.0164 -3.75393,-1.0103 -3.64513,1.4159 -3.80841,0.2032 -3.6996,-1.8203 -4.13469,1.4142 -1.90427,-0.8098 -2.17608,-0.6044 -3.37311,2.2279 -2.9925,2.2584 -3.75386,2.4994 -3.75393,1.0528 -3.97155,0.2112 -3.20997,2.773 -4.243568,2.1652 -1.632185,-3.6644 -3.590795,1.9297 -0.816059,3.9287 0.979343,4.2508 0.108664,4.3645 -4.189095,1.1681 -3.155564,4.035 -3.481843,3.3991 -3.69953,2.7222 -4.406852,1.2516 -2.284959,-5.4393 -4.407067,1.7109 -4.569991,1.234 -2.502503,-3.9143 -1.360167,-1.2049 0.870461,14.5466 2.176296,4.7927 3.59065,4.3817 1.795254,5.3622 5.386263,1.441 5.005293,2.0389 5.712543,0.8822 4.080428,4.4821 3.590723,4.2993 0.979271,6.6708 -2.230558,5.6094 -4.570135,6.5099 -4.950817,5.3317 -4.026025,-6.03 -6.419792,2.8097 -6.746287,-1.0596 4.297972,5.7313 2.121892,6.702 4.624395,5.4119 0.54411,8.4767 -1.033673,8.0756 -1.033744,9.4253 -0.489705,11.0012 7.453535,5.5412 2.339436,10.595 8.976842,6.7105 10.935523,1.1473 -0.59844,14.4381 -7.725555,9.0683 -7.344874,10.3233 -6.691739,-10.9881 -11.805984,-6.5025 -7.997573,9.1799 -10.717764,-7.9011 -6.256581,-9.9598 -7.888766,-7.6581 -4.189164,-9.4916 -1.304974,-3.2717 -2.642316,-6.201 -8.160786,4.6662 -0.631816,1.5348 -3.516509,11.7048 -4.020498,-11.7048 -0.325979,-0.2022 -0.381773,-0.3026 -2.933705,8.8511 -0.322126,1.0024 L 3.114785,933.6857 0.659724,950.3591 0.5,950.1158 l 0,44.4342 1000,0 0,-44.4342 -4.78552,-7.1014 -6.36539,-8.795 -7.67108,7.108 -2.0751,-8.2255 -0.53643,-2.0597 -7.99764,-5.6661 -1.41421,-12.1778 -6.36539,-7.3343 -4.18938,-7.0134 -3.86282,-6.7196 -3.37317,-6.8452 -2.39363,-7.319 -1.41464,-7.7206 -3.69946,-5.9895 1.46876,-6.4414 1.19703,-6.1941 0.48963,-7.4984 2.33951,-8.62 5.27731,-0.5784 4.2435,-3.1422 5.00529,-2.2473 -1.08793,-6.0259 -5.16851,-1.8703 -1.30583,-4.7155 -0.59859,-4.8334 -1.57771,-4.9369 -0.0545,-4.5558 0.27216,-5.3512 0.7071,-4.2918 1.14277,-4.6168 2.01294,-3.4326 1.90428,-3.9856 1.25114,-4.0938 3.5908,-2.209 1.63225,-3.5521 3.64506,-1.5549 1.30569,-4.0131 0.97941,-3.364 1.25129,-4.2021 1.4689,-3.2167 0.32657,-3.5029 -1.95868,-2.5794 -2.88355,-1.6982 -2.88326,-2.0157 -3.10144,-1.1645 -3.31849,-0.662 -3.31878,0.1652 -2.99235,-0.495 -3.20982,0.1649 -3.10116,-1.3146 -2.12175,-2.9215 -3.15542,-1.9197 -1.36024,-3.1522 -3.20968,-0.9343 -3.37332,-0.7748 -2.44817,-1.8445 -2.12204,-2.4298 -2.44803,-2.0978 -1.79547,2.5513 -3.15542,-0.1518 -2.82928,-1.2034 -3.75386,-1.1961 -3.5908,-1.3344 -3.10101,-1.9104 -2.99221,-1.7445 -1.79547,-2.1562 0.54404,-2.693 -1.95868,-2.2356 -3.10102,-0.5541 -3.64506,-0.2767 -2.61152,0.1381 -3.6452,0 -2.50272,0.4155 -3.64505,0.1385 -3.15542,0.4168 -2.33951,-1.247 -1.14262,-2.331 -0.92472,-2.837 -0.48978,-3.0553 -1.74092,-1.8336 -0.10881,2.758 -0.76165,3.3412 -2.50258,0.5403 -2.55712,0.6781 -3.15542,0 -2.82914,0.2723 -2.99221,1.092 -2.50272,1.2371 -2.55698,-0.6883 -2.44817,-0.6857 -2.50286,0 -2.61153,1.0981 -2.88326,-0.6869 -2.50271,-0.9578 -2.50258,0.5466 -1.84987,2.2036 -2.17615,2.2319 -2.88355,0.5626 -3.48184,-0.7029 -3.31878,-1.8144 -1.90427,-1.7951 -3.04662,0.2748 -1.95853,-2.1879 -1.4145,-2.1606 -2.17615,-1.337 -2.06749,1.4712 -3.10116,0.269 -1.90413,2.0297 -2.28511,1.9156 -2.99221,0.9662 -2.99235,0.8322 -2.55698,0 -2.72033,-0.1393 -3.53639,-4.2539 -1.84973,-2.4235 -2.12189,-1.8615 -1.79518,-0.9236 -3.48199,5.0728 -1.90428,1.907 -1.41435,2.3439 -1.85002,2.3766 -2.88326,-0.9827 -2.55712,0.9827 -2.99235,0 -2.50258,0.9879 -2.12189,-1.5501 -2.33936,-0.4205 -1.74107,0.7012 -2.61138,-0.1404 -2.829,-0.5608 -2.66593,0.8417 -2.66593,-0.5617 -2.3395,-1.3958 -1.30555,-3.3055 -1.03367,-1.8995 -1.41465,4.6497 -2.01293,1.9511 -3.04676,-0.4198 -2.72034,0.841 -2.50243,0.704 -2.77473,-0.704 -2.01294,1.128 -1.57771,1.2774 -1.52345,2.4398 -2.33951,1.4514 -2.72019,1.9051 -1.90413,2.8228 -0.8162,2.871 -1.3601,3.0752 -2.829,1.2456 -2.77474,0.9407 -3.15556,0.3145 -1.74078,0.7892 -1.46904,4.0013 -0.70725,2.9413 -1.74107,2.4908 -1.52316,2.6979 -0.92501,3.2609 -1.5233,3.5029 -3.20997,1.6006 -3.20983,-0.8911 -2.12189,-2.8198 1.30584,-3.6305 1.41435,-3.2186 0.38097,-3.3227 -3.10116,0.165 -0.38097,-3.2616 2.17644,-3.0414 2.66579,-2.0497 0.32642,-3.5669 0.10881,-1.9838 -2.28496,-7.8562 -2.77474,0 -2.72019,-0.5787 -2.61153,-0.8642 -2.72019,-0.8602 -2.61138,-1.5651 -2.39405,3.0011 -2.23056,1.4477 -2.66578,-0.4357 -2.28496,-2.0181 -1.84973,-1.995 -3.31892,-0.8479 -1.68652,-1.9625 -2.44831,-2.3534 -0.27188,-2.9988 -2.2307,-1.882 -2.61138,-0.6672 -2.44832,-0.3989 -2.55697,0.5321 -2.77474,1.0697 -2.28496,1.3463 -2.33951,1.9025 -0.54404,2.4769 -2.28496,1.6711 -2.61152,-0.1398 -1.79533,1.969 -2.50272,2.5647 -2.61138,-0.8592 -2.17615,1.5785 -2.2851,1.7386 -2.17616,1.6094 -3.26437,1.476 -2.72019,1.0414 -2.88354,2.5549 -2.50258,1.3681 -0.97927,3.3922 -2.82914,1.8789 -2.06748,-2.0349 -1.95854,-2.7775 -2.8834,0.6135 -2.39391,-1.8334 -1.08808,-2.7139 -2.88354,-1.1919 -1.57771,2.5434 -1.52331,4.2743 -2.12189,2.1783 -2.829,0.7848 -2.61153,1.4215 -2.44817,2.2357 -2.93795,0.9672 -2.77459,1.1357 -3.10116,0.1628 -3.15542,0 -3.26437,0.326 -3.04661,1.4756 -1.79547,-2.4521 -1.30569,-2.7366 -2.99236,-0.4785 -3.10101,-0.9527 -2.93795,-0.1581 -3.26423,0.3165 -2.99235,0.9535 -2.28496,3.0559 -1.08822,-3.0559 -3.64506,-0.4772 -2.82914,2.24 -1.25128,3.2517 -3.15557,1.6499 -1.57771,-2.958 -2.01308,-3.8656 -2.8834,1.1186 -2.06735,-2.0713 -1.68652,2.8747 -2.39391,1.7808 -3.10101,1.3069 -2.82914,1.9797 -3.10117,1.1661 -3.15542,1.1737 -2.82914,1.5215 -3.04675,2.9118 -1.19681,-3.5898 -3.15557,-0.5068 -3.48191,1.0152 -3.5908,1.5334 -3.31863,-0.5125 -0.70725,-3.2121 -2.99235,-0.8352 -1.4145,3.3658 -0.10881,3.2609 -3.31877,-0.3461 -1.3601,-2.9148 -3.31877,-0.5093 -2.01294,2.3896 -1.3601,4.1774 -2.17622,3.5621 -2.82907,2.9056 -3.04676,2.2129 -2.88347,1.867 -1.8498,3.0318 -0.97927,4.0646 2.9378,2.368 -0.81605,4.0234 -2.61139,3.0836 -2.44831,3.5663 -3.86267,3.4281 -3.04676,2.6187 -3.3731,2.6611 -3.42751,2.2512 -4.08043,1.5942 -4.29797,0.4588 -1.90421,0.9202 -3.75393,1.6241 -3.80841,2.1112 -2.50265,4.7927 -3.37311,3.689 -3.3731,3.7745 -4.67887,3.0829 -3.97163,3.143 -1.25128,2.9363 -0.38083,10.5702 0.76165,5.5549 5.44053,0 5.71254,-2.362 5.38612,-0.5849 0,5.6466 1.19695,5.5377 1.95861,5.735 -4.29804,4.2717 -6.14777,3.0255 -5.76695,2.3926 -5.22298,3.8334 -5.49486,3.9278 -7.01837,0.3616 -3.86274,5.527 -1.7954,8.4656 -5.60374,-4.6736 -6.80061,-2.6641 -6.9095,0.3778 -4.95082,5.3869 -5.76702,5.1683 -4.84201,6.5988 -4.57006,6.443 -3.37325,8.0902 -1.3601,-8.5276 -2.72026,-10.1606 -5.16836,-6.828 -4.73334,-5.7924 -6.8007,-5.2234 -6.90935,-2.9112 -5.05977,-5.6683 -3.97162,-5.4756 -5.00529,-4.6427 -5.87568,-2.595 -3.53647,-6.0002 -0.59837,-5.7848 -3.2643,-5.0064 0.10867,-5.6988 0.16335,-5.7757 3.97155,-3.4756 4.78768,1.3279 3.10116,-4.2114 -1.74099,-4.611 -3.10116,-3.4986 -4.24357,-2.2089 -0.87053,-4.8067 4.67887,0 4.40678,-0.9447 4.89655,0.4713 4.46126,-0.4713 2.23055,-4.8716 3.75401,-2.4951 3.48184,-2.4577 3.69953,-1.7649 4.18931,-4.1162 1.68652,-3.5977 1.25136,-3.7262 3.69953,-1.4263 1.63211,-3.4139 1.52345,-4.1224 0.38083,-5.1538 -0.87053,-3.7174 -0.21755,-3.6362 -0.8162,-3.3822 -0.38083,-8.0855 -0.81598,-3.1609 -1.30576,-2.7789 -0.81606,-3.212 -0.59844,-2.9961 -1.14262,-3.0972 -2.12168,-2.4385 -2.28503,-1.8054 -1.46898,-2.379 -0.97927,-3.0722 0.43516,-2.7332 1.74092,-3.112 1.63219,-2.228 1.52338,-2.3369 2.61145,-0.5449 1.90414,-1.6258 -1.3057,-2.2771 -0.16314,-2.5102 0.38083,-2.6042 1.36017,-1.9281 2.01301,-1.6542 1.90413,-1.5131 2.28496,-0.6267 2.06742,1.0039 1.19703,-1.3786 z m 37.38718,124.8994 -4.18917,-2.8662 -4.13483,2.8662 -1.4145,-7e-4 0,0 -1.7954,5.6157 -1.68659,4.9712 -1.25128,5.4188 -1.74092,6.5107 -2.39391,5.2161 -5.93016,4.4253 -0.48964,6.8749 3.6452,5.789 6.583,1.0429 5.82135,-3.4521 5.22291,-4.047 4.51566,-4.2724 4.29797,-5.1082 -0.1088,-7.9712 -0.32643,-6.4511 -1.19688,-8.6755 -3.42758,-5.8864 z m -40.04816,29.2098 -2.8834,-6.4773 -1.46905,5.5356 -2.06741,6.7078 -5.98457,-1.6217 -6.25651,-0.6442 1.52324,4.8968 0,0.6641 3.48206,5.7603 6.20203,-1.0311 5.82149,2.4172 0.81613,-7.8105 0.81599,-8.397 z m -24.66459,-104.2379 -0.76165,-3.7935 -0.92494,-3.5511 -1.19695,-3.634 -0.65285,-2.9446 -1.4689,-2.8942 -2.55712,1.2125 -1.57771,3.691 0.0545,6.4971 -0.16328,3.0973 -0.81599,4.3332 -3.21003,-0.3372 -1.90414,1.0139 0,0 -3.04668,3.4249 0.16314,3.6729 2.12182,2.6739 3.10116,-1.2534 3.26422,-1.2436 -1.36009,3.5785 3.64513,0.1809 3.10116,-1.8008 3.26437,-1.2489 0.76158,-3.3443 0.4897,-3.4495 -0.32642,-3.881 z m -84.80612,8.5347 -4.02602,-0.7002 -3.53625,-1.2193 -1.74099,1.569 0,0 1.46904,3.7192 2.82893,1.8005 3.754,-0.5419 3.42759,0.3611 3.3731,-0.3611 2.17616,0.723 -1.63219,-5.1743 -3.04668,1.0575 -3.04669,-1.2335 z m -61.74989,14.6675 -3.31871,-1.7162 -0.59858,3.2569 0,0 2.77474,3.5189 3.86281,0.7919 2.61138,-2.561 1.57771,-3.4824 -3.31863,1.732 -3.59072,-1.5401 z m -12.07793,-0.1919 -2.77474,-2.2814 -2.01294,2.0901 0,0 3.80819,2.6991 3.59087,0.9746 1.63218,0.3913 -4.24356,-3.8737 z m -93.468384,72.732 -0.761725,-6.7267 -2.121677,-5.0756 -2.774737,-4.3817 -5.168576,-2.1487 -1.686375,5.1481 0,0 1.795254,3.8999 0.108879,0.8485 1.632114,5.1838 3.645127,5.356 5.331716,-2.1036 z m 841.027764,-341.2835 0.0982,-1.038 -0.20842,-1.61454 -1.0097,-1.44783 -0.11857,-1.19332 -0.69218,-0.34321 -0.19293,-1.77817 -0.78347,-1.38383 -1.03209,1.05938 -0.07,0.80786 -0.52739,1.55802 -0.67122,1.50634 0.43251,0.95039 -0.5327,0.57876 -0.36403,2.15065 0.32125,1.6383 -0.20039,0.8345 0.38556,1.3894 -0.84433,2.2928 -0.3448,1.5855 -0.56384,1.2846 -0.54347,1.5608 -1.83394,0.9955 -2.65186,-0.9882 -0.42231,-0.8983 -1.45383,-0.7436 -0.78319,0 -2.00763,-1.7167 -1.43086,-0.9952 -2.1394,-0.9248 -2.20831,-1.591 -0.19867,-0.8113 0.98659,-1.4099 0.81606,-1.4304 -0.32183,-1.14214 0.95458,-0.095 1.05477,-1.15218 0.74027,-1.52366 -1.27541,-1.40556 -0.65026,0.54553 -1.04357,-0.24728 -1.62279,0.81348 -1.72183,-0.87334 -0.79323,0.28733 -2.33951,-0.72634 -1.47579,-1.16286 -1.83983,-0.70208 -1.47923,0.41134 2.03476,0.93306 0.0502,1.45049 -2.33391,0.53547 -1.4211,-0.33769 -1.6825,1.0031 -1.20636,1.62704 0.43322,0.71299 -1.25229,0.7465 -1.33067,2.2961 0.58854,1.5769 -1.76647,-0.2696 -1.73849,-0.02 -1.54182,-1.6999 -2.05213,-1.3142 -1.34244,0.3858 -1.22157,0.41 -0.0491,0.7203 -1.22043,-0.3345 -0.0436,0.8012 -1.3967,0.489 -0.66978,1.1344 -1.51785,1.4169 -0.33733,2.1982 -1.2256,-0.6267 -0.87175,1.4046 0.98917,1.3713 -1.18209,0.5801 -1.17004,-2.5056 -1.9439,2.4661 -0.0726,1.5836 -0.12489,1.1655 -1.62924,1.4866 -0.70912,1.5699 -1.5101,1.3079 -2.91943,0.8646 -1.53536,-0.07 -0.73524,0.2698 -0.42145,0.6483 -1.6848,0.3285 -2.18893,1.1057 -0.76452,-0.3661 -1.26306,0.2318 -2.12289,1.0912 -1.35335,1.2714 -2.25668,0.9993 -1.17349,2.0636 -0.20986,-2.2839 -1.1478,2.1576 0.29686,1.7609 -0.37896,1.513 -0.56931,0.7466 -0.30144,1.7601 0.64394,0.9136 0.26643,0.9641 1.37473,2.421 0.0464,1.5834 -0.82209,-1.1977 -1.37761,-0.8944 0.93721,2.8694 -1.22057,-1.3404 0.38485,1.3221 1.58718,2.4667 0.34638,2.4581 1.23033,1.2569 0.0708,0.9302 1.10573,2.0698 -0.11943,1.8225 0.45518,1.8369 1.46862,3.2796 0.31121,1.9392 -0.33963,2.2914 0.098,1.1908 -0.47097,0.7574 -1.37919,0.4539 -0.0606,1.9182 1.49316,0.6385 2.94657,2.158 1.86221,0 2.02629,0.1333 1.33541,-1.0768 1.3934,-0.954 0.80988,0.1524 1.65221,-1.792 1.90715,-0.1537 1.99701,-0.3652 2.4552,0.6104 1.74437,-0.2978 2.3573,-0.081 1.02578,-1.3565 0.53528,-1.7411 2.40827,-0.7629 2.94469,-1.6884 2.65043,0.2178 3.16131,-1.0947 3.59682,-1.1699 4.97371,-0.3084 2.67153,1.5901 1.95193,0.094 3.56424,1.9919 -0.52222,0.7623 1.46532,1.2415 1.73833,2.4181 -0.0861,1.7827 2.16897,1.3899 1.06396,-2.6806 1.73547,-1.1448 2.2597,-2.8351 0.22163,2.4602 -1.07286,1.6388 -0.42088,1.9432 -1.45268,1.8756 2.47157,-0.6243 1.35665,-2.3393 0.67194,2.5106 -0.9131,1.6523 2.67239,0.4119 1.36483,1.3915 0.64567,1.7434 0.51548,2.642 1.79561,2.1643 2.6889,1.0217 1.58818,0.2533 1.57528,0.5613 2.40151,0.9649 2.43253,-2.5684 1.51814,-0.6666 -0.43121,1.8414 1.70187,0.6259 2.30075,1.5757 1.67834,-1.5303 1.27669,-1.3731 2.56358,-1.4461 3.10906,-0.1279 1.59278,-1.2181 -0.14211,-1.1037 0.35858,-2.3885 0.7028,-2.571 1.072,-1.699 0.82337,-2.9177 0.92616,-1.6575 1.0143,-2.5785 2.05801,-1.6236 1.2266,-2.9824 0.55006,-2.3299 -0.0566,-1.8512 0.74959,-2.8585 0.48059,-1.4741 0.15934,-2.7988 -1.32378,-2.6657 0.19178,-1.9289 -0.0716,-1.7675 -0.78046,-2.4769 -2.17127,-2.4787 -1.2899,-1.1628 -1.97117,-1.8637 -0.47858,-3.1967 -0.67869,0.4622 -1.12654,-1.3015 -1.10846,0.6594 -1.08033,-3.2371 -1.58876,-1.8651 0.36374,-0.7185 -1.86336,-1.2881 -1.96256,-1.4023 -3.01001,-1.5369 -0.89945,-1.9879 0.26843,-1.5144 -0.7539,-2.4872 -0.69964,-0.3541 -0.4216,-1.4467 -0.59241,-2.4761 0.28537,-1.2758 -1.33282,-1.122 -0.91999,-1.2138 -1.78226,1.0814 -1.0008,-2.2479 z m 5.10046,85.7062 -1.81729,-0.3248 -0.0713,1.6861 1.60283,3.2357 0.38011,2.4818 1.71236,3.2577 1.70819,0.1192 0.57504,0.2062 1.9284,-2.6594 0.9708,1.0413 0.2868,-3.0462 0.95156,-1.2928 -0.19665,-4.4005 -1.66614,-0.2467 -2.16854,0.7067 -1.5124,0.5053 -2.68373,-1.2696 z m -83.18685,-139.46711 -2.36319,1.52767 -1.09985,1.0428 -1.36411,1.76133 -1.99256,2.20166 -3.32969,0.6022 -1.18568,0.5245 -0.55897,2.35372 -2.14644,0.51931 -2.03576,-0.95241 -1.65035,1.84672 -0.32355,2.57411 0.38671,2.43025 1.33354,2.37641 1.38608,0.77239 0.42475,3.72843 2.28998,0.32098 1.81959,-0.15295 1.01343,1.34646 3.30241,-1.0006 1.38522,0.89145 1.9805,0.15732 1.10042,1.70176 3.1557,-1.25273 0.40897,0.99024 1.07142,-4.25476 0.0729,-2.76797 2.6711,-1.90022 -0.12029,-2.51729 0.92644,-1.89386 3.29136,-0.32775 -3.11422,-2.57137 0.47973,-1.27875 -2.04194,-2.63291 1.58001,-2.51391 2.04523,-0.94893 -0.49609,-1.36106 1.8638,-0.13833 0.1978,-1.09259 -2.31725,-0.83967 -1.82949,-0.77849 -0.1269,-1.21455 -1.42713,-1.41483 -1.12367,0.009 -1.40101,2.18527 -2.13897,1.94177 z m -476.6243,-148.69016 1.48283,-2.78124 0.53679,-1.20889 -1.2889,-0.19602 -2.4102,1.53658 -1.72233,2.51245 -2.86977,6.87244 -2.33283,2.54165 1.20844,1.13632 -1.7303,1.46372 0.42633,1.22335 5.39107,0.12578 2.98453,-0.2461 2.6655,0.99927 -1.96184,1.91924 1.65752,0.14119 3.22303,-3.55382 0.77393,0.52437 -0.60296,3.34594 1.82633,0.76477 1.25638,-0.15052 1.16961,-3.59099 -0.86264,-2.57291 -0.35412,-2.22114 -1.94411,0.7184 0.85962,-3.09364 -2.77007,-1.31285 -1.28158,1.04087 -2.46461,-1.17125 0.97475,-1.49941 -1.86559,-0.92693 -1.81327,1.45926 1.83846,-3.79989 z m -15.7563,6.82241 -0.0813,-0.77999 -2.84085,-1.78717 -3.65258,-1.07992 -0.96084,0.36297 2.58295,2.026 3.60022,1.33401 1.35243,-0.0759 z m -18.5936,-290.13249 -6.01601,-1.47539 -6.01602,-1.48911 -8.02013,3.94005 -1.47562,-2.50416 -8.49066,0.96668 -4.98156,2.54732 -3.66666,3.61621 -2.11112,11.63587 -3.00001,-5.92804 L 263,23.6595 l -4.084,7.89676 -5.45008,3.31731 -3.2437,0.65714 -4.13061,3.8017 0.60878,6.58495 3.24405,5.44929 2.31492,7.22654 4.91022,5.82617 9.71931,-1.078 6.25492,1.94977 -4.33463,5.99777 -2.19374,-1.76028 -7.59263,-0.70535 1.17902,8.23839 3.92331,5.98072 -0.78814,5.15353 -4.92583,3.43062 -2.24984,5.42094 4.50534,2.62215 3.78794,8.47178 -7.42683,-5.6516 -1.69445,0.93322 1.36836,9.29311 -5.1353,2.80712 0.34839,5.79858 5.25189,0.62096 4.13377,1.42513 8.15959,-1.82821 7.25872,3.23988 7.42261,-7.12725 -0.0605,-2.99159 -4.74655,0.4778 -0.3885,-2.8153 3.88005,-3.79431 1.31717,-5.10472 4.29158,-3.79475 2.63914,-4.71832 -2.29725,-7.03822 1.92006,-2.6255 -3.82914,-1.86975 8.41036,-1.61336 1.77,-3.11888 5.73,-2.58085 4.75083,-13.34952 4.52695,-4.89823 6.55469,-11.02198 -6.04789,0.097 2.51147,-4.26369 6.72061,-3.95632 6.77812,-8.82101 0.12188,-5.67799 -5.08333,-5.98626 -5.96486,-2.90297 -7.42403,-1.80219 z m -50.17272,143.13343 2.04452,-6.31532 -7.17247,2.62739 -2.85649,3.95599 -2.13495,8.34803 0.88058,8.97332 3.94564,0.0377 -2.90472,3.89013 2.3103,2.9359 4.50475,1.2443 5.87582,2.39569 10.10899,1.80227 5.03616,-1.03509 1.4867,-2.39875 2.19058,2.76419 2.44795,0.45807 2.94089,4.92264 -1.77903,1.96323 5.6272,2.60374 4.2547,3.64713 1.07099,2.52872 0.76359,3.21176 -3.59374,6.86819 -0.96936,3.41488 0.92802,2.40369 -5.71799,0.85246 -5.21947,0.11825 -1.82963,4.82914 2.34991,2.20753 8.03189,-1.02234 -0.0442,-1.8734 4.04476,3.12292 4.14452,3.24961 -0.96972,1.75894 3.3665,2.99646 5.96131,3.50681 7.53277,2.37251 -0.45202,-2.07323 -2.89273,-3.64304 -3.92641,-5.33041 6.96706,4.95746 3.50345,1.64689 0.95666,-4.403 -1.80767,-6.24768 -1.1442,-1.71516 -3.77102,-3.0102 -2.92122,-3.87919 0.35075,-3.90937 3.59388,-0.86691 4.36766,6.54696 3.41783,2.83157 4.87574,-7.80593 0.86443,-4.89193 -4.36931,-0.46969 -3.99273,-6.64078 -4.40986,-1.62558 -6.54238,-4.92663 5.10025,-3.60366 -2.62761,-7.47814 -2.41967,-3.32541 -6.70545,-3.32349 -2.89503,-5.50125 -5.1581,1.97346 -0.35965,-3.8295 -3.82564,-4.28509 -6.16327,-4.67307 -2.62782,3.68192 -5.49529,2.63865 0.41349,-6.01106 -4.76529,-9.96386 -7.04034,4.02756 -2.56738,7.63318 -2.18836,-5.87106 z m 63.60467,157.57362 -0.97323,-1.97187 -1.0493,1.25392 0.69392,1.35263 3.52352,1.70293 1.02895,-0.26077 1.36619,-1.6456 -2.57561,0.1099 -2.01444,-0.54114 z m -33.89273,-108.03909 1.80531,-2.12596 0.31289,-1.00058 -0.031,-3.14862 -2.16864,-2.06621 -2.54569,1.0379 -1.17984,4.13271 0.69314,3.52897 3.11386,-0.35821 z m -1.317,-49.01035 -4.7901,-5.33377 -6.35728,-1.06717 -1.33563,0.65956 -0.11726,3.52382 3.05629,5.05817 0.8044,0.56931 3.0405,-1.26368 2.99231,0.19905 2.95287,0.27454 -0.2461,-2.61983 z m -8.12727,81.49278 -0.70611,-1.22367 -1.13714,-0.13113 -1.07224,1.78912 -0.12987,0.40939 0.72941,1.75788 1.22789,0.49776 1.08806,-3.09935 z m -42.82852,-124.91177 -5.7251,-0.79202 -1.04516,5.05038 3.21923,3.71123 5.7462,1.44079 2.78866,5.04906 0.33784,5.55196 0.96068,5.93691 7.38255,3.38689 4.48437,1.27739 5.70249,-0.1831 7.96822,-1.5994 3.5557,1.2639 4.14186,-2.24025 1.73289,-2.81458 -0.62106,-4.47849 -2.97505,-4.19145 -4.51365,-0.79363 -5.65606,0.95992 -4.41546,2.41992 -4.05301,-0.93087 -3.74669,-0.49081 -1.76432,-2.67754 -3.18728,-2.59067 0.63282,-4.39334 -2.39772,-3.94677 -5.46916,0.027 -3.08379,-3.95242 z m 26.45216,102.7831 -2.00705,-0.55005 -0.94733,6.08446 -0.35521,5.06578 -2.41451,3.11062 3.76449,-0.59961 0.95379,3.62158 3.95274,-3.19957 2.7545,-3.35254 1.56005,2.83999 4.32266,1.49874 2.46547,-1.96411 -1.98308,-2.09253 -2.04466,0.4938 -0.24604,-3.03695 -3.18212,-2.01847 -3.04181,-2.2488 -1.61496,-1.73878 -1.42153,1.0252 -0.5154,-2.93876 z m 9.06405,18.81435 0.0591,-1.17791 -3.81525,-0.058 -2.06442,2.79227 0.60847,1.61733 1.96125,0.1374 3.25089,-3.31108 z m -14.22708,-157.07164 -2.19445,-10.55111 -4.55555,-3.15832 -4.6747,-3.64826 -3.54708,-9.47383 -6.45994,0.92808 1.21386,4.11154 -2.84728,1.23477 -1.92497,5.27318 -1.92578,7.39089 1.75994,7.19482 3.0615,5.08783 5.07989,-0.11481 -2.19583,3.96594 -0.0428,5.24933 2.98463,5.70357 5.75648,1.75031 4.91391,-0.98087 5.13275,-10.63129 3.81448,-4.40716 -3.34903,-4.92461 z m -17.15638,82.02394 3.31203,-1.83189 4.15048,-8.66619 -5.30617,-2.44865 -5.7879,-0.35405 -2.75593,2.7459 -1.45132,4.19382 -0.043,4.77522 1.73302,8.11637 3.16892,0.33594 2.97986,-6.86647 z m -1.15683,-22.11903 -1.01387,-3.42776 -2.4252,-3.88388 -3.9938,2.99129 -1.47873,4.88077 3.36736,2.7622 4.0327,0.78094 1.51154,-4.10356 z m -0.63125,-29.76842 0.33152,-1.47634 -1.94978,-2.42638 -5.59368,-0.19266 0.74069,3.64339 5.20568,0.81991 1.26557,-0.36792 z m -5.52858,-7.05247 0.75282,-4.92459 -3.31978,-4.88059 -1.61898,-0.94624 -3.59654,-0.5739 0.21977,5.84925 1.1905,5.12783 2.26235,3.09471 4.10986,-2.74647 z m 0.50726,90.20389 -1.69367,-3.00454 -0.83333,-1.51306 -1.66667,-1.44597 -2.94683,-2.30282 -1.94206,3.50865 -2.44444,2.46524 3.79333,3.51099 2.26222,-0.84765 3.74411,2.33885 1.72734,-2.70969 z m -13.07983,-41.6338 -3.28773,4.76158 3.06012,6.22716 -5.67123,-1.16384 -0.0555,2.98418 6.90328,6.9848 1.92211,3.35148 2.67555,0.72433 4.55461,-3.38342 0.5,-8.13996 -4.20441,-4.03873 2.5933,-4.61649 -0.72222,-2.85574 -4.95519,1.25283 -3.31264,-2.08818 z m 5.15672,-31.54532 -0.21386,1.58141 -3.90695,-0.69309 -4.184,4.05032 -2.9883,-0.36683 0.17619,8.84477 4.55325,-0.85964 -0.0576,6.40787 2.98589,1.71383 4.57983,-1.09706 1.26552,-8.17888 -0.0866,-5.89236 -2.12337,-5.51034 z m -4.33387,-20.65999 -2.1249,-6.66475 -7.51146,-5.30433 -5.4528,-2.02595 0.20197,5.63566 3.35875,3.44486 -2.6825,4.14981 6.18423,0.51091 4.57186,4.39771 4.53611,1.48441 -1.08126,-5.62833 z m -39.18605,59.26495 -2.83866,-1.85815 -7.43703,5.78669 -1.93403,3.67893 -2.33144,6.71203 4.85086,2.29707 4.28491,-0.12113 -6.44241,3.43179 1.4655,3.10214 3.93877,0.1676 5.93567,-0.66395 5.37195,1.94248 -3.62587,1.43247 -3.91586,-0.36871 -4.2878,1.39697 -1.84797,0.86592 3.42238,6.29995 2.4665,-0.87543 3.79178,2.1266 1.50489,3.62034 4.94181,-0.71901 7.0393,-1.14686 5.21517,-2.62341 3.22928,-0.47434 4.77777,2.09714 5.02712,1.20907 0.93597,-2.83499 -1.77186,-3.02253 4.56075,-0.63944 0.30141,-3.53928 -5.01275,-3.89409 -4.66497,-4.17161 -0.86133,-6.12697 -1.74339,-8.84742 -3.11147,-3.8057 -2.76073,-1.53353 -2.44427,1.40447 1.97333,9.50315 -1.39544,3.69878 -2.27275,-8.90159 -2.53837,-3.07866 -3.139,4.77261 -3.86286,-4.7183 -6.18144,2.84352 1.38658,-4.42462 z m 26.85325,-2.88111 -2.11111,-2.15552 -3.72222,0.394 -0.94445,1.37168 4.33334,6.69358 2.44444,-6.30374 z m -10.30947,-29.5731 -0.93661,-5.64751 -2.86808,-1.40261 -2.54489,4.37128 3.97266,10.95096 -4.85311,-0.84358 -4.93428,-6.72728 -7.81752,-3.96182 -2.61431,3.29142 -3.78994,10.99777 3.88386,1.93542 12.55,-1.28655 -5.76984,4.72831 0.35428,3.40116 4.22428,-0.23445 7.00853,-4.53963 9.40703,-1.65863 1.69025,-5.17192 -0.48895,-5.51914 -2.91092,-0.49824 -2.47361,1.9115 -1.08883,-4.09646 z m -4.0326,-30.66129 -3.61254,-2.87111 -1.48986,-0.65303 -2.84967,4.24527 -0.045,1.98406 4.61327,0.0136 3.3838,-2.71876 z m -1.45498,12.24679 0.92357,-3.94939 -3.91664,-2.10558 -4.05595,1.37301 -2.24915,4.22254 4.11969,4.16853 5.17848,-3.70911 z m -28.53628,66.71781 0,-3.84093 3.44444,-6.35118 6.81128,-6.63062 3.49203,-2.4456 -2.98225,-4.16213 -2.69783,-2.92687 -7.09484,-0.5675 -3.96694,-2.13688 -9.38853,1.61033 2.71597,6.17071 -2.40914,6.37499 -1.92419,6.80647 -1.19153,3.82424 6.41375,4.65394 1.46614,3.76335 7.31164,-4.14232 z m 11.83726,-66.04486 -3.80985,1.89692 -4.26058,-0.17848 -5.70443,8.11549 -4.71497,8.89619 0,0 3.76369,2.48765 4.44633,-1.75614 5.16363,-5.00799 2.59544,-0.58162 2.13955,-4.19039 0.38119,-9.68163 z m -20.30949,199.35989 -1.14585,-2.32924 -2.77294,-1.7573 -1.37287,-2.03936 -0.94446,-1.4948 -2.6111,-0.46092 -1.70439,-0.66203 -2.9162,-0.95561 -0.23936,1.01434 1.07013,2.36484 2.85929,0.77617 0.49997,1.22329 2.48613,1.49261 0.83329,1.50313 4.56145,1.90759 1.39691,-0.58271 z m -26.86112,-25.20992 -0.16572,1.50744 0.51404,2.05936 1.40172,1.44615 1.02656,2.11828 1.67389,2.08264 1.10774,0.009 -2.41788,-3.67656 0.83192,-5.30911 -2.66672,0.37878 -1.30555,-0.61576 z m 676.4422,126.89465 0.64294,-1.69623 1.22057,-1.29655 -0.62083,-1.12724 -1.59709,-0.0702 -3.03484,0.82812 -1.369,1.33614 0.0805,2.52623 2.27778,0.9072 2.39994,-1.40752 z m -527.82975,-12.14103 -2.60901,-1.02757 -2.18247,-0.0341 -2.39915,-0.21552 -0.67302,0.33186 -2.10308,0.28887 -1.41859,0.58772 -1.25588,0.66943 -0.60196,1.08392 -1.46625,0.92584 1.18856,0.28371 1.37466,-0.32727 0.3982,-0.73114 1.15095,-0.0418 1.996,-1.56155 2.72471,0.15408 -1.04164,0.75129 0.96958,0.58557 3.62058,0.46468 0.8335,0.62811 2.59021,0.80163 1.56981,-0.11631 0.65845,1.69809 0.95982,0.85823 1.79066,0.1985 1.13207,0.77053 -1.86215,1.65053 3.97729,-0.28778 1.91383,0.23375 1.86968,-0.14671 1.84707,-0.37522 0.32951,-0.69319 -2.09964,-1.21367 -2.04768,-0.12231 0.20233,-0.83698 -1.65666,-0.60729 -0.91446,0.041 -1.72944,-1.34595 -2.35242,-1.85509 -0.98372,-0.70594 -2.59459,0.33953 -1.10566,-1.10139 z m 256.58203,-121.70934 -0.8864,-2.48188 -4.07497,1.64418 0.38786,2.03947 2.9068,2.74121 1.66671,-3.94298 z m -234.43976,135.7042 0.14068,0.83903 0.71514,0.46358 1.11184,-1.99936 0.91847,-0.42015 0.42267,0.7098 1.0664,-0.18021 0.50083,-0.53375 0.91374,0.13933 1.27512,-0.12276 1.32119,0.63642 1.03159,-1.19169 -1.36519,-1.07651 -1.23592,-0.10612 0.0895,-0.8764 -1.51979,0.0587 -0.50435,-1.04514 -0.73208,0.0741 -1.6454,-0.7597 -2.16832,-0.0137 -0.34738,0.50324 -2.4092,-0.46363 -1.69477,-0.13052 -0.62565,0.81512 1.75255,0.45976 -0.021,1.12415 1.2688,1.2718 -1.00015,0.65231 -2.09613,-0.23505 -2.55662,-0.40695 -0.24474,0.94425 1.48778,0.91094 1.29966,-0.54631 1.69484,0.21138 1.31093,-0.20276 1.84492,0.49678 z m 697.42347,98.32888 1.76627,-0.7138 0,-1.4126 -1.62914,0.9023 -0.88028,0.1591 -1.38825,0.5945 0.35617,1.0821 1.77523,-0.6116 z m -2.75151,1.5649 -0.68897,0.4801 -1.26306,-0.3601 -1.07175,1.0008 0.26784,1.2837 1.53111,0.3617 1.72236,-0.4018 0.45931,-1.524 -0.95684,-0.8404 z M 0.729529,507.1226 1.074111,505.7311 0.5,505.8648 l 0,1.4126 0.229529,-0.1548 z m 491.423231,-248.6541 -3.35136,0.44858 -2.21806,-0.42197 -2.15785,4.27911 -1.00877,5.31644 1.40273,2.56877 0.16278,4.76283 1.4956,-2.32175 0.91352,1.35622 -1.00948,2.17971 0.6621,1.30823 3.37268,0.8459 0.0425,0.0675 1.86026,2.93156 -0.40853,2.72375 -0.005,-5e-4 -4.12825,-0.42192 -0.52782,3.03511 1.5213,2.46186 -2.90264,1.40308 0.78591,1.78716 4.33792,0.74365 0.0218,0.004 -2.48649,0.96004 -4.07383,4.6051 1.47651,0.86398 1.95143,-1.65531 2.56961,0.49334 1.8366,-2.04447 1.29521,0.8615 4.72911,-1.20432 3.71625,0.0406 2.4987,-2.31294 -1.10917,-2.31091 1.41507,-1.32167 0.33762,-2.91289 -3.36543,-0.87585 -0.79165,-1.82867 -1.70963,-5.37129 -1.90141,-0.76912 -2.47412,-5.74556 -0.22037,-0.52015 -2.87221,-0.31642 2.49727,-4.50149 0.72418,-4.18704 -3.04367,-0.0271 -2.83007,0.71061 2.96895,-5.68705 z m -7.3804,20.61164 -2.97749,-2.9841 -2.32867,0.20047 -2.0995,2.25644 -3.77927,3.72568 1.45067,4.73419 -2.25223,4.74786 3.93186,0.67813 4.92433,-2.66363 2.09965,-4.09443 -0.45806,-3.33711 1.48871,-3.2635 z m 81.56092,75.2537 -0.5139,1.45002 3.38897,0.66274 -0.0278,0.55955 4.00004,-0.28813 0.34724,-1.00222 -1.51384,0.4081 0.0672,-0.59205 -2.0672,-0.24184 -2.16208,0.19414 -1.51857,-1.15031 z M 425.22094,3.61824 403.03369,0.5 l -9.81741,2.39325 -3.54275,8.86973 -9.74697,-1.05566 -9.32598,13.4794 -0.3803,9.01158 6.60472,10.67134 -5.769,-6.3531 -3.90006,-1.57907 -6.62986,-7.70768 -7.36852,11.21999 -3.03095,-6.248 -8.53617,0.18164 -8.5418,3.1802 -6.57964,5.19076 1.15756,8.49142 -4.04114,1.9603 -9.61678,12.22084 -2.42136,6.58366 7.49744,5.70928 -1.07444,5.5857 -10.17431,7.09411 -10.51647,6.80632 -0.38228,5.29496 6.26131,5.38407 11.886,3.33851 -5.59095,0.67008 -7.29405,3.93371 4.827,7.59093 3.22353,3.71274 6.77808,-0.8492 7.42394,-0.46827 5.89734,0.84433 7.45402,6.63101 -0.0323,4.58562 3.53655,4.14242 3.34334,10.8097 2.20469,6.68368 1.68931,3.49253 -3.10136,8.43251 2.31855,2.1737 2.76606,-1.22984 2.48569,2.97778 4.77564,5.3882 -5.66993,-2.2357 -2.57646,0.12214 -1.08658,4.43938 0.18514,5.50421 3.40853,2.58263 2.49547,-1.12297 1.51204,-1.18001 3.17324,-2.84279 -0.58109,6.20893 -1.09708,3.23288 -4.18067,2.8249 -2.74641,8.58334 1.85416,2.50728 -1.00014,5.12745 3.84742,6.21537 0.37903,5.84526 1.40803,4.12158 4.8135,7.6114 1.85363,5.75881 2.69484,3.15529 5.55361,0.0294 4.10039,4.5985 3.91416,-0.33936 1.42281,-5.52257 1.24869,-4.81213 -1.11866,-4.66845 4.52966,-4.90987 1.40525,-4.13259 0.0384,-4.52127 2.37992,-4.08838 3.99214,-1.56962 3.69797,-1.66491 1.91928,-0.28105 5.97467,-4.84936 3.86363,-7.57136 2.87334,-2.84837 3.06372,-0.0317 8.12872,-2.59489 7.55028,-6.0739 7.44514,-6.97015 -3.82889,-0.44639 -7.32039,-0.3482 3.22614,-4.37341 -0.95017,-5.8182 3.43442,4.93762 2.14164,3.23408 4.9513,-1.60883 -1.05347,-6.89501 -3.6393,-5.42876 -3.75,-2.27273 1.4295,-2.46783 5.49666,3.79964 -0.0377,-4.09154 -3.48006,-6.42448 3.87145,-0.0282 3.9163,-1.50409 0.91056,-3.47922 -3.22133,-4.10382 6.17058,-0.7351 -3.59825,-9.07296 2.97005,-1.00634 -0.65308,-9.54111 -5.12603,-6.24357 4.56781,-3.84495 4.33939,-0.50877 -3.33522,-8.25952 -0.0874,-15.11898 2.23608,-9.51137 3.24903,-11.4027 -6.43303,-0.779 8.87844,-2.84033 1.56853,-3.85772 11.32439,-12.55164 -1.56008,-8.03699 -8.32778,-3.7778 -13.48736,7.48078 -7.07217,6.86112 3.04961,-10.86601 -2.3098,-7.08432 -5.39222,6.06707 -8.36717,-6.84862 -9.83278,2.22149 -1.39872,-3.61175 14.9513,-2.01121 10.62698,-0.91452 5.12897,-8.23329 -17.3752,-18.41675 z m 447.89953,460.21873 -0.43839,-1.03253 -4.45953,-1.14081 -1.42383,0.90538 -3.74439,0.67301 1.17578,1.37475 2.48162,0.51307 1.10042,1.65472 4.06622,0.006 0.23283,0.73758 -1.98108,-0.054 -2.99178,1.00144 2.12218,1.3665 0.009,1.20923 0.6306,1.021 1.06597,-0.24551 0.81993,-1.35285 4.17144,2.57318 2.2907,0.23298 5.38497,2.36118 1.33354,2.34397 0.72418,3.04179 -1.74867,0.77785 -1.17951,2.28282 3.51945,-0.0863 0.68414,-0.79962 2.82124,0.56444 2.47344,2.3064 2.87335,0.11733 1.55604,0.47062 2.18189,-0.96718 -0.35427,-2.07222 1.69642,-0.92631 2.353,-0.79958 3.6231,1.22618 1.44277,2.458 1.57656,1.54745 2.15994,1.79853 2.80588,0.42473 2.38659,0.31722 0.68357,0.73234 1.83939,-0.19716 0.30848,-0.81637 -2.9523,-1.18708 0.83314,-0.53167 -2.14472,-0.47868 0.11168,-1.24684 -1.59092,0.0935 -1.80408,-2.97933 -2.47989,-1.83912 -0.6138,-1.86515 2.55611,-0.30104 -0.67509,-1.48231 -4.6282,-1.72557 -0.4226,-1.64311 -1.54613,-1.40113 -1.91447,-1.4268 -5.13534,-1.59273 -4.81955,-1.91643 -2.98202,-0.53134 -2.06045,-0.99452 -2.37554,-0.96888 -2.46941,0.002 -3.18729,1.67751 -2.32142,2.95008 -2.87493,-1.66509 -0.77572,-4.49533 z m 1.6146,14.09632 0.007,-1.33173 -0.6316,-0.8165 -0.58136,0.94346 -0.49322,1.00379 0.27044,2.10465 1.42914,-1.90367 z m -11.81467,-8.69819 -3.05652,-0.81111 -3.43088,0.11541 -0.6583,1.52945 1.92164,0.0981 1.56824,-0.18377 2.32027,0.23281 2.34525,1.14725 -1.0097,-2.12811 z m -4.95304,-11.7437 -0.26025,-1.13482 -1.64001,-0.24376 -0.19939,-1.51769 -0.92184,1.01146 -0.5584,2.22005 0.82496,3.55104 1.12095,1.75954 0.77773,-0.33335 -1.14435,-1.46653 0.4226,-1.69026 1.43273,0.27203 0.14527,-2.42771 z m -3.99732,12.76008 -0.69045,-0.91748 -2.81005,0.13341 0.54102,1.19683 1.91978,0.51108 1.0397,-0.92384 z m -5.57976,-13.55875 -0.48475,-0.62084 -2.74575,2.01762 -3.19432,0.11643 -3.50208,-0.38547 -2.16955,-0.82039 -2.36133,2.06347 -0.5825,1.14509 -1.39613,4.18758 -0.39561,2.20648 -1.14779,1.82086 0.86271,1.90572 1.16803,0.0206 0.42992,2.68707 -0.79639,2.56632 1.19344,0.81915 1.76159,-0.40516 -0.11297,-3.98823 -0.23499,-3.24498 1.8526,-0.84533 -0.20613,2.71088 2.00275,1.63259 -0.3603,1.07558 0.69103,0.77144 2.72593,-1.07901 -1.34215,2.28261 1.08923,0.98128 1.48282,-0.8204 0.024,-1.83176 -2.4974,-3.2144 0.50743,-0.95565 -2.62861,-3.56352 2.44516,-1.07722 1.20607,-1.6279 1.21023,0.40357 0.22824,-1.27942 -5.17985,0.94534 -1.49976,1.25845 -2.48621,-2.47051 0.39504,-2.10253 2.42678,-0.39993 4.62877,-0.13867 2.6734,0.54319 2.08758,-0.53414 2.23185,-2.75583 z m -2.23486,32.25926 1.81269,-2.10505 2.32601,-0.80819 2.89475,-1.23075 1.02204,-0.76104 -1.0519,-0.34804 -0.86817,0.35066 -1.93786,0.095 -2.39118,0.63143 -0.32657,0.66305 -2.74632,1.11748 -1.19444,1.71846 -0.25006,0.95916 0.33332,0.33877 2.37769,-0.62098 z m -4.2567,-5.75572 -2.48937,1.02846 -1.84916,0.21379 -1.74049,-0.84171 -2.20601,0.58366 0.01,1.02706 3.69472,0.3465 4.17359,-0.79787 0.4071,-1.55989 z m -6.07758,6.03676 0.16637,-0.76155 -0.97152,-0.8563 -1.45957,-0.85786 -2.59029,0.55372 3.68669,1.97582 1.16832,-0.0538 z m -7.82109,-6.0327 -0.74443,0.99262 -1.52302,0.0221 -0.95443,1.61821 1.4933,0.0224 1.92409,-0.37755 3.2114,-0.56447 -0.68902,-1.19405 -1.71623,0.22936 -1.00166,-0.74855 z m -25.76816,-3.69227 -0.37954,-0.99462 -1.1521,-0.21305 -2.24189,-1.09178 -3.37046,-0.16495 -1.90599,2.6707 2.54205,0.2056 0.48188,1.20378 5.06572,1.15381 1.15526,-0.35055 2.03892,0.27768 3.21801,1.07119 2.59975,0.50385 2.88226,0.2079 2.51405,-0.0765 3.05494,1.13166 3.16949,-1.07029 -3.4072,-1.66731 -4.16713,-0.51102 -1.01099,-1.81509 -5.15343,-1.3449 -0.61208,1.15273 -5.32152,-0.27888 z m -7.79396,-2.58605 0.11053,-4.31382 0.69763,-3.46208 -1.35134,-1.76017 -2.03949,-0.24582 -0.96779,-1.55116 -0.47083,-1.9382 -0.99778,-0.0712 -1.59207,-0.96475 1.1132,-2.26807 -2.11543,-1.26897 -1.60714,-2.3263 -2.33405,-1.90366 -2.82383,-0.0436 -2.63177,-2.98918 -1.53177,-1.15763 -2.14831,-1.88784 -2.45635,-2.72596 -4.30005,-0.53898 -1.78844,-0.11248 0.24403,1.4199 2.89761,3.07008 2.09146,1.55881 1.45182,2.37971 2.50487,1.75033 1.02406,2.1691 0.81591,2.38833 2.43956,2.31529 2.11256,3.88982 1.37947,2.08387 2.10295,2.2657 1.18913,1.6876 3.56654,2.27705 2.33936,2.33272 3.07575,-0.0584 z m -334.23986,-265.88549 -4.60868,-0.49374 -4.53001,3.67738 -3.49505,-1.94132 -4.22067,3.71934 -4.32956,-4.64608 -4.20997,1.02394 -1.87686,4.43749 5.82989,1.55773 0.1195,1.94686 -4.91845,1.27349 6.046,3.17238 -2.73469,2.81873 7.75061,1.99172 3.65696,0.91897 2.39392,-1.13881 8.01278,-4.34625 3.6114,-4.96543 -3.13863,-4.56346 0.64151,-4.44294 z m 83.41409,134.51314 -2.10869,0.30847 -2.83359,0.38437 -3.25059,-0.3226 -0.38872,1.80668 3.87702,1.77679 1.41249,0.37554 2.12433,1.30675 0.58308,-1.78571 -0.4157,-1.08176 1.00037,-2.76853 z m -17.52879,-10.76064 -1.38895,1.14197 -1.52776,-0.18391 0.63404,2.09357 0.11125,4.36066 1.05176,0.94855 1.13301,-1.19456 1.26305,0.2262 0.39016,-4.78501 -1.66656,-2.60747 z m -239.2016,75.38944 1.95251,-0.0544 -0.46028,-0.7999 -1.47572,-0.70259 -1.86939,-0.26254 -0.63268,-0.0987 -1.16767,0.20411 -0.33332,0.66888 1.58805,1.06449 1.55467,0.46815 0.84383,-0.48753 z m 613.36868,-86.59491 -2.13137,-1.30604 -3.26451,-4.09231 -0.82137,3.07037 -0.80945,5.34934 -2.96795,0.21224 -1.37374,2.92033 0.38212,3.72022 3.08939,-0.0558 1.51168,-4.09862 4.36767,2.56881 2.43281,-3.74142 4.12076,-1.04179 -0.61753,-4.32252 -1.965,1.64152 -1.95351,-0.82429 z m -8.14937,25.78903 -0.0469,-3.62089 2.56975,-3.58269 0.0824,-2.92232 -1.5147,-5.08088 -2.9533,0.67855 -1.17335,2.32078 0.47614,4.07783 -1.74551,4.36042 -1.58001,1.36982 -4.07497,3.49368 -1.85217,-1.66261 -2.90637,6.13735 -2.9701,-0.69883 -5.52953,1.01859 -2.03734,2.32102 -2.79383,1.74231 -1.45699,2.10417 -2.62631,1.02571 1.12842,2.2701 1.75829,0.95751 -0.68127,2.94785 1.34416,1.26248 1.79576,-1.36704 1.85346,-5.58589 -2.81637,-2.45148 3.25174,-0.0642 3.28763,-1.58078 4.83088,-0.74345 0.11541,2.51113 1.86667,1.28237 3.95727,-3.82637 4.88313,-0.20701 3.54931,-1.59365 1.44665,-2.40441 -0.48417,-1.72261 1.04616,-2.76661 z m -17.60545,10.23257 -2.03978,-0.72492 -1.14205,1.41088 -1.57943,-0.3876 -1.53666,1.9936 -0.0224,1.57487 1.8104,0.94172 0.73725,-1.93756 1.42411,-0.77336 1.14019,1.06695 1.56378,-2.01596 -0.35542,-1.14862 z m -148.39002,83.78403 1.16473,-0.79551 0.41843,-2.91423 -1.34344,-2.92086 -1.29306,-1.98011 -1.91949,-1.56515 -1.25732,4.5655 0.49251,4.02712 1.32191,2.22232 2.41573,-0.63908 z m -86.55975,55.25912 -0.68758,-1.88464 -0.73739,-1.21137 -0.96908,-1.22025 -0.91984,1.27156 -0.0513,1.71279 -1.5312,1.98461 -1.17994,-0.3437 0.37824,1.2228 -0.83357,1.4424 -2.28596,1.7703 -1.58317,1.6426 -1.22014,0.039 -1.0285,0.5225 -1.54943,0.5926 -1.3845,0.1066 -0.37236,1.8379 -0.97051,1.6261 0.22192,2.6894 0.52624,1.8487 0.64437,1.3927 -0.25019,1.8798 -1.32766,2.2475 -0.007,0.9903 -1.27885,0.5161 -0.49753,2.1554 0.25407,2.1619 0.97812,2.4089 0.18331,2.6962 0.76654,1.6136 2.20514,1.098 1.59982,0.7857 2.42492,-1.3006 2.25912,-0.7262 1.25545,-3.5363 1.06396,-4.1987 1.71609,-5.6546 1.37014,-4.0689 1.09396,-3.4154 0.17498,-2.4674 0.76654,-0.671 0.24661,-1.2294 -0.52983,-2.1417 0.52222,-0.8534 0.94353,1.691 0.49121,-0.8495 0.27618,-1.3822 -0.71973,-1.345 -0.44701,-3.4465 z m -68.35801,-432.40289 -7.02326,-4.21867 -2.80919,5.04436 -4.0332,-4.03817 -8.57771,4.68007 3.03958,7.40956 3.98611,0.27617 0.49423,4.28276 8.19244,2.53877 8.05607,-1.78904 4.11904,-8.43952 -5.44411,-5.74629 z m -2.00974,37.78803 -4.00772,-3.00717 -1.103,-5.1285 -5.75656,2.75664 1.67836,4.30361 -1.91694,3.39309 4.90086,2.99335 6.205,-5.31102 z m -17.97858,-26.43498 -3.50272,-5.51758 -4.07862,0.55821 -1.0548,5.38517 -3.95639,0.21558 -1.52153,-5.51073 -7.57289,5.6345 2.1605,11.67882 5.41192,11.71659 4.16378,3.82746 -2.51936,4.58114 5.97377,7.57584 3.34737,-0.47358 1.3228,-10.41092 2.43697,-2.46735 1.54348,-9.995 6.99016,-5.60813 -9.14444,-11.19002 z m 434.33383,490.89044 -0.78505,-3.0478 -2.16137,-0.8808 -1.51182,-1.8776 -1.03066,0.2643 1.16157,2.3976 2.18563,3.026 1.32779,1.4234 -0.0749,0.6101 1.12497,2.3319 0.12905,2.2705 -0.46853,2.7293 -2.00706,1.2467 -0.0784,1.3009 2.9892,1.4446 0.90965,2.0009 -1.60183,3.0217 1.15813,0.5331 0.47686,0.9742 2.14687,-1.4785 1.3766,-2.5185 1.04946,-1.9636 0.40867,-0.6743 -0.25823,-1.5524 0.7417,-1.0911 2.12074,0.074 0.8452,-2.082 0.67322,-3.1343 -1.4076,-0.4054 -1.58762,1.3404 -1.87671,-0.2817 -2.2353,-1.1443 -0.41556,-2.6372 -1.25359,-0.9445 -0.0583,2.3711 -2.01279,-3.6464 z m -4.42121,16.9244 -0.6161,-1.5576 -1.9482,1.6939 -0.41255,2.0623 -1.05276,0.9404 -1.23507,2.7922 -1.66714,1.9637 -2.38085,1.9985 -1.99557,1.463 -1.79346,0.7269 -3.49261,3.8517 -1.49244,2.9388 0.46595,1.4694 3.01905,0.2823 1.79892,1.3296 2.55827,0.086 1.38636,-1.1519 2.18132,-1.7911 1.579,-4.0033 0.74386,-2.5524 2.37682,-1.4564 2.14314,-0.048 -1.02463,-1.8457 1.42082,-1.532 1.81585,-2.7808 1.03353,-1.7313 -0.003,-1.5624 -0.80328,-1.5581 -1.97547,1.4946 -0.63017,-1.5228 z M 851.5467,437.17846 l -0.19493,-1.03323 -0.23312,-1.41643 -2.25166,-1.3358 0.16465,2.17725 -1.96327,0.0748 -0.45318,1.25414 -2.11198,0.76885 -0.98186,-1.27131 -1.51469,1.05823 -1.75011,0.78934 -1.09008,2.36207 0.45992,0.81923 2.05557,-1.56211 1.30713,0.10785 0.87261,-1.16209 1.75958,1.32529 -0.84706,1.33104 0.78075,2.02362 3.26867,1.62059 0.79625,-1.30855 -0.88697,-2.05967 1.2988,-1.41968 1.01487,2.85173 0.94625,-2.55958 -0.16364,-1.5716 -0.2825,-1.86395 z m -2.4285,-10.58323 -0.7651,-1.06073 -2.66765,-0.0627 1.69786,2.16986 0.0362,1.07363 -1.6347,-0.22614 0.43495,1.7144 0.83629,0.1469 0.1157,1.98685 1.32119,-0.63243 -0.67968,-1.7443 -0.058,-0.95025 2.14328,0.75129 -0.78031,-3.16636 z m -11.61457,-18.27583 -1.68178,-0.003 -0.90505,2.64742 -0.28767,4.54002 -1.11865,-0.95189 0.10321,2.76494 0.41528,1.25345 1.37143,1.64998 0.35887,-1.03438 0.82912,0.664 -0.86788,0.72951 -0.14096,1.18371 1.38263,0.6319 2.52296,-0.42258 1.76862,1.71006 0.71472,-1.04808 1.02606,1.4996 2.16496,1.39812 0.28852,-1.3126 -0.90606,-0.68522 0.26441,-1.55515 -3.46949,-1.5876 -1.22875,0.3392 -1.4725,-0.31579 -0.62155,-2.28749 0.4381,-2.32431 1.63757,-0.9582 0.73151,-2.4099 -0.94826,-2.08714 0.45188,-1.21106 -0.25264,-0.74356 -0.85668,0.76208 -1.71193,-0.83564 z m 7.39203,23.61117 0.26527,-2.69728 -2.056,2.72944 0.44743,-1.90261 -1.53178,0.16621 -0.30647,1.75398 -0.6972,0.79039 -0.57231,0.75469 1.71063,1.94588 0.87233,-0.83309 0.87017,-1.78018 0.99793,-0.92743 z m -5.83025,-4.56584 0.43006,1.34981 -0.19723,1.44441 0.0979,1.31349 1.76418,-0.84861 1.28645,-1.2014 0.0538,-1.1836 -1.76776,0.004 -1.66743,-0.87827 z m -0.98932,-3.35102 -0.96462,-1.02765 -2.3797,-0.10487 1.41794,2.17288 1.18971,1.41934 0.73667,-2.4597 z m -8.3967,10.62978 1.45799,-1.93656 1.83394,-1.5545 -0.49494,-2.30705 -1.45599,2.80985 -1.66785,1.95149 -2.00677,1.73882 -1.36167,1.96547 3.69529,-2.66752 z m 103.82068,44.98297 0.38872,-0.78305 -1.31172,-0.94852 -1.34674,-1.77007 -0.84147,-0.63288 -0.29857,-0.82995 -0.38442,0.26964 0.59744,2.12574 1.21612,1.77463 1.20277,1.07423 0.77787,-0.27977 z m -7.61108,-6.47651 -0.33345,-1.44833 -1.05549,-0.89095 -1.11119,-1.16872 -1.1666,-0.66776 -0.94453,-0.61185 -1.50005,-0.77856 -0.77199,0.67149 2.0062,0.81753 1.58043,1.18702 1.25775,0.91205 0.64624,1.07589 0.52395,1.64474 0.86873,-0.74255 z m -3.21456,2.72726 0.93305,-1.70251 0.0557,-1.54578 -0.56098,-0.45729 -1.6637,0.053 0.30561,1.64184 -1.55058,0.99429 -0.7839,0.95448 -1.58489,0.21314 -0.26986,-1.4809 -0.39863,0.069 -0.41858,1.33732 -1.51986,0.21835 -2.49052,-0.4074 -0.23024,0.86352 1.58646,0.77882 2.2775,0.81158 1.47565,0.003 1.42569,-0.6538 1.51929,-0.67877 0.4381,-0.78289 1.45469,-0.22944 z M 1000.5,177.53956 l 0,-5.88436 -3.54083,3.61363 0.49479,2.70215 3.04604,-0.43142 z m -81.30092,-40.50797 -6.97066,-2.8496 -5.17707,-1.66612 -0.66471,3.55333 5.16187,4.22885 4.44017,0.94351 3.2104,-4.20997 z m -15.68162,-5.24725 -10.04075,-6.01675 -7.33483,-0.50781 -3.66477,2.16047 -1.49269,7.6834 5.50291,6.95053 4.60659,-2.49121 10.23941,0.29389 2.18413,-8.07252 z m -3.99522,164.74136 -1.1465,-4.47854 0.0711,-4.4652 -0.96176,-4.472 -0.72174,-3.12794 -1.23622,0.66828 1.10329,2.18933 -2.56774,2.15066 -0.24575,6.25303 1.62752,4.38157 -0.12273,5.81346 -0.64266,3.21625 0.31666,4.50774 -0.30977,3.99003 0.51418,3.37943 1.82131,-3.11514 2.10438,2.43009 0.0784,-2.81941 -2.70785,-4.20192 1.70906,-6.06815 4.11172,1.40191 -2.79484,-7.63348 z m -0.12266,-140.43887 -0.33616,-2.54701 -3.94656,-3.77655 -3.47322,0.9218 -2.63497,3.88111 0.4862,0.51275 5.69299,1.07521 4.21172,-0.0673 z m -107.02327,-58.14712 0.82488,-5.66854 -7.04059,-8.26799 -2.08741,-0.97552 -2.2818,1.68042 -5.07433,18.43642 15.65925,-5.20479 z m -14.26587,-8.06486 0.68582,-13.49895 -6.39668,-15.8936 -5.39709,-8.94025 -6.00899,4.07141 -7.21275,11.72639 3.78981,3.24 2.13188,11.23992 4.61031,5.67831 7.73708,4.16364 6.06061,-1.78687 z m -117.78907,88.60737 -5.31349,-7.04515 -0.56528,-7.45064 4.35403,-9.06358 4.13971,-9.7329 8.62896,-10.07772 8.48283,-5.29075 9.84235,-5.68873 1.86566,-3.67321 -1.93097,-4.78339 -5.40579,1.5892 -4.75725,4.45186 -9.24534,2.20247 -9.17056,7.3428 -6.21308,5.79768 0.75146,4.82638 -6.65047,8.94994 2.55367,1.20927 -5.50956,8.19838 0.0947,5.03811 -2.84034,1.94147 0.40595,4.78994 5.02811,2.32771 0.73711,3.78551 9.07668,1.09173 1.64087,-0.73638 z m -17.77641,-114.5865 1.0743,-2.59923 -4.1199,-3.81169 -2.61828,2.87634 -1.59551,4.08689 -0.56758,-4.60679 -4.22038,0.2096 -5.42273,3.12394 6.18194,0.51541 -1.5823,5.20202 3.00914,3.84137 3.24672,-2.66861 0.38743,-2.69377 2.49798,-1.26066 3.72917,-2.21482 z M 14.349306,210.14093 14.588194,205.74099 7.305556,198.4616 0.5,192.6522 l 0,28.35861 1.575889,-2.80976 -1.253028,-3.16827 3.326833,-1.62192 -0.603361,2.53103 1.509417,2.34983 3.159083,-0.86744 2.820834,1.09309 0.621194,2.86628 3.693361,1.90099 2.116889,2.24608 2.601417,0.19137 1.112028,-1.33573 0.06875,-6.41104 4.553277,-0.69287 2.754139,-2.94889 -5.438139,-6.50579 -7.540305,-1.05952 0.644416,5.10304 -1.873388,-1.73036 z M 4.128389,177.02422 6.990069,174.97728 7.227931,173.79884 3.210194,171.306 0.855903,171.28765 0.5,171.6552 l 0,5.88436 3.628389,-0.51534 z m 832.970591,218.56625 1.67274,-4.86039 0.48174,-1.84462 -1.26723,-0.91403 -2.22323,2.31864 -1.6347,2.98765 0.31638,2.24042 1.46387,2.53654 1.19043,-2.46421 z m -761.616519,-129.1849 2.403241,-2.44704 -1.176787,-1.61549 -1.844274,-0.35341 -1.483473,0.79645 -2.522815,1.84431 0.429417,2.4039 1.420313,1.31143 2.774378,-1.94015 z m -7.043878,140.21369 0.888723,-0.45945 1.085277,-0.62873 0.06683,-0.16332 -0.707917,-1.03371 -0.450722,-0.39569 -0.493389,-0.25644 -1.063639,-0.49995 -0.211194,-0.0548 -0.161084,0.27607 0.191639,0.58161 -0.482222,0.48173 -0.138306,0.32845 0.459473,1.07295 -0.07942,0.82209 0.690222,0.42066 0.405722,-0.49147 z m -1.492083,-4.60909 0.232222,-0.35655 -0.72625,-0.45597 -0.987416,-0.28272 -0.272139,0.25503 0.02467,0.18571 0.319278,0.24162 0.478556,0.62525 0.931083,-0.21237 z m -1.886056,-1.58456 -1.36675,-0.12734 -0.208166,0.36282 1.488555,0.0865 0.08636,-0.32194 z m -2.484972,-0.43314 -0.802166,-0.98678 -0.232195,-0.19204 -0.742917,0.41195 0.107917,0.11926 0.353139,0.67662 0.966861,0.10479 0.198806,0.0384 0.150555,-0.17217 z m -4.700805,-1.97202 -0.05714,-0.69836 -0.640306,-0.0637 -0.423805,0.29393 -0.143723,0.21847 0.935528,0.54618 0.329445,-0.29649 z m -17.31679,-146.48429 -0.264626,-2.13783 -2.203785,-0.50835 -2.743013,0.95924 1.685943,1.51278 1.82102,1.03395 1.704461,-0.85979 z m -17.090257,-22.83281 -0.165149,2.35273 0.661243,0.54555 2.449104,-0.35935 1.057859,1.12078 2.114212,1.33475 2.104164,-1.29879 0.229171,-0.67196 -2.758517,-0.82785 -2.24613,-1.64629 -1.731448,0.64311 -1.714509,-1.19268 z m 943.26815,278.31655 -1.74465,-1.6616 -0.10221,0.775 0.93104,1.2677 0.91582,-0.3811 z m -2.04768,-4.4218 -1.32938,-0.8832 0.0576,2.2036 0.39805,0.796 0.57791,-0.1564 0.74673,0.3619 -0.45088,-2.3219 z M 527.0556,331.28348 l -0.47226,-3.23499 -1.78887,1.44612 -0.56055,1.39878 0.64309,2.51212 1.26119,0.75493 0.9174,-2.87696 z m -14.62879,8.50563 0.0789,-0.20146 -0.0193,-0.0714 -0.24821,-0.41734 -0.46278,-0.15505 -0.57156,0.0438 -0.0222,0.0964 -0.008,0.21797 0.0681,0.0639 0.27913,0.0467 0.85449,0.41841 0.051,-0.0419 z m -3.18983,0.18718 0.0372,-0.1681 0.0895,-0.0897 0.0214,-0.10304 -0.0879,-0.0647 -0.007,-0.0598 0.092,-0.13356 -0.10797,-0.0342 -0.70529,0.22537 -0.33285,0.19355 -1.14909,0.87321 -0.004,0.14786 0.0675,0.11417 0.17904,0.0357 0.11312,0.18932 0.21213,-0.19003 0.16167,-0.092 0.18474,0.0507 0.12614,0.11482 0.0662,0.35979 0.0833,0.0906 0.27859,0.06 0.47987,0.24095 0.22705,-0.11483 0.25038,-0.19174 0.134,-0.32522 0.1549,-0.28307 0.18311,-0.25768 0.13102,-0.25477 -0.0358,-0.22927 -0.1473,-0.058 -0.1492,-0.0341 -0.28076,0.10852 -0.26611,-0.1207 z m -4.72249,3.13043 0.13699,-0.0493 0.35861,-0.37987 -0.029,-0.17381 -0.13537,-0.12043 -0.5995,0.14402 -0.12804,0.17764 -0.008,0.17664 -0.12099,0.0298 -0.0914,0.24831 0.0933,0.0887 0.42236,0.0775 0.10065,-0.21921 z m 0.41314,0.87901 -0.004,-0.10461 -0.26611,-0.0372 -0.16819,-0.2005 -0.0532,0.10175 -0.0423,0.10049 0.0106,0.14388 0.27561,0 0.18392,0.0432 0.0632,-0.0471 z" />
</svg>
