<?xml version="1.0" encoding="UTF-8" standalone="no"?>
<svg
   xmlns:dc="http://purl.org/dc/elements/1.1/"
   xmlns:cc="http://creativecommons.org/ns#"
   xmlns:rdf="http://www.w3.org/1999/02/22-rdf-syntax-ns#"
   xmlns:svg="http://www.w3.org/2000/svg"
   xmlns="http://www.w3.org/2000/svg"
   xmlns:sodipodi="http://sodipodi.sourceforge.net/DTD/sodipodi-0.dtd"
   xmlns:inkscape="http://www.inkscape.org/namespaces/inkscape"
   enable_background="new 0 0 1000 2001"
   height="505.82254"
   pretty_print="True"
   style="fill:#483737;stroke:#ffffff;stroke-linejoin:round"
   version="1.1"
   viewBox="0 0 1001 505.82254"
   width="1001"
   id="svg2"
   inkscape:version="0.48.4 r9939"
   sodipodi:docname="mollweide_joined.svg"><sodipodi:namedview
   pagecolor="#ffffff"
   bordercolor="#666666"
   borderopacity="1"
   objecttolerance="10"
   gridtolerance="10"
   guidetolerance="10"
   inkscape:pageopacity="0"
   inkscape:pageshadow="2"
   inkscape:window-width="640"
   inkscape:window-height="480"
   id="namedview19"
   showgrid="false"
   inkscape:zoom="0.11794103"
   inkscape:cx="500.5"
   inkscape:cy="251.91127"
   inkscape:window-x="0"
   inkscape:window-y="0"
   inkscape:window-maximized="0"
   inkscape:current-layer="svg2" />

utf-8<defs
   id="defs4">
utf-8utf-8<style
   type="text/css"
   id="style6">path { fill-rule: evenodd; }utf-8utf-8</style>

utf-8
utf-8utf-8
utf-8</defs>

utf-8<metadata
   id="metadata8">
utf-8utf-8<views
   id="views10">
utf-8utf-8utf-8<view
   h="2001.0"
   padding="0"
   w="1000"
   id="view12">
utf-8utf-8utf-8utf-8<proj
   flip="auto"
   id="mollweide"
   lon0="65.3146660706" />

utf-8utf-8utf-8utf-8<bbox
   h="2786.3"
   w="5519.36"
   x="-2759.68"
   y="-1372.08"
   id="bbox15" />

utf-8utf-8utf-8</view>

utf-8utf-8</views>

utf-8<rdf:RDF>
  <cc:Work
     rdf:about="">
    <dc:format>image/svg+xml</dc:format>
    <dc:type
       rdf:resource="http://purl.org/dc/dcmitype/StillImage" />
  </cc:Work>
</rdf:RDF>
</metadata>

utf-8<path
   inkscape:connector-curvature="0"
   id="---"
   data-name="---"
   data-id="---"
   d="m 593.71526,102.24423 1.15239,0.95441 1.4094,0.35874 1.71813,1.15117 1.25568,2.13774 0.0581,1.34336 -2.3254,1.64558 -2.13724,-0.28121 -2.64726,0.48675 -3.75574,-1.22025 -4.7315,-2.21684 -3.89797,0.0667 -2.54537,0.88811 -2.38898,2.04327 -4.63979,-0.41759 -0.50659,2.40179 -3.67497,0.12669 -2.11322,3.03767 1.81401,1.52363 -0.74904,2.48769 2.104,1.78087 2.02045,3.20504 2.70036,-0.0582 2.71705,1.72226 1.65157,-0.38406 0.31985,-1.34154 2.69768,0.10852 2.35883,1.73625 3.70943,-0.36397 1.313,-1.86078 2.23927,0.74324 1.45361,-0.2752 -0.67143,1.21459 1.24,1.46925 -0.32326,1.33612 0.76259,2.49087 -0.0237,0.11369 -0.78638,2.30198 -0.37956,2.67011 -0.0638,0.034 -0.20572,0.83183 -0.0542,2.48419 -0.39974,1.54288 0.20967,0.18742 -0.55711,1.08959 0,1e-5 -1.12735,0.83404 -2.04904,-0.18751 -2.20263,-0.78214 -0.42263,1.08183 -0.97227,-1.64169 -1.90188,-0.41738 -2.23115,0.27256 -0.91665,0.94785 -1.83505,1.04923 -1.27392,-0.51589 -2.70659,-0.97806 -2.60497,-0.87424 -3.42256,0.0546 -0.77057,-1.09052 -2.60487,-0.38706 -0.88881,-0.56252 -0.9576,-0.0139 -1.05656,-1.47237 -3.54096,-0.67293 -1.70858,0.44851 -1.67606,1.54283 -0.63673,1.60465 0.86253,2.53354 -1.0897,1.52491 -1.18383,0.86133 -2.91859,-1.64992 -3.77022,-1.38669 -2.37215,-0.64213 -1.44393,-2.93427 -3.51512,-1.47122 -2.17608,-0.54863 -1.05345,0.28285 -3.07391,-1.13095 -1.00138,-0.51313 -0.7357,-1.55814 -1.31626,-0.0557 -0.58552,-1.78222 1.56144,-1.64006 0.1487,-2.81456 -0.91802,-0.8059 -0.0806,-1.49779 1.13458,-1.58299 -0.21942,-0.61958 -2.02272,1.1876 -0.0321,-1.63199 -1.75343,-0.38644 -2.61941,1.30061 -1.68462,0.19591 -1.04266,-0.7504 -2.64236,0.0249 -2.28713,1.27168 -1.26622,-0.47948 -4.09504,0.26189 -4.19867,0.57577 -2.38924,0.98428 -1.57319,1.3366 -2.70525,0.56383 -2.42803,1.77564 -1.09084,-0.0348 -2.58647,-0.71785 -2.39107,0.22476 -1.46978,-1.37862 -1.84051,-0.0156 -0.86067,1.99542 -1.81476,3.37699 -1.93682,1.35277 -2.62084,1.49766 -1.7521,2.2202 -0.43093,1.73498 -1.12183,2.84278 0.44804,4.12814 -2.31426,2.78153 -1.35867,0.8894 -2.1904,2.28546 -2.47025,0.36987 -1.40107,1.28706 -0.0512,0.047 -1.88106,3.43108 -1.84481,1.22735 -1.08928,2.08495 -0.17175,1.80013 -0.82679,1.97432 -0.93691,0.54602 -1.62787,2.15704 -1.0722,2.39858 0.10655,1.15216 -0.99095,1.77618 -1.09784,0.92978 -0.22037,1.58287 -0.19956,1.44491 1.35824,1.47843 0.6218,1.62904 -0.36064,1.71111 0.24722,1.70762 0.14415,3.40051 -0.48798,3.24658 -0.84691,1.70275 0.16191,1.86279 -0.73303,1.77697 -1.44653,2.43214 -1.2527,0.65853 1.34382,1.23497 1.05354,2.70323 -0.41111,1.54164 0.37196,2.66665 0.15509,0.7448 0.83353,0.739 -0.0322,0.53012 0.61665,0.98231 1.17732,0.23044 1.463,1.4575 0.80401,0.57142 0.39326,0.76842 0.28375,1.54198 0.68826,0.69389 0.71232,0.45239 1.06918,1.36726 1.19948,2.06794 0.30189,2.58491 0.47482,1.27828 1.44781,1.87532 2.02155,1.4108 0.76053,0.25983 1.88481,2.26064 2.39989,1.9179 2.56011,2.66912 2.91855,1.67213 0.74459,-0.0309 0.54864,0.0922 2.81981,-1.28678 1.97684,-1.01231 3.36677,-0.61219 1.82073,-0.0405 1.97967,0.68568 1.29231,-0.0357 2.53045,0.99617 2.56081,-1.01747 1.57965,-1.20258 4.44952,-2.05217 2.2833,-0.74765 2.34353,-0.40883 2.50315,0.002 2.13124,-0.0433 2.01866,2.30932 0.94545,2.53822 1.52979,2.19433 2.27374,0.0767 1.08918,-0.78622 1.07937,0.18447 2.94275,-1.26244 -0.0268,0.96947 0.73072,0.5031 0.58631,1.57225 1.30034,0.59519 1.12301,2.32049 -0.40448,2.77194 -0.96795,3.94347 0.53393,0.52959 -0.57136,2.60415 -0.69195,2.55702 -0.62251,1.12294 -0.0928,1.16682 1.72017,3.62767 1.86936,2.8971 2.90242,3.5427 2.30398,3.7156 0.73285,2.6366 0.38543,1.0871 -0.27764,0.6811 1.39238,2.2165 0.54661,2.3439 0.80374,3.3803 -0.89311,1.3863 -0.16469,0.7265 0.65381,2.0962 0.70764,2.1182 0.81511,1.2475 0.10144,1.9766 -0.35854,2.5811 -0.93983,1.5492 -1.66871,2.276 -0.70432,1.4243 -0.99028,3.1298 -0.1862,1.4884 -1.05068,3.1713 -0.47416,3.0407 0.19352,2.171 0.0819,2.6454 2.12227,3.3595 0.51627,2.1566 1.26698,4.1119 1.27758,2.8246 0.98905,1.4068 0.25283,1.8593 -0.15571,4.0683 0.60043,5.2154 0.50764,2.4449 0.37455,3.2767 0.8672,2.4508 1.77189,2.5287 1.53397,4.3327 0.003,0.01 1.06435,2.8134 1.40781,3.0976 -0.17737,2.5314 -0.88508,0.5996 0.61164,2.202 -0.2105,1.9213 0.24535,0.8791 0.16718,-0.4534 0.93399,1.4588 0.84714,0.06 0.93613,1.1629 1.15502,-0.078 1.70469,-1.2329 2.22126,-0.5171 2.77503,-1.2908 1.02812,0.1713 1.58976,-0.3992 2.66295,0.6306 1.34351,-0.6228 1.47213,0.4837 0.46011,-0.9088 1.32052,-0.1706 2.85099,-1.2723 2.15605,-1.4947 2.11213,-1.9752 3.43681,-3.4085 1.83383,-2.3752 0.98509,-1.7074 1.36088,-1.6913 0.58351,-0.482 2.04155,-1.6854 0.90594,-1.5092 0.72035,-2.7841 1.01171,-2.446 0.47634,-1.7721 -0.64924,-0.2268 -0.0356,-1.4209 1.33926,-1.2487 3.46715,-1.8305 2.36972,-1.1446 1.28842,-1.206 0.59158,-1.4121 -0.55815,-0.5816 0.64527,-1.5795 0.50244,-3.3415 -0.50101,0.1705 0.0918,-1.0209 -0.29672,-2.0036 -0.99692,-2.5919 0.50012,-2.4447 1.21591,-0.7936 2.17944,-2.4417 1.12566,-0.628 3.5026,-3.6972 3.2901,-1.6746 2.66737,-1.3128 1.98419,-2.1437 1.31552,-2.4037 1.06551,-2.4764 -0.33627,-1.6993 0.34806,-5.4311 -0.11433,-3.0551 0.35909,-3.4732 -0.3535,-1.5645 0,0 -10e-6,0 -0.98655,-0.7635 -0.96633,-3.4446 -0.87069,-2.1917 0.26806,-1.6712 -0.11215,-1.0636 0.87389,-2.1143 -0.0467,-0.9106 -1.76432,-1.2763 -0.0952,-1.986 1.44692,-4.3207 1.17561,-1.1586 0.61153,-2.3347 0.94323,-1.4162 0.44784,-2.4735 1.07045,-0.2574 0.72347,-1.465 2.00982,-1.4022 0.65102,-0.8315 0.67047,-1.85189 3.12425,-4.25462 2.64181,-2.67149 4.22068,-3.48698 2.79863,-2.84232 3.2223,-4.78764 2.2874,-3.92751 2.20103,-5.13634 1.49755,-4.47092 1.101,-3.90616 0.50913,-3.77567 0.49175,-1.26047 -0.16744,-1.83327 0.0771,-2.02722 -0.15378,-0.9631 -1.06393,0.01 -1.21966,1.1925 -1.45878,0.35079 -1.25036,0.51778 -0.89268,0.0687 0,-10e-6 -1.5909,0.12249 -0.95153,0.63593 -1.37657,0.22956 -2.39166,1.08352 -3.0336,0.41346 -2.59025,0.89267 -1.39973,-0.0116 -1.37558,-1.46061 -0.65852,-1.44208 -0.96367,-0.64253 -1.28015,-0.95341 1.53734,-0.83354 -0.0291,-1.44573 -0.75365,-1.07702 -1.46678,-1.04624 -0.97887,-1.19447 -1.69304,-2.00472 -1.73214,-1.97852 -4.11143,-3.27411 -1.68674,-1.68613 -1.08065,-3.17325 -2.02511,-3.99378 -1.64755,-1.27282 -1.14196,-0.84749 -1.46923,-4.10239 -0.81504,-3.52814 0.5227,-0.62077 -1.29941,-3.35239 -0.56656,-0.69883 -3.55155,-3.05744 -0.37911,-2.20901 0.45539,-0.59185 -2.92641,-3.75099 -1.12702,-1.90884 -1.24604,-1.8343 -2.7706,-5.23674 -2.12473,-3.36506 -1.6294,-3.5188 0.22041,-0.30165 2.61184,4.7818 1.41617,1.49387 1.04365,1.0815 0.52606,-0.58538 0.44462,-1.74359 0.15792,-2.52387 0.51204,-1.33993 -0.40526,-0.86492 0.40527,0.86493 0.16828,0.48242 -0.10354,1.33118 0.0739,1.16927 -0.11594,1.83637 1.30924,-0.0161 1.71182,2.30286 2.03813,2.71063 1.42415,2.50704 0.89375,0.75361 1.0066,1.75191 -0.033,0.76481 1.16683,1.94093 1.55513,0.70136 1.45575,1.3246 2.0875,3.77177 0.16259,2.02123 0.63182,2.37376 2.23044,3.26217 1.29227,0.56292 2.19454,2.36119 1.11922,2.80099 1.81138,2.8877 1.57022,1.23555 0.3701,1.37661 0.95189,1.04004 0.52211,1.47477 0.28492,1.50854 -0.26695,0.66745 0.44797,1.5823 -0.54035,0.16847 0.94241,1.42482 0.79256,2.5661 0.55213,1.02455 0.0912,1.89949 0.90445,2.03165 1.95614,0.17694 0.85497,-0.47217 1.39444,0.0768 0.35509,-0.88476 0.71133,-0.25375 0.52734,-0.918 0.68841,-0.19749 2.33251,-0.18051 1.71792,-0.66898 1.48769,-1.44141 0.85982,0.20535 1.2104,-0.19136 2.23244,-2.44826 4.26514,-1.61702 2.59115,-1.46223 -0.0852,-1.1803 0.3357,-1.53553 1.88072,-0.92847 1.2536,-0.19559 1.68788,-1.16499 1.57504,0.32554 1.19937,-0.95852 -0.22298,-1.39355 0.94823,-0.86811 1.72191,0.0278 0.51606,-0.7272 -0.003,-1.67731 1.50449,-1.28553 1.26759,0.0113 0.18678,-0.42238 -0.74065,-2.29587 0.1248,-1.73896 0.41735,-0.81707 1.27431,0.1797 0.56917,-2.34511 0.93143,-1.09354 0.2411,-0.95878 0.56683,-2.03365 -0.15625,-0.76038 -1.06212,-0.43151 -0.97254,-1.13076 -1.64396,-1.9493 -1.73318,-0.61908 -2.07357,-0.44361 -1.7723,-1.23177 -1.71747,-2.3137 -0.97273,-2.66944 0.20511,-0.61206 -0.0785,-1.39272 -0.39887,-0.29243 -0.5033,1.14732 -1.20713,2.08008 -1.51744,2.16852 -1.35411,2.2911 -1.64568,-0.10026 -2.24251,-0.0886 -1.999,0.53465 -0.28478,-0.93013 -0.44544,0.16469 -0.76992,-1.29413 0.17346,-1.99062 -0.46407,-1.97737 -1.03329,-1.05725 -0.64997,0.36275 -0.34713,1.77044 0.67929,2.4608 -0.56822,-0.82966 -0.5823,-1.10875 -0.96301,-0.94665 -0.57286,-1.13364 0.0292,-1.12275 -0.45792,-1.38933 -2.11272,-1.41329 -0.71009,-1.17936 -1.46742,-0.76622 -1.67091,-2.88738 -1.41644,-2.51818 0.0576,-0.76038 -0.88756,-1.4689 1.58458,0.1631 0.65982,-1.29724 1.92124,1.10124 1.26885,-0.53873 3.00645,4.44191 2.50384,3.17437 2.76463,0.95502 3.27333,2.58126 3.50455,1.11625 2.29071,-1.62823 1.88931,-0.60043 1.41574,0.59548 2.13528,4.13032 3.11739,0.43865 3.10091,0.77622 5.28332,1.02065 3.65135,-0.47398 4.3312,-0.063 4.75862,-0.63568 2.75797,2.57586 1.4371,2.4367 2.19568,0.85852 3.90204,2.88621 1.13345,1.33667 -1.0033,1.23259 4.53729,4.14131 2.01986,0.41037 3.4813,-2.04759 1.2962,3.20498 0.93148,4.15628 1.75655,4.40363 2.44293,6.69171 3.36777,4.75771 0.84011,2.16764 1.36485,4.34671 1.96574,3.34456 1.20622,1.64836 1.5236,3.5184 1.8564,4.89195 3.00277,3.26596 1.03829,-1.00565 0.70764,-2.37837 2.46721,-0.99094 -0.9903,-1.15168 0.96285,-2.66347 1.43714,-0.16901 -0.80231,-5.92331 0.67725,-3.30619 -0.62781,-2.88279 -1.39149,-4.51211 0.32452,-2.6413 1.2617,-0.18265 2.24924,-1.23909 1.20485,-0.8519 -0.33682,-1.58888 2.25163,-2.25856 1.56509,-2.17349 2.06845,-4.04593 3.32925,-2.3095 0.89426,-2.02709 -0.90186,-2.5729 3.14347,-0.7092 1.86375,0.043 0.006,-1.24635 1.14601,0.3055 0.88515,0.37225 0.20172,-0.62124 1.37251,0.69207 0.25233,-1.89814 -0.70169,-1.40437 2.53857,0.1362 1.77963,1.98372 1.04101,1.64285 0.69932,1.74072 1.3221,1.78388 2.76801,2.79604 1.73149,0.43986 0.0196,1.23769 3.25241,3.96571 1.42021,3.22775 0.0913,4.28201 1.91141,0.81135 1.63136,0.30827 2.56614,-2.46586 1.39107,-1.7327 1.91552,2.86229 1.52804,4.37483 1.8059,4.15371 1.50198,1.8006 0.49584,3.79085 1.31189,2.06148 -0.41724,2.67128 0.6754,2.59103 -0.35311,3.35083 -0.0243,2.18178 0.77254,1.94365 0.21379,-2.05663 1.57496,1.65948 1.73337,1.9761 0.67207,1.73433 1.25664,1.34427 0.76762,1.48556 -0.0892,2.55239 1.17206,1.91212 0.58638,2.90546 1.77409,2.34742 0.41639,1.7885 3.46846,2.7868 2.75803,2.60146 2.01383,-0.2343 0.0269,-1.18734 -1.22119,-3.10519 -1.04267,-0.96747 -0.30883,-2.07761 -0.34431,-1.20675 0.20311,-1.59631 -0.33136,-2.36236 -1.38315,-2.34777 -1.86922,-2.11621 -0.68392,-0.32743 -1.65266,-1.81837 -1.75994,-0.40719 -1.80178,-2.00552 -0.87419,-3.0292 -1.57517,-3.19137 -1.85522,-0.10972 -0.56298,-2.52853 0.42709,-3.0828 0.61308,-5.08995 -0.5374,-3.82566 2.46058,-0.0204 0.14285,2.73203 2.38577,-0.0649 2.83114,1.59812 2.08605,3.59908 1.4589,1.81759 2.44396,0.50949 2.41657,1.98304 -0.42828,2.36666 1.3476,2.2419 3.04397,-3.25453 1.82634,-2.91108 2.82782,-2.24625 1.91025,-2.29561 -0.91452,-6.12177 -2.83453,-6.42163 -2.42408,-2.77995 -3.10491,-2.13546 -3.88976,-4.50838 -3.22143,-3.62754 -0.16358,-2.38327 1.18688,-3.23872 2.59482,-2.92608 1.08045,-0.55619 4.05868,1.0938 -0.16045,1.32276 1.60273,2.4853 1.44575,-0.20075 -0.38191,-3.61446 2.68379,-0.52402 3.13738,-1.71007 0.85611,-1.69448 1.38475,1.10643 1.04155,-1.51433 2.88953,-0.39096 2.52902,-2.86239 2.28365,-3.13073 0.55216,-4.03535 -0.0976,-4.4201 -0.0272,-3.63094 1.3045,-0.30073 -0.83319,-2.64872 -1.18764,-2.71419 -2.14958,-1.03216 -1.69277,-1.77069 1.06924,-0.90519 -1.50317,-2.45726 -3.37831,-2.53323 -3.54635,-3.01149 -3.19005,-3.21905 -3.96208,-1.79227 -0.32591,-2.27628 1.24456,-1.62684 -0.14074,-1.74649 2.82422,-0.90167 -1.71208,-1.68794 -1.66207,-0.0857 -3.16462,-1.25132 -0.99119,2.29698 -2.66886,-0.94057 -1.18863,-1.44278 -2.41666,-0.52681 -2.97464,-2.16531 0.0605,-1.48988 2.25921,-0.15323 -0.1917,-2.05501 0.85762,-2.2048 1.1225,-1.11605 2.70442,1.65731 -0.0951,2.13326 1.54004,1.23942 -0.0786,1.47825 1.90588,-0.87129 0.54043,-1.48866 2.59004,-0.92413 1.87441,0.85237 1.71102,0.34671 0.60511,0.5204 0.84112,1.72084 0.70601,0.58399 -0.2639,0.3755 0.48968,1.40997 1.07705,0.51184 0.87572,0.29407 0.57646,0.60451 0.50545,-0.26679 -0.19507,-0.60351 1.69333,0.61123 3.91442,2.75554 -1.41117,0.54375 3.71409,3.3702 1.37014,2.43848 1.58832,1.77571 2.07093,-0.27953 1.00948,-1.35226 1.80468,-0.62555 -0.43129,-1.78675 -2.98332,-3.72986 -2.32234,-2.08943 -5.29979,-3.78564 -2.58359,-1.40157 -1.4153,-0.51862 -0.0217,-0.35211 -1.12937,-1.37803 0.29181,-0.85323 1.13729,-0.5218 0.0573,-0.93679 -0.0847,-0.55824 0.59282,-0.69876 -2.21883,-2.26483 -0.31516,-1.06963 -0.004,-1.06239 1.081,0.18806 4e-5,3e-5 -10e-6,-2e-5 10e-6,0 -2e-5,-1e-5 -0.65761,-1.04217 0.849,-2.28488 3.01475,1.51648 1.43957,-0.0406 1.23082,-1.82984 -0.44151,-1.83581 -0.80771,-3.56777 -1.01231,-3.57141 -1.75302,-2.10822 -2.06706,-4.37761 -5.26555,-4.78326 -4.65073,-3.53457 -2.50853,-2.93147 -3.69689,-2.47732 -7.73265,-3.17663 -2.51443,-0.18636 0.84348,1.43786 -2.93555,-0.64067 -3.68213,-1.79797 -3.72453,-0.36066 -2.89341,-6.67149 -3.15334,-5.40629 4.66673,-0.81141 6.59675,0.47027 -0.26097,-1.34169 3.6911,0.41376 3.6775,1.98046 2.36994,-0.28293 2.79238,-0.71612 -4.86494,-1.67409 -4.8253,-4.51887 2.63121,-0.90489 8.63448,3.29414 -1.87895,-2.94422 -3.93082,-2.18379 1.60811,-0.22238 7.13483,3.74627 1.42653,2.14755 2.67739,2.79558 3.54517,3.46497 -1.77745,0.6204 2.36719,1.30055 1.46569,1.66954 6.07914,3.91718 11.95361,6.3807 7.72951,4.2564 3.94171,2.02775 -1.25313,-2.73936 -4.20192,-2.9636 1.90381,-0.70765 -4.94406,-3.29305 0.94348,-1.46254 -3.05446,-1.22747 -3.52208,-2.37094 1.63592,-0.10458 -7.61154,-4.07978 -3.41883,-0.62281 -2.29546,-1.11971 -3.17089,-2.66217 -3.17961,-1.79378 3.26977,0.37289 -0.737,-1.16327 3.02873,1.00832 0.0906,-2.12608 6.81308,1.87264 -2.08332,-1.2317 -1.15115,-1.65394 -1.69561,-1.87907 0.83418,-0.3102 -0.005,-1.99337 4.72566,0.57492 -1.32911,-0.69889 -3.00731,-1.08718 -2.63604,-0.70491 -6.6906,-2.14162 -5.2222,-1.37151 2.67953,0.18825 -0.97547,-1.12606 -0.0266,-0.0137 -29.85109,-9.89626 -5.50299,-1.04793 -7.94761,-1.13753 -2.55122,0.14208 -6.76196,-0.66288 2.72833,1.05475 5.98556,1.53108 0.51668,0.77215 -9.15082,-2.13616 -1.95882,0.26435 -4.19497,-0.46828 -2.39774,0.0624 -0.49575,0.48885 -3.82266,-0.67926 -5.06406,-1.72983 -4.17536,-0.96848 -3.98083,-0.38379 -4.31475,0.44098 -8.98121,-1.77206 -5.33329,-1.35926 -16.47806,-1.46956 1.1541,0.97828 7.06705,2.12394 -3.15234,-0.32313 0.78256,0.64709 -4.61348,-0.70973 -0.65827,0.62001 -4.98733,-1.03583 5.05954,2.42926 -4.63024,-0.94554 -6.45348,-1.81277 -1.75618,-0.95368 -4.5619,-1.44275 -5.36269,-1.17374 -2.00417,0.0122 -3.77109,-0.38723 4.52008,1.70008 -6.31486,-0.33323 -3.02758,-1.04105 -5.0318,-0.36515 -1.14015,0.3493 0.8839,0.57701 -4.22672,-1.4198 -0.0807,0.4165 -3.2553,-0.55498 -2.31708,-0.30672 -0.70259,-0.64703 0.0584,-1.19917 -0.40064,-0.63312 -2.78969,-1.10165 -3.16914,-0.78537 -5.46567,-1.01173 -3.33757,-0.0275 0.38121,0.50304 -3.15038,-1.01829 -3.366,-0.31306 0.0563,-0.50099 -3.71877,-0.65353 -0.19552,0.82866 1.30551,0.86918 2.03034,0.8912 -2.16373,-0.0345 0.18544,1.11013 -2.08091,-0.4708 -2.55098,0.19428 0.952,0.57592 -2.44764,0.28176 -0.0132,1.0561 -1.25265,0.0589 1.48224,1.41763 3.26886,1.14317 -2.17783,0.2884 -3.22129,-0.0972 -1.39391,0.44551 4.2912,2.38268 4.38696,1.89771 -4.65949,-1.3023 -2.57928,0.12034 -0.83373,0.89749 3.17894,1.6634 -2.12382,-0.42348 -2.87651,-2.21332 -2.69452,-1.25329 -0.57234,0.051 2.84242,1.61061 -0.10258,1.54693 4.57547,1.8971 2.18855,2.37356 2.15964,1.33199 1.89286,0.19809 1.43462,1.5988 2.70466,1.39009 0.15502,1.17359 1.10957,1.22837 -0.968,0.64096 0.43573,0.90255 -2.26658,-0.36993 -1.19796,-3.52625 -1.43801,-1.63135 -3.59828,-1.48311 -4.09345,-3.26232 -2.76803,-1.63503 -1.92472,-0.73889 -1.45863,-1.86042 -2.20542,-1.25936 -4.37057,-0.59227 -0.31166,0.44134 2.10183,2.06207 0.305,2.08991 1.01891,0.74696 3.12165,1.83821 0.93216,1.12907 2.06374,0.23478 0.67821,0.50886 3.09798,1.27595 0.53543,1.2734 -8.74472,-2.7666 -2.91996,-0.74804 -5.13765,-0.72056 0.12538,0.78596 3.08861,1.39011 0.0233,1.60506 -3.26176,-1.46065 -1.18779,1.00369 -2.76604,0.0671 -0.28122,0.83246 -2.13254,-0.25459 0.0747,-1.47319 -1.24351,-0.1189 -3.35631,2.08715 -2.2263,1.16964 0.89843,1.57948 -2.02151,0.54044 -1.89602,-0.8524 -1.07329,-1.37627 1.71748,-0.30377 -1.98548,-1.3709 -4.85242,-0.77992 2.28305,1.51158 0.3543,1.47111 2.40599,1.47941 0.31812,1.72153 -2.11951,-0.87758 -1.57376,-0.14434 -2.13301,2.46815 2.28066,1.86741 -1.02076,0.62539 -4.96141,-1.59347 -0.49982,0.96808 1.63018,1.10432 0.48154,1.25342 -1.69338,-0.67209 -2.59141,-0.7865 -1.52386,-2.61272 -0.75637,-1.17434 -3.63291,-1.83838 0.98806,-0.31703 8.26413,1.90484 2.20051,-0.6706 0.89022,-1.31391 -1.24551,-1.65004 -2.00306,-1.16831 -7.57684,-2.74596 -4.41925,-0.57156 -3.28311,-1.44174 -1.01273,0.82779 -4e-5,2e-5 -2.44387,-1.49137 1.47097,-0.63035 -5.39274,-1.70898 -2.25375,0.4631 -2.60075,-0.10297 -1.26049,1.94186 -2.41134,-0.1253 -2.76659,1.03637 -3.08522,3.01155 -2.04786,1.83605 -2.70791,4.80646 -2.37829,3.55112 -2.96364,2.67197 -4.33922,2.19936 -1.4883,1.701 1.00305,6.20572 0.87531,2.9451 2.73897,1.40671 2.47833,-0.64839 3.33877,-3.17602 1.4844,1.68042 2.00018,3.91398 2.09108,3.18046 1.02174,2.67614 2.29354,-0.13089 0.75405,-2.24581 2.44197,0.27259 0.61437,-2.63343 -0.21589,-4.65826 1.81803,-0.64282 0.98098,-3.07757 -2.11335,-1.49931 -1.73319,-1.89109 0.37187,-3.73353 2.71436,-2.24933 2.05054,-2.08059 -0.77498,-1.57017 0.98268,-1.77325 2.52156,-0.71486 2.72804,1.19452 0.59999,1.07559 -0.8959,0.53403 -2.8403,2.79377 -1.02244,1.6358 -0.35768,1.52813 1.57285,2.38845 0.37024,2.6374 2.02253,0.88533 1.50289,1.47857 2.82285,-0.57276 2.89247,-0.99237 3.23591,-0.21479 10e-6,-10e-6 2.4061,1.28655 -1.54648,1.50391 -4e-5,-4e-5 -1.89239,0.0808 -2.17035,-0.45086 -2.21299,0.39613 -2.12577,0.76162 0.62889,1.57753 1.4934,0.9806 0.59444,-0.34819 0.26802,1.63376 0.25239,2.14052 -1.54502,0.0545 -2.10876,-2.08372 -1.5616,0.95051 -0.50818,1.75634 0.45227,2.11951 0.9965,2.3846 -2.56084,0.92499 -0.18622,1.25949 -1.96374,-0.0362 -0.29583,-0.69854 -2.11064,-0.48295 -2.36307,0.96812 -2.94738,1.32785 -1.26538,0.84607 -1.10258,-0.91743 -2.45724,-1.13386 -1.03713,0.78605 -2.00594,0.54008 -0.0995,-1.01995 -2.12468,-0.66794 -0.15705,-1.10461 -0.69692,-1.38615 1.19497,-2.03833 0.6251,0.30663 0.34821,-1.06353 -1.11612,-0.42564 -0.32985,-0.78585 0.46284,-0.91134 -0.11703,-1.43298 -1.45248,0.78505 -0.59077,0.76994 -1.69127,0.1735 -0.47476,0.84025 -0.25311,0.75812 0.32946,2.88865 0.96056,1.57978 0.2457,1.62254 0.56699,1.07705 -1.26226,1.42189 -0.43535,-0.63673 -1.70123,0.15687 -0.35557,0.61178 -1.71528,-0.0816 -2.7541,1.2123 -1.64383,4.29491 -1.06249,0.80788 -9e-5,-1e-5 -1.68603,0.58114 -1.8512,0.5957 -0.60908,2.42749 -5.04392,2.32436 -2.0338,-1.28033 0.63596,3.38735 -3.66863,-0.77241 -2.86883,0.65301 0.13221,2.19657 3.35801,1.16326 1.61305,1.53504 2.27995,3.20108 -0.5014,6.13881 -1.22683,1.8635 -3.76822,-0.10301 -1.94222,0.16325 -2.46084,-0.53139 -3.12882,0.0197 -2.81594,-0.56078 -3.45348,2.24688 0.86415,1.35545 -0.26948,2.23273 0.0342,1.06008 0.403,1.13158 -0.0314,1.33803 -0.62069,1.90447 -0.25168,1.28374 -1.03892,1.15534 -0.32744,2.08908 0.50864,1.21258 1.07818,0.29553 0.11766,1.9736 -0.51885,2.52053 1.29788,-0.35513 1.28326,0.4537 1.03574,-0.83712 2.28917,0.49944 0.63008,1.85837 0.88217,1.09391 1.21222,0.26889 0.99122,-1.22378 1.59029,-1.14168 2.36498,0.0612 3.15246,-0.0493 1.78048,-2.47915 1.86544,-0.641 0.539,-2.08622 1.4157,-1.42787 -0.94814,-1.82405 0.9337,-2.58841 1.47219,-1.75637 0.20766,-1.06314 3.05197,-0.6669 2.21342,-2.09627 -0.16736,-1.82166 0.22515,-1.88177 3.37518,-1.01103 4.64561,0.84358 2.01871,-1.75859 0.95292,-0.22773 1.24737,-1.43933 1.03544,-0.41824 1.95842,1.02236 1.18256,0.36066 0.9753,3.07687 1.74737,1.80147 2.34157,2.043 1.98879,1.42154 1.78433,0.20435 1.16059,1.26922 1.59917,0.57501 0.85287,1.36746 1.04245,0.39536 0.91024,1.60296 1.14827,1.84752 -0.45653,0.6824 -0.31931,1.71685 0.091,0.98081 0.99852,-0.24731 1.00975,-2.74637 0.99666,-0.18942 0.0955,-1.66439 -1.88612,-1.17953 0.77521,-2.05245 2.15255,0.52147 1.52457,1.48211 0.30533,-1.13706 -0.32585,-0.59213 -2.26734,-1.65025 -1.87213,-0.95487 -2.26869,-1.13902 0.59268,-0.6267 -0.66007,-0.69446 -1.85343,0.0194 -2.90114,-2.52454 -1.45012,-2.57715 -2.33904,-1.56358 -0.91397,-1.57556 0.19393,-0.87941 -0.28148,-1.52845 1.7386,-1.08975 1.86343,0.44699 -0.47562,0.27849 -0.0757,0.0497 0.069,1.06785 0.79389,1.032 0.54985,-1.33008 1.53051,0.48555 0.1693,1.04094 1.20987,1.30002 -0.43842,0.23134 2.23356,2.28437 2.25369,0.92548 1.5071,1.12325 2.36822,1.15698 10e-6,0 1.10623,0.6217 0.80798,1.02425 0.53057,0.24332 10e-6,1e-5 0.47015,0.49522 -0.18513,0.97699 0.0987,2.15363 0.41563,1.50873 1.48173,1.06563 0.14495,0.69932 0.4422,0.22266 0.28937,0.90671 1.49805,1.81988 1.15749,1.47093 0.72474,2.13527 1.27861,2.57699 2.22981,1.40546 1.64676,-0.0405 -1.35058,-2.8481 1.51791,-0.33798 -0.97222,-1.63943 2.4054,0.85129 -0.32037,-1.81358 -1.35744,-0.92888 -1.58768,-1.47336 0.8075,-0.69916 -1.44916,-1.49475 -0.83913,-1.8968 0.33996,-0.69536 1.53796,1.63326 1.34363,-0.003 1.138,-0.51739 -1.96832,-1.78086 2.75665,-0.82159 1.30232,0.2986 1.47497,0.0898 0.0886,0.65264 1.02899,1.47572 1.68266,-1.70608 0.82955,-0.97733 2.80196,-0.17407 0.27278,-0.77272 -2.28908,-1.01703 -0.53196,-1.2083 -1.13494,-1.788 0.38057,-2.233 0.92594,-1.2889 -0.20938,-3.73427 0.76603,0.2889 0.95474,-0.66344 -0.24618,-0.79398 1.19677,-2.26781 0.40194,-1.68241 1.98611,-0.37536 0.46399,1.1376 3.73155,0.7727 0.85463,0.70132 -1.89836,1.01971 -0.24478,0.5892 2.74627,0.90094 -0.11376,1.44995 1.453,0.62899 2.62786,-1.78685 2.35493,-0.53372 0.1173,-1.09739 -2.27396,0.18436 -1.3327,-0.74081 -0.69326,-1.90463 1.60009,-1.13767 2.05758,-0.16071 1.17865,-0.98466 1.70935,-0.24305 1.8436,-0.48943 0.28608,0.66399 -2.89945,1.2425 1.65384,1.20782 -1.07453,2.5635 -1.51358,0.49148 2.53032,1.81102 2.98963,1.16644 3.77362,2.62306 z m -6.88102,175.90644 0.15013,-0.59 -0.78457,-0.9331 -0.30176,-1.9222 -1.66882,-1.9089 -0.9017,-2.5093 0.54592,-1.4778 -0.72043,-1.9722 0.61585,-5.6084 0.0121,0.041 0.98422,3.3442 -0.0171,0.1559 -0.16729,1.5147 0.53358,0.5068 -0.1309,1.4939 0.51159,1.3815 -0.68727,1.3428 2.21323,2.3775 0.14235,2.1681 1.28757,3.5756 0,0 0.20721,0.5809 -0.48004,0.198 -0.58096,-0.7281 -0.95458,-0.2803 0.19159,-0.7504 z m 10.16125,-29.26593 0.68863,1.33151 -0.19041,2.60085 -10e-6,2e-5 -1.41426,1.56695 -0.94662,1.5872 1.11222,1.2041 -1.63383,0.8646 -0.3504,-0.4097 -1.64909,0.2088 -1.28052,0.7885 -0.77598,-1.3528 0.55855,-2.4577 0.0995,-2.11393 -10e-6,-7e-5 -0.13984,-1.35897 1.30651,-2.05225 1.80294,-0.50186 1.21111,-0.83673 1.47701,0.69135 0.12447,0.24013 z m 36.80349,-126.87964 0.0197,0.75402 -3.58843,0.8541 -3.706,-0.55657 -2.23512,-1.61724 -2.55178,-0.67022 -1.53262,-2.36678 -0.57971,-1.58456 0.64708,-0.74641 0.0441,-1.11681 -0.42421,-2.46874 1.89361,-0.25517 -1.04293,-0.85416 -1.17062,-0.14804 -2.01011,-2.24072 -1.8429,-1.65749 3e-5,-4e-5 -3.90666,-3.68848 -0.54245,-2.09786 -3.20621,-2.94089 1.04827,-3.17861 2.00336,-0.50546 0.28372,-1.81431 1.8333,-0.63967 2.01665,-1.3386 2.24041,0.7425 2.1821,-0.14725 1.25997,1.88612 0.91857,2.99178 -2.19601,-0.45923 -1.73126,0.49938 0.85246,2.25492 -2.36283,-0.29353 0.48409,1.00766 1.59386,0.78383 2.16531,2.79254 3.1398,1.06337 0.88264,1.08975 -0.0666,1.30649 0.43048,0.7659 1.52714,2.04051 -0.64852,-2.307 1.58851,-0.80078 1.39461,1.79734 2.48299,1.8924 -1.71203,1.01154 -2.55447,-0.77621 0.46445,2.66958 1.66984,0.18524 0.17617,2.17842 2.28724,1.07984 0.83591,3.349 1.24504,2.2746 z m -35.07879,167.30737 -0.88139,3.2825 0.15822,3.9834 0.0167,0.463 0.51613,0.1452 0.42937,1.8559 -0.10053,0.4297 -0.88746,-1.3511 -0.55392,0.8678 -0.38993,-0.744 0.10865,-1.3044 -0.57085,-1.017 0.13072,-1.5117 -0.66452,-2.5612 0.9365,-1.9351 0.0681,-4.2035 -0.87674,-2.2549 0.11051,-0.3872 0,0 0.19437,-0.6827 1.39573,1.8676 0.0303,3.6652 0.84536,1.3349 -0.0153,0.058 z m -229.48721,141.7726 -0.13073,-1.4271 -3.3509,-0.716 -3.90368,-1.7248 -2.59524,-2.1687 -1.7586,-1.3477 -1.72915,-0.344 -1.04796,1.2017 0.80455,1.9831 -0.05,1.3216 -3.5114,-1.0341 -4.39047,-1.9332 -2.18312,-0.6098 5.37778,3.2409 3.30021,1.5444 3.80411,1.5971 2.42675,0.4121 2.12165,0.8549 1.35972,0.2298 1.04857,0.09 1.03629,-0.8824 -0.20009,-1.1527 1.77397,1.0069 1.79775,-0.1423 z m -12.30247,-8.367 0.98565,0.1476 -2.57716,-1.694 -2.77752,-3.0594 -0.0465,-1.3877 1.20513,-1.1731 -0.7893,-3.5063 1.57801,-1.6979 -0.82012,-2.7149 -2.49513,-0.6142 -3.50144,-2.2313 -0.65028,-2.2968 0.92412,-1.5757 2.16188,-0.01 -0.33256,-1.6525 -1.26954,-3.12 0.91016,-1.9383 1.69273,-0.9704 -1.47928,-1.6278 -0.8202,0.9887 -2.05087,-0.9438 -1.82109,-3.1275 0.53801,-0.8264 2.8296,1.1498 2.24806,-0.4356 0.93863,-1.1119 -1.14527,-1.5975 -0.52912,-2.3792 -1.31224,-1.9026 2.8104,0.3217 4.6213,-0.6652 2.962,-1.7172 0.8519,-4.1243 -0.43206,-1.578 -2.05114,-1.4108 -0.42984,-2.238 -4.14328,-2.7908 -0.39737,-1.7061 2.1431,1.8075 1.67841,-0.1047 2.79321,1.4003 1.24922,-0.3493 2.07027,0.6516 2.2746,-1.8125 0.46839,-2.0547 1.12812,-1.8745 0.27475,-3.1285 1.32364,-1.5427 1.57627,-2.6234 1.44239,-5.8498 1.40574,-1.8372 0.22934,-1.6321 -0.24342,-3.3876 -0.83187,-1.8567 -0.12817,-2.5159 1.60841,-3.3513 2.66472,-2.6978 2.84239,-0.9914 1.64505,-1.5115 4.04109,-1.307 2.94027,0.01 0.3271,-2.0416 1.98348,-1.4781 -0.0244,-3.5297 2.20137,-4.4745 -0.0527,-4.5966 0.72133,-1.3592 0.0499,-2.2741 0.24218,-5.3279 -0.77463,-6.4973 0.57621,-2.5568 0.69511,-0.068 1.85294,-3.0166 1.52792,-3.9393 3.69205,-4.8565 1.32119,-2.2815 0.87388,-5.7838 -0.54989,-2.1189 -1.10855,-4.4623 -1.06076,-1.1061 -2.43252,-0.1406 -2.21621,-1.0117 -3.72637,-3.9306 -4.2614,-2.905 -4.24756,0.1368 -5.56871,-1.8569 -3.29004,1.0821 0.43474,-1.9436 -1.41494,-2.0579 -4.74638,-2.1448 -3.58926,-1.26232 -2.1468,2.30462 -0.12188,-3.52032 -5.03308,-0.55159 -0.88494,-1.05871 2.15531,-2.89128 -0.0511,-2.42425 -1.51401,-0.57971 -1.46367,-6.1396 -0.64374,-1.94088 -0.97368,0.16581 -0.42101,-1.43682 -2.88932,-2.96037 -2.05295,-0.8298 -0.94579,-0.38569 -3.00492,-0.942 -2.30693,0.25294 -0.33679,0.63182 -3.36435,-0.702 -1.05425,-1.22001 -1.42035,-1.70908 -1.06293,-0.083 0.0347,-1.8032 -1.59433,-2.28043 -1.76175,-1.28689 -1.0437,-0.82445 -1.47971,0.079 -0.21606,-2.80067 -1.98442,-1.71775 -2.23109,-0.26239 -0.80189,-1.64798 2.4964,-1.03062 -3.37994,0.0485 -3.51071,0.2104 -0.1236,0.87876 -1.69203,1.09047 -2.11245,-0.43146 -1.44861,-1.56292 -3.0485,0.35855 -2.52612,-0.0307 0.0195,-1.15508 -1.59926,-1.94433 -1.96507,-0.0566 -0.69803,-2.44795 -1.12701,1.09874 0.18338,1.64245 -3.67609,1.41737 -0.16432,2.64151 0.73969,1.22885 -0.8956,2.52531 -1.24036,0.22695 -0.77924,-2.77202 1.47077,-2.0278 0.24933,-1.82451 -0.72216,-1.58228 1.70206,-0.40677 0.18526,-0.82333 0.69886,-1.17272 -0.61329,-0.91584 -0.96481,-0.21324 -1.5858,1.67735 -1.1975,0.77883 -2.43952,1.7599 -2.16382,-0.29095 -0.3167,0.72672 -1.78167,0.0662 -1.81768,1.61869 -0.86842,2.94981 -0.15677,1.15545 -1.20325,0.37188 -2.37678,2.44027 -1.44929,-0.11104 -0.96198,-0.9662 -0.80785,-1.05169 -1.1888,-0.60359 -1.56049,-0.11917 0.14476,-0.34367 -1.53439,-0.20499 -1.08429,1.04414 -1.79502,0.7049 -1.30005,0.88292 -1.41815,0.25268 -0.68104,-0.85905 -0.29878,0.28434 -1.10967,-0.15717 0.14271,-0.74057 -0.86523,-1.25333 -1.13943,-1.49084 -0.90706,-1.40496 -0.45394,-1.89564 -0.35026,-0.5729 0.006,-0.94226 0.70734,-0.89122 -0.0538,-0.92008 0.4949,-1.48942 0.48315,-0.34196 0.18426,-1.56647 -3e-4,-0.89639 0.35423,-1.53155 0.54828,-1.3976 0.85887,-1.18238 -0.0478,-1.26942 0.28958,-0.77406 0.30381,-0.33264 -0.5469,-0.95319 -0.90666,-0.53056 -0.64731,-0.77623 -0.71552,-0.64697 -0.42534,-0.0764 -1.1687,-0.47992 -0.61547,0.3002 -0.74399,0.081 -0.61537,-0.23496 -0.8472,-0.17906 -0.40846,0.38737 -0.97548,0.3828 -1.30437,0.0904 -1.22479,-0.31227 -0.46823,0.17186 -0.19711,-0.28211 -0.80602,0.0496 -0.74096,0.60848 -0.25978,-0.13524 -0.71982,-0.44185 -0.35159,0.51573 -0.77012,-0.62607 0.816,-1.19815 0.52604,-0.11007 0.75177,-0.91716 0.72372,-1.74545 -0.0972,-0.33012 0.58374,-1.23457 -0.11291,-0.53341 0.81349,-1.49077 0.28079,-0.93676 -0.51845,-0.0158 0.11825,-0.50502 0.59147,-0.0574 0.47513,0.88418 1.37703,-2.68477 0.80375,-1.48524 -0.34525,-0.59793 1.22399,-2.0885 2.04248,-2.03612 0.568,-1.6475 -0.44034,-0.72459 -1.73726,0.2894 -2.37565,-0.11902 -3.11893,0.7928 -2.11534,0.89564 -0.76884,1.00054 -1.05561,2.87938 -1.21124,2.00263 -2.13037,1.40254 -1.89148,0.58993 -2.22848,0.61844 -2.19466,0.34765 -2.67674,0.96232 -0.74847,-1.44033 -2.66886,-0.91273 -0.5899,-1.69236 -0.0598,-1.95876 -1.02935,-2.55187 0.31046,-2.65335 -0.28822,-1.66564 0.16755,-1.86066 0.84597,-1.66336 1.86671,-4.55132 1.40514,-2.43779 2.21309,-2.96573 -1.08102,0.1012 1.08105,-0.10121 -0.0402,-1.14643 0.53658,-1.61631 1.01102,-2.31892 1.26282,-1.5094 2.14293,-1.59898 3.25304,-1.4415 3.49912,-2.4734 2.55158,-0.77804 1.72865,-0.23338 1.55141,0.77057 2.46196,-0.41525 1.18049,1.76112 1.85524,0.10376 1.25319,-0.63268 0.76096,0.49197 0.68512,-0.43843 -0.27321,-0.65843 0.62782,-1.35009 -0.0804,-0.88375 1.30423,-0.5182 2.08292,-0.22886 2.14592,0.36719 3.11797,-0.41733 1.27901,0.82174 0.61524,1.55163 0.39856,0.16637 3.25306,-1.50991 0.80652,0.51019 0.91802,2.78674 0.0216,1.83686 -1.38152,2.22161 -0.09,1.31178 0.30495,2.57044 0.40607,2.89732 0.75266,0.77623 -0.0683,1.48229 1.18398,0.41004 0.93851,-0.42661 1.34311,-2.06237 0.55491,-1.31174 0.85992,-2.26967 0.13512,-3.89281 0.51898,-1.44615 -0.27078,-2.36409 0.24615,-2.84894 0.47548,-2.30583 1.37789,-2.35255 2.04539,-1.95772 2.12154,-1.56869 3.73346,-2.13364 0.8474,-1.1008 1.81925,-1.20333 1.35978,-0.20989 2.51671,-1.91659 3.04157,-0.96702 2.68478,-2.41464 1.14933,-3.24168 0.27239,-1.11745 -0.60411,-0.22306 1.38888,-3.06211 -1.17165,-1.03302 1.36754,0.50253 0.50363,-2.03142 1.17915,-1.38079 -1.06765,2.65582 0.64332,1.22555 -1.82974,2.18802 0.16322,0.12792 2.63674,-2.56775 1.40128,-1.24569 0.56648,-1.209 -0.31795,-0.56851 0.37379,-1.71696 0.38633,0.79665 0.44895,0.16596 -0.23393,0.81968 3.01149,-2.45293 1.69907,-2.28007 -0.6309,-0.14532 1.19187,-0.8773 -0.2756,0.38827 1.53114,-0.006 3.84504,-0.94843 -0.39755,-0.5982 -3.82192,0.59472 2.4737,-0.91385 1.46828,-0.15561 1.11923,-0.15761 2.04709,-0.54954 1.11115,0.0612 1.86734,-0.51042 0.65287,-0.89794 -0.34694,-0.69732 -0.34748,1.1461 -0.94361,-0.0786 0.094,-1.66315 0.91293,-1.65888 0.77744,-0.70205 2.24505,-1.8487 2.95699,-0.91883 2.96187,-1.0696 3.27547,-1.49726 0.1561,-1.01045 2.74931,-0.37481 3.71525,-0.10068 -5.34291,2.55033 -1.28618,2.62452 1.65163,0.22837 3.73681,-2.2353 2.92918,-1.25117 6.01303,-1.83434 3.83,-2.01115 -0.90051,-1.10823 0.99224,-2.21073 -4.05089,3.43117 -3.98918,0.4437 -2.12585,-1.52921 0.54101,-2.30017 1.16698,-3.26522 3.26858,-2.02187 -1.06053,-1.4697 -3.44959,0.29836 -6.1571,2.50227 -6.0206,3.97717 -2.21325,0.50006 4.30434,-2.80146 5.68361,-3.98414 3.61899,-1.32553 3.1674,-2.13623 2.36029,-0.20553 3.21688,0.0214 4.23358,0.62538 3.9263,-0.48223 4.10029,-2.43148 4.10286,-1.04704 2.10399,-1.03103 2.15207,-1.10108 1.73794,-3.27076 -0.17927,-1.0907 -1.36516,-0.38331 0.70265,-2.43135 -0.71311,-0.91179 -2.71812,-0.73718 -0.6911,-1.6228 -1.50688,-1.59318 2.06259,-1.76397 0.37106,-3.33941 0.33291,-3.506 0.59364,-2.42628 -2.29101,1.26013 -4.32282,3.01648 -4.02059,1.53124 0.004,-1.62403 -1.34583,-0.4293 2.47294,-3.4452 2.16173,-2.26385 -3.02051,-0.20309 0.47161,-1.0378 -0.63742,-1.54118 -0.70981,-0.89562 -2.18581,0.69425 -1.53738,-0.25738 -2.22653,-0.71832 -1.89413,0.60931 -3.87816,4.16524 -1.7127,2.44844 -5.06035,2.86482 0.29311,2.07649 -0.89647,2.36324 -1.53665,1.87353 -2.84004,1.96607 -4.00958,1.99078 -4.39809,1.33839 0.11966,1.50945 -2.73771,4.57184 -3.54783,3.00908 -2.39083,0.95794 -0.88445,-2.78709 1.25506,-3.25721 1.92015,-2.89916 2.58227,-2.47706 -1.92465,-0.275 -3.15,-0.16423 -0.95403,-1.19603 -1.71108,-0.77917 -0.0566,-1.33248 -0.84609,-1.06756 -2.31418,-1.21123 -3.31765,0.55213 1.45485,-2.11392 2.12344,-2.58705 -2.22344,-0.45793 3.96757,-3.16785 3.38229,-2.12775 5.81295,-3.0059 4.95826,-2.1387 2.45285,-0.32836 2.36839,-1.69744 2.8194,-1.09613 2.65075,-0.17129 4.27845,-1.74135 1.99807,-1.1172 4.51363,-2.13552 2.24463,-1.25957 0.59814,0.75412 2.75744,-0.38679 5.48369,-1.7428 1.85869,-1.20174 0.773,-1.31265 2.9985,-1.29643 1.66734,-1.19716 -0.17917,-1.18728 -1.60646,-0.35014 -1.77147,-0.18224 -4.21376,2.6292 -4.29426,2.10028 -4.26505,1.78024 0.99842,-1.66241 3.25665,-1.80794 0.70479,-1.55185 -5.06182,1.89173 4.04859,-2.46369 -1.8981,-0.48253 3.30203,-1.16505 2.82529,-2.6362 0.52818,-1.0178 -1.08181,-0.3677 -4.85832,1.67257 -4.95884,2.58909 -0.0379,0.95905 -0.99925,1.47623 -4.7839,2.43787 -1.11977,-0.0657 -4.21511,1.96004 3.86394,-2.32293 -0.93019,-0.82482 -2.0817,0.4242 -2.44239,1.52043 -2.14504,-0.0589 -3.07157,0.3901 -0.75365,-1.10531 -2.0602,0.19496 0.91849,-1.3232 -0.11813,-0.57807 -1.66135,0.24182 -2.04278,0.11157 -2.5765,0.83123 -0.40522,1.03653 -3.99831,1.24478 1.12901,-1.47423 -2.12877,0.42869 -4.72196,0.28977 -1.74234,-0.52638 4.57794,-1.2115 0.48779,-1.22798 -1.78717,0.15543 -1.1869,-0.40939 -1.55171,-0.88017 0.009,-1.00173 -1.44381,-0.13722 -2.14284,0.69471 -2.69811,0.392 4.00244,-1.80416 -5.70984,1.61072 2.62447,-2.12673 -0.36792,-0.25076 -3.03947,1.11107 -2.4227,0.55438 1.40753,-0.98203 -3.81635,0.58964 -4.76054,1.04527 -1.45048,-0.29136 -3.63923,0.74647 -3.78615,1.00284 -1.00443,-0.22174 0.59546,-1.15421 -1.23188,-0.57483 -10e-6,0 -0.69761,-0.33275 -0.26858,-0.71207 -2.96743,0.38457 -0.26315,-0.30774 -2.1426,-0.22212 -0.88443,-0.74383 -2.13065,0.23495 -1.00597,-0.39917 1.67956,-0.53817 -1.95412,-0.14003 -1.98695,0.45235 2.18311,-1.05234 -0.58709,-0.48668 -6.00247,1.23901 -0.80648,-0.1562 -5.91085,1.03968 -2.22316,0.26912 -4.93269,1.12413 -3.86675,1.16111 -5.13954,1.09476 -2.88103,0.0784 -4.61736,1.27014 -0.15657,0.77104 -1.50991,1.04612 -2.33648,1.23503 -0.64277,0.94692 -2.82769,1.55138 -3.65713,0.0979 3.56898,-1.25263 -1.30778,0 -6.88465,1.22466 -5.11565,1.05578 -1.82759,1.47675 -1.96101,1.02896 0.88461,0.61588 3.09219,-0.28853 -0.0906,0.5675 1.92029,-0.56823 3.1606,-0.55878 1.09377,-0.0291 -3.68513,0.99082 -0.1944,0.46395 -2.53925,1.18204 -3.22777,0.80705 -0.70827,-0.22431 -4.38944,1.2598 -0.18856,-0.41859 -1.85348,0.19107 -3.8235,1.34712 -4.88633,1.47418 -4.21466,1.52907 -1.19792,1.13982 -3.37795,1.52364 -0.16802,0.64856 -1.18718,1.27348 3.50883,-0.52076 -0.8527,0.96838 -2.42087,1.00108 -3.18667,1.63339 1.15494,0.002 4.11211,-1.09951 -2.0591,1.3702 2.49047,-0.98691 -1.55533,1.39602 3.01226,-1.0015 -0.33117,0.47323 3.82532,-0.83342 -4.16208,1.62636 -4.38757,2.10287 -3.29804,0.98459 -1.49166,0.55993 -5.86037,1.6804 -3.11845,1.15652 -3.04786,0.31973 -4.98303,1.55142 -3.57011,0.87885 -4.6364,1.33522 -0.553,0.48164 4.94748,-0.81801 3.39922,-0.95537 3.79185,-0.9698 3.30221,-0.79181 0.97045,0.21814 4.5214,-1.21072 3.05029,-1.32402 5.73482,-1.44948 2.79265,-1.2371 3.52757,-0.84903 4.25581,-1.16088 5.586,-1.98072 1.22739,-1.3304 6.51829,-1.93671 4.87879,-1.79829 5.36433,-1.49531 -0.88229,0.67194 -3.60673,0.82712 -6.13591,2.65483 -2.87201,1.60841 3.19237,-0.58099 3.41809,-0.92038 3.23958,-0.56704 1.357,-0.17421 3.30425,-1.8784 3.14367,-0.56947 -0.0893,1.14762 1.22957,1.24366 2.9829,-0.23129 1.43544,0.96963 0.83808,0.51702 -1.12735,2.8461 0.87383,0.79474 2.91514,0.0677 1.53395,0.17889 -3.22342,2.62614 -1.0371,2.26939 -3.1795,2.46683 0.41939,0.90686 -0.45821,1.07319 1e-5,0 -2.07269,1.47579 -0.45296,2.09111 -2.81366,2.33767 1.02462,1.241 -2.63232,1.79674 -2.11861,2.60713 2.37336,1.22576 -0.002,1.28311 0.79952,2.93254 0.2851,0.008 -2.01182,2.46521 -2.34551,2.47985 -1.41198,0.80145 1.91897,-2.85894 -2.05253,-1.02413 -0.93033,0.58841 -0.91609,1.4022 -2.12073,2.5957 -3.8991,4.10103 -3.11348,2.79542 -3.05552,2.81173 -3.73313,2.93661 -1.49139,2.40039 -2.37233,2.69908 -2.84738,2.62101 -0.21533,1.73391 -1.85797,2.5978 -0.30277,2.68156 0.2369,1.06026 -0.67551,0.74456 -1.37347,4.48681 0.047,3.26122 -0.95818,1.78629 0.27638,0.52679 2.12491,0.32204 0.30181,0.88383 1.31047,0.16422 -0.35238,0.93878 0.925,0.39198 0.41881,1.88625 -0.64194,1.67979 -0.79689,2.96661 -0.38755,2.64492 -0.30054,2.17594 -0.21242,2.07736 1.0237,0.9227 0.73444,2.3816 -0.89049,1.50922 -1.62576,1.25145 -0.98904,-0.19013 -0.32311,0.25302 0.5674,1.94874 1.23018,0.81343 0.23949,0.87661 0.56208,-0.4331 1.10071,1.50212 0.77476,1.04469 -0.4424,1.82888 -1.20302,2.47454 0.99454,0.86026 1.2338,1.63928 0.95634,1.9357 -0.12349,2.06792 0.47311,0.0164 1.63841,-1.24996 0.31191,-0.60895 -0.35498,-1.51692 -0.43028,-1.54157 -1.24847,-0.11204 0.62767,-1.78659 -0.0399,-1.58496 -0.1211,-1.4793 0.58744,-3.13496 -0.83571,-1.711 0.0265,-1.18873 -0.37237,-0.85319 0.58135,-2.15962 -0.49161,0.0465 0.2569,-1.14818 -0.2725,-0.23846 -0.0119,-0.78596 -0.68528,-2.29556 -0.12432,-1.37102 1.17917,-2.4918 0.50744,-1.58847 1.21613,-1.34171 0.92611,0.91006 0.94623,-0.14398 1.09746,1.31184 -0.77235,1.2723 -0.51128,2.54233 0.0357,2.51144 -0.4405,1.04236 0.38071,1.6253 0.63008,1.76301 1.28204,0.27263 -0.49154,2.3412 0.78487,1.63376 0.98702,0.78512 -1.36254,2.08333 0.11924,0.82454 1.68474,1.37963 0.39754,2.10982 1.60925,2.64931 1.05065,3.38004 0.25955,1.71968 -0.25542,1.35765 0.36526,1.53373 -0.43049,1.1824 -0.93609,0.88757 -0.0539,0.97648 -1.02598,0.33441 0.0927,1.6707 0.67298,2.16487 2.34725,1.95108 0.67598,1.57034 2.50381,1.09036 1.48599,0.20559 0.43729,0.92062 1.86073,1.6489 2.71153,1.60543 1.95438,0.48417 2.19745,1.58601 1.92233,0.65817 1.74667,0.91216 1.48179,-0.34121 2.54003,-1.30177 1.61105,-0.25129 2.05567,0.90219 1.17612,1.12394 2.3441,3.731 1.21015,1.43179 1.14132,0.68877 1.73126,0.0627 1.31753,0.60581 0.65082,0.74596 1.5146,0.21575 1.0306,0.69095 0.94768,0.33299 1.61279,0.0519 0.45802,-0.81851 0.79561,0.3022 0.29106,1.08773 -0.25509,0.24577 -0.37077,-0.5235 -0.40546,0.53779 1.13605,1.57141 1.00269,1.09414 0.43075,1.17402 1.0971,1.40584 0.81009,1.09817 -0.74275,0.67367 0.725,0.49166 -0.5263,1.0991 -0.16017,1.06271 0.29249,0.7037 0.86158,0.34506 0.52211,0.96932 0.66842,-0.83468 -0.0498,-1.01525 0.65856,0.62389 0.0558,1.02168 0.91623,0.44782 1.02789,0.68679 0.68453,0.83678 0.0142,0.77239 -0.39352,0.60704 0.49368,0.73412 1.45237,0.77622 0.27015,0.52901 0.16613,-0.75933 1.21443,-0.005 0.69163,0.4092 1.13662,0.23242 0.43207,1.40803 0.91409,0.20548 0.42563,-0.59506 0.29555,2.09125 1.33397,-0.17868 0.45609,-0.51883 0.81411,-0.4473 -1.16783,-1.89961 0.35078,-0.72805 0.62959,-0.12211 1.23316,-0.87861 0.70292,-1.21631 1.26062,-0.22275 1.30385,0.97184 0.40888,1.15557 0.6926,0.2397 -0.79066,0.93461 0.43024,1.88919 0.85541,1.01003 0.9934,1.86556 0.22807,2.96376 -0.6707,0.92037 0.44645,3.20822 -0.6414,2.03619 1.00872,0.83506 -1.16619,1.84124 -1.27654,2.20601 -1.41882,0.2354 -0.70453,1.27172 0.0835,1.75908 -1.06739,0.26349 0.36605,1.09024 -1.97698,1.39773 -1.56761,0.75339 0.1886,1.43331 -1.07842,2.26208 -0.50799,2.18798 -0.99077,0.5296 0.53993,3.1873 -0.5519,0.9899 1.75095,1.5386 1.0387,-1.6305 0.66088,1.5334 -1.41702,2.6235 -2.16491,2.2164 -0.75099,2.4571 1.5921,3.3447 -0.80384,1.5643 2.13197,1.4185 2.39434,2.2861 1.1284,2.5782 1.31482,1.5944 3.4536,6.9574 3.64038,6.4318 3.06876,4.5645 -0.29785,1.001 1.63801,2.8671 2.52405,2.1366 5.67595,3.7851 6.15223,3.468 0.51675,1.415 3.16221,1.9781 1.58729,4.8417 1.47265,5.6061 1.0604,7.6182 1.09359,7.0331 1.50131,6.509 -0.20608,4.0864 1.72556,4.1121 0.20435,2.7378 2.44374,4.9492 0.85481,4.8919 0.45196,5.2157 0.81791,5.2258 -0.99342,0.1047 1.92279,3.6204 2.23258,3.1188 -0.0147,2.175 2.28002,5.8538 1.76625,4.4761 1.72453,0.4387 -1.44731,-3.9014 2.04023,0.8333 2.43607,6.448 -3.21149,-1.0895 2.32689,5.1206 -0.43432,2.7015 3.98641,0.888 -0.82402,2.344 1.03092,2.9001 3.89059,5.089 2.51919,1.9673 0.68602,1.7249 2.07015,1.8554 3.87442,1.668 0,0 3.91988,2.0187 3.03643,0.9381 0.81552,-0.067 -1.69714,-2.7036 1.11013,-1.0514 0.49243,-0.7177 1.87843,0.022 z m -54.96875,-334.50379 1.85853,-1.19223 1.63259,-0.4725 1.08166,-0.73247 0.81181,-0.39116 1.55159,0.60496 1.45588,0.0722 0.2077,0.40206 -0.59213,1.70811 2.14234,0.45393 -1.04148,0.86033 0.21821,0.88974 -1.23357,1.15432 0.66369,0.38201 -1.21264,1.02429 -0.005,0.004 -0.59931,-0.12333 0.14999,-0.85363 -2.40741,0.26614 -2.50411,0.67904 -0.71473,-1.16146 -0.97749,-0.38808 1.95248,-1.60094 -2.7512,1.00456 -2.56313,0.98509 -2.33803,0.77497 -0.56077,-1.04633 -2.75338,0.63427 0.36194,-0.44691 2.54363,-1.28124 2.55575,-1.21218 3.06616,-0.99739 5e-5,-4e-5 z m 8.07732,4.86156 0.74723,-0.44854 -0.0424,0.67602 1.4273,0.37932 1.69898,0.0322 1.61943,0.31222 1.62421,0.5931 0.0947,0.96193 -0.0676,2.35597 -1.40092,1.0213 -1.5977,-0.4256 0.10193,-1.9065 -0.9959,1.94194 -2.22275,1.7192 -0.82555,1.47352 -0.74478,0.86892 -2.16672,1.03148 -3e-5,2e-5 0.69552,-1.27803 0.74664,-1.80241 -0.6546,-0.31008 -2.33649,1.36591 -0.44566,-0.0259 0.39555,-0.78168 2.09693,-1.23996 1.15397,-1.40881 0.76482,-1.40015 -0.86124,-1.1987 -1.50289,-0.6136 -1.14369,1.16646 -0.72377,0.31283 -1.46689,1.52073 0.50806,-1.03382 -1.43397,0.73767 -1.29662,1.03654 -1.65078,1.5183 -1.01288,1.31681 -0.51497,1.92628 -1.41513,2.06228 -1.94453,1.5285 -0.75838,0.43441 -0.86228,0.34599 -0.81807,0.0172 -0.0813,-0.21325 0.43505,-1.65031 0.51864,-0.8141 0.57616,-0.77214 0.73447,-1.52819 1.64715,-1.7607 2.02613,-2.15929 2.87544,-2.37329 -0.35231,0.0109 -3.10261,1.98628 -0.0525,-0.36522 1.69417,-1.11124 2.79606,-1.98627 1.74666,-0.27591 2.21354,-0.61262 1.55331,0.32311 0.0664,0.0138 2.19515,-0.27629 -0.25767,-1.21844 0,0 z m -6.13579,13.40298 1.17654,0.19769 2.36652,-0.99886 1.56794,-0.87544 0.78702,-0.14255 1.10089,0.31488 0.92207,-0.48655 1.38634,-0.3949 2.27679,-0.38395 -3e-5,8e-5 -0.13951,0.3068 -3.14855,1.86818 -2.32531,0.90749 -1.47277,0.42348 -1.9264,0.86973 -1.97288,0.41879 -1.08939,-0.16119 -1.06901,-0.65096 1.5597,-1.21273 4e-5,1e-5 z m 11.94595,-3.70709 -0.13314,0.0358 -0.81256,0.1612 -0.75054,-0.29547 1.35711,-1.06419 0.93792,-0.3674 1.92008,-0.45252 2.22117,-0.42232 0.67138,0.58696 1.06088,-0.68036 0.99618,-0.4294 0.3538,0.22726 -0.003,0.0484 -0.0249,0.43379 -0.58589,1.20855 -2.36081,1.02716 -1.7593,-0.25803 -1.76468,-0.11569 -1.32376,0.35626 z m 74.76308,396.58594 109.88768,5.9649 109.97173,-5.9695 2.19618,-0.366 2.65904,-0.4845 -5.07513,0.3943 3.30669,-0.4584 0.83854,-0.1198 0.74789,-0.3405 5.54274,-0.7888 2.00479,-0.5153 2.43779,-0.5232 2.40928,-0.5308 2.64927,-0.5723 3.23905,-0.6492 3.83239,-0.7291 2.22776,-0.5988 4.17073,-0.6783 4.04975,-0.6874 4.71938,-0.881 6.22386,-1.083 2.23228,-0.075 3.56689,-0.4165 3.2998,-0.3045 3.71299,-0.8452 -0.63114,-0.271 2.76618,-0.7022 3.16002,-0.7487 2.89818,-0.7962 3.27066,-0.7641 4.0466,-0.9349 3.50639,-0.78 3.99929,-0.8705 3.52255,-0.6689 3.96917,-0.8006 3.83463,-0.8499 3.40397,-0.4706 3.67491,-0.7747 2.96804,-0.3462 4.01608,-0.9141 3.36107,-0.7896 4.27242,-1.017 3.56459,-0.8023 3.3083,-0.8976 1.36825,-0.6774 0.10319,-0.4538 0.37994,-0.5467 -0.51247,-0.3198 -1.08515,-0.1832 -1.83127,0.046 -1.07851,-0.1374 -1.77591,0.046 -0.42266,-0.3671 1.48099,-0.83 0.0561,-0.556 2.07031,-0.9317 -0.86671,-0.2806 -1.1031,-0.2344 0.31447,-0.5637 0.99244,-0.7554 0.51721,-0.664 -3.19454,0.8061 -1.56455,-0.048 -0.48972,-0.3786 -1.00799,-0.38 -0.81684,-0.4281 -0.0766,-0.6209 -0.17292,-0.5752 0.8259,-0.722 2.59144,-0.9191 0.79969,-0.7779 -1.29054,-0.1949 -1.84048,-0.098 -1.60216,0.049 -2.07423,0 -1.76542,0.1464 -2.18365,0.049 -2.12777,0.1463 -0.32649,-0.439 1.2209,-0.832 1.75541,-1.0333 2.19224,-1.1387 0.46551,-0.6965 -2.29913,1.0439 -3.12862,1.2349 -1.87554,0.1967 -2.00906,0.2457 -1.81573,0 -1.83858,0.098 -2.55663,0.3921 -2.37135,0.4402 -0.93915,-0.2444 -0.88546,-0.2447 -1.43369,0 -2.30577,0.3913 -1.14275,-0.2444 -0.73493,-0.343 -1.83122,0.1961 -2.63708,0.7819 -2.81522,0.7783 -2.01792,0.1941 -1.47157,-0.2426 -0.62472,-0.6324 0.15053,-0.6346 -1.92784,0.098 0.36581,-0.7839 0.65247,-0.7874 -0.35737,-0.4939 -2.19422,0.5432 -1.97665,0.099 -2.43915,0.7377 -2.55959,0.6857 -2.32802,0.3419 -2.22955,0.2925 -1.44975,0 -1.45569,-0.049 0.62392,-1.5167 0.4348,-0.8869 -0.0837,-0.6927 -0.48207,-0.3475 -5.11735,1.8778 -2.23548,0.6869 -2.19367,0.8304 -2.43571,0.8265 -1.056,-0.3398 -2.00456,0.3398 -1.6834,0 -1.95881,0.3391 -0.33113,-0.5332 -1.08748,-0.1457 -1.36607,0.2427 -1.39475,-0.048 -1.29404,-0.1942 -1.9506,0.2912 -1.2066,-0.1941 -0.59423,-0.4862 0.97844,-1.173 0.39642,-0.6878 -3.21831,1.6658 -2.1346,0.6812 -1.50838,-0.1457 -1.95267,0.2913 -1.75305,0.2425 -1.21882,-0.2425 -1.67279,0.3878 -1.4893,0.435 -1.99171,0.8188 -1.96242,0.4797 -2.35925,0.6213 -2.29958,0.9035 -1.70768,0.8985 -2.06425,0.9399 -2.02588,0.3741 -1.8538,0.2802 -1.78302,0.093 -1.23336,0.2328 -2.37857,1.1581 -1.53251,0.828 -1.85829,0.686 -1.80521,0.7277 -1.6992,0.8588 -2.05584,0.8976 -2.14011,0.4019 -1.22888,-0.2231 -0.0235,-0.7165 1.95207,-0.9468 1.88676,-0.8629 1.42927,-0.9145 -1.63826,0.046 1.01046,-0.9205 2.26652,-0.8803 2.17721,-0.6054 1.55752,-1.0775 0.83523,-0.6126 1.85806,-2.5231 -1.53205,0 -1.2789,-0.1921 -1.11607,-0.2886 -1.18671,-0.2892 -0.87277,-0.5312 -2.43934,1.0129 -1.75565,0.4801 -1.31477,-0.144 -0.55541,-0.673 -0.33513,-0.676 -1.56939,-0.2905 -0.28143,-0.6799 -0.59484,-0.8292 0.85777,-1.079 -0.65766,-0.6902 -1.29803,-0.2471 -1.29729,-0.1484 -1.66296,0.1978 -1.95196,0.3952 -1.74026,0.4927 -1.92459,0.6875 -1.05194,0.8798 -1.78688,0.5841 -1.43451,-0.049 -1.56935,0.6791 -2.10905,0.869 -1.21929,-0.2892 -1.62977,0.5298 -1.71509,0.5759 -1.60446,0.5261 -2.14738,0.4766 -1.72828,0.3329 -2.15428,0.8053 -1.65125,0.4246 -1.27547,1.0329 -1.89429,0.5603 -0.65352,-0.6072 -0.45517,-0.8447 -1.6611,0.1882 -0.90932,-0.5652 -0.0471,-0.8518 -1.33045,-0.3799 -1.33771,0.8064 -1.60655,1.3191 -1.51172,0.6552 -1.6205,0.2333 -1.60343,0.4188 -1.6334,0.6492 -1.66576,0.2773 -1.59532,0.3228 -1.61147,0.046 -1.61522,0 -1.71299,0.092 -1.73842,0.4134 -0.62043,-0.6898 -0.3484,-0.786 -1.49805,-0.1392 -1.50982,-0.2787 -1.51594,-0.047 -1.73277,0.093 -1.64312,0.2786 -1.43971,0.8788 -0.31162,-0.8788 -1.8572,-0.1392 -1.62424,0.6488 -0.85722,0.9213 -1.70383,0.4584 -0.63407,-0.8262 -0.82879,-1.1095 -1.55016,0.3246 -0.98112,-0.6033 -0.99218,0.8347 -1.2956,0.5075 -1.62503,0.3679 -1.48622,0.55 -1.58753,0.3199 -1.60073,0.319 -1.4252,0.409 -1.51475,0.7689 -0.60234,-0.9506 -1.58149,-0.1364 -1.72654,0.2727 -1.75511,0.4078 -1.66019,-0.1357 -0.45077,-0.8635 -1.53565,-0.2282 -0.58053,0.9103 0.0742,0.8588 -1.64784,-0.09 -0.8106,-0.7687 -1.68076,-0.1362 -0.86427,0.6342 -0.41909,1.0795 -0.83069,0.8923 -1.15802,0.709 -1.28238,0.5288 -1.20971,0.4389 -0.61747,0.6987 -0.11836,0.91 1.51407,0.5165 -0.0589,0.8549 -0.90901,0.6365 -0.77314,0.7164 -1.36072,0.6692 -1.05217,0.4986 -1.15957,0.4959 -1.19665,0.4111 -1.51166,0.2865 -1.71092,0.082 -0.67113,0.1631 -1.33089,0.2849 -1.27146,0.3646 -0.37512,0.8046 -0.83251,0.598 -0.78852,0.5933 -1.34769,0.4711 -1.03573,0.4681 -0.031,0.4264 1.39741,1.4519 1.0478,0.7135 1.88101,0 1.68307,-0.2994 1.81185,-0.075 0.65265,0.7095 1.02704,0.6642 1.26611,0.6564 -0.93313,0.469 -1.62053,0.3222 -1.53457,0.2492 -1.14899,0.3889 -1.17587,0.3859 -2.08427,0.035 -0.37809,0.5205 0.67059,0.752 -2.29826,-0.4086 -2.40978,-0.2401 -1.97941,0.034 -0.53886,0.4786 -0.76313,0.4394 -0.20669,0.5342 -0.11851,0.4939 0.51534,0.5836 -1.86216,-0.6163 -2.62751,-0.7941 -2.80557,-0.5728 -2.57669,-0.5121 -3.16632,-0.4836 -2.76306,-0.2788 -2.9294,-0.5625 -2.63596,-0.5693 -2.83447,-0.5035 -2.63133,-0.29 -2.88704,-0.6949 -1.90711,-0.7037 -2.65384,-0.6368 -1.73667,-0.7579 -1.77706,-0.8054 0.35947,-0.5036 2.20126,0.1941 -0.14682,-0.6231 -2.11467,-0.7075 -2.33198,-0.5551 -2.39702,-0.3588 -1.9819,-0.8038 1.87795,0 1.45708,-0.1618 2.12468,0.081 1.64545,-0.081 -0.63337,-0.8543 0.76271,-0.451 0.68443,-0.4534 1.011,-0.3313 0.52689,-0.7915 -0.36504,-0.714 -0.5887,-0.762 1.20485,-0.2979 -0.29892,-0.7272 -0.55463,-0.9056 -1.39617,-1.1757 -1.56093,-0.8791 -1.24719,-0.886 -1.47305,-0.8478 -2.8215,-2.123 -1.46264,-0.8682 -1.60443,-0.7818 -1.52141,-0.9255 -1.35208,-0.885 -1.69327,-0.9373 -2.00598,-0.7544 -1.88863,-0.5681 -1.67813,-0.761 -1.69023,-1.0043 -0.79366,-0.9141 -0.20399,-1.065 0.0817,-0.7787 -0.0109,-0.8315 1.29588,-0.1961 0.49615,-0.5899 -1.60356,-0.8391 -1.03656,-0.9422 -0.7561,-0.9972 0.0846,-0.7514 0.58862,-0.6536 0.58732,-0.6052 1.15435,-0.2527 1.61651,0.4043 0.22991,-0.556 1.06101,-0.7607 -0.10311,-0.8655 -1.57043,-0.6644 -1.08528,0.3068 -0.26218,0.8162 -0.64528,0.6608 -1.11721,0.3042 -0.72274,0.506 -0.29185,0.807 -1.45772,0.1508 -0.40485,0.6528 -0.20912,0.7005 0.47079,1.0953 -0.53234,0.7431 -0.26589,0.7895 -0.0185,0.9327 -0.0544,0.733 0.50122,1.1177 1.30023,0.9659 1.53921,1.0558 0.89942,0.9537 0.62327,0.9952 0.41619,0.8947 1.04347,0.9359 1.28397,0.9298 1.4509,0.8316 1.65644,0.9179 1.71175,0.9116 1.65764,0.9052 1.45606,0.9434 1.05951,0.9805 0.23903,0.7079 -0.57049,0.4841 -1.19329,0.307 -1.41958,0.2626 -1.08083,0.3054 -0.38594,0.5649 -0.52362,0.4758 -1.31008,0.2154 -2.12715,-0.7345 -2.12024,-0.4781 -1.37955,0.2176 -2.81195,-0.8729 0.87877,0.786 0.48943,0.8233 -2.38721,-0.4759 -2.03016,-0.2605 -1.84167,-0.087 -2.69559,-0.8736 -1.21456,0.219 -2.25248,-0.3946 -2.9794,-1.0146 2.18052,1.7151 -1.36614,0.1745 -2.367,-0.5241 -1.06365,0.2624 -0.85951,0.4359 -1.00733,0.304 -2.00395,-0.1302 -2.24032,-0.7846 -2.72887,-0.6582 -2.29414,-0.3525 -1.41421,0.1323 -2.01373,-0.1323 -1.68672,-0.3094 4.18416,1.6694 2.16079,0.8255 2.61291,0.819 2.0112,0.1715 2.3938,0.7686 2.48385,0.7204 1.58247,0.9242 -2.55545,-0.3769 -2.34545,-0.2944 -2.02753,-0.084 -0.57911,0.3786 -1.36538,0.1258 -2.90767,-0.5888 -2.29279,-0.2534 -3.54509,-0.8068 0.38518,0.6376 -2.68647,-0.723 -2.43227,-0.7711 -2.57871,-0.6904 0.642,0.7763 -0.47283,0.386 -2.82066,-0.4719 -0.59556,0.3434 0.49543,0.6409 -1.44873,0.085 -1.95096,-0.043 -1.90526,-0.043 -1.46423,0.085 -2.4555,-0.213 -2.29853,-0.2135 -0.73348,0.2987 -1.56022,0.043 -2.81096,-0.384 -0.92495,0.2988 -1.3748,-0.1707 -1.36747,-0.1281 -0.028,0.4692 0.1744,0.4669 0.0152,0.5068 -0.92776,0.2104 -1.57548,0.042 0.48385,0.5447 -0.34958,0.4167 -3.1859,-0.7096 -0.21465,0.3763 2.33638,0.7481 3.26861,0.7827 2.93429,0.7757 -0.92659,0.2029 1.394,0.6861 0.85342,0.5605 0.33748,0.4378 -0.88455,0.198 -4.51376,-0.8755 -0.57675,0.2796 -0.94812,0.1993 -3.67601,-0.6391 -1.38006,-0.2009 10.24708,2.2969 3.95128,0.6983 4.11697,0.6146 3.99503,0.7223 2.78357,0.1887 2.97971,0.2632 2.51109,0.1125 3.9946,0.5591 3.63528,0.517 3.98116,0.7665 2.2885,0.6125 2.00057,0.6758 1.26384,0.5269 -4.42992,-0.5976 -0.47628,0.2821 -2.66196,-0.1056 4.4218,0.5605 4.15351,0.6223 4.1007,0.4777 4.32853,0.7063 3.56978,0.6278 4.08186,0.6812 4.76602,0.7301 4.18518,0.3431 4.87857,0.6133 4.65764,0.3612 2.88239,0.06 5.03109,0.7049 1.52431,0.4011 2.02226,0.421 -5.10782,-0.4494 -4.80335,-0.2861 1.75829,0.3994 -5.17597,-0.3419 -5.30082,-0.4645 -4.95189,-0.3845 -5.13352,-0.5121 -1.79162,-0.1861 -3.51373,-0.3671 0.24349,0.278 0.57183,0.089 4.5709,0.6431 -6.34948,-0.6431 -0.17334,-0.012 -0.2347,-0.017 3.48699,0.4941 0.39104,0.054 -5.30368,-0.485 7.2023,0.8856 z m 62.85649,-11.7981 -2.13413,-0.4299 -0.98704,0.4299 -0.53052,-1e-4 0,0 0.47529,0.8135 0.39124,0.6892 0.63968,0.7197 0.68411,0.8229 0.2134,0.6279 -1.09166,0.5118 1.20588,0.7587 2.26341,0.606 2.24444,0.1061 1.21879,-0.3548 0.97065,-0.4291 0.74726,-0.4689 0.57863,-0.583 -1.35735,-0.9607 -1.2137,-0.8254 -1.96134,-1.182 -2.35704,-0.8518 z m -8.10284,3.8462 -2.45533,-0.7744 0.78825,0.6644 0.85558,0.765 -2.33105,-0.181 -2.20801,-0.073 1.68415,0.5423 0.15885,0.072 2.45338,0.6069 1.71671,-0.1065 2.35031,0.2483 -1.42382,-0.8206 -1.58902,-0.9436 z m -40.71899,-19.2198 -1.79535,-1.0543 -1.81497,-1.0164 -2.01667,-1.0704 -1.48884,-0.8904 -1.92466,-0.8957 -0.88792,0.3777 0.63878,1.1278 2.60124,1.9064 1.12651,0.8745 1.26702,1.1875 -1.73791,-0.091 -0.55289,0.2726 0,0 -0.15511,0.9048 1.52729,0.943 2.06246,0.6691 1.01416,-0.3118 1.10965,-0.3126 0.68589,0.891 1.81019,0.044 0.83027,-0.4445 1.12462,-0.312 -0.83191,-0.8514 -1.00783,-0.9025 -1.58402,-1.0458 z m -38.26165,2.2575 -2.33318,-0.1794 -2.38284,-0.3149 -0.0102,0.4047 0,0 2.69476,0.9388 2.30158,0.4445 1.51632,-0.1331 1.82545,0.089 1.43278,-0.089 1.4019,0.1774 -3.385,-1.293 -0.94321,0.2686 -2.11836,-0.3136 z m -21.00317,3.5339 -2.58423,-0.3921 1.72357,0.7395 10e-6,0 3.39183,0.7772 2.21322,0.1719 -0.3321,-0.5598 -1.34335,-0.7803 -0.49176,0.3909 -2.57719,-0.3473 z m 2.60157,12.4041 -4.48058,-0.8638 -4.02038,-0.6844 -3.89266,-0.6145 -3.35322,-0.3096 2.84227,0.7326 0,0 3.22718,0.5346 0.594,0.114 3.92374,0.6795 4.63177,0.672 0.52788,-0.2604 z m -8.28668,-12.4477 -2.73193,-0.5232 0.40253,0.4798 0,0 3.45425,0.6075 2.24235,0.2162 0.98269,0.086 -4.34989,-0.8666 z m 562.23423,-180.6752 0.47897,-1.262 0.36172,-1.9682 -0.52744,-1.7702 0.27077,-1.4626 -0.59024,-0.4212 0.35578,-2.1865 -0.38582,-1.7061 -1.35625,1.3064 -0.3141,0.9948 -1.01908,1.9145 -1.16793,1.846 0.1174,1.1621 -0.73587,0.7066 -1.12926,2.6186 -0.28494,1.9872 -0.52016,1.0094 -0.15736,1.6767 -1.78001,2.7554 -1.01575,1.8967 -1.1214,1.5314 -1.23763,1.8538 -2.27816,1.1787 -2.19204,-1.1699 -0.0228,-1.0662 -1.12616,-0.8842 -0.78257,0 -1.27956,-2.0478 -1.02341,-1.1912 -1.77206,-1.1094 -1.59768,-1.9141 0.10567,-0.9787 1.50889,-1.705 1.33045,-1.7351 0.0704,-1.389 0.9944,-0.1157 1.45085,-1.4048 1.24303,-1.8625 -0.85007,-1.7228 -0.82545,0.6692 -0.97879,-0.3033 -1.89231,0.9971 -1.47129,-1.0705 -0.88953,0.3524 -2.14678,-0.8912 -1.15407,-1.4291 -1.66479,-0.8642 -1.61341,0.5064 1.7929,1.1475 -0.37995,1.7802 -2.52152,0.656 -1.33341,-0.4136 -2.00575,1.2278 -1.72951,1.9867 0.20564,0.8686 -1.5076,0.9081 -2.12092,2.7843 0.0298,1.9043 -1.67535,-0.3251 -1.73768,-0.024 -0.95515,-2.0543 -1.62324,-1.5933 -1.47834,0.4682 -1.36503,0.4971 -0.29137,0.8724 -1.11411,-0.4049 -0.31474,0.9695 -1.57018,0.5908 -1.06644,1.3683 -2.02587,1.7042 -1.14788,2.6326 -0.99084,-0.7491 -1.39822,1.6774 0.45797,1.6321 -1.40562,0.6887 -0.20436,-2.982 -2.88208,2.9351 -0.69891,1.875 -0.59642,1.375 -2.23088,1.7475 -1.36536,1.8374 -2.05594,1.5247 -3.25752,1.0046 -1.4842,-0.081 -0.84224,0.313 -0.69827,0.7512 -1.80345,0.3801 -2.64057,1.2765 -0.59073,-0.4222 -1.34408,0.2674 -2.56687,1.256 -1.894,1.4581 -2.65992,1.1419 -2.08876,2.3465 0.83349,-2.5979 -2.10038,2.4547 -0.52806,1.9904 -1.08494,1.7008 -0.91034,0.8359 -1.14651,1.9622 0.17197,1.0136 -0.22385,1.066 0.0902,2.6603 -0.78043,1.7269 -0.16388,-1.3053 -0.86359,-0.9785 -0.58994,3.1277 -0.46855,-1.4569 -0.32131,1.4371 0.20028,2.6613 -1.01508,2.6263 0.46497,1.3327 -0.45732,0.9819 -0.14096,2.1712 -1.17174,1.896 -0.65769,1.8959 -0.60959,3.3467 -0.90518,1.9558 -1.74268,2.2884 -0.66073,1.1796 -0.91172,0.7468 -1.55039,0.4463 -1.2777,1.8752 0.94869,0.6203 1.26565,2.0824 1.68535,0 1.74574,0.1279 1.92895,-1.0356 1.90154,-0.922 0.63462,0.1475 2.69962,-1.7424 1.84318,-0.1501 2.06826,-0.3572 1.82997,0.5967 1.79439,-0.2909 2.2079,-0.08 1.86469,-1.3309 1.67226,-1.7209 2.73139,-0.7585 3.85755,-1.6883 2.30086,0.2185 3.66956,-1.1006 4.13293,-1.1823 4.829,-0.3127 1.36641,1.6077 1.74023,0.094 1.86368,1.9966 -1.03424,0.7591 0.43815,1.2308 -0.20509,2.3762 -1.42163,1.7342 0.90964,1.3417 3.01182,-2.5957 2.45147,-1.119 4.20519,-2.7975 -1.65186,2.4297 -2.22926,1.6028 -1.8765,1.884 -2.76886,1.8014 2.72135,-0.5977 3.0467,-2.2563 -1.3449,2.4204 -2.12471,1.5766 2.08111,0.391 0.1131,1.3149 -0.83154,1.6343 -1.70204,2.4487 -0.20351,1.9809 1.51593,0.9272 1.18544,0.2291 0.90934,0.5066 1.28285,0.8672 4.35176,-2.3184 1.91474,-0.6069 -1.96835,1.6713 0.95475,0.5644 0.63942,1.4123 2.82019,-1.3715 2.33079,-1.2403 3.53495,-1.316 2.86588,-0.1169 2.48862,-1.1171 0.84526,-1.0185 2.40713,-2.2242 2.8542,-2.4247 2.42422,-1.6197 3.22381,-2.8136 2.2369,-1.6164 3.07337,-2.5402 3.23182,-1.6155 3.56492,-2.9993 2.38028,-2.3716 1.41091,-1.902 2.92561,-2.9672 1.58111,-1.5444 2.25716,-2.9586 0.69816,-2.8495 1.56746,-2.0809 1.17786,-1.9204 0.9582,-2.7131 -0.43564,-2.74 -0.48845,-1.294 -0.71985,-2.0848 1.51272,-3.6073 -0.9433,0.5239 -0.3152,-1.4774 -1.47814,0.7493 0.84436,-3.6941 -0.50607,-2.1456 0.7564,-0.8299 -1.13401,-1.4922 -1.19177,-1.631 -2.18336,-1.7953 0.10186,-2.3336 1.00095,-1.7861 0.41246,-2.9492 -0.53687,-0.4214 0.22481,-1.7254 0.46911,-2.9674 0.81211,-1.5356 -0.88783,-1.3541 -0.45157,-1.4687 -2.21052,1.3086 -0.1494,-2.7236 z m -53.23402,90.3971 -1.27757,-0.2801 -1.56574,1.4485 -1.54233,2.741 -1.9354,2.068 -1.55044,2.6692 1.32226,0.097 0.29049,0.1671 4.09414,-2.171 -0.15114,0.8542 3.07587,-2.5135 2.00654,-1.0802 3.879,-3.7379 -1.21095,-0.2124 -2.50906,0.6075 -1.75793,0.4329 -1.16774,-1.09 z m -20.42859,-157.68403 -2.2415,1.92075 -1.01694,1.31238 -1.23342,2.21877 -1.87198,2.77665 -3.37077,0.76001 -1.1829,0.6621 -0.45799,2.97285 -2.17981,0.6562 -2.12283,-1.20341 -1.6259,2.33367 -0.2841,3.2542 0.39521,3.07285 1.32225,3.00431 1.39657,0.9762 0.25622,4.7091 2.32462,0.4051 1.87321,-0.193 0.94389,1.6987 3.45271,-1.2623 1.35449,1.1246 2.01557,0.1985 0.98372,2.1452 3.33761,-1.579 0.33385,1.2482 1.40616,-5.3677 0.198,-3.4969 2.78633,-2.40204 -0.10331,-3.18282 0.93047,-2.39455 3.36682,-0.41435 -3.27121,-3.25001 0.43174,-1.61543 -2.25584,-3.32375 1.4078,-3.16953 1.99967,-1.19518 -0.65366,-1.71288 1.89002,-0.17399 0.072,-1.37362 -2.47438,-1.05481 -1.97203,-0.97726 -0.29946,-1.52328 -1.66876,-1.77221 -1.14505,0.0115 -1.1117,2.73831 -1.93542,2.43788 z M 450.65734,1.3768 449.39288,1.27228 448.1486,1.1681 l -2.96557,0.27851 0.18329,-0.17807 -2.43887,0.0683 -1.92249,0.18264 -1.87469,0.26606 -3.59895,0.91271 0.73928,-0.47607 -0.64291,-0.0882 -3.29062,0.63345 -2.49278,0.27882 -1.12091,0.0562 -2.33044,0.33098 -1.843,0.59872 -0.71858,0.52094 -1.56611,0.72837 -0.29535,0.61998 3.46704,-0.11699 1.42739,0.21237 -3.25742,0.67531 -0.1745,-0.2017 -2.27392,-0.08 -2.29999,0.96427 -0.63797,0.74255 -2.014,0.67008 -2.95178,0.46221 -2.75769,0.75769 0.72152,0.37888 -1.63336,1.28182 -0.75564,-0.86504 -0.985,0.14007 -2.98313,1.45536 -3.11761,0.46202 -2.17215,0.9889 1.8874,0.10872 1.12798,0.25164 4.02665,-0.32228 1.76817,0.57447 5.55142,-1.24383 1.00525,-0.50072 -2.04383,0.0792 0.8294,-0.46189 2.80647,-0.60576 2.20159,-0.7856 2.83616,-0.56289 2.45038,-0.67568 1.32782,-0.96008 1.46831,-0.34403 -0.77904,-0.24048 3.39748,-0.20452 1.49809,-0.3877 2.6636,-0.3133 5.05817,-1.5175 2.64507,-0.51587 4.57514,-1.08664 -1.83876,0.009 1.71822,-0.39461 2.83242,-0.35381 3.74378,-0.74805 1.14376,-0.45317 -0.21424,-0.45506 -1.01316,-0.21261 -1.58805,-0.12942 z m -32.67818,6.12196 2.7449,-1.2354 -0.45182,-0.34921 -0.30336,-0.39212 1.96883,-0.96433 -2.28307,0.0911 -0.98947,0.41236 -1.3074,0.12662 -2.42442,0.55564 -3.24981,0.82099 -2.03459,0.84916 -0.82939,0.63188 1.80715,-0.0145 -2.22958,0.5109 -1.9904,0.7026 -1.08873,0.79885 1.46535,0.25281 2.18804,-0.14212 5.66417,-1.46862 2.84631,-0.57186 0.49729,-0.61474 z m -21.0702,5.04351 -1.91987,-0.1295 -2.5714,0.84046 -0.30378,0.64028 1.72567,0.25389 -1.00115,0.91385 -2.25421,1.0496 -2.19231,1.17649 1.7593,0.69722 1.43791,0.26801 2.61306,-0.0386 4.18708,-0.33463 1.06848,0.26408 2.71061,-0.46622 1.8405,-0.57376 1.429,-0.88614 0.31626,-0.8004 -1.59356,-0.14847 -2.74744,0.17971 -2.83137,0.45937 -1.33969,-0.17779 -1.38164,-0.0932 0.36924,-0.50185 -0.24979,-0.47518 2.07033,-0.78305 0.64191,-0.67972 -2.1994,0.005 0.41626,-0.65904 z m 3.83163,-1.93203 2.23557,-0.71461 0.70571,-0.68005 -0.21168,-0.1287 -1.06297,-0.0776 -2.26283,0.80808 -1.64882,0.74134 -0.42014,0.46286 2.66516,-0.41136 z m -12.46701,10.36688 3.67104,-1.43494 -4.42326,0.58804 -3.09583,0.90945 -4.86452,2.01767 -3.82966,2.32619 1.9538,0.0101 -3.3246,1.0622 -0.24249,0.82389 1.71901,0.35508 1.91075,0.69368 4.449,0.53067 3.09334,-0.30571 1.81867,-0.69883 -0.058,0.80647 1.08305,0.13538 -0.55348,1.48642 -1.7984,0.60925 1.91922,0.8228 0.78092,1.18144 -0.47301,0.83936 -0.92987,1.09048 -5.00399,2.4263 -2.06827,1.25571 -0.52303,0.90411 -3.75779,0.32471 -3.13958,0.0452 -3.37751,1.8822 0.36768,0.88405 5.33853,-0.41128 0.82672,-0.74531 1.03068,1.24843 1.0823,1.33128 -1.37926,0.73454 0.76204,1.27425 2.21847,1.52864 3.78158,1.05746 0.57389,-0.9251 -0.30107,-1.59082 -0.18708,-2.24958 2.24155,2.08919 1.52106,0.71169 2.36775,-1.88293 1.38828,-2.56537 -0.005,-0.68299 -1.04148,-1.17704 -0.1463,-1.47694 1.78949,-1.44404 2.41722,-0.3143 -0.0305,2.42699 0.92362,1.08852 5.81264,-2.94378 2.28707,-1.75566 -2.30859,-0.16506 0.23916,-2.26965 -1.81928,-0.53773 -1.66561,-1.5881 4.1148,-1.12298 1.42023,-2.23004 -0.002,-0.94966 -2.1464,-0.92416 0.66281,-1.4765 -3.32608,0.52216 1.32783,-1.00574 -0.18048,-1.08915 -1.09591,-1.14553 -2.74041,0.89893 -3.75072,0.66089 2.7102,-1.48528 1.88159,-2.30796 -4.92185,0.91048 -4.527,1.80947 1.5524,-1.40165 z m 13.05009,0.12244 -0.14641,-1.22192 -2.48507,-0.23817 -0.87438,0.14696 -1.48074,0.79867 -0.63158,1.18715 0.14859,0.1367 1.94794,-0.30257 1.33263,0.0475 1.2867,0.0656 0.90232,-0.61985 z m -1.31865,-9.4139 0.72068,-0.23035 0.22756,-0.37251 -2.04433,-0.0293 -1.21218,0.5613 1.67121,0.12866 0.63706,-0.0578 z m -2.15431,-1.60574 1.95912,-0.93176 -0.507,-0.70566 -1.07663,-0.26143 -2.2863,0.73826 -0.24888,0.46856 -2.75666,0.58249 2.0599,0.0731 -0.16778,0.64223 1.08095,0.22211 1.94328,-0.82791 z m -7.13208,3.23733 -0.78163,0.27129 -1.26772,-0.11934 -3.53325,0.70709 -1.05257,-0.065 -4.09212,1.62352 2.33087,-0.16302 -3.06316,1.24324 0.47659,0.34372 2.50867,-0.22058 4.30195,-1.58346 2.60383,-1.07669 1.56854,-0.96076 z m -0.98624,-3.78192 -0.022,-0.39491 -0.24223,-0.0885 -2.95847,0.5841 -0.93216,0.28011 1.68971,0.002 2.46517,-0.38271 z m -2.10558,7.44581 1.08618,-0.67776 0.68535,-0.74529 -3.02987,0.5719 -2.86873,0.96378 0.19815,0.56275 1.41879,0.16142 2.51013,-0.8368 z m -9.68906,4.8607 2.42889,-0.43661 5.89079,-1.97967 -1.29475,-0.53452 -2.44053,-0.0764 -2.53125,0.59841 -2.66701,0.94017 -2.33949,1.11029 -3.18229,1.98862 1.37318,0.0852 4.76246,-1.69544 z m 5.64133,-10.5125 2.18836,-0.59851 -0.49223,-0.31119 -2.15892,0.20231 -2.86705,0.63676 -0.4311,0.65079 3.76094,-0.58016 z m -1.9493,23.8329 1.94972,-0.73047 0.61108,-0.3396 1.34753,-1.05132 -0.29606,-0.67584 -1.84808,0.3381 -2.487,1.37412 -1.19474,1.2093 1.91755,-0.12429 z m -1.31568,45.04957 2.15973,-1.85968 0.85089,-0.79758 -0.90922,-0.12872 -2.40744,1.01356 -2.26431,1.67992 -4.84369,4.74062 -2.81958,1.80789 0.52175,0.81792 -1.94318,1.06242 -0.13144,0.89561 4.2748,0.0925 2.48346,-0.18088 1.77676,0.73618 -2.27429,1.42708 1.28888,0.10566 3.85803,-2.63122 0.43515,0.38452 -1.6602,2.48391 1.21292,0.57513 1.07067,-0.11342 2.17488,-2.67411 0.19531,-1.87887 0.48783,-1.59725 -1.79032,0.51411 1.76342,-2.19699 -1.70721,-0.91905 -1.37729,0.72801 -1.50584,-0.81885 1.30778,-1.03915 -1.11083,-0.63729 -1.95152,1.00505 2.8341,-2.59701 z m -3.41392,-65.81929 2.37562,-0.98932 -0.46942,-0.23866 -3.17715,0.75297 -3.86888,2.00958 -1.62544,-0.16131 1.40386,-1.24718 -1.15336,-0.70286 -2.79297,0.58231 -7.55988,2.06398 0.60169,0.38288 6.11526,-0.25519 -5.05435,0.95123 -1.71587,0.70735 2.00669,-0.0494 5.51665,-0.93796 4.94764,-0.33411 3.31314,-1.01314 2.50047,-1.03479 -0.96544,-0.0911 -1.9736,0.35165 1.57534,-0.74691 z m -3.13504,5.06133 -3.90891,1.07155 -1.76124,1.46542 -2.0804,-0.27954 -1.5978,0.72209 -0.34598,1.75986 -0.82084,0.88031 0.95098,0.1934 4.01069,-0.89378 4.34834,-2.05292 0.0224,-0.96946 3.48295,-1.06991 1.05495,-0.64202 -2.87865,0.27982 -0.4765,-0.46482 z m 3.1013,-8.02057 -2.41514,0.29613 -1.55304,-0.0281 -6.48763,1.31863 -6.78968,1.55049 0,0 0.16841,0.45425 2.82005,-0.32163 4.81904,-0.89213 1.35927,-0.10124 3.03763,-0.7153 5.04109,-1.56114 z m -10.51232,8.95867 0.15997,-0.48791 -1.9153,0.0886 -1.16764,0.31048 -1.57687,1.56578 4.49984,-1.4769 z m -0.95078,64.52943 0.25178,-0.54917 -1.49403,-1.24779 -2.39748,-0.74694 -0.90145,0.25046 1.16787,1.40902 2.27815,0.93801 1.09516,-0.0536 z m -3.55337,-46.02245 -0.89367,-0.2062 -3.71333,2.33056 -2.87909,2.02573 -3.13911,1.28352 2.63673,-0.2498 -1.32851,1.52632 4.12627,-1.35063 3.40802,-1.38019 -0.49073,1.16688 1.90791,0.6261 2.49348,-0.81905 -0.17835,-0.85916 -1.49193,0.2015 1.36577,-1.22725 -0.90374,-0.79996 -0.68004,-0.87667 -0.0743,-0.66747 -1.36359,0.39245 1.19824,-1.11668 z m -9.5652,-17.84134 -0.24494,-0.43108 -6.91941,1.36418 -3.16953,0.90116 -5.32671,1.71481 0.95939,0.60851 2.21103,-0.0324 -5.3894,0.92942 -1.24046,0.86247 1.90622,0.0472 3.44738,-0.18666 1.55011,0.5489 -2.75445,0.41029 -1.79019,-0.10606 -3.10669,0.40348 -1.518,0.25237 -2.28891,1.88957 1.87999,-0.26828 0.65448,0.65496 -1.51601,1.14079 3.13841,-0.22918 4.51955,-0.36286 4.39591,-0.8177 2.00577,-0.14604 1.31525,0.64984 1.99956,0.37961 2.13746,-0.88438 0.79166,-0.92118 2.76624,-0.19206 2.13649,-1.04549 -0.41152,-1.11663 -0.0284,-1.15818 2.98749,-1.63216 4.00025,-2.21894 0.59184,-0.90665 -0.45756,-0.3575 -1.90819,0.32724 -4.34767,2.3149 -2.7813,0.95021 3.94112,-2.23962 0.52435,-0.73779 -4.19593,1.15166 0.87286,-1.1388 -4.57548,0.68108 3.23798,-1.05305 z m 8.40745,26.90504 0.1608,-0.54221 -0.65337,-0.0578 -1.57735,0.79368 -0.28901,0.18313 -0.42059,0.79278 0.53715,0.2264 2.24237,-1.39597 z m -3.73373,44.68221 0.0278,-1.47986 -1.37017,0.93893 7.9e-4,1.02115 2.17407,1.29791 0.94584,-0.19963 1.77442,-1.25242 -2.13787,0.0833 -1.41483,-0.40933 z m 1.68814,-62.2656 0.71436,-0.91645 0.37265,-0.45327 -0.0966,-0.4281 -0.29206,-0.67164 -2.92006,1.0283 -2.65092,0.73992 0.0684,1.07918 1.67945,-0.26331 0.73108,0.73086 2.39373,-0.84549 z m -0.90146,16.12636 0.63715,-0.50908 -2.35402,-0.0249 -2.75107,1.21367 -0.46374,0.71482 1.17319,0.0611 3.75849,-1.45559 z m -23.55189,-21.49499 2.44929,-1.00497 5.63295,-1.59491 7.20824,-1.57983 3.04777,-0.56156 1.04124,-0.93039 0.46978,-0.63563 -2.84847,-0.1215 -0.50974,-0.45247 -5.14558,0.34024 -2.55854,1.34598 -5.10653,1.46339 -5.29264,1.64832 -3.09023,0.96674 0.0902,1.21744 -1.75352,1.01839 6.3658,-1.11924 z m -104.92543,45.04069 -1.44222,0.91785 -1.42393,1.26951 -0.22199,0.90234 -1.07822,1.33798 -0.54837,1.33448 0.82876,0.006 1.37029,-2.3432 5.22276,-3.28097 -2.28716,0.2301 -0.41992,-0.37376 z m -0.76369,16.65616 0.97869,-1.65854 -0.7456,-1.23478 0.60195,-1.4153 0.4988,-1.02538 -1.63962,-0.31413 -0.76507,-0.44952 -1.44572,-0.6454 -1.04048,0.6852 -1.16208,1.61546 1.57737,0.53574 -0.62758,0.84992 0.71421,1.04629 -0.58072,1.06399 2.05655,1.36528 1.5793,-0.41883 z m 575.80212,97.2295 -0.0146,-1.98549 0.695,-1.51118 -1.06584,-1.30919 -1.60296,-0.0813 -2.66323,0.96118 -0.83177,1.55573 1.0323,2.95773 2.59425,1.06724 1.85681,-1.65468 z m -519.55788,-13.99122 -2.20315,-1.15953 -2.11266,-0.0384 -2.26152,-0.24266 -0.76801,0.37372 -2.14622,0.32565 -1.5832,0.66354 -1.45334,0.75739 -0.95537,1.22991 -1.74513,1.05401 1.06862,0.32363 1.45409,-0.37328 0.63297,-0.83251 1.13892,-0.0476 2.47148,-1.77112 2.60573,0.17435 -1.2654,0.85141 0.7548,0.66507 3.38948,0.52868 0.61606,0.71589 2.28669,0.91577 1.57406,-0.13302 0.13154,1.94686 0.68882,0.98791 1.70303,0.22886 0.89187,0.88971 -2.30402,1.91278 4.00458,-0.33417 1.82371,0.27141 1.88481,-0.17037 1.92378,-0.43541 0.5137,-0.8031 -1.72989,-1.40207 -1.97916,-0.14101 0.43843,-0.96352 -1.4503,-0.69753 -0.90946,0.047 -1.29523,-1.5414 -1.73194,-2.1136 -0.73855,-0.80096 -2.64059,0.385 -0.72403,-1.24729 z m 241.01648,-104.00659 -0.83629,-1.4191 -2.77951,0.93732 0.4248,1.17796 2.30908,1.6102 0.88192,-2.30638 z m -223.15416,120.1785 -0.0586,0.99056 0.60325,0.54825 1.57545,-2.3597 1.0119,-0.49426 0.25086,0.83532 1.10127,-0.21223 0.62308,-0.62798 0.87372,0.16384 1.294,-0.14436 1.1636,0.74892 1.29971,-1.40129 -1.09817,-1.26187 -1.19814,-0.12419 0.30142,-1.02417 -1.51735,0.0685 -0.23865,-1.21821 -0.74166,0.0862 -1.43131,-0.88336 -2.13601,-0.0159 -0.4731,0.58491 -2.25726,-0.5389 -1.63769,-0.15158 -0.83318,0.94759 1.61135,0.53548 -0.30949,1.31228 0.93719,1.4897 -1.153,0.76613 -2.02084,-0.27623 -2.43225,-0.47781 -0.48157,1.10948 1.25117,1.07306 1.4251,-0.64385 1.63124,0.249 1.351,-0.23885 1.71291,0.58545 z m 694.95996,121.66392 2.15929,-0.8505 0.77003,-1.6875 -2.11697,1.0786 -0.96615,0.1899 -1.71229,0.7091 -0.2472,1.288 2.11329,-0.7276 z m -3.62667,1.8593 -0.96129,0.5688 -1.05107,-0.4266 -1.64202,1.1847 -0.48636,1.5151 1.30471,0.4259 1.95011,-0.4732 1.354,-1.7995 -0.46808,-0.9952 z m -992.530199,-2.8944 -0.411379,-1.6629 -0.502432,0.16 0.770029,1.6875 0.143782,-0.1846 z M 494.82023,57.48189 l -2.2926,0.23184 -1.49791,-0.2181 -1.62872,2.24309 -0.90926,2.88553 0.89133,1.43421 -0.0588,2.72964 1.15391,-1.34214 0.61098,0.78132 -0.79737,1.27152 0.43715,0.77258 2.42889,0.50333 0.0293,0.0403 1.2981,1.76838 -0.35577,1.67561 -0.004,-3.1e-4 -3.04917,-0.26163 -0.48624,1.89907 1.06933,1.56965 -2.23642,0.90642 0.53635,1.16709 3.2856,0.48979 0.0166,0.002 -1.92453,0.63595 -3.2926,3.10787 1.11635,0.59372 1.56808,-1.13456 1.97804,0.33684 1.464,-1.38877 0.9841,0.58291 3.66048,-0.81394 2.86116,0.0274 1.90185,-1.5454 -0.86392,-1.52028 1.06049,-0.85889 0.22295,-1.86595 -2.52334,-0.55383 -0.59351,-1.14569 -1.25431,-3.28265 -1.38211,-0.46008 -1.72567,-3.35944 -0.15035,-0.29745 -2.04212,-0.18041 1.84457,-2.52299 0.5617,-2.27468 -2.106,-0.0145 -1.97733,0.38115 2.17029,-2.99594 z m -5.78303,11.46581 -2.03818,-1.76597 -1.69074,0.11748 -1.63972,1.33381 -2.98699,2.24886 0.78272,2.94267 -1.99561,3.04855 2.94555,0.44348 3.86384,-1.73034 1.74607,-2.59939 -0.20492,-2.06521 1.21798,-1.97394 z m 70.75984,57.88837 -0.26843,1.3807 3.15555,0.6344 0.053,0.53726 3.58219,-0.27684 0.1651,-0.95985 -1.30818,0.39027 -0.0259,-0.56592 -1.9015,-0.23069 -1.92487,0.18517 -1.52697,-1.0945 z M 481.56618,0.70201 476.299,0.5 l -2.70193,0.15457 -1.92302,0.60062 -2.39913,-0.0738 -4.33346,0.99362 -1.44838,0.7295 0.30576,0.9379 -0.72526,-0.5684 -0.87886,-0.13666 -0.65273,-0.64183 -3.98227,0.94828 0.22499,-0.539 -2.45844,0.0153 -3.05309,0.27124 -2.9724,0.45849 -1.45737,0.79417 -1.66431,0.19147 -5.88028,1.2668 -2.43718,0.73778 1.07422,0.67333 -1.7831,0.69039 -5.47852,0.92426 -5.77771,0.93935 -1.7513,0.76827 0.72938,0.81647 3.59678,0.52482 -2.371,0.10709 -4.06669,0.64077 -0.44649,1.29679 0.15872,0.66438 3.06142,-0.15375 3.19739,-0.0843 2.19206,0.15228 1.28482,1.2334 -1.27883,0.89305 0.39274,0.83608 -1.50399,2.31979 -0.85381,1.53992 -0.18459,0.83855 -3.93526,2.12505 0.50774,0.57164 1.72648,-0.32465 0.38642,0.79164 0.89464,1.48154 -2.24706,-0.62252 -1.33978,0.0337 -1.87162,1.24836 -1.56471,1.61067 1.02253,0.78047 1.65534,-0.34133 1.14167,-0.3554 2.47199,-0.84259 -2.06821,1.8653 -1.52364,1.00834 -3.10797,0.90252 -4.17251,2.86916 0.26235,0.87534 -2.19479,1.84449 0.28422,2.33695 -1.62535,2.30285 -0.45259,1.68718 0.60244,3.2589 -0.61026,2.59368 0.77387,1.46945 3.61322,0.0138 1.36233,2.20499 2.68828,-0.16532 2.44814,-2.63236 2.09878,-2.2067 0.53677,-2.06562 4.09836,-2.09488 1.90031,-1.70335 1.14332,-1.80263 2.405,-1.57672 2.71247,-0.59218 2.53393,-0.62029 1.17795,-0.10392 4.45621,-1.75763 3.65561,-2.61413 2.11623,-0.94381 1.68842,-0.0104 4.87587,-0.84131 4.96513,-1.9029 4.82141,-2.07329 -1.9237,-0.12889 -3.73228,-0.10022 2.26499,-1.23524 0.31507,-1.57751 1.06125,1.33399 0.67038,0.90287 2.7256,-0.45207 0.28302,-1.87263 -1.13303,-1.40297 -1.52645,-0.56932 0.99732,-0.60646 2.17997,0.93881 0.45442,-1.00974 -0.88521,-1.51944 1.79998,-0.007 1.97444,-0.34434 0.77466,-0.78056 -1.0295,-0.8927 2.83293,-0.15678 -0.70513,-1.8594 1.37281,-0.19786 0.59836,-1.79698 -1.5064,-1.10192 2.18279,-0.65095 1.76356,-0.0846 -0.61632,-1.32489 1.20518,-2.20288 1.52054,-1.25093 1.89989,-1.37514 -2.07257,-0.0893 3.10917,-0.32065 0.74209,-0.42356 4.18273,-1.28762 -0.12603,-0.7565 -2.26136,-0.33845 -4.44125,0.68071 -2.67003,0.66277 1.76255,-1.03247 -0.14443,-0.62448 -2.0433,0.53252 -1.8291,-0.59918 -3.03697,0.19062 -0.0277,-0.30812 4.41891,-0.1676 3.06034,-0.0753 1.97997,-0.65247 -3.22284,-1.30675 z m 400.78911,252.43834 -0.42352,-1.3053 -4.55365,-1.44238 -1.47152,1.14472 -3.8513,0.85086 1.16389,1.73772 2.52309,0.6485 1.04691,2.0906 4.16528,0.01 0.19395,0.9315 -2.02584,-0.068 -3.13171,1.2644 2.06643,1.7244 -0.1,1.525 0.54291,1.2868 1.11639,-0.3094 0.97052,-1.7054 4.00293,3.2426 2.31596,0.2933 5.19773,2.97 1.0015,2.9427 0.19249,3.809 -1.93629,0.972 -1.6824,2.8477 3.60233,-0.1076 0.87143,-0.9967 2.74999,0.7037 1.97879,2.8699 2.89291,0.1457 1.46412,0.5844 2.45973,-1.2014 0.12727,-2.5794 1.93316,-1.1552 2.56923,-0.9982 3.42461,1.5304 0.88539,3.0607 1.20417,1.9218 1.6989,2.2283 2.72547,0.5253 2.32852,0.3921 0.47416,0.9046 1.92492,-0.2435 0.55665,-1.0087 -2.65529,-1.469 0.99434,-0.6588 -2.04832,-0.5935 0.44275,-1.548 -1.642,0.1161 -1.11336,-3.709 -2.1272,-2.2963 -0.25595,-2.3337 2.66549,-0.3771 -0.42294,-1.8584 -4.44812,-2.1665 -0.19416,-2.066 -1.40033,-1.7636 -1.79542,-1.7977 -5.09964,-2.0084 -4.78153,-2.4188 -3.01853,-0.6709 -2.05122,-1.2562 -2.38533,-1.2242 -2.53034,0 -3.35404,2.1193 -2.59618,3.7238 -2.81132,-2.1012 -0.56691,-5.67922 z m 0.31033,17.76492 0.21223,-1.6712 -0.52758,-1.0257 -0.73058,1.1851 -0.65776,1.2597 -0.0764,2.6374 1.78006,-2.3853 z m -11.05094,-10.9463 -3.07034,-1.0237 -3.52179,0.1457 -0.79151,1.9299 1.95911,0.1237 1.62103,-0.2318 2.35573,0.2937 2.29561,1.4465 -0.84784,-2.684 z m -4.78652,-14.84143 -0.30425,-1.43437 -1.69001,-0.30805 -0.27537,-1.91755 -0.89489,1.27786 -0.49528,2.80589 0.87796,4.48979 1.12354,2.22465 0.80397,-0.42144 -1.15414,-1.85421 0.43095,-2.1372 1.47048,0.34394 0.10704,-3.06931 z m -4.46004,16.12373 -0.63305,-1.1575 -2.88759,0.1684 0.45547,1.5096 1.91908,0.6444 1.14609,-1.1649 z m -5.37901,-17.13325 -0.51963,-0.78462 -2.75172,2.55024 -3.27116,0.14719 -3.5976,-0.48731 -2.24556,-1.03703 -2.37503,2.60861 -0.58748,1.44785 -1.48858,5.29432 -0.49399,2.7881 -1.27885,2.2994 0.74631,2.4046 1.19411,0.026 0.1944,3.3863 -1.10398,3.2284 1.11583,1.0291 1.85242,-0.509 0.32818,-5.018 0.0233,-4.0923 1.9519,-1.0672 -0.40747,3.4207 1.9015,2.0577 -0.47864,1.3545 0.62186,0.9709 2.90609,-1.3581 -1.63404,2.8717 0.98744,1.233 1.62158,-1.0308 0.24154,-2.3038 -2.24423,-4.0499 0.59503,-1.2055 -2.47947,-4.4996 2.54863,-1.3612 1.28297,-2.0577 1.23067,0.51018 0.2596,-1.61749 -5.32607,1.19516 -1.57164,1.59075 -2.49261,-3.12314 0.41174,-2.65848 2.48434,-0.50567 4.74269,-0.17533 2.74426,0.68681 2.13533,-0.67537 2.226,-3.48387 z m -5.6481,40.53035 2.32874,-2.6085 2.54336,-1.0036 3.20831,-1.5304 1.19777,-0.9476 -1.0007,-0.4337 -0.95468,0.437 -1.99219,0.1184 -2.56305,0.7861 -0.4709,0.8249 -3.03365,1.3884 -1.60169,2.131 -0.48041,1.187 0.2564,0.4189 2.56269,-0.7679 z m -3.09258,-7.1504 -2.73383,1.2817 -1.92451,0.2663 -1.60909,-1.0486 -2.35791,0.7272 -0.19279,1.2784 3.68811,0.4309 4.40955,-0.9925 0.72047,-1.9434 z m -7.46238,7.498 0.34534,-0.9424 -0.79399,-1.0608 -1.29666,-1.0641 -2.75148,0.687 3.29857,2.4468 1.19822,-0.067 z m -6.69553,-7.4929 -0.94256,1.237 -1.55465,0.027 -1.28648,2.0133 1.51425,0.028 2.03299,-0.4693 3.3797,-0.7021 -0.47125,-1.487 -1.79071,0.2858 -0.88129,-0.933 z m -25.67729,-4.6143 -0.25098,-1.2461 -1.14807,-0.2671 -2.15105,-1.3695 -3.42303,-0.207 -2.2906,3.348 2.56508,0.2574 0.31668,1.5058 4.98502,1.4414 1.2334,-0.4377 2.0336,0.3467 3.10019,1.3366 2.55994,0.628 2.89769,0.2591 2.57353,-0.095 2.89916,1.409 3.4272,-1.3325 -3.17493,-2.0794 -4.16189,-0.6381 -0.74643,-2.2696 -5.06667,-1.6844 -0.78758,1.4439 -5.39026,-0.3492 z m -7.62263,-3.2424 0.558,-5.4247 0.97389,-4.365 -1.28559,-2.222 -2.07731,-0.3105 -0.92705,-1.9596 -0.42658,-2.44961 -1.021,-0.09 -1.61453,-1.21965 1.15464,-2.86774 -2.17651,-1.60448 -1.69212,-2.94082 -2.45662,-2.4055 -2.89477,-0.0551 -2.84739,-3.774 -1.64309,-1.46022 -2.33939,-2.37927 -2.75595,-3.43032 -4.44877,-0.67742 -1.83912,-0.14133 0.38518,1.78506 3.21421,3.86586 2.24506,1.96566 1.6153,3.00369 2.63685,2.21103 1.10847,2.74146 0.86414,3.01961 2.4899,2.92745 2.06306,4.91634 1.31467,2.6317 2.011,2.8586 1.08693,2.1269 3.43904,2.8662 2.13635,2.931 3.1491,-0.073 z m -323.44013,-232.748 -2.60008,-0.1774 -2.98543,1.33787 -1.8115,-0.71106 -2.89126,1.37181 -1.92116,-1.70747 -2.56448,0.37101 -1.72693,1.64253 3.21303,0.59016 -0.18977,0.74769 -3.1079,0.49521 3.19042,1.255 -2.04445,1.1411 4.48559,0.82133 2.14224,0.38319 1.60132,-0.47447 5.31876,-1.7732 2.59367,-1.95454 -1.45971,-1.73125 0.75764,-1.62751 z m 61.18481,81.79952 -1.83327,0.27982 -2.4704,0.34932 -2.89672,-0.29323 -0.21022,1.64868 3.58289,1.6368 1.28953,0.34791 2.00871,1.21588 0.36187,-1.65948 -0.46646,-0.9978 0.63407,-2.5279 z m -16.06656,-9.47214 -1.1313,0.97854 -1.32503,-0.15801 0.65372,1.80854 0.31971,3.83538 0.9706,0.84652 0.92742,-1.06535 1.11772,0.2012 0.0558,-4.20322 -1.58864,-2.2436 z m -234.32358,77.511 1.95461,-0.0642 -0.25479,-0.94346 -1.28386,-0.82701 -1.78582,-0.30862 -0.60145,-0.11597 -1.21229,0.23985 -0.50733,0.78696 1.30165,1.25534 1.42702,0.55321 0.96226,-0.57609 z m 561.02477,-64.53847 -3.05559,-3.31717 -0.77749,-3.21967 -2.443,-2.58005 -5.73048,-4.387 -1.94273,0.57863 0.99222,1.99592 3.89305,3.57043 2.12645,3.90722 -0.26495,1.24648 -0.7873,3.22018 -2.98363,-1.5398 2.23821,5.75011 -3.21662,-0.66386 -4.20798,0.96841 -0.10569,2.22516 -1.25782,1.68719 0.19256,2.05674 -1.67451,1.01015 2.6366,2.25318 2.29237,0.95758 1.40971,2.97468 2.11265,1.28619 0.73217,-1.39239 -2.23165,-5.59986 -4.35081,-2.41166 2.92251,-0.0627 1.82901,-1.5396 3.83321,-0.71999 1.9957,2.44241 2.66501,1.25876 0.70927,-3.73295 4.27395,-0.19997 1.96114,-1.5327 -0.62132,-2.28953 -1.83094,-1.62328 -1.33328,-2.5772 z m -7.79963,9.71509 -2.40041,-0.70469 0.009,1.3738 -1.72762,-0.37836 0.0562,1.9536 1.11882,1.55647 2.34327,0.93625 -0.72591,-1.92181 0.73855,-0.76216 1.82868,1.05223 -0.058,-1.98367 -1.18257,-1.12166 z m -7.72379,-31.95423 -2.96735,-1.04063 -6.43172,-3.20779 2.11427,2.39922 4.13773,4.28802 -2.30576,0.17298 1.41516,2.40212 3.57289,3.11989 2.59482,-0.0473 -2.33091,-3.43236 5.99837,2.1417 -1.3046,-3.10873 2.5209,-0.85357 -4.50444,-3.48564 -0.12356,1.31312 -2.3858,-0.66101 z m -102.75533,127.39555 1.11058,-0.99738 0.10788,-3.64681 -1.73422,-3.64301 -1.58802,-2.46195 -2.17919,-1.94123 -0.65241,5.67418 0.96154,5.03198 1.56671,2.786 2.40713,-0.80178 z m -90.34556,69.19168 -0.4591,-2.2961 -0.60055,-1.4802 -0.8399,-1.4945 -1.07365,1.5573 -0.25323,2.0917 -1.786,2.4149 -1.14534,-0.4175 0.22806,1.4841 -1.02314,1.7457 -2.52698,2.135 -1.8069,1.9733 -1.22644,0.046 -1.09962,0.6261 -1.62946,0.7091 -1.39827,0.1274 -0.62192,2.1921 -1.19459,1.9312 -0.16912,3.1757 0.24239,2.1697 0.42047,1.627 -0.54796,2.1858 -1.67574,2.5972 -0.17269,1.1388 -1.34151,0.5921 -0.85292,2.4621 -0.12882,2.4524 0.51745,2.7115 -0.32555,3.0081 0.43056,1.7866 1.90841,1.2096 1.38033,0.8626 2.60035,-1.4292 2.32794,-0.801 1.93725,-3.9308 1.86302,-4.7305 2.73922,-6.4745 2.06962,-4.7288 1.65736,-4.0118 0.56911,-2.9214 0.86899,-0.7976 0.43532,-1.465 -0.21125,-2.5626 0.64613,-1.0248 0.69719,2.0285 0.61754,-1.0181 0.47757,-1.6607 -0.53248,-1.6212 0.009,-4.1758 z M 526.51916,11.0151 l -1.81286,-0.44977 -0.89931,-0.74171 -1.87387,0.39476 1.00754,0.63459 -0.42501,0.51649 2.16276,0.46782 1.84075,-0.82218 z m -3.0358,-4.91314 -2.63617,-0.45883 -0.49413,0.55054 -1.61809,-0.44256 -2.45485,0.51429 1.50708,0.8563 1.36458,0.033 0.49663,0.52073 3.04025,0.31754 2.61443,-0.22446 0.53571,-1.01503 -2.35544,-0.65147 z m -5.7206,1.31783 -1.54868,-0.656 -1.32536,0.065 -0.0417,0.64288 -1.33807,0.0263 -0.79573,-0.65871 -2.30394,0.67385 1.25342,1.50126 2.57162,1.65947 1.80029,0.57791 -0.69008,0.71617 2.84796,1.24538 1.30382,-0.0802 -0.26894,-1.68518 0.73992,-0.3786 -0.20537,-1.45701 2.05912,-0.76624 -4.05825,-1.42638 z m 418.06074,365.39698 2.33667,-2.8912 -1.08717,-0.8438 0.45824,-1.8111 -1.19289,0.256 -1.28483,2.3066 -1.03358,2.872 -0.24303,1.3359 -0.68495,0.5695 -1.37804,2.1605 -2.22971,2.0783 -3.25848,2.4653 -3.06588,1.114 -1.43535,1.1544 1.07302,1.2723 -1.35158,1.7455 -4.63613,2.5992 0.41573,0.454 -0.65094,0.826 3.44907,-1.2554 3.92193,-2.1629 3.03245,-1.7077 1.08223,-0.5908 1.44299,-1.3685 1.81558,-0.9688 1.77703,0.066 2.96963,-1.864 3.91937,-2.8457 -0.82161,-0.3715 -2.81514,1.2254 -1.36439,-0.2568 -0.78791,-1.0472 2.34913,-2.4375 -0.15623,-0.8811 -2.47753,2.2039 1.9123,-3.4004 z m -21.47155,15.2387 1.12437,-1.3445 -3.47701,1.4615 -2.5485,1.7605 -1.90378,0.7959 -4.03879,2.3379 -3.51776,1.6217 -4.14904,1.6311 -3.24101,1.182 -2.27594,0.5834 -7.02026,3.0491 -4.37531,2.2787 -1.19814,1.1239 2.15396,0.2148 0.0168,1.0064 1.98042,0.065 2.38923,-0.871 3.74642,-1.3667 5.69177,-3.11 3.40819,-2.0228 3.57455,-1.1683 1.84416,-0.038 1.16174,-1.4955 2.86807,-1.254 4.56582,-2.305 2.76007,-1.454 1.68762,-1.3246 0.98586,-1.3329 -3.30073,1.2788 1.08718,-1.3029 z m -56.45513,-168.4751 -0.41239,-1.28618 -0.54481,-1.76032 -2.5925,-1.65693 0.6545,2.70226 -1.98095,0.0929 -0.20074,1.56039 -1.9977,0.95784 -1.25338,-1.58331 -1.3304,1.31775 -1.63142,0.98407 -0.69153,2.95029 0.60388,1.02506 1.83397,-1.95379 1.35159,0.13478 0.68042,-1.45144 2.03203,1.65543 -0.63901,1.66507 1.1106,2.53582 3.56685,2.03427 0.63035,-1.6428 -1.2233,-2.58175 1.08483,-1.77639 1.50218,3.57089 0.54893,-3.20556 -0.45069,-1.96389 -0.65131,-2.3245 z m -5.06606,-13.08176 -1.08263,-1.2985 -2.71212,-0.0767 2.33696,2.65864 0.33079,1.31932 -1.7158,-0.27809 0.89235,2.11092 0.8853,0.18115 0.61055,2.45438 1.18691,-0.78208 -1.13071,-2.153 -0.3094,-1.17031 2.37023,0.92512 -1.66243,-3.89085 z m -2.86254,6.56808 -0.41317,-3.32789 -1.3962,3.36767 -0.0185,-2.34909 -1.51002,0.20494 0.12138,2.16588 -0.52126,0.97795 -0.40824,0.93487 2.16433,2.41516 0.70787,-1.03482 0.4814,-2.20712 0.7924,-1.14755 z m -15.21235,-28.52984 -1.66947,-0.004 0.16166,3.12183 1.41479,5.40371 -1.46215,-1.13805 1.08285,3.31282 0.84261,1.50887 1.92206,1.99267 0.0203,-1.25007 1.05231,0.80213 -0.63457,0.88261 0.23469,1.43504 1.58892,0.76753 2.40786,-0.51339 2.31164,2.08025 0.39685,-1.27583 1.49536,1.82628 2.60103,1.70753 -0.10057,-1.60321 -1.12327,-0.83532 -0.2226,-1.89154 -4.00569,-1.92473 -1.12412,0.41068 -1.58321,-0.38235 -1.38986,-2.76181 -0.37871,-2.79164 1.28784,-1.14641 -0.18161,-2.87135 -1.76692,-2.47259 -0.0423,-1.42848 -0.55749,-0.87474 -0.53632,0.89654 -2.04189,-0.98298 z m 8.12802,22.90533 0.79781,1.65829 0.17259,1.77875 0.42351,1.62122 1.58055,-1.04781 0.9973,-1.48095 -0.2591,-1.45609 -1.78782,0.005 -1.92484,-1.07854 z m -1.95862,-4.0992 -1.28298,-1.25182 -2.42947,-0.1276 2.07477,2.64928 1.60498,1.73652 0.0327,-3.00638 z m -5.79874,13.08497 1.05873,-2.40074 1.49891,-1.92207 -1.07454,-2.84373 -0.78526,3.46492 -1.25192,2.4155 -1.67361,2.1581 -1.00217,2.44556 3.22986,-3.31754 z m 107.22006,56.59912 0.55287,-0.9809 -1.15898,-1.1891 -1.06577,-2.2218 -0.75746,-0.7952 -0.17734,-1.0435 -0.43376,0.3391 0.2626,2.6706 0.91431,2.2256 1.01253,1.3454 0.851,-0.3502 z m -6.69024,-8.1332 -0.16059,-1.8244 -0.98033,-1.1231 -1.01941,-1.474 -1.13364,-0.8426 -0.91572,-0.7723 -1.47661,-0.983 -0.84177,0.8478 1.98595,1.0319 1.50572,1.4976 1.19074,1.15 0.53575,1.3559 0.32026,2.0709 0.98965,-0.9347 z m -3.68527,3.4303 1.21099,-2.1406 0.26453,-1.9458 -0.5174,-0.5761 -1.70879,0.067 0.0993,2.0673 -1.72815,1.2507 -0.94739,1.1998 -1.65357,0.2678 -0.0511,-1.8616 -0.41756,0.087 -0.63044,1.6811 -1.58795,0.2743 -2.48118,-0.5118 -0.37268,1.0847 1.4901,0.9776 2.18261,1.0179 1.50611,0 1.57281,-0.82 1.66907,-0.8519 0.57718,-0.9831 1.52351,-0.2883 z M 807.8069,80.03257 l -5.10229,-2.97236 -4.15674,-2.8754 -4.92636,-2.79313 -3.46691,-1.90296 -0.27899,0.4031 2.86124,1.33377 0.11055,1.33004 5.64545,3.98048 5.33154,2.89142 5.33143,3.96903 2.48607,2.26187 4.42767,3.2504 3.42981,2.95613 3.51937,2.56238 -1.38499,-2.36393 3.95873,1.84014 -2.55294,-2.13236 -6.08235,-3.10857 -4.30966,-4.34424 4.55464,0.98855 -9.39527,-5.27436 z m -54.23312,-53.74067 -5.66995,-1.58638 1.69355,0.9653 2.85171,0.74037 1.12469,-0.11929 z m -67.27742,-5.43761 -1.99637,-0.58508 -4.49346,-0.84552 -0.93435,0.20399 1.51191,0.87584 0.58661,0.1178 3.4123,0.2486 1.91336,-0.0156 z m -4.85469,-4.09654 -5.00798,-0.55962 -3.3555,-0.3212 2.16002,0.69036 5.2047,0.84822 2.62222,0.19328 -1.62346,-0.85104 z m -10.35918,-1.02046 -8.17877,-1.11731 -3.35298,-0.0918 -0.15169,0.39322 4.27843,1.45631 6.96926,1.39875 0.34632,-0.51051 4.67264,0.0597 -4.58321,-1.58835 z m -62.68168,-5.62212 -2.14069,-0.79736 -5.93721,-1.09786 -1.12011,-0.12463 -0.12579,0.21533 5.6964,2.57033 3.6274,-0.76581 z m -8.55949,-1.12333 -5.0527,-1.72 -7.93491,-1.7927 -4.74693,-0.90894 -0.5026,0.40555 1.61485,1.24791 2.35148,0.36681 4.70925,1.35191 3.72147,0.73247 4.37524,0.55944 1.46485,-0.24245 z m -18.15483,17.56124 -4.79916,-1.90494 -2.4442,-1.90032 -0.54763,-2.16241 -0.90209,-2.15139 0.87347,-2.05464 2.03955,-1.01268 2.35441,-1.04089 -0.37539,-0.6467 -2.23102,-0.81336 -1.68062,0.26668 -0.61726,0.76591 -3.15049,0.38942 -1.80879,1.35042 -1.10791,1.12525 1.61628,0.97835 -0.58416,1.91955 1.493,0.27027 -0.35217,1.90407 1.40986,1.23449 -0.84979,0.48932 1.50085,1.24054 3.15412,0.62036 1.46157,1.03402 4.94135,0.30409 0.60622,-0.20541 z m -35.44194,-20.70866 -0.1396,-0.27909 -1.99598,-0.39852 -0.31653,0.29955 0.21203,0.43815 -0.9889,-0.49283 -1.30166,0.022 -1.21313,0.3327 2.07326,0.0557 0.38039,0.57604 1.67274,0.44166 0.5961,-0.30831 -0.36084,-0.30436 0.58471,-0.14011 0.79741,-0.24263 z m -296.48492,20.30553 3.40048,-0.55806 1.23875,-0.31714 0.36987,-0.66104 -1.14585,-0.005 -0.52671,0.0966 -5.66995,1.58638 2.33341,-0.14195 z m -41.13094,12.46074 -6.0677,2.01157 3.97922,-1.08127 2.08848,-0.9303 z m 0.98275,-0.3258 3.26871,-0.53379 -3.04946,0.93743 -1.63025,0.88699 2.78714,-0.32932 0.50174,0.41534 -2.67727,1.10598 0.18955,0.74714 -1.10822,0.89701 1.37365,0.0771 2.08061,-0.5361 6.73467,-2.49757 3.39403,-0.26258 4.61399,-1.10185 3.44747,-2.34311 -3.19655,-0.37042 -4.87249,1.81269 0.71053,-0.62279 4.65196,-1.54612 3.36932,-2.44337 2.21151,-1.85159 -22.80064,7.55889 z m 618.96284,131.57384 -0.8581,-5.44711 -0.51653,-2.04292 -1.71441,-1.00719 -0.90961,2.56156 -0.0471,3.33227 1.42319,2.52166 2.65853,2.87795 -0.0359,-2.79622 z M 208.18911,43.70539 l -2.59235,0.97991 -0.16988,0.22975 1.89567,-0.15144 -0.52668,0.4737 -0.0907,0.56945 2.67225,-0.55418 0.84401,-0.28458 -0.84058,-0.34859 0.34334,-0.6867 -1.74094,0.26723 0.20582,-0.49455 z m -4.76402,17.99227 4.10156,-1.3257 0.78419,-0.86244 -0.9204,-0.18732 -1.81594,0.42284 -3.59488,0.98858 -2.11936,1.30845 -0.32199,0.72341 3.88682,-1.06782 z m -8.50744,-7.70304 2.08708,-1.0399 -0.91374,-0.24485 -2.83035,0.4628 -0.49937,0.73662 0.10905,0.50823 2.04733,-0.4229 z m -122.044714,128.54931 1.129755,-0.53693 1.417911,-0.73362 0.156061,-0.19035 -0.123614,-1.20269 -0.221682,-0.4594 -0.341166,-0.29744 -0.762809,-0.57924 -0.176603,-0.0634 -0.317098,0.3197 -0.14256,0.67438 -0.748274,0.55945 -0.321309,0.38189 -0.142906,1.25009 -0.528965,0.96042 0.455349,0.49232 0.66791,-0.57513 z m 1.128868,-5.35389 0.437426,-0.41111 -0.444827,-0.52507 -0.802061,-0.32519 -0.419157,0.29333 -0.08599,0.21375 0.170925,0.27828 0.103457,0.72108 1.04023,-0.24507 z m -0.913924,-1.82353 -1.264747,-0.14615 -0.422882,0.41658 1.409849,0.0993 0.27778,-0.36976 z m -2.17668,-0.4969 -0.181988,-1.12949 -0.108733,-0.2194 -0.982282,0.47081 0.03228,0.13641 -0.06813,0.77493 0.884823,0.12017 0.171782,0.044 0.252247,-0.19743 z m -3.383605,-2.25366 0.386682,-0.79467 -0.585051,-0.0724 -0.601468,0.33417 -0.27934,0.24859 0.570127,0.62226 0.50905,-0.33792 z m 898.737075,128.70342 -0.92738,-1.066 -0.97132,2.6557 0.0147,0.9561 0.65468,-0.1877 0.5711,0.4342 0.65822,-2.7923 z m -0.11456,5.3045 -0.90736,-1.9868 -0.48825,0.9277 0.28521,1.5137 1.1104,-0.4546 z M 523.0953,106.25144 l -0.59237,-2.68269 -1.42951,1.19297 -0.39982,1.16354 0.68398,2.11346 1.12232,0.64111 0.6154,-2.42839 z m -12.2219,7.29571 0.0634,-0.17687 -0.0186,-0.0627 -0.22648,-0.36563 -0.40564,-0.13562 -0.49503,0.0383 -0.017,0.0843 -10e-4,0.19084 0.0607,0.056 0.24365,0.0409 0.75338,0.3672 0.0433,-0.0368 z m -2.77079,0.1645 0.0291,-0.14774 0.0761,-0.0788 0.0166,-0.0904 -0.0777,-0.0568 -0.007,-0.0524 0.0773,-0.11709 -0.0944,-0.0299 -0.60873,0.19758 -0.28603,0.16988 -0.98673,0.7687 -9.5e-4,0.13052 0.0605,0.10086 0.15668,0.0316 0.10153,0.16743 0.18214,-0.16805 0.13955,-0.0813 0.16192,0.0448 0.11192,0.1015 0.0638,0.31844 0.0743,0.0803 0.24436,0.0532 0.42364,0.21379 0.19625,-0.10193 0.21501,-0.17004 0.11055,-0.28802 0.12942,-0.25026 0.15434,-0.22748 0.10882,-0.2246 -0.036,-0.20185 -0.1294,-0.0511 -0.13053,-0.0299 -0.24218,0.0955 -0.23394,-0.10618 z m -4.08199,2.77648 0.11969,-0.0441 0.31075,-0.33937 -0.0271,-0.15504 -0.11967,-0.10734 -0.52363,0.12837 -0.11074,0.15848 -0.005,0.15774 -0.10582,0.0267 -0.0783,0.22204 0.0825,0.0794 0.37119,0.0694 0.0864,-0.1962 z m 0.37072,0.78817 -0.004,-0.094 -0.23415,-0.0334 -0.14949,-0.17997 -0.0458,0.0913 -0.0363,0.0902 0.0105,0.12928 0.24222,0 0.16205,0.0389 0.0551,-0.0423 z" />
</svg>
