<?xml version="1.0" encoding="UTF-8" standalone="no"?>
<svg
   xmlns:dc="http://purl.org/dc/elements/1.1/"
   xmlns:cc="http://creativecommons.org/ns#"
   xmlns:rdf="http://www.w3.org/1999/02/22-rdf-syntax-ns#"
   xmlns:svg="http://www.w3.org/2000/svg"
   xmlns="http://www.w3.org/2000/svg"
   xmlns:sodipodi="http://sodipodi.sourceforge.net/DTD/sodipodi-0.dtd"
   xmlns:inkscape="http://www.inkscape.org/namespaces/inkscape"
   enable_background="new 0 0 1000 2001"
   height="519.24548"
   pretty_print="True"
   style="fill:#483737;stroke:#ffffff;stroke-linejoin:round"
   version="1.1"
   viewBox="0 0 1001 519.24548"
   width="1001"
   id="svg2"
   inkscape:version="0.48.4 r9939"
   sodipodi:docname="natural_earth_joined.svg"><sodipodi:namedview
   pagecolor="#ffffff"
   bordercolor="#666666"
   borderopacity="1"
   objecttolerance="10"
   gridtolerance="10"
   guidetolerance="10"
   inkscape:pageopacity="0"
   inkscape:pageshadow="2"
   inkscape:window-width="640"
   inkscape:window-height="480"
   id="namedview19"
   showgrid="false"
   inkscape:zoom="0.11794103"
   inkscape:cx="500.5"
   inkscape:cy="258.62273"
   inkscape:window-x="0"
   inkscape:window-y="0"
   inkscape:window-maximized="0"
   inkscape:current-layer="svg2" />

utf-8<defs
   id="defs4">
utf-8utf-8<style
   type="text/css"
   id="style6">path { fill-rule: evenodd; }utf-8utf-8</style>

utf-8
utf-8utf-8
utf-8</defs>

utf-8<metadata
   id="metadata8">
utf-8utf-8<views
   id="views10">
utf-8utf-8utf-8<view
   h="2001.0"
   padding="0"
   w="1000"
   id="view12">
utf-8utf-8utf-8utf-8<proj
   flip="auto"
   id="naturalearth"
   lon0="65.3146660706" />

utf-8utf-8utf-8utf-8<bbox
   h="504.2"
   w="972.9"
   x="13.55"
   y="21.83"
   id="bbox15" />

utf-8utf-8utf-8</view>

utf-8utf-8</views>

utf-8<rdf:RDF>
  <cc:Work
     rdf:about="">
    <dc:format>image/svg+xml</dc:format>
    <dc:type
       rdf:resource="http://purl.org/dc/dcmitype/StillImage" />
  </cc:Work>
</rdf:RDF>
</metadata>

utf-8<path
   inkscape:connector-curvature="0"
   id="---"
   data-name="---"
   data-id="---"
   d="m 602.48786,113.89407 1.08897,0.9881 1.47461,0.37113 1.66627,1.18992 0.98479,2.20562 -0.17116,1.38328 -2.79256,1.69159 -2.26379,-0.28885 -2.93728,0.49991 -3.87258,-1.25377 -4.79544,-2.28221 -4.24276,0.0688 -2.88513,0.91492 -2.85417,2.10144 -4.96468,-0.42908 -0.82831,2.46507 -3.9733,0.12984 -2.58729,3.10748 1.79042,1.55452 -1.04375,2.5322 2.06991,1.80822 1.83927,3.24474 2.86562,-0.0588 2.70464,1.73868 1.78451,-0.38742 0.47708,-1.35463 2.84557,0.10965 2.30722,1.75257 3.96105,-0.36709 1.60663,-1.87922 2.28262,0.7511 1.57278,-0.27803 -0.85843,1.22641 1.134,1.48121 -0.4984,1.34478 0.51619,2.50139 -0.0377,0.11399 -1.07963,2.30491 -0.68008,2.66577 -0.0702,0.0339 -0.30031,0.82875 -0.30552,2.47028 -0.56544,1.53069 0.19987,0.18575 -0.68155,1.07912 0,1e-5 -1.24637,0.82513 -2.10751,-0.18544 -2.21538,-0.77393 -0.53268,1.07028 -0.86614,-1.62468 -1.93904,-0.41354 -2.34036,0.27008 -1.02924,0.93855 -1.98615,1.03777 -1.28062,-0.5101 -2.73331,-0.9679 -2.63995,-0.86606 -3.55944,0.0541 -0.72467,-1.08147 -2.68299,-0.38417 -0.8871,-0.55864 -0.99599,-0.0138 -1.00328,-1.46392 -3.65003,-0.6699 -1.81014,0.44655 -1.83766,1.53432 -0.7529,1.5929 0.7565,2.50906 -1.2099,1.50669 -1.26893,0.8499 -2.93999,-1.62875 -3.84375,-1.37124 -2.43338,-0.63571 -1.37401,-2.91087 -3.6015,-1.46319 -2.2487,-0.54627 -1.10986,0.28167 -3.16886,-1.12681 -1.02912,-0.51175 -0.71816,-1.5558 -1.37642,-0.0556 -0.55764,-1.78314 1.69388,-1.64418 0.25534,-2.82903 -0.94029,-0.81176 -0.032,-1.51073 1.2602,-1.59956 -0.209,-0.62688 -2.18791,1.20119 0.0234,-1.6511 -1.84869,-0.39142 -2.82053,1.31668 -1.79155,0.19816 -1.08631,-0.75925 -2.80448,0.0252 -2.45026,1.28626 -1.33346,-0.48476 -4.34361,0.26481 -4.45199,0.58188 -2.53154,0.99383 -1.66309,1.34771 -2.85375,0.56789 -2.54899,1.78596 -1.14859,-0.035 -2.73129,-0.7216 -2.516,0.22599 -1.57153,-1.38716 -1.94232,-0.0157 -0.86756,2.00711 -1.83651,3.38608 -1.99887,1.35266 -2.70441,1.49505 -1.77027,2.21157 -0.40233,1.72428 -1.08954,2.81785 0.57018,4.07579 -2.31738,2.73566 -1.37603,0.87296 -2.19026,2.23934 -2.52714,0.36188 -1.39921,1.25817 -0.051,0.0459 -1.82146,3.34548 -1.84795,1.19382 -1.04618,2.02453 -0.11877,1.74452 -0.78101,1.90974 -0.93616,0.5275 -1.58701,2.08117 -1.01338,2.30919 0.14308,1.10739 -0.9497,1.70486 -1.08235,0.89136 -0.17534,1.51575 -0.15913,1.38183 1.41178,1.41209 0.67044,1.55392 -0.31846,1.62995 0.2919,1.62439 0.22672,3.22832 -0.41541,3.07451 -0.81059,1.60965 0.20192,1.75876 -0.69588,1.67569 -1.39518,2.29041 -1.23699,0.61956 1.36529,1.16121 1.10046,2.53882 -0.38245,1.44612 0.41477,2.49859 0.16615,0.69724 0.84038,0.69155 -0.024,0.49592 0.62743,0.91861 1.17336,0.21544 1.47324,1.36205 0.8059,0.53374 0.40002,0.71754 0.29995,1.43916 0.69091,0.64731 0.71177,0.42192 1.07488,1.2747 1.2092,1.92666 0.32163,2.40627 0.4806,1.18914 1.4475,1.74368 2.01044,1.31111 0.75432,0.24143 1.87758,2.09968 2.3829,1.7804 2.54167,2.47648 2.89018,1.55075 0.73592,-0.0287 0.54254,0.0855 2.78433,-1.19332 1.95212,-0.93899 3.32776,-0.56796 1.80032,-0.0376 1.95844,0.63613 1.27772,-0.0331 2.50269,0.92403 2.53124,-0.94378 1.56163,-1.11575 4.40113,-1.90468 2.25934,-0.69415 2.31909,-0.37963 2.47666,0.002 2.10877,-0.0402 1.99201,2.14388 0.9296,2.3551 1.50795,2.03503 2.24725,0.0711 1.07842,-0.72904 1.06649,0.17106 2.91264,-1.1708 -0.0294,0.89912 0.72084,0.46653 0.57509,1.45771 1.28346,0.55172 1.10386,2.15059 -0.40512,2.56817 -0.96099,3.65247 0.52691,0.49045 -0.56547,2.41153 -0.68318,2.36782 -0.6143,1.03988 -0.0909,1.08056 1.70312,3.35988 1.85222,2.6841 2.87799,3.2833 2.29235,3.4458 0.73796,2.4467 0.38736,1.0092 -0.27071,0.6325 1.39201,2.0589 0.55799,2.1788 0.8238,3.145 -0.87298,1.2908 -0.15673,0.6767 0.66843,1.9537 0.72415,1.9759 0.82311,1.1645 0.12395,1.8465 -0.32434,2.4138 -0.91495,1.4502 -1.6314,2.1327 -0.6828,1.336 -0.9449,2.9395 -0.16497,1.3999 -1.00371,2.9868 -0.42858,2.8699 0.22801,2.0526 0.12595,2.5054 2.19217,3.1891 0.56187,2.0515 1.36465,3.9216 1.35643,2.7019 1.03532,1.3482 0.30458,1.7845 -0.0461,3.9152 0.76615,5.0416 0.59632,2.3726 0.49384,3.189 0.97705,2.3925 1.91799,2.475 1.76318,4.2568 0.004,0.01 1.2291,2.7751 1.61195,3.0656 -0.054,2.5134 -0.89121,0.5964 0.7554,2.1937 -0.11464,1.9188 0.30645,0.8793 0.14961,-0.4536 1.06367,1.4605 0.89284,0.06 1.0544,1.1661 1.20923,-0.079 1.71163,-1.2361 2.29681,-0.5179 2.82126,-1.2915 1.08887,0.1713 1.63674,-0.3991 2.83591,0.6305 1.35998,-0.6227 1.57952,0.4836 0.4104,-0.9084 1.36848,-0.1704 2.87863,-1.2698 2.12862,-1.4895 2.03858,-1.9643 3.29157,-3.3792 1.70663,-2.3471 0.88125,-1.6833 1.27023,-1.6643 0.56354,-0.4737 1.96965,-1.6545 0.81308,-1.4789 0.52515,-2.722 0.85343,-2.3847 0.35757,-1.724 -0.67972,-0.2204 -0.13692,-1.3797 1.27891,-1.2108 3.40423,-1.7723 2.33076,-1.1065 1.22469,-1.1646 0.50203,-1.3619 -0.60671,-0.5603 0.54738,-1.5204 0.28954,-3.2089 -0.4959,0.1635 0.0282,-0.9786 -0.4235,-1.9181 -1.15874,-2.4762 0.36593,-2.3307 1.17979,-0.7556 2.0578,-2.3218 1.09687,-0.5964 3.31792,-3.5056 3.20938,-1.5847 2.60238,-1.241 1.87456,-2.024 1.19448,-2.2661 0.9447,-2.3309 -0.41388,-1.5975 0.11533,-5.0951 -0.23136,-2.8597 0.2338,-3.2458 -0.40264,-1.4604 0,0 -10e-6,0 -1.00341,-0.7123 -1.0603,-3.211 -0.92169,-2.041 0.2239,-1.5551 -0.13635,-0.9893 0.8179,-1.9656 -0.0655,-0.8462 -1.77165,-1.1857 -0.13082,-1.8442 1.36245,-4.0091 1.14633,-1.0743 0.57588,-2.1646 0.91695,-1.3125 0.42018,-2.2919 1.05545,-0.2384 0.70418,-1.3571 1.97683,-1.2988 0.63885,-0.7701 0.65515,-1.71511 3.08111,-3.93987 2.61503,-2.4739 4.18723,-3.22954 2.7892,-2.63315 3.24538,-4.43743 2.33081,-3.64291 2.29503,-4.769 1.61044,-4.15672 1.22231,-3.63669 0.64937,-3.52035 0.54028,-1.17645 -0.0871,-1.71226 0.16891,-1.89511 -0.10734,-0.90098 -1.0585,0.009 -1.26821,1.11552 -1.46591,0.32802 -1.26563,0.48408 -0.89012,0.0642 0,-10e-6 -1.58623,0.11449 -0.97236,0.59432 -1.37713,0.21449 -2.4191,1.01211 -3.02849,0.38608 -2.60481,0.83331 -1.38917,-0.0109 -1.31292,-1.36367 -0.60015,-1.34724 -0.93303,-0.60057 -1.23552,-0.89148 1.56161,-0.77975 0.0305,-1.35317 -0.70441,-1.00873 -1.41515,-0.98045 -0.92263,-1.12004 -1.59718,-1.88147 -1.63595,-1.85901 -3.94847,-3.08126 -1.60325,-1.58932 -0.92024,-2.9959 -1.81564,-3.78005 -1.58304,-1.20703 -1.09953,-0.80434 -1.24162,-3.90103 -0.60709,-3.36538 0.56639,-0.59317 -1.09589,-3.20887 -0.52682,-0.67011 -3.39261,-2.93683 -0.23363,-2.12708 0.50391,-0.57065 -2.70916,-3.6243 -1.00961,-1.84954 -1.13613,-1.78069 -2.43617,-5.10234 -1.91657,-3.29373 -1.3923,-3.45716 0.25279,-0.297 2.29978,4.69636 1.33571,1.46216 0.98515,1.05707 0.58679,-0.572 0.59963,-1.7059 0.37671,-2.47503 0.64541,-1.31678 -0.34125,-0.85102 0.34126,0.85103 0.13089,0.47432 -0.22302,1.30749 -0.0242,1.1469 -0.27318,1.79828 1.3463,-0.0158 1.56516,2.25013 1.86559,2.64153 1.25469,2.43653 0.85258,0.73119 0.8892,1.69764 -0.0926,0.74019 1.03987,1.87593 1.52794,0.67701 1.37895,1.27734 1.83909,3.62848 0.0211,1.93926 0.47531,2.27303 2.03318,3.11611 1.26527,0.53685 2.05639,2.24912 0.94918,2.66254 1.6436,2.73895 1.50145,1.17011 0.2909,1.30247 0.89388,0.98318 0.43991,1.39293 0.20263,1.42339 -0.30249,0.62932 0.36496,1.49081 -0.5483,0.15865 0.86896,1.34102 0.66561,2.41223 0.50216,0.9621 0.004,1.78222 0.81149,1.90418 1.93905,0.16574 0.87155,-0.44232 1.38446,0.0719 0.39339,-0.82909 0.71989,-0.23786 0.56813,-0.86077 0.6951,-0.18524 2.33221,-0.16932 1.74477,-0.62768 1.557,-1.35324 0.84636,0.19286 1.21684,-0.17972 2.36231,-2.3011 4.35359,-1.52169 2.68004,-1.37738 -0.009,-1.11275 0.43833,-1.44896 1.94613,-0.87684 1.26862,-0.1848 1.77415,-1.10117 1.5535,0.3078 1.27293,-0.90648 -0.11675,-1.319 1.01899,-0.82235 1.72494,0.0263 0.5765,-0.68927 0.13579,-1.59123 1.62133,-1.22094 1.27294,0.0107 0.22487,-0.40142 -0.5386,-2.18431 0.28731,-1.65716 0.49837,-0.77946 1.2672,0.17148 0.80524,-2.23983 1.05195,-1.04599 0.34336,-0.9179 0.79069,-1.94955 -0.0749,-0.72986 -1.02806,-0.41441 -0.86007,-1.08675 -1.44783,-1.8761 -1.68914,-0.59655 -2.05564,-0.42769 -1.66133,-1.18852 -1.48086,-2.23631 -0.67467,-2.58655 0.28372,-0.59403 0.0917,-1.35309 -0.37128,-0.28436 -0.65615,1.11515 -1.48145,2.01843 -1.79559,2.09975 -1.62953,2.21356 -1.66196,-0.0968 -2.27011,-0.0855 -2.08713,0.51594 -0.19339,-0.89776 -0.46998,0.15902 -0.64841,-1.25023 0.38877,-1.92621 -0.25633,-1.9172 -0.9371,-1.02666 -0.70443,0.35238 -0.54799,1.71795 0.4312,2.38276 -0.49171,-0.80269 -0.47599,-1.07375 -0.8809,-0.91772 -0.46222,-1.10015 0.15296,-1.09083 -0.3132,-1.35159 -2.00354,-1.37691 -0.59349,-1.15057 -1.41751,-0.74828 -1.38088,-2.82533 -1.15762,-2.47132 0.15214,-0.74758 -0.73509,-1.44595 1.6169,0.16067 0.84718,-1.27872 1.84472,1.08563 1.38146,-0.53092 2.53255,4.3681 2.18166,3.10862 2.72045,0.93317 3.04003,2.51745 3.45027,1.08655 2.54637,-1.58533 2.01211,-0.58529 1.37303,0.58047 1.66064,4.0163 3.12658,0.42555 3.06531,0.75256 5.25519,0.98865 3.78247,-0.45899 4.42294,-0.061 4.93921,-0.61596 2.4518,2.49354 1.13184,2.35303 2.11572,0.82772 3.57866,2.77774 0.97593,1.28391 -1.17071,1.18255 4.07917,3.96372 1.98859,0.392 3.76467,-1.95729 0.91376,3.06213 0.45528,3.95884 1.28718,4.18028 1.78635,6.32653 2.93946,4.48083 0.65654,2.03713 1.01986,4.07739 1.71529,3.13091 1.08704,1.54116 1.28911,3.28566 1.56403,4.56026 2.8118,3.03987 1.07751,-0.93567 0.82455,-2.21416 2.50089,-0.92308 -0.91609,-1.07326 1.11737,-2.48401 1.43734,-0.15771 -0.38524,-5.53509 0.9327,-3.09649 -0.38247,-2.70444 -0.97689,-4.24207 0.58335,-2.48874 1.27993,-0.17226 2.37783,-1.16916 1.29635,-0.80437 -0.16342,-1.50152 2.5138,-2.13729 1.83056,-2.06011 2.59567,-3.844 3.66735,-2.1998 1.1917,-1.93426 -0.52725,-2.45989 3.2853,-0.67902 1.87689,0.0412 0.2035,-1.1943 1.11015,0.29286 0.83554,0.35675 0.30364,-0.59543 1.27654,0.6633 0.56466,-1.82022 -0.47569,-1.34873 2.54881,0.13088 1.46804,1.9044 0.78285,1.57457 0.42739,1.66588 1.05526,1.70458 2.36542,2.66659 1.67762,0.41894 -0.16222,1.17801 2.70766,3.76678 0.99358,3.05752 -0.44184,4.04534 1.81456,0.76518 1.59411,0.29063 2.86663,-2.32636 1.61416,-1.637 1.55244,2.70316 1.00548,4.12172 1.34652,3.90312 1.31088,1.68907 0.12713,3.55071 1.11857,1.92803 -0.64072,2.49557 0.46658,2.41778 -0.59133,3.12299 -0.16733,2.03131 0.64647,1.80832 0.33805,-1.91346 1.45739,1.54406 1.60136,1.83758 0.57097,1.61184 1.17491,1.24878 0.68796,1.37953 -0.19976,2.36903 1.08467,1.77388 0.48204,2.69416 1.68766,2.17577 0.36954,1.65724 3.37483,2.58164 2.69132,2.40942 1.99128,-0.21699 0.0404,-1.09965 -1.15499,-2.87633 -1.00968,-0.89634 -0.25431,-1.9252 -0.30626,-1.11847 0.25075,-1.47987 -0.24292,-2.19078 -1.27123,-2.17828 -1.75175,-1.96443 -0.66076,-0.30403 -1.54308,-1.68893 -1.72032,-0.37832 -1.67265,-1.86398 -0.68163,-2.81761 -1.34548,-2.97161 -1.83186,-0.10223 -0.37214,-2.35707 0.67095,-2.87711 1.06657,-4.75923 -0.15065,-3.58515 2.45331,-0.0191 -0.13821,2.56104 2.38079,-0.0608 2.65875,1.49644 1.73763,3.36573 1.29025,1.69758 2.38317,0.47561 2.23434,1.85016 -0.60888,2.20612 1.17376,2.08797 3.2592,-3.03166 2.05175,-2.71501 3.00879,-2.09728 2.11827,-2.14557 -0.25532,-5.73372 -2.03806,-6.03568 -2.04926,-2.62033 -2.80792,-2.01613 -3.23355,-4.2664 -2.66537,-3.4432 0.22812,-2.26748 1.75718,-3.08844 3.1571,-2.79761 1.19771,-0.53257 3.89151,1.04711 -0.41148,1.26497 1.16107,2.37285 1.49311,-0.19149 0.28984,-3.45317 2.81276,-0.50153 3.51287,-1.6383 1.21644,-1.62584 1.17116,1.06189 1.37217,-1.45364 3.0109,-0.37562 3.20026,-2.75426 3.05521,-3.02105 1.56784,-3.90772 1.07544,-4.29876 0.99742,-3.54621 1.42818,-0.29433 -0.0681,-2.59651 -0.38629,-2.66854 -1.89519,-1.01691 -1.18396,-1.74727 1.4036,-0.89458 -0.73811,-2.43307 -2.64343,-2.51546 -2.63373,-2.99996 -2.1596,-3.21836 -3.4875,-1.79715 0.53348,-2.28791 1.95969,-1.63892 0.56347,-1.76294 3.36953,-0.91157 -1.09685,-1.7091 -1.72948,-0.0869 -2.82686,-1.26933 -2.02912,2.32859 -2.44136,-0.95275 -0.65468,-1.46351 -2.34949,-0.535 -2.24096,-2.20243 0.72181,-1.51866 2.48869,-0.15634 0.73504,-2.0994 1.96759,-2.25798 1.75577,-1.14516 2.10661,1.70001 -1.1195,2.18344 1.07501,1.26611 -0.7599,1.50768 2.43732,-0.88832 1.27413,-1.51986 3.2233,-0.94482 1.60242,0.87149 1.66951,0.35424 0.39972,0.53143 0.0887,1.75505 0.48324,0.59479 -0.4552,0.38223 -0.11992,1.43376 0.91706,0.51989 0.80046,0.29856 0.34334,0.61341 0.65683,-0.27067 0.0637,-0.61258 1.52708,0.62041 2.93572,2.79143 -1.73162,0.54976 2.4995,3.39967 0.44647,2.45141 0.96187,1.78072 2.28447,-0.28008 1.60514,-1.35618 2.15508,-0.62809 0.29363,-1.79656 -1.53552,-3.7625 -1.52531,-2.11493 -3.88889,-3.84508 -2.09409,-1.4279 -1.266,-0.52896 0.1468,-0.35931 -0.53835,-1.40761 0.73703,-0.87268 1.48566,-0.53412 0.53908,-0.95972 0.1965,-0.57238 1.00384,-0.717 -1.1948,-2.32788 0.24029,-1.1015 0.5833,-1.09537 1.07028,0.19399 4e-5,3e-5 -10e-6,-2e-5 10e-6,0 -10e-6,-1e-5 -0.12927,-1.07557 2.24739,-2.36253 2.40364,1.56869 1.59332,-0.0419 2.43135,-1.89326 0.64194,-1.90333 1.39589,-3.71005 1.30343,-3.7283 -0.45569,-2.20757 0.96104,-4.59971 -2.10962,-5.05014 -2.28121,-3.74795 -0.23054,-3.11891 -1.94025,-2.64317 -5.91224,-3.39946 -2.77529,-0.1998 -0.4409,1.54046 -2.81948,-0.68609 -2.54562,-1.92797 -4.04336,-0.38719 3.7887,-7.19062 2.90555,-5.86925 6.88346,-0.88445 7.51662,0.51271 1.59523,-1.46367 3.98733,0.45166 1.7208,2.15838 3.32209,-0.308 4.4844,-0.78007 -3.55329,-1.82659 1.1439,-4.95258 4.91277,-0.99589 5.35607,3.61861 2.64693,-3.23332 -1.05012,-2.40812 2.49394,-0.24571 2.31832,4.12734 -1.82249,2.35502 -1.08212,3.05463 -0.71541,3.76996 -3.03522,0.67323 1.11318,1.40962 -0.42508,1.8063 2.41165,4.22422 6.84936,6.84163 4.54359,4.5381 2.52701,2.15487 1.30565,-2.91217 -1.74804,-3.15994 2.99819,-0.75599 -2.05152,-3.52551 2.86477,-1.5698 -2.11895,-1.31944 -1.19652,-2.55373 2.09912,-0.1128 -3.64306,-4.41134 -3.28256,-0.67534 -1.19522,-1.21548 0.0888,-2.89693 -1.12133,-1.95783 3.47639,0.4074 0.98164,-1.27163 2.12542,1.10236 3.68552,-2.32625 5.34476,2.04933 -0.51043,-1.34728 1.47027,-1.813 1.3269,-2.06537 1.65745,-0.34155 3.94728,-2.19901 4.91223,0.63499 -0.27406,-0.77199 -1.6064,-1.20278 -1.91615,-0.78111 -4.02647,-2.37945 -3.75299,-1.52903 3.11852,0.21013 1.38862,-1.25812 -0.002,-0.0154 -13.62039,-11.20004 -4.5075,-1.20313 -7.76078,-1.3102 -4.20431,0.1639 -7.69967,-0.76524 0.53911,1.21689 3.84431,1.75969 -1.5958,0.88451 -6.63189,-2.45179 -3.66847,0.30422 -4.64441,-0.53909 -3.68209,0.0719 -2.19903,0.56266 -3.50936,-0.78203 -2.03883,-1.99881 -3.0556,-1.12375 -4.69347,-0.44627 -7.89006,0.51272 -7.78703,-2.06479 -3.55897,-1.59192 -20.57238,-1.72924 -1.49437,1.1521 4.10625,2.48839 -3.80195,-0.37745 -0.76427,0.75548 -4.87941,-0.82869 -2.8315,0.72404 -4.5431,-1.21047 0.74135,2.83242 -4.3507,-1.09982 -4.65304,-2.11797 0.13791,-1.11935 -2.62681,-1.70021 -4.69328,-1.38934 -3.25052,0.0144 -4.78575,-0.45956 1.8174,2.01314 -8.96255,-0.39367 -1.64226,-1.23276 -6.95421,-0.43343 -2.89179,0.41462 -0.29061,0.68384 -2.54398,-1.68509 -1.39367,0.49517 -3.59725,-0.65996 -2.84252,-0.36527 0.84339,-0.7718 4.0045,-1.43485 1.51155,-0.75986 -0.77369,-1.32588 -2.5235,-0.94803 -5.67098,-1.22457 -5.81471,-0.0334 -1.23316,0.60937 -1.70219,-1.23442 -4.82468,-0.3802 2.09511,-0.60908 -4.13118,-0.79566 -3.67307,1.00867 -0.91923,1.05571 0.41361,1.07984 -3.68129,-0.0417 -3.33426,1.3413 -2.09934,-0.56829 -5.03891,0.23461 -0.1147,0.69465 -5.01826,0.33938 -2.9552,1.26937 -2.26061,0.0707 -1.1374,1.69664 2.59361,1.36229 -4.18507,0.34285 -4.98193,-0.11549 -3.2097,0.52913 1.96185,2.81633 3.20648,2.22696 -4.76216,-1.52673 -4.21386,0.14135 -2.86522,1.05245 2.04968,1.94239 -2.51485,-0.49351 -0.64234,-2.59049 -1.93424,-1.47535 -0.99266,0.0602 1.55667,1.89452 -2.7235,1.81008 3.91782,2.20745 -0.2258,2.74347 1.3111,1.53105 2.45406,0.22718 -0.046,1.82902 2.0721,1.58375 -1.19463,1.33259 0.11924,1.39055 -2.04292,0.72392 -0.37656,1.01749 -2.70135,-0.41678 2.30753,-3.99171 -0.0178,-1.859 -3.22988,-1.6973 -1.46655,-3.75932 -1.68204,-1.89829 -1.75974,-0.86111 0.79409,-2.17741 -1.2509,-1.48159 -5.83338,-0.69897 -1.25097,0.52098 -0.0905,2.42394 -2.62751,2.43986 0.48713,0.86805 2.15867,2.12759 -0.0775,1.30095 2.69407,0.26997 0.34368,0.5845 2.8771,1.46187 -0.74197,1.45378 -9.23889,-3.16509 -3.33735,-0.86008 -6.63721,-0.83028 -0.71467,0.90555 2.91635,1.59653 -1.66161,1.83556 -3.1343,-1.67007 -2.71601,1.14832 -3.99371,0.0767 -1.17808,0.94984 -2.77873,-0.29026 1.48304,-1.68357 -1.66531,-0.13617 -6.63233,2.38397 -4.06347,1.33014 0.0522,1.78986 -3.17259,0.61082 -2.01248,-0.96377 -0.49798,-1.56041 2.62915,-0.34516 -1.7321,-1.56113 -6.28463,-0.89073 2.10425,1.72463 -0.55573,1.67179 2.31233,1.67491 -0.69914,1.94148 -2.33017,-0.98871 -2.06301,-0.16281 -4.35905,2.77654 2.03392,2.09065 -1.68799,0.69831 -5.79858,-1.78108 -1.14908,1.08277 1.6305,1.23248 0.0428,1.3956 -1.91816,-0.74791 -3.06556,-0.87646 -0.80733,-2.92182 -0.44313,-1.31865 -4.03725,-2.07145 1.52021,-0.35815 10.27875,2.14778 3.38083,-0.75503 2.02099,-1.48279 -0.66381,-1.86891 -2.02888,-1.32805 -8.94636,-3.13797 -6.00283,-0.65621 -3.87918,-1.66017 -1.97379,0.95408 -7e-5,3e-5 -2.69798,-1.72062 2.5565,-0.72958 -7.00123,-1.98531 -3.65383,0.53904 -3.84577,-0.11979 -2.815,2.25247 -3.49837,-0.14494 -4.46879,1.19708 -5.42555,3.4578 -3.37803,2.0938 -4.73527,5.43483 -3.74623,3.97683 -4.22405,2.97324 -5.82623,2.43617 -2.01943,1.87772 0.93336,6.80754 0.93057,3.20949 3.27904,1.52859 3.0804,-0.70422 4.39775,-3.45817 1.66753,1.83152 2.04978,4.25038 2.20299,3.43878 0.95208,2.88366 2.74583,-0.14084 1.15654,-2.41973 2.89662,0.29404 1.08963,-2.84447 0.41914,-5.05391 2.34582,-0.69978 1.76354,-3.35877 -2.37432,-1.64161 -1.84455,-2.07588 1.20813,-4.11693 4.04189,-2.49323 3.24389,-2.31565 -0.58784,-1.75399 1.85561,-1.9879 3.65507,-0.80361 3.27432,1.3421 0.4295,1.20544 -1.37922,0.59746 -4.61575,3.11497 -1.77835,1.81602 -0.84814,1.69158 1.44515,2.63499 -0.13267,2.89781 2.34654,0.97013 1.54737,1.61738 3.65998,-0.62612 3.87834,-1.08606 4.12571,-0.23528 10e-6,0 2.64583,1.40815 -2.34698,1.64277 -4e-5,-4e-5 -2.37164,0.0881 -2.58267,-0.49206 -2.84748,0.43234 -2.81041,0.83061 0.4325,1.71772 1.6225,1.06595 0.80522,-0.37834 -0.0267,1.77378 -0.13833,2.31855 -1.8804,0.0589 -2.1518,-2.2568 -2.08212,1.03018 -0.93177,1.9004 0.18053,2.28813 0.7956,2.56766 -3.18494,0.99417 -0.40548,1.35206 -2.31421,-0.0389 -0.25334,-0.74967 -2.43479,-0.51864 -2.91966,1.03938 -3.62753,1.42383 -1.5753,0.90615 -1.20512,-0.98262 -2.78992,-1.21578 -1.29425,0.843 -2.40708,0.57878 -0.0362,-1.09333 -2.45904,-0.71665 -0.10395,-1.18634 -0.72517,-1.49074 1.59057,-2.19637 0.72403,0.33073 0.51099,-1.14761 -1.30704,-0.4597 -0.33095,-0.84931 0.64007,-0.98595 -0.0119,-1.5525 -1.83707,0.85087 -0.78008,0.83369 -2.06228,0.18775 -0.6333,0.90875 -0.35638,0.81915 0.20804,3.11462 1.04204,1.69906 0.18756,1.74196 0.60031,1.15464 -1.56798,1.52226 -0.47452,-0.68139 -2.00532,0.16791 -0.44713,0.65459 -2.00589,-0.0873 -3.26688,1.29599 -2.0299,4.57814 -1.24322,0.85886 -1e-4,-10e-6 -1.95081,0.61736 -2.13471,0.63246 -0.71922,2.57321 -5.74251,2.45781 -2.32255,-1.35311 0.75563,3.57597 -4.15771,-0.81431 -3.22883,0.68847 0.20409,2.31241 3.79376,1.22244 1.82698,1.61084 2.56812,3.35067 -0.51563,6.39331 -1.33053,1.93223 -4.1242,-0.10671 -2.12206,0.1691 -2.70489,-0.55054 -3.42529,0.0204 -3.10344,-0.58133 -3.69015,2.32705 0.99676,1.40098 -0.20701,2.30306 0.077,1.09144 0.47765,1.1636 0.0138,1.37394 -0.60159,1.95194 -0.22544,1.31332 -1.07366,1.18029 -0.27599,2.13018 0.58513,1.23405 1.15986,0.30049 0.1877,2.00412 -0.47319,2.55276 1.36553,-0.35921 1.37321,0.45889 1.07624,-0.84689 2.44022,0.50537 0.70775,1.87782 0.95468,1.10345 1.28531,0.27102 1.02631,-1.23415 1.66503,-1.15297 2.50563,0.0618 3.33838,-0.0498 1.87348,-2.50894 1.98072,-0.64989 0.56976,-2.11854 1.51058,-1.45298 -1.01523,-1.85965 1.00158,-2.64571 1.58864,-1.79975 0.22745,-1.09119 3.30299,-0.68516 2.42026,-2.15708 -0.15849,-1.87869 0.27047,-1.94475 3.70609,-1.04656 5.05724,0.87331 2.26347,-1.82149 1.05221,-0.23613 1.42285,-1.49384 1.15518,-0.43453 2.10786,1.06182 1.28127,0.37429 0.92411,3.18706 1.81878,1.86091 2.44205,2.10581 2.08007,1.46236 1.91865,0.21003 1.18235,1.30335 1.69181,0.58985 0.8381,1.40118 1.09773,0.4047 0.88103,1.63892 1.11879,1.88519 -0.52888,0.69529 -0.4404,1.74682 0.0414,0.99636 1.07752,-0.25113 1.2422,-2.79359 1.07773,-0.19302 0.20969,-1.69775 -1.94777,-1.20517 0.96794,-2.10098 2.28239,0.53428 1.53496,1.51674 0.40979,-1.1634 -0.30772,-0.60645 -2.32631,-1.69236 -1.95613,-0.98069 -2.3786,-1.17123 0.68424,-0.64508 -0.66929,-0.71535 -2.01327,0.02 -2.99785,-2.60518 -1.42671,-2.66713 -2.47173,-1.6219 -0.91385,-1.63716 0.26508,-0.91504 -0.21999,-1.59245 1.99349,-1.137 2.03517,0.46653 -0.54556,0.29055 -0.0871,0.0518 0.005,1.11323 0.80802,1.07462 0.69692,-1.38524 1.65683,0.50592 0.11272,1.0837 1.23939,1.35169 -0.49836,0.24034 2.28694,2.36987 2.39655,0.9584 1.55996,1.16187 2.48994,1.19525 0,0 1.15365,0.64161 0.795,1.05608 0.55608,0.2507 0,10e-6 0.46953,0.51002 -0.27965,1.00536 -0.0632,2.21219 0.33162,1.54651 1.51145,1.09069 0.10162,0.71503 0.45742,0.22754 0.24038,0.92598 1.4634,1.85561 1.1227,1.49693 0.609,2.16845 1.16414,2.60978 2.2555,1.42003 1.74542,-0.0408 -1.2066,-2.8802 1.63978,-0.34243 -0.89861,-1.66294 2.48822,0.8639 -0.18461,-1.84147 -1.36762,-0.94468 -1.56977,-1.50053 0.92526,-0.71295 -1.42204,-1.5262 -0.73393,-1.9405 0.4287,-0.71245 1.50674,1.67249 1.4445,-0.003 1.27253,-0.52948 -1.95024,-1.8249 3.05592,-0.84316 1.37576,0.30654 1.58281,0.0922 0.0273,0.66954 0.95504,1.51209 1.99394,-1.74835 1.00363,-1.0031 3.04736,-0.17878 0.38632,-0.79405 -2.35842,-1.04617 -0.43469,-1.24449 -1.02108,-1.8447 0.68872,-2.30903 1.17757,-1.33542 0.26849,-3.87979 0.80502,0.30072 1.14649,-0.69074 -0.15861,-0.82732 1.66117,-2.36695 0.70741,-1.7597 2.27432,-0.39304 0.33262,1.19069 4.02214,0.80793 0.8318,0.73272 -2.27039,1.06437 -0.36433,0.61447 2.89114,0.93882 -0.35567,1.50897 1.49992,0.65384 3.18631,-1.85864 2.69141,-0.55587 0.32352,-1.14395 -2.54894,0.19228 -1.34774,-0.77286 -0.43722,-1.98987 1.98689,-1.19052 2.32422,-0.1683 1.50504,-1.03175 1.95869,-0.25485 2.16174,-0.51338 0.18356,0.69642 -3.48347,1.30184 1.60806,1.26386 -1.67258,2.67698 -1.76229,0.51239 2.47107,1.8857 3.08173,1.21255 3.66749,2.72107 z m -16.44635,168.64086 0.13734,-0.549 -0.79464,-0.868 -0.33271,-1.7873 -1.68278,-1.7741 -0.92847,-2.3304 0.52063,-1.3718 -0.73605,-1.83 0.55534,-5.2004 0.0123,0.038 1.00249,3.1002 -0.0153,0.1446 -0.14927,1.4049 0.53331,0.4701 -0.11151,1.3861 0.52394,1.2823 -0.66128,1.2467 2.22652,2.2084 0.17783,2.0153 1.34404,3.3266 0,0 0.21745,0.5408 -0.47165,0.1844 -0.59091,-0.6779 -0.95167,-0.2609 0.17503,-0.6985 z m 9.75384,-27.14477 0.68051,1.23298 -0.18337,2.40849 0,2e-5 -1.39159,1.45118 -0.92795,1.47 1.10519,1.1154 -1.60861,0.801 -0.34872,-0.3796 -1.62777,0.1935 -1.25995,0.7305 -0.77487,-1.2532 0.53989,-2.2766 0.0915,-1.95773 -10e-6,-6e-5 -0.14087,-1.25848 1.28853,-1.90042 1.78053,-0.46472 1.19649,-0.77482 1.45824,0.6402 0.12287,0.22236 z m 46.20345,-121.25579 -0.12005,0.76314 -3.95892,0.86364 -3.82869,-0.56269 -2.08795,-1.63707 -2.59461,-0.67935 -1.21507,-2.40331 -0.33381,-1.61274 0.82901,-0.76072 0.25555,-1.13946 0.0171,-2.52404 2.08805,-0.26129 -0.9532,-0.87524 -1.23239,-0.15178 -1.72266,-2.30048 -1.66005,-1.7055 3e-5,-4e-5 -3.48868,-3.80684 -0.14763,-2.17222 -2.88129,-3.05368 1.87998,-3.31161 2.34104,-0.52766 0.76014,-1.89638 2.20385,-0.6695 2.60146,-1.40247 2.30289,0.77818 2.47549,-0.15428 0.89139,1.97429 0.23284,3.12344 -2.31145,-0.47879 -2.04012,0.52064 0.38911,2.34734 -2.53145,-0.30524 0.29536,1.04743 1.56743,0.81396 1.72656,2.89412 3.18352,1.09968 0.71275,1.1256 -0.36581,1.34764 0.29778,0.78911 1.20882,2.09896 -0.19666,-2.37345 1.90538,-0.82531 1.10606,1.85134 2.26344,1.94515 -2.06888,1.038 -2.58956,-0.79641 -0.0599,2.73607 1.75686,0.18955 -0.25679,2.22594 2.23122,1.10131 0.23193,3.40679 0.89059,2.30623 z m -43.88298,158.81016 -0.77011,3.0712 0.29816,3.734 0.0338,0.4345 0.51983,0.1363 0.49973,1.7432 -0.0832,0.4038 -0.9378,-1.2695 -0.51886,0.8153 -0.41744,-0.6991 0.0594,-1.2247 -0.60583,-0.9543 0.0768,-1.4174 -0.74717,-2.399 0.86977,-1.8104 -0.056,-3.927 -0.93039,-2.1035 0.0997,-0.361 0,0 0.17559,-0.6365 1.43305,1.7413 0.1338,3.4215 0.88063,1.2475 -0.0134,0.054 z m -264.18037,132.4669 1.07683,0.1573 -2.22427,-1.8042 -1.8653,-3.2501 0.52943,-1.4708 1.853,-1.2417 0.46885,-3.7025 2.40639,-1.7879 0.0393,-2.8523 -2.57723,-0.6442 -3.13462,-2.3365 0.0496,-2.3994 1.53297,-1.6425 2.38964,-0.01 0.14635,-1.7195 -0.45818,-3.2382 1.55215,-2.0061 2.11514,-1.0026 -1.16517,-1.6795 -1.16158,1.0198 -1.96889,-0.9735 -1.12731,-3.2182 0.79844,-0.8485 2.75664,1.1807 2.54216,-0.4475 1.29372,-1.1413 -0.83907,-1.6371 0.005,-2.4325 -0.95888,-1.9405 2.93138,0.3278 5.09011,-0.6777 3.52984,-1.7469 1.74082,-4.1816 -0.15197,-1.5945 -1.89859,-1.4231 -0.0335,-2.2527 -3.84384,-2.8007 -0.10887,-1.7077 1.923,1.8093 1.78066,-0.1049 2.68465,1.4042 1.37504,-0.3505 2.0623,0.6539 2.70023,-1.8177 0.82962,-2.056 1.4783,-1.8713 0.76416,-3.1142 1.60336,-1.5315 2.00554,-2.5981 2.25606,-5.766 1.67243,-1.8031 0.42898,-1.5988 0.13642,-3.3096 -0.64734,-1.8089 0.13796,-2.4456 1.98065,-3.2479 2.9682,-2.6067 2.97755,-0.9563 1.80168,-1.456 4.20668,-1.2575 2.97951,0.01 0.48982,-1.9611 2.11704,-1.4177 0.22617,-3.3777 2.51234,-4.2672 0.22352,-4.3676 0.80095,-1.2887 0.1744,-2.1529 0.51284,-5.0309 -0.48028,-6.1116 0.67825,-2.3987 0.69479,-0.064 1.95688,-2.8257 1.65164,-3.6835 3.80656,-4.5321 1.3684,-2.1259 0.99311,-5.3818 -0.50437,-1.9691 -1.02337,-4.1433 -1.03303,-1.0263 -2.40329,-0.1305 -2.17704,-0.9385 -3.63465,-3.6446 -4.18192,-2.6921 -4.19764,0.1268 -5.48534,-1.7204 -3.25936,1.0024 0.44543,-1.8005 -1.3846,-1.906 -4.67836,-1.98638 -3.54125,-1.16896 -2.12793,2.13422 -0.11073,-3.25998 -4.97016,-0.51078 -0.87422,-0.98037 2.12149,-2.67743 -0.0634,-2.24518 -1.49947,-0.53694 -1.51233,-5.68856 -0.66611,-1.79927 -0.95964,0.15374 -0.44101,-1.33233 -2.91611,-2.74625 -2.04914,-0.7701 -0.94457,-0.35799 -2.99571,-0.87448 -2.2757,0.23483 -0.31725,0.58652 -3.34591,-0.65168 -1.07607,-1.13281 -1.45547,-1.58755 -1.05459,-0.0771 -0.0232,-1.67584 -1.65823,-2.12069 -1.79371,-1.19744 -1.06666,-0.76742 -1.46331,0.0735 -0.33226,-2.60859 -2.04682,-1.60132 -2.22624,-0.24471 -0.87723,-1.53752 2.426,-0.96208 -3.35384,0.0453 -3.47498,0.19644 -0.0766,0.82025 -1.62354,1.01745 -2.11863,-0.4025 -1.52139,-1.45868 -3.00721,0.33472 -2.50978,-0.0286 -0.0462,-1.07853 -1.70449,-1.81675 -1.9564,-0.0529 -0.85099,-2.28977 -1.04872,1.02809 0.28644,1.53579 -3.56517,1.32439 -0.008,2.46594 0.80205,1.14624 -0.75629,2.35373 -1.2184,0.21142 -0.91882,-2.58358 1.34506,-1.8918 0.139,-1.70355 -0.81629,-1.47853 1.66557,-0.38027 0.13087,-0.76993 0.61724,-1.09719 -0.67235,-0.85732 -0.97467,-0.19966 -1.46257,1.57001 -1.13861,0.72855 -2.3098,1.64526 -2.16882,-0.2719 -0.26768,0.67907 -1.76569,0.0619 -1.70276,1.51172 -0.68579,2.75214 -0.0905,1.0771 -1.17284,0.34657 -2.22678,2.27292 -1.44214,-0.10339 -1.00453,-0.89972 -0.85857,-0.97971 -1.21303,-0.56246 -1.55454,-0.11106 0.12361,-0.32032 -1.53405,-0.19109 -1.01448,0.97316 -1.73967,0.65675 -1.23938,0.82236 -1.39178,0.2353 -0.72336,-0.80005 -0.28006,0.26484 -1.10906,-0.14639 0.0987,-0.68988 -0.93303,-1.168 -1.22386,-1.39009 -0.99261,-1.31081 -0.58179,-1.76985 -0.38899,-0.53519 -0.0634,-0.88053 0.63624,-0.8332 -0.12399,-0.86054 0.37467,-1.3939 0.45313,-0.32017 0.0543,-1.46741 -0.0763,-0.84026 0.21929,-1.43659 0.42062,-1.31202 0.74719,-1.11082 -0.16793,-1.19346 0.21409,-0.72818 0.27075,-0.31304 -0.6407,-0.89737 -0.95928,-0.49973 -0.72659,-0.73142 -0.78284,-0.60991 -0.43326,-0.072 -1.21961,-0.45262 -0.58317,0.28314 -0.73512,0.0764 -0.6405,-0.22158 -0.86649,-0.1689 -0.36638,0.36535 -0.93383,0.36095 -1.29401,0.0852 -1.25822,-0.29442 -0.44928,0.16205 -0.22793,-0.26601 -0.80032,0.0468 -0.67393,0.57366 -0.27441,-0.12748 -0.76819,-0.41659 -0.29454,0.48623 -0.83909,-0.59027 0.68091,-1.13034 0.51365,-0.10389 0.64689,-0.86593 0.51952,-1.64946 -0.13692,-0.3122 0.43508,-1.16817 -0.17897,-0.50505 0.62886,-1.41255 0.16186,-0.88841 -0.52251,-0.015 0.0531,-0.47923 0.58646,-0.0544 0.59122,0.83894 1.03198,-2.54914 0.60749,-1.4125 -0.42962,-0.56913 0.939,-1.99004 1.76478,-1.94347 0.32889,-1.57499 -0.55441,-0.69343 -1.71087,0.27701 -2.41809,-0.11391 -3.02746,0.75855 -1.99733,0.85633 -0.6231,0.95584 -0.63735,2.74627 -0.93324,1.90623 -1.94623,1.33321 -1.81903,0.56034 -2.15319,0.58714 -2.15589,0.32993 -2.55483,0.91283 -0.95115,-1.3665 -2.81112,-0.86672 -0.84157,-1.60868 -0.35771,-1.86463 -1.44105,-2.43373 -0.1262,-2.53609 -0.57724,-1.59502 -0.1594,-1.78459 0.55491,-1.59791 1.03098,-4.385 0.94428,-2.35664 1.64511,-2.87472 -1.08235,0.0982 1.08238,-0.0983 -0.284,-1.11357 0.19918,-1.57222 0.52056,-2.26031 0.95213,-1.47422 1.83159,-1.56433 3.00898,-1.41258 3.01798,-2.42897 2.44637,-0.76544 1.72894,-0.22973 1.78473,0.7583 2.44353,-0.40856 1.62453,1.73142 1.93553,0.10191 1.14902,-0.62155 0.89523,0.48335 0.60796,-0.43074 -0.43054,-0.64727 0.33888,-1.32868 -0.28869,-0.87082 1.22741,-0.51103 2.10145,-0.22579 2.30506,0.36224 3.13016,-0.4117 1.50875,0.81047 0.97896,1.52831 0.44771,0.16372 3.03068,-1.48691 0.9447,0.50269 1.53774,2.74082 0.39761,1.80198 -0.97799,2.17464 0.16264,1.2816 0.79758,2.50615 0.939,2.81682 0.90434,0.75324 0.18543,1.43675 1.27585,0.39707 0.88452,-0.41311 1.01787,-1.99964 0.33799,-1.27401 0.47419,-2.20847 -0.58798,-3.80015 0.25306,-1.41577 -0.75004,-2.31921 -0.3361,-2.80292 -0.003,-2.2751 0.90854,-2.32733 1.68264,-1.9415 1.84836,-1.55885 3.39843,-2.12478 0.62608,-1.09828 1.61732,-1.20221 1.37424,-0.20986 2.17892,-1.91874 2.96139,-0.96974 2.23603,-2.42624 0.39596,-3.26811 -0.002,-1.12944 -0.69912,-0.22563 0.65336,-3.1034 -1.53453,-1.04947 1.59741,0.51069 -0.0308,-2.06626 0.86673,-1.40726 -0.38958,2.70473 1.02271,1.2453 -1.3574,2.21881 0.20723,0.12955 2.11511,-2.60408 1.15381,-1.26615 0.27036,-1.23061 -0.49943,-0.57928 -0.0895,-1.75181 0.64255,0.81325 0.52802,0.16933 -0.0195,0.83582 2.53286,-2.5036 1.16633,-2.33355 -0.72252,-0.14894 1.02509,-0.89966 -0.18204,0.39827 1.64921,-0.006 3.87185,-0.9732 -0.60493,-0.61437 -3.95284,0.6108 2.40038,-0.93873 1.54179,-0.15994 1.16419,-0.16203 2.05372,-0.56518 1.22129,0.063 1.87383,-0.52523 0.44477,-0.92472 -0.5837,-0.71878 -0.0376,1.18107 -1.04663,-0.0809 -0.39662,-1.71454 0.48494,-1.71333 0.62984,-0.72606 1.87298,-1.91466 2.9507,-0.95309 2.91465,-1.11069 3.13121,-1.55697 -0.15182,-1.0522 2.91776,-0.39059 4.0758,-0.10495 -5.1001,2.65484 -0.61318,2.72431 1.87631,0.23667 3.43635,-2.3192 2.84982,-1.30063 6.0909,-1.91009 3.64582,-2.09859 -1.33485,-1.15835 0.41954,-2.31484 -3.44451,3.59041 -4.28748,0.46333 -2.84772,-1.59779 -0.15947,-2.40827 0.17663,-3.4288 2.96107,-2.12907 -1.74079,-1.55047 -3.79776,0.31495 -6.00663,2.63753 -5.2738,4.17789 -2.28787,0.52405 3.77509,-2.93946 4.87972,-4.19538 3.58677,-1.39969 2.76312,-2.25982 2.61463,-0.21768 3.6839,0.0227 5.06918,0.66221 4.30573,-0.51059 3.81126,-2.57836 4.33851,-1.1123 2.05244,-1.09647 2.08771,-1.17227 0.79143,-3.49021 -0.63767,-1.16656 -1.75617,-0.41029 -0.18173,-2.60644 -1.23838,-0.97923 -3.55789,-0.79243 -1.57978,-1.74671 -2.58465,-1.71796 1.59115,-1.90584 -1.33968,-3.61911 -1.64188,-3.81626 -0.79428,-2.65171 -2.05034,1.37836 -3.46892,3.28963 -4.00695,1.66484 -1.00243,-1.76583 -1.93565,-0.46741 0.75744,-3.76102 1.0996,-2.48154 -3.97658,-0.22303 -0.19736,-1.14083 -2.04534,-1.6977 -1.65916,-0.98859 -2.22458,0.76645 -2.19458,-0.28404 -3.49803,-0.79338 -1.8968,0.67304 -1.41143,4.58287 -0.23077,2.68029 -4.14455,3.12435 1.82817,2.25718 0.48826,2.5617 -0.66029,2.02565 -2.19394,2.12094 -3.58158,2.14277 -4.41985,1.43791 1.02226,1.61916 -0.68984,4.88821 -2.55396,3.2045 -2.27059,1.01804 -2.46796,-2.96478 -0.33949,-3.47585 0.55679,-3.10386 1.5359,-2.65969 -2.46285,-0.29573 -3.85469,-0.17664 -1.9326,-1.28746 -2.58167,-0.83966 -1.01014,-1.43767 -1.7998,-1.15346 -3.72014,-1.31044 -3.59246,0.59759 0.0843,-2.29018 0.4346,-2.81102 -3.14322,-0.49855 2.0362,-3.45746 2.19972,-2.33107 4.34962,-3.30617 4.11753,-2.36236 2.82595,-0.36348 1.22342,-1.88245 2.46388,-1.21879 3.3001,-0.19069 3.67651,-1.94232 1.35436,-1.24983 3.48714,-2.39752 1.4658,-1.41959 1.77563,0.85043 3.28656,-0.436 5.3581,-1.96957 1.03015,-1.36311 -0.68383,-1.49376 2.43717,-1.48051 0.65334,-1.37192 -2.06329,-1.36529 -2.8966,-0.40356 -2.88492,-0.21021 -1.9459,3.02179 -2.99705,2.39778 -3.45866,2.02191 -0.96137,-1.8878 1.89957,-2.06252 -1.44876,-1.77868 -4.22357,2.1672 1.80674,-2.82476 -3.58952,-0.55562 2.7655,-1.34483 -0.79593,-3.06099 -1.2858,-1.18874 -2.43864,-0.43044 -3.85761,1.95375 -2.27691,3.00379 1.71353,1.10659 1.14128,1.69717 -2.80415,2.78718 -1.68363,-0.0748 -2.8376,2.228 1.75464,-2.64177 -2.69385,-0.94201 -2.23894,0.48474 -0.92965,1.7328 -3.10444,-0.067 -3.66028,0.44353 -2.92787,-1.25788 -2.56492,0.22213 -1.06346,-1.50998 -1.24083,-0.6614 -1.91906,0.27682 -2.70365,0.12764 -2.10271,0.94979 1.31462,1.18136 -3.40069,1.41444 -1.04877,-1.67566 -2.20808,0.48793 -6.08463,0.32949 -3.43327,-0.59874 4.12243,-1.38124 -1.76735,-1.40473 -2.23931,0.17807 -2.55688,-0.4692 -4.14318,-1.0106 -2.25906,-1.15337 -2.42975,-0.15826 -1.50292,0.80057 -3.00888,0.45098 1.561,-2.08007 -4.48414,1.85759 -1.35434,-2.45462 -1.18796,-0.29048 -1.66108,1.28534 -2.17055,0.63969 -0.4012,-1.1339 -4.10145,0.68124 -4.31461,1.20466 -2.83784,-0.33541 -3.3989,0.85876 -2.97624,1.15076 -1.98418,-0.25416 -2.06067,-1.3256 -3.30395,-0.66186 -2e-5,0 -1.91655,-0.38365 -2.36786,-0.82228 -3.27512,0.44431 -1.2578,-0.35551 -3.79353,-0.2568 -3.51728,-0.86126 -2.44591,0.27226 -2.71425,-0.46268 0.81943,-0.62471 -3.36629,-0.16272 -1.5245,0.52539 -0.13224,-1.22342 -2.51275,-0.56719 -4.89271,1.44224 -1.72007,-0.18151 -5.39293,1.20646 -2.41842,0.31165 -3.67777,1.299 -2.05751,1.33712 -4.14361,1.25656 -3.89698,0.0899 -2.88669,1.45265 1.94639,0.87937 0.72298,1.19018 -0.0227,1.40098 1.4973,1.0712 -0.12137,1.74971 -4.74533,0.11021 1.84004,-1.41193 -1.79452,0 -6.40405,1.38046 -4.40021,1.18695 0.97366,1.65554 -0.31523,1.15046 2.51642,0.68742 3.48278,-0.32195 1.08767,0.63304 1.34078,-0.63385 3.00714,-0.62402 1.39504,-0.0325 -2.79394,1.10608 0.70991,0.51716 -0.93597,1.31546 -2.62022,0.89644 -1.37152,-0.24902 -3.2408,1.39721 -1.06545,-0.46389 -2.0355,0.2118 -2.33724,1.49114 -3.50627,1.62779 -2.58627,1.68415 0.50068,1.25276 -1.6444,1.67115 0.87474,0.7102 0.59442,1.39257 3.54195,-0.56915 0.47786,1.05803 -1.44793,1.09227 -1.46087,1.77898 1.42526,0.002 3.42847,-1.1971 -0.50337,1.49154 1.61112,-1.07402 0.13256,1.51884 2.24834,-1.08933 0.28265,0.51491 3.49957,-0.90704 -2.77445,1.76911 -2.43006,2.282 -2.67111,1.06641 -1.05657,0.6059 -4.85504,1.81593 -2.25044,1.24773 -3.24055,0.34466 -3.98177,1.67058 -3.14831,0.94507 -3.84942,1.43406 -0.0679,0.51679 4.85752,-0.87786 2.86256,-1.02626 3.31054,-1.04287 2.94979,-0.85232 1.43072,0.23489 3.88972,-1.30438 1.97323,-1.42851 5.03233,-1.56641 1.74293,-1.33904 3.1471,-0.92016 3.61148,-1.25972 4.08895,-2.15366 -0.40862,-1.44973 5.22275,-2.11517 3.34706,-1.96926 4.40573,-1.64153 -0.0445,0.73812 -3.25191,0.90753 -3.64125,2.90542 -1.22003,1.75491 3.12085,-0.63347 2.91392,-1.00453 3.20987,-0.61953 1.43935,-0.19044 1.33269,-2.05643 3.09245,-0.62458 1.62204,1.25813 3.35272,1.361 3.40015,-0.25292 3.14743,1.05978 1.74764,0.5645 2.31333,3.10037 2.05783,0.86368 3.65323,0.0736 2.09324,0.19428 -0.86965,2.84689 1.25045,2.4529 -1.21984,2.65898 1.41765,0.97563 0.51792,1.15331 0,0 -1.02591,1.58375 1.41524,2.23977 -1.20114,2.49795 2.25997,1.3236 -1.5442,1.91328 -0.33624,2.76988 3.66844,1.29968 0.96303,1.35873 3.02345,3.09856 0.3281,0.008 -0.58116,2.59743 -0.99699,2.60606 -1.06311,0.84079 0.27491,-3.00251 -3.00846,-1.07777 -0.64386,0.61936 -0.0809,1.47443 -0.67107,2.72365 -1.77339,4.28781 -1.77376,2.91185 -1.74319,2.91984 -2.45486,3.03978 -0.33947,2.47729 -1.17634,2.7775 -1.76285,2.68896 0.60973,1.77441 -0.76836,2.65179 0.89348,2.72888 0.71992,1.07662 -0.39435,0.75524 0.42903,4.53724 1.3455,3.28289 -0.32273,1.79284 0.48897,0.52801 2.35042,0.32262 0.6424,0.88481 1.43349,0.1643 -0.0299,0.93864 1.10833,0.39161 1.09953,1.882 -0.0954,1.67254 0.15348,2.94592 0.4405,2.61804 0.35883,2.14796 0.40103,2.04578 1.32517,0.90715 1.43261,2.33723 -0.49912,1.47795 -1.32975,1.22371 -1.06659,-0.1858 -0.26308,0.24726 1.101,1.90216 1.4716,0.79283 0.46977,0.85365 0.46469,-0.42166 1.5049,1.46163 1.04941,1.01519 -0.0102,1.77464 -0.64648,2.39595 1.2084,0.83156 1.61993,1.58267 1.38921,1.86563 0.30695,1.98931 0.48273,0.0157 1.40239,-1.20197 0.18904,-0.58607 -0.68294,-1.46141 -0.77354,-1.48734 -1.29425,-0.10818 0.23639,-1.72671 -0.40655,-1.5344 -0.47329,-1.4343 -0.16687,-3.04677 -1.29015,-1.66706 -0.28175,-1.15997 -0.60731,-0.83345 0.0144,-2.11307 -0.4928,0.0455 -0.0531,-1.12539 -0.34715,-0.2339 -0.23358,-0.77137 -1.36892,-2.25679 -0.53522,-1.35061 0.46152,-2.46003 0.0292,-1.57184 0.83562,-1.3299 1.25243,0.90227 0.9374,-0.14268 1.5488,1.29916 -0.41123,1.25815 0.2295,2.50867 0.75945,2.47119 -0.16159,1.02364 0.83889,1.59379 1.11963,1.72563 1.38806,0.26657 0.0986,2.28588 1.21172,1.59181 1.20159,0.76399 -0.89328,2.02428 0.3152,0.79998 2.03521,1.33704 0.87563,2.04115 2.20355,2.5571 1.75325,3.25304 0.59783,1.65116 -4.1e-4,1.30173 0.65362,1.46868 -0.22019,1.13089 -0.78593,0.84816 0.11768,0.93237 -0.97586,0.31913 0.38058,1.59302 1.03671,2.06097 2.67015,1.85441 0.91986,1.49049 2.675,1.03388 1.52074,0.19484 0.57124,0.87214 2.09592,1.56061 2.93167,1.51772 2.01954,0.45738 2.40028,1.49721 2.00346,0.62085 1.85605,0.85999 1.44022,-0.32164 2.38277,-1.22776 1.58079,-0.23712 2.16372,0.85115 1.30663,1.05964 2.75146,3.51212 1.35514,1.34565 1.20717,0.64694 1.73202,0.0589 1.37248,0.56878 0.72011,0.70009 1.52935,0.20243 1.09089,0.64813 0.9743,0.31225 1.61079,0.0487 0.38159,-0.76764 0.82013,0.28346 0.38749,1.01988 -0.23224,0.23036 -0.41562,-0.49071 -0.35589,0.5041 1.26665,1.47214 1.0887,1.02431 0.52319,1.09847 1.20001,1.31454 0.88732,1.02625 -0.68843,0.62929 0.75546,0.45915 -0.44513,1.02605 -0.0863,0.99163 0.33713,0.65639 0.87745,0.32178 0.57993,0.90371 0.60995,-0.77816 -0.11577,-0.94685 0.69449,0.5819 0.12076,0.95261 0.93676,0.41743 1.06136,0.64003 0.72844,0.77958 0.0587,0.71938 -0.35577,0.56523 0.52977,0.6834 1.48065,0.72239 0.2952,0.49223 0.1249,-0.70655 1.20301,-0.005 0.70663,0.38078 1.13802,0.21626 0.49803,1.30973 0.91517,0.19109 0.39277,-0.55341 0.39075,1.94443 1.31265,-0.16609 0.42801,-0.48231 0.78548,-0.41588 -1.24855,-1.76683 0.31052,-0.67746 0.61754,-0.11364 1.17615,-0.8178 0.63121,-1.13257 1.2375,-0.20746 1.34493,0.90503 0.46513,1.07574 0.69838,0.22308 -0.73714,0.86965 0.51487,1.75706 0.8917,0.93897 1.06091,1.73356 0.33618,2.75225 -0.63213,0.85428 0.53916,2.97648 -0.58111,1.88813 1.01656,0.77415 -1.11327,1.70658 -1.22169,2.04411 -1.39789,0.2181 -0.67725,1.17812 0.10386,1.6294 -1.05152,0.24405 0.37165,1.00973 -1.94251,1.29445 -1.54414,0.69768 0.19121,1.32728 -1.06449,2.0947 -0.50969,2.02614 -0.98171,0.49044 0.50348,2.95199 -0.55805,0.9169 1.70624,1.4253 1.05063,-1.5104 0.62998,1.4205 -1.44876,2.431 -2.1904,2.0544 -0.80949,2.2785 1.46573,3.1033 -0.8528,1.4522 2.0536,1.3174 2.2731,2.1241 0.99787,2.3973 1.22312,1.4836 3.02864,6.4838 3.17907,6.0111 2.70294,4.2778 -0.37867,0.9395 1.38949,2.6941 2.32965,2.0108 5.32251,3.5688 5.82426,3.2779 0.3768,1.3398 2.97097,1.8753 1.07621,4.602 0.83138,5.3515 0.0893,7.3145 0.0983,6.7999 0.50191,6.3364 -0.91216,4.0005 1.03464,4.0437 -0.30784,2.7026 1.55331,4.9069 -0.14521,4.8778 -0.71314,5.2313 -0.41655,5.2737 -1.08101,0.106 1.09757,3.6731 1.53663,3.1767 -0.62927,2.2222 0.71431,6.0085 0.48844,4.6216 1.74054,0.4542 -0.32616,-4.0315 1.95794,0.8596 0.55454,6.6787 -3.15664,-1.1319 0.7449,5.3314 -1.50629,2.8247 4.10465,0.9302 -1.84798,2.4599 -0.0401,3.0517 2.18039,5.3776 1.97689,2.0866 -0.0305,1.8329 1.4871,1.9753 3.67265,1.7791 -1e-5,0 3.55985,2.1572 3.08464,1.0041 0.99231,-0.072 -0.6485,-2.8907 1.79266,-1.122 0.90515,-0.7653 2.16921,0.023 z m -56.7169,-326.16232 1.50718,-1.25467 1.60818,-0.49767 0.85809,-0.772 0.72285,-0.4125 2.05448,0.6379 1.68043,0.0761 0.42928,0.42371 0.14462,1.79804 2.6187,0.47728 -0.77591,0.90398 0.64544,0.93401 -0.8671,1.21043 0.90815,0.40025 -0.90782,1.07241 -0.003,0.004 -0.72061,-0.12906 -0.20507,-0.89376 -2.56767,0.27874 -2.4895,0.71083 -1.31758,-1.21615 -1.26866,-0.40668 1.44213,-1.67948 -2.61086,1.05417 -2.40556,1.03265 -2.24834,0.81163 -1.11507,-1.09598 -2.77257,0.66451 0.19142,-0.46817 2.22907,-1.34343 2.27729,-1.2727 2.95844,-1.04841 3e-5,-3e-5 z m 11.26223,5.09978 0.6395,-0.46942 0.24205,0.70741 1.74774,0.39669 1.90233,0.0336 1.92863,0.3264 2.04407,0.61973 0.48809,1.00426 0.83678,2.45523 -1.15795,1.06237 -1.92021,-0.44258 -0.62663,-1.98504 -0.34448,2.0219 -1.79133,1.78641 -0.35597,1.52842 -0.49601,0.90012 -1.99137,1.06738 -3e-5,2e-5 0.2919,-1.32269 0.14339,-1.86861 -0.83663,-0.32186 -2.04259,1.41692 -0.49794,-0.0268 0.13534,-0.81062 1.82454,-1.28732 0.71942,-1.46476 0.28618,-1.45799 -1.44146,-1.24999 -1.92135,-0.64049 -0.77994,1.21721 -0.67104,0.32618 -0.99637,1.58402 0.13768,-1.07657 -1.27978,0.7683 -1.00635,1.07853 -1.20472,1.57758 -0.59047,1.36607 0.18069,1.99476 -0.7679,2.13082 -1.55081,1.5761 -0.66443,0.44744 -0.80906,0.35621 -0.88039,0.0177 -0.166,-0.21953 -0.13911,-1.7007 0.25725,-0.84013 0.33347,-0.79754 0.21031,-1.5805 1.10693,-1.82431 1.35146,-2.24219 2.18539,-2.47054 -0.38489,0.0113 -2.59349,2.06809 -0.20958,-0.37992 1.40361,-1.15692 2.24884,-2.07141 1.81864,-0.28809 2.19469,-0.63996 1.86187,0.33758 0.0795,0.0144 2.32084,-0.28865 -0.80289,-1.274 10e-6,-1e-5 z m -1.53258,13.92118 1.34723,0.20379 2.22199,-1.03011 1.39846,-0.90379 0.80711,-0.14724 1.30956,0.32523 0.83461,-0.50259 1.37339,-0.40812 2.35014,-0.39698 -10e-6,8e-5 -0.0459,0.31723 -2.78706,1.92929 -2.21715,0.93571 -1.45419,0.43631 -1.79278,0.89545 -1.99432,0.43085 -1.23472,-0.16581 -1.38354,-0.66992 1.26709,-1.24938 5e-5,0 z m 11.70988,-3.82975 -0.13292,0.0371 -0.83122,0.16686 -0.92503,-0.30586 1.1044,-1.10248 0.89549,-0.38091 1.94271,-0.46939 2.28625,-0.43827 0.94479,0.60908 0.92378,-0.70604 0.94201,-0.44587 0.46906,0.23601 0.0139,0.0502 0.12493,0.45029 -0.22294,1.2534 -2.23014,1.06395 -2.01253,-0.26716 -1.97043,-0.11981 -1.32209,0.36889 z m 45.73493,319.92791 0.54799,-1.5334 -3.61402,-0.7684 -3.76005,-1.8487 -2.00574,-2.3197 -1.4216,-1.4388 -1.8512,-0.367 -1.78729,1.2825 -0.0291,2.1198 -0.72749,1.4152 -3.59654,-1.1076 -4.15191,-2.0671 -2.23654,-0.6512 4.62038,3.4657 3.07273,1.6558 3.65073,1.7151 2.66285,0.443 2.0683,0.9198 1.49886,0.2474 1.20339,0.097 1.69812,-0.9496 0.35072,-1.2392 1.59711,1.0823 2.2103,-0.1531 z m 25.52404,26.6114 1.95761,-0.8466 0.48192,-0.9617 -1.58463,-0.7373 -1.63233,0.3404 -0.93422,0.9062 -1.34055,0.7348 -1.70432,0.3386 -1.35012,0.5637 -1.03563,0.9 -2.06191,0.1684 -1.09003,0.7294 -0.8867,0.7838 -0.34562,1.228 -1.40732,0.8348 -1.11537,0.8885 -0.9465,1.0518 -0.82233,0.8281 -0.48527,1.2658 0.76112,1.0967 0.98091,1.2021 0.17322,1.0887 -0.2988,1.1391 -0.50907,1.027 0.31588,1.077 0.6511,1.0731 1.01247,0.9623 1.18705,1.065 1.26677,1.0609 1.18234,1.0564 0.79997,1.1044 0.0991,1.1514 -0.78163,0.8337 -1.71497,0.5714 -2.42107,0.3627 -2.72325,0.3106 -2.28559,0.3616 -1.69854,0.6698 -1.78669,0.5652 -2.56027,0.2562 -1.92661,-0.8728 -2.42751,-0.5668 -2.64786,0.2578 -2.69012,-1.0333 -0.22002,0.9303 -0.97698,0.9772 -2.80475,-0.5652 -2.68497,-0.309 -2.75355,-0.103 -2.37564,-1.0339 -2.40064,0.259 -2.69143,-0.4664 -2.47029,-1.1963 -0.37449,2.0246 -2.58294,0.2066 -2.53232,-0.6203 -2.30761,0.3104 -2.42882,0.5163 -2.37331,0.3606 -2.88079,-0.1546 -1.59268,-0.9292 -2.68637,-0.7776 -2.7394,-0.4159 -2.54348,0.156 -2.82692,-0.156 -1.86385,-0.3645 2.29973,1.9715 1.23304,0.9788 1.95183,0.974 2.79422,0.2043 1.73862,0.9171 2.01103,0.8616 -0.14616,1.1085 -3.13657,-0.4525 -3.02041,-0.3529 -3.12626,-0.101 -2.16969,0.4539 -2.7035,0.151 -2.95649,-0.706 -2.99902,-0.3034 -3.28326,-0.9644 -1.41105,0.7619 -2.09635,-0.8638 -1.54846,-0.9189 -2.05626,-0.8207 -1.3582,0.9229 -2.00371,0.4599 -3.0732,-0.5621 -2.08439,0.4089 -1.33392,0.7645 -2.67816,0.1018 -3.06505,-0.051 -2.98672,-0.051 -2.71417,0.1018 -3.27518,-0.2544 -3.00254,-0.2546 -2.29101,0.3564 -2.72452,0.051 -3.18646,-0.4582 -2.63737,0.3565 -1.6101,-0.2037 -1.75518,-0.1528 -1.84896,0.56 -1.55853,0.5582 -2.04108,0.6068 -2.43287,0.2522 -2.82011,0.05 -1.55219,0.6538 -2.46239,0.5011 -2.20825,-0.8529 -2.04949,0.4521 0.51854,0.9002 1.88147,0.944 1.26514,0.9379 -2.67324,0.2457 -1.15622,0.8318 -1.55758,0.6808 -1.88867,0.5323 -2.77636,0.2409 -3.09889,-1.0645 -2.65016,0.3397 -2.89158,0.2423 -2.87569,-0.7765 -1.31027,-0.2438 4.66876,2.7951 2.80736,0.8525 3.65033,0.7513 2.61715,0.8838 4.08981,0.231 3.96148,0.3223 4.15726,0.1377 3.87104,0.6847 3.45683,0.6334 2.17141,0.9388 -0.27784,0.7497 -1.67247,0.8264 -2.18153,0.6434 -4.03299,-0.7298 -3.70494,0.3448 -4.78737,-0.1291 4.1792,0.6842 2.88393,0.7582 4.23156,0.5807 2.1073,0.8557 0.93713,0.7574 1.16073,0.8173 1.75614,0.8695 5.83008,0.406 3.35485,0.7206 6.8659,0.4211 7.16697,0.069 1.84149,0.8121 -3.52685,0.4562 -3.10337,0.4736 -5.83238,-0.5057 -8.46909,-0.3252 -3.57265,0.4533 -8.04095,-0.3878 -5.67523,-0.5321 -6.40581,-0.4444 -4.47339,-0.597 -1.47452,-0.2183 -2.93444,-0.4324 -4.32569,0.3276 -0.0985,0.1048 0.0513,0.7513 -4.90148,-0.7513 -0.251,-0.014 -0.30749,-0.021 -0.0983,0.5783 -0.007,0.063 -4.98696,-0.5672 1.78461,1.0405 -0.14929,-0.014 39.77313,6.1257 557.09524,0 39.77313,-6.1257 -1.65081,-0.4244 -2.31339,-0.5662 -6.33493,0.4611 0.29035,-0.5364 0.0673,-0.1409 -4.02236,-0.4017 1.58682,-0.9374 -2.61367,-0.6167 -1.25285,-0.6293 -1.09245,-0.641 -0.73052,-0.6936 0.0439,-0.7892 0.81831,-0.8889 -1.09982,-0.7316 2.52349,-0.8297 2.32109,-0.8417 2.205,-1.0791 3.83012,-1.3263 3.80462,-0.092 3.78392,-0.5096 4.09188,-0.3726 0.92116,-1.0331 -3.09057,-0.3309 0.4148,-0.8567 0.96402,-0.912 0.32173,-0.9681 1.31034,-0.9271 1.81018,-1.1315 1.82942,-0.9418 2.27413,-1.0482 2.55592,-0.8034 2.68483,-0.9594 2.27718,-1.0157 3.37516,-0.561 2.42525,-0.9218 3.22576,-0.4112 2.39829,-1.0832 1.9507,-0.933 2.49017,-1.198 2.31329,-0.9421 1.59301,-1.0513 -0.46598,-0.7912 -1.50596,-0.529 -1.38427,-0.6364 -1.88644,-0.3718 -2.25088,-0.2128 -2.57506,0.053 -2.07298,-0.1595 -2.49262,0.053 -1.84577,-0.426 -0.48909,-0.9612 -1.66133,-0.6426 0.18532,-1.0743 -2.09199,-0.323 -2.28306,-0.2695 -1.16245,-0.6477 -0.68526,-0.8661 -1.06645,-0.7598 -2.37702,0.9226 -2.37069,-0.054 -1.71854,-0.4336 -2.4389,-0.4346 -2.26601,-0.4891 -1.67336,-0.7084 -1.65697,-0.6552 -0.57271,-0.821 1.46236,-1.0429 -0.66302,-0.8808 -2.21481,-0.2204 -2.75117,-0.1104 -2.1008,0.055 -2.85816,0 -2.11842,0.1655 -2.9081,0.055 -2.6259,0.1654 -1.37508,-0.4963 -0.0378,-0.9395 0.32622,-1.1641 0.76059,-1.2796 -0.6874,-0.7811 -1.12536,1.1711 -1.84326,1.3891 -2.17023,0.2216 -2.25993,0.2769 -2.4834,0 -2.32345,0.1108 -2.73833,0.4425 -2.39645,0.4971 -1.76862,-0.2761 -1.68678,-0.2763 -1.96682,0 -2.42347,0.4419 -2.03255,-0.276 -1.64605,-0.3871 -2.14918,0.2212 -2.17613,0.8834 -2.42563,0.8811 -2.43253,0.2199 -2.4981,-0.2749 -2.02581,-0.7159 -0.92841,-0.7173 -2.47781,0.1104 -0.85621,-0.8847 -0.43749,-0.887 -1.299,-0.5556 -2.09147,0.6111 -2.52937,0.111 -2.11731,0.8313 -2.36962,0.7739 -2.63239,0.3865 -2.58701,0.3307 -2.00251,0 -2.09085,-0.055 -1.56416,-1.7127 -0.76425,-0.9987 -1.14333,-0.7786 -1.15706,-0.39 -4.18048,2.1117 -2.0225,0.7749 -1.74483,0.9383 -2.08105,0.9359 -1.99452,-0.3851 -2.25519,0.3851 -2.33745,0 -2.20527,0.3845 -1.26526,-0.6045 -1.72326,-0.1651 -1.53608,0.2751 -2.00604,-0.055 -2.07436,-0.2201 -2.28776,0.33 -1.94901,-0.22 -1.49827,-0.5505 -0.23532,-1.3251 -0.35742,-0.7755 -2.21695,1.8801 -2.02967,0.771 -2.28625,-0.165 -2.31732,0.3301 -2.1118,0.2748 -2.01184,-0.2748 -1.81808,0.4396 -1.50542,0.4937 -1.70311,0.9309 -2.11868,0.5462 -2.49721,0.7086 -2.03691,1.0326 -1.19339,1.0294 -1.63771,1.0797 -2.40092,0.4307 -2.29576,0.3228 -2.46748,0.1074 -1.47101,0.2685 -1.82694,1.3385 -1.04646,0.9599 -1.74029,0.7972 -1.59861,0.8476 -1.22909,1.0027 -1.70194,1.0513 -2.64671,0.4715 -2.25778,-0.2618 -1.1549,-0.8399 1.54192,-1.1067 1.57483,-1.0057 0.82442,-1.0628 -2.37456,0.053 0.23647,-1.0669 2.15584,-1.0174 2.3796,-0.6982 0.86208,-1.2394 0.42864,-0.7029 -0.37712,-2.8825 -2.15436,0 -2.01141,-0.2186 -1.88045,-0.3282 -1.96942,-0.3287 -1.76951,-0.6031 -2.36476,1.1507 -1.96819,0.5465 -1.99898,-0.1639 -1.4552,-0.7657 -1.1252,-0.7676 -2.45728,-0.3295 -1.01345,-0.7703 -1.55467,-0.9376 0.25202,-1.2172 -1.46675,-0.777 -1.96054,-0.2779 -1.87521,-0.1667 -2.10108,0.2223 -2.34802,0.4445 -1.99456,0.5548 -2.10726,0.7752 -0.76665,0.9939 -2.01372,0.661 -2.02418,-0.055 -1.65693,0.7697 -2.27269,0.9868 -1.92682,-0.3286 -1.88325,0.6023 -1.97863,0.6556 -1.87073,0.5998 -2.68917,0.5442 -2.21322,0.3806 -2.48946,0.9219 -2.06269,0.4869 -1.08551,1.1871 -2.34264,0.6454 -1.38984,-0.6993 -1.24333,-0.971 -2.26914,0.2161 -1.67547,-0.6486 -0.59806,-0.9757 -2.12181,-0.4344 -1.43328,0.9226 -1.52246,1.5138 -1.79742,0.754 -2.22186,0.2688 -2.09821,0.4831 -2.02378,0.75 -2.29942,0.3208 -2.18115,0.3739 -2.36294,0.053 -2.39363,0 -2.49458,0.1067 -2.38895,0.4796 -1.23191,-0.7998 -0.85051,-0.9092 -2.25512,-0.1608 -2.31827,-0.3218 -2.2339,-0.054 -2.50329,0.1073 -2.31877,0.3217 -1.85148,1.0164 -0.71812,-1.0164 -2.76121,-0.1608 -2.22323,0.7498 -1.04373,1.0673 -2.43221,0.5322 -1.12131,-0.9586 -1.43888,-1.2835 -2.21977,0.3751 -1.53439,-0.6969 -1.33583,0.9644 -1.84662,0.5876 -2.36876,0.4265 -2.16264,0.6385 -2.35247,0.3719 -2.38731,0.3712 -2.13612,0.4766 -2.29176,0.8976 -0.90339,-1.1093 -2.37906,-0.159 -2.6171,0.3178 -2.688,0.4757 -2.50069,-0.1584 -0.57481,-1.0061 -2.27158,-0.2654 -1.01092,1.06 -0.0267,1.0027 -2.49542,-0.1053 -1.08091,-0.8974 -2.50964,-0.1588 -1.45531,0.7398 -0.91278,1.2632 -1.52968,1.0473 -2.02226,0.8346 -2.19306,0.6237 -2.07401,0.5185 -1.2638,0.827 -0.58173,1.0802 2.23139,0.6145 -0.46892,1.0196 -1.80136,0.761 -1.65632,0.8584 -2.67192,0.8037 -2.09899,0.6001 -2.32181,0.5976 -2.36697,0.4961 -2.85375,0.3463 -3.0547,0.099 -1.31768,0.1973 -2.60093,0.3447 -2.60643,0.4416 -1.5242,0.9762 -2.18855,0.7269 -2.17071,0.7222 -3.11495,0.5742 -2.59991,0.571 -0.69845,0.5207 0.36252,1.7756 0.84607,0.8737 3.75034,0 3.81832,-0.3666 3.69223,-0.092 0.26725,0.8689 1.07659,0.8137 1.59212,0.8039 -2.73531,0.5741 -4.02993,0.3943 -3.7861,0.3047 -3.32928,0.4753 -3.48858,0.4711 -4.69697,0.043 -2.26583,0.6344 -0.70001,0.9143 -4.01469,-0.4964 -4.71362,-0.2921 -4.5939,0.042 -2.92522,0.5819 -3.46285,0.5331 -2.72456,0.646 -2.53778,0.5952 -1.61737,0.7002 -1.52594,-0.7395 -2.58496,-0.9583 -3.99026,-0.6942 -3.65574,-0.6226 -5.02777,-0.589 -4.91892,-0.3401 -3.97668,-0.6871 -3.25925,-0.6962 -3.90517,-0.6162 -4.29714,-0.3551 -3.12131,-0.8512 -1.1094,-0.8619 -2.87455,-0.7799 -0.65066,-0.9274 -0.63674,-0.9848 2.32355,-0.615 3.52345,0.237 1.6396,-0.7603 -1.81854,-0.8622 -2.65304,-0.6754 -3.30576,-0.4361 -1.28877,-0.9754 3.33177,0 3.01019,-0.1961 3.55213,0.098 3.11727,-0.098 0.96068,-1.0338 2.36714,-0.5447 2.18566,-0.5468 2.43891,-0.3991 2.50603,-0.9517 0.76924,-0.8564 0.43776,-0.9118 2.51728,-0.3558 0.76389,-0.8671 0.59618,-1.0767 -0.38074,-1.3931 -1.13179,-1.038 -0.64748,-1.0429 -1.06933,-0.9951 -1.41858,-2.4798 -1.07211,-1.0092 -1.39828,-0.9064 -1.1021,-1.0702 -0.91396,-1.0205 -1.35673,-1.078 -2.01786,-0.8654 -2.05356,-0.6505 -1.52844,-0.8698 -1.27708,-1.145 -0.12932,-1.0396 0.82242,-1.2082 0.89319,-0.8812 0.79221,-0.9392 1.96025,-0.2212 1.22259,-0.6649 -1.42133,-0.9441 -0.5658,-1.0581 -0.15491,-1.1173 0.74362,-0.8404 1.31653,-0.7299 1.25892,-0.675 1.7222,-0.2816 1.82806,0.4506 0.72538,-0.6196 z m 42.6213,37.3604 -3.16802,-0.5245 -2.66944,0.5245 -0.99202,-1e-4 0,0 -0.78977,0.9934 -0.76441,0.8427 -0.42403,0.8807 -0.67356,1.0078 -1.22332,0.7692 -3.69422,0.6269 0.22841,0.9288 2.92686,0.7412 4.52531,0.1296 3.68532,-0.4337 3.2562,-0.5249 2.77784,-0.5741 2.58995,-0.714 -0.61615,-1.1768 -0.67558,-1.0107 -1.45768,-1.4458 -2.84169,-1.0402 z m -25.25591,4.7056 -2.58581,-0.9485 -0.48112,0.8138 -0.77986,0.937 -4.23322,-0.2217 -4.33138,-0.089 1.52633,0.6639 0.0654,0.088 2.91587,0.7424 4.09909,-0.1303 4.15277,0.3035 -0.14119,-1.0036 -0.20691,-1.1556 z m -30.37739,-23.042 -1.1886,-1.224 -1.28801,-1.1761 -1.52519,-1.2347 -1.00559,-1.0241 -1.63508,-1.0276 -1.7522,0.4331 -0.55596,1.2956 1.17178,2.1999 0.40365,1.0135 0.11127,1.3807 -2.47592,-0.1059 -1.26219,0.3177 0,0 -1.70631,1.0562 0.74228,1.104 2.02578,0.7855 2.10769,-0.3663 2.23616,-0.3667 -0.44243,1.0465 2.74078,0.052 2.02967,-0.5225 2.24281,-0.3664 0.055,-0.9977 -0.16948,-1.0546 -0.85987,-1.2182 z m -62.11149,2.6348 -3.17031,-0.2101 -2.92784,-0.3684 -0.94282,0.4735 0,0 1.94419,1.1012 2.50879,0.5225 2.67467,-0.1565 2.62966,0.1043 2.43318,-0.1043 1.77285,0.2087 -2.3253,-1.5182 -2.04723,0.3149 -2.54984,-0.3676 z m -42.33207,4.1644 -2.88893,-0.4645 0.39974,0.8765 1e-5,0 2.92963,0.9237 3.0269,0.2046 1.28132,-0.6659 0.29328,-0.9261 -2.00902,0.4636 -3.03293,-0.4119 z m -8.94834,-0.052 -2.65614,-0.6196 -0.92286,0.5681 0,0 3.51936,0.7208 2.8918,0.2568 1.29905,0.1025 -4.13121,-1.0286 z m -47.70988,15.0399 -2.25099,-1.0576 -2.80636,-0.8375 -3.1115,-0.7511 -4.20291,-0.3781 0.23723,0.8952 10e-6,0 2.30295,0.6537 0.30253,0.1395 2.49928,0.8318 3.89334,0.8231 3.13642,-0.319 z m 704.77842,-201.4029 0.2846,-1.1843 0.0705,-1.8453 -0.7739,-1.6581 0.0717,-1.3688 -0.64238,-0.394 0.075,-2.0441 -0.5894,-1.5935 -1.19032,1.2201 -0.18919,0.9295 -0.76756,1.7902 -0.91397,1.7277 0.27843,1.0884 -0.63207,0.6622 -0.73854,2.4562 0.0244,1.8663 -0.3571,0.9488 0.11935,1.5775 -1.30352,2.5958 -0.67439,1.7895 -0.83793,1.4466 -0.88496,1.7532 -2.05263,1.1159 -2.42551,-1.1076 -0.22571,-1.0086 -1.29267,-0.8359 -0.78289,0 -1.64976,-1.934 -1.23074,-1.1237 -1.95906,-1.0458 -1.90871,-1.8026 -0.0494,-0.9208 1.24258,-1.6029 1.068,-1.6295 -0.12981,-1.3034 0.97407,-0.1085 1.24856,-1.317 0.98612,-1.7447 -1.06757,-1.6123 -0.73586,0.6261 -1.01194,-0.2837 -1.75452,0.9331 -1.59942,-1.0018 -0.84029,0.3297 -2.24538,-0.8337 -1.31868,-1.3363 -1.75441,-0.8076 -1.54477,0.4732 1.91669,1.0727 -0.15993,1.6653 -2.42564,0.614 -1.37826,-0.3872 -1.84053,1.1497 -1.46224,1.8616 0.32186,0.8146 -1.37727,0.852 -1.71776,2.6152 0.31464,1.791 -1.72179,-0.3059 -1.7381,-0.022 -1.25425,-1.9317 -1.84205,-1.4966 -1.409,0.4396 -1.29185,0.467 -0.1678,0.8197 -1.16833,-0.3805 -0.17649,0.9112 -1.48174,0.5556 -0.86429,1.2875 -1.76713,1.605 -0.7354,2.483 -1.11025,-0.707 -1.13047,1.5836 0.72796,1.5425 -1.29207,0.6515 -0.69517,-2.8184 -2.40525,2.774 -0.38093,1.7751 -0.35719,1.3033 -1.92586,1.6583 -1.03294,1.7462 -1.77969,1.4508 -3.08655,0.9569 -1.5101,-0.077 -0.78815,0.2983 -0.55833,0.7162 -1.74352,0.3625 -2.41246,1.2185 -0.67854,-0.4031 -1.30319,0.2552 -2.34277,1.2001 -1.62126,1.3947 -2.45671,1.0935 -1.62778,2.2506 0.30787,-2.4915 -1.62054,2.354 -0.11296,1.9126 -0.73012,1.637 -0.73909,0.8057 -0.72243,1.8934 0.40871,0.9796 0.0219,1.0312 0.73341,2.5783 -0.36712,1.6775 -0.49301,-1.2682 -1.12092,-0.9496 0.17355,3.0385 -0.84448,-1.4165 0.0315,1.3972 0.8926,2.5932 -0.33687,2.5662 0.84606,1.3051 -0.1948,0.9626 0.47847,2.1325 -0.64997,1.8662 -0.10634,1.8702 0.41852,3.3112 -0.30474,1.9407 -1.05149,2.2766 -0.2872,1.1758 -0.69524,0.7452 -1.46716,0.4456 -0.67977,1.8751 1.21709,0.6212 2.09239,2.0886 1.77357,0 1.88491,0.1284 1.63907,-1.0395 1.65336,-0.9244 0.72125,0.1479 2.18665,-1.7446 1.87598,-0.1501 2.03468,-0.3572 2.13891,0.5967 1.77108,-0.2909 2.283,-0.079 1.45304,-1.3297 1.11317,-1.7163 2.57377,-0.7554 3.40937,-1.6789 2.47475,0.2171 3.42063,-1.0931 3.87019,-1.1726 4.90303,-0.3099 2.01213,1.5944 1.84575,0.094 2.70418,1.9843 -0.78235,0.7558 0.94471,1.2266 0.75159,2.3731 -0.766,1.7362 1.52902,1.3455 2.05689,-2.6014 2.10096,-1.1189 3.24965,-2.7911 -0.72998,2.4236 -1.66186,1.6026 -1.16248,1.8875 -2.12493,1.8087 2.60105,-0.6006 2.21896,-2.2632 -0.35533,2.4281 -1.53212,1.5853 2.37289,0.3936 0.72665,1.3251 -0.10901,1.6498 -0.6192,2.4777 0.77288,2.0097 2.09026,0.9423 1.38338,0.2329 1.23533,0.5154 1.83003,0.883 3.42048,-2.3585 1.72326,-0.6165 -1.22026,1.6985 1.32039,0.5742 1.45033,1.4388 2.26685,-1.3972 1.81919,-1.2616 3.06469,-1.3367 2.98786,-0.1186 2.05362,-1.1328 0.36344,-1.0316 1.40713,-2.2484 1.80272,-2.4444 1.76298,-1.629 2.04729,-2.8224 1.59383,-1.6173 2.06136,-2.5353 2.65498,-1.6086 2.41215,-2.9785 1.4761,-2.3479 0.68464,-1.8784 1.84724,-2.9225 1.03492,-1.5173 1.21419,-2.8996 -0.30937,-2.7839 0.88114,-2.0276 0.55367,-1.8675 0.0883,-2.632 -1.30565,-2.6508 -0.89069,-1.2493 -1.34844,-2.0098 0.51104,-3.468 -0.81013,0.503 -0.72384,-1.4178 -1.292,0.7188 -0.12589,-3.5391 -1.05273,-2.0503 0.55802,-0.792 -1.50277,-1.4228 -1.58178,-1.5531 -2.60198,-1.7071 -0.40567,-2.2156 0.62931,-1.6931 -0.17989,-2.7908 -0.6196,-0.3983 -0.10387,-1.6295 -0.0711,-2.7981 0.54378,-1.446 -1.11464,-1.2738 -0.69043,-1.3805 -1.99213,1.23 -0.5837,-2.5589 z m -24.30847,88.3402 -1.54185,-0.2873 -0.84145,1.4872 -0.0167,2.8208 -0.81444,2.1342 0.0298,2.7618 1.51161,0.1003 0.42897,0.1732 3.05037,-2.2477 0.39289,0.8836 1.72747,-2.5978 1.4975,-1.1143 1.90451,-3.8451 -1.43402,-0.2179 -2.34711,0.6236 -1.64114,0.4447 -1.90645,-1.1193 z m -51.62111,-150.86442 -2.30419,1.78206 -1.05964,1.21723 -1.30071,2.05721 -1.93413,2.57347 -3.34987,0.70423 -1.18441,0.61345 -0.50999,2.75391 -2.16279,0.60778 -2.07817,-1.11463 -1.6386,2.16143 -0.30443,3.01359 0.39087,2.84549 1.32816,2.78215 1.39127,0.90405 0.34296,4.3624 2.30696,0.3753 1.84575,-0.1788 0.97973,1.5742 3.37562,-1.1698 1.37038,1.0422 1.99767,0.1839 1.04381,1.9886 3.24426,-1.4638 0.37251,1.1571 1.23404,-4.9743 0.13365,-3.2392 2.72722,-2.22446 -0.11206,-2.94734 0.92847,-2.2174 3.32822,-0.38372 -3.19065,-3.00994 0.45647,-1.49636 -2.14593,-3.07952 1.49648,-2.93788 2.02323,-1.10822 -0.57268,-1.5887 1.87665,-0.1614 0.13669,-1.27447 -2.39376,-0.97894 -1.89888,-0.90718 -0.21081,-1.4145 -1.54472,-1.64635 -1.13413,0.0107 -1.26038,2.54352 -2.04014,2.26297 z M 375.95233,1.54567 372.14613,1.42048 368.34856,1.29582 362.7334,1.62936 362.00831,1.416 l -5.64841,0.0818 -3.52155,0.21899 -2.78553,0.31965 -2.66102,1.10166 -1.32424,-0.57554 -2.14567,-0.10643 -3.6046,0.76573 -4.01298,0.33801 -2.23665,0.0681 -3.22481,0.40202 -0.43453,0.72877 1.47344,0.63542 0.61744,0.88998 2.56331,0.75856 6.74409,-0.1432 4.00916,0.25996 -3.7112,0.82696 -1.27232,-0.24704 -5.08964,-0.098 -0.2987,1.18113 1.88749,0.90948 -1.25579,0.82035 -3.9061,0.56553 -2.36002,0.92624 2.76404,0.46273 1.40824,1.56286 -4.37881,-1.05424 -1.33118,0.17084 -0.47023,1.77186 -4.08939,0.56115 -0.69996,1.19868 3.64925,0.13159 2.72542,0.30438 6.11902,-0.38987 4.69831,0.69468 6.34147,-1.50559 0.37875,-0.60759 -3.43677,0.0961 0.1268,-0.56108 3.27397,-0.73687 1.62185,-0.95721 3.51103,-0.68684 2.44771,-0.82543 -0.71611,-1.17434 1.65264,-0.42114 -2.41659,-0.29445 5.99801,-0.25047 1.58309,-0.47486 4.22967,-0.38378 4.67879,-1.85833 3.56626,-0.63105 5.47491,-1.32681 -4.06519,0.0111 2.08485,-0.48069 4.84606,-0.43034 5.25946,-0.90729 0.54618,-0.54763 -2.8572,-0.54806 -3.67266,-0.25536 -4.70884,-0.15519 z m -13.17117,89.25159 1.83294,-1.97413 0.69884,-0.84784 -1.09509,-0.13689 -2.41133,1.07745 -2.0033,1.78331 -3.8917,5.01564 -2.58792,1.90626 0.85562,0.86124 -1.8432,1.11758 0.13872,0.94114 4.82314,0.0971 2.73055,-0.18998 2.21056,0.77301 -2.12678,1.49676 1.46975,0.11073 3.55688,-2.76115 0.6001,0.40399 -1.15068,2.6057 1.51227,0.60235 1.16252,-0.11875 1.69145,-2.80414 -0.31723,-1.97499 0.0803,-1.68203 -1.86781,0.54171 1.32772,-2.31695 -2.22574,-0.97082 -1.3329,0.76909 -1.97354,-0.86509 1.14794,-1.0989 -1.47906,-0.67452 -1.88712,1.06355 2.3541,-2.75046 z m -40.02668,-65.5254 2.65388,-1.70081 -5.7534,0.698 -2.85398,1.07676 -3.21936,2.37705 -1.16902,2.72075 2.96449,0.0118 -2.99944,1.2355 1.13202,0.95547 3.16081,0.41103 3.97661,0.80169 7.34926,0.61216 4.04691,-0.35254 1.5917,-0.80709 1.14425,0.93126 1.78211,0.1561 1.32095,1.70987 -1.74392,0.6987 3.83892,0.94169 2.59984,1.34841 0.35143,0.95538 -0.0199,1.2381 -4.17168,2.74262 -1.46042,1.41321 0.23966,1.01502 -4.71763,0.36405 -4.17105,0.0507 -2.52794,2.10505 1.38533,0.98589 6.65787,-0.45845 0.36599,-0.83174 2.57215,1.3925 2.64411,1.48113 -1.15346,0.81559 2.087,1.41226 4.10661,1.68996 5.65661,1.16647 0.0471,-1.02036 -1.62009,-1.75839 -2.10088,-2.49514 4.63848,2.31759 2.51841,0.78748 1.62142,-2.08566 -0.2718,-2.85343 -0.593,-0.76212 -2.43893,-1.31595 -1.58455,-1.65594 1.00997,-1.62437 2.98921,-0.35426 2.26058,2.72898 2.20304,1.21919 5.23402,-3.30394 1.50212,-1.98111 -3.34475,-0.18669 -1.9904,-2.57496 -3.14645,-0.61229 -4.20718,-1.81355 4.53747,-1.28726 -0.77437,-2.56881 -1.29527,-1.0992 -4.52761,-1.07282 -1.26996,-1.7206 -4.20792,0.60943 0.37749,-1.17474 -2.14128,-1.27657 -3.79876,-1.34767 -2.5858,1.05799 -4.56798,0.77581 1.37732,-1.74595 -1.79138,-2.73045 -5.89181,1.07971 -3.30609,2.13591 -0.52771,-1.65337 z m 24.68394,70.5078 0.0905,-0.57973 -2.15013,-1.31846 -3.01051,-0.79006 -0.93158,0.26499 1.8567,1.48946 2.92331,0.99034 1.2217,-0.0565 z m -6.86721,8.11788 -0.45724,-1.5503 -1.21706,0.9839 0.33664,1.06895 2.83172,1.35697 0.98776,-0.20859 1.57971,-1.30966 -2.35369,0.0871 -1.70784,-0.42837 z m 3.08774,-78.48093 -2.66134,-1.4472 -4.49709,-0.28279 -1.09259,0.17452 -0.68616,0.94689 1.38989,1.40272 0.49847,0.16115 2.47163,-0.3568 2.18487,0.056 2.14405,0.0774 0.24827,-0.73183 z m -29.63738,-10.25909 -3.922,-0.15734 -1.62578,1.02017 1.63764,0.77559 3.8533,0.30715 1.11354,1.10358 -0.74538,1.26364 -0.38365,1.41131 4.75574,0.83379 3.04181,0.31999 4.19486,-0.0461 6.08463,-0.39963 2.38213,0.31541 3.38499,-0.55702 1.70925,-0.68671 0.25277,-1.06315 -1.49481,-0.96291 -3.12412,-0.17889 -4.22424,0.21651 -3.58115,0.55289 -2.76743,-0.21388 -2.61744,-0.11216 -0.81211,-0.60458 -1.84578,-0.57333 1.19707,-0.94659 -1.04926,-0.82344 -3.89626,0.006 -1.51832,-0.79988 z m 21.71783,26.51442 1.83487,-0.82826 0.44164,-0.38558 0.5923,-1.19586 -1.27853,-0.77052 -2.17529,0.38565 -1.74436,1.56375 -0.17854,1.37159 2.50791,-0.14077 z m -1.43577,-32.67282 -0.0745,-1.5132 -2.6782,-0.42754 -2.68161,-0.47986 -1.12492,-1.17861 -4.47426,0.11127 0.25404,0.50379 -2.09633,0.15479 -2.05255,0.6797 -2.39063,1.00519 0.1286,1.04017 1.33708,0.77394 3.52255,-0.0178 -2.11537,0.62555 -0.83734,0.85975 1.19078,0.97652 3.75369,0.30876 3.58722,-0.17356 5.12805,-1.79579 3.25441,-0.70012 -1.63069,-0.75293 z m -21.14935,36.88672 -1.45838,-0.23158 -2.2225,2.61133 -1.53891,2.25942 -2.72951,1.42693 3.18525,-0.27743 -0.14437,1.69316 3.99229,-1.49803 3.03131,-1.53475 0.56956,1.29782 3.12507,0.69517 2.4506,-0.90957 -1.10415,-0.95564 -1.75794,0.22428 0.51789,-1.36734 -2.06826,-0.89309 -1.89272,-0.98045 -0.87215,-0.7477 -1.37303,0.43976 0.28995,-1.25229 z m 7.87747,10.08362 -0.28196,-0.59845 -0.89381,-0.0638 -1.30615,0.87591 -0.20561,0.20193 0.16697,0.87349 0.88329,0.24924 1.63727,-1.53828 z m -4.4588,-41.85368 0.47636,-0.28049 -0.97545,-0.45394 -3.90105,-0.0357 -0.0897,0.68388 3.53584,0.15664 0.95398,-0.0704 z m -0.68541,40.24424 0.33554,-0.56328 -3.07689,-0.0276 -2.37383,1.34214 0.0865,0.78917 1.56379,0.0674 3.4649,-1.60785 z m -7.48914,-28.06722 2.82217,-0.51512 4.73205,-2.34523 -3.42782,-0.63593 -4.16933,-0.091 -2.55794,0.71205 -1.90807,1.1158 -1.01026,1.3131 -0.4159,2.33961 2.2971,0.0998 3.638,-1.99311 z m 5.44553,-13.48783 1.32612,-0.87262 -1.53096,-0.83141 -0.97373,-0.15743 -2.40544,-0.0949 -0.80444,0.98814 -0.0213,0.90538 1.06817,0.56462 3.34157,-0.50178 z m -2.01571,7.70987 -0.10364,-0.8132 -1.04174,-0.89628 -3.43297,0.68796 -1.9949,1.15648 1.91857,0.67355 2.78803,0.19297 1.86665,-1.00148 z m -5.60474,-8.35734 -0.36388,-1.13903 -4.32323,-0.86359 -3.42792,-0.3201 -0.82458,0.90372 1.73886,0.57318 -2.5967,0.71201 4.23108,0.0893 2.4371,0.78408 2.92775,0.27094 0.20152,-1.01052 z m -0.54305,3.94047 -0.43768,0.32873 -2.65885,-0.14457 -3.74041,0.85589 -2.0676,-0.0786 -1.58847,1.95866 3.44988,-0.19622 -1.29781,1.49385 1.82668,0.41193 3.5389,-0.2643 2.46934,-1.90294 1.02435,-1.29938 -0.51833,-1.16303 z m -9.83157,7.36811 -3.42759,1.27126 0.91423,1.73105 -3.9521,-0.32954 -0.70808,0.85062 3.57893,2.06455 0.68171,1.02822 1.84896,0.2255 4.17783,-1.04333 2.12734,-2.40806 -2.26677,-1.14296 2.87531,-1.26575 0.0507,-0.76175 -3.90036,0.33221 -2.00012,-0.55202 z m 0.53248,12.75334 -0.5844,-1.05303 -0.27953,-0.52187 -0.93132,-0.49354 -1.70167,-0.7756 -2.31902,1.18682 -2.47192,0.85173 2.0463,1.23895 1.94765,-0.30193 2.31208,0.83751 1.98183,-0.96904 z m -11.13823,-18.82002 0.46278,-1.19726 -1.76281,-0.28933 -2.69654,0.91217 0.57942,2.4244 -3.32252,-0.19404 -2.11927,-1.50361 -4.75147,-0.84992 -2.57788,0.70427 -5.18889,2.48607 2.36903,0.45938 9.38236,-0.30611 -5.2439,1.13971 -0.52094,0.84517 3.13705,-0.059 6.11406,-1.12132 7.18389,-0.40027 2.29362,-1.21647 0.76372,-1.24657 -1.98928,-0.10997 -2.16523,0.4242 0.0528,-0.90154 z m 3.04354,-5.90743 -1.98876,-0.48297 -0.91546,-0.10829 -2.77092,0.71433 -0.40559,0.34234 3.21882,0.002 2.86191,-0.46777 z m -22.30002,13.87503 -1.64295,-0.50995 -6.95522,1.61119 -2.39338,1.06026 -3.53773,2.00878 3.0232,0.71011 3.25791,-0.0377 -5.79159,1.08202 0.24649,1.00123 2.93994,0.0547 4.68079,-0.21642 3.55195,0.63607 -3.14323,0.47474 -2.87671,-0.12266 -3.65188,0.46643 -1.65276,0.29146 0.81291,2.17524 2.14453,-0.30811 2.30517,0.75177 0.12182,1.30604 4.02004,-0.26204 5.74774,-0.41524 4.72355,-0.9373 2.6059,-0.16763 3.12157,0.74538 3.55715,0.43478 1.44781,-1.01363 -0.59189,-1.05857 3.65002,-0.22106 1.10059,-1.20561 -2.8605,-1.29188 -2.51347,-1.34471 0.82499,-1.90351 0.76578,-2.6043 -1.4347,-1.06972 -1.6901,-0.4227 -2.13067,0.38694 -0.77944,2.72505 -1.94407,1.11247 0.45581,-2.62771 -1.15223,-0.86997 -3.47872,1.35703 -1.72046,-1.34185 -5.28561,0.80315 2.12165,-1.24256 z m 20.49785,-0.78773 -1.07917,-0.57853 -2.82626,0.10506 -1.00364,0.36816 1.68351,1.85068 3.22556,-1.74537 z m -1.50991,-10.89745 1.4006,-0.7297 -2.34769,-0.37978 -3.10512,0.24692 -2.4044,0.7765 2.0811,0.79246 4.37551,-0.7064 z m -11.89516,0.12663 -3.07521,0.3606 -2.96965,-0.0342 -5.78047,1.60258 -5.36774,1.87691 0,0 2.12764,0.54824 3.59234,-0.38811 4.80562,-1.07848 1.97851,-0.12258 2.41704,-0.867 2.27192,-1.898 z m -24.25021,16.20038 1.05277,-1.17431 4.26428,-1.87168 6.74086,-1.86391 3.1785,-0.66495 -1.18347,-1.10449 -1.27127,-0.75658 -5.0511,-0.14481 -2.37282,-0.53979 -7.25797,0.40598 0.40689,1.60144 -3.45785,1.73285 -3.28746,1.94154 -1.96359,1.13373 3.49261,1.42262 0.0293,1.1857 6.6803,-1.30334 z m -55.24501,67.65398 -0.0504,-1.74857 -1.73073,-1.30378 -0.35616,-1.49644 -0.20175,-1.08554 -2.11399,-0.33281 -1.2227,-0.47641 -2.16261,-0.68441 -0.65225,0.7266 -0.0789,1.71102 2.20228,0.56679 -0.081,0.89853 1.57539,1.10505 0.10447,1.12252 3.27486,1.43855 1.49342,-0.4411 z m -12.69541,-17.69832 -0.81673,0.98336 -0.47561,1.35853 0.57189,0.9645 -0.0506,1.42846 0.53558,1.42272 0.96551,0.006 -0.47802,-2.49946 3.0752,-3.51018 -2.47316,0.24658 -0.85402,-0.40055 z m 624.78424,114.77614 0.31852,-1.88678 0.96103,-1.43804 -0.84077,-1.24725 -1.60003,-0.0775 -2.85122,0.91589 -1.10366,1.48093 0.55014,2.81045 2.4338,1.01253 2.13219,-1.5702 z m -523.7481,-13.36213 -2.4075,-1.11478 -2.14794,-0.037 -2.33091,-0.23345 -0.7203,0.35952 -2.12469,0.31318 -1.5005,0.63783 -1.35405,0.72755 -0.77745,1.18041 -1.60469,1.01054 1.12913,0.31009 1.41413,-0.35767 0.51469,-0.79814 1.14505,-0.0456 2.2322,-1.70005 2.6658,0.16748 -1.15283,0.81746 0.86303,0.63811 3.50611,0.50697 0.72568,0.68612 2.43985,0.87704 1.57198,-0.12735 0.39741,1.86243 0.82568,0.94385 1.74735,0.21855 1.01326,0.8492 -2.08066,1.82355 3.99086,-0.31838 1.86932,0.25859 1.8772,-0.16231 1.88503,-0.41492 0.42058,-0.76572 -1.91677,-1.33802 -2.01383,-0.13466 0.31923,-0.92053 -1.55452,-0.6669 -0.91202,0.045 -1.51432,-1.47507 -2.04475,-2.02592 -0.86206,-0.76874 -2.61759,0.36959 -0.91619,-1.19782 z m 248.73475,-105.83176 -0.86003,-1.52928 -3.41516,1.01037 0.4062,1.26824 2.6016,1.73091 1.26739,-2.48024 z m -228.70966,121.26284 0.0425,0.93868 0.66005,0.51924 1.34022,-2.23635 0.96453,-0.46892 0.33799,0.7924 1.08359,-0.20128 0.5611,-0.59576 0.89401,0.15546 1.28444,-0.13698 1.24352,0.71045 1.16378,-1.32964 -1.23349,-1.19859 -1.2173,-0.11802 0.19411,-0.97377 -1.51861,0.0652 -0.37314,-1.15922 -0.73682,0.0821 -1.53965,-0.84125 -2.1524,-0.0151 -0.40951,0.5571 -2.33417,-0.51328 -1.66659,-0.14441 -0.7282,0.90249 1.68283,0.50968 -0.16341,1.24813 1.10521,1.41533 -1.07553,0.72724 -2.05902,-0.26216 -2.49531,-0.4536 -0.36152,1.05302 1.3712,1.01761 1.36147,-0.61049 1.66351,0.23614 1.33069,-0.22651 1.77988,0.55512 z m 696.21213,113.48875 1.95946,-0.8035 0.3784,-1.593 -1.86881,1.018 -0.92248,0.1793 -1.54753,0.6697 0.0595,1.2173 1.9415,-0.6878 z m -3.18203,1.7583 -0.82301,0.5384 -1.15872,-0.4038 -1.35249,1.1216 -0.10368,1.4359 1.41954,0.404 1.83461,-0.4488 0.9,-1.7052 -0.71625,-0.9421 z M 1.065751,309.32073 1.038904,307.75123 0.5,307.90213 l 0,0 0.378368,1.593 0.187383,-0.1744 z M 493.51025,66.39504 l -2.81241,0.25216 -1.85171,-0.23722 -1.88691,2.43652 -0.95647,3.12437 1.14268,1.54894 0.0505,2.94091 1.32114,-1.44489 0.75944,0.8414 -0.90115,1.36772 0.54748,0.83009 2.89149,0.54042 0.0358,0.0433 1.57364,1.89625 -0.38167,1.79346 -0.004,-3.3e-4 -3.57804,-0.27982 -0.50677,2.02934 1.29068,1.67426 -2.56318,0.96558 0.65847,1.24191 3.80152,0.52074 0.0192,0.003 -2.20024,0.67575 -3.67667,3.29592 1.29289,0.62843 1.75651,-1.20123 2.26822,0.35678 1.64705,-1.47179 1.13663,0.61801 4.18478,-0.86306 3.2806,0.029 2.19451,-1.64063 -0.98427,-1.61653 1.23429,-0.91441 0.27907,-1.98939 -2.93611,-0.59122 -0.69064,-1.22413 -1.47747,-3.51568 -1.63662,-0.49375 -2.0927,-3.6128 -0.1847,-0.32054 -2.4491,-0.19447 2.1642,-2.72382 0.64097,-2.46276 -2.56612,-0.0157 -2.39562,0.41315 2.56102,-3.2528 z m -6.5633,12.38609 -2.49877,-1.89705 -2.00341,0.12632 -1.86486,1.43296 -3.37519,2.41134 1.10972,3.1465 -2.12235,3.24945 3.42898,0.47185 4.38428,-1.84224 1.91982,-2.77379 -0.32884,-2.20919 1.35062,-2.11615 z m 76.10789,60.231 -0.38906,1.389 3.27277,0.63746 0.0134,0.53947 3.7903,-0.27794 0.25463,-0.96436 -1.41021,0.39224 0.0197,-0.56884 -1.98443,-0.23198 -2.04291,0.18621 -1.52419,-1.10126 z M 451.55817,0.74007 437.26647,0.5 l -6.48157,0.18365 -2.74063,0.71667 -6.31479,-0.0884 -6.90142,1.19392 -0.81421,0.88234 3.72985,1.13975 -3.44938,-0.69135 -2.4935,-0.16595 -3.88644,-0.77764 -5.68114,1.14991 -1.55881,-0.65436 -5.68082,0.0185 -5.93225,0.3291 -4.82779,0.55731 0.0267,0.96785 -2.89678,0.23372 -7.6847,1.54898 -2.32716,0.90341 4.54537,0.82479 -1.31898,0.84563 -7.81571,1.13148 -8.12482,1.14868 -0.92514,0.93816 3.72944,0.99542 7.98369,0.63887 -4.03316,0.13026 -5.66027,0.77867 2.45963,1.57171 1.82883,0.80293 4.96676,-0.18567 5.37595,-0.10187 4.12743,0.18394 4.60437,1.48666 -0.54648,1.07277 2.09207,1.00147 1.19167,2.76402 0.83645,1.82281 0.83635,0.98859 -3.35501,2.49288 1.46653,0.66761 2.23184,-0.37901 1.50361,0.92347 2.95041,1.72196 -4.01617,-0.72255 -1.9635,0.0392 -1.39724,1.44739 -0.58816,1.85927 2.26625,0.89772 2.0601,-0.39236 1.30932,-0.40894 2.78019,-0.97127 -1.22244,2.14692 -1.26017,1.15573 -3.60355,1.03166 -3.33244,3.26315 1.09213,0.99076 -1.5311,2.08083 2.13224,2.62371 -0.56676,2.57256 0.51001,1.87723 2.74973,3.60932 0.64646,2.85811 1.73986,1.61399 4.56883,0.0152 2.73348,2.41512 3.28969,-0.18079 1.91577,-2.88486 1.65186,-2.42739 -0.31098,-2.28021 4.27605,-2.32097 1.62324,-1.89387 0.55779,-2.01122 2.35643,-1.76538 3.33472,-0.66461 3.09841,-0.6971 1.54452,-0.11688 5.17087,-1.98121 3.69262,-2.96243 2.46978,-1.07448 2.3773,-0.0118 6.48523,-0.96012 6.21661,-2.17996 6.09264,-2.38894 -2.88861,-0.149 -5.54651,-0.1159 2.71478,-1.43149 -0.37406,-1.83628 2.30398,1.55342 1.43934,1.04765 3.83917,-0.52419 -0.4433,-2.17941 -2.44738,-1.64151 -2.67644,-0.6683 1.19711,-0.7133 3.89899,1.10359 0.17304,-1.18711 -2.25998,-1.79398 2.85891,-0.008 2.9567,-0.40786 0.81989,-0.92631 -2.18294,-1.06241 4.54149,-0.18691 -2.25478,-2.22435 2.18955,-0.23751 -0.11011,-2.16395 -3.42385,-1.33289 3.39591,-0.78939 3.09898,-0.10269 -2.07938,-1.61121 0.44465,-2.68931 1.84714,-1.53115 2.55809,-1.68441 -4.3723,-0.10934 6.1366,-0.39268 1.16352,-0.51851 7.91745,-1.57403 -0.90404,-0.92218 -5.48506,-0.41168 -9.2075,0.82859 -4.96913,0.80873 2.39643,-1.25904 -1.32008,-0.75899 -3.79295,0.64709 -5.32616,-0.72796 -6.62933,0.23135 -0.77414,-0.37385 9.99732,-0.20307 7.07217,-0.0912 3.62439,-0.78809 -10.81144,-1.5654 z m 426.0717,258.59093 -0.4312,-1.2088 -4.50554,-1.33569 -1.44708,1.06005 -3.79655,0.78793 1.17009,1.60934 2.50193,0.6005 1.07452,1.9365 4.1146,0.01 0.21397,0.8629 -2.00294,-0.063 -3.05993,1.1714 2.09526,1.598 -0.044,1.4134 0.58805,1.1929 1.09053,-0.2868 0.89312,-1.5809 4.08986,3.0061 2.30311,0.2721 5.29431,2.7551 1.1722,2.7316 0.4656,3.5389 -1.84005,0.9037 -1.42438,2.6491 3.55995,-0.1001 0.77536,-0.9274 2.78666,0.6547 2.23259,2.6721 2.88298,0.1358 1.51129,0.5445 2.31735,-1.1193 -0.11975,-2.4013 1.81175,-1.0748 2.45835,-0.9283 3.52663,1.4234 1.17137,2.8491 1.39516,1.7906 1.93521,2.0777 2.76674,0.4902 2.35832,0.3659 0.58142,0.8443 1.88116,-0.2272 0.42956,-0.9415 -2.80754,-1.3703 0.91176,-0.6143 -2.09779,-0.5533 0.27302,-1.4424 -1.61586,0.1082 -1.46774,-3.4529 -2.30834,-2.1356 -0.43974,-2.1688 2.60944,-0.3503 -0.55251,-1.7259 -4.54092,-2.011 -0.31161,-1.9168 -1.47539,-1.6356 -1.85676,-1.6667 -5.11835,-1.8616 -4.80141,-2.2412 -2.99996,-0.6216 -2.05611,-1.1636 -2.38046,-1.1339 -2.49917,0 -3.26846,1.963 -2.45499,3.4503 -2.84424,-1.947 -0.67441,-5.26053 z m 0.98108,16.46903 0.10658,-1.5516 -0.58108,-0.9518 -0.65392,1.0998 -0.57325,1.1695 0.10179,2.4498 1.59988,-2.2157 z m -11.44428,-10.1527 -3.06343,-0.9486 -3.47526,0.135 -0.72303,1.7884 1.93997,0.1146 1.59397,-0.2148 2.33765,0.2721 2.32129,1.3408 -0.93116,-2.4875 z m -4.87255,-13.74573 -0.28162,-1.3284 -1.6644,-0.28531 -0.23628,-1.77613 -0.90883,1.18364 -0.5278,2.59866 0.85074,4.15765 1.12229,2.06009 0.79052,-0.39027 -1.14918,-1.71705 0.42668,-1.97907 1.45116,0.3185 0.12672,-2.84231 z m -4.22224,14.93393 -0.66263,-1.0726 -2.84789,0.156 0.49951,1.3991 1.91957,0.5973 1.09144,-1.0798 z m -5.48268,-15.86886 -0.50172,-0.72669 -2.74884,2.36183 -3.23186,0.1363 -3.54869,-0.45128 -2.2066,-0.96039 -2.36815,2.41575 -0.58497,1.34073 -1.4411,4.90274 -0.44339,2.58237 -1.2115,2.1302 0.80624,2.2283 1.18078,0.024 0.31555,3.1393 -0.9459,2.9947 1.15579,0.9551 1.80584,-0.4723 0.10137,-4.6546 -0.10955,-3.7929 1.90094,-0.9887 -0.30391,3.1697 1.9537,1.9076 -0.41781,1.256 0.65747,0.9005 2.81362,-1.2596 -1.48406,2.6638 1.03982,1.1442 1.55035,-0.9566 0.1297,-2.1372 -2.37459,-3.7548 0.55,-1.1172 -2.55638,-4.1686 2.49556,-1.2608 1.24348,-1.90566 1.22024,0.47247 0.24348,-1.49789 -5.25119,1.10677 -1.53477,1.47321 -2.48949,-2.89226 0.40317,-2.46178 2.4549,-0.46825 4.6844,-0.16236 2.70798,0.63599 2.11091,-0.6254 2.22918,-3.2263 z m -3.89567,37.61296 2.06433,-2.4322 2.43201,-0.9351 3.0476,-1.4252 1.10767,-0.8821 -1.02702,-0.4036 -0.91032,0.4066 -1.9644,0.1102 -2.47497,0.7318 -0.39689,0.7681 -2.88641,1.2934 -1.39299,1.9865 -0.3624,1.1072 0.2958,0.3909 2.46799,-0.7165 z m -3.6896,-6.6613 -2.6085,1.1928 -1.88592,0.2478 -1.67657,-0.976 -2.28006,0.6768 -0.089,1.1902 3.69163,0.4013 4.28869,-0.9242 0.5597,-1.8087 z m -6.75258,6.9856 0.25365,-0.8791 -0.88499,-0.9892 -1.38021,-0.9918 -2.66893,0.6403 3.49755,2.2819 1.18293,-0.062 z m -7.27286,-6.9809 -0.84093,1.1512 -1.53848,0.026 -1.11621,1.8746 1.50356,0.026 1.97721,-0.4371 3.2935,-0.6538 -0.58299,-1.3841 -1.75256,0.2659 -0.9431,-0.8682 z m -25.7251,-4.2899 -0.31702,-1.1576 -1.1502,-0.248 -2.19785,-1.2717 -3.3962,-0.1922 -2.09312,3.1094 2.55338,0.2392 0.40153,1.3995 5.02667,1.3403 1.19334,-0.4071 2.03642,0.3225 3.16079,1.2433 2.58047,0.5844 2.88988,0.2411 2.54312,-0.089 2.97918,1.3116 3.29512,-1.2404 -3.29425,-1.9346 -4.16477,-0.5934 -0.88231,-2.1097 -5.11149,-1.5649 -0.69746,1.3414 -5.35523,-0.3244 z m -7.71105,-3.0112 0.32799,-5.0327 0.83185,-4.046 -1.31951,-2.0588 -2.058,-0.2876 -0.94808,-1.8151 -0.44938,-2.26873 -1.00913,-0.0834 -1.60308,-1.12947 1.13339,-2.65556 -2.14523,-1.48578 -1.6485,-2.72341 -2.39372,-2.228 -2.85847,-0.051 -2.73663,-3.49652 -1.58594,-1.35329 -2.24125,-2.20567 -2.60207,-3.1817 -4.37258,-0.62858 -1.81317,-0.13116 0.31264,1.65623 3.05159,3.58488 2.1662,1.8219 1.5313,2.78311 2.56911,2.04811 1.06511,2.53899 0.83938,2.79625 2.46416,2.71087 2.08869,4.55323 1.34811,2.438 2.05844,2.649 1.13957,1.9718 3.50481,2.6582 2.24082,2.72 3.11158,-0.068 z M 468.80035,43.62345 l -3.60331,-0.20015 -3.73971,1.50743 -2.65858,-0.80059 -3.53552,1.54336 -3.1442,-1.92175 -3.37869,0.41822 -1.77632,1.84722 4.52221,0.66204 -0.0265,0.83753 -4.00046,0.55398 4.62207,1.40137 -2.37408,1.27111 6.11007,0.91315 2.89502,0.42555 1.98972,-0.52695 6.63943,-1.97364 3.08376,-2.18364 -2.30899,-1.94183 0.68413,-1.83241 z m 72.25715,87.14552 -1.96983,0.28439 -2.65055,0.35489 -3.0728,-0.2979 -0.29764,1.67362 3.7305,1.65835 1.351,0.35207 2.06732,1.22933 0.47046,-1.67827 -0.44215,-1.01067 0.81369,-2.56581 z m -16.79971,-9.68169 -1.25819,1.0051 -1.4255,-0.16222 0.64507,1.85501 0.21863,3.9211 1.01137,0.86309 1.0288,-1.08635 1.18996,0.20527 0.21867,-4.29817 -1.62881,-2.30283 z m -236.75461,76.29988 1.95355,-0.0608 -0.35904,-0.89434 -1.38117,-0.78446 -1.8282,-0.29287 -0.61729,-0.11007 -1.18968,0.22764 -0.41909,0.74658 1.44695,1.19004 1.49182,0.52408 0.90215,-0.54576 z m 578.99525,-85.8735 -2.56717,-1.08131 -4.90798,-3.34095 0.69535,2.49992 1.7463,4.45162 -2.63073,0.17913 0.0643,2.48403 2.02908,3.21622 2.83899,-0.0487 -0.46881,-3.53916 5.21617,2.20996 0.50736,-3.20956 3.30111,-0.88321 -2.62732,-3.61545 -1.01645,1.36366 -2.18025,-0.6862 z m 4.02976,22.80616 -1.58903,-3.36463 0.85415,-3.27826 -1.21614,-2.63589 -3.6883,-4.50002 -2.43672,0.59483 -0.0593,2.0488 2.23502,3.65327 0.24097,3.98055 -0.90734,1.26605 -2.3953,3.26219 -2.43336,-1.55835 -0.27861,5.80501 -3.0986,-0.6682 -4.85979,0.97456 -1.05396,2.2351 -2.01366,1.69085 -0.61889,2.05669 -2.14438,1.00833 1.89477,2.24484 2.03018,0.95227 0.37738,2.9515 1.73348,1.27306 1.2587,-1.37825 -0.21642,-5.56533 -3.59821,-2.40792 3.08659,-0.0627 2.5477,-1.54087 4.32649,-0.72154 1.07264,2.4452 2.27387,1.25747 2.30744,-3.73452 4.57662,-0.20052 2.7426,-1.53844 0.39247,-2.30326 -1.17283,-1.63678 -0.17024,-2.60506 z m -12.61461,9.77905 -2.22491,-0.70559 -0.55705,1.37501 -1.65598,-0.37847 -0.72769,1.95238 0.55728,1.55233 2.08198,0.93241 -0.005,-1.91501 1.0767,-0.76066 1.49078,1.04998 0.74054,-1.98049 -0.77651,-1.12189 z m -129.46915,91.32651 1.13846,-0.92626 0.26738,-3.38896 -1.53374,-3.38925 -1.43681,-2.29291 -2.04613,-1.80945 -0.96264,5.2853 0.72078,4.67855 1.44103,2.58742 2.41167,-0.74444 z m -88.40833,64.28495 -0.57579,-2.1532 -0.67048,-1.3868 -0.90595,-1.399 -0.99503,1.4578 -0.15003,1.96 -1.65593,2.2656 -1.163,-0.392 0.30469,1.3936 -0.92646,1.6407 -2.40416,2.009 -1.69298,1.8592 -1.22323,0.044 -1.06343,0.5903 -1.58874,0.669 -1.39126,0.1203 -0.49503,2.0703 -1.08075,1.8265 0.0293,3.0092 0.38626,2.0601 0.53386,1.5471 -0.39732,2.0816 -1.49989,2.4783 -0.0893,1.0884 -1.30994,0.5663 -0.67377,2.358 0.064,2.3539 0.74914,2.6088 -0.0701,2.9021 0.59906,1.7277 2.05733,1.1714 1.49042,0.8362 2.51291,-1.3851 2.29378,-0.7755 1.59541,-3.7965 1.46129,-4.5501 2.22323,-6.1962 1.71581,-4.5041 1.37177,-3.808 0.369,-2.7659 0.81693,-0.7541 0.33939,-1.384 -0.37334,-2.4177 0.58304,-0.9656 0.82259,1.9121 0.55324,-0.96 0.37502,-1.5646 -0.6279,-1.5258 -0.22367,-3.9232 z M 548.62991,7.28861 543.7027,6.72698 l -1.74009,0.67391 -2.8724,-0.54177 -5.70287,0.6296 2.28266,1.04882 2.74221,0.0404 0.47422,0.63786 5.73243,0.38892 5.48335,-0.27491 2.47509,-1.24334 -3.94739,-0.79782 z m 0.14214,6.01051 -2.93728,-0.54865 -0.97199,-0.90582 -3.92067,0.48226 1.33156,0.77449 -1.22424,0.6296 3.56984,0.56964 4.15278,-1.00152 z m -13.43214,-4.39643 -2.55307,-0.80357 -2.77675,0.0796 -0.59465,0.78751 -2.71506,0.0323 -1.15945,-0.80689 -5.09136,0.82544 1.69657,1.8381 4.01694,2.02779 3.01767,0.70469 -1.66267,0.87201 4.43823,1.51264 2.36734,-0.0972 0.61455,-2.0484 1.63794,-0.46136 0.76198,-1.77885 4.67239,-0.93721 -6.6706,-1.74659 z m 425.24566,364.72904 0.80823,-2.911 -1.61533,-0.8477 -0.50912,-1.8167 -1.11409,0.2566 -0.0845,2.3151 0.54392,2.8913 0.52601,1.3482 -0.38706,0.5754 -0.15528,2.1863 -1.07986,2.1084 -1.90098,2.5077 -2.55349,1.1355 -0.776,1.1783 2.00758,1.3004 -0.25298,1.7872 -3.16744,2.668 0.77711,0.4668 -0.104,0.8499 2.82153,-1.2914 2.69011,-2.2208 2.0718,-1.7495 0.75581,-0.6044 0.61636,-1.3985 1.29462,-0.9887 1.9468,0.067 1.93743,-1.8993 2.33922,-2.8917 -1.10882,-0.3768 -2.21867,1.2435 -1.61612,-0.2607 -1.49585,-1.0625 0.99974,-2.4679 -0.69346,-0.8903 -1.29645,2.2287 -0.007,-3.4363 z m -13.17882,15.507 0.27954,-1.3792 -2.73848,1.4993 -1.51416,1.8095 -1.49324,0.8193 -2.68377,2.4107 -2.6254,1.6759 -3.29819,1.6888 -2.64253,1.2257 -2.04586,0.6056 -5.32251,3.1712 -2.98601,2.3768 -0.39392,1.1746 2.57687,0.2246 0.88037,1.0531 2.26386,0.068 1.90746,-0.9116 2.9946,-1.4287 3.70875,-3.2431 2.12267,-2.1036 2.99992,-1.2127 1.99221,-0.04 0.10343,-1.5502 2.1707,-1.2977 3.23847,-2.3807 1.92592,-1.4986 0.86901,-1.363 0.11766,-1.3694 -2.66139,1.3138 0.25402,-1.3386 z m -92.75425,-160.93111 -0.30085,-1.19738 -0.38499,-1.6397 -2.41786,-1.5444 0.40339,2.51823 -1.97196,0.0866 -0.33023,1.45291 -2.05641,0.89148 -1.11412,-1.47377 -1.425,1.22663 -1.69239,0.91566 -0.89617,2.74345 0.52998,0.95262 1.94785,-1.81597 1.32882,0.12531 0.77912,-1.34969 1.89225,1.53933 -0.74588,1.54752 0.9412,2.35541 3.41381,1.88844 0.71565,-1.52497 -1.05057,-2.39782 1.19476,-1.65084 1.25195,3.31767 0.75305,-2.97809 -0.30333,-1.82592 -0.46207,-2.16268 z m -3.71529,-12.20774 -0.92032,-1.21574 -2.68943,-0.0718 2.01023,2.48842 0.18007,1.23364 -1.67433,-0.25997 0.65827,1.97249 0.86023,0.16919 0.35712,2.2909 1.25573,-0.72973 -0.89978,-2.01015 -0.18073,-1.09347 2.25412,0.86443 -1.21118,-3.63818 z m -3.5586,6.13776 -0.0658,-3.10751 -1.73407,3.14462 0.22011,-2.193 -1.52119,0.19141 -0.0977,2.02188 -0.61141,0.91231 -0.49234,0.87177 1.9318,2.25067 0.79222,-0.96408 0.68069,-2.05755 0.89772,-1.07052 z m -11.22722,-26.82722 -1.67572,-0.004 -0.3795,2.9595 0.54952,5.10702 -1.2874,-1.07398 0.58428,3.12408 0.62491,1.42068 1.64138,1.87417 0.19289,-1.17546 0.93853,0.75436 -0.75354,0.82962 0.043,1.34798 1.48364,0.7205 2.46662,-0.4819 2.03444,1.9518 0.55915,-1.19678 1.25573,1.71286 2.37825,1.59996 0.0982,-1.50217 -1.01234,-0.78318 0.026,-1.77482 -3.73216,-1.80794 -1.17749,0.38593 -1.52675,-0.3593 -0.99823,-2.59783 0.0372,-2.63046 1.46577,-1.08161 0.28259,-2.71278 -1.35123,-2.34045 0.20844,-1.35407 -0.40292,-0.82989 -0.69877,0.85057 -1.87459,-0.93261 z m 4.78465,21.57239 0.6097,1.55072 -0.0167,1.66202 0.25679,1.51365 1.67463,-0.97816 1.14534,-1.38331 -0.099,-1.361 -1.77759,0.005 -1.7932,-1.00872 z m -1.46323,-3.83887 -1.12042,-1.17398 -2.40407,-0.11971 1.73931,2.48379 1.39274,1.62614 0.39244,-2.81624 z m -7.12828,12.22791 1.2634,-2.23814 1.67057,-1.79347 -0.77785,-2.65628 -1.12867,3.23607 -1.46506,2.25308 -1.84447,2.01113 -1.18661,2.27707 3.46869,-3.08946 z m 105.47987,52.49898 0.46859,-0.9112 -1.23752,-1.1043 -1.21022,-2.0626 -0.80069,-0.738 -0.23968,-0.9681 -0.40841,0.3146 0.43472,2.4784 1.06943,2.0667 1.11031,1.2499 0.81347,-0.3254 z m -7.16386,-7.549 -0.24951,-1.6916 -1.01905,-1.0411 -1.06669,-1.3661 -1.15068,-0.7808 -0.9306,-0.7156 -1.48878,-0.9107 -0.80592,0.7855 1.99651,0.9561 1.54426,1.3878 1.22528,1.0659 0.59262,1.257 0.42502,1.9204 0.92754,-0.8668 z m -3.44348,3.1822 1.06817,-1.986 0.15716,-1.8046 -0.53984,-0.5341 -1.68571,0.062 0.20541,1.9171 -1.63695,1.1603 -0.86341,1.1132 -1.61836,0.2485 -0.16357,-1.7273 -0.40785,0.081 -0.52157,1.5598 -1.55304,0.2545 -2.48612,-0.475 -0.29949,1.0067 1.5397,0.9076 2.23148,0.9452 1.49054,0 1.49731,-0.7614 1.59219,-0.7908 0.50572,-0.9126 1.48823,-0.2675 z m -48.67748,-241.90324 -2.45024,-1.84775 -1.17332,1.12546 1.50159,0.86085 2.12197,-0.13856 z m -25.74383,59.10666 -3.18238,-3.1577 -2.09783,-3.06401 -2.98985,-2.98522 -2.1216,-2.03895 -0.74844,0.43226 1.99992,1.42889 -1.20007,1.42287 2.77299,4.24638 3.5335,3.07351 2.68788,4.20399 0.97138,2.38802 2.44134,3.42181 1.62327,3.10184 2.06936,2.68078 0.16618,-2.4729 3.0671,1.92551 -1.28238,-2.23163 -4.45725,-3.26239 -1.39721,-4.57713 4.34675,1.04337 -6.20266,-5.5793 z m -48.83622,-70.36014 -5.87794,-0.67181 -4.21418,-0.38614 0.53006,0.82944 4.97424,1.01654 3.5103,0.23124 1.07752,-1.01927 z m -8.74732,4.87959 -1.0232,-0.69278 -4.03021,-1.00358 -2.27962,0.24238 -0.79585,1.03881 0.5109,0.13948 4.52669,0.29417 3.09129,-0.0185 z m -4.09946,-6.10555 -8.85913,-1.34689 -5.39121,-0.11086 -2.06677,0.47468 0.94984,1.75293 5.89258,1.67585 2.65546,-0.61075 7.52398,0.0715 -0.70475,-1.90642 z m -86.55507,-6.8205 -0.42275,-0.97457 -6.28593,-1.34358 -1.60198,-0.15262 -1.30154,0.26367 -0.45227,3.14181 10.06447,-0.93471 z m -11.31647,-1.37333 -1.69269,-2.10607 -6.76271,-2.19511 -4.91143,-1.11088 -3.49109,0.49537 -3.27834,1.52678 3.04048,0.44922 3.09848,1.65596 4.04863,0.89682 6.02863,0.68452 3.92004,-0.29661 z m -71.77621,20.97659 -4.92966,-2.21808 -1.35094,-2.22647 2.12615,-2.55087 1.87238,-2.55653 5.06811,-2.45894 5.47646,-1.21807 6.35156,-1.25607 0.86682,-0.78238 -1.97198,-0.98609 -3.64897,0.32356 -2.85752,0.92791 -6.35331,0.471 -5.75931,1.62899 -3.85105,1.35205 1.08068,1.17148 -3.86378,2.28729 2.01405,0.32085 -3.13666,2.25209 0.65066,1.45239 -1.89625,0.57402 0.86272,1.45113 4.06429,0.72348 1.02883,1.20268 7.01365,0.35295 1.14307,-0.23837 z m -24.43052,-24.83078 0.53,-0.34154 -3.07606,-0.48741 -1.56202,0.36634 -0.78518,0.53615 -0.71798,-0.60304 -2.84449,0.0269 -3.46549,0.40708 4.23523,0.0682 -0.70916,0.70527 2.3341,0.54095 2.02191,-0.37764 0.0637,-0.37273 1.60724,-0.17155 2.36823,-0.29701 z m -471.61512,24.36251 3.00895,-0.64923 0.66297,-0.36947 -2.00216,-0.77132 -1.76029,-0.006 -0.41817,0.11285 -2.45025,1.84775 2.95895,-0.16495 z m -6.87827,11.92505 2.25097,-1.74872 -2.31241,-2.77763 -2.61543,-2.1171 -13.62039,11.20004 2.67403,-1.21094 0.58997,-1.33748 3.42762,-0.6734 -1.7248,1.05418 0.027,0.99541 2.93711,-0.36934 1.69813,0.46579 -0.9283,1.23824 1.99857,0.83486 0.57067,1.00063 1.98876,0.086 1.55397,-0.59772 3.18754,-2.7934 3.9433,-0.29455 3.57157,-1.2379 -1.25757,-2.64298 -5.4129,-0.4192 -1.89479,2.04779 -0.65259,-0.70255 z m 714.34627,138.03429 0.41344,-5.2479 -0.0161,-1.97532 -1.49064,-0.97535 -1.56809,2.47866 -0.84413,3.21513 0.86674,2.42624 2.05708,2.76218 0.58166,-2.68364 z m -692.22193,-110.3264 3.24906,-1.43569 -0.19261,-0.93524 -1.37721,-0.20327 -1.64524,0.45877 -3.05265,1.07163 -0.85066,1.4164 0.54124,0.78214 3.32807,-1.15474 z m -23.92368,-19.71332 -1.31688,1.08835 0.25793,0.25488 2.15843,-0.168 0.29072,0.52534 1.03833,0.63091 2.3536,-0.61399 0.52003,-0.31552 -1.81424,-0.38674 -0.9893,-0.76257 -1.7159,0.29687 -0.78272,-0.54953 z m 2.26645,11.33717 0.89283,-1.13745 -1.55786,-0.26808 -2.76976,0.50662 0.60215,0.80564 0.96818,0.55536 1.86446,-0.46209 z m -48.386307,130.82484 1.007704,-0.51051 1.24953,-0.69786 0.1109,-0.18114 -0.419266,-1.14514 -0.337531,-0.43771 -0.418151,-0.28349 -0.914919,-0.55226 -0.194094,-0.0605 -0.238235,0.30485 0.02643,0.64282 -0.613718,0.53299 -0.228729,0.36369 0.161969,1.18974 -0.301324,0.91324 0.574333,0.46787 0.535105,-0.54658 z m -0.196846,-5.10032 0.333789,-0.39257 -0.586958,-0.5016 -0.895671,-0.31076 -0.344945,0.28032 -0.03012,0.20423 0.24585,0.26582 0.292934,0.68852 0.98512,-0.23396 z m -1.404811,-1.74236 -1.316274,-0.13976 -0.314529,0.39833 1.44963,0.095 0.181173,-0.35353 z m -2.332339,-0.47525 -0.494823,-1.08107 -0.170992,-0.21011 -0.861623,0.45083 0.07043,0.1306 0.144385,0.74157 0.926254,0.11494 0.185425,0.0421 0.200944,-0.18885 z m -4.04798,-2.15811 0.163079,-0.762 -0.612919,-0.0695 -0.512,0.32053 -0.211023,0.23838 0.75431,0.59645 0.418553,-0.32387 z m 903.808093,125.2636 -1.33331,-1.8749 -0.29181,0.8751 0.61366,1.4291 1.01146,-0.4293 z m -0.98613,-5.0002 -1.13228,-1.0028 -0.44707,2.4995 0.2099,0.9008 0.6156,-0.1768 0.66051,0.4092 0.0933,-2.6299 z m -440.40866,-186.1692 -0.53502,-2.77057 -1.60617,1.23308 -0.47847,1.20108 0.66517,2.17758 1.19147,0.65953 0.76302,-2.5007 z m -13.40965,7.49206 0.071,-0.18088 -0.0189,-0.0641 -0.23736,-0.37408 -0.43401,-0.13879 -0.53295,0.0392 -0.0196,0.0863 -0.004,0.19527 0.0643,0.0573 0.26125,0.0419 0.80362,0.37556 0.0471,-0.0376 z m -2.97852,0.16821 0.0331,-0.15107 0.0827,-0.0806 0.019,-0.0925 -0.0828,-0.0581 -0.007,-0.0536 0.0846,-0.11978 -0.10116,-0.0306 -0.65656,0.20212 -0.30921,0.17374 -1.06709,0.78577 -0.002,0.13335 0.064,0.10303 0.16777,0.0322 0.10731,0.171 0.19698,-0.17163 0.15051,-0.083 0.17324,0.0457 0.119,0.10367 0.065,0.32519 0.0787,0.0819 0.26136,0.0543 0.45157,0.21822 0.21152,-0.10403 0.23251,-0.17358 0.12213,-0.29408 0.14199,-0.25562 0.16855,-0.23241 0.11978,-0.22952 -0.036,-0.20632 -0.13829,-0.0522 -0.13979,-0.0306 -0.26129,0.0976 -0.24992,-0.10855 z m -4.39929,2.83413 0.12827,-0.045 0.33447,-0.34594 -0.0281,-0.1581 -0.12747,-0.10946 -0.56127,0.13091 -0.11931,0.16159 -0.006,0.16081 -0.11334,0.0272 -0.0848,0.2263 0.0879,0.0809 0.3966,0.0707 0.0935,-0.19993 z m 0.39186,0.80287 -0.004,-0.0957 -0.25003,-0.034 -0.15879,-0.18328 -0.0495,0.093 -0.0393,0.0919 0.0106,0.13164 0.2588,0 0.17292,0.0396 0.0591,-0.0431 z" />
</svg>
