<?xml version="1.0" encoding="UTF-8" standalone="no"?>
<svg
   xmlns:dc="http://purl.org/dc/elements/1.1/"
   xmlns:cc="http://creativecommons.org/ns#"
   xmlns:rdf="http://www.w3.org/1999/02/22-rdf-syntax-ns#"
   xmlns:svg="http://www.w3.org/2000/svg"
   xmlns="http://www.w3.org/2000/svg"
   xmlns:sodipodi="http://sodipodi.sourceforge.net/DTD/sodipodi-0.dtd"
   xmlns:inkscape="http://www.inkscape.org/namespaces/inkscape"
   enable_background="new 0 0 1000 2001"
   height="505.70035"
   pretty_print="True"
   style="fill:#483737;stroke:#ffffff;stroke-linejoin:round"
   version="1.1"
   viewBox="0 0 1001 505.70035"
   width="1001"
   id="svg2"
   inkscape:version="0.48.4 r9939"
   sodipodi:docname="robinson_joined.svg"><sodipodi:namedview
   pagecolor="#ffffff"
   bordercolor="#666666"
   borderopacity="1"
   objecttolerance="10"
   gridtolerance="10"
   guidetolerance="10"
   inkscape:pageopacity="0"
   inkscape:pageshadow="2"
   inkscape:window-width="640"
   inkscape:window-height="480"
   id="namedview19"
   showgrid="false"
   inkscape:zoom="0.11794103"
   inkscape:cx="500.5"
   inkscape:cy="251.85018"
   inkscape:window-x="0"
   inkscape:window-y="0"
   inkscape:window-maximized="0"
   inkscape:current-layer="svg2" />

utf-8<defs
   id="defs4">
utf-8utf-8<style
   type="text/css"
   id="style6">path { fill-rule: evenodd; }utf-8utf-8</style>

utf-8
utf-8utf-8
utf-8</defs>

utf-8<metadata
   id="metadata8">
utf-8utf-8<views
   id="views10">
utf-8utf-8utf-8<view
   h="2001.0"
   padding="0"
   w="1000"
   id="view12">
utf-8utf-8utf-8utf-8<proj
   flip="auto"
   id="robinson"
   lon0="65.3146660706" />

utf-8utf-8utf-8utf-8<bbox
   h="2660.36"
   w="5271.17"
   x="-2635.59"
   y="-1308.06"
   id="bbox15" />

utf-8utf-8utf-8</view>

utf-8utf-8</views>

utf-8<rdf:RDF>
  <cc:Work
     rdf:about="">
    <dc:format>image/svg+xml</dc:format>
    <dc:type
       rdf:resource="http://purl.org/dc/dcmitype/StillImage" />
  </cc:Work>
</rdf:RDF>
</metadata>

utf-8<path
   inkscape:connector-curvature="0"
   id="---"
   data-name="---"
   data-id="---"
   d="m 602.055,110.54613 1.11205,0.94115 1.47927,0.35341 1.69391,1.1332 1.04383,2.10291 -0.13268,1.32219 -2.74168,1.62241 -2.26595,-0.27754 -2.91867,0.48048 -3.8934,-1.20382 -4.83632,-2.1824 -4.22832,0.0657 -2.85674,0.87387 -2.804,2.01336 -4.9614,-0.41194 -0.78284,2.37394 -3.96417,0.12558 -2.53837,3.02539 1.80883,1.52665 -1.0132,2.50057 2.08895,1.79278 1.87196,3.22308 2.86608,-0.0584 2.7229,1.72618 1.78168,-0.38441 0.46336,-1.34512 2.84776,0.10892 2.32711,1.73982 3.9593,-0.3642 1.58545,-1.86611 2.29252,0.74612 1.56996,-0.27616 -0.84395,1.21779 1.1519,1.46878 -0.48373,1.3305 0.54352,2.46377 -0.0366,0.1119 -1.05778,2.25607 -0.65652,2.59633 -0.07,0.033 -0.29376,0.80488 -0.28677,2.39448 -0.55607,1.48125 0.20147,0.17967 -0.67644,1.04357 10e-6,1e-5 -1.24454,0.79779 -2.1131,-0.17929 -2.2243,-0.7483 -0.52828,1.03483 -0.87659,-1.57094 -1.94545,-0.39995 -2.34373,0.26121 -1.02654,0.90758 -1.98568,1.00337 -1.28569,-0.49318 -2.74368,-0.93587 -2.64968,-0.83758 -3.56653,0.0524 -0.73139,-1.04632 -2.69019,-0.37186 -0.89162,-0.5409 -0.99797,-0.0134 -1.01266,-1.41878 -3.65999,-0.65002 -1.81107,0.43336 -1.83396,1.4873 -0.74785,1.54198 0.76687,2.42646 -1.20832,1.45684 -1.26982,0.82202 -2.95058,-1.57514 -3.85586,-1.3258 -2.44033,-0.6147 -1.38565,-2.81692 -3.61293,-1.41843 -2.25439,-0.53017 -1.11092,0.27342 -3.17756,-1.09442 -1.03225,-0.49763 -0.72374,-1.5155 -1.37856,-0.0543 -0.56346,-1.74282 1.69087,-1.61337 0.24624,-2.79182 -0.94371,-0.80411 -0.0373,-1.49882 1.25468,-1.58886 -0.21153,-0.62285 -2.18394,1.19344 0.0174,-1.64042 -1.85027,-0.38883 -2.81662,1.30811 -1.79143,0.19688 -1.08858,-0.75437 -2.80487,0.025 -2.44824,1.27796 -1.33471,-0.48161 -4.34449,0.26309 -4.45307,0.57805 -2.53233,0.98682 -1.664,1.33668 -2.8559,0.56248 -2.55207,1.76491 -1.14966,-0.0345 -2.73307,-0.71234 -2.51849,0.22322 -1.57071,-1.3718 -1.9437,-0.0156 -0.87204,1.98359 -1.84508,3.32411 -2.00435,1.32067 -2.71177,1.45581 -1.77809,2.14744 -0.40662,1.67054 -1.09686,2.7259 0.56627,3.94193 -2.32479,2.6503 -1.37969,0.84657 -2.1957,2.17321 -2.5332,0.3514 -1.40202,1.22202 -0.0512,0.0446 -1.82204,3.2515 -1.85004,1.16079 -1.04378,1.96876 -0.11393,1.6965 -0.77588,1.85691 -0.93584,0.51286 -1.58087,2.02324 -1.00408,2.24482 0.1486,1.07652 -0.94254,1.65744 -1.07911,0.86662 -0.16829,1.47384 -0.15305,1.3438 1.41839,1.37348 0.67623,1.51174 -0.31383,1.5861 0.29578,1.58115 0.23205,3.1436 -0.41239,2.99524 -0.80948,1.56866 0.20298,1.71433 -0.69489,1.63371 -1.39356,2.23349 -1.2364,0.60426 1.36627,1.13263 1.10301,2.47678 -0.38067,1.41107 0.41791,2.43849 0.16705,0.68058 0.84109,0.67506 -0.0233,0.48412 0.62849,0.89683 1.17326,0.21033 1.47452,1.3299 0.80627,0.52119 0.40078,0.70071 0.30163,1.40552 0.69138,0.63224 0.71192,0.41207 1.07581,1.24517 1.21058,1.88228 0.32372,2.35121 0.48126,1.16209 1.44772,1.70418 2.00971,1.28153 0.75388,0.23598 1.87687,2.05253 2.38131,1.7406 2.53952,2.42131 2.88761,1.51636 0.73538,-0.028 0.54212,0.0836 2.78252,-1.16686 1.95078,-0.91813 3.32526,-0.55528 1.79896,-0.0367 1.95691,0.62195 1.27675,-0.0324 2.50075,0.9035 2.52936,-0.92277 1.56044,-1.09092 4.39777,-1.86216 2.25765,-0.67862 2.31736,-0.37112 2.47478,0.002 2.10719,-0.0393 1.99035,2.09593 0.929,2.30262 1.50718,1.98989 2.24561,0.0695 1.07743,-0.71289 1.06575,0.16727 2.91016,-1.14483 -0.0291,0.87917 0.72044,0.45619 0.57523,1.42545 1.2828,0.53953 1.10424,2.10316 -0.40338,2.51166 -0.95868,3.57232 0.5268,0.47969 -0.56462,2.3587 -0.6829,2.31595 -0.61421,1.01709 -0.0912,1.05687 1.70064,3.28619 1.84952,2.625 2.87412,3.2109 2.28935,3.3694 0.73732,2.3921 0.38726,0.9866 -0.27034,0.6183 1.39186,2.0127 0.55897,2.1295 0.82594,3.0734 -0.87119,1.2612 -0.15595,0.6612 0.67014,1.9085 0.72603,1.9299 0.82412,1.1372 0.12609,1.803 -0.32145,2.3566 -0.91312,1.4155 -1.62892,2.0814 -0.6815,1.3036 -0.94254,2.8677 -0.16409,1.3654 -1.00225,2.9125 -0.42738,2.7976 0.22909,2.0003 0.12781,2.4408 2.19639,3.1054 0.56581,1.9969 1.37603,3.8153 1.36725,2.6275 1.04175,1.3108 0.31245,1.7349 -0.0298,3.806 0.78529,4.902 0.60365,2.3072 0.50059,3.1005 0.98166,2.3247 1.92322,2.4029 1.76381,4.126 0.004,0.01 1.2263,2.6845 1.60627,2.9644 -0.0636,2.4334 -0.8953,0.5782 0.74705,2.1306 -0.12405,1.8696 0.30243,0.8591 0.15213,-0.4434 1.05738,1.4291 0.8936,0.059 1.04902,1.1448 1.21099,-0.077 1.72092,-1.2131 2.30279,-0.5072 2.83296,-1.2623 1.08934,0.1672 1.64158,-0.3895 2.83574,0.6155 1.36613,-0.6079 1.57839,0.472 0.41734,-0.8863 1.3717,-0.1661 2.89198,-1.2362 2.14238,-1.4469 2.05496,-1.9041 3.31716,-3.2692 1.72073,-2.2695 0.88895,-1.6287 1.27727,-1.6119 0.56575,-0.4591 1.97636,-1.6044 0.81537,-1.4352 0.5234,-2.6436 0.8489,-2.3178 0.35134,-1.6762 -0.68229,-0.2143 -0.1444,-1.3417 1.27426,-1.1776 3.39825,-1.7234 2.32587,-1.0758 1.21622,-1.1323 0.48955,-1.3239 -0.61332,-0.5447 0.5325,-1.478 0.25627,-3.1196 -0.49473,0.159 0.0182,-0.9515 -0.44254,-1.8651 -1.18083,-2.4084 0.34987,-2.2677 1.17581,-0.7353 2.04724,-2.2602 1.09476,-0.5807 3.3081,-3.4144 3.20644,-1.5441 2.6004,-1.2093 1.87163,-1.9729 1.19119,-2.2094 0.94048,-2.2732 -0.41743,-1.5582 0.1009,-4.9716 -0.24075,-2.7913 0.22246,-3.1692 -0.40755,-1.4263 0,0 -10e-6,0 -1.00539,-0.6957 -1.07028,-3.1366 -0.9272,-1.9942 0.21961,-1.5196 -0.13864,-0.9668 0.81327,-1.9211 -0.0669,-0.8272 -1.77197,-1.159 -0.13231,-1.8028 1.3625,-3.9198 1.14689,-1.0505 0.57938,-2.1167 0.91918,-1.2836 0.42533,-2.2414 1.05535,-0.2332 0.70696,-1.3273 1.97856,-1.2702 0.64006,-0.75325 0.65769,-1.67747 3.08152,-3.85355 2.61089,-2.4197 4.17793,-3.15868 2.78035,-2.57526 3.23209,-4.33949 2.32481,-3.56198 2.29756,-4.66221 1.62027,-4.06261 1.23497,-3.5534 0.66391,-3.4387 0.5452,-1.14895 -0.0795,-1.67202 0.17711,-1.85026 -0.10345,-0.87955 -1.05824,0.009 -1.27256,1.08899 -1.46682,0.32024 -1.26726,0.47262 -0.89009,0.0627 10e-6,-2e-5 -1.58617,0.11179 -0.97447,0.58029 -1.37751,0.20943 -2.42227,0.9883 -3.0288,0.37702 -2.60693,0.81381 -1.38852,-0.0106 -1.30721,-1.33171 -0.59486,-1.31552 -0.93049,-0.58637 -1.23186,-0.87036 1.56395,-0.7612 0.0353,-1.32087 -0.7008,-0.98453 -1.41165,-0.95684 -0.91899,-1.09296 -1.59163,-1.83571 -1.63125,-1.81346 -3.94255,-3.00501 -1.60095,-1.5496 -0.91593,-2.92026 -1.80769,-3.68295 -1.57953,-1.17561 -1.09683,-0.78327 -1.22217,-3.79746 -0.58089,-3.27404 0.57227,-0.57691 -1.06424,-3.12028 -0.52019,-0.65151 -3.36548,-2.85505 -0.21221,-2.06778 0.51038,-0.55476 -2.68222,-3.52375 -0.99887,-1.7986 -1.1286,-1.73167 -2.42534,-4.95961 -1.91969,-3.19769 -1.40139,-3.35103 0.25254,-0.28756 2.31221,4.55288 1.33825,1.41956 0.98616,1.02676 0.58905,-0.55565 0.60236,-1.65642 0.37601,-2.40112 0.64443,-1.27623 -0.34431,-0.82428 0.34432,0.8243 0.13226,0.45959 -0.22145,1.26755 -0.0234,1.11255 -0.2742,1.74557 1.34958,-0.0153 1.56539,2.18578 1.86119,2.56765 1.24485,2.36927 0.84973,0.71108 0.87855,1.65089 -0.0989,0.71975 1.02458,1.82392 1.52384,0.65818 1.36773,1.24176 1.80055,3.52734 -10e-4,1.88536 0.45094,2.21018 2.00453,3.03086 1.26137,0.52229 2.04095,2.18865 0.9355,2.59203 1.63423,2.66755 1.49857,1.13993 0.28814,1.2691 0.89211,0.95814 0.43766,1.35766 0.20049,1.38758 -0.30343,0.61357 0.36254,1.45366 -0.54855,0.15471 0.86635,1.30781 0.65984,2.35295 0.49945,0.93862 -10e-4,1.73895 0.80509,1.85828 1.93803,0.16176 0.8729,-0.43169 1.38391,0.0702 0.39618,-0.80914 0.72055,-0.23212 0.5709,-0.83996 0.69559,-0.18075 2.3324,-0.16521 1.74655,-0.61245 1.56101,-1.32026 0.84568,0.18815 1.21725,-0.17533 2.36848,-2.2446 4.3569,-1.48405 2.68273,-1.3431 -0.006,-1.08491 0.441,-1.4125 1.94789,-0.85466 1.26904,-0.1801 1.77672,-1.07315 1.55282,0.29995 1.2753,-0.88333 -0.11278,-1.28511 1.02203,-0.8011 1.725,0.0256 0.5794,-0.67138 0.14367,-1.54969 1.6292,-1.18881 1.27314,0.0104 0.22775,-0.39081 -0.52017,-2.1261 0.30555,-1.61245 0.50839,-0.75829 1.26563,0.16681 0.83744,-2.17858 1.06919,-1.01719 0.35877,-0.89254 0.82503,-1.89546 -0.0621,-0.70956 -1.022,-0.40287 -0.8421,-1.05646 -1.41773,-1.82379 -1.68192,-0.57992 -2.05211,-0.41578 -1.64583,-1.15544 -1.45258,-2.17431 -0.64692,-2.5153 0.28997,-0.57769 0.10323,-1.31579 -0.37,-0.27649 -0.66645,1.08437 -1.50401,1.96287 -1.82385,2.04185 -1.6628,2.15212 -1.66345,-0.0941 -2.27287,-0.0831 -2.09795,0.50159 -0.18136,-0.87279 -0.47295,0.1546 -0.6333,-1.21553 0.41192,-1.87299 -0.23831,-1.86443 -0.93081,-0.99838 -0.70873,0.34267 -0.56422,1.67067 0.40629,2.31704 -0.48336,-0.7805 -0.46554,-1.04416 -0.87395,-0.89247 -0.45383,-1.06987 0.16142,-1.06076 -0.30551,-1.31415 -2.00157,-1.33848 -0.59079,-1.11813 -1.41895,-0.727 -1.3816,-2.74325 -1.16423,-2.39672 0.15025,-0.7244 -0.74265,-1.40017 1.62144,0.15551 0.84252,-1.23729 1.8548,1.0504 1.38196,-0.51377 2.55325,4.23198 2.18612,3.01743 2.72488,0.90649 3.03682,2.44664 3.45159,1.05637 2.56182,-1.54123 2.01973,-0.5689 1.37342,0.56421 1.63393,3.90517 3.12895,0.41384 3.06339,0.73185 5.25362,0.96141 3.79617,-0.44634 4.43278,-0.0593 4.95748,-0.59901 2.42043,2.42473 1.09282,2.28764 2.10354,0.80466 3.52826,2.7003 0.95073,1.24815 -1.19605,1.14968 4.00713,3.85434 1.98304,0.38127 3.80332,-1.90354 0.85932,2.97826 0.40451,3.85245 1.25692,4.07065 1.7648,6.16525 2.92573,4.36942 0.64777,1.98716 0.99819,3.97856 1.69575,3.05608 1.07678,1.50465 1.26708,3.20853 1.53457,4.45467 2.79353,2.9704 1.08159,-0.91435 0.83664,-2.16348 2.50515,-0.90185 -0.9087,-1.04848 1.13341,-2.42626 1.43777,-0.15403 -0.34734,-5.40451 0.95212,-3.02223 -0.36721,-2.63884 -0.95844,-4.13775 0.59087,-2.4267 1.2804,-0.16794 2.38117,-1.13974 1.29879,-0.78405 -0.15839,-1.46336 2.52323,-2.08246 1.84336,-2.00667 2.63419,-3.74257 3.70198,-2.14066 1.22956,-1.88166 -0.47222,-2.3923 3.30468,-0.66024 1.87754,0.04 0.23406,-1.1612 1.10371,0.28474 0.82718,0.34686 0.31932,-0.57892 1.26062,0.6449 0.61307,-1.76967 -0.44015,-1.31118 2.54853,0.12723 1.41829,1.8514 0.74203,1.53092 0.38591,1.61991 1.01663,1.65786 2.31489,2.59429 1.6714,0.40769 -0.17958,1.14653 2.66886,3.66758 0.97495,2.97853 -0.45718,3.94274 1.81203,0.746 1.59311,0.28335 2.8745,-2.2679 1.62045,-1.59546 1.54251,2.63475 0.98974,4.01902 1.32412,3.80745 1.29895,1.64812 0.0996,3.46551 1.1022,1.88225 -0.66167,2.43681 0.44596,2.36131 -0.61607,3.05084 -0.18193,1.98478 0.63448,1.76714 0.35014,-1.86989 1.44633,1.50888 1.58986,1.79591 0.5632,1.57546 1.16967,1.2207 0.68413,1.3486 -0.20109,2.31614 1.08665,1.73439 0.49179,2.63447 1.69809,2.12773 0.37914,1.62074 3.38806,2.5249 2.70198,2.35656 1.98922,-0.21223 0.035,-1.07554 -1.17097,-2.81315 -1.01456,-0.87662 -0.26574,-1.88279 -0.31225,-1.09378 0.24338,-1.44715 -0.25018,-2.1422 -1.2726,-2.12976 -1.74817,-1.92052 -0.65959,-0.29723 -1.5367,-1.651 -1.71758,-0.3698 -1.66265,-1.82188 -0.66383,-2.75358 -1.32246,-2.90348 -1.83002,-0.0999 -0.35262,-2.30253 0.69519,-2.80984 1.10636,-4.64644 -0.12329,-3.49882 2.45306,-0.0187 -0.15747,2.49924 2.38073,-0.0593 2.64585,1.4606 1.70786,3.28588 1.27461,1.65769 2.37788,0.46448 2.21675,1.807 -0.62767,2.15507 1.15626,2.04001 3.28239,-2.96191 2.07524,-2.65188 3.02705,-2.04811 2.13752,-2.09489 -0.20602,-5.59617 -2.00096,-5.8875 -2.03886,-2.55486 -2.80002,-1.96522 -3.20927,-4.15694 -2.63017,-3.35296 0.2636,-2.20706 1.82564,-3.00476 3.23714,-2.72073 1.21486,-0.51785 3.86318,1.01819 -0.44831,1.23016 1.10081,2.3081 1.49832,-0.18628 0.38393,-3.35864 2.83037,-0.48768 3.56847,-1.59293 1.27192,-1.58064 1.13685,1.03235 1.42281,-1.4132 3.02749,-0.36515 3.2985,-2.67747 3.15596,-2.93701 1.66926,-3.79991 1.14482,-4.17971 1.02239,-3.44519 1.43221,-0.28577 -0.0722,-2.51935 -0.40776,-2.58572 -1.91179,-0.98422 -1.21289,-1.68997 1.39078,-0.86494 -0.79102,-2.35287 -2.71235,-2.43561 -2.726,-2.91329 -2.26805,-3.14175 -3.554,-1.76426 0.45125,-2.2578 1.89854,-1.62373 0.49257,-1.75013 3.33176,-0.90565 -1.17378,-1.69785 -1.7335,-0.0863 -2.88671,-1.25973 -1.92193,2.3119 -2.48382,-0.9464 -0.72258,-1.45245 -2.3747,-0.53034 -2.35208,-2.17798 0.63713,-1.49514 2.47727,-0.15355 0.6051,-2.05359 1.80992,-2.18957 1.66794,-1.10354 2.22716,1.63977 -0.96985,2.12173 1.15275,1.23883 -0.67116,1.4821 2.38404,-0.87407 1.17934,-1.48973 3.15701,-0.92185 1.65811,0.85018 1.69045,0.34641 0.43303,0.52053 0.19428,1.72541 0.51683,0.5867 -0.43363,0.37747 -0.0433,1.41856 0.94342,0.51524 0.81534,0.29606 0.37366,0.60861 0.64343,-0.2686 0.0329,-0.60759 1.55802,0.61536 3.06773,2.77237 -1.70779,0.54621 2.64191,3.37261 0.54108,2.42004 1.02851,1.74852 2.27707,-0.27449 1.55642,-1.33187 2.13323,-0.61843 0.22311,-1.77431 -1.69643,-3.73244 -1.6249,-2.10111 -4.09101,-3.80985 -2.17681,-1.40754 -1.29736,-0.51998 0.12415,-0.35272 -0.6297,-1.37754 0.67576,-0.85026 1.44512,-0.51884 0.46687,-0.92947 0.15224,-0.55276 0.94543,-0.69091 -1.38372,-2.23338 0.14512,-1.05271 0.48548,-1.04506 1.08401,0.18498 4e-5,3e-5 -10e-6,-2e-5 10e-6,0 -10e-6,-1e-5 -0.22475,-1.02514 2.0239,-2.25 2.53842,1.49387 1.58359,-0.0399 2.24552,-1.80305 0.46049,-1.81479 1.04606,-3.55538 0.9643,-3.60846 -0.64813,-2.15073 0.52467,-4.50302 -2.6346,-4.9563 -2.7359,-3.67251 -0.67394,-3.05217 -2.32159,-2.58531 -6.37737,-3.32522 -2.7651,-0.19549 -0.18312,1.50704 -2.88747,-0.67116 -2.82032,-1.88649 -4.04121,-0.37898 2.4775,-7.04727 1.73419,-5.76119 6.54332,-0.86849 7.44107,0.50346 1.25272,-1.43728 3.98453,0.44352 2.13128,2.1194 3.18079,-0.30242 4.21348,-0.76598 -3.86041,-1.79364 0.0102,-4.86261 4.5429,-0.97754 6.04849,3.55242 1.81785,-3.17425 -1.60124,-2.3633 2.35882,-0.2411 3.25078,4.05087 -1.22256,2.3122 -0.3633,2.99949 0.12088,3.70148 -2.82749,0.66082 1.3827,1.38341 -0.0478,1.7721 3.20025,4.14078 8.00742,6.69514 5.24372,4.43924 2.82856,2.10951 0.83564,-2.85053 -2.26247,-3.091 2.82166,-0.73939 -2.67773,-3.4487 2.51292,-1.53643 -2.34529,-1.29206 -1.69303,-2.50242 2.03672,-0.11058 -4.50512,-4.32717 -3.3588,-0.66283 -1.43345,-1.19314 -0.55731,-2.84435 -1.54055,-1.92254 3.48374,0.40006 0.66026,-1.24866 2.33019,1.08245 3.03784,-2.28419 5.70109,2.01226 -0.82281,-1.32292 0.98537,-1.78008 0.76967,-2.02751 1.52276,-0.33525 3.25681,-2.158 4.93489,0.62307 -0.47286,-0.7575 -1.88231,-1.17999 -2.06857,-0.76615 -4.54815,-2.33303 -4.04922,-1.49844 3.07059,0.20588 0.98766,-1.23251 -0.006,-0.0151 -16.44501,-10.93748 -4.70195,-1.16951 -7.84338,-1.27207 -3.9587,0.15903 -7.59596,-0.7423 0.90522,1.1807 4.22395,1.70986 -1.25705,0.8605 -7.09237,-2.38354 -3.41,0.29546 -4.60093,-0.5235 -3.49406,0.0698 -1.93184,0.54643 -3.58453,-0.75939 -2.55416,-1.93827 -3.26418,-1.08812 -4.60873,-0.43183 -7.34859,0.49614 -8.05022,-1.9968 -3.89874,-1.53757 -20.06781,-1.66883 -1.038,1.11172 4.65813,2.4033 -3.72305,-0.36478 -0.50697,0.7302 -4.8747,-0.80095 -2.48436,0.69978 -4.65799,-1.16971 1.47991,2.7387 -4.43027,-1.06412 -5.00071,-2.04679 -0.19231,-1.08067 -3.00397,-1.6405 -4.87994,-1.34012 -3.06376,0.0139 -4.66519,-0.44326 2.34299,1.94182 -8.59196,-0.37976 -1.92127,-1.18907 -6.69485,-0.41807 -2.60444,0.39993 -0.0758,0.65959 -2.89851,-1.62539 -1.16508,0.47766 -3.58873,-0.63663 -2.78823,-0.3524 0.55571,-0.74478 3.29093,-1.38554 1.15113,-0.73434 -1.21155,-1.28183 -2.71769,-0.91636 -5.75807,-1.18272 -5.43007,-0.0322 -0.92452,0.58834 -2.04093,-1.19133 -4.62772,-0.36647 1.72378,-0.58658 -4.12547,-0.76511 -3.04757,0.97017 -0.48301,1.0175 0.75955,1.04241 -3.44843,-0.0403 -2.67342,1.29621 -2.14434,-0.54932 -4.63401,0.22676 0.10637,0.67153 -4.59588,0.32812 -2.41107,1.22705 -2.10206,0.0683 -0.63315,1.63845 2.76886,1.31443 -3.86782,0.33071 -4.72407,-0.11139 -2.91449,0.51038 2.41336,2.71681 3.44463,2.15012 -4.7896,-1.4743 -3.96933,0.13645 -2.53884,1.01625 2.25955,1.87735 -2.46849,-0.47723 -1.03368,-2.50244 -2.09098,-1.42373 -0.92856,0.0581 1.80137,1.82843 -2.29626,1.74863 4.05822,2.13561 0.1732,2.66011 1.46015,1.48763 2.37749,0.22092 0.19859,1.78023 2.19085,1.54369 -0.97847,1.30031 0.28551,1.35813 -1.87746,0.7075 -0.24242,0.99491 -2.64847,-0.40759 1.73813,-3.89859 -0.25321,-1.81185 -3.31221,-1.6518 -1.91131,-3.64921 -1.87571,-1.83777 -1.80152,-0.8327 0.41262,-2.10339 -1.43379,-1.42987 -5.63882,-0.67432 -1.09584,0.5026 0.2959,2.33965 -2.14931,2.35832 0.57981,0.84012 2.33346,2.0619 0.0891,1.2629 2.60768,0.26228 0.40128,0.56807 2.93266,1.42211 -0.5355,1.41602 -9.21847,-3.08059 -3.29044,-0.8356 -6.43325,-0.80599 -0.58041,0.87909 2.96415,1.55173 -1.39393,1.7868 -3.17618,-1.62583 -2.48127,1.11765 -3.81712,0.0747 -1.03747,0.92535 -2.69032,-0.28285 1.25989,-1.63926 -1.60658,-0.13249 -6.13434,2.32164 -3.78617,1.29729 0.19363,1.74758 -3.00269,0.59686 -2.00748,-0.94163 -0.5973,-1.52332 2.49569,-0.33673 -1.78577,-1.52188 -6.08944,-0.86749 2.1479,1.68019 -0.40837,1.63087 2.34436,1.63581 -0.533,1.89819 -2.31232,-0.96692 -1.99602,-0.15917 -4.01528,2.71631 2.09438,2.04732 -1.58657,0.68417 -5.70504,-1.74466 -1.04635,1.06049 1.64579,1.20762 0.12137,1.36795 -1.89731,-0.73315 -3.01137,-0.85899 -0.93935,-2.86183 -0.50026,-1.2906 -3.99966,-2.02573 1.44203,-0.35 10.0164,2.1 3.20708,-0.73851 1.84581,-1.44947 -0.76557,-1.82504 -2.03842,-1.29543 -8.77926,-3.0554 -5.78071,-0.63787 -3.80636,-1.61201 -1.82787,0.92608 -7e-5,2e-5 -2.67395,-1.66946 2.39373,-0.70705 -6.78295,-1.92166 -3.44586,0.52144 -3.66537,-0.1159 -2.57561,2.18131 -3.34178,-0.14049 -4.21679,1.16097 -5.07443,3.36107 -3.18035,2.04019 -4.4299,5.30964 -3.54211,3.89416 -4.04141,2.9146 -5.61876,2.38962 -1.94442,1.84259 0.95884,6.68345 0.93282,3.15148 3.21896,1.50068 3.00502,-0.69133 4.25072,-3.39552 1.65493,1.79844 2.06991,4.17238 2.21376,3.37317 0.98118,2.82607 2.69566,-0.13796 1.09188,-2.37134 2.84831,0.28825 1.00939,-2.78954 0.29778,-4.9605 2.27471,-0.68711 1.63454,-3.29814 -2.35551,-1.6119 -1.847,-2.03802 1.06627,-4.0403 3.84409,-2.44539 3.06344,-2.26991 -0.62604,-1.71829 1.72105,-1.94626 3.4912,-0.78632 3.20746,1.31338 0.46252,1.18026 -1.30745,0.58511 -4.34625,3.05259 -1.6605,1.7808 -0.76765,1.65941 1.48614,2.58584 -0.0387,2.84476 2.31507,0.95253 1.55962,1.58814 3.54678,-0.6148 3.73935,-1.06641 4.00869,-0.23102 10e-6,-1e-5 2.63485,1.38269 -2.22281,1.61312 -4e-5,-5e-5 -2.31057,0.0865 -2.53768,-0.48319 -2.76258,0.42455 -2.71507,0.81563 0.47758,1.68662 1.62031,1.04653 0.77485,-0.37144 0.0319,1.74123 -0.0614,2.27515 -1.84082,0.0578 -2.17541,-2.21452 -2.00822,1.01101 -0.85994,1.86446 0.23881,2.24364 0.84933,2.51582 -3.10621,0.97351 -0.36656,1.32336 -2.27827,-0.038 -0.26611,-0.73371 -2.40618,-0.50769 -2.85067,1.01736 -3.54419,1.39318 -1.53614,0.88644 -1.20287,-0.96125 -2.76513,-1.1896 -1.26153,0.82489 -2.36214,0.56625 -0.0499,-1.06973 -2.42871,-0.70134 -0.11656,-1.16132 -0.73072,-1.46008 1.53408,-2.1525 0.71497,0.32422 0.48558,-1.12517 -1.28814,-0.45081 -0.33577,-0.83304 0.61379,-0.96728 -0.0333,-1.5235 -1.78693,0.83504 -0.75351,0.81803 -2.01822,0.18422 -0.6107,0.89148 -0.3408,0.8034 0.23615,3.05299 1.04159,1.66413 0.20252,1.70506 0.60288,1.12972 -1.5296,1.48906 -0.47386,-0.66649 -1.97409,0.16425 -0.4353,0.64026 -1.97744,-0.0854 -3.21248,1.26755 -1.98288,4.47855 -1.22559,0.84067 -1e-4,-1e-5 -1.92675,0.60443 -2.10956,0.61935 -0.70815,2.52177 -5.68632,2.4118 -2.29883,-1.32807 0.74383,3.50995 -4.1198,-0.7992 -3.20243,0.67571 0.19505,2.26785 3.76085,1.19713 1.81055,1.57477 2.54682,3.26194 -0.51822,6.15071 -1.32675,1.84253 -4.10648,-0.10166 -2.11352,0.16111 -2.69142,-0.52458 -3.41043,0.0194 -3.08669,-0.55419 -3.68868,2.21704 0.98419,1.33424 -0.2204,2.19635 0.0704,1.04346 0.46982,1.11518 0.006,1.32128 -0.61066,1.88769 -0.23158,1.27841 -1.07802,1.15463 -0.2854,2.09525 0.57968,1.21919 1.1582,0.29735 0.1805,1.98672 -0.48157,2.53562 1.36696,-0.35691 1.37224,0.45594 1.0788,-0.84144 2.43943,0.50212 0.70389,1.86523 0.95302,1.09484 1.28564,0.26869 1.02899,-1.22424 1.66756,-1.14496 2.50644,0.0614 3.33961,-0.0494 1.87545,-2.49253 1.98091,-0.64524 0.57011,-2.10005 1.50988,-1.43579 -1.01432,-1.82991 1.00044,-2.58335 1.58544,-1.74173 0.22647,-1.05067 3.29483,-0.65799 2.41027,-2.06447 -0.16182,-1.79194 0.2654,-1.85223 3.68822,-0.99677 5.03991,0.83178 2.24506,-1.73539 1.04622,-0.22516 1.4077,-1.42613 1.14684,-0.41552 2.10428,1.01478 1.2778,0.35727 0.94311,3.03692 1.8262,1.77268 2.45108,2.00992 2.08657,1.40031 1.91588,0.20152 1.19098,1.25322 1.69362,0.56885 0.84873,1.35619 1.09949,0.3931 0.89347,1.59878 1.13242,1.85078 -0.52335,0.68524 -0.4281,1.72653 0.0478,0.98728 1.07565,-0.24898 1.22177,-2.76216 1.07543,-0.19021 0.19543,-1.66834 -1.95594,-1.17844 0.94689,-2.04071 2.28385,0.5173 1.5478,1.47467 0.39745,-1.13197 -0.31359,-0.5879 -2.34002,-1.63362 -1.96231,-0.9426 -2.38499,-1.12252 0.67561,-0.61699 -0.67498,-0.68336 -2.0071,0.0191 -3.01377,-2.48352 -1.44647,-2.54035 -2.47505,-1.54727 -0.92316,-1.56612 0.25605,-0.87794 -0.23172,-1.53339 1.97203,-1.09906 2.02672,0.45135 -0.53965,0.28083 -0.0862,0.0501 0.0154,1.07374 0.8134,1.03315 0.68002,-1.3324 1.6522,0.48727 0.1229,1.04128 1.24688,1.29468 -0.49336,0.2298 2.30193,2.2613 2.39752,0.91297 1.56776,1.10643 2.49582,1.13849 0,0 1.15798,0.61154 0.80607,1.00752 0.55766,0.2394 1e-5,1e-5 0.47476,0.48735 -0.26615,0.96208 -0.0363,2.12563 0.34863,1.49503 1.52112,1.05988 0.10909,0.69745 0.45924,0.22237 0.24961,0.90683 1.48025,1.82539 1.1359,1.47897 0.62758,2.14941 1.18497,2.5923 2.2671,1.41048 1.74591,-0.0405 -1.23025,-2.86123 1.63689,-0.34011 -0.91362,-1.65039 2.49591,0.85704 -0.2025,-1.82567 -1.37665,-0.93448 -1.58458,-1.48023 0.91658,-0.70122 -1.43827,-1.49559 -0.75697,-1.88888 0.41859,-0.68974 1.52621,1.62233 1.44241,-0.003 1.26357,-0.5148 -1.97238,-1.76597 3.03715,-0.81209 1.37761,0.29499 1.581,0.0888 0.0378,0.64554 0.97637,1.4636 1.96318,-1.69156 0.98472,-0.96587 3.03748,-0.17184 0.37092,-0.76216 -2.37172,-1.00189 -0.45658,-1.18907 -1.05261,-1.75881 0.64162,-2.19902 1.14624,-1.27251 0.19096,-3.71148 0.80644,0.28885 1.1266,-0.66381 -0.17384,-0.79689 1.60511,-2.28987 0.66834,-1.71068 2.25067,-0.38291 0.35446,1.15912 4.0124,0.7849 0.84217,0.71059 -2.23365,1.02995 -0.34916,0.59327 2.89491,0.90444 -0.31984,1.44852 1.5072,0.62595 3.12596,-1.78202 2.66307,-0.53469 0.29434,-1.10318 -2.52923,0.18568 -1.35726,-0.7469 -0.47905,-1.92965 1.94647,-1.15853 2.30411,-0.16399 1.46974,-1.0064 1.93819,-0.24885 2.13288,-0.50158 0.19987,0.68033 -3.4266,1.2697 1.62779,1.22973 -1.59697,2.5931 -1.73954,0.49429 2.50398,1.81267 3.09738,1.16089 3.72463,2.59631 z m -16.06822,164.45965 0.13613,-0.5364 -0.7958,-0.8483 -0.3355,-1.7468 -1.68391,-1.734 -0.92969,-2.2782 0.51979,-1.3411 -0.73521,-1.7893 0.56079,-5.0851 0.0122,0.037 0.99751,3.0316 -0.0154,0.1414 -0.15034,1.3737 0.53265,0.4596 -0.11176,1.3552 0.52377,1.2537 -0.6601,1.2188 2.22706,2.1588 0.18072,1.9698 1.34979,3.2508 0,0 0.21855,0.5284 -0.47094,0.1802 -0.5921,-0.6624 -0.95166,-0.2549 0.17343,-0.6826 z m 9.75942,-26.54194 0.67993,1.20598 -0.18541,2.35571 0,2e-5 -1.39292,1.41933 -0.92996,1.4378 1.10241,1.0909 -1.60918,0.7833 -0.34777,-0.3712 -1.62712,0.1893 -1.26055,0.7144 -0.77203,-1.2257 0.54354,-2.2265 0.0941,-1.91487 0,-6e-5 -0.13956,-1.2309 1.28872,-1.85878 1.7796,-0.45455 1.19565,-0.75784 1.45769,0.62617 0.12283,0.21749 z m 46.26981,-118.26794 -0.1052,0.75822 -3.94396,0.85804 -3.83998,-0.55903 -2.11835,-1.6264 -2.60743,-0.67461 -1.26262,-2.38245 -0.36853,-1.59304 0.81093,-0.74923 0.22787,-1.11906 -0.0494,-2.46233 2.0773,-0.25346 -0.9771,-0.84708 -1.23459,-0.14662 -1.78905,-2.21344 -1.70991,-1.63238 3e-5,-3e-5 -3.60144,-3.62918 -0.21875,-2.06926 -2.96637,-2.91776 1.76603,-3.18855 2.31015,-0.51076 0.69592,-1.8409 2.16759,-0.65169 2.53743,-1.36777 2.31219,0.75933 2.45272,-0.15046 0.95234,1.9222 0.33838,3.02367 -2.31431,-0.4619 -2.01054,0.50224 0.46751,2.25506 -2.52875,-0.29243 0.32982,1.00264 1.58816,0.7777 1.82169,2.75876 3.21085,1.0472 0.7509,1.07224 -0.31666,1.28511 0.3245,0.75358 1.27718,2.01027 -0.27751,-2.27251 1.87021,-0.78779 1.16902,1.76874 2.32529,1.86599 -2.03038,1.00003 -2.61017,-0.76758 0.0247,2.64634 1.75983,0.1844 -0.19489,2.17583 2.25757,1.08272 0.31149,3.36791 0.93829,2.28948 z m -43.93293,154.97778 -0.76099,2.998 0.30781,3.6439 0.0348,0.424 0.52008,0.133 0.50348,1.7005 -0.0824,0.3939 -0.94033,-1.2384 -0.51711,0.7953 -0.41884,-0.6819 0.0566,-1.1948 -0.608,-0.9311 0.0732,-1.3832 -0.75347,-2.3414 0.86437,-1.7674 -0.0676,-3.8345 -0.93607,-2.0545 0.0987,-0.3526 0,0 0.17371,-0.6217 1.43731,1.7009 0.14392,3.3413 0.88404,1.2181 -0.0133,0.053 z m -262.01395,128.9734 1.07444,0.1539 -2.32529,-1.7651 -2.06142,-3.1821 0.43308,-1.4415 1.76241,-1.2179 0.27201,-3.634 2.30241,-1.7539 -0.086,-2.7922 -2.58587,-0.6293 -3.21319,-2.2766 -0.0545,-2.3261 1.45207,-1.584 2.37578,-0.01 0.0698,-1.6503 -0.60186,-3.0919 1.45571,-1.9106 2.06335,-0.9549 -1.23392,-1.6012 -1.11373,0.9725 -2.0052,-0.9283 -1.26056,-3.0804 0.7627,-0.8163 2.79774,1.1353 2.51864,-0.4298 1.24737,-1.0988 -0.89701,-1.5839 -0.0759,-2.3728 -1.01615,-1.9075 2.9386,0.323 5.06772,-0.6681 3.48355,-1.727 1.6486,-4.1504 -0.18317,-1.5838 -1.92624,-1.412 -0.0737,-2.2288 -3.89572,-2.7547 -0.13698,-1.6705 1.955,1.77 1.7811,-0.1028 2.71085,1.3786 1.37077,-0.3446 2.07516,0.6432 2.67449,-1.7851 0.80011,-2.0098 1.45467,-1.8224 0.72716,-3.0217 1.59014,-1.4826 1.98637,-2.5127 2.23099,-5.5803 1.67354,-1.7487 0.42999,-1.5516 0.14434,-3.2151 -0.64032,-1.7584 0.15481,-2.378 2.01536,-3.1585 3.00433,-2.5344 2.99457,-0.9296 1.82316,-1.4155 4.22875,-1.2224 2.98339,0.01 0.5147,-1.9065 2.13634,-1.3783 0.26374,-3.2846 2.54916,-4.1516 0.24427,-4.2522 0.80492,-1.2552 0.17929,-2.0975 0.52042,-4.9037 -0.46837,-5.9609 0.68467,-2.3404 0.69484,-0.062 1.96488,-2.7578 1.66275,-3.5961 3.81893,-4.4263 1.37372,-2.0769 1.00489,-5.2591 -0.50096,-1.9247 -1.01982,-4.0505 -1.03246,-1.0035 -2.40152,-0.1275 -2.17602,-0.9176 -3.63742,-3.5639 -4.18504,-2.6327 -4.1946,0.1239 -5.48618,-1.6825 -3.25471,0.9804 0.44047,-1.761 -1.38832,-1.8642 -4.67959,-1.94277 -3.54096,-1.14334 -2.12341,2.08744 -0.11498,-3.18854 -4.96776,-0.49958 -0.87362,-0.9589 2.12362,-2.61876 -0.0583,-2.19595 -1.49717,-0.52515 -1.49475,-5.56336 -0.66127,-1.75949 -0.95926,0.15034 -0.43811,-1.30282 -2.9114,-2.68515 -2.04763,-0.75292 -0.94399,-0.34999 -2.99405,-0.85493 -2.27376,0.22957 -0.3166,0.57341 -3.34382,-0.63711 -1.07662,-1.10744 -1.45738,-1.55187 -1.05399,-0.0754 -0.0276,-1.63801 -1.66432,-2.07258 -1.79732,-1.17015 -1.06927,-0.74987 -1.4621,0.0718 -0.34432,-2.54864 -2.05388,-1.56426 -2.22643,-0.23902 -0.88503,-1.50164 2.41979,-0.93956 -3.35221,0.0442 -3.47246,0.19184 -0.072,0.80107 -1.61717,0.99373 -2.11988,-0.39314 -1.52899,-1.42459 -3.00401,0.32689 -2.50887,-0.0279 -0.0525,-1.05324 -1.71457,-1.77391 -1.95605,-0.0516 -0.86414,-2.23535 -1.04244,1.00359 0.2955,1.49939 -3.5558,1.29316 0.007,2.4082 0.80859,1.11953 -0.74216,2.29932 -1.21651,0.20656 -0.93351,-2.52389 1.33283,-1.84767 0.12842,-1.66361 -0.82512,-1.44366 1.66268,-0.37127 0.12618,-0.75167 0.61055,-1.07107 -0.67715,-0.83683 -0.97558,-0.19488 -1.45294,1.53252 -1.13385,0.71122 -2.29878,1.60632 -2.16976,-0.26548 -0.26325,0.66306 -1.76464,0.0604 -1.69227,1.47621 -0.66771,2.68795 -0.0837,1.05218 -1.17005,0.33856 -2.21204,2.22068 -1.44184,-0.10102 -1.00921,-0.87908 -0.86408,-0.95717 -1.21593,-0.54947 -1.55442,-0.1085 0.12147,-0.31292 -1.5345,-0.18666 -1.00759,0.95067 -1.73449,0.64161 -1.23352,0.80346 -1.3895,0.22991 -0.72795,-0.78168 -0.27821,0.25875 -1.10934,-0.14302 0.0942,-0.67401 -0.94034,-1.14103 -1.23288,-1.35786 -1.00148,-1.28021 -0.5943,-1.72838 -0.3927,-0.52259 -0.0697,-0.85975 0.63009,-0.81347 -0.13002,-0.84011 0.36496,-1.36065 0.45086,-0.3125 0.0447,-1.43217 -0.0816,-0.81999 0.21072,-1.40178 0.41339,-1.28006 0.74156,-1.08362 -0.17331,-1.16411 0.21111,-0.71021 0.26954,-0.30529 -0.64384,-0.87511 -0.96089,-0.48729 -0.72885,-0.71319 -0.78466,-0.59466 -0.43347,-0.0702 -1.22094,-0.44126 -0.58233,0.27603 -0.73488,0.0745 -0.64117,-0.21603 -0.86699,-0.16465 -0.36528,0.35618 -0.93272,0.35192 -1.29374,0.0831 -1.25911,-0.28705 -0.44878,0.15799 -0.22874,-0.25935 -0.80017,0.0456 -0.67214,0.5593 -0.27481,-0.12429 -0.76947,-0.40616 -0.29301,0.47406 -0.84094,-0.5755 0.6774,-1.10193 0.51333,-0.10128 0.64412,-0.84405 0.51358,-1.60755 -0.1382,-0.30423 0.42982,-1.13822 -0.18159,-0.49205 0.62042,-1.37599 0.15544,-0.86526 -0.5227,-0.0146 0.0492,-0.4667 0.58609,-0.053 0.59796,0.817 1.00907,-2.48218 0.59063,-1.37497 -0.43761,-0.55391 0.90691,-1.9364 1.72705,-1.89052 0.29384,-1.53173 -0.57129,-0.67429 -1.70563,0.26936 -2.42283,-0.11077 -3.01158,0.73764 -1.97873,0.8328 -0.60222,0.92967 -0.58532,2.67176 -0.90604,1.85527 -1.93129,1.2979 -1.81371,0.54558 -2.14809,0.57173 -2.15334,0.32129 -2.54787,0.88902 -0.96272,-1.3308 -2.82032,-0.84394 -0.86133,-1.56609 -0.38681,-1.81474 -1.49102,-2.36773 -0.18903,-2.46649 -0.62126,-1.55092 -0.21045,-1.73502 0.50936,-1.5534 0.91146,-4.26282 0.89027,-2.29133 1.59463,-2.79557 -1.08315,0.0955 1.08317,-0.0956 -0.30119,-1.08288 0.18031,-1.52871 0.50229,-2.19699 0.94696,-1.43225 1.83264,-1.51899 3.01717,-1.37081 3.03528,-2.35494 2.45753,-0.74145 1.73484,-0.22246 1.78347,0.73442 2.45218,-0.39573 1.61858,1.67773 1.9398,0.0988 1.15458,-0.6025 0.89518,0.46852 0.61138,-0.41753 -0.42806,-0.62723 0.34916,-1.28679 -0.28152,-0.84276 1.23543,-0.49437 2.10869,-0.21839 2.30658,0.35038 3.14163,-0.39823 1.50416,0.78402 0.96898,1.47941 0.44769,0.15857 3.04921,-1.4395 0.9427,0.48649 1.52568,2.65528 0.3948,1.74789 -0.97803,2.11121 0.16797,1.24501 0.81675,2.43581 0.97254,2.73897 0.91682,0.73252 0.20839,1.3972 1.28523,0.38612 0.87928,-0.40172 0.98994,-1.9446 0.32294,-1.23892 0.45401,-2.14724 -0.6081,-3.69236 0.25246,-1.37441 -0.74709,-2.24959 -0.31996,-2.71494 0.0193,-2.20061 0.94102,-2.25031 1.7165,-1.87847 1.87912,-1.51011 3.44484,-2.06256 0.64933,-1.0686 1.64499,-1.17208 1.38066,-0.20488 2.22367,-1.87752 2.98647,-0.95217 2.29371,-2.39276 0.47632,-3.24023 0.0281,-1.12202 -0.69318,-0.22418 0.74313,-3.08143 -1.50084,-1.03981 1.5805,0.50578 0.0375,-2.04333 0.91636,-1.38595 -0.48306,2.66805 0.98302,1.23352 -1.42242,2.20245 0.20362,0.12869 2.19137,-2.58463 1.19344,-1.25362 0.31127,-1.21538 -0.47889,-0.57085 -0.0249,-1.7203 0.61127,0.79743 0.52131,0.1663 -0.0493,0.82215 2.62286,-2.45594 1.26051,-2.26814 -0.71478,-0.14403 1.06294,-0.86846 -0.19943,0.38412 1.64636,-0.006 3.90702,-0.93772 -0.57598,-0.59051 -3.97191,0.58707 2.43809,-0.90186 1.5455,-0.15342 1.16882,-0.15537 2.0746,-0.54147 1.21525,0.0603 1.89295,-0.50264 0.48628,-0.88371 -0.54817,-0.68598 -0.0929,1.12758 -1.03991,-0.0773 -0.31401,-1.63612 0.56651,-1.63222 0.66298,-0.6914 1.95874,-1.82408 2.98313,-0.90918 2.95287,-1.06119 3.1862,-1.49177 -0.10401,-1.01163 2.91804,-0.37635 4.05652,-0.1012 -5.18803,2.55048 -0.73456,2.60165 1.85728,0.22557 3.52435,-2.21324 2.89169,-1.24522 6.13602,-1.83641 3.70567,-2.02908 -1.28164,-1.12448 0.50628,-2.25512 -3.56135,3.49322 -4.27915,0.4488 -2.76415,-1.54977 -0.0587,-2.34571 0.32243,-3.35468 3.03277,-2.08841 -1.65067,-1.52192 -3.77872,0.30917 -6.08325,2.58828 -5.42588,4.08906 -2.29531,0.5113 3.88214,-2.87303 5.04301,-4.11474 3.62663,-1.37398 2.86079,-2.21711 2.60022,-0.21343 3.64463,0.0222 4.98168,0.64934 4.28865,-0.50069 3.90992,-2.52637 4.35141,-1.08901 2.09046,-1.07312 2.12986,-1.14697 0.99333,-3.4138 -0.55373,-1.141 -1.7032,-0.40133 -0.002,-2.55023 -1.14937,-0.95859 -3.44053,-0.776 -1.42157,-1.71124 -2.40381,-1.68402 1.71156,-1.86917 -1.0146,-3.55168 -1.27369,-3.74705 -0.53456,-2.60383 -2.12479,1.35343 -3.68559,3.23025 -4.06774,1.63453 -0.81651,-1.73369 -1.84641,-0.45895 1.10402,-3.69312 1.31832,-2.43649 -3.84509,-0.21895 -0.0729,-1.11992 -1.80571,-1.66628 -1.50206,-0.97009 -2.24351,0.75209 -2.09812,-0.27873 -3.30295,-0.77849 -1.91837,0.66041 -1.89501,4.49846 -0.52065,2.63176 -4.38282,3.06796 1.54853,2.21602 0.2164,2.51408 -0.84855,1.98701 -2.36008,2.07929 -3.72565,2.09923 -4.48493,1.40782 0.85191,1.58446 -1.11804,4.78126 -2.78519,3.13524 -2.32377,0.99658 -2.19687,-2.90149 -0.0242,-3.39974 0.84563,-3.03623 1.77622,-2.60351 -2.39052,-0.28962 -3.76988,-0.17302 -1.76143,-1.26133 -2.4431,-0.82293 -0.83061,-1.4095 -1.63297,-1.13128 -3.49119,-1.28564 -3.591,0.58633 0.36236,-2.24739 0.77833,-2.75966 -3.00581,-0.48952 2.44324,-3.39505 2.45685,-2.28881 4.68089,-3.24538 4.32134,-2.31801 2.78914,-0.35656 1.44477,-1.84621 2.55288,-1.19489 3.21725,-0.18692 3.81786,-1.9033 1.47828,-1.22408 3.6912,-2.34658 1.60833,-1.38818 1.59055,0.83149 3.2221,-0.42634 5.41803,-1.92457 1.17525,-1.33054 -0.44683,-1.45655 2.54629,-1.4419 0.82533,-1.33449 -1.76532,-1.32637 -2.70237,-0.39171 -2.71985,-0.20398 -2.33395,2.9362 -3.23175,2.33548 -3.61645,1.97279 -0.64217,-1.84202 2.13696,-2.00945 -1.10224,-1.73005 -4.39016,2.1083 2.18946,-2.74717 -3.33353,-0.5395 2.87291,-1.3046 -0.19569,-2.96334 -0.98686,-1.14888 -2.22651,-0.41578 -4.06126,1.88818 -2.74102,2.90876 1.43496,1.07364 0.79479,1.64892 -3.15031,2.71341 -1.60151,-0.0729 -3.08571,2.17327 2.1167,-2.57647 -2.41994,-0.91742 -2.2278,0.472 -1.1865,1.68878 -2.96631,-0.0654 -3.58746,0.43261 -2.58708,-1.22653 -2.49851,0.21651 -0.74246,-1.47098 -1.06338,-0.64372 -1.88915,0.26937 -2.61226,0.12423 -2.19507,0.92484 1.03854,1.15135 -3.52322,1.37986 -0.69428,-1.63454 -2.20985,0.47575 -5.89981,0.32137 -3.176,-0.58392 4.22548,-1.34598 -1.40608,-1.36729 -2.17936,0.17323 -2.34727,-0.45638 -3.74208,-0.98234 -1.89875,-1.11996 -2.28274,-0.15357 -1.61886,0.77712 -2.97745,0.43805 1.97562,-2.01875 -4.71705,1.80262 -0.70427,-2.3813 -1.05983,-0.28142 -1.90114,1.24588 -2.22682,0.62062 -0.10426,-1.09984 -4.0818,0.66061 -4.4172,1.16934 -2.62716,-0.32571 -3.46122,0.83413 -3.12986,1.11883 -1.8353,-0.24721 -1.63506,-1.2884 -2.98308,-0.64268 -2e-5,0 -1.72755,-0.37234 -2.03599,-0.79755 -3.24615,0.43085 -1.10146,-0.34474 -3.54544,-0.24898 -3.10399,-0.83455 -2.41044,0.26375 -2.4488,-0.44817 0.96897,-0.60482 -3.15436,-0.15749 -1.61291,0.50857 0.25526,-1.1839 -2.20672,-0.54848 -5.11708,1.39514 -1.57962,-0.17567 -5.51776,1.16818 -2.40261,0.30197 -3.91059,1.25961 -2.3706,1.2983 -4.33571,1.22157 -3.75478,0.0874 -3.19208,1.41403 1.61118,0.85683 0.35745,1.16062 -0.40807,1.36746 1.1501,1.04644 -0.57813,1.71067 -4.59769,0.10781 2.14562,-1.38065 -1.72596,0 -6.53345,1.34987 -4.55679,1.16139 0.49988,1.62086 -0.605,1.12685 2.25303,0.67354 3.44694,-0.31546 0.89012,0.62032 1.45583,-0.62112 3.06195,-0.61136 1.35511,-0.0319 -2.97673,1.08373 0.55663,0.50682 -1.2317,1.2895 -2.75721,0.87899 -1.2661,-0.24419 -3.4845,1.3703 -0.91715,-0.455 -2.02454,0.20773 -2.63614,1.46279 -3.80366,1.59727 -2.92402,1.65301 0.18433,1.2298 -1.9983,1.64076 0.68487,0.69734 0.256,1.3674 3.58385,-0.55888 0.22466,1.03895 -1.6592,1.07257 -1.82317,1.74681 1.39204,0.002 3.61293,-1.17542 -0.81913,1.46451 1.80884,-1.05455 -0.20102,1.49128 2.43278,-1.06954 0.16476,0.50557 3.61441,-0.8906 -3.09047,1.73697 -2.85894,2.23995 -2.83796,1.04646 -1.1608,0.59445 -5.13395,1.78108 -2.46283,1.22326 -3.25131,0.33782 -4.24977,1.63687 -3.2847,0.92558 -4.07262,1.40389 -0.16923,0.50575 4.95269,-0.85915 3.01847,-1.00473 3.46175,-1.02136 3.06843,-0.83502 1.35839,0.23015 4.07998,-1.27828 2.22408,-1.40052 5.25226,-1.53635 1.98193,-1.31382 3.27085,-0.90303 3.79422,-1.23651 4.44645,-2.11445 -0.0913,-1.42354 5.54806,-2.077 3.68756,-1.9336 4.64545,-1.61159 -0.20462,0.72462 -3.36196,0.89101 -4.17349,2.85284 -1.56147,1.72327 3.1788,-0.62203 3.05326,-0.98643 3.25968,-0.60836 1.4429,-0.187 1.73192,-2.01919 3.14256,-0.61322 1.3143,1.23527 2.98625,1.33638 3.36511,-0.24834 2.8567,1.04064 1.59369,0.55432 1.66589,3.0443 1.85137,0.84791 3.55902,0.0722 2.01195,0.19071 -1.35695,2.79401 0.80391,2.40593 -1.64073,2.60614 1.23419,0.95566 0.32456,1.12928 1e-5,0 -1.25837,1.55 1.05273,2.19109 -1.54736,2.44313 2.04642,1.29465 -1.77936,1.87192 -0.67636,2.71183 3.47983,1.27352 0.80627,1.33233 2.69165,3.04113 0.32442,0.008 -0.80388,2.54852 -1.20269,2.55205 -1.12214,0.82164 0.51686,-2.9381 -2.89145,-1.05679 -0.69211,0.60741 -0.20456,1.44475 -0.88686,2.66224 -2.10241,4.16449 -2.00287,2.80222 -1.98387,2.79027 -2.7071,2.89561 -0.54812,2.36139 -1.39795,2.6582 -1.96119,2.59267 0.48706,1.7253 -0.93128,2.60028 0.74454,2.69602 0.66617,1.06737 -0.43042,0.74956 0.23345,4.50635 1.22223,3.24838 -0.38701,1.7637 0.4712,0.51787 2.34227,0.31611 0.61355,0.86574 1.43002,0.16058 -0.0602,0.91631 1.0976,0.3818 1.04454,1.83126 -0.14212,1.62325 0.0818,2.85252 0.38996,2.53161 0.32741,2.07731 0.38049,1.98053 1.32181,0.87902 1.42764,2.26671 -0.49945,1.43462 -1.32858,1.18845 -1.07006,-0.18049 -0.26252,0.24018 1.11741,1.84829 1.48318,0.77064 0.48113,0.8299 0.4605,-0.40994 1.52824,1.42111 1.06829,0.98718 0.0241,1.7258 -0.59026,2.32986 1.2334,0.80851 1.66898,1.53867 1.44948,1.81365 0.37164,1.93384 0.48385,0.0153 1.36544,-1.16846 0.17062,-0.56974 -0.72963,-1.42067 -0.81912,-1.44593 -1.29967,-0.10518 0.1897,-1.67883 -0.44427,-1.49206 -0.50413,-1.39483 -0.2157,-2.96266 -1.31113,-1.6205 -0.29133,-1.12722 -0.61338,-0.80967 0.01,-2.05174 -0.49401,0.0442 -0.052,-1.09202 -0.34738,-0.2269 -0.23128,-0.74807 -1.35629,-2.18684 -0.52159,-1.30728 0.49953,-2.37908 0.059,-1.51983 0.86587,-1.28641 1.23538,0.87284 0.94234,-0.138 1.52616,1.25635 -0.43427,1.21645 0.19511,2.42648 0.73991,2.39346 -0.16696,0.99245 0.83769,1.54622 1.12502,1.67534 1.39241,0.25889 0.11356,2.22098 1.2314,1.54736 1.21433,0.74281 -0.86277,1.96844 0.33118,0.77798 2.06799,1.30022 0.92799,1.98472 2.28026,2.48599 1.85638,3.16235 0.65014,1.6052 0.0395,1.2656 0.69747,1.42806 -0.18879,1.09977 -0.76401,0.8249 0.14098,0.90692 -0.9688,0.31044 0.4151,1.54986 1.07243,2.00581 2.69481,1.80534 0.93491,1.45144 2.68372,1.00699 1.52231,0.18979 0.57711,0.8496 2.1046,1.52053 2.93838,1.47905 2.02135,0.44579 2.40562,1.45943 2.00557,0.60526 1.85898,0.83847 1.43909,-0.3136 2.37864,-1.19696 1.58001,-0.23116 2.16652,0.82976 1.31014,1.03313 2.76566,3.42507 1.36207,1.31263 1.21069,0.63112 1.73216,0.0575 1.37564,0.55492 0.72426,0.68306 1.53038,0.19751 1.09481,0.63242 0.97614,0.3047 1.61082,0.0475 0.37667,-0.74905 0.82176,0.27659 0.39397,0.99523 -0.23068,0.22481 -0.41875,-0.47888 -0.35251,0.49195 1.27641,1.43677 1.09564,0.99981 0.53095,1.07231 1.20925,1.28338 0.89458,1.00203 -0.68352,0.61448 0.75857,0.44837 -0.43735,1.00203 -0.079,0.9685 0.34175,0.64106 0.87934,0.31432 0.58605,0.88277 0.60413,-0.76014 -0.12252,-0.9248 0.69834,0.56832 0.12746,0.93053 0.93917,0.40777 1.06516,0.62526 0.73321,0.76162 0.0633,0.70286 -0.35201,0.55227 0.53357,0.66776 1.48388,0.7059 0.29773,0.48101 0.1209,-0.69044 1.2022,-0.005 0.70831,0.3721 1.13845,0.21133 0.50436,1.27996 0.91544,0.18675 0.38985,-0.54085 0.39913,1.90037 1.31106,-0.16233 0.42571,-0.4714 0.78312,-0.40646 -1.25631,-1.7267 0.30666,-0.66201 0.61651,-0.11104 1.17077,-0.79911 0.62407,-1.1066 1.23551,-0.2027 1.34957,0.88426 0.47095,1.05113 0.69915,0.21798 -0.73209,0.84983 0.52277,1.71716 0.89488,0.91772 1.06586,1.69448 0.3411,2.69055 -0.63114,0.83519 0.53583,2.91022 -0.58607,1.84629 1.01303,0.75703 -1.11952,1.66891 -1.23018,1.99909 -1.39802,0.2133 -0.68227,1.15222 0.0967,1.59362 -1.05191,0.2387 0.36759,0.98758 -1.94559,1.26606 -1.54511,0.68239 0.18876,1.29821 -1.0642,2.04881 -0.50568,1.98174 -0.97978,0.4797 0.51448,2.88718 -0.55352,0.8968 1.71195,1.394 1.04285,-1.4772 0.63626,1.3893 -1.43644,2.3774 -2.18039,2.0091 -0.80213,2.228 1.46703,3.0341 -0.85378,1.4197 2.04923,1.2879 2.26459,2.0763 0.98654,2.3429 1.2145,1.4498 2.98619,6.3341 3.13823,5.8691 2.6775,4.1747 -0.38341,0.9167 1.37735,2.628 2.32259,1.961 5.31284,3.4795 5.81434,3.1945 0.37122,1.3053 2.96122,1.8266 1.0355,4.4802 0.7466,5.2056 -0.0594,7.1112 -0.0151,6.6116 0.45284,6.16 -0.9175,3.8835 1.05628,3.9178 -0.28356,2.6137 1.623,4.7479 -0.0581,4.7429 -0.60379,5.1394 -0.28882,5.2321 -1.07832,0.1053 1.20376,3.644 1.64203,3.1325 -0.5441,2.173 0.9836,5.7881 0.72072,4.4052 1.75672,0.4325 -0.52884,-3.8407 1.9942,0.8196 0.88886,6.3683 -3.19823,-1.0823 1.00569,5.1252 -1.36056,2.744 4.12031,0.907 -1.71413,2.4048 0.11916,2.992 2.48247,5.2769 2.09953,2.0443 0.10463,1.7944 1.62196,1.9326 3.76732,1.7402 0,0 3.68754,2.1099 3.12277,0.9822 0.97145,-0.07 -0.87261,-2.8274 1.68224,-1.0974 0.83628,-0.7485 2.14314,0.023 z M 279.0241,96.38521 l 1.57216,-1.23023 1.62578,-0.48826 0.89987,-0.75759 0.74318,-0.40489 1.99542,0.6261 1.66099,0.0747 0.39928,0.41578 0.0357,1.76334 2.57014,0.46767 -0.82101,0.88512 0.58856,0.91354 -0.92709,1.18211 0.87996,0.39038 -0.95949,1.04454 -0.004,0.004 -0.70872,-0.12559 -0.15506,-0.87062 -2.56496,0.27169 -2.51168,0.69216 -1.24048,-1.18478 -1.23658,-0.39677 1.52761,-1.64116 -2.65207,1.03059 -2.44756,1.00799 -2.27939,0.79098 -1.04352,-1.06838 -2.79194,0.64803 0.21769,-0.45648 2.2924,-1.31183 2.33605,-1.24506 2.99841,-1.02698 4e-5,-4e-5 z m 10.88924,4.98204 0.6604,-0.45687 0.20244,0.68833 1.71496,0.38556 1.88802,0.0327 1.89889,0.31696 1.99874,0.60117 0.43297,0.97226 0.70258,2.36577 -1.20924,1.01859 -1.88597,-0.424 -0.51573,-1.90801 -0.45227,1.94334 -1.88201,1.70886 -0.44091,1.45802 -0.54505,0.8576 -2.04424,1.0165 -4e-5,2e-5 0.36645,-1.2597 0.24985,-1.78159 -0.81423,-0.30729 -2.115,1.35177 -0.49417,-0.0256 0.18189,-0.77306 1.89,-1.22954 0.79871,-1.40288 0.36545,-1.40179 -1.36473,-1.20656 -1.8746,-0.6198 -0.84208,1.177 -0.68521,0.31475 -1.08035,1.52424 0.19818,-1.03515 -1.31632,0.73906 -1.0635,1.03481 -1.29197,1.50896 -0.66958,1.30338 0.0603,1.90027 -0.89155,2.02964 -1.63779,1.50356 -0.68826,0.42748 -0.82722,0.34057 -0.87901,0.0169 -0.15294,-0.20992 -0.0391,-1.62366 0.30662,-0.80079 0.38039,-0.75972 0.30563,-1.50511 1.21346,-1.73849 1.48011,-2.14233 2.31753,-2.37339 -0.3833,0.0109 -2.69978,1.98777 -0.18588,-0.36431 1.46369,-1.1117 2.35327,-1.99977 1.82332,-0.27899 2.21596,-0.62048 1.83154,0.32742 0.0782,0.014 2.32158,-0.27994 -0.72916,-1.2377 0,0 z m -2.3097,13.34804 1.33179,0.19448 2.27218,-0.98253 1.44414,-0.86119 0.81246,-0.14026 1.28689,0.30981 0.85943,-0.47873 1.39088,-0.38868 2.36306,-0.37804 -2e-5,8e-5 -0.063,0.30208 -2.88225,1.8381 -2.2608,0.89267 -1.47342,0.41665 -1.83577,0.85611 -2.01207,0.41248 -1.22271,-0.15878 -1.34348,-0.64097 1.33265,-1.19328 5e-5,0 z m 11.88108,-3.64881 -0.13441,0.0353 -0.83702,0.15892 -0.90435,-0.29131 1.16069,-1.05045 0.91246,-0.36318 1.95943,-0.44776 2.29913,-0.41832 0.90774,0.58129 0.95706,-0.67388 0.96099,-0.42596 0.45435,0.22551 0.0112,0.048 0.10061,0.42998 -0.28818,1.19544 -2.27731,1.01364 -1.98986,-0.25446 -1.95568,-0.11413 -1.33682,0.35138 z m 47.58052,311.8439 0.41648,-1.5014 -3.61661,-0.7521 -3.84876,-1.8087 -2.15738,-2.2689 -1.51106,-1.4073 -1.85422,-0.3589 -1.66535,1.2543 0.1404,2.0733 -0.59946,1.3844 -3.63529,-1.0835 -4.26464,-2.0217 -2.25958,-0.637 4.84626,3.3898 3.16801,1.6201 3.73992,1.679 2.65598,0.4339 2.11168,0.9009 1.49365,0.2424 1.19033,0.095 1.58843,-0.9303 0.24259,-1.2135 1.6587,1.0599 2.15992,-0.1499 z m 27.19251,26.1112 1.81719,-0.8298 0.38163,-0.943 -1.59899,-0.723 -1.55056,0.3338 -0.82268,0.8887 -1.22957,0.7203 -1.61661,0.3319 -1.2519,0.5525 -0.9142,0.8819 -1.97503,0.165 -0.98016,0.7146 -0.77688,0.7676 -0.20808,1.2023 -1.2694,0.8169 -0.98003,0.8691 -0.79722,1.0284 -0.69955,0.8093 -0.32404,1.2361 0.85598,1.0702 1.08009,1.172 0.29456,1.0604 -0.14829,1.1085 -0.35944,0.9984 0.43834,1.046 0.76028,1.0411 1.09216,0.9326 1.27381,1.0313 1.35125,1.0263 1.27295,1.0212 0.92047,1.0667 0.26877,1.1115 -0.60804,0.8046 -1.52848,0.5511 -2.22742,0.35 -2.51919,0.2996 -2.09356,0.3487 -1.47727,0.6461 -1.5745,0.5452 -2.36181,0.2471 -1.99424,-0.8419 -2.40466,-0.5467 -2.44857,0.2487 -2.74895,-0.9968 -0.0199,0.8974 -0.71509,0.9426 -2.76808,-0.5452 -2.60097,-0.298 -2.62223,-0.099 -2.46641,-0.9973 -2.21418,0.2498 -2.64533,-0.4499 -2.59065,-1.1542 0.0844,1.9533 -2.39262,0.1992 -2.53559,-0.5983 -2.10904,0.2994 -2.17093,0.498 -2.15159,0.3478 -2.758,-0.1491 -1.73467,-0.8963 -2.72783,-0.7501 -2.6914,-0.4012 -2.36991,0.1505 -2.71352,-0.1505 -1.85324,-0.3517 2.67072,1.9018 1.42442,0.9442 2.10909,0.9396 2.68946,0.1971 1.89787,0.8849 2.14435,0.832 0.20417,1.0711 -3.0847,-0.4373 -2.94585,-0.3411 -2.96722,-0.098 -1.89051,0.4386 -2.48663,0.1458 -3.00828,-0.682 -2.9164,-0.2931 -3.39711,-0.9309 -1.08096,0.7354 -2.25219,-0.8338 -1.74653,-0.8867 -2.18797,-0.7916 -0.99781,0.8903 -1.74081,0.4437 -3.07575,-0.5424 -1.83137,0.3946 -0.99934,0.7377 -2.48429,0.098 -2.90107,-0.049 -2.82773,-0.049 -2.51691,0.098 -3.17307,-0.2454 -2.91775,-0.2458 -2.02602,0.3439 -2.5444,0.049 -3.16957,-0.4422 -2.3483,0.344 -1.59266,-0.1965 -1.71016,-0.1475 -1.5241,0.5404 -1.24298,0.5389 -1.66699,0.5861 -2.17672,0.2437 -2.62501,0.049 -1.16671,0.6318 -2.07868,0.4844 -2.45962,-0.8244 -1.71542,0.437 0.90906,0.8702 2.21605,0.9127 1.64439,0.9062 -2.36946,0.2372 -0.65251,0.8028 -1.09607,0.6562 -1.47582,0.5125 -2.45023,0.2318 -3.44739,-1.025 -2.28183,0.3274 -2.55568,0.2332 -3.09866,-0.7481 -1.35303,-0.2352 5.87025,2.6887 3.05811,0.8162 3.76893,0.7174 2.86679,0.8415 3.88359,0.2195 3.80504,0.3058 3.89264,0.1306 3.87522,0.6479 3.45281,0.5975 2.37608,0.8824 0.0287,0.7017 -1.24346,0.7708 -1.79097,0.5982 -3.92478,-0.6787 -3.27351,0.3208 -4.42281,-0.12 4.04281,0.6357 2.8478,0.7026 4.00166,0.5368 2.08274,0.7895 0.94886,0.6975 1.10261,0.7521 1.57189,0.8003 5.27267,0.3739 2.9281,0.6652 6.15471,0.3897 6.5229,0.064 1.37886,0.7557 -3.45682,0.4275 -3.13943,0.4468 -5.01989,-0.477 -7.57078,-0.3048 -3.52801,0.4253 -7.12771,-0.364 -4.92603,-0.4966 -5.67597,-0.4129 -3.90496,-0.5526 -1.29533,-0.2016 -2.59969,-0.3988 -4.00205,0.3022 -0.11159,0.097 -0.16628,0.6949 -4.25863,-0.6949 -0.22598,-0.013 -0.27608,-0.019 -0.24352,0.5345 -0.0267,0.058 -4.39191,-0.5244 1.28646,0.9635 -0.13026,-0.013 21.55467,6.5902 538.39581,0 21.55468,-6.5902 -1.67134,-0.3937 -2.27288,-0.5236 -5.65574,0.4264 0.12413,-0.4959 0.0326,-0.13 -3.73326,-0.3703 1.38499,-0.8629 -2.36599,-0.5675 -1.0846,-0.5792 -0.90074,-0.5906 -0.52629,-0.6399 0.2408,-0.7298 1.02003,-0.8244 -0.75062,-0.6806 2.63178,-0.7746 2.48536,-0.7888 2.52326,-1.0161 4.1885,-1.2558 3.55373,-0.088 3.76085,-0.4846 3.9797,-0.3549 1.43177,-0.9865 -2.67129,-0.3168 0.87044,-0.8213 1.4147,-0.8765 0.85051,-0.9322 1.74394,-0.8942 2.31925,-1.0929 2.22393,-0.9103 2.68652,-1.0134 2.81158,-0.7766 3.00055,-0.9268 2.62893,-0.9804 3.43924,-0.5414 2.70412,-0.8892 3.2256,-0.3966 2.73308,-1.0448 2.23265,-0.9 2.83708,-1.156 2.55643,-0.9095 1.90427,-1.0153 -0.15662,-0.7648 -1.24527,-0.5115 -1.09764,-0.6155 -1.66996,-0.3598 -2.07217,-0.206 -2.46927,0.051 -1.92168,-0.1545 -2.39075,0.052 -1.62142,-0.4124 -0.16499,-0.9313 -1.38787,-0.6231 0.49863,-1.0426 -1.90317,-0.3137 -2.10303,-0.2618 -0.92591,-0.6294 -0.41239,-0.8423 -0.81161,-0.7395 -2.52796,0.8978 -2.25307,-0.053 -1.52672,-0.4219 -2.21841,-0.423 -2.04131,-0.4763 -1.42018,-0.6902 -1.42218,-0.6386 -0.34446,-0.8007 1.66035,-1.0179 -0.4235,-0.8602 -2.07604,-0.2154 -2.61851,-0.1079 -2.03245,0.054 -2.74751,0 -2.07457,0.1617 -2.80775,0.054 -2.56137,0.1616 -1.20946,-0.485 0.1733,-0.9182 0.57018,-1.1385 1.01056,-1.2522 -0.4951,-0.7646 -1.33598,1.1464 -2.07601,1.3589 -2.13695,0.2168 -2.23466,0.2708 -2.38951,0 -2.25916,0.1083 -2.72808,0.4325 -2.40975,0.4859 -1.64239,-0.2698 -1.56459,-0.2701 -1.89173,0 -2.42147,0.4319 -1.89809,-0.2697 -1.50505,-0.3785 -2.11163,0.2163 -2.26926,0.8633 -2.50792,0.8606 -2.38043,0.2147 -2.34448,-0.2684 -1.80617,-0.6992 -0.75437,-0.7009 -2.40362,0.1079 -0.65709,-0.8648 -0.25666,-0.8675 -1.14931,-0.5436 -2.12528,0.5978 -2.45529,0.1087 -2.18771,0.8129 -2.41903,0.7565 -2.60046,0.3776 -2.54575,0.3232 -1.92439,0 -1.99958,-0.054 -1.20824,-1.674 -0.56723,-0.9768 -0.97203,-0.7618 -1.05106,-0.3818 -4.37263,2.0661 -2.07345,0.7575 -1.83273,0.917 -2.15497,0.914 -1.85202,-0.376 -2.22922,0.376 -2.24479,0 -2.17957,0.3753 -1.11846,-0.5901 -1.62932,-0.1612 -1.51853,0.2685 -1.91817,-0.054 -1.95878,-0.2149 -2.24761,0.3222 -1.83889,-0.2148 -1.35791,-0.5376 -0.0335,-1.2951 -0.23299,-0.7582 -2.40171,1.8378 -2.06162,0.7531 -2.17257,-0.1612 -2.27279,0.3223 -2.06677,0.2683 -1.89374,-0.2683 -1.80656,0.4292 -1.51312,0.4819 -1.76263,0.9079 -2.10704,0.5325 -2.49106,0.6904 -2.09389,1.0055 -1.28632,1.0014 -1.7191,1.0493 -2.35483,0.4182 -2.2379,0.3134 -2.37065,0.1042 -1.44149,0.2606 -1.93074,1.2978 -1.13472,0.9297 -1.77281,0.7716 -1.64588,0.8198 -1.31953,0.9692 -1.77875,1.0153 -2.58419,0.4553 -2.09997,-0.2528 -0.96923,-0.811 1.62552,-1.0695 1.64005,-0.9724 0.93184,-1.0286 -2.26857,0.052 0.36695,-1.0334 2.18873,-0.9865 2.362,-0.6775 0.98284,-1.204 0.4987,-0.6834 -0.01,-2.8069 -2.06572,0 -1.90352,-0.2132 -1.76638,-0.3201 -1.85288,-0.3206 -1.63259,-0.5885 -2.39334,1.1226 -1.94623,0.5328 -1.89903,-0.1598 -1.31578,-0.7466 -1.0016,-0.749 -2.32653,-0.3217 -0.89846,-0.7521 -1.40518,-0.916 0.35586,-1.1901 -1.34106,-0.76 -1.8634,-0.2719 -1.79175,-0.1631 -2.04321,0.2175 -2.29917,0.4349 -1.96686,0.5426 -2.09229,0.758 -0.82009,0.9713 -1.99015,0.6457 -1.94005,-0.054 -1.65392,0.7515 -2.2611,0.9629 -1.82248,-0.3205 -1.85399,0.5874 -1.94827,0.6392 -1.83916,0.5845 -2.61741,0.5301 -2.14769,0.3705 -2.45051,0.8971 -2.0083,0.4734 -1.12412,1.1536 -2.28405,0.6265 -1.27724,-0.6789 -1.12122,-0.9435 -2.18361,0.2101 -1.55987,-0.6306 -0.51091,-0.9492 -2.00498,-0.4229 -1.42697,0.898 -1.54644,1.4717 -1.7621,0.7323 -2.13713,0.2609 -2.03032,0.4688 -1.9727,0.7273 -2.20992,0.3109 -2.0988,0.3623 -2.25432,0.052 -2.28074,0 -2.38187,0.1033 -2.29735,0.4644 -1.13868,-0.7746 -0.77298,-0.8813 -2.14484,-0.1559 -2.19991,-0.3122 -2.12996,-0.052 -2.39244,0.1041 -2.22241,0.312 -1.79573,0.9853 -0.65556,-0.9853 -2.62999,-0.1559 -2.13894,0.727 -1.01993,1.0341 -2.32796,0.5152 -1.04797,-0.9282 -1.34743,-1.2441 -2.12374,0.3637 -1.45304,-0.6759 -1.28787,0.9352 -1.76775,0.5694 -2.26147,0.4131 -2.06514,0.6182 -2.24155,0.3599 -2.27302,0.3591 -2.03266,0.4608 -2.17834,0.8677 -0.85958,-1.0724 -2.26286,-0.1537 -2.48704,0.3073 -2.55132,0.4599 -2.37819,-0.1532 -0.55834,-0.9729 -2.16494,-0.2568 -0.9461,1.0253 -0.01,0.9692 -2.37168,-0.1018 -1.04381,-0.8674 -2.38918,-0.1536 -1.36669,0.7153 -0.8359,1.2202 -1.42243,1.0112 -1.89056,0.8053 -2.05469,0.6018 -1.94239,0.5002 -1.16134,0.7977 -0.503,1.0419 2.12967,0.5928 -0.39698,0.9838 -1.65772,0.7347 -1.51091,0.8293 -2.45964,0.7768 -1.9284,0.5801 -2.132,0.5778 -2.17643,0.4796 -2.63848,0.3346 -2.84377,0.095 -1.21268,0.1906 -2.395,0.3329 -2.38718,0.4265 -1.32008,0.9416 -1.95748,0.7002 -1.93549,0.6946 -2.82198,0.5513 -2.33948,0.5475 -0.58278,0.4984 0.54654,1.693 0.87819,0.8288 3.45086,0 3.47707,-0.3474 3.39097,-0.087 0.326,0.8228 1.05995,0.7674 1.52535,0.7554 -2.46363,0.5376 -3.66111,0.3683 -3.44237,0.2843 -3.00886,0.4426 -3.15371,0.4379 -4.29082,0.039 -2.02125,0.5882 -0.57797,0.8456 -3.69786,-0.4588 -4.3274,-0.2703 -4.19283,0.039 -2.62474,0.5381 -3.12323,0.4921 -2.44869,0.5956 -2.29035,0.548 -1.46109,0.6442 -1.40673,-0.6804 -2.40582,-0.8827 -3.69468,-0.6406 -3.39848,-0.5756 -4.66194,-0.5457 -4.54136,-0.3156 -3.73922,-0.639 -3.10011,-0.6494 -3.6921,-0.5765 -4.01123,-0.3329 -3.04737,-0.8006 -1.21814,-0.8139 -2.83594,-0.7392 -0.83577,-0.8821 -0.84607,-0.94 1.98692,-0.5886 3.32195,0.227 1.32361,-0.7287 -1.90768,-0.8281 -2.63965,-0.65 -3.18855,-0.4201 -1.4598,-0.9407 3.10421,0 2.75473,-0.1892 3.33505,0.095 2.88112,-0.095 0.64925,-0.9986 2.08547,-0.5265 1.92154,-0.5286 2.19628,-0.3858 2.15103,-0.92 0.55342,-0.8276 0.2404,-0.8804 2.30402,-0.3435 0.56982,-0.8366 0.38581,-1.0387 -0.57495,-1.3437 -1.22359,-1.0013 -0.76144,-1.0064 -1.15063,-0.9608 -1.67034,-2.3966 -1.14551,-0.9767 -1.44241,-0.8778 -1.17911,-1.0375 -0.9926,-0.9904 -1.4214,-1.0472 -2.02925,-0.8415 -2.03987,-0.6329 -1.56335,-0.8469 -1.35406,-1.1158 -0.24044,-1.0139 0.65725,-1.1792 0.76395,-0.8608 0.66322,-0.9178 1.86303,-0.2163 1.10924,-0.6502 -1.46332,-0.9235 -0.65083,-1.0356 -0.2599,-1.0941 0.63554,-0.823 1.20107,-0.7152 1.15238,-0.6614 1.63828,-0.276 1.80833,0.4416 0.64458,-0.6073 z m 44.79913,36.2464 -3.01798,-0.503 -2.38689,0.503 -0.91853,-1e-4 0,0 -0.56416,0.9507 -0.56581,0.8041 -0.24711,0.8376 -0.46047,0.9547 -1.00701,0.7258 -3.29767,0.5894 0.34094,0.8701 2.77481,0.6917 4.15637,0.1208 3.3238,-0.4042 2.92149,-0.4903 2.47822,-0.5376 2.2896,-0.6707 -0.71751,-1.1104 -0.76068,-0.9584 -1.55457,-1.3778 -2.78684,-0.9954 z m -22.49526,4.4723 -2.54314,-0.8944 -0.29592,0.7676 -0.55677,0.8801 -3.91928,-0.2079 -3.98868,-0.083 1.51489,0.6222 0.0746,0.082 2.78726,0.6931 3.73311,-0.1214 3.84381,0.2828 -0.27415,-0.9368 -0.37575,-1.0841 z m -32.70975,-22.1683 -1.29852,-1.1849 -1.38429,-1.1399 -1.61676,-1.1981 -1.0922,-0.9948 -1.69378,-0.9992 -1.62088,0.4212 -0.36207,1.2592 1.41642,2.1343 0.52677,0.9817 0.30608,1.3361 -2.37053,-0.1024 -1.15217,0.3072 0,0 -1.45619,1.0209 0.88468,1.0664 2.05242,0.7583 1.93684,-0.3536 2.06118,-0.3541 -0.24856,1.0102 2.60511,0.05 1.83901,-0.5043 2.06915,-0.3538 -0.0985,-0.9634 -0.31438,-1.0192 -0.98886,-1.1782 z m -58.56172,2.547 -3.05459,-0.2029 -2.86007,-0.356 -0.79052,0.4575 0,0 2.09389,1.0632 2.49849,0.5044 2.49791,-0.1511 2.51518,0.1007 2.28186,-0.1007 1.72606,0.2014 -2.53455,-1.4656 -1.87474,0.3041 -2.49892,-0.355 z m -38.98716,4.0185 -2.87223,-0.448 0.65248,0.8454 0,0 3.06287,0.8911 2.91975,0.1973 0.99268,-0.6424 -0.0107,-0.8932 -1.75359,0.4471 -2.99129,-0.3973 z m -8.4656,-0.05 -2.70641,-0.5977 -0.68987,0.548 0,0 3.55827,0.6952 2.81276,0.2477 1.259,0.099 -4.23375,-0.9921 z m -37.65607,14.4687 -2.60687,-1.0033 -3.02955,-0.7973 -3.28144,-0.7173 -4.09618,-0.3617 0.71578,0.8556 1e-5,0 2.48112,0.6233 0.35378,0.1328 2.73958,0.7903 3.99528,0.7792 2.72849,-0.3016 z m 680.34896,-196.1179 0.27298,-1.1555 0.051,-1.8008 -0.79247,-1.6182 0.0556,-1.3362 -0.64692,-0.3846 0.0501,-1.9957 -0.60879,-1.5561 -1.17485,1.1915 -0.17776,0.9076 -0.74574,1.7477 -0.89361,1.6865 0.29055,1.0623 -0.62476,0.6462 -0.71362,2.3967 0.0408,1.8207 -0.34961,0.9255 0.13021,1.5385 -1.28933,2.5312 -0.66549,1.7445 -0.83009,1.4099 -0.87349,1.7085 -2.04373,1.0871 -2.43462,-1.0791 -0.23261,-0.9828 -1.29774,-0.8146 -0.78289,0 -1.65982,-1.885 -1.23613,-1.0955 -1.96415,-1.0196 -1.91854,-1.7578 -0.0554,-0.8981 1.23061,-1.5635 1.05402,-1.5897 -0.14201,-1.2717 0.97286,-0.1059 1.23503,-1.2852 0.96715,-1.7027 -1.08543,-1.5739 -0.72854,0.6112 -1.01485,-0.277 -1.74362,0.9109 -1.61013,-0.978 -0.83637,0.3219 -2.25405,-0.8139 -1.33338,-1.3046 -1.76297,-0.7886 -1.53884,0.4621 1.92815,1.0474 -0.1414,1.6256 -2.41837,0.5994 -1.38204,-0.378 -1.82794,1.1222 -1.44332,1.8168 0.32949,0.7948 -1.36938,0.8314 -1.6966,2.5512 0.32635,1.747 -1.72354,-0.2984 -1.73813,-0.022 -1.26722,-1.8842 -1.85358,-1.46 -1.40527,0.4289 -1.28805,0.4555 -0.16171,0.7997 -1.17099,-0.3712 -0.17002,0.8889 -1.47798,0.5418 -0.85665,1.2557 -1.75912,1.5651 -0.72448,2.4207 -1.11336,-0.6891 -1.1234,1.5436 0.73592,1.5033 -1.28828,0.6347 -0.7098,-2.7467 -2.39106,2.7035 -0.3685,1.7295 -0.34552,1.2694 -1.90734,1.6149 -1.00757,1.7 -1.75365,1.4121 -3.06728,0.9313 -1.51243,-0.075 -0.78173,0.2902 -0.54139,0.6969 -1.73518,0.3527 -2.38086,1.1852 -0.69013,-0.3921 -1.29691,0.2483 -2.30966,1.1671 -1.57951,1.3563 -2.42363,1.0633 -1.55446,2.1881 0.22551,-2.4222 -1.54435,2.2886 -0.0488,1.8592 -0.67702,1.5915 -0.71442,0.7831 -0.66605,1.8408 0.43709,0.9524 0.049,1.0027 0.79229,2.5073 -0.33867,1.6313 -0.51562,-1.2333 -1.14178,-0.9235 0.22571,2.9548 -0.86793,-1.3774 0.0529,1.3586 0.92265,2.5208 -0.3247,2.4928 0.84912,1.2667 -0.19695,0.9341 0.46863,2.0673 -0.66935,1.8072 -0.13201,1.8091 0.35752,3.2017 -0.35055,1.8785 -1.11356,2.2074 -0.3214,1.1426 -0.71854,0.7253 -1.4829,0.4341 -0.73969,1.8309 1.19835,0.6081 2.02392,2.0516 1.77531,0 1.88229,0.1265 1.67717,-1.0227 1.68712,-0.9073 0.71704,0.145 2.24826,-1.7074 1.88354,-0.1466 2.04932,-0.3486 2.12203,0.5826 1.78332,-0.2842 2.28887,-0.078 1.49918,-1.2964 1.16879,-1.6691 2.60079,-0.7332 3.46314,-1.6276 2.47352,0.2103 3.45661,-1.0583 3.90749,-1.1347 4.92065,-0.2997 1.97554,1.5426 1.84684,0.091 2.65126,1.9226 -0.8076,0.7333 0.90569,1.1917 0.66818,2.3125 -0.83299,1.6987 1.47753,1.3215 2.16118,-2.5509 2.14576,-1.0926 3.35293,-2.7158 -0.81604,2.3575 -1.72438,1.5645 -1.23807,1.8497 -2.20083,1.7809 2.62831,-0.5923 2.31275,-2.2236 -0.45412,2.3861 -1.60031,1.5659 2.35766,0.3896 0.66815,1.3132 -0.1861,1.6379 -0.74394,2.4616 0.66204,1.9941 2.03396,0.9332 1.36859,0.2305 1.20271,0.5095 1.772,0.8715 3.56672,-2.3316 1.7592,-0.611 -1.32265,1.6821 1.2831,0.5675 1.35287,1.4185 2.35943,-1.3774 1.89872,-1.2475 3.14474,-1.3249 2.99438,-0.1176 2.11907,-1.1246 0.42076,-1.0247 1.52514,-2.2336 1.92241,-2.4237 1.83956,-1.6096 2.17415,-2.7733 1.6638,-1.5807 2.16414,-2.4684 2.71777,-1.5611 2.512,-2.8842 1.54072,-2.2704 0.72549,-1.8164 1.89318,-2.8291 1.04921,-1.4709 1.22078,-2.8136 -0.33016,-2.7044 0.85404,-1.971 0.51705,-1.8158 0.0172,-2.5595 -1.40076,-2.5776 -0.94182,-1.2146 -1.43562,-1.9538 0.35791,-3.3713 -0.7887,0.489 -0.78727,-1.3784 -1.26186,0.6989 -0.27558,-3.4411 -1.13003,-1.9941 0.53164,-0.7705 -1.54634,-1.3843 -1.62118,-1.5114 -2.63663,-1.6618 -0.43863,-2.1574 0.61098,-1.6492 -0.20129,-2.7192 -0.62204,-0.3881 -0.11281,-1.5883 -0.0857,-2.728 0.53507,-1.4101 -1.1236,-1.2424 -0.70159,-1.3466 -1.98193,1.1998 -0.60561,-2.4962 z m -25.01864,86.1581 -1.51352,-0.277 -0.97258,1.4308 -0.28364,2.6992 -1.02285,2.0343 -0.24931,2.6305 1.49482,0.096 0.40941,0.165 3.26761,-2.141 0.30081,0.8415 1.9862,-2.4744 1.60453,-1.0625 2.268,-3.6831 -1.41131,-0.2098 -2.39874,0.6001 -1.67828,0.4272 -1.80115,-1.0764 z m -51.1076,-147.27273 -2.3002,1.74236 -1.05507,1.19021 -1.29011,2.01167 -1.917,2.51668 -3.34299,0.68872 -1.17958,0.59995 -0.49205,2.6934 -2.15804,0.59444 -2.08349,-1.09016 -1.62572,2.11399 -0.29384,2.94755 0.39039,2.78315 1.31769,2.72118 1.38586,0.88429 0.31551,4.2664 2.30299,0.3671 1.8457,-0.1749 0.96899,1.5395 3.3808,-1.144 1.36272,1.0193 1.99513,0.1798 1.03174,1.9446 3.25011,-1.4314 0.36562,1.1316 1.26543,-4.8647 0.15417,-3.168 2.73598,-2.17576 -0.10721,-2.88277 0.92341,-2.16882 3.32503,-0.37531 -3.20464,-2.94393 0.44632,-1.4635 -2.16591,-3.01174 1.47769,-2.873 2.01664,-1.08368 -0.57727,-1.55343 1.87488,-0.15778 0.13515,-1.2461 -2.39164,-0.9571 -1.89617,-0.8869 -0.20689,-1.38279 -1.53672,-1.60933 -1.13335,0.0104 -1.26883,2.48636 -2.04123,2.21241 z M 386.93331,1.46233 l -3.46867,-0.11518 -3.46143,-0.1147 -5.12519,0.30689 -0.65717,-0.19632 -5.15164,0.0753 -3.21638,0.20149 -2.55235,0.29416 -2.50641,1.01484 -1.15959,-0.53043 -1.94962,-0.098 -3.35458,0.70571 -3.70018,0.31191 -2.04989,0.0629 -2.99774,0.37144 -0.51035,0.67461 1.23393,0.58966 0.38797,0.82846 2.18273,0.70871 6.21162,-0.13397 3.61903,0.24328 -3.58878,0.77592 -1.11013,-0.23212 -4.64636,-0.092 -0.56688,1.11178 1.49688,0.86032 -1.38089,0.77891 -3.76363,0.53844 -2.45283,0.88427 2.41871,0.44278 0.84164,1.49984 -3.74409,-1.01242 -1.28514,0.16387 -0.97857,1.70372 -3.97658,0.54087 -1.02149,1.15689 3.36453,0.12709 2.45373,0.29406 5.82208,-0.37663 4.19293,0.67118 6.3215,-1.45406 0.51634,-0.58604 -3.22395,0.0926 0.27321,-0.54073 3.24391,-0.70925 1.76381,-0.91953 3.43352,-0.65836 2.4763,-0.78937 -0.36559,-1.11913 1.62592,-0.40011 -2.1542,-0.27933 5.58002,-0.23733 1.56351,-0.44924 3.97076,-0.36236 4.65114,-1.74513 3.37064,-0.58913 5.19413,-1.23351 -3.71655,0.0103 1.96282,-0.44533 4.47118,-0.39805 4.8762,-0.83754 0.53114,-0.50463 -2.58267,-0.50456 -3.34181,-0.23498 -4.2905,-0.1428 z m -54.45761,22.5817 2.88103,-1.64052 -5.58789,0.67326 -2.93735,1.0386 -3.55053,2.29369 -1.637,2.62867 2.81685,0.0114 -3.07656,1.19541 0.9109,0.92534 2.943,0.39832 3.661,0.77733 6.91817,0.594 3.91608,-0.34212 1.63999,-0.78277 0.95278,0.90326 1.67828,0.15149 1.01963,1.6609 -1.76447,0.67946 3.54689,0.91643 2.31609,1.31351 0.2171,0.93152 -0.17133,1.20814 -4.34134,2.67979 -1.5748,1.38243 0.11118,0.99346 -4.59223,0.35643 -4.02874,0.0496 -2.69845,2.0618 1.21881,0.96612 6.48875,-0.44929 0.45055,-0.81497 2.32462,1.36453 2.39152,1.45196 -1.20641,0.79976 1.86823,1.38518 3.80508,1.65807 5.37401,1.14473 0.14606,-1.00135 -1.39498,-1.72524 -1.77592,-2.44705 4.25328,2.27287 2.36347,0.77254 1.77583,-2.04582 0.0227,-2.79732 -0.49504,-0.74677 -2.21724,-1.28896 -1.35052,-1.62122 1.15024,-1.58917 2.91528,-0.34642 1.88886,2.67008 2.00095,1.19381 5.37625,-3.23388 1.64531,-1.93665 -3.19538,-0.18238 -1.63306,-2.51324 -2.94765,-0.59692 -3.81458,-1.76627 4.49759,-1.25202 -0.4163,-2.49393 -1.08938,-1.06524 -4.16224,-1.03865 -0.95294,-1.66389 -4.09242,0.58909 0.543,-1.13532 -1.82082,-1.23279 -3.35991,-1.30061 -2.64154,1.02099 -4.47024,0.74898 1.62716,-1.6852 -1.13843,-2.63385 -5.79462,1.04142 -3.56769,2.06059 -0.1585,-1.59515 z m 31.78768,64.04996 1.9169,-1.93337 0.73723,-0.82989 -1.07441,-0.13397 -2.44318,1.05464 -2.07727,1.74648 -4.09506,4.91996 -2.64706,1.87093 0.8128,0.8448 -1.87332,1.09546 0.10033,0.92163 4.78213,0.0951 2.71656,-0.18594 2.16523,0.75632 -2.16511,1.46216 1.45526,0.10803 3.62908,-2.6992 0.58088,0.39553 -1.23377,2.54609 1.4809,0.58707 1.1585,-0.1157 1.77506,-2.73839 -0.2446,-1.93457 0.14235,-1.64998 -1.87241,0.53155 1.40736,-2.27408 -2.16402,-0.95295 -1.35329,0.75493 -1.91739,-0.84916 1.18661,-1.07833 -1.43237,-0.66161 -1.91869,1.04331 2.46477,-2.69681 z m -12.05374,-63.91033 -2.2312,-1.3959 -4.18434,-0.27277 -1.06775,0.16833 -0.8444,0.91331 1.03841,1.35314 0.44135,0.15548 2.40625,-0.34424 2.05692,0.054 2.01472,0.0746 0.37004,-0.70599 z m -25.13874,-9.90526 -3.59467,-0.15161 -1.85553,0.98374 1.26997,0.74883 3.49664,0.29671 0.69568,1.06663 -1.0773,1.22166 -0.76195,1.36376 4.24841,0.80499 2.78081,0.30883 3.95908,-0.0444 5.82109,-0.38571 2.16617,0.30442 3.31414,-0.53767 1.76926,-0.66313 0.49916,-1.02738 -1.15152,-0.9309 -2.87572,-0.17296 -4.01243,0.20933 -3.50618,0.53454 -2.53265,-0.20678 -2.41917,-0.10845 -0.58363,-0.58451 -1.55381,-0.55422 1.40796,-0.91466 -0.72055,-0.79499 -3.63083,0.005 -1.15243,-0.77138 z m 20.63019,-5.88503 0.30954,-1.42443 -2.35586,-0.40057 -2.34829,-0.44864 -0.78497,-1.09787 -4.11359,0.10342 0.12805,0.46881 -1.9524,0.14425 -2.03701,0.63458 -2.44843,0.94216 -0.17153,0.97978 1.00309,0.73212 3.24758,-0.0169 -2.13413,0.59352 -1.03677,0.81816 0.79279,0.9324 3.37491,0.29545 3.37165,-0.16612 5.26333,-1.71293 3.19159,-0.66465 -1.29955,-0.71255 z m 1.1275,84.58814 0.11694,-0.56909 -2.06493,-1.29412 -2.93969,-0.7752 -0.93654,0.25997 1.76229,1.46178 2.84867,0.97217 1.21326,-0.0555 z m -7.15844,7.94655 -0.39052,-1.51163 -1.24897,0.95984 0.29043,1.04088 2.75804,1.31803 0.98978,-0.20235 1.62134,-1.27259 -2.34123,0.0847 -1.67887,-0.41693 z m 0.56543,-60.9769 1.86678,-0.80855 0.47285,-0.37625 0.72163,-1.16624 -1.12437,-0.75086 -2.13565,0.37576 -1.87933,1.52477 -0.34899,1.33884 2.42708,-0.13747 z m -12.45251,-26.67569 0.53354,-0.26966 -0.75621,-0.43602 -3.60385,-0.0342 -0.31199,0.657 3.22992,0.15063 0.90859,-0.0677 z m -2.09881,-1.25855 1.51252,-0.83525 -1.14543,-0.79355 -0.8479,-0.15 -2.1884,-0.0904 -1.06839,0.94257 -0.32393,0.86637 0.79876,0.54149 3.26277,-0.48126 z m -7.73088,32.05415 -1.37376,-0.22664 -2.4987,2.55682 -1.79021,2.21405 -2.83109,1.39898 3.11969,-0.27204 -0.36086,1.66051 4.05967,-1.46917 3.12986,-1.50463 0.38544,1.27231 2.93811,0.68167 2.48411,-0.89189 -0.94961,-0.93685 -1.72808,0.21985 0.6735,-1.34012 -1.88299,-0.87502 -1.69853,-0.96028 -0.74189,-0.73216 -1.38309,0.4306 0.44843,-1.22599 z m -1.27945,-19.04214 2.78473,-0.49696 5.01292,-2.26215 -3.07379,-0.61347 -3.90456,-0.0878 -2.59412,0.68692 -2.07907,1.07625 -1.26755,1.26661 -0.91166,2.25795 2.15823,0.0964 3.87487,-1.92376 z m 7.62271,28.92652 -0.20289,-0.58727 -0.85961,-0.0626 -1.37209,0.85954 -0.22367,0.19818 0.0587,0.85731 0.82891,0.24464 1.77064,-1.50976 z m -2.94237,-34.5016 0.1381,-0.78587 -0.70614,-0.86647 -3.42647,0.6651 -2.21668,1.11761 1.61039,0.65043 2.56814,0.18629 2.03266,-0.96709 z m -1.85435,32.92238 0.39478,-0.5526 -2.97872,-0.0271 -2.47044,1.31677 -0.0148,0.77439 1.50952,0.0662 3.55964,-1.57766 z m -0.64927,-40.97926 0.0488,-1.08744 -3.69824,-0.82143 -3.05063,-0.30374 -1.067,0.85857 1.40555,0.54612 -2.65035,0.67994 3.88022,0.0854 1.98044,0.75081 2.61776,0.25984 0.53346,-0.96808 z m -1.85841,3.78847 -0.51917,0.31733 -2.42912,-0.13958 -3.78287,0.82664 -1.90272,-0.076 -2.14991,1.89329 3.29492,-0.18971 -1.69154,1.44396 1.58983,0.39799 3.40215,-0.25535 2.90303,-1.83937 1.37948,-1.25602 -0.0941,-1.12321 z m -11.48752,7.11682 -3.56783,1.22619 0.43811,1.6699 -3.66141,-0.31795 -0.87525,0.82078 2.92836,1.99341 0.43083,0.99372 1.7115,0.21803 4.18389,-1.00847 2.53572,-2.32517 -1.88138,-1.10275 3.02498,-1.22093 0.24016,-0.73474 -3.76567,0.32044 -1.74201,-0.53246 z m -2.17814,12.33553 -0.37348,-1.0233 -0.17348,-0.50676 -0.79936,-0.47901 -1.47958,-0.75226 -2.4341,1.15136 -2.51797,0.82713 1.73278,1.20436 1.91618,-0.29364 2.06596,0.81468 2.06305,-0.94256 z m -0.81564,-23.87673 -1.6582,-0.46055 -0.80481,-0.10315 -2.82484,0.68118 -0.5051,0.32706 2.97445,0.002 2.8185,-0.4468 z m -5.04083,5.68133 0.87351,-1.15641 -1.53353,-0.27923 -2.85777,0.88066 -0.33882,2.34338 -3.04422,-0.18759 -1.43024,-1.45359 -4.1073,-0.82117 -2.6826,0.68041 -5.80215,2.40327 2.05712,0.44391 8.912,-0.29579 -5.31235,1.10096 -0.76758,0.81582 2.97105,-0.0569 6.11088,-1.08252 6.87674,-0.38668 2.5533,-1.1757 1.14446,-1.20517 -1.8207,-0.10631 -2.17534,0.41009 0.37354,-0.87145 z m 1.15019,-3.58405 1.57619,-0.70037 -2.02883,-0.36393 -2.96943,0.23657 -2.5319,0.74506 1.62024,0.76187 4.33373,-0.6792 z m -2.24982,10.51765 -0.86279,-0.55801 -2.69633,0.10133 -1.04863,0.3551 1.10846,1.78524 3.49929,-1.68366 z m -19.58469,0.75981 -1.40734,-0.49188 -7.03487,1.55428 -2.55701,1.02323 -3.88054,1.94012 2.69687,0.68644 3.10647,-0.0365 -5.76817,1.04663 -1.8e-4,0.96933 2.78835,0.053 4.50815,-0.20961 3.24354,0.61618 -3.10013,0.46012 -2.71598,-0.1189 -3.58617,0.45223 -1.64152,0.28266 0.30506,2.11235 2.11498,-0.29946 2.04747,0.73083 -0.14821,1.27086 3.90087,-0.2551 5.58269,-0.40411 4.70062,-0.91166 2.52391,-0.16296 2.84356,0.72481 3.32313,0.42301 1.57141,-0.98593 -0.36699,-1.02865 3.52805,-0.21468 1.27944,-1.16997 -2.47351,-1.25219 -2.11617,-1.30181 1.19871,-1.84038 1.33986,-2.51439 -1.08556,-1.03201 -1.48592,-0.40774 -2.11737,0.37324 -1.4241,2.62977 -2.10634,1.07456 1.06958,-2.53715 -0.86384,-0.83935 -3.64691,1.30938 -1.27527,-1.29474 -5.21955,0.77488 2.34893,-1.19876 z m 10.7517,-11.15579 -3.00029,0.34668 -2.74248,-0.0329 -6.04263,1.54375 -5.78718,1.81257 0,0 1.76595,0.52995 3.51385,-0.37517 4.91987,-1.04208 1.89439,-0.11838 2.60021,-0.83681 2.87831,-1.82766 z m -28.24774,15.63733 1.30072,-1.1348 4.5458,-1.80706 6.90575,-1.79825 3.19746,-0.64138 -0.78135,-1.06535 -0.95694,-0.72989 -4.70914,-0.13972 -2.04978,-0.52089 -6.97247,0.39178 -0.15562,1.54491 -3.81034,1.67144 -3.68311,1.87348 -2.17882,1.09472 2.94012,1.37474 -0.27106,1.1469 6.67878,-1.26063 z m -65.08806,66.2124 0.10755,-1.71612 -1.59024,-1.27984 -0.20095,-1.4685 -0.0832,-1.06461 -2.05512,-0.32624 -1.15581,-0.46694 -2.05957,-0.67058 -0.73031,0.71193 -0.26905,1.67758 2.12047,0.55607 -0.17212,0.88181 1.45242,1.08474 -0.002,1.10187 3.11832,1.41154 1.51922,-0.43271 z m -10.35357,-17.33531 -0.95846,0.96203 -0.67759,1.32882 0.41885,0.94332 -0.25889,1.39711 0.32772,1.39168 0.95246,0.006 -0.1152,-2.44478 3.56263,-3.43343 -2.47363,0.24123 -0.77789,-0.39188 z M 805.7279,189.234 l 0.34366,-1.83692 0.98557,-1.39966 -0.81599,-1.21366 -1.59902,-0.0754 -2.87115,0.89118 -1.12987,1.44131 0.51393,2.73624 2.42439,0.98608 2.14848,-1.52913 z m -524.07951,-12.99826 -2.43707,-1.0837 -2.15179,-0.0359 -2.33979,-0.22695 -0.7126,0.3495 -2.11993,0.30445 -1.48671,0.62004 -1.33763,0.7073 -0.74902,1.14757 -1.58153,0.9825 1.1377,0.30149 1.40686,-0.34776 0.49582,-0.77598 1.14514,-0.0444 2.19312,-1.65275 2.67315,0.16281 -1.13437,0.79471 0.87932,0.62037 3.52172,0.49289 0.74223,0.66709 2.46168,0.85279 1.57054,-0.12383 0.43688,1.81111 0.84453,0.918 1.75242,0.21258 1.02879,0.82606 -2.05334,1.77422 3.98791,-0.30981 1.87365,0.25163 1.87569,-0.15795 1.87994,-0.4037 0.40924,-0.745 -1.9402,-1.3016 -2.01743,-0.13098 0.3022,-0.89532 -1.56875,-0.64857 -0.91179,0.0437 -1.54641,-1.43438 -2.09196,-1.96973 -0.88074,-0.74736 -2.61202,0.35931 -0.94545,-1.16448 z m 248.4753,-103.06656 -0.86853,-1.49879 -3.33777,0.99031 0.41637,1.24258 2.58212,1.69502 1.20781,-2.42912 z m -228.19617,118.07973 0.0472,0.91436 0.6624,0.50585 1.32898,-2.17838 0.96173,-0.45668 0.34286,0.77173 1.08257,-0.19604 0.55752,-0.5802 0.89513,0.15139 1.28376,-0.13339 1.24794,0.69191 1.15566,-1.29488 -1.24281,-1.16702 -1.21856,-0.1149 0.18526,-0.94795 -1.51838,0.0634 -0.38554,-1.12829 -0.73613,0.0799 -1.55037,-0.81868 -2.15341,-0.0147 -0.40267,0.54214 -2.34147,-0.49949 -1.66915,-0.14053 -0.71699,0.87826 1.68925,0.49605 -0.15073,1.21495 1.1173,1.37799 -1.07053,0.70817 -2.06116,-0.25529 -2.49908,-0.4417 -0.3541,1.02544 1.37748,0.99111 1.35812,-0.59461 1.66512,0.22999 1.32952,-0.22062 1.78324,0.54069 z m 696.25052,110.85347 1.95386,-0.7831 0.3681,-1.5528 -1.86236,0.9923 -0.92132,0.1748 -1.54306,0.6527 0.0685,1.1863 1.93631,-0.6702 z m -3.16772,1.7133 -0.81785,0.5246 -1.16274,-0.3934 -1.34103,1.0928 -0.0855,1.3987 1.42566,0.3934 1.82825,-0.4371 0.87895,-1.661 -0.72573,-0.918 z m -993.953683,-2.6662 -0.016787,-1.53 -0.53985,0.1472 0.368076,1.5528 0.188561,-0.17 z M 493.67003,64.19117 l -2.74956,0.24757 -1.80804,-0.23291 -1.86287,2.39192 -0.96131,3.06568 1.10892,1.51898 0.0288,2.88207 1.30737,-1.41563 0.74077,0.82444 -0.89389,1.33964 0.53331,0.81275 2.84148,0.52898 0.035,0.0423 1.54152,1.85547 -0.38229,1.75429 -0.004,-3.3e-4 -3.52514,-0.27368 -0.51034,1.9848 1.26551,1.63763 -2.53568,0.94462 0.64398,1.21526 3.7546,0.50969 0.019,0.003 -2.17742,0.66155 -3.65225,3.22933 1.27695,0.61641 1.74371,-1.17801 2.24358,0.34979 1.63406,-1.44253 1.12299,0.60559 4.14126,-0.84566 3.24497,0.0284 2.16843,-1.6067 -0.97465,-1.58219 1.21782,-0.89468 0.272,-1.94597 -2.89702,-0.57825 -0.68144,-1.19724 -1.45464,-3.43929 -1.60983,-0.48322 -2.04986,-3.53836 -0.18053,-0.31415 -2.40362,-0.19061 2.13219,-2.67089 0.63458,-2.41646 -2.51163,-0.0154 -2.34702,0.40547 2.52036,-3.19305 z m -6.50477,12.1452 -2.443,-1.85725 -1.97037,0.12371 -1.84773,1.40295 -3.34814,2.35945 1.06003,3.07756 -2.12813,3.17871 3.38315,0.46174 4.3447,-1.80249 1.91356,-2.71304 -0.30856,-2.16082 1.34449,-2.07052 z m 75.93633,58.70094 -0.3793,1.37315 3.28049,0.62874 0.0173,0.53123 3.79208,-0.27358 0.24728,-0.95092 -1.40843,0.38705 0.0153,-0.56143 -1.98795,-0.22918 -2.04327,0.18397 -1.53358,-1.08903 z M 455.87296,0.721 442.83796,0.5 l -5.90756,0.16906 -2.49669,0.65946 -5.7574,-0.0813 -6.3197,1.09885 -0.78643,0.81336 3.32654,1.05354 -3.0993,-0.6395 -2.26504,-0.15329 -3.50007,-0.71743 -5.26281,1.06142 -1.3733,-0.60441 -5.18583,0.0171 -5.44093,0.30385 -4.46133,0.51523 -0.0873,0.89714 -2.67931,0.21715 -7.27319,1.44466 -2.29818,0.84734 4.01578,0.77684 -1.38217,0.79963 -7.446,1.07449 -7.77481,1.09562 -1.0909,0.89796 3.2075,0.95542 7.25758,0.61445 -3.77722,0.12539 -5.45222,0.75018 1.91077,1.51698 1.52095,0.7759 4.68248,-0.17946 5.04383,-0.0984 3.8173,0.17778 4.01552,1.43722 -0.70974,1.03691 1.79043,0.96736 0.6886,2.66698 0.53529,1.75825 0.66246,0.95381 -3.48905,2.40703 1.31518,0.64523 2.16422,-0.36634 1.32603,0.89278 2.62744,1.66648 -3.74943,-0.69957 -1.87338,0.0379 -1.48608,1.40186 -0.75388,1.80362 2.07555,0.87204 2.00681,-0.38123 1.29028,-0.39719 2.74773,-0.94272 -1.37051,2.08499 -1.31207,1.12414 -3.54549,1.00442 -3.49457,3.18242 0.96125,0.9677 -1.65423,2.03427 1.83359,2.56796 -0.75733,2.5202 0.34306,1.84023 2.38736,3.54042 0.41856,2.80511 1.578,1.58449 4.445,0.0149 2.50508,2.37135 3.21732,-0.17753 2.0435,-2.8325 1.757,-2.38274 -0.15697,-2.23755 4.29069,-2.27657 1.68959,-1.85674 0.66628,-1.97073 2.38533,-1.72876 3.25557,-0.65055 3.027,-0.68214 1.49438,-0.11435 5.08935,-1.9373 3.71239,-2.89241 2.42783,-1.04757 2.27912,-0.0115 6.26208,-0.9353 6.05082,-2.12074 5.92285,-2.31904 -2.74815,-0.14446 -5.28319,-0.11236 2.65882,-1.38669 -0.26079,-1.77631 2.11208,1.50252 1.32125,1.01442 3.68058,-0.50768 -0.32434,-2.10837 -2.24283,-1.58579 -2.50159,-0.6452 1.17446,-0.68841 3.63613,1.06518 0.2246,-1.14578 -2.03799,-1.73066 2.70162,-0.007 2.81497,-0.3934 0.82344,-0.89347 -1.99665,-1.02492 4.2869,-0.18035 -1.98804,-2.14785 2.06875,-0.22954 0.0352,-2.09195 -3.10132,-1.28764 3.21969,-0.76168 2.89077,-0.099 -1.82507,-1.55113 0.5925,-2.57467 1.79792,-1.4551 2.44252,-1.58953 -4.00655,-0.10274 5.64876,-0.36851 1.08886,-0.48555 7.29873,-1.46701 -0.80457,-0.85509 -4.9998,-0.38082 -8.43649,0.76704 -4.57881,0.75093 2.24542,-1.16807 -1.17916,-0.70163 -3.48653,0.59808 -4.83425,-0.67275 -6.06088,0.21365 -0.69056,-0.34517 9.13042,-0.18734 6.4557,-0.0841 3.32223,-0.72612 -9.85064,-1.44052 z m 421.55154,251.59733 -0.42534,-1.1823 -4.49918,-1.30643 -1.44927,1.03682 -3.79768,0.77067 1.16094,1.57405 2.49673,0.58734 1.06004,1.894 4.11205,0.01 0.2071,0.844 -2.0012,-0.062 -3.0672,1.1456 2.08151,1.5627 -0.0542,1.3823 0.5801,1.1665 1.09145,-0.2805 0.90307,-1.5459 4.06851,2.9397 2.30016,0.2659 5.28348,2.6939 1.1753,2.6706 0.4838,3.4591 -1.83204,0.8833 -1.40012,2.5889 3.55674,-0.098 0.76611,-0.9063 2.79101,0.6398 2.25911,2.6108 2.88287,0.1327 1.51666,0.532 2.30335,-1.0936 -0.14482,-2.3463 1.80048,-1.0503 2.44866,-0.9073 3.53694,1.3911 1.20047,2.784 1.41534,1.7492 1.95996,2.0296 2.77168,0.4787 2.36195,0.3573 0.59208,0.8246 1.87742,-0.2219 0.41716,-0.9194 -2.82373,-1.3384 0.90357,-0.6001 -2.10355,-0.5405 0.25555,-1.4091 -1.61367,0.1057 -1.50392,-3.3739 -2.3253,-2.0871 -0.4537,-2.1198 2.60568,-0.3425 -0.5589,-1.6871 -4.54025,-1.9662 -0.30828,-1.874 -1.4672,-1.5994 -1.84493,-1.6298 -5.10052,-1.8205 -4.77957,-2.1918 -2.9929,-0.6079 -2.04552,-1.1381 -2.37061,-1.109 -2.49775,0 -3.28136,1.92 -2.48091,3.3743 -2.82703,-1.9042 -0.63643,-5.14495 z m 0.90084,16.10485 0.1032,-1.5169 -0.58109,-0.9306 -0.65279,1.0753 -0.57039,1.1434 0.112,2.3947 1.58907,-2.1659 z m -11.40298,-9.9273 -3.05415,-0.9277 -3.47404,0.132 -0.73583,1.749 1.93781,0.1121 1.59443,-0.2101 2.33408,0.2662 2.31052,1.3112 -0.91282,-2.4327 z m -4.82493,-13.44416 -0.28901,-1.29927 -1.66525,-0.27905 -0.24842,-1.73713 -0.89994,1.15764 -0.51246,2.54167 0.85782,4.06656 1.11575,2.01495 0.79166,-0.38172 -1.14411,-1.67943 0.42591,-1.93571 1.45093,0.31152 0.11712,-2.78003 z m -4.27241,14.60626 -0.65444,-1.049 -2.84713,0.1525 0.48935,1.3683 1.91431,0.5841 1.09791,-1.0559 z m -5.43225,-15.52069 -0.50582,-0.71075 -2.7348,2.31004 -3.22957,0.13332 -3.54869,-0.44139 -2.21006,-0.93934 -2.35708,2.36281 -0.5823,1.31135 -1.45316,4.79531 -0.45903,2.52574 -1.22564,2.0833 0.7904,2.1792 1.1798,0.024 0.29806,3.0699 -0.95225,2.9281 1.15506,0.9338 1.80424,-0.4618 0.11409,-4.5512 -0.0851,-3.7092 1.90681,-0.9669 -0.32579,3.0999 1.94119,1.8654 -0.42314,1.2281 0.65401,0.8805 2.81595,-1.2316 -1.48992,2.6046 1.0389,1.1187 1.54915,-0.9352 0.13399,-2.0898 -2.35309,-3.6717 0.5573,-1.0925 -2.52517,-4.0769 2.50201,-1.2331 1.25246,-1.86392 1.2175,0.4621 0.24911,-1.46506 -5.25239,1.08252 -1.54115,1.4409 -2.47621,-2.82886 0.40466,-2.40784 2.4529,-0.458 4.68164,-0.1588 2.70765,0.62206 2.10876,-0.61171 2.2147,-3.15558 z m -3.86277,36.77389 2.03792,-2.3757 2.42126,-0.9136 3.03202,-1.3925 1.0989,-0.8619 -1.02992,-0.3944 -0.90617,0.3973 -1.96218,0.1077 -2.4668,0.7151 -0.38943,0.7505 -2.87211,1.2636 -1.37195,1.9405 -0.35059,1.0815 0.29981,0.3817 2.45924,-0.6998 z m -3.75156,-6.5079 -2.59684,1.1656 -1.88259,0.2421 -1.68378,-0.9536 -2.27297,0.6613 -0.0784,1.1629 3.69314,0.3921 4.27763,-0.903 0.54385,-1.7674 z m -6.68237,6.8246 0.24449,-0.8585 -0.89457,-0.9663 -1.38927,-0.9689 -2.66124,0.6255 3.51885,2.2289 1.18174,-0.061 z m -7.33385,-6.82 -0.83113,1.1249 -1.53731,0.025 -1.09915,1.8317 1.50293,0.025 1.97208,-0.4271 3.28568,-0.6388 -0.59441,-1.3525 -1.74927,0.2599 -0.94942,-0.8484 z m -25.73291,-4.1928 -0.32101,-1.1315 -1.15008,-0.2425 -2.19906,-1.2432 -3.3939,-0.1879 -2.08262,3.0397 2.55255,0.2337 0.40821,1.3679 5.03123,1.3099 1.18993,-0.3978 2.03708,0.3151 3.16727,1.2151 2.58318,0.5711 2.88992,0.2355 2.54081,-0.087 2.98816,1.2816 3.28274,-1.2121 -3.3066,-1.8905 -4.16585,-0.58 -0.8935,-2.0619 -5.11406,-1.5297 -0.6917,1.3112 -5.3527,-0.3171 z m -7.71352,-2.9437 0.33525,-4.9207 0.85309,-3.9566 -1.30575,-2.0135 -2.05495,-0.2812 -0.93688,-1.7753 -0.43824,-2.21896 -1.00826,-0.0815 -1.59843,-1.10472 1.13615,-2.59738 -2.14621,-1.45323 -1.65734,-2.66372 -2.40407,-2.1791 -2.85704,-0.0499 -2.75547,-3.4196 -1.59236,-1.32344 -2.24994,-2.15691 -2.60794,-3.11102 -4.36954,-0.61458 -1.81179,-0.12823 0.31383,1.61932 3.06143,3.50542 2.17405,1.78169 1.54626,2.72184 2.57895,2.00312 1.07601,2.4833 0.84541,2.73499 2.46035,2.65147 2.06775,4.45334 1.33285,2.3843 2.04164,2.5907 1.12915,1.9282 3.49414,2.5991 2.23878,2.6594 3.10912,-0.067 z M 470.00344,41.85787 l -3.46128,-0.19567 -3.64075,1.47417 -2.53566,-0.78307 -3.45382,1.50986 -2.96132,-1.87985 -3.26683,0.40894 -1.78193,1.80729 4.33515,0.64809 -0.055,0.82012 -3.88083,0.54253 4.41379,1.37299 -2.33886,1.24584 5.88123,0.89526 2.78956,0.41727 1.94051,-0.5167 6.47029,-1.93464 3.0263,-2.13916 -2.18242,-1.90096 0.70184,-1.79231 z m 71.03849,84.99907 -1.96731,0.28161 -2.64764,0.35163 -3.07348,-0.29517 -0.28918,1.65976 3.73883,1.64708 1.35304,0.34981 2.07426,1.22133 0.46157,-1.66738 -0.44789,-1.00395 0.7978,-2.54472 z m -16.84003,-9.44677 -1.24976,0.96582 -1.42331,-0.15608 0.65304,1.7897 0.23586,3.82547 1.01406,0.84921 1.02324,-1.06851 1.18979,0.20163 0.19591,-4.18992 -1.63883,-2.21732 z m -236.71966,74.40125 1.95343,-0.0593 -0.36416,-0.87112 -1.38647,-0.764 -1.83058,-0.28521 -0.6182,-0.10718 -1.18819,0.22168 -0.41402,0.72709 1.4541,1.15913 1.49461,0.51053 0.89948,-0.53165 z m 583.10051,-61.43127 -1.77398,-3.33882 0.64469,-3.23507 -1.4078,-2.57792 -4.06337,-4.34198 -2.37738,0.57042 0.11709,1.9722 2.51268,3.55403 0.49722,3.92294 -0.83492,1.25474 -2.22705,3.23974 -2.51095,-1.54826 -0.0125,5.76023 -3.12908,-0.66118 -4.8233,0.96403 -0.96649,2.20268 -1.95219,1.65796 -0.54626,2.00829 -2.11365,0.98175 1.96879,2.18025 2.0618,0.92305 0.45478,2.85651 1.76515,1.23097 1.23086,-1.3327 -0.37602,-5.39317 -3.68665,-2.34543 3.08868,-0.0612 2.49391,-1.50689 4.30382,-0.70746 1.16695,2.39278 2.32259,1.22581 2.1697,-3.64986 4.57381,-0.19684 2.68192,-1.5137 0.29316,-2.27681 -1.24821,-1.62332 -0.29785,-2.58772 z m -5.87465,-22.10471 -2.66052,-1.03433 -5.19656,-3.21408 0.92515,2.40783 2.17138,4.2531 -2.60219,0.17064 0.30475,2.36571 2.32475,3.06961 2.827,-0.0466 -0.80396,-3.37702 5.41293,2.10681 0.19071,-3.05875 3.19925,-0.8411 -2.97915,-3.44958 -0.87542,1.30306 -2.23812,-0.6553 z m -6.32396,31.76771 -2.2545,-0.69061 -0.50635,1.34483 -1.67216,-0.36976 -0.65901,1.90449 0.61012,1.50961 2.11524,0.90513 -0.0676,-1.86027 1.05211,-0.74042 1.52932,1.0218 0.672,-1.9289 -0.81917,-1.0959 z m -130.11199,88.89667 1.1396,-0.90548 0.2792,-3.31252 -1.51494,-3.3121 -1.4217,-2.24024 -2.03307,-1.7676 -0.99466,5.16377 0.70024,4.57258 1.43434,2.52936 2.41099,-0.72777 z m -88.25626,62.83736 -0.58347,-2.1011 -0.67571,-1.3535 -0.91133,-1.3656 -0.98897,1.423 -0.14263,1.9128 -1.64797,2.2106 -1.1641,-0.3823 0.30893,1.3595 -0.92192,1.6004 -2.39959,1.9594 -1.68967,1.8128 -1.22315,0.043 -1.06247,0.5756 -1.58769,0.6522 -1.39108,0.1172 -0.49156,2.0179 -1.07699,1.7798 0.0385,2.9313 0.39568,2.006 0.5432,1.506 -0.38157,2.0257 -1.47641,2.4109 -0.0772,1.0585 -1.30436,0.5508 -0.64569,2.2927 0.0941,2.2885 0.78338,2.5361 -0.0359,2.8213 0.61823,1.6798 2.07244,1.1392 1.50072,0.8131 2.50574,-1.3469 2.29052,-0.7541 1.55238,-3.6911 1.39992,-4.4233 2.14477,-6.0254 1.6777,-4.3831 1.35362,-3.7082 0.36111,-2.6946 0.81531,-0.7349 0.3367,-1.3489 -0.37759,-2.357 0.58125,-0.9415 0.82603,1.8643 0.55154,-0.9359 0.37201,-1.5257 -0.63133,-1.488 -0.23536,-3.8271 z M 544.62727,6.78389 l -4.55032,-0.52554 -1.55601,0.63078 -2.66262,-0.50725 -5.19676,0.58961 2.148,0.98619 2.52153,0.038 0.47412,0.60234 5.30001,0.36811 5.02457,-0.26027 2.17643,-1.17303 -3.67895,-0.74899 z m 0.60772,5.70688 -2.76613,-0.52617 -0.97052,-0.86682 -3.58911,0.46119 1.28888,0.74209 -1.08878,0.60444 3.35563,0.54769 3.77003,-0.96242 z m -12.70892,-4.18856 -2.3866,-0.75739 -2.54556,0.0749 -0.51092,0.7425 -2.49472,0.0305 -1.09712,-0.76086 -4.6492,0.77838 1.62554,1.74366 3.79623,1.93767 2.83018,0.67621 -1.49985,0.83842 4.20598,1.45786 2.19932,-0.0938 0.44771,-1.97282 1.48989,-0.44313 0.59082,-1.70313 4.24905,-0.89325 -6.25075,-1.65574 z m 428.32115,355.43007 0.96807,-2.8814 -1.57264,-0.8358 -0.4176,-1.7848 -1.12818,0.2516 -0.20283,2.2775 0.38751,2.8614 0.44834,1.3382 -0.42157,0.5715 -0.29282,2.1721 -1.22428,2.0922 -2.08985,2.4795 -2.64448,1.118 -0.87681,1.1559 1.88585,1.27 -0.42918,1.7345 -3.44703,2.5685 0.72281,0.4475 -0.20071,0.8133 2.96127,-1.2365 2.92633,-2.1363 2.24646,-1.6945 0.81325,-0.5882 0.74486,-1.3666 1.37978,-0.9702 1.93929,0.066 2.09281,-1.8715 2.55347,-2.8638 -1.08263,-0.374 -2.30579,1.2337 -1.5971,-0.2586 -1.42204,-1.0542 1.15891,-2.4516 -0.63988,-0.8844 -1.43467,2.2142 0.20108,-3.4129 z m -14.38972,15.2593 0.4228,-1.33 -2.8893,1.4456 -1.70824,1.7361 -1.58142,0.7836 -2.95373,2.2999 -2.81317,1.5961 -3.48416,1.6086 -2.77458,1.1688 -2.10666,0.5783 -5.65436,3.04 -3.22571,2.2959 -0.51659,1.1397 2.53581,0.2183 0.76133,1.0248 2.24082,0.066 1.99317,-0.8873 3.13051,-1.3873 4.04842,-3.1303 2.35616,-2.0156 3.12946,-1.1581 1.98778,-0.038 0.28913,-1.4777 2.31782,-1.2359 3.51052,-2.268 2.09478,-1.4305 1.02145,-1.3045 0.26755,-1.3149 -2.79883,1.2616 0.39924,-1.2855 z m -92.02783,-157.10627 -0.28964,-1.16998 -0.36861,-1.60199 -2.40061,-1.50869 0.37759,2.46011 -1.97165,0.0846 -0.34356,1.4196 -2.06286,0.87111 -1.10046,-1.44007 -1.43495,1.19858 -1.6988,0.89479 -0.91454,2.68124 0.5244,0.93112 1.95705,-1.77495 1.32707,0.12247 0.7881,-1.31908 1.88017,1.50444 -0.75426,1.51258 0.93132,2.30249 3.40826,1.84622 0.71717,-1.49088 -1.0412,-2.344 1.20313,-1.6136 1.23513,3.24298 0.76634,-2.91108 -0.29067,-1.78456 -0.44392,-2.11343 z m -3.58656,-11.92279 -0.90779,-1.18664 -2.68809,-0.0701 1.98432,2.42901 0.16694,1.20439 -1.671,-0.25381 0.63693,1.92597 0.85807,0.16521 0.33237,2.23733 1.26297,-0.71271 -0.8777,-1.96304 -0.16889,-1.0677 2.24397,0.84405 -1.1721,-3.55195 z m -3.62261,5.99295 -0.0326,-3.03461 -1.7669,3.07085 0.24335,-2.14165 -1.52262,0.18691 -0.1191,1.97455 -0.62068,0.89102 -0.50107,0.85154 1.90839,2.19873 0.80119,-0.94188 0.70139,-2.00992 0.9086,-1.04554 z m -11.01564,-26.16672 -1.67595,-0.004 -0.40669,2.88262 0.52303,4.97715 -1.28286,-1.04694 0.57088,3.04578 0.61779,1.38542 1.62982,1.82796 0.20035,-1.14652 0.93377,0.73577 -0.75908,0.80925 0.0331,1.31501 1.47772,0.70295 2.47018,-0.47017 2.01757,1.90441 0.56946,-1.16776 1.24041,1.67138 2.36249,1.56147 0.11261,-1.46604 -1.005,-0.76426 0.0412,-1.73172 -3.7181,-1.76373 -1.18012,0.37647 -1.52407,-0.35049 -0.98238,-2.53373 0.0492,-2.56488 1.4704,-1.05442 0.29578,-2.64395 -1.33544,-2.2803 0.22074,-1.31893 -0.39401,-0.80821 -0.70803,0.82835 -1.86479,-0.90825 z m 4.63085,21.03567 0.59349,1.51393 -0.0341,1.62284 0.24074,1.47818 1.68423,-0.95526 1.15957,-1.35078 -0.0846,-1.32883 -1.77706,0.005 -1.78225,-0.98477 z m -1.42576,-3.74686 -1.10993,-1.14557 -2.4027,-0.11681 1.71684,2.4238 1.37668,1.58718 0.41911,-2.7486 z m -7.24778,11.93937 1.28482,-2.18626 1.68815,-1.75164 -0.75016,-2.5938 -1.16148,3.16004 -1.48706,2.20062 -1.8627,1.96472 -1.20578,2.22487 3.49421,-3.01855 z m 105.34151,51.33275 0.46317,-0.8907 -1.24129,-1.0795 -1.21343,-2.0165 -0.79995,-0.7215 -0.23796,-0.9466 -0.40878,0.3076 0.43479,2.4232 1.07597,2.0203 1.11665,1.2218 0.81083,-0.3181 z m -7.16388,-7.3804 -0.23884,-1.6541 -1.01044,-1.0181 -1.05449,-1.336 -1.143,-0.7636 -0.92356,-0.6998 -1.47965,-0.8907 -0.81245,0.7682 1.98665,0.9351 1.53119,1.3572 1.21587,1.0424 0.5833,1.2292 0.41465,1.8778 0.93077,-0.8476 z m -3.44931,3.1114 1.07067,-1.9417 0.16551,-1.7646 -0.53613,-0.5223 -1.68487,0.061 0.19522,1.8746 -1.63913,1.1344 -0.86391,1.0885 -1.61711,0.2429 -0.16148,-1.6888 -0.40774,0.079 -0.52295,1.525 -1.55177,0.2489 -2.48429,-0.4644 -0.29872,0.9842 1.54029,0.8873 2.23285,0.924 1.48943,0 1.4936,-0.7444 1.58913,-0.7731 0.50436,-0.8922 1.48704,-0.2616 z M 860.3721,30.06043 l -3.01308,-1.7871 -0.69675,1.08821 1.73934,0.83301 1.97049,-0.13412 z m -11.39304,57.84751 -3.58539,-3.09162 -2.53522,-2.99743 -3.42987,-2.91974 -2.43215,-1.99474 -0.66328,0.42295 2.20876,1.39787 -0.95017,1.39172 3.38917,4.15358 3.92311,3.00857 3.18105,4.12175 1.22192,2.34409 2.76003,3.35566 1.8986,3.03184 2.29873,2.60736 -0.06,-2.40468 3.22238,1.87347 -1.47837,-2.17195 -4.72915,-3.18952 -1.85348,-4.49031 4.42066,1.02422 -6.80733,-5.47309 z m -63.68108,-68.7127 -5.82581,-0.64928 -4.12997,-0.37329 0.87887,0.80176 5.12327,0.98205 3.40051,0.22327 0.55313,-0.98451 z m -6.25579,4.70888 -1.21727,-0.66822 -4.17715,-0.96802 -2.05909,0.23381 -0.37477,1.00197 0.53184,0.13453 4.38129,0.28376 2.91515,-0.0178 z m -6.35885,-5.89387 -8.92121,-1.3021 -5.08891,-0.10716 -1.71291,0.45883 1.66535,1.69464 6.23077,1.61883 2.2444,-0.5897 7.0989,0.069 -1.51639,-1.84235 z m -83.47383,-6.5719 -0.73673,-0.93083 -6.25071,-1.2778 -1.52428,-0.14471 -1.11362,0.25006 0.63818,2.99876 8.98716,-0.89548 z m -10.92446,-1.31076 -2.22061,-1.99647 -6.79281,-2.06019 -4.73749,-1.03469 -3.09207,0.46078 -2.65551,1.42654 2.90171,0.42167 3.30241,1.56233 3.99741,0.85098 5.77707,0.6516 3.51989,-0.28255 z m -62.59849,20.22646 -4.94567,-2.14548 -1.55319,-2.1503 1.66846,-2.46108 1.37363,-2.46615 4.32453,-2.37463 4.88477,-1.17756 5.66061,-1.21417 0.6267,-0.75579 -2.06972,-0.95162 -3.32201,0.31211 -2.45539,0.89582 -5.82913,0.45504 -5.06461,1.57469 -3.36842,1.30689 1.21035,1.13145 -3.29252,2.20697 1.94571,0.30948 -2.66571,2.17239 0.79246,1.40168 -1.73203,0.55423 0.98011,1.40196 3.94252,0.69947 1.10925,1.16367 6.71769,0.34173 1.06161,-0.2308 z M 588.96461,6.4887 l 0.44171,-0.31929 -2.87557,-0.45481 -1.38717,0.34174 -0.65404,0.50118 -0.73033,-0.56361 -2.60169,0.0251 -3.12842,0.38034 3.88877,0.0638 -0.56329,0.66087 2.21305,0.50842 1.80478,-0.35507 0.009,-0.34981 1.45131,-0.1608 2.13194,-0.27808 z m -445.4609,23.41209 3.0974,-0.62813 0.76542,-0.35732 -1.61517,-0.74563 -1.67017,-0.005 -0.44021,0.10906 -3.01308,1.7871 2.87581,-0.15964 z m -10.36269,11.60266 2.66885,-1.70839 -1.38468,-2.70932 -1.8343,-2.061 -16.44501,10.93748 2.9228,-1.18575 0.95121,-1.30907 3.49481,-0.6588 -1.96352,1.03141 -0.25667,0.97436 2.93586,-0.36158 1.5068,0.456 -1.23918,1.21256 1.70048,0.81785 0.27991,0.98052 1.89906,0.0843 1.66211,-0.58576 3.83339,-2.73599 3.88181,-0.28835 3.77806,-1.21143 -0.47461,-2.58391 -5.08104,-0.40947 -2.40815,2.00122 -0.42799,-0.68684 z m 700.16985,134.65121 0.59379,-5.10171 0.0415,-1.92061 -1.46856,-0.94846 -1.63894,2.41016 -0.94984,3.12567 0.78277,2.3586 1.96164,2.68535 0.67766,-2.609 z M 147.95111,68.68038 l 3.47033,-1.40877 0.001,-0.91792 -1.30582,-0.19953 -1.70387,0.45031 -3.20746,1.05172 -1.12047,1.38974 0.37392,0.76722 3.49221,-1.13277 z m -18.7356,-19.34909 -1.5608,1.06717 0.18307,0.24996 2.13393,-0.16475 0.14527,0.51522 0.84355,0.61884 2.43773,-0.60224 0.58462,-0.30946 -1.65704,-0.37927 -0.7591,-0.74776 -1.73832,0.29109 -0.61291,-0.5388 z m -0.61767,11.12614 1.13688,-1.11689 -1.45406,-0.26322 -2.81854,0.49745 0.39623,0.79107 0.81381,0.54534 1.92568,-0.45375 z m -58.076971,127.48823 0.997508,-0.49698 1.23436,-0.67928 0.106661,-0.1763 -0.448968,-1.11445 -0.350192,-0.42593 -0.426804,-0.27581 -0.932735,-0.53732 -0.196159,-0.0589 -0.22852,0.2966 0.04606,0.62543 -0.59881,0.51864 -0.219052,0.35393 0.190817,1.15796 -0.282312,0.889 0.5833,0.45551 0.524849,-0.53213 z m -0.340259,-4.96313 0.319405,-0.38184 -0.606561,-0.48787 -0.90852,-0.30225 -0.334092,0.27264 -0.02218,0.19863 0.256193,0.25855 0.318582,0.66972 0.977176,-0.22758 z m -1.473584,-1.69461 -1.323011,-0.13592 -0.298384,0.38737 1.454486,0.0923 0.166909,-0.3438 z m -2.353904,-0.46218 -0.542034,-1.05122 -0.180468,-0.20429 -0.842431,0.43836 0.07621,0.12699 0.176432,0.7211 0.931811,0.11179 0.187332,0.0409 0.193144,-0.18366 z m -4.147113,-2.09843 0.12796,-0.74084 -0.616822,-0.0676 -0.497593,0.31162 -0.200168,0.23176 0.782496,0.57991 0.404127,-0.31489 z m 904.249791,122.30937 -1.34444,-1.8277 -0.2867,0.8531 0.62235,1.393 1.00879,-0.4184 z m -1.0177,-4.8752 -1.14042,-0.9781 -0.42836,2.4376 0.21548,0.8784 0.61452,-0.1724 0.66296,0.399 0.0758,-2.5645 z m -440.46174,-181.66985 -0.55115,-2.63974 -1.5925,1.17432 -0.46976,1.14459 0.67578,2.07956 1.19226,0.63151 0.74537,-2.39024 z m -13.34775,7.21069 0.0705,-0.17629 -0.0191,-0.0624 -0.2379,-0.36406 -0.43368,-0.13492 -0.53206,0.0381 -0.0194,0.0839 -0.004,0.18996 0.0644,0.0557 0.26097,0.0408 0.80335,0.36593 0.0469,-0.0367 z m -2.97423,0.16405 0.0328,-0.14735 0.0825,-0.0786 0.0188,-0.0901 -0.0827,-0.0566 -0.007,-0.0522 0.0842,-0.11662 -0.10107,-0.0298 -0.65529,0.1968 -0.30852,0.1693 -1.06467,0.76716 -0.002,0.13042 0.0641,0.10082 0.16762,0.0315 0.1074,0.16742 0.19655,-0.16804 0.15022,-0.0813 0.1731,0.0448 0.119,0.10147 0.0654,0.31856 0.0788,0.0803 0.26116,0.0532 0.45144,0.21406 0.21114,-0.10206 0.232,-0.17023 0.12151,-0.28817 0.1414,-0.25024 0.16794,-0.22731 0.11922,-0.22429 -0.0363,-0.20145 -0.13821,-0.051 -0.13967,-0.0299 -0.26078,0.0952 -0.24977,-0.10592 z m -4.3915,2.77918 0.12815,-0.0443 0.33394,-0.34055 -0.0282,-0.15552 -0.12744,-0.10763 -0.56069,0.12873 -0.1191,0.15897 -0.006,0.15827 -0.11324,0.0267 -0.0846,0.22287 0.0879,0.0797 0.39635,0.0697 0.0933,-0.19699 z m 0.39215,0.79168 -0.004,-0.0944 -0.24989,-0.0336 -0.15881,-0.18081 -0.0494,0.0917 -0.0392,0.0906 0.0106,0.12991 0.25864,0 0.17283,0.0391 0.0591,-0.0425 z" />
</svg>
