<?xml version="1.0" encoding="UTF-8" standalone="no"?>
<svg
   xmlns:dc="http://purl.org/dc/elements/1.1/"
   xmlns:cc="http://creativecommons.org/ns#"
   xmlns:rdf="http://www.w3.org/1999/02/22-rdf-syntax-ns#"
   xmlns:svg="http://www.w3.org/2000/svg"
   xmlns="http://www.w3.org/2000/svg"
   xmlns:sodipodi="http://sodipodi.sourceforge.net/DTD/sodipodi-0.dtd"
   xmlns:inkscape="http://www.inkscape.org/namespaces/inkscape"
   enable_background="new 0 0 1000 2001"
   height="502.9549"
   pretty_print="True"
   style="fill:#483737;stroke:#ffffff;stroke-linejoin:round"
   version="1.1"
   viewBox="0 0 1001 502.9549"
   width="1001"
   id="svg2"
   inkscape:version="0.48.4 r9939"
   sodipodi:docname="sinusoidal_joined.svg"><sodipodi:namedview
   pagecolor="#ffffff"
   bordercolor="#666666"
   borderopacity="1"
   objecttolerance="10"
   gridtolerance="10"
   guidetolerance="10"
   inkscape:pageopacity="0"
   inkscape:pageshadow="2"
   inkscape:window-width="640"
   inkscape:window-height="480"
   id="namedview19"
   showgrid="false"
   inkscape:zoom="0.11794103"
   inkscape:cx="500.5"
   inkscape:cy="250.47745"
   inkscape:window-x="0"
   inkscape:window-y="0"
   inkscape:window-maximized="0"
   inkscape:current-layer="svg2" />

utf-8<defs
   id="defs4">
utf-8utf-8<style
   type="text/css"
   id="style6">path { fill-rule: evenodd; }utf-8utf-8</style>

utf-8
utf-8utf-8
utf-8</defs>

utf-8<metadata
   id="metadata8">
utf-8utf-8<views
   id="views10">
utf-8utf-8utf-8<view
   h="2001.0"
   padding="0"
   w="1000"
   id="view12">
utf-8utf-8utf-8utf-8<proj
   flip="auto"
   id="sinusoidal"
   lon0="65.3146660706" />

utf-8utf-8utf-8utf-8<bbox
   h="3127.66"
   w="6230.96"
   x="-3115.48"
   y="-1506.6"
   id="bbox15" />

utf-8utf-8utf-8</view>

utf-8utf-8</views>

utf-8<rdf:RDF>
  <cc:Work
     rdf:about="">
    <dc:format>image/svg+xml</dc:format>
    <dc:type
       rdf:resource="http://purl.org/dc/dcmitype/StillImage" />
  </cc:Work>
</rdf:RDF>
</metadata>

utf-8<path
   inkscape:connector-curvature="0"
   id="---"
   data-name="---"
   data-id="---"
   d="m 584.36921,116.73518 1.19636,0.8856 1.33089,0.33245 1.74563,1.06523 1.49699,1.97198 0.27603,1.23515 -1.85332,1.5089 -1.99427,-0.25754 -2.34171,0.44568 -3.60599,-1.11804 -4.62019,-2.03755 -3.52771,0.0615 -2.19458,0.81719 -1.91871,1.87502 -4.28102,-0.38264 -0.19065,2.19687 -3.35129,0.11562 -1.63039,2.76467 1.82336,1.38132 -0.44897,2.24788 2.12477,1.60368 2.19351,2.87491 2.51602,-0.0521 2.71564,1.53922 1.50587,-0.34291 0.15632,-1.1993 2.5312,0.0971 2.39975,1.55147 3.4307,-0.32491 1.00395,-1.6638 2.18258,0.66512 1.32334,-0.24618 -0.47537,1.08577 1.34353,1.31082 -0.13952,1.18959 1.01756,2.21166 -0.009,0.10076 -0.47332,2.0368 -0.0578,2.35462 -0.0568,0.0299 -0.1036,0.73181 0.21708,2.18089 -0.21882,1.35107 0.21984,0.16395 -0.42009,0.95237 0,10e-6 -0.99469,0.72816 -1.98059,-0.16364 -2.18379,-0.68298 -0.30131,0.9445 -1.08611,-1.43378 -1.85689,-0.36498 -2.10689,0.23837 -0.79167,0.82829 -1.66567,0.91581 -1.26386,-0.45014 -2.67133,-0.85417 -2.56074,-0.76436 -3.26534,0.0478 -0.81854,-0.95453 -2.51348,-0.33911 -0.88831,-0.49313 -0.91352,-0.0122 -1.11113,-1.2924 -3.41325,-0.5915 -1.59433,0.39429 -1.49708,1.35458 -0.50915,1.40606 0.9762,2.21436 -0.95554,1.32955 -1.08781,0.74993 -2.88928,-1.43719 -3.68158,-1.21008 -2.2999,-0.56102 -1.51625,-2.56931 -3.41206,-1.29179 -2.09159,-0.48234 -0.98969,0.24871 -2.96267,-0.99502 -0.96851,-0.45195 -0.75193,-1.37423 -1.2477,-0.0492 -0.61294,-1.57552 1.41574,-1.45325 0.0366,-2.50182 -0.8905,-0.71823 -0.13031,-1.33711 0.99943,-1.41642 -0.22881,-0.55533 -1.8423,1.06397 -0.0888,-1.46259 -1.64603,-0.34686 -2.39898,1.16659 -1.5657,0.17552 -0.9921,-0.67259 -2.46158,0.0223 -2.10731,1.13932 -1.19032,-0.42932 -3.81759,0.23453 -3.91579,0.51529 -2.23017,0.87985 -1.47235,1.19273 -2.53816,0.50244 -2.29093,1.57963 -1.02568,-0.0309 -2.42377,-0.63815 -2.24998,0.19987 -1.35706,-1.22702 -1.72602,-0.0139 -0.84959,1.77524 -1.78461,2.99299 -1.86406,1.19505 -2.52298,1.32053 -1.72731,1.95285 -0.46065,1.52219 -1.15426,2.48704 0.31285,3.59649 -2.30703,2.41369 -1.33734,0.77021 -2.18767,1.97579 -2.40329,0.3193 -1.40155,1.11013 -0.0512,0.0405 -1.94681,2.95214 -1.83971,1.05358 -1.13781,1.78689 -0.23253,1.53997 -0.87919,1.68606 -0.93733,0.46577 -1.6746,1.83783 -1.1404,2.03965 0.0638,0.97829 -1.03907,1.50636 -1.11584,0.78768 -0.2734,1.33965 -0.24732,1.22148 1.29463,1.24845 0.56395,1.37408 -0.41085,1.4416 0.19383,1.43697 0.0451,2.85668 -0.57544,2.72164 -0.89082,1.42532 0.11343,1.55767 -0.77817,1.4844 -1.50903,2.02941 -1.27188,0.54905 1.31758,1.02915 0.9961,2.25058 -0.44624,1.28221 0.3193,2.21583 0.14148,0.61844 0.82504,0.61343 -0.0423,0.43993 0.60332,0.81495 1.18214,0.19113 1.45023,1.20849 0.80162,0.47361 0.38487,0.63673 0.26366,1.27721 0.68491,0.57452 0.71294,0.3745 1.06198,1.13148 1.18728,1.71041 0.2773,2.13652 0.46754,1.05597 1.44795,1.54856 2.03508,1.16449 0.76813,0.21444 1.8935,1.86509 2.42066,1.58165 2.58264,2.20023 2.95344,1.37788 0.75529,-0.0255 0.55616,0.076 2.86361,-1.0603 2.00735,-0.83429 3.41488,-0.50461 1.84589,-0.0334 2.00581,0.56519 1.31031,-0.0294 2.56465,0.82099 2.59727,-0.83854 1.60186,-0.9913 4.50914,-1.69211 2.3128,-0.61664 2.37362,-0.33723 2.53578,0.002 2.15891,-0.0357 2.05158,1.90452 0.96507,2.09238 1.5568,1.80818 2.30642,0.0632 1.10242,-0.64779 1.09526,0.15199 2.9798,-1.04028 -0.0235,0.79889 0.74293,0.41453 0.60024,1.29528 1.32118,0.49026 1.14677,1.91111 -0.40358,2.28231 -0.97645,3.24612 0.54261,0.43589 -0.57862,2.14332 -0.70278,2.10447 -0.63265,0.92422 -0.0952,0.96037 1.74112,2.98612 1.89039,2.38531 2.93237,2.91776 2.31804,3.0617 0.7263,2.1736 0.38294,0.8966 -0.28625,0.5618 1.39259,1.8289 0.53232,1.9351 0.77864,2.7926 -0.918,1.1461 -0.17458,0.6008 0.63561,1.7343 0.6871,1.7537 0.80513,1.0335 0.0736,1.6384 -0.40071,2.1413 -0.97044,1.2864 -1.71449,1.8913 -0.7307,1.1846 -1.04581,2.6058 -0.21212,1.2406 -1.10786,2.6464 -0.52944,2.5419 0.15183,1.8175 0.0289,2.2178 2.03837,2.822 0.46177,1.8148 1.15078,3.4679 1.18424,2.3883 0.93438,1.1914 0.19205,1.5768 -0.28352,3.4583 0.40863,4.4514 0.40564,2.0941 0.23842,2.8144 0.7421,2.111 1.60555,2.1838 1.27643,3.7557 0.003,0.01 0.8807,2.4487 1.1816,2.7054 -0.31057,2.2186 -0.87597,0.5266 0.45552,1.9371 -0.31195,1.6949 0.17966,0.7769 0.18521,-0.4007 0.79329,1.2905 0.79564,0.053 0.80787,1.0308 1.09333,-0.07 1.69059,-1.0926 2.13297,-0.4577 2.7159,-1.1411 0.95995,0.1513 1.53423,-0.3525 2.46983,0.557 1.32125,-0.5501 1.35285,0.4272 0.51134,-0.8025 1.26493,-0.1506 2.81212,-1.1215 2.17883,-1.3153 2.18554,-1.7342 3.58642,-2.9825 1.9696,-2.0712 1.09788,-1.4853 1.45914,-1.4684 0.60482,-0.4179 2.11877,-1.4598 1.00879,-1.3048 0.93941,-2.4018 1.19021,-2.1043 0.6113,-1.5214 -0.61392,-0.1945 0.0804,-1.2178 1.40765,-1.0688 3.53761,-1.5646 2.41354,-0.977 1.36162,-1.0283 0.69536,-1.2027 -0.50141,-0.4949 0.75924,-1.3429 0.75178,-2.8352 -0.50689,0.1446 0.16667,-0.8648 -0.14713,-1.6953 -0.80515,-2.1892 0.65966,-2.0612 1.2589,-0.6683 2.32476,-2.054 1.16011,-0.5277 3.72453,-3.1027 3.38747,-1.403 2.74595,-1.0988 2.11705,-1.7926 1.4626,-2.0075 1.21276,-2.0655 -0.24143,-1.4158 0.63349,-4.5176 0.0298,-2.5365 0.51381,-2.8799 -0.29264,-1.296 0,0 -10e-6,0 -0.96558,-0.6322 -0.84963,-2.8503 -0.80717,-1.8121 0.32299,-1.3809 -0.082,-0.8785 0.94358,-1.7457 -0.0233,-0.7515 -1.75485,-1.0532 -0.0507,-1.6382 1.55229,-3.5619 1.21203,-0.9546 0.65608,-1.9234 0.97594,-1.16635 0.48241,-2.03676 1.08902,-0.21188 0.7475,-1.20612 2.05072,-1.15425 0.66613,-0.68446 0.68953,-1.52429 3.17759,-3.50167 2.67476,-2.19875 4.26158,-2.87026 2.80976,-2.3401 3.1926,-3.94322 2.23256,-3.23674 2.08312,-4.23646 1.35658,-3.69162 0.94998,-3.22893 0.33511,-3.12479 0.43164,-1.04406 -0.26677,-1.51937 -0.0362,-1.68135 -0.21101,-0.79924 -1.07059,0.008 -1.15973,0.98957 -1.44988,0.291 -1.23144,0.42947 -0.89578,0.057 10e-6,-2e-5 -1.59655,0.10158 -0.92576,0.52732 -1.37578,0.19031 -2.35756,0.89808 -3.03966,0.3426 -2.57201,0.73951 -1.41268,-0.01 -1.45301,-1.21013 -0.7306,-1.19542 -1.00144,-0.53284 -1.33515,-0.7909 1.50733,-0.6917 -0.10251,-1.20028 -0.81419,-0.89464 -1.53018,-0.86947 -1.04787,-0.99316 -1.81049,-1.66806 -1.84975,-1.64782 -4.31012,-2.73045 -1.78824,-1.40799 -1.27505,-2.65338 -2.27777,-3.3465 -1.72503,-1.06826 -1.19284,-0.71178 -1.74122,-3.45111 -1.06202,-2.97591 0.47091,-0.5244 -1.5393,-2.83621 -0.61316,-0.59216 -3.73677,-2.59465 -0.54851,-1.87875 0.39881,-0.50397 -3.17631,-3.20011 -1.26134,-1.63269 -1.371,-1.5717 -3.14779,-4.5026 -2.35599,-2.90613 -1.89086,-3.05026 0.18419,-0.26205 2.95563,4.14361 1.50481,1.29009 1.10842,0.93271 0.45698,-0.50471 0.26973,-1.50516 -0.087,-2.18372 0.36285,-1.16179 -0.4756,-0.75086 0.47561,0.75087 0.20957,0.41849 0.0297,1.15359 0.18341,1.0119 0.0607,1.58665 1.26598,-0.0139 1.87537,1.98542 2.23206,2.33101 1.61661,2.15041 0.94034,0.6454 1.14094,1.49859 0.0358,0.65346 1.31304,1.65634 1.58596,0.59782 1.54437,1.12805 2.37688,3.20519 0.32875,1.71354 0.8162,2.00895 2.46386,2.75495 1.32424,0.47474 2.35896,1.98922 1.32258,2.35559 2.01288,2.424 1.65308,1.03581 0.46569,1.15314 1.02202,0.87059 0.62166,1.23359 0.38478,1.26077 -0.22378,0.55749 0.54897,1.32083 -0.53067,0.14056 1.03195,1.18833 0.94767,2.13801 0.6133,0.85289 0.19793,1.58015 1.01863,1.6886 1.97708,0.14699 0.83455,-0.39227 1.40667,0.0638 0.30798,-0.73525 0.7008,-0.21093 0.47726,-0.76326 0.68017,-0.16424 2.33282,-0.15013 1.68497,-0.55652 1.40275,-1.19967 0.87628,0.17096 1.20251,-0.15931 2.0737,-2.03957 4.15725,-1.34846 2.48294,-1.22037 -0.1784,-0.98576 0.21119,-1.28341 1.8015,-0.77655 1.23541,-0.16365 1.58355,-0.97508 1.60108,0.27254 1.11048,-0.80262 -0.35111,-1.16771 0.863,-0.72793 1.71824,0.0233 0.44334,-0.61007 -0.16977,-1.40821 1.36443,-1.08032 1.26111,0.009 0.1412,-0.35515 -0.98189,-1.93224 -0.0686,-1.46557 0.32106,-0.68925 1.28261,0.15162 0.28936,-1.98026 0.7889,-0.92459 0.12046,-0.81129 0.30341,-1.72281 -0.25164,-0.64488 -1.10174,-0.36613 -1.10386,-0.96007 -1.87221,-1.65715 -1.78378,-0.52687 -2.09357,-0.37771 -1.90029,-1.04955 -1.99015,-1.97451 -1.31485,-2.28329 0.11492,-0.52432 -0.2729,-1.19423 -0.43002,-0.25096 -0.32838,0.9842 -0.89187,1.78159 -1.19626,1.85366 -1.03477,1.9545 -1.62607,-0.0855 -2.20952,-0.0755 -1.89589,0.45561 -0.39063,-0.79276 -0.41681,0.14042 -0.91015,-1.10393 -0.075,-1.70055 -0.70228,-1.69233 -1.1426,-0.90614 -0.58723,0.31101 -0.11667,1.51636 0.96458,2.10351 -0.65617,-0.70867 -0.70433,-0.94789 -1.05671,-0.81009 -0.69923,-0.97105 -0.11235,-0.96276 -0.62245,-1.19281 -2.23478,-1.21506 -0.8414,-1.01527 -1.52223,-0.66026 -1.99496,-2.49287 -1.70333,-2.18043 -0.0475,-0.65959 -1.05498,-1.27579 1.54601,0.14176 0.45172,-1.12827 2.00218,0.95791 1.14214,-0.46846 3.528,3.85402 2.86219,2.74278 2.8114,0.82339 3.53443,2.22144 3.56331,0.95887 1.99788,-1.39902 1.74819,-0.51649 1.46285,0.51223 2.675,3.54458 3.10472,0.37562 3.13979,0.6643 5.31248,0.87275 3.49824,-0.40519 4.22306,-0.0538 4.54803,-0.54375 3.10914,2.20135 1.79005,2.07774 2.28772,0.73099 4.278,2.45358 1.31767,1.13432 -0.80648,1.04492 5.07708,3.50343 2.05664,0.34656 3.14559,-1.73028 1.74892,2.70716 1.49877,3.50141 2.31942,3.69911 3.23652,5.60193 3.88928,3.97017 1.06451,1.80563 1.78798,3.61524 2.27405,2.77707 1.35323,1.36728 1.81349,2.91561 2.21897,4.04799 3.23996,2.69917 0.98931,-0.83086 0.56213,-1.96593 2.42506,-0.8195 -1.08232,-0.95275 0.77118,-2.20478 1.43675,-0.13997 -1.31742,-4.91112 0.36294,-2.74629 -0.92869,-2.39786 -1.89794,-3.75976 0.01,-2.20494 1.23956,-0.15259 2.09321,-1.03558 1.09397,-0.7124 -0.54658,-1.32964 1.93526,-1.8922 1.24574,-1.82342 1.43708,-3.4011 2.92618,-1.94561 0.54102,-1.71033 -1.34471,-2.17454 2.97565,-0.60014 1.84791,0.0364 -0.22638,-1.05545 1.18794,0.2588 0.94337,0.31527 0.0817,-0.5262 1.48516,0.58618 -0.11484,-1.60846 -0.96633,-1.19161 2.52588,0.11562 2.1446,1.68262 1.34457,1.39148 1.02015,1.47245 1.63784,1.50695 3.2462,2.35805 1.79556,0.37054 0.23648,1.04201 3.9049,3.33291 1.93399,2.70648 0.7367,3.58245 2.02903,0.67781 1.67662,0.25746 2.20145,-2.06063 1.12103,-1.44967 2.35531,2.39398 2.16386,3.65176 2.36759,3.45966 1.73634,1.49761 0.94935,3.1491 1.55027,1.71041 -0.14101,2.21434 0.93397,2.14578 -0.0574,2.77228 0.15367,1.80355 0.92943,1.60577 0.059,-1.69913 1.7211,1.37109 1.89762,1.63191 0.79808,1.43159 1.35847,1.10923 0.86701,1.22544 0.0491,2.10463 1.28119,1.57604 0.71696,2.3939 1.88204,1.93344 0.47505,1.47274 3.58507,2.29434 2.84106,2.14137 2.04162,-0.19285 0.01,-0.97732 -1.30396,-2.55628 -1.08381,-0.79657 -0.37714,-1.71086 -0.39193,-0.9939 0.14336,-1.315 -0.44206,-1.94658 -1.5229,-1.93531 -2.01572,-1.74514 -0.71273,-0.27008 -1.78922,-1.50023 -1.80908,-0.33603 -1.96257,-1.65551 -1.11393,-2.50213 -1.86055,-2.63836 -1.88401,-0.0907 -0.79972,-2.0923 0.12509,-2.55337 0.0535,-4.22224 -1.01264,-3.17935 2.46944,-0.0169 0.48803,2.27103 2.39181,-0.0539 3.04318,1.32725 2.51575,2.9859 1.66734,1.50636 2.51897,0.42207 2.6421,1.64207 -0.20411,1.95831 1.56349,1.85374 2.7762,-2.69147 1.5467,-2.40981 2.60368,-1.86114 1.65324,-1.90363 -1.72535,-5.08522 -3.80788,-5.3497 -2.87976,-2.32137 -3.46485,-1.78563 -4.68151,-3.77716 -3.88838,-3.04692 -0.63131,-2.00581 0.50884,-2.73113 1.92952,-2.47307 0.94203,-0.4707 4.25513,0.92549 0.13632,1.11819 2.12628,2.09797 1.38933,-0.16932 -1.1774,-3.05289 2.53112,-0.44329 2.69456,-1.44787 0.43287,-1.4366 1.63502,0.93826 0.65351,-1.28437 2.74661,-0.33185 1.74478,-2.43289 1.38758,-2.66779 -0.61749,-3.44973 -1.43511,-3.79382 -1.18429,-3.12908 1.16392,-0.2597 -1.6886,-2.2909 -2.07635,-2.35447 -2.427,-0.89725 -2.2498,-1.54176 0.70025,-0.7894 -2.33473,-2.14728 -4.16535,-2.22047 -4.5152,-2.64904 -4.27322,-2.84331 -4.44589,-1.58852 -1.22251,-2.02328 0.49676,-1.45012 -0.86569,-1.56065 2.24961,-0.80733 -2.32938,-1.51435 -1.58347,-0.077 -3.48697,-1.12536 0.0687,2.06406 -2.88464,-0.8443 -1.72214,-1.29752 -2.46863,-0.47451 -3.68988,-1.95457 -0.59777,-1.34891 2.01428,-0.13892 -1.10393,-1.86659 -0.23332,-2.00999 0.49879,-1.02042 3.2586,1.51457 0.90805,1.94307 1.98623,1.12566 0.59822,1.3395 1.36328,-0.7891 -0.18912,-1.35093 1.94598,-0.84034 2.12605,0.77513 1.73799,0.31497 0.80312,0.47242 1.58163,1.55924 0.92316,0.52813 -0.0707,0.33932 1.09835,1.27228 1.23124,0.46113 0.94606,0.26478 0.80871,0.5439 0.34897,-0.23998 -0.45535,-0.54322 1.85051,0.55016 4.88728,2.47375 -1.07494,0.48691 4.94964,3.00905 2.3287,2.16796 2.24126,1.57402 1.83755,-0.24752 0.37866,-1.19878 1.42967,-0.55532 -1.18598,-1.58889 -4.46336,-3.33022 -3.12251,-1.87376 -6.68741,-3.41058 -3.05253,-1.26802 -1.55267,-0.46996 -0.18841,-0.3193 -1.70331,-1.25143 -0.14758,-0.77634 0.78665,-0.47533 -0.41278,-0.85445 -0.35698,-0.50984 0.1893,-0.6389 -3.18039,-2.07632 -0.84085,-0.9836 -0.56058,-0.97889 1.07879,0.17343 6e-5,2e-5 -3e-5,-2e-5 10e-6,0 -10e-6,-10e-6 -1.14807,-0.96181 -0.46761,-2.11547 3.54648,1.40508 1.2781,-0.0375 0.0976,-1.69609 -1.43356,-1.70779 -2.79259,-3.33731 -3.04648,-3.36607 -2.8473,-1.99949 -4.5943,-4.18301 -7.72066,-4.6217 -6.3928,-3.45189 -4.18074,-2.88809 -4.884,-2.4594 -8.75955,-3.18009 -2.22377,-0.18752 1.73663,1.44402 -2.90278,-0.64263 -4.3429,-1.81024 -3.33901,-0.36434 -7.29526,-6.81759 -6.79546,-5.64243 3.02315,-0.85677 5.61474,0.49688 -1.36,-1.42005 3.26933,0.43872 4.63083,2.09017 1.63732,-0.29762 1.58315,-0.75477 -5.33316,-1.77266 -7.90253,-4.84549 1.16782,-0.98151 9.82186,3.55477 -4.2843,-3.17476 -5.16942,-2.38126 1.00293,-0.2438 9.19193,4.07503 3.17683,2.30649 4.72026,2.9723 5.95864,3.63944 -0.87672,0.64668 3.0403,1.35093 2.62469,1.72511 8.26262,4.00908 15.11214,6.42335 9.86764,4.21738 4.91902,1.99154 -3.1971,-2.69309 -5.90838,-2.93691 1.02175,-0.70501 -6.85108,-3.30048 -0.45895,-1.4766 -3.57196,-1.24456 -4.94799,-2.41809 1.2428,-0.1071 -9.82355,-4.20824 -3.31249,-0.64778 -2.85775,-1.1683 -4.98563,-2.79741 -4.2009,-1.90121 2.92648,0.39634 -1.69896,-1.23837 3.35263,1.07374 -2.01372,-2.26919 7.19159,1.99972 -2.85955,-1.31356 -2.57002,-1.77436 -3.25256,-2.03103 0.31659,-0.33688 -2.13361,-2.17597 4.23166,0.62959 -1.77927,-0.76557 -3.48343,-1.19582 -2.77528,-0.77861 -7.41756,-2.38182 -5.43407,-1.53866 2.20304,0.21183 -2.01122,-1.27017 -0.0355,-0.0155 -33.28977,-11.51631 -5.12795,-1.26139 -6.89179,-1.37959 -1.57669,0.17292 -5.44079,-0.80823 3.1398,1.28424 5.96641,1.84753 1.26908,0.92453 -8.86297,-2.5695 -1.04303,0.31999 -3.43576,-0.56727 -1.58015,0.0757 0.21165,0.5919 -3.40057,-0.82298 -5.42227,-2.11385 -3.93484,-1.19524 -3.11945,-0.47607 -2.41414,0.54689 -7.9717,-2.2091 -5.03197,-1.71583 -12.37105,-1.87724 1.77727,1.2523 6.85922,2.68361 -2.42887,-0.40528 1.17343,0.81055 -3.78474,-0.88923 0.17136,0.7771 -4.32862,-1.30046 5.71434,3.03323 -4.0084,-1.17376 -6.00964,-2.27486 -2.06659,-1.2104 -4.36698,-1.85001 -4.59412,-1.52276 -1.27231,0.0159 -2.78061,-0.50596 4.50239,2.20794 -4.39368,-0.43007 -2.88989,-1.35204 -3.54454,-0.47734 -0.42152,0.45664 1.06811,0.75109 -3.93494,-1.85548 0.30973,0.54689 -2.5468,-0.7292 -1.7288,-0.4047 -0.99571,-0.85776 -1.01443,-1.60471 -0.81786,-0.85544 -2.7171,-1.50273 -2.64588,-1.08285 -4.20945,-1.40997 -2.01357,-0.0386 0.67417,0.70345 -2.7782,-1.42855 -2.26457,-0.44288 -0.40962,-0.71253 -2.74942,-0.93667 0.60755,1.18628 1.50692,1.23043 1.95366,1.24765 -1.3266,-0.048 0.99662,1.53615 -1.6293,-0.64902 -1.39455,0.26825 1.01247,0.79168 -1.28754,0.38542 0.74497,1.43398 -0.73461,0.0795 1.89079,1.89849 2.83291,1.51123 -1.19594,0.37859 -2.11482,-0.12745 -0.61122,0.58334 4.22699,3.0796 4.02945,2.40752 -3.85225,-1.64802 -1.62458,0.15303 -0.041,1.13651 3.04487,2.08459 -1.6564,-0.5281 -3.13576,-2.78951 -2.46763,-1.60263 -0.34331,0.0656 2.75962,2.05552 0.77297,1.94838 4.08918,2.35713 2.74169,2.90261 2.18088,1.60771 1.41956,0.23785 1.82675,1.90841 2.61865,1.64342 0.69996,1.37649 1.40282,1.4304 -0.38719,0.7423 0.74707,1.04065 -1.81974,-0.42589 -2.55816,-4.10594 -1.83149,-1.92954 -3.26446,-1.77185 -4.48478,-3.96109 -2.72501,-2.02074 -1.67695,-0.92152 -1.95646,-2.34458 -2.12675,-1.60789 -3.15559,-0.76231 0.0292,0.56843 2.43586,2.62723 1.23497,2.61761 1.04645,0.92525 3.00348,2.25521 1.17441,1.37054 1.53833,0.28363 0.71199,0.6132 2.7673,1.5284 0.97664,1.5127 -7.39257,-3.30263 -2.35584,-0.9035 -3.85086,-0.87476 0.41948,0.95393 2.72891,1.67461 0.68436,1.91436 -2.88261,-1.74129 -0.43001,1.1983 -1.91686,0.0798 0.11519,0.98758 -1.59883,-0.30147 -0.49342,-1.75419 -0.91262,-0.14231 -1.61498,2.48227 -1.19143,1.37681 1.1505,1.84377 -1.28728,0.62694 -1.62478,-0.98972 -1.18752,-1.60858 1.12706,-0.35686 -1.83833,-1.61888 -3.65017,-0.9273 2.06087,1.79304 0.68822,1.72881 2.16151,1.72317 0.73205,1.98666 -1.78907,-1.0103 -1.17956,-0.16665 -0.8941,2.83117 2.16236,2.11703 -0.59803,0.70438 -4.06272,-1.79926 -0.14078,1.09488 1.46955,1.24228 0.65264,1.40164 -1.42202,-0.75048 -2.10921,-0.88143 -1.71021,-2.95384 -0.81919,-1.3411 -3.04682,-2.11709 0.64214,-0.36735 6.44065,2.19716 1.42759,-0.7708 0.29165,-1.51877 -1.34556,-1.9239 -1.74444,-1.37386 -6.04198,-3.26943 -3.2078,-0.68799 -2.59702,-1.74751 -0.51255,1.0055 -3e-5,2e-5 -1.99897,-1.81581 0.86431,-0.77334 -4.00707,-2.11508 -1.42315,0.57586 -1.76913,-0.12787 -0.52318,2.39472 -1.66482,-0.15349 -1.74476,1.26533 -1.76857,3.62562 -1.24904,2.17543 -1.51629,5.58169 -1.49065,4.02872 -2.05804,2.98329 -3.18805,2.42684 -1.08089,1.86009 0.96903,6.67104 0.78587,3.10772 2.23762,1.47214 1.95358,-0.67759 2.4808,-3.34314 1.2782,1.7739 1.85155,4.0884 1.90762,3.28018 1.0204,2.73269 1.87539,-0.13309 0.44341,-2.29262 2.01499,0.27919 0.26675,-2.70805 -0.60721,-4.85263 1.38054,-0.67625 0.44778,-3.26113 -1.81257,-1.60338 -1.54112,-2.03673 -0.1105,-4.07078 1.79001,-2.48644 1.26472,-2.32421 -0.78757,-1.77031 0.47356,-2.01694 1.73275,-0.81861 2.18459,1.36609 0.61696,1.22253 -0.57568,0.60439 -1.69802,3.13506 -0.54572,1.81557 -0.0709,1.68337 1.51291,2.60759 0.62376,2.8478 1.69074,0.94886 1.3726,1.57702 2.13672,-0.60978 2.1157,-1.05985 2.49133,-0.22997 10e-6,-1e-5 2.0977,1.37443 -0.96736,1.59762 -4e-5,-4e-5 -1.48051,0.0855 -1.78022,-0.47779 -1.68707,0.41983 -1.57477,0.80539 0.70987,1.66066 1.32305,1.02729 0.42705,-0.36434 0.43844,1.70549 0.49115,2.21927 -1.24302,0.0562 -1.96514,-2.15974 -1.13975,0.98718 -0.2041,1.81535 0.61132,2.1761 1.08779,2.4299 -2.01049,0.93752 -0.023,1.27212 -1.63147,-0.0365 -0.31343,-0.705 -1.79051,-0.48833 -1.86783,0.97815 -2.33838,1.3368 -0.9904,0.84893 -0.98424,-0.92063 -2.11731,-1.14142 -0.81017,0.79172 -1.63551,0.54285 -0.14091,-1.02595 -1.79709,-0.67363 -0.18766,-1.11714 -0.64576,-1.40747 0.8681,-2.08132 0.52758,0.314 0.22147,-1.09048 -0.93206,-0.43754 -0.312,-0.80949 0.32213,-0.94155 -0.17839,-1.48664 -1.12411,0.8154 -0.43568,0.79747 -1.35819,0.17941 -0.34552,0.8673 -0.17157,0.78036 0.39568,2.95513 0.86044,1.60427 0.27627,1.63931 0.51975,1.08361 -0.9902,1.42509 -0.38979,-0.63741 -1.41302,0.15715 -0.27487,0.61216 -1.43635,-0.0816 -2.27226,1.21005 -1.29508,4.25295 -0.88883,0.79427 -7e-5,-1e-5 -1.42748,0.57026 -1.57291,0.58363 -0.50409,2.36873 -4.34434,2.25415 -1.74594,-1.24001 0.52182,3.27204 -3.17524,-0.74369 -2.5016,0.62882 0.0689,2.10791 2.91608,1.11184 1.39669,1.46258 1.98606,3.03363 -0.4807,5.75915 -1.11466,1.73386 -3.38916,-0.0957 -1.75021,0.15162 -2.20259,-0.4937 -2.81325,0.0183 -2.51286,-0.52156 -3.18909,2.08625 0.72949,1.25412 -0.32544,2.05877 -0.007,0.97449 0.32732,1.03812 -0.0747,1.22477 -0.63362,1.73827 -0.27526,1.16846 -0.99623,1.0494 -0.37607,1.89235 0.42849,1.09541 0.98877,0.26664 0.0462,1.77749 -0.56232,2.26207 1.22136,-0.31818 1.18397,0.40646 0.98847,-0.75019 2.12171,0.4477 0.54692,1.66283 0.80279,0.97665 1.13056,0.23983 0.94997,-1.09227 1.50497,-1.02079 2.20772,0.0547 2.94447,-0.0441 1.67526,-2.22271 1.73697,-0.57608 0.50445,-1.87899 1.31074,-1.28968 -0.87431,-1.65192 0.8592,-2.3529 1.34551,-1.60256 0.18653,-0.97247 2.78007,-0.61096 1.99255,-1.9253 -0.17386,-1.67918 0.17998,-1.74074 3.02446,-0.93789 4.20354,0.78269 1.7656,-1.63311 0.84854,-0.2119 1.06908,-1.34151 0.91126,-0.39056 1.79384,0.9541 1.07549,0.33611 1.00987,2.85757 1.65946,1.66515 2.22029,1.88153 1.8808,1.30499 1.63735,0.18732 1.12827,1.16188 1.49438,0.52553 0.85955,1.24762 0.97933,0.36016 0.93133,1.45773 1.16855,1.67523 -0.38108,0.61747 -0.19576,1.55042 0.14035,0.88381 0.91229,-0.22272 0.76966,-2.47928 0.90853,-0.17141 -0.0186,-1.50845 -1.80999,-1.07158 0.57998,-1.8698 2.0067,0.4757 1.50123,1.34966 0.20037,-1.03514 -0.34066,-0.53986 -2.18905,-1.50755 -1.7728,-0.87432 -2.14014,-1.04492 0.49902,-0.57586 -0.64415,-0.63891 -1.68125,0.0178 -2.77642,-2.32951 -1.45338,-2.3898 -2.18485,-1.45586 -0.90068,-1.4717 0.12667,-0.82354 -0.33208,-1.43495 1.48273,-1.02594 1.6793,0.4211 -0.40542,0.26216 -0.0643,0.0468 0.12463,1.00369 0.76868,0.96784 0.409,-1.24778 1.39271,0.45591 0.21758,0.97583 1.165,1.21573 -0.37742,0.21601 2.1536,2.12748 2.09188,0.85916 1.43893,1.04066 2.22563,1.06957 0,0 1.04871,0.57375 0.8112,0.94378 0.50054,0.22394 0,1e-5 0.46568,0.45546 -0.0928,0.89733 0.25374,1.97242 0.49352,1.3773 1.43981,0.9706 0.18631,0.63598 0.42358,0.20234 0.33541,0.82316 1.52115,1.64842 1.18415,1.32874 0.83675,1.92328 1.38772,2.31256 2.19138,1.25741 1.53652,-0.0362 -1.49049,-2.55104 1.38483,-0.30347 -1.04072,-1.47431 2.30631,0.76602 -0.45532,-1.63318 -1.33787,-0.83833 -1.59403,-1.33232 0.68439,-0.63338 -1.46443,-1.3566 -0.93512,-1.72647 0.25046,-0.63434 1.55487,1.48873 1.23328,-0.003 0.99648,-0.47115 -1.96815,-1.62497 2.44088,-0.75138 1.2188,0.27322 1.3566,0.0822 0.14717,0.59655 1.09174,1.34637 1.36441,-1.55685 0.6533,-0.89397 2.53792,-0.15939 0.16085,-0.70814 -2.19902,-0.93355 -0.61879,-1.1114 -1.22944,-1.64923 0.0881,-2.06766 0.68106,-1.19758 -0.64148,-3.48737 0.71897,0.27075 0.76717,-0.62202 -0.32067,-0.74556 0.76442,-2.13652 0.12712,-1.59187 1.69777,-0.35598 0.5698,1.07794 3.409,0.73062 0.8597,0.66205 -1.53604,0.96082 -0.13414,0.5542 2.57221,0.84609 0.10627,1.35832 1.38881,0.58797 2.08263,-1.67232 2.01533,-0.50073 -0.0689,-1.03132 -1.99113,0.17343 -1.29695,-0.69731 -0.9068,-1.79795 1.23267,-1.07755 1.78666,-0.15245 0.87321,-0.9352 1.46045,-0.23116 1.53296,-0.4659 0.3685,0.63194 -2.33745,1.17992 1.66307,1.14385 -0.52706,2.41766 -1.26663,0.46199 2.54387,1.69823 2.86157,1.09039 3.81889,2.44265 z m 3.4394,149.50277 0.16602,-0.4875 -0.77189,-0.7708 -0.26313,-1.5873 -1.65112,-1.5757 -0.86809,-2.0701 0.57741,-1.2186 -0.70072,-1.6259 0.69153,-4.6208 0.0119,0.034 0.96108,2.7548 -0.0193,0.1284 -0.18982,1.2483 0.53382,0.4177 -0.15515,1.2314 0.49604,1.1392 -0.71962,1.1075 2.19624,1.9617 0.0981,1.7899 1.21706,2.954 0,0 0.19445,0.4801 -0.4904,0.1637 -0.56853,-0.6018 -0.95807,-0.2317 0.21217,-0.6202 z m 10.66865,-24.11832 0.69863,1.09585 -0.1992,2.14061 0,2e-5 -1.44237,1.28975 -0.96981,1.30648 1.12076,0.99129 -1.66506,0.7118 -0.35243,-0.3373 -1.67543,0.17194 -1.306,0.64921 -0.77719,-1.11378 0.58182,-2.02322 0.10964,-1.73998 -1e-5,-6e-5 -0.13852,-1.11851 1.32877,-1.68905 1.8306,-0.41303 1.22915,-0.68865 1.5002,0.56899 0.12645,0.19764 z m 26.1803,-107.35786 0.16236,0.6761 -3.18889,0.7649 -3.55977,-0.49833 -2.37237,-1.45041 -2.49272,-0.60215 -1.84311,-2.13152 -0.82164,-1.43159 0.46116,-0.67565 -0.16578,-1.0125 -0.85437,-2.24497 1.68703,-0.23259 -1.12089,-0.77932 -1.09984,-0.13518 -2.26826,-2.05055 -1.99846,-1.52219 2e-5,-3e-5 -4.25523,-3.40437 -0.90154,-1.94712 -3.45726,-2.74338 0.2858,-2.98404 1.66978,-0.47638 -0.14025,-1.7143 1.47586,-0.60606 1.47106,-1.27108 2.14247,0.70552 1.88565,-0.13982 1.55739,1.78749 1.51006,2.82016 -2.0569,-0.43171 -1.427,0.46943 1.25658,2.11351 -2.17447,-0.27456 0.64835,0.94185 1.59515,0.73129 2.5413,2.59601 3.05995,0.9848 1.03163,1.00712 0.21695,1.20468 0.55189,0.70486 1.81612,1.87301 -1.07409,-2.11815 1.27024,-0.73734 1.65405,1.65342 2.66892,1.73498 -1.35042,0.92497 -2.49634,-0.70964 0.97031,2.43655 1.57024,0.16865 0.60127,1.9793 2.32539,0.97844 1.43557,3.02354 1.59705,2.04435 z m -25.1976,140.71568 -1.01851,2.7243 -0.0137,3.3112 -0.004,0.3853 0.5116,0.1208 0.34324,1.5452 -0.12169,0.3579 -0.82587,-1.1253 -0.5968,0.7228 -0.35629,-0.6197 0.16901,-1.0857 -0.52795,-0.8461 0.19691,-1.2569 -0.56281,-2.1276 1.01869,-1.606 0.22159,-3.4844 -0.81017,-1.867 0.12388,-0.3204 0,0 0.21765,-0.565 1.3493,1.5457 -0.0978,3.0363 0.80174,1.1069 -0.0177,0.048 z m -207.01912,126.3813 -0.60098,-1.4453 -3.02155,-0.7227 -3.84723,-1.7344 -2.9279,-2.168 -1.94642,-1.3403 -1.57648,-0.3413 -0.45663,1.1937 1.38914,1.979 0.44339,1.3253 -3.30952,-1.0375 -4.39891,-1.9309 -2.06376,-0.6069 5.72956,3.2377 3.32735,1.5541 3.7473,1.615 2.15332,0.418 2.06157,0.869 1.20065,0.234 0.89312,0.092 0.53162,-0.8978 -0.57567,-1.1691 1.81845,1.0209 1.42958,-0.1445 z m -13.15885,-8.3846 0.88274,0.1461 -2.76027,-1.6734 -3.40314,-3.0022 -0.50316,-1.3537 0.65135,-1.1405 -1.80014,-3.3889 0.84896,-1.6305 -1.53321,-2.5934 -2.37442,-0.5845 -3.75344,-2.1164 -1.25644,-2.1677 0.36493,-1.4808 1.92299,-0.01 -0.75981,-1.5478 -1.99489,-2.908 0.30171,-1.7975 1.27635,-0.8973 -1.75882,-1.5016 -0.48806,0.9116 -2.10513,-0.8702 -2.46512,-2.8724 0.28133,-0.7563 2.87244,1.0525 1.94261,-0.399 0.58635,-1.0171 -1.43294,-1.4578 -1.04936,-2.1637 -1.65294,-1.724 2.66911,0.2912 4.12002,-0.6019 2.37223,-1.5504 -0.0554,-3.7067 -0.71733,-1.412 -2.19834,-1.2596 -0.84013,-1.9927 -4.44054,-2.476 -0.70129,-1.509 2.36806,1.5988 1.56401,-0.093 2.89631,1.2412 1.11189,-0.3098 2.07008,0.5781 1.81754,-1.6067 0.0839,-1.8166 0.75082,-1.6529 -0.2525,-2.7497 1.01707,-1.3519 1.1044,-2.293 0.54125,-5.0876 1.10603,-1.5909 0.005,-1.4106 -0.67182,-2.9203 -1.04069,-1.5962 -0.43189,-2.1584 1.17958,-2.8671 2.31235,-2.3017 2.68425,-0.8444 1.4621,-1.286 3.84644,-1.1108 2.89351,0.01 0.13644,-1.7327 1.82608,-1.2527 -0.32007,-2.9855 1.83158,-3.7736 -0.38327,-3.8643 0.62556,-1.1405 -0.10023,-1.906 -0.0858,-4.4555 -1.1338,-5.4163 0.45103,-2.1267 0.69547,-0.056 1.72504,-2.506 1.37517,-3.2678 3.54993,-4.0223 1.2624,-1.8872 0.72534,-4.7789 -0.60659,-1.7489 -1.21479,-3.6806 -1.09524,-0.9119 -2.46857,-0.1159 -2.26478,-0.8338 -3.84041,-3.2384 -4.36006,-2.39237 -4.30913,0.11263 -5.67193,-1.52891 -3.3277,0.89091 0.4212,-1.60017 -1.45266,-1.69398 -4.83054,-1.76538 -3.6486,-1.03894 -2.16995,1.89683 -0.13586,-2.89739 -5.11076,-0.45396 -0.89815,-0.87134 2.19719,-2.37964 -0.0357,-1.99542 -1.53188,-0.4772 -1.40226,-5.05534 -0.61557,-1.59883 -0.99105,0.13661 -0.39586,-1.18384 -2.85515,-2.43999 -2.05729,-0.68416 -0.94714,-0.31803 -3.01583,-0.77686 -2.34552,0.20862 -0.36115,0.52104 -3.38675,-0.57893 -1.02677,-1.0063 -1.37624,-1.41016 -1.07315,-0.0685 0.10691,-1.48843 -1.51444,-1.88332 -1.72172,-1.06329 -1.015,-0.6814 -1.49988,0.0653 -0.0716,-2.31592 -1.9068,-1.42144 -2.23687,-0.21719 -0.70847,-1.3646 2.58333,-0.85378 -3.41196,0.0402 -3.55461,0.17433 -0.18175,0.72793 -1.77671,0.90301 -2.10459,-0.35725 -1.35837,-1.29453 -3.09935,0.29704 -2.54611,-0.0254 0.10077,-0.95708 -1.46913,-1.61197 -1.97563,-0.0469 -0.50938,-2.03128 -1.22343,0.91197 0.0562,1.3625 -3.81287,1.17511 -0.35742,2.18835 0.66234,1.01736 -1.0684,2.08939 -1.26749,0.18769 -0.60591,-2.29344 1.62641,-1.67904 0.38578,-1.51173 -0.6058,-1.31186 1.74699,-0.33738 0.25233,-0.68304 0.79944,-0.97329 -0.54055,-0.76043 -0.95263,-0.17709 -1.73749,1.3926 -1.27004,0.6463 -2.59948,1.45967 -2.15751,-0.24125 -0.37723,0.60253 -1.80127,0.0549 -1.95967,1.34144 -1.09459,2.4426 -0.23897,0.95611 -1.24087,0.30765 -2.56288,2.01791 -1.45799,-0.0918 -0.90897,-0.79881 -0.74473,-0.86977 -1.15857,-0.4993 -1.5677,-0.0986 0.17099,-0.28434 -1.53464,-0.16962 -1.17081,0.86386 -1.86356,0.58304 -1.37528,0.7301 -1.45075,0.20891 -0.62835,-0.71031 -0.322,0.23512 -1.11032,-0.12996 0.1974,-0.61246 -0.78096,-1.03685 -1.03459,-1.23388 -0.80099,-1.16338 -0.29571,-1.57059 -0.30236,-0.47488 0.0908,-0.78126 0.79505,-0.73921 0.0327,-0.76341 0.643,-1.23643 0.52009,-0.28397 0.34404,-1.30141 0.0931,-0.74511 0.51978,-1.27377 0.70463,-1.16315 0.99547,-0.98464 0.099,-1.05777 0.38169,-0.64532 0.34412,-0.2774 -0.43261,-0.79516 -0.84259,-0.44276 -0.55088,-0.64801 -0.63369,-0.54031 -0.41572,-0.0638 -1.10687,-0.40094 -0.65469,0.25081 -0.75477,0.0677 -0.58485,-0.19628 -0.82378,-0.14961 -0.45955,0.32363 -1.02608,0.31975 -1.31696,0.0755 -1.18417,-0.26081 -0.49126,0.14355 -0.15966,-0.23565 -0.81296,0.0415 -0.8224,0.50819 -0.24199,-0.11293 -0.66105,-0.36905 -0.42092,0.43074 -0.68631,-0.52291 0.97996,-1.00122 0.54107,-0.092 0.87887,-0.76692 0.97077,-1.46064 -0.0493,-0.27643 0.76314,-1.03424 -0.0333,-0.4471 1.03572,-1.25031 0.42369,-0.78627 -0.51355,-0.0133 0.19645,-0.4241 0.59745,-0.0482 0.33574,0.74242 1.79068,-2.25565 1.03825,-1.24957 -0.24455,-0.50341 1.56318,-1.76001 2.37176,-1.7184 0.85075,-1.3923 -0.30564,-0.61291 -1.76808,0.24484 -2.32518,-0.10069 -3.22641,0.6705 -2.25458,0.75699 -0.94139,0.84504 -1.55252,2.42848 -1.54282,1.68614 -2.35054,1.17951 -1.97821,0.49579 -2.3187,0.51955 -2.24111,0.29197 -2.8231,0.80785 -0.50511,-1.20931 -2.49826,-0.76693 -0.2888,-1.42322 0.29551,-1.64931 -0.53994,-2.15213 0.82708,-2.24198 0.0525,-1.40971 0.55168,-1.57694 1.18659,-1.41172 2.83876,-3.87284 1.93699,-2.08073 2.86423,-2.5376 -1.07874,0.0867 1.07877,-0.0867 0.23875,-0.98284 0.92072,-1.38753 1.56653,-1.99458 1.61231,-1.30081 2.49055,-1.38025 3.52219,-1.24632 4.03014,-2.14308 2.66412,-0.67535 1.72537,-0.20269 1.29008,0.66905 2.47832,-0.36047 0.68504,1.52763 1.76297,0.0899 1.36728,-0.54839 0.61031,0.42646 0.76997,-0.38004 -0.0979,-0.57108 0.94712,-1.17232 0.1499,-0.76836 1.38653,-0.45091 2.05852,-0.19922 1.96644,0.31962 3.09859,-0.36328 1.02328,0.71513 0.21174,1.34848 0.34339,0.14445 3.49356,-1.31194 0.65233,0.44355 0.22836,2.41824 -0.39851,1.58988 -1.83313,1.91873 -0.37501,1.13084 -0.2539,2.21149 -0.20246,2.486 0.5783,0.66486 -0.35987,1.26826 1.0775,0.35053 1.00012,-0.36469 1.71568,-1.7651 0.8026,-1.12445 1.29856,-1.94901 0.9525,-3.35321 0.81698,-1.24915 0.26513,-2.04624 0.89176,-2.47304 1.00187,-2.00751 1.88833,-2.05383 2.43459,-1.71364 2.41104,-1.37612 4.08226,-1.87617 1.08118,-0.97 2.02796,-1.06198 1.33959,-0.18541 2.86464,-1.69551 3.11374,-0.85717 3.1425,-2.14548 1.92319,-2.89217 0.55209,-1.0002 -0.50349,-0.19987 2.12793,-2.75062 -0.7983,-0.93094 1.12706,0.45306 1.0361,-1.83372 1.48135,-1.2499 -1.73675,2.40155 0.25708,1.10472 -2.29743,1.96697 0.1174,0.11479 3.14922,-2.30856 1.64069,-1.12335 0.85865,-1.09243 -0.1348,-0.51445 0.83007,-1.55664 0.12987,0.72282 0.36711,0.15046 -0.44518,0.7425 3.46156,-2.22503 2.20573,-2.07658 -0.53601,-0.13263 1.34265,-0.80141 -0.36369,0.35483 1.40234,-0.006 3.78261,-0.86721 -0.19372,-0.54773 -3.65827,0.54454 2.51995,-0.83699 1.38289,-0.14266 1.06474,-0.14453 2.01971,-0.50428 0.99422,0.0562 1.8416,-0.46878 0.84403,-0.82576 -0.11856,-0.64222 -0.63785,1.0551 -0.83533,-0.0723 0.55787,-1.53207 1.30403,-1.53293 0.9055,-0.65023 2.56033,-1.71653 2.92197,-0.8555 2.96259,-0.99786 3.35697,-1.40055 0.43056,-0.94765 2.55403,-0.35203 3.33234,-0.0946 -5.47843,2.39037 -1.88397,2.44683 1.42211,0.21229 3.96054,-2.08217 2.95771,-1.1696 5.84834,-1.72028 3.92888,-1.89384 -0.50248,-1.04712 1.47125,-2.0966 -4.5049,3.24961 -3.65621,0.41842 -1.45207,-1.44381 1.1401,-2.18097 1.98719,-3.11582 3.45051,-1.94148 -0.47324,-1.41731 -3.07745,0.28815 -6.13561,2.40824 -6.52829,3.79819 -2.10542,0.47509 4.67041,-2.6686 6.22508,-3.82578 3.55398,-1.28115 3.40898,-2.07382 2.09089,-0.20012 2.75344,0.0208 3.4465,0.60858 3.51348,-0.46919 4.21004,-2.37479 3.79249,-1.02741 2.07662,-1.01458 2.13005,-1.08672 2.3854,-3.24833 0.16388,-1.09017 -1.02684,-0.38397 1.30834,-2.44605 -0.31185,-0.9221 -2.01021,-0.74748 -0.0464,-1.65177 -0.70382,-1.63026 2.26928,-1.81536 1.45028,-3.46776 1.52651,-3.68714 1.3725,-2.58133 -2.2732,1.3438 -4.55749,3.18959 -3.78599,1.60506 0.62887,-1.70262 -0.89992,-0.45182 3.33301,-3.65352 2.61386,-2.42864 -2.25547,-0.219 0.80832,-1.12211 0.1824,-1.67579 -0.14256,-0.97917 -1.98398,0.75936 -1.05805,-0.28124 -1.36341,-0.78664 -1.73427,0.66743 -4.93852,4.51457 -2.45268,2.61686 -5.28405,3.02953 -0.68175,2.17522 -1.73475,2.45553 -2.03337,1.93214 -3.13536,2.01429 -4.11899,2.02626 -4.18978,1.35496 -0.52911,1.52128 -4.14048,4.56548 -4.18797,2.97206 -2.40961,0.94095 0.36482,-2.74459 2.40504,-3.23512 2.83501,-2.90585 3.21007,-2.50348 -1.46328,-0.27915 -2.51768,-0.16683 -0.23553,-1.21764 -1.03595,-0.79584 0.58796,-1.3658 -0.16977,-1.09875 -1.27061,-1.25155 -2.95949,0.57117 2.25886,-2.19294 3.05444,-2.70687 -1.52014,-0.48188 4.86134,-3.35723 3.8215,-2.27913 6.17402,-3.25504 4.99107,-2.34259 2.04549,-0.36171 2.74365,-1.87884 2.7347,-1.22149 2.07777,-0.19148 4.15368,-1.95602 2.09981,-1.26421 4.50367,-2.43767 2.3393,-1.45136 0.01,0.87019 2.21281,-0.44586 4.90317,-2.02129 1.98334,-1.40598 1.27395,-1.54759 2.83244,-1.54114 1.83578,-1.4348 0.5563,-1.43448 -0.89979,-0.4253 -1.10741,-0.22178 -4.48805,3.17268 -4.25617,2.49496 -4.07838,2.08922 1.69439,-1.95023 3.38337,-2.14403 1.44346,-1.8606 -4.70778,2.26556 4.36578,-2.95623 -0.99895,-0.58482 3.02088,-1.42025 3.65676,-3.25897 1.04674,-1.27613 -0.46123,-0.46361 -4.40862,2.09781 -5.14908,3.19439 -0.67528,1.16798 -1.66889,1.78264 -4.93671,2.90572 -0.7486,-0.0777 -4.26387,2.30481 4.25315,-2.73463 -0.10622,-0.98066 -1.74689,0.505 -2.74473,1.79885 -1.48249,-0.0694 -2.44717,0.45896 0.23263,-1.3033 -1.5936,0.23053 1.59494,-1.57028 0.33843,-0.69024 -1.33917,0.28907 -1.51239,0.1332 -2.4276,0.98943 -1.05058,1.22647 -3.75376,1.46245 1.89171,-1.73326 -1.82908,0.50564 -3.57264,0.34102 -0.82869,-0.61994 4.17697,-1.43462 1.31016,-1.46561 -1.37132,0.18616 -0.49604,-0.49075 -0.34938,-1.05967 0.85481,-1.21387 -0.87361,-0.16693 -2.07522,0.84353 -2.20339,0.47416 4.33176,-2.1932 -5.34292,1.95937 3.7019,-2.59188 -0.0213,-0.30823 -3.08639,1.36145 -2.1661,0.67524 1.86352,-1.19796 -3.15642,0.7203 -4.24769,1.26951 -0.72749,-0.35293 -3.22008,0.9028 -3.57983,1.20565 -0.48957,-0.26589 1.52523,-1.39042 -0.28455,-0.6966 0,0 -0.14778,-0.40452 0.5358,-0.86887 -2.423,0.4698 0.13674,-0.37584 -1.23194,-0.2718 0.1867,-0.91339 -1.69953,0.28905 -0.25032,-0.49139 1.72464,-0.66481 -1.16409,-0.17343 -1.84384,0.55958 2.64583,-1.30477 0.15758,-0.60701 -5.44484,1.54086 -0.36572,-0.19345 -5.19525,1.28334 -1.82235,0.33057 -4.66734,1.37386 -3.99453,1.40761 -4.81724,1.31694 -2.09897,0.094 -4.68949,1.51517 -0.98412,0.91377 -2.23921,1.23269 -3.02852,1.44518 -1.48964,1.10086 -3.70405,1.79063 -2.76448,0.11248 3.93629,-1.44376 -0.9448,0 -6.32497,1.41164 -4.88475,1.20924 -2.9396,1.67979 -2.547,1.1627 0.008,0.69298 2.59939,-0.32438 -0.65468,0.63756 2.01448,-0.63838 2.92052,-0.62957 0.83996,-0.0329 -3.7515,1.11528 -0.61814,0.52029 -3.09569,1.32015 -3.23889,0.89696 -0.30707,-0.24894 -4.58507,1.39469 0.2806,-0.46248 -1.59535,0.21122 -4.26741,1.4838 -5.21704,1.61324 -4.77028,1.66208 -2.0549,1.2318 -4.11791,1.63728 -0.75982,0.6938 -2.15131,1.35698 3.25038,-0.55406 -1.58289,1.02939 -2.84617,1.06 -4.04096,1.72072 0.91693,0.002 4.27472,-1.1571 -2.88729,1.44122 2.87838,-1.0373 -2.50279,1.46617 3.30164,-1.05104 -0.68979,0.49714 3.78913,-0.87612 -4.76672,1.70713 -5.37634,2.19208 -3.52241,1.02065 -1.69589,0.57885 -6.22271,1.73042 -3.54872,1.18519 -2.76969,0.32685 -5.43679,1.58104 -3.70272,0.8921 -4.98916,1.35055 -0.87476,0.48579 4.80128,-0.82548 3.62814,-0.96679 3.95588,-0.98442 3.3919,-0.80606 0.60881,0.22228 4.73778,-1.23568 3.62412,-1.35705 5.90293,-1.49268 3.32548,-1.27997 3.57517,-0.88172 4.4195,-1.20999 6.17875,-2.07654 2.14415,-1.40358 6.8516,-2.05637 5.41906,-1.92388 5.5055,-1.61077 -1.28589,0.72509 -3.5418,0.88971 -7.15888,2.83525 -3.67535,1.70309 3.02948,-0.61395 3.4939,-0.97546 3.03814,-0.60275 1.2157,-0.18546 4.21523,-2.00805 2.9426,-0.61186 -1.06252,1.23157 -0.0934,1.32807 2.53243,-0.24648 0.32758,1.03177 0.23996,0.54853 -3.15516,2.99986 0.0813,0.8319 2.2791,0.0708 1.09158,0.18688 -4.55132,2.72933 -2.49491,2.33826 -4.3579,2.52132 -0.29139,0.92175 -1.12167,1.08735 10e-6,-1e-5 -2.7281,1.48924 -1.78664,2.09859 -3.90218,2.33051 0.0584,1.23077 -3.37585,1.77425 -3.44222,2.5589 1.278,1.19689 -0.7758,1.24878 -1.03398,2.83872 0.24264,0.007 -3.15608,2.37037 -3.43922,2.37037 -1.68293,0.76314 3.27972,-2.72881 -1.20313,-0.98202 -1.14949,0.5645 -1.6018,1.34205 -3.32035,2.47275 -5.69383,3.87741 -4.26637,2.62334 -4.21016,2.62335 -4.87235,2.72416 -2.56005,2.21529 -3.49039,2.47911 -3.87116,2.39587 -1.0213,1.57892 -2.9211,2.35687 -1.49813,2.42226 -0.25215,0.95485 -0.95615,0.66958 -3.21174,4.01873 -1.30347,2.90419 -1.62124,1.585 0.0512,0.46667 1.87864,0.28512 -0.0597,0.78186 1.1753,0.14517 -0.69363,0.82926 0.72669,0.34594 -0.30993,1.66218 -1.22749,1.47681 -1.82397,2.60046 -1.29116,2.31047 -1.02536,1.89534 -0.89105,1.80505 0.68697,0.80038 -0.0461,2.06212 -1.32855,1.30402 -1.95722,1.07973 -0.90049,-0.16395 -0.39044,0.21817 -0.0366,1.67845 0.95508,0.69962 -0.0225,0.75333 0.67237,-0.37211 0.63939,1.2899 0.46038,0.89599 -0.93743,1.5664 -1.84328,2.11516 0.74686,0.73421 0.78577,1.39753 0.45249,1.64767 -0.62608,1.75724 0.46172,0.0139 1.91375,-1.0618 0.45515,-0.51768 0.0269,-1.29072 -0.0317,-1.31343 -1.19486,-0.0955 1.07976,-1.52458 0.38258,-1.35458 0.28334,-1.26608 1.44851,-2.689 -0.31885,-1.47111 0.37528,-1.02355 -0.10674,-0.7354 1.21818,-1.86442 -0.48962,0.0402 0.60373,-0.99294 -0.18867,-0.20636 0.23556,-0.68058 0.0758,-1.99117 0.33034,-1.19169 1.96612,-2.17072 1.02919,-1.38715 1.62734,-1.17376 0.56893,0.79634 0.95359,-0.12592 0.60256,1.14657 -1.16618,1.11027 -1.32608,2.2136 -0.7672,2.18036 -0.75072,0.90316 -0.13233,1.40619 0.0793,1.52257 1.16112,0.2352 -1.158,2.01701 0.29939,1.4047 0.74181,0.67423 -1.89775,1.7866 -0.10552,0.70612 1.28089,1.18026 -0.15428,1.80205 0.91943,2.25804 0.23066,2.87341 -0.13709,1.45885 -0.55519,1.15031 0.0253,1.29804 -0.67895,0.99966 -1.11371,0.74982 -0.25739,0.82436 -1.08536,0.28218 -0.24955,1.40873 0.23914,1.82297 1.96079,1.64065 0.38338,1.31896 2.29798,0.91503 1.44416,0.17246 0.27598,0.772 1.57701,1.38162 2.44539,1.3439 1.87548,0.40505 1.95157,1.32605 1.82383,0.54995 1.61376,0.76184 1.53231,-0.28495 2.73102,-1.08756 1.64775,-0.21003 1.92454,0.75392 1.01753,0.93871 1.84764,3.11213 1.0329,1.19273 1.06071,0.57347 1.7303,0.0522 1.2502,0.50423 0.56589,0.62068 1.49648,0.17948 0.95663,0.57467 0.91497,0.27688 1.61519,0.0432 0.5518,-0.68066 0.76551,0.25134 0.17266,0.90435 -0.28314,0.20428 -0.31566,-0.43515 -0.46636,0.44702 0.97543,1.30559 0.89676,0.90853 0.31679,0.97441 0.97004,1.16622 0.71464,0.91055 -0.80983,0.55838 0.68725,0.40744 -0.62672,0.91055 -0.25165,0.88008 0.23712,0.58258 0.84182,0.28562 0.45032,0.80217 0.74089,-0.69073 0.0321,-0.84042 0.61397,0.51648 -0.0247,0.84557 0.89065,0.37054 0.98623,0.56817 0.6299,0.69208 -0.0411,0.63868 -0.44041,0.50185 0.44872,0.60678 1.41697,0.64144 0.23892,0.43709 0.21744,-0.6274 1.22846,-0.004 0.67286,0.33812 1.13472,0.19203 0.34984,1.16308 0.91261,0.1697 0.4665,-0.49147 0.17683,1.72684 1.36033,-0.14751 0.49104,-0.42835 0.84967,-0.36934 -1.06709,-1.56902 0.40085,-0.60156 0.6445,-0.10091 1.30393,-0.72614 0.79198,-1.00555 1.28918,-0.18419 1.25262,0.80352 0.33887,0.95514 0.68531,0.19808 -0.85718,0.77222 0.32473,1.56036 0.81002,0.83392 0.90898,1.53974 0.0929,2.44484 -0.71881,0.75893 0.33035,2.64448 -0.7168,1.6777 0.99866,0.6879 -1.23225,1.51651 -1.34503,1.81655 -1.44472,0.19382 -0.73859,1.04701 0.058,1.4481 -1.08704,0.2169 0.35892,0.8974 -2.01973,1.15046 -1.59667,0.62008 0.18527,1.17965 -1.09564,1.86174 -0.50571,1.80078 -1.0019,0.4359 0.58556,2.62357 -0.54404,0.81487 1.8066,1.26675 1.02348,-1.34234 0.69949,1.26242 -1.37686,2.16033 -2.13245,1.8256 -0.67754,2.0245 1.7499,2.7572 -0.74248,1.29 2.22949,1.1703 2.54524,1.8866 1.29093,2.129 1.42879,1.3174 3.98072,5.7558 4.20984,5.3333 3.51814,3.7936 -0.1988,0.8329 1.94188,2.388 2.76108,1.7818 6.10538,3.1615 6.54883,2.9026 0.68545,1.1861 3.3921,1.6598 2.19865,4.0715 2.2332,4.7316 2.19851,6.4627 2.24271,6.0038 2.63704,5.5919 0.58711,3.5297 2.49027,3.5678 0.76741,2.3847 3.4061,4.331 1.92258,4.3077 1.67552,4.6244 2.08667,4.6683 -0.89827,0.094 2.74612,3.2566 2.91062,2.8208 0.59106,1.9758 3.77118,5.3553 2.94733,4.1341 1.68736,0.4071 -2.48013,-3.6083 2.09471,0.7684 4.14537,5.9884 -3.21478,-1.0173 3.71381,4.8013 0.51403,2.5544 3.80688,0.8429 0.0702,2.2336 1.90776,2.7804 5.18259,4.9275 2.87445,1.9223 1.2222,1.6939 2.44801,1.8309 3.89039,1.6544 0,0 4.03987,2.0129 2.88234,0.9396 0.65487,-0.067 -2.40401,-2.7001 0.55905,-1.0443 0.16347,-0.7111 1.59362,0.022 z m -52.05733,-289.9639 2.11185,-1.14318 1.61509,-0.45397 1.24181,-0.70478 0.8658,-0.37689 1.09776,0.58274 1.23478,0.0695 0.0185,0.38674 -1.19645,1.63886 1.69273,0.4344 -1.2448,0.82204 -0.15156,0.84841 -1.52452,1.0981 0.43912,0.36277 -1.45488,0.97116 -0.006,0.004 -0.48228,-0.11682 0.456,-0.80942 -2.22214,0.25253 -2.46966,0.64361 -0.17696,-1.10146 -0.70658,-0.36867 2.35119,-1.52436 -2.81513,0.95716 -2.64847,0.93647 -2.37115,0.73525 -0.0691,-0.99301 -2.6834,0.60223 0.50276,-0.42424 2.76397,-1.21865 2.74029,-1.15628 3.09095,-0.95387 6e-5,-3e-5 z m 5.17892,4.62866 0.82725,-0.42491 -0.28999,0.64025 1.12049,0.35881 1.48978,0.0304 1.31869,0.2951 1.22549,0.56003 -0.25525,0.90674 -0.87613,2.21293 -1.59947,0.95588 -1.28135,-0.3981 0.7559,-1.78764 -1.56652,1.82081 -2.58287,1.60584 -1.24568,1.37191 -0.96513,0.80711 -2.30232,0.95632 -3e-5,1e-5 1.06186,-1.18519 1.29238,-1.67657 -0.47869,-0.28905 -2.57416,1.2719 -0.39145,-0.024 0.62955,-0.72749 2.31621,-1.15635 1.53094,-1.31739 1.18322,-1.31313 -0.32952,-1.1273 -1.10617,-0.57818 -1.44745,1.09847 -0.75891,0.29413 -1.86595,1.42703 0.83306,-0.96963 -1.54975,0.69209 -1.53891,0.97067 -2.03275,1.41807 -1.3867,1.22634 -1.15306,1.78817 -2.00479,1.90699 -2.29539,1.40859 -0.83958,0.39959 -0.90386,0.31803 -0.74993,0.0158 4.2e-4,-0.19599 0.97533,-1.51935 0.75916,-0.75123 0.79716,-0.7136 1.21434,-1.41545 2.12454,-1.6361 2.61347,-2.01439 3.45232,-2.22443 -0.31744,0.0102 -3.51209,1.8624 0.0903,-0.34185 1.92927,-1.04179 3.23756,-1.86822 1.6528,-0.26015 2.19128,-0.57818 1.25389,0.30503 0.0537,0.013 2.04561,-0.26082 0.22533,-1.1521 10e-6,0 z m -10.2376,12.51311 1.00161,0.18209 2.47651,-0.92071 1.70909,-0.80837 0.75875,-0.13176 0.89182,0.291 0.99313,-0.44971 1.3816,-0.36531 2.18016,-0.35545 -6e-5,7e-5 -0.22526,0.28405 -3.45094,1.72602 -2.40161,0.83623 -1.47432,0.38974 -2.03327,0.79948 -1.93185,0.38451 -0.93899,-0.14796 -0.75728,-0.59797 1.82088,-1.11595 3e-5,0 z m 12.02401,-3.42716 -0.13163,0.0332 -0.78479,0.14953 -0.57884,-0.27411 1.57292,-0.9886 0.96426,-0.34178 1.8728,-0.42133 2.13039,-0.39354 0.41128,0.54688 1.1717,-0.63397 1.03145,-0.40057 0.24346,0.21205 -0.0182,0.0451 -0.16178,0.40444 -0.91163,1.12491 -2.45075,0.95395 -1.50158,-0.23946 -1.55099,-0.10741 -1.3081,0.33067 z m 92.43987,310.51279 0.51576,-0.8497 -0.38811,-0.9629 -1.42159,-0.7365 -0.708,0.3399 0.10231,0.9063 -0.23727,0.7364 -0.72031,0.3398 -0.34457,0.5665 0.0987,0.9063 -1.02196,0.1698 -0.0361,0.7365 0.13277,0.793 0.80122,1.2462 -0.0752,0.8495 0.14585,0.9064 0.39431,1.0762 0.28619,0.8497 0.86302,1.3027 1.36647,1.1329 1.57371,1.2461 1.07333,1.1328 0.90102,1.1895 0.71349,1.0763 1.16956,1.1328 1.33066,1.1329 1.39351,1.0196 1.5699,1.1328 1.59778,1.1329 1.55187,1.1329 1.43138,1.1895 1.1862,1.2462 0.51465,0.9062 -0.12088,0.6231 -0.61064,0.3965 -0.77498,0.34 -0.52801,0.3964 0.0691,0.7363 -0.0623,0.6232 -0.70762,0.2831 -1.78839,-0.9629 -1.6421,-0.6231 -0.75508,0.2833 -2.34008,-1.1329 1.04681,1.0196 0.82444,1.0762 -1.82353,-0.6231 -1.46619,-0.3398 -1.23758,-0.1133 -2.30504,-1.1329 -0.64127,0.2832 -1.71915,-0.5098 -2.61617,-1.3027 2.57386,2.209 -0.75839,0.2266 -1.89124,-0.6797 -0.50098,0.3399 -0.23957,0.5664 -0.42322,0.3965 -1.37992,-0.17 -2.02553,-1.0195 -2.25706,-0.8497 -1.7561,-0.4531 -0.82013,0.1699 -1.41227,-0.1699 -1.33949,-0.3964 4.0161,2.1522 2.03597,1.0763 2.31079,1.0763 1.40823,0.2265 2.11261,1.0196 2.12107,0.963 1.71624,1.2461 -1.88299,-0.5097 -1.69414,-0.3966 -1.32935,-0.1132 -0.0431,0.5098 -0.73822,0.1698 -2.30799,-0.793 -1.64716,-0.3399 -2.92068,-1.0761 0.79941,0.8497 -2.32241,-0.9631 -2.21428,-1.0195 -2.24551,-0.9063 1.09313,1.0195 0.0468,0.5099 -2.2127,-0.6231 -0.0633,0.4531 0.90688,0.8496 -0.82967,0.1134 -1.2656,-0.057 -1.2378,-0.057 -0.83653,0.1134 -1.75292,-0.2832 -1.65971,-0.2832 -0.16166,0.3964 -0.93718,0.057 -2.16336,-0.5096 -0.2729,0.3964 -1.04369,-0.2266 -0.99638,-0.1698 0.47932,0.623 0.61055,0.6231 0.56139,0.6797 -0.3436,0.2832 -0.9298,0.057 0.91491,0.7365 0.26347,0.5664 -2.78096,-0.963 0.30404,0.5098 2.31039,1.0197 2.91358,1.0761 2.6935,1.0763 -0.30972,0.2832 1.67085,0.9629 1.20234,0.7929 0.75171,0.6233 -0.26304,0.283 -3.77651,-1.2461 0.0213,0.3965 -0.29618,0.2833 -3.00713,-0.9063 -1.0817,-0.2833 9.05131,3.2851 3.2096,1.0197 3.17069,0.9063 3.22935,1.0763 1.80795,0.2832 2.00984,0.3965 1.53979,0.17 2.94276,0.8495 2.67056,0.7931 3.17305,1.1895 2.05069,0.9629 1.98994,1.0763 1.40559,0.8497 -3.15727,-0.9631 0.16202,0.4532 -1.53854,-0.17 3.11962,0.9063 3.05009,1.0197 2.78337,0.7929 3.21891,1.1895 2.70983,1.0763 3.02709,1.1895 3.40941,1.3028 2.48408,0.6231 3.20993,1.1329 2.66196,0.6796 1.36604,0.1134 3.3224,1.3594 1.31718,0.793 1.57151,0.8497 -2.91321,-0.9063 -2.53656,-0.5664 1.46943,0.793 -2.81432,-0.6798 -3.1388,-0.9063 -2.87763,-0.7363 -3.2313,-0.9629 -1.1498,-0.3454 -2.27097,-0.6743 0.62521,0.5099 0.42626,0.1644 3.27057,1.2038 -4.07437,-1.2038 -0.10069,-0.021 -0.13965,-0.032 2.51996,0.9212 0.27884,0.1012 -3.32178,-0.9063 4.99812,1.6825 -0.0882,-0.023 47.94173,15.282 47.94173,-15.282 1.69793,-0.6963 2.13195,-0.9063 -3.02742,0.7363 2.35088,-0.8551 0.60403,-0.221 0.9679,-0.6231 3.98998,-1.4161 1.84795,-0.9063 2.06162,-0.9063 2.05745,-0.9063 2.24161,-0.9631 2.66129,-1.0761 3.09537,-1.1895 2.06938,-0.9629 3.21297,-1.0763 3.18124,-1.0763 3.84629,-1.3594 4.99319,-1.6426 1.3507,-0.1133 2.5968,-0.6231 2.29765,-0.4531 3.33076,-1.2463 0.0267,-0.3963 2.58139,-1.0197 2.87908,-1.0762 2.79613,-1.1328 2.97746,-1.0761 3.68144,-1.3029 3.16127,-1.0762 3.59381,-1.1895 3.04984,-0.9063 3.51303,-1.0763 3.50786,-1.1329 2.75821,-0.623 3.33649,-1.0196 2.34296,-0.4532 3.76069,-1.1895 3.18956,-1.0195 4.08501,-1.3028 3.36126,-1.0197 3.32211,-1.1329 1.75796,-0.8495 0.63001,-0.5664 0.92393,-0.6799 0.0417,-0.3964 -0.51331,-0.2266 -1.29217,0.057 -0.56682,-0.1699 -1.25484,0.057 0.14081,-0.453 1.9619,-1.0197 0.67026,-0.6797 2.46946,-1.1329 -0.28611,-0.3398 -0.50465,-0.2832 0.83253,-0.6796 1.50561,-0.9064 1.06987,-0.7931 -3.08979,0.9632 -1.04109,-0.057 0.0553,-0.4529 -0.31151,-0.4534 -0.13449,-0.5095 0.57492,-0.7365 0.45319,-0.6797 1.30078,-0.8496 2.75137,-1.0763 1.3306,-0.9063 -0.74052,-0.2265 -1.23181,-0.1134 -1.1998,0.057 -1.49331,0 -1.40695,0.17 -1.61563,0.057 -1.66374,0.17 0.16486,-0.5099 1.63216,-0.9629 2.1972,-1.1895 2.60771,-1.3029 0.95128,-0.7929 -2.59856,1.1895 -3.36781,1.4161 -1.5348,0.2265 -1.67199,0.2832 -1.31534,0 -1.4165,0.1134 -2.18596,0.4531 -2.08752,0.5098 -0.46938,-0.2832 -0.43312,-0.2832 -1.03597,0 -1.98954,0.453 -0.62279,-0.283 -0.25094,-0.3966 -1.48286,0.2266 -2.53331,0.9063 -2.64971,0.9062 -1.60035,0.2267 -0.85971,-0.2833 0.0493,-0.7364 0.60128,-0.7363 -1.46586,0.1132 0.86104,-0.9063 1.06624,-0.9063 0.10737,-0.5664 -2.0004,0.623 -1.51006,0.1134 -2.30961,0.8497 -2.35074,0.7929 -1.92601,0.3966 -1.81454,0.3399 -1.04164,0 -1.0114,-0.057 1.50938,-1.7558 0.9239,-1.0197 0.40755,-0.7929 -0.12036,-0.3966 -4.98334,2.1524 -2.07644,0.7931 -2.13499,0.9629 -2.29866,0.963 -0.53078,-0.3966 -1.65874,0.3966 -1.20428,0 -1.61868,0.3965 0.104,-0.6231 -0.68709,-0.17 -1.13088,0.2833 -0.96832,-0.057 -0.80751,-0.2266 -1.57449,0.3399 -0.74688,-0.2266 -0.1369,-0.5663 1.39401,-1.3595 0.68636,-0.7931 -3.29132,1.926 -1.92788,0.7929 -0.99725,-0.1699 -1.56479,0.3399 -1.39068,0.2832 -0.73661,-0.2832 -1.41016,0.4532 -1.30131,0.5097 -1.86435,0.963 -1.65096,0.5665 -2.00111,0.7363 -2.1023,1.076 -1.67775,1.0763 -1.94143,1.1329 -1.60052,0.453 -1.42643,0.34 -1.27541,0.1133 -0.96895,0.2832 -2.2304,1.416 -1.47363,1.0196 -1.61344,0.8497 -1.59228,0.9063 -1.58315,1.0761 -1.83265,1.1329 -1.61924,0.5099 -0.69408,-0.2832 0.34603,-0.9063 1.77146,-1.1896 1.69458,-1.0762 1.41887,-1.1329 -1.13137,0.057 1.1329,-1.1329 1.97506,-1.0763 1.79077,-0.7363 1.60137,-1.3027 0.87725,-0.7365 2.50396,-3.0019 -1.08476,0 -0.81824,-0.2266 -0.66211,-0.3399 -0.71563,-0.34 -0.39124,-0.6229 -2.17021,1.1895 -1.44796,0.5665 -0.86969,-0.17 -0.11589,-0.7929 0.0357,-0.7931 -1.00544,-0.3398 0.0639,-0.7931 -0.11024,-0.9629 1.02772,-1.2461 -0.22174,-0.7931 -0.85631,-0.2832 -0.89379,-0.1699 -1.28338,0.2265 -1.55937,0.4532 -1.43345,0.5665 -1.62673,0.793 -1.05499,1.0196 -1.47903,0.6796 -1.01243,-0.057 -1.34426,0.7931 -1.78249,1.0195 -0.77523,-0.3398 -1.32297,0.623 -1.39145,0.6797 -1.29172,0.6231 -1.65235,0.5663 -1.30946,0.3966 -1.73592,0.9629 -1.26853,0.5097 -1.17066,1.2463 -1.45897,0.6797 -0.28696,-0.7365 -0.0937,-1.0195 -1.20078,0.2266 -0.49146,-0.6797 0.17379,-1.0197 -0.84276,-0.4529 -1.12293,0.9628 -1.41938,1.586 -1.1923,0.793 -1.16697,0.2832 -1.19113,0.5097 -1.25348,0.7931 -1.19213,0.3398 -1.14881,0.3966 -1.10347,0.057 -1.09711,0 -1.17908,0.1132 -1.24668,0.5098 -0.31107,-0.8497 -0.11643,-0.9629 -1.00464,-0.17 -0.99582,-0.3398 -1.03412,-0.057 -1.20042,0.1132 -1.15835,0.3399 -1.07944,1.0762 -0.11937,-1.0762 -1.25804,-0.1699 -1.16976,0.7931 -0.66279,1.1327 -1.18965,0.5665 -0.36692,-1.0195 -0.48722,-1.3596 -1.08095,0.3966 -0.63704,-0.7364 -0.72271,1.0197 -0.90622,0.623 -1.11769,0.4531 -1.02337,0.6797 -1.07823,0.3966 -1.0819,0.3965 -0.95959,0.5098 -1.01266,0.9629 -0.40532,-1.1895 -1.06189,-0.17 -1.15253,0.34 -1.16238,0.5097 -1.11359,-0.1699 -0.33771,-1.0763 -1.04436,-0.2832 -0.34285,1.1329 0.0959,1.0761 -1.10079,-0.1132 -0.59046,-0.9629 -1.13485,-0.17 -0.52823,0.7931 -0.18876,1.3595 -0.46803,1.1327 -0.68922,0.9063 -0.77873,0.6797 -0.73371,0.5665 -0.31394,0.9064 0.0379,1.1895 1.02496,0.6797 0.0663,1.1328 -0.48831,0.8496 -0.38389,0.9631 -0.7425,0.9063 -0.56723,0.6797 -0.62447,0.6797 -0.65291,0.5664 -0.85892,0.3965 -1.01469,0.1133 -0.36947,0.2265 -0.73611,0.3966 -0.67545,0.5097 -0.0268,1.1329 -0.33742,0.8497 -0.30177,0.8497 -0.64823,0.6795 -0.45725,0.6797 0.11299,0.6232 1.24297,2.1524 0.80779,1.0762 1.03602,0 0.84203,-0.4531 0.98309,-0.1132 0.54813,1.0761 0.73651,1.0195 0.85507,1.0197 -0.36926,0.7363 -0.76201,0.5098 -0.7278,0.3965 -0.46952,0.6231 -0.47139,0.6232 -1.06023,0.057 0.0143,0.8497 0.65038,1.2461 -1.32999,-0.6798 -1.32743,-0.3965 -0.98812,0.057 -0.0349,0.7931 -0.15231,0.7363 0.18928,0.9063 0.22374,0.8497 0.59256,1.0196 -1.26188,-1.0763 -1.75698,-1.3593 -1.73863,-0.9631 -1.61059,-0.8497 -1.91522,-0.7929 -1.59929,-0.4532 -1.88915,-0.9063 -1.76194,-0.9063 -1.84248,-0.7929 -1.60565,-0.4532 -2.04062,-1.0763 -1.52947,-1.0761 -1.90685,-0.963 -1.49235,-1.1329 -1.55276,-1.1895 -0.13006,-0.7364 1.38713,0.2832 -0.48113,-0.9063 -1.67114,-1.0195 -1.71403,-0.7931 -1.63938,-0.5095 -1.68974,-1.1329 1.11906,0 0.76931,-0.2266 1.31675,0.1132 0.93435,-0.1132 -0.87203,-1.1895 0.20776,-0.6231 0.16744,-0.6231 0.44008,-0.4532 -0.0883,-1.0761 -0.58879,-0.963 -0.74821,-1.0196 0.61068,-0.3965 -0.53725,-0.9629 -0.77917,-1.1895 -1.44143,-1.5294 -1.41568,-1.1329 -1.2194,-1.1329 -1.35464,-1.0761 -2.83381,-2.6624 -1.37219,-1.0762 -1.43563,-0.9629 -1.44907,-1.1329 -1.32,-1.0763 -1.58381,-1.1327 -1.72819,-0.9065 -1.57182,-0.6795 -1.51734,-0.9064 -1.64098,-1.1894 -0.96895,-1.0761 -0.61167,-1.2463 -0.27638,-0.9062 -0.3603,-0.963 0.85589,-0.2265 0.11755,-0.6798 -1.50966,-0.9629 -1.14162,-1.0762 -0.9584,-1.1329 -0.23712,-0.8496 0.17983,-0.7365 0.20311,-0.6797 0.7646,-0.2832 1.35682,0.4532 -0.0353,-0.623 z m 46.83662,40.165 -1.39923,-0.6232 -0.39482,0.6232 -0.30498,-2e-4 0,0 0.61539,1.1897 0.51946,1.0194 0.6759,1.0761 0.75022,1.2463 0.40853,0.9629 -0.34119,0.7929 1.02231,1.1896 1.49431,0.963 1.2234,0.1699 0.47264,-0.5665 0.32177,-0.6797 0.19918,-0.7363 0.0752,-0.9063 -1.11675,-1.4727 -0.99123,-1.2462 -1.55617,-1.7559 -1.67389,-1.246 z m -2.75058,5.7615 -1.75755,-1.1896 0.79551,1.0196 0.89168,1.1895 -1.35128,-0.2831 -1.22669,-0.1132 1.2294,0.8495 0.12816,0.1132 1.66223,0.9629 0.83612,-0.1698 1.37305,0.3965 -1.21072,-1.3028 -1.36991,-1.4727 z m -34.78092,-26.2601 -1.73371,-1.3028 -1.73535,-1.2463 -1.90779,-1.3027 -1.46286,-1.0763 -1.77395,-1.0761 -0.43362,0.453 1.00465,1.3595 2.75007,2.3225 1.21358,1.0761 1.4701,1.4728 -1.21401,-0.1133 -0.22511,0.3399 1e-5,0 0.38816,1.1329 1.53225,1.1895 1.72732,0.8497 0.49573,-0.3966 0.56318,-0.3965 0.92827,1.1329 1.20864,0.057 0.31094,-0.5664 0.57911,-0.3965 -0.98119,-1.0763 -1.12292,-1.1329 -1.5815,-1.3027 z m -24.16914,2.8257 -1.67662,-0.2265 -1.81476,-0.3966 0.2967,0.5098 0,0 2.4863,1.1895 1.84454,0.5665 0.89356,-0.1699 1.26103,0.1133 0.87384,-0.1133 1.04573,0.2265 -3.15264,-1.6426 -0.43002,0.3399 -1.62766,-0.3966 z m 4.84212,21.8644 -3.70771,-1.3029 -3.21734,-1.0196 -3.06536,-0.9061 -2.34718,-0.4534 2.65442,1.0763 1e-5,0 2.58258,0.7929 0.49652,0.17 3.16451,1.0196 3.52462,1.0196 -0.0851,-0.3964 z m -15.61697,-17.3328 -2.02471,-0.5099 1.79738,0.9631 0,0 2.89106,1.0195 1.56423,0.2265 -0.72832,-0.7363 -1.5704,-1.0197 0.0416,0.5098 -1.9708,-0.453 z m -3.68882,-0.057 -2.25949,-0.6797 0.72231,0.6231 10e-6,0 2.79998,0.7931 1.63806,0.2832 0.70835,0.1132 -3.60922,-1.1329 z m 506.2747,-172.6256 0.71723,-1.05 0.71923,-1.6363 -0.22425,-1.4705 0.51599,-1.2142 -0.5259,-0.3495 0.7023,-1.8135 -0.13405,-1.414 -1.56135,1.0827 -0.46838,0.8247 -1.3294,1.5882 -1.48069,1.5325 -0.0807,0.9653 -0.8634,0.5872 -1.60863,2.1779 -0.66348,1.6544 -0.71941,0.841 -0.49498,1.3979 -2.35983,2.2998 -1.42999,1.5851 -1.4646,1.2811 -1.66367,1.5524 -2.55003,0.9878 -1.91057,-0.9805 0.22231,-0.893 -0.92485,-0.7402 -0.78219,0 -0.8311,-1.7128 -0.77177,-0.9953 -1.54475,-0.9264 -1.21891,-1.5972 0.29487,-0.8161 1.83424,-1.4206 1.65166,-1.4445 0.31594,-1.1556 1.01932,-0.096 1.6992,-1.1679 1.55897,-1.5473 -0.58209,-1.4301 -0.93581,0.5554 -0.93791,-0.2517 -2.06197,0.8277 -1.31335,-0.8887 -0.95015,0.2925 -2.02513,-0.7396 -0.95086,-1.1855 -1.55399,-0.7165 -1.69809,0.4199 1.63996,0.9517 -0.65119,1.4772 -2.63951,0.5446 -1.27811,-0.3434 -2.20904,1.0197 -2.05793,1.6509 0.063,0.7223 -1.66737,0.7554 -2.61427,2.3183 -0.3178,1.5873 -1.61871,-0.2712 -1.73718,-0.02 -0.58988,-1.712 -1.35546,-1.3267 -1.56321,0.3898 -1.45457,0.4139 -0.44248,0.7266 -1.04781,-0.3373 -0.4837,0.8077 -1.67816,0.4923 -1.313,1.141 -2.3409,1.4221 -1.64876,2.1995 -0.84599,-0.6262 -1.7228,1.4025 0.13143,1.366 -1.54275,0.5767 0.38927,-2.4957 -3.45883,2.4564 -1.08225,1.5715 -0.88417,1.1535 -2.59687,1.4676 -1.76318,1.5449 -2.38562,1.2833 -3.46095,0.8464 -1.45323,-0.068 -0.90657,0.2638 -0.86462,0.6333 -1.87448,0.3206 -2.91093,1.0773 -0.48655,-0.3564 -1.39241,0.2257 -2.83191,1.0609 -2.21593,1.2329 -2.89897,0.9665 -2.62994,1.9887 1.45103,-2.2016 -2.66392,2.0801 -1.01377,1.6897 -1.49841,1.446 -1.10921,0.7115 -1.63797,1.672 -0.10189,0.8649 -0.50727,0.9105 -0.64895,2.276 -1.25247,1.4805 0.21243,-1.1193 -0.56809,-0.8382 -1.46227,2.6818 -0.0393,-1.2502 -0.72365,1.2332 -0.586,2.2883 -1.77904,2.2644 0.0366,1.1514 -0.75048,0.8494 -0.83099,1.8814 -1.74795,1.6466 -1.26413,1.6502 -1.7327,2.9221 -1.55429,1.7131 -2.48255,2.0099 -1.05892,1.0383 -1.13998,0.6582 -1.63388,0.3936 -1.90794,1.6567 0.66138,0.5489 0.39088,1.8462 1.58573,0 1.59249,0.1135 2.22513,-0.919 2.15535,-0.8171 0.54078,0.1307 3.23201,-1.5416 1.80175,-0.1326 2.0966,-0.3155 1.49545,0.5271 1.81268,-0.2571 2.12031,-0.07 2.2964,-1.1745 2.26508,-1.5158 2.89257,-0.667 4.33009,-1.4823 2.10667,0.1917 3.92937,-0.9649 4.40811,-1.0351 4.73687,-0.2735 0.66125,1.4073 1.62135,0.083 0.95058,1.7517 -1.30214,0.6673 -0.10626,1.0832 -1.22376,2.0962 -2.10996,1.5342 0.25425,1.1894 4.00708,-2.2992 2.81478,-0.9886 5.21266,-2.465 -2.6323,2.1404 -2.8239,1.4159 -2.62289,1.6681 -3.4323,1.5991 2.83538,-0.531 3.90481,-2.0007 -2.37975,2.1465 -2.73364,1.4021 1.76799,0.3482 -0.5233,1.1725 -1.57169,1.4604 -2.7989,2.195 -1.19088,1.7819 0.92782,0.8359 0.97861,0.2067 0.5763,0.4574 0.72694,0.784 5.25482,-2.0933 2.09535,-0.5467 -2.70802,1.5068 0.58185,0.5097 -0.17379,1.2776 3.35119,-1.2407 2.82761,-1.1196 3.98595,-1.1857 2.72424,-0.1051 2.91433,-1.0043 1.33107,-0.9141 3.41931,-1.9912 3.92821,-2.1632 3.1029,-1.4408 4.44777,-2.4949 2.91026,-1.429 4.14346,-2.2394 3.84224,-1.4203 4.80374,-2.6292 3.36209,-2.0721 2.20609,-1.6575 4.11366,-2.5786 2.18683,-1.3388 3.42239,-2.5583 1.83436,-2.4564 2.34521,-1.7893 1.88895,-1.6481 1.95519,-2.3232 0.56831,-2.3403 -0.0222,-1.1032 0.0113,-1.7749 2.68343,-3.0637 -1.09925,0.4444 0.16453,-1.2527 -1.69642,0.6352 1.98681,-3.1278 0.14115,-1.8125 0.99174,-0.7003 -0.6954,-1.2583 -0.72676,-1.3737 -1.68286,-1.5102 0.71043,-1.9605 1.4479,-1.4986 1.12725,-2.4707 -0.43681,-0.3527 0.62289,-1.4432 1.12541,-2.4787 1.13896,-1.2812 -0.61108,-1.1289 -0.15963,-1.2236 -2.47743,1.0902 0.38181,-2.2682 z m -84.87535,78.1323 -1.00955,-0.2561 -2.24997,1.3256 -2.98339,2.518 -2.97015,1.9083 -3.0015,2.4744 1.12974,0.09 0.15883,0.1554 5.00981,-2.0146 -0.656,0.7916 4.30017,-2.3256 2.46482,-0.996 5.72882,-3.4313 -0.98368,-0.1942 -2.64132,0.5558 -1.85316,0.3965 -0.44347,-0.9977 z m 14.02374,-133.66651 -2.16257,1.58329 -0.96325,1.08151 -1.14883,1.82797 -1.7936,2.28687 -3.39617,0.62583 -1.18071,0.54517 -0.39263,2.44745 -2.20061,0.54016 -2.17834,-0.99061 -1.60954,1.92096 -0.25851,2.67839 0.40057,2.52902 1.31448,2.4727 1.40287,0.80352 0.1473,3.87688 2.3462,0.33356 1.90721,-0.15894 0.89871,1.39898 3.54855,-1.03957 1.33422,0.92617 2.03755,0.1634 0.90816,1.767 3.45384,-1.3006 0.28531,1.0282 1.62165,-4.4205 0.27872,-2.87872 2.85983,-1.97705 -0.0923,-2.61955 0.93274,-1.97078 3.41441,-0.34103 -3.37151,-2.67511 0.4006,-1.32986 -2.39317,-2.73673 1.29631,-2.61066 1.9697,-0.98471 -0.75491,-1.41158 1.90633,-0.1434 -0.009,-1.13231 -2.57471,-0.86969 -2.06309,-0.80591 -0.41018,-1.25652 -1.82332,-1.46236 -1.15848,0.009 -0.92583,2.25931 -1.8041,2.01037 z M 476.73309,2.05733 l -0.52681,-0.18345 -0.51302,-0.18344 -1.62516,0.48911 0.22711,-0.31225 -1.21533,0.11996 -1.06913,0.3196 -1.12397,0.46251 -2.5203,1.56097 0.76279,-0.80939 -0.23803,-0.15111 -2.16461,1.07726 -1.4825,0.46858 -0.60931,0.094 -1.46455,0.55129 -1.46707,0.98627 -0.82296,0.84727 -1.43472,1.16873 -0.66824,0.98116 1.93326,-0.18422 0.5946,0.3341 -2.25879,1.05343 0.061,-0.31323 -1.15749,-0.12456 -2.00666,1.48931 -0.92248,1.12971 -1.62621,1.0075 -2.00619,0.68865 -2.13917,1.11829 0.12691,0.55446 -1.88032,1.85372 0.19699,-1.24731 -0.6733,0.20299 -2.8218,2.08613 -2.18271,0.65387 -2.02618,1.38678 1.05334,0.15144 0.49926,0.34975 2.64341,-0.44812 0.67969,0.79758 4.13718,-1.73394 0.92009,-0.70559 -1.26071,0.11182 0.79666,-0.65422 2.04701,-0.86406 1.79895,-1.13118 2.00273,-0.81821 1.8397,-0.99108 1.38496,-1.42586 1.04888,-0.51625 -0.26867,-0.36258 2.01379,-0.30951 1.07912,-0.58967 1.65896,-0.47942 3.69667,-2.36121 1.72467,-0.81855 3.05912,-1.75341 -0.94698,0.0149 1.13211,-0.64711 1.65708,-0.5853 2.33269,-1.25428 0.84274,-0.77167 0.1863,-0.78453 -0.3453,-0.37004 -0.66913,-0.22637 z m -21.38323,9.96226 2.46951,-1.90786 0.0453,-0.54727 0.16922,-0.61898 1.86362,-1.54346 -1.26238,0.14722 -0.88412,0.66252 -0.79703,0.20229 -1.77468,0.88155 -2.46583,1.28509 -1.84772,1.30876 -0.99754,0.96127 1.01013,-0.022 -1.66136,0.77 -1.69584,1.04857 -1.26629,1.17842 0.63618,0.37 1.36059,-0.20784 4.32797,-2.174 2.02034,-0.86027 0.74989,-0.93398 z m -12.17542,4.63395 1.86778,-1.04462 0.96919,-1.00451 -0.009,-0.19128 -0.52989,-0.11547 -1.97334,1.19624 -1.57102,1.08472 -0.62906,0.6714 1.8758,-0.59648 z m -1.20695,-0.77417 1.92431,-1.37512 0.35254,-1.05478 -0.35428,-0.39384 -1.96268,1.10788 -0.57069,0.69641 -2.09304,0.85879 1.10747,0.10726 -0.66079,0.93729 0.43185,0.32214 1.82531,-1.20603 z m -0.087,2.32631 0.60251,-0.33051 0.42978,-0.53672 -1.15859,-0.0423 -1.16262,0.808 0.87122,0.18433 0.4177,-0.0828 z m -2.49448,1.22022 -1.0281,-0.18359 -2.20031,1.18608 -0.69078,0.89524 0.83959,0.35306 -1.29979,1.26204 -2.16237,1.43331 -2.22205,1.58717 0.6021,0.93139 0.71781,0.35627 1.67078,-0.0512 2.8516,-0.44516 0.50051,0.35142 1.99662,-0.62105 1.51032,-0.76842 1.44698,-1.19594 0.71094,-1.09018 -0.87447,-0.2033 -1.79831,0.24603 -2.05003,0.62665 -0.69786,-0.24215 -0.78021,-0.12712 0.58726,-0.68685 0.19637,-0.65399 1.82876,-1.0857 0.89424,-0.95081 -1.31194,0.006 0.76234,-0.92959 z m -1.53315,-4.34788 0.36858,-0.58527 -0.0496,-0.13168 -2.24047,0.86558 -0.80296,0.41237 0.9593,0.003 1.76518,-0.56384 z m -1.49379,15.89676 0.62393,-1.58771 -1.44271,-0.31158 -0.64919,0.19233 -1.4428,1.04066 -1.12959,1.53288 0.015,0.17546 1.4467,-0.38866 0.83815,0.061 0.79865,0.0843 0.94186,-0.79869 z m -1.26512,-10.45655 -0.68703,0.37986 -0.65962,-0.16693 -2.7031,0.98564 -0.57921,-0.0903 -3.8336,2.23393 1.56056,-0.22244 -2.88765,1.6864 0.0234,0.46228 1.73226,-0.29647 3.88675,-2.14906 2.43282,-1.48327 1.71437,-1.33966 z m -2.46385,-2.82425 1.82651,-0.86522 0.0126,-0.45277 -1.43364,0.29458 -2.27031,0.92168 -0.87213,0.93363 2.73697,-0.8319 z m -4.63085,13.1225 3.29977,-1.86846 -3.22021,0.76872 -2.60787,1.18063 -4.53062,2.5854 -4.08068,2.92689 1.30325,0.0126 -2.92091,1.31858 -0.69023,1.01549 0.94823,0.43575 0.88296,0.84803 2.74326,0.64592 2.29868,-0.37181 1.63709,-0.85296 -0.48801,0.98397 0.67014,0.16462 -1.18093,1.79735 -1.57527,0.73144 0.9119,0.98315 -0.0487,1.40253 -0.75133,0.9901 -1.19685,1.2787 -4.78389,2.81553 -2.11413,1.4419 -0.81778,1.03199 -2.91749,0.36942 -2.33086,0.0514 -3.43878,2.12837 -0.16409,0.99257 4.17668,-0.46122 0.96858,-0.83825 0.1801,1.40231 0.20303,1.48574 -1.368,0.81562 0.0114,1.40814 1.03356,1.67822 2.46204,1.15411 0.81138,-1.00936 0.42177,-1.74566 0.80942,-2.49093 0.81482,2.31421 0.86788,0.78313 2.54707,-2.07766 2.08647,-2.86124 0.28051,-0.76797 -0.2704,-1.32986 0.53761,-1.68046 1.94599,-1.65618 1.89184,-0.36225 -1.06599,2.78087 0.22794,1.23538 5.4615,-3.35778 2.37232,-2.02889 -1.5914,-0.19181 1.14809,-2.65673 -1.04795,-0.63487 -0.43542,-1.88773 3.39534,-1.34674 2.03495,-2.70528 0.46097,-1.16517 -0.98712,-1.1418 1.21323,-1.84111 -2.49943,0.65354 1.43015,-1.26122 0.48319,-1.37752 -0.0615,-1.46251 -2.31777,1.14889 -2.85967,0.83907 2.6698,-1.89236 2.6399,-2.99015 -3.73609,1.18713 -4.101,2.33034 1.91758,-1.80183 z m 2.37161,-5.26844 1.17698,-0.91488 0.98413,-1.01385 -2.29734,0.77872 -2.51421,1.30141 -0.30256,0.75377 0.76839,0.21541 2.18461,-1.12058 z m -1.73991,-7.70453 -1.69964,0.42484 -0.87822,-0.0402 -5.14427,1.87234 -5.62285,2.16214 0,0 -0.3481,0.6259 2.02631,-0.44284 3.77092,-1.23709 0.9121,-0.14124 2.50031,-1.00287 4.48344,-2.22099 z m -2.7367,4.17302 2.30508,-1.37782 -0.0643,-0.33489 -2.58099,1.05323 -4.13639,2.76527 -0.85552,-0.21964 1.98013,-1.71172 -0.0392,-0.9757 -2.23224,0.80893 -6.56244,2.82372 0.017,0.51677 4.01967,-0.3442 -3.99087,1.2783 -1.70619,0.94242 1.30633,-0.0656 4.27028,-1.25179 3.36262,-0.44883 2.90079,-1.37089 2.40857,-1.41612 -0.50714,-0.12551 -1.50494,0.48361 1.6098,-1.02955 z m -5.18432,9.91418 1.88249,-0.56153 5.1623,-2.57412 -0.44494,-0.70329 -1.49014,-0.10083 -2.04601,0.78768 -2.39529,1.22851 -2.31857,1.43712 -3.50348,2.53917 0.84698,0.10778 4.30666,-2.16049 z m -0.93169,-3.09853 -3.3301,1.39878 -2.25844,1.89086 -1.14152,-0.35879 -1.59677,0.92502 -1.54705,2.23083 -1.18844,1.1039 0.49738,0.24149 3.31296,-1.11913 4.33531,-2.60163 0.72295,-1.2445 3.03894,-1.38603 1.15308,-0.8383 -2.05008,0.36599 0.0518,-0.60849 z m -4.44272,19.35328 1.76366,-0.85388 0.60723,-0.39825 1.49058,-1.2382 0.13889,-0.80029 -1.47903,0.4008 -2.48007,1.62014 -1.47905,1.41459 1.43779,-0.14491 z m -1.03444,-18.12794 0.49348,-0.63596 -1.29746,0.11563 -1.00185,0.4047 -2.27731,2.02348 4.08314,-1.90785 z m -9.62102,0.86301 0.21694,-0.55831 -5.68352,1.75943 -2.86945,1.15075 -5.02837,2.16588 0.11482,0.76138 1.50758,-0.0404 -4.40968,1.15622 -1.57115,1.06563 1.25407,0.0581 2.49261,-0.22996 0.60801,0.67533 -2.20766,0.50301 -1.1353,-0.12988 -2.45416,0.49358 -1.24843,0.30801 -3.12583,2.28882 1.5204,-0.32315 -0.067,0.78789 -1.9537,1.36411 2.37698,-0.27322 3.43758,-0.43343 3.67535,-0.98058 1.50142,-0.1757 0.44116,0.78049 1.125,0.45435 2.11605,-1.0603 1.20668,-1.11118 2.04625,-0.23256 2.21254,-1.27147 0.5288,-1.36857 0.84331,-1.4315 3.24113,-2.03919 4.36236,-2.81608 1.1076,-1.16616 -0.006,-0.46243 -1.50024,0.42334 -4.711,2.96022 -2.59764,1.19845 4.39821,-2.83999 0.94799,-0.94751 -3.68929,1.47636 1.52312,-1.4598 -3.55804,0.87481 3.0103,-1.35481 z m -15.34023,5.02359 2.51662,-1.26149 5.12654,-2.02349 6.08643,-2.03193 2.45747,-0.72923 1.49318,-1.21664 0.87322,-0.83743 -1.68798,-0.16066 0.10447,-0.60005 -3.56726,0.45146 -2.91769,1.77128 -4.67069,1.90045 -4.99852,2.11107 -2.93771,1.22442 -1.0518,1.52828 -2.08771,1.26716 5.26143,-1.3932 z m 12.56106,6.57896 1.10837,-1.10523 0.56361,-0.54923 0.2256,-0.52032 0.26429,-0.81954 -2.71851,1.25314 -2.34465,0.89612 -0.69673,1.29887 1.34826,-0.31604 0.0195,0.87585 2.2303,-1.01362 z m -4.20568,53.24855 2.35122,-1.82132 0.94204,-0.78395 -0.73653,-0.12668 -2.32854,0.9963 -2.40103,1.64528 -5.4809,4.60398 -2.94364,1.74134 0.2304,0.78529 -1.98426,1.01773 -0.35795,0.85595 3.71753,0.0883 2.22057,-0.17269 1.36942,0.70239 -2.3554,1.35817 1.10727,0.10039 4.0371,-2.50706 0.28566,0.36733 -2.06419,2.36499 0.92981,0.54569 0.97046,-0.10755 2.54768,-2.54396 0.62521,-1.7969 0.81731,-1.53392 -1.68373,0.49438 2.08114,-2.11702 -1.23993,-0.88904 -1.37821,0.7044 -1.08545,-0.79239 1.40254,-1.00795 -0.7843,-0.61948 -1.95044,0.9765 3.13914,-2.52849 z m 1.33294,-43.27448 -0.5391,-0.23557 -4.02417,2.64747 -3.25043,2.27522 -3.05274,1.42972 2.118,-0.27755 -1.81467,1.69069 3.8253,-1.49545 3.27861,-1.53832 -0.97415,1.30126 1.11688,0.69514 2.28736,-0.9098 0.30023,-0.95828 -1.21888,0.22512 1.65139,-1.37461 -0.25234,-0.90061 -0.0348,-0.99129 0.30711,-0.75781 -1.21726,0.4459 1.49367,-1.27123 z m -5.53893,10.11341 0.38488,-0.59269 -0.4707,-0.0633 -1.593,0.86731 -0.31067,0.19967 -0.70722,0.86256 0.30466,0.24576 2.39205,-1.51933 z m -1.53148,-1.59603 0.74019,-0.56015 -1.77283,-0.0275 -2.71499,1.33344 -0.71954,0.78191 0.86686,0.0667 3.60031,-1.59445 z m -8.42379,39.33003 0.3779,-0.53041 -0.92063,-1.2079 -1.83774,-0.7249 -0.85284,0.24322 0.57767,1.36542 1.69175,0.90629 0.96389,-0.0517 z m -9.59838,7.38587 0.44756,-1.40488 -1.47588,0.8919 -0.29175,0.96786 1.5575,1.22701 0.89217,-0.1885 1.91288,-1.18446 -1.90967,0.0788 -1.13281,-0.38776 z m -98.79765,-22.02699 -1.83546,0.92183 -2.0607,1.27078 -0.79951,0.90032 -1.80593,1.33061 -1.34868,1.32202 0.69669,0.006 2.71231,-2.32466 6.59188,-3.28205 -2.06022,0.23125 -0.0904,-0.3757 z m -11.16612,16.36123 1.80842,-1.59703 0.0807,-1.19325 1.36301,-1.37229 1.04745,-0.99734 -1.21476,-0.30608 -0.37911,-0.43844 -0.83594,-0.63038 -1.31774,0.66922 -1.99603,1.57306 1.03052,0.52022 -1.05476,0.82383 -0.008,1.01176 -1.13168,1.02617 0.99376,1.31283 1.61458,-0.40228 z m 538.68596,86.23407 -0.41323,-1.66933 0.3774,-1.27206 -1.33382,-1.1031 -1.60631,-0.0686 -2.43919,0.81001 -0.50739,1.30992 1.60944,2.4866 2.78686,0.89606 1.52624,-1.38954 z m -514.54364,-11.814 -1.96357,-0.9848 -2.07079,-0.0326 -2.17978,-0.20622 -0.82347,0.31759 -2.17071,0.27665 -1.67948,0.56347 -1.56923,0.64278 -1.1639,1.04298 -1.9099,0.893 0.99716,0.27403 1.50085,-0.31609 0.77193,-0.7053 1.13147,-0.0403 2.75155,-1.5021 2.53467,0.14796 -1.39707,0.72226 0.62755,0.56384 3.25165,0.44799 0.48693,0.60634 2.10578,0.77513 1.57621,-0.11256 -0.18252,1.64626 0.52665,0.83444 1.65029,0.19322 0.74774,0.75086 -2.56948,1.61264 4.02062,-0.28158 1.76924,0.2287 1.89373,-0.14355 1.96976,-0.36696 0.62436,-0.67714 -1.50788,-1.1831 -1.93781,-0.11905 0.57955,-0.81383 -1.32684,-0.58953 -0.90631,0.0397 -1.0364,-1.30379 -1.36357,-1.79033 -0.59344,-0.67923 -2.6669,0.32654 -0.49864,-1.05828 z m 233.10529,-94.94394 -0.78003,-1.44944 -2.21341,0.95813 0.41775,1.1999 2.00175,1.6328 0.57394,-2.34139 z M 303.409,190.1297 l -0.18021,0.83085 0.53481,0.45965 1.85846,-1.97945 1.06874,-0.41498 0.14622,0.70127 1.12248,-0.17814 0.6975,-0.52724 0.84934,0.13758 1.30545,-0.12122 1.06758,0.62875 1.46286,-1.17668 -0.93603,-1.06053 -1.17516,-0.10441 0.42972,-0.86148 -1.51577,0.0577 -0.0781,-1.02542 -0.74738,0.0726 -1.30208,-0.74407 -2.11632,-0.0134 -0.54885,0.49273 -2.16544,-0.45397 -1.60314,-0.12772 -0.95822,0.79822 1.52594,0.45083 -0.48402,1.10415 0.73597,1.25226 -1.2459,0.64353 -1.97497,-0.23199 -2.35653,-0.40139 -0.62562,0.93184 1.10693,0.90062 1.50155,-0.54031 1.59243,0.20898 1.37538,-0.20047 1.63237,0.49132 z m 693.44505,100.73015 2.40113,-0.7115 1.24482,-1.4109 -2.4179,0.9016 -1.01907,0.1588 -1.91185,0.5931 -0.61814,1.0779 2.32101,-0.609 z m -4.16388,1.5568 -1.12807,0.4767 -0.92124,-0.3575 -1.99101,0.9929 -0.94677,1.271 1.16671,0.3575 2.08883,-0.3972 1.90037,-1.5093 -0.16882,-0.8341 z M 1.835846,289.99405 0.958161,288.60395 0.5,288.73765 l 1.244875,1.4109 0.090971,-0.1545 z M 495.97875,72.79662 l -1.83051,0.24327 -1.18722,-0.22885 -1.37029,2.34483 -0.82904,2.98851 0.67846,1.47424 -0.13062,2.78625 0.98508,-1.36684 0.48042,0.79643 -0.68909,1.29177 0.34047,0.78231 1.9973,0.50864 0.0235,0.0407 1.04708,1.78048 -0.32296,1.67822 -0.003,-3.1e-4 -2.54435,-0.26148 -0.45292,1.8934 0.86516,1.55707 -1.91218,0.89599 0.42499,1.1503 2.7819,0.48165 0.0141,0.002 -1.65009,0.62441 -2.89268,3.03617 0.94386,0.5772 1.37362,-1.10377 1.69067,0.32804 1.27658,-1.35436 0.83465,0.56907 3.13881,-0.79486 2.44577,0.0267 1.61487,-1.51383 -0.74334,-1.49545 0.89236,-0.84766 0.17283,-1.84866 -2.12399,-0.55062 -0.49955,-1.14186 -1.04264,-3.29355 -1.14267,-0.46427 -1.3925,-3.41078 -0.11974,-0.3038 -1.66698,-0.18441 1.53783,-2.59071 0.47965,-2.35529 -1.69254,-0.0151 -1.59794,0.396 1.7969,-3.12766 z m -4.97039,11.79518 -1.62515,-1.78719 -1.3969,0.11921 -1.40962,1.35025 -2.58541,2.26386 0.51252,2.93907 -1.83104,3.01839 2.47792,0.43694 3.3376,-1.70787 1.55363,-2.58153 -0.10626,-2.06511 1.07271,-1.98602 z m 65.12349,54.48842 -0.14151,1.22858 3.01922,0.56369 0.0944,0.47698 3.34886,-0.24574 0.0707,-0.85274 -1.19579,0.34687 -0.0735,-0.50304 -1.80643,-0.20518 -1.79308,0.16469 -1.52285,-0.97411 z M 491.65847,0.86269 489.27329,0.5 l -1.31687,0.27773 -1.15175,1.06629 -1.10666,-0.13002 -2.54315,1.72632 -1.05507,1.23771 -0.26612,1.55835 -0.11383,-0.94019 -0.37667,-0.22797 -0.0103,-1.08118 -2.46845,1.59133 0.39695,-0.89985 -1.23103,0.0257 -1.68112,0.45416 -1.77263,0.76086 -1.22304,1.29884 -0.97486,0.30971 -3.86386,2.01811 -1.76369,1.15226 0.17392,1.03796 -1.38492,1.05158 -3.60033,1.38892 -3.84578,1.39092 -1.48634,1.12309 -0.0806,1.1801 1.79347,0.75158 -1.45045,0.15271 -2.77059,0.90927 -1.02156,1.81773 -0.27862,0.92022 1.93673,-0.21232 1.97664,-0.11661 1.24793,0.2105 0.18649,1.69137 -1.20564,1.21022 -0.13797,1.1226 -1.97139,3.06555 -1.20205,1.99793 -0.46664,1.07638 -3.46396,2.69358 0.10696,0.71661 1.28118,-0.40658 -0.0505,0.9896 0.0454,1.83579 -1.28612,-0.76885 -0.91757,0.0417 -1.75716,1.53783 -1.69551,1.96362 0.41156,0.94354 1.27232,-0.41203 0.91862,-0.43003 2.00525,-1.02381 -2.09394,2.25847 -1.41999,1.20897 -2.50368,1.07531 -3.99953,3.37807 -0.12457,1.01894 -2.2386,2.13024 -0.59514,2.66773 -1.97122,2.59665 -0.88887,1.88332 -0.56444,3.59472 -1.24543,2.82291 0.17278,1.5852 2.80387,0.0149 0.47332,2.36031 2.15,-0.17622 2.5774,-2.82224 2.18343,-2.39029 0.94619,-2.25879 3.64583,-2.31293 1.86217,-1.89791 1.31543,-2.02623 2.18026,-1.78793 2.13743,-0.67541 2.00275,-0.70981 0.8834,-0.11915 3.63858,-2.02592 3.20283,-3.05179 1.70537,-1.11381 1.19421,-0.0123 3.60102,-0.99853 3.81197,-2.27885 3.66456,-2.51681 -1.2929,-0.15769 -2.52937,-0.12271 1.76592,-1.51992 0.50147,-1.96186 0.47148,1.66056 0.29894,1.11433 1.92186,-0.55701 0.48756,-2.32784 -0.51705,-1.76674 -0.90292,-0.72279 0.76418,-0.77378 1.26702,1.19614 0.46572,-1.2869 -0.3112,-1.95802 1.1604,-0.008 1.32589,-0.4475 0.61866,-1.01976 -0.50834,-1.17561 1.81339,-0.20752 -0.14822,-2.4867 0.88029,-0.26747 0.65077,-2.45622 -0.71843,-1.5317 1.4107,-0.91458 1.05761,-0.11942 -0.14935,-1.88745 1.06331,-3.21644 1.06129,-1.87525 1.2638,-2.10767 -1.09984,-0.13863 1.72115,-0.49986 0.46001,-0.66498 2.36158,-2.05673 0.0265,-1.23522 -1.09576,-0.55964 -2.37395,1.1211 -1.51448,1.07508 1.12873,-1.68175 0.0648,-1.03683 -1.15194,0.88513 -0.76403,-0.99674 -1.57373,0.31867 0.0825,-0.51588 2.24106,-0.28227 1.53212,-0.12719 1.11281,-1.11304 -1.21276,-2.29223 z m 396.53058,244.75946 -0.41376,-1.07434 -4.61286,-1.18713 -1.50183,0.94214 -3.91905,0.7003 1.15581,1.43032 2.54901,0.53374 1.01197,1.72101 4.22783,0.006 0.16878,0.76692 -2.05405,-0.0562 -3.221,1.04104 2.02978,1.42001 -0.17004,1.25599 0.48622,1.06 1.14854,-0.2549 1.06731,-1.4047 3.89305,2.6712 2.33154,0.2417 5.07572,2.4479 0.78788,2.4267 -0.14847,3.1432 -2.05596,0.8027 -2.0035,2.3524 3.65458,-0.089 0.9909,-0.8235 2.70392,0.5814 1.66295,2.3724 2.9049,0.1206 1.40535,0.4834 2.6363,-0.9937 0.43448,-2.1321 2.08406,-0.9544 2.70699,-0.8244 3.29698,1.264 0.52949,2.5298 0.96685,1.5896 1.40564,1.8442 2.67409,0.435 2.29139,0.3248 0.34136,0.7493 1.97891,-0.2017 0.71396,-0.8355 -2.46636,-1.2163 1.09667,-0.5452 -1.98671,-0.4912 0.65345,-1.2804 -1.67426,0.096 -0.67243,-3.0657 -1.90115,-1.8966 -0.0266,-1.9262 2.735,-0.3112 -0.26099,-1.5331 -4.33121,-1.7866 -0.0471,-1.7029 -1.30602,-1.4534 -1.71815,-1.4809 -5.07498,-1.65422 -4.7554,-1.99169 -3.04109,-0.55241 -2.04455,-1.03416 -2.39083,-1.00773 -2.56884,0.002 -3.4606,1.74462 -2.77266,3.06619 -2.76933,-1.73028 -0.43186,-4.67517 z m -0.52988,14.6342 0.34426,-1.3783 -0.46057,-0.8456 -0.8263,0.9771 -0.76329,1.0389 -0.29885,2.176 2.00475,-1.9681 z m -10.55614,-9.02077 -3.07824,-0.84295 -3.57929,0.11995 -0.87722,1.58927 1.98265,0.1019 1.65455,-0.1909 2.37785,0.2418 2.26286,1.1915 -0.74316,-2.21057 z m -4.67735,-12.2165 -0.33259,-1.18063 -1.72172,-0.25358 -0.32436,-1.5785 -0.87717,1.05194 -0.45433,2.30957 0.91191,3.69523 1.12483,1.83096 0.82063,-0.34686 -1.16005,-1.52607 0.43619,-1.75896 1.49435,0.28308 0.0823,-2.52618 z m -4.7573,13.27247 -0.5958,-0.95319 -2.93669,0.13862 0.40013,1.24327 1.91803,0.5308 1.21433,-0.9595 z m -5.24759,-14.1034 -0.54198,-0.64585 -2.75463,2.0991 -3.31968,0.12114 -3.65805,-0.40108 -2.2939,-0.85356 -2.38304,2.14705 -0.59049,1.19161 -1.54781,4.35743 -0.55738,2.29509 -1.36304,1.8931 0.67096,1.98017 1.21055,0.021 0.0425,2.7895 -1.30164,2.6608 1.06563,0.8485 1.9103,-0.4196 0.61205,-4.1356 0.18993,-3.37052 2.01535,-0.87866 -0.53726,2.81688 1.83563,1.695 -0.55473,1.116 0.57715,0.8001 3.02123,-1.1191 -1.82145,2.3668 0.92172,1.0165 1.71034,-0.8498 0.38149,-1.899 -2.08038,-3.3364 0.65134,-0.99277 -2.38234,-3.70465 2.6146,-1.1205 1.3322,-1.69368 1.24344,0.41991 0.27979,-1.33128 -5.4187,0.98367 -1.61754,1.30932 -2.49586,-2.57054 0.42239,-2.18798 2.52066,-0.41617 4.81464,-0.14431 2.78908,0.56526 2.16544,-0.55585 2.22145,-2.86743 z m -7.83298,33.4159 2.65643,-2.1588 2.68136,-0.8301 3.40766,-1.2654 1.3097,-0.7832 -0.96781,-0.3584 -1.00975,0.3611 -2.02649,0.098 -2.67226,0.6498 -0.56287,0.6819 -3.21621,1.1483 -1.86047,1.7633 -0.62662,0.9828 0.20757,0.3469 2.67976,-0.636 z m -2.35064,-5.9136 -2.88944,1.0591 -1.97224,0.22 -1.52489,-0.8665 -2.45446,0.6009 -0.32189,1.0567 3.68325,0.3563 4.55926,-0.8205 0.92041,-1.606 z m -8.34305,6.2015 0.45892,-0.7802 -0.68105,-0.8781 -1.19281,-0.8804 -2.85364,0.5684 3.05155,2.0254 1.21703,-0.055 z m -5.97771,-6.1974 -1.06893,1.0223 -1.57455,0.023 -1.49802,1.6644 1.52734,0.023 2.10206,-0.3881 3.48643,-0.5805 -0.33217,-1.229 -1.83793,0.2362 -0.80423,-0.771 z m -25.61354,-3.8099 -0.16844,-1.0282 -1.1452,-0.2203 -2.09216,-1.1297 -3.45591,-0.1707 -2.53684,2.7621 2.57923,0.2124 0.21077,1.243 4.9323,1.1902 1.28313,-0.3615 2.02976,0.2864 3.02425,1.1041 2.53401,0.5189 2.90699,0.2141 2.61102,-0.079 2.79922,1.1645 3.59103,-1.1014 -3.02586,-1.7178 -4.15767,-0.527 -0.57682,-1.8737 -5.0098,-1.39 -0.89995,1.1914 -5.43306,-0.2881 z m -7.51072,-2.6748 0.84575,-4.4714 1.15171,-3.59533 -1.24272,-1.82962 -2.10102,-0.25559 -0.90042,-1.61316 -0.39784,-2.01634 -1.03564,-0.0741 -1.62849,-1.00383 1.18103,-2.36022 -2.21522,-1.32053 -1.74645,-2.42049 -2.53496,-1.98011 -2.93958,-0.0453 -2.98564,-3.10734 -1.71437,-1.20259 -2.46183,-1.95995 -2.94802,-2.82696 -4.54318,-0.55846 -1.87119,-0.11652 0.47587,1.47148 3.41717,3.18532 2.3434,1.61899 1.72029,2.4733 2.72118,1.8202 1.16263,2.25654 0.89501,2.48525 2.52154,2.40936 2.03036,4.04673 1.27239,2.16662 1.95101,2.35405 1.02071,1.7521 3.35592,2.3618 2.00521,2.4166 3.19539,-0.061 z M 483.74678,50.18882 l -1.86276,-0.20495 -2.31581,1.54056 -1.2311,-0.81733 -2.28349,1.57395 -1.15935,-1.96093 -1.91494,0.42768 -1.51614,1.8828 2.26783,0.67236 -0.2466,0.84878 -2.36854,0.56033 2.18429,1.41359 -1.68643,1.2775 3.25459,0.91503 1.5654,0.42566 1.25835,-0.52716 4.16076,-1.98109 2.09956,-2.20441 -0.91238,-1.97168 0.70676,-1.87069 z m 51.99533,81.58907 -1.68357,0.25231 -2.27252,0.31482 -2.70011,-0.26426 -0.12055,1.48418 3.41125,1.46968 1.21932,0.3119 1.93752,1.08877 0.24866,-1.48649 -0.48846,-0.89561 0.44846,-2.2753 z m -15.21338,-8.6109 -0.99791,0.89614 -1.21519,-0.14461 0.656,1.6526 0.4164,3.48752 0.92276,0.7667 0.81968,-0.96508 1.03746,0.1824 -0.10462,-3.82333 -1.53458,-2.05234 z m -231.60769,67.47386 1.95586,-0.0539 -0.1294,-0.79157 -1.16695,-0.69424 -1.73489,-0.25918 -0.58243,-0.0974 -1.23939,0.20144 -0.61328,0.66072 1.12688,1.05328 1.34899,0.4639 1.03461,-0.4831 z m 536.42942,-55.71476 -4.52247,-2.98298 -2.40187,-2.91054 -3.6326,-2.34363 -7.65621,-4.00923 -1.44878,0.5306 1.99887,1.82603 5.48393,3.2506 3.99023,3.53487 0.38451,1.12297 0.85398,2.89097 -3.5285,-1.38058 4.81847,5.13922 -3.32442,-0.5911 -3.51006,0.86208 0.8877,1.9763 -0.45581,1.49441 1.05328,1.81707 -1.16755,0.89061 3.42453,1.98228 2.56877,0.84071 2.52657,2.6052 2.52212,1.12349 0.15538,-1.21633 -4.40272,-4.91313 -5.13879,-2.12688 2.73788,-0.0554 1.06125,-1.36153 3.29799,-0.63771 2.96469,2.16072 3.07235,1.11079 -0.9875,-3.29967 3.93821,-0.17724 1.13282,-1.36011 -1.67489,-2.03726 -2.50248,-1.44854 -2.51888,-2.30704 z m -2.75826,8.65139 -2.57696,-0.62352 0.60825,1.21499 -1.79736,-0.33439 0.88968,1.72475 1.71598,1.37094 2.61695,0.82332 -1.49669,-1.69107 0.37508,-0.67184 2.18368,0.92736 -0.90953,-1.74933 -1.60908,-0.99121 z m -23.72616,-28.97882 -3.28813,-0.97202 -7.69839,-3.00957 3.35151,2.25288 6.266,3.9987 -1.97451,0.16058 2.65861,2.22443 4.99625,2.87394 2.33426,-0.0435 -4.06759,-3.16299 6.66722,1.97601 -2.99421,-2.87087 1.76282,-0.79127 -6.16731,-3.24523 0.69349,1.22523 -2.54002,-0.61635 z m -64.96156,109.77976 1.07554,-0.82279 -0.0911,-3.01002 -1.98361,-3.00965 -1.77577,-2.03569 -2.34407,-1.60621 -0.26687,4.69227 1.26152,4.15503 1.72344,2.29837 2.40097,-0.66131 z m -92.73739,57.09963 -0.31588,-1.9093 -0.51453,-1.2298 -0.75852,-1.2409 -1.17042,1.293 -0.38007,1.7382 -1.94548,2.0087 -1.12367,-0.3474 0.13422,1.2353 -1.14129,1.4543 -2.67677,1.7803 -1.94551,1.6472 -1.23034,0.039 -1.14358,0.523 -1.67888,0.5926 -1.40677,0.1065 -0.7756,1.8335 -1.3321,1.6172 -0.40794,2.6636 0.0699,1.8229 0.28491,1.3687 -0.72746,1.8411 -1.88434,2.1914 -0.27137,0.9622 -1.37861,0.5005 -1.0639,2.084 -0.35497,2.0799 0.24682,2.3045 -0.62188,2.5627 0.23572,1.5254 1.73585,1.0341 1.25299,0.7381 2.69922,-1.2227 2.36594,-0.6846 2.33215,-3.3522 2.33165,-4.0194 3.34771,-5.4768 2.49101,-3.9836 1.9999,-3.3698 0.81034,-2.4485 0.93191,-0.6677 0.55145,-1.2257 -0.0145,-2.1415 0.72288,-0.8555 0.54475,1.694 0.69564,-0.8505 0.60236,-1.3862 -0.41615,-1.3521 0.29326,-3.4775 z m -125.6294,-264.23724 -1.13679,-0.6524 -0.66146,-1.08516 -0.99294,0.57903 0.69342,0.92384 -0.15327,0.7458 1.34566,0.67096 0.90538,-1.18207 z m -2.77926,-7.38136 -1.50287,-0.7221 -0.14812,0.86566 -0.94777,-0.69514 -1.21688,0.80725 0.9531,1.32687 0.74762,0.0506 0.36529,0.7965 1.73438,0.4822 1.39066,-0.34058 0.0469,-1.55685 -1.42233,-1.01445 z m -2.82633,2.03965 -0.94625,-1.00917 -0.7065,0.10054 0.0667,0.98795 -0.7285,0.0402 -0.51316,-1.01195 -1.18133,1.03508 0.83945,2.26367 1.63693,2.44081 1.10837,0.83622 -0.31602,1.02707 1.83545,1.76303 0.76443,-0.11262 -0.40314,-2.39509 0.37106,-0.54556 -0.3528,-2.12729 1.02296,-1.13751 -2.49766,-2.15542 z m 398.10775,334.91045 3.91402,-2.5753 -0.52972,-0.7496 1.47369,-1.6059 -1.27133,0.2268 -2.53946,2.0466 -2.6687,2.5579 -1.03482,1.1934 -0.9873,0.5095 -2.61935,1.9369 -3.38008,1.8694 -4.59711,2.2254 -3.55265,1.0087 -2.07661,1.0471 0.14451,1.1565 -2.41299,1.5908 -6.01116,2.3778 0.0649,0.4165 -1.16695,0.7585 4.01381,-1.1524 5.07307,-1.9796 3.9416,-1.5576 1.39294,-0.5378 2.24511,-1.2436 2.31717,-0.8786 1.59498,0.059 3.97594,-1.6868 5.48374,-2.5653 -0.52537,-0.334 -3.40075,1.1026 -1.10136,-0.2313 -0.0662,-0.942 3.7116,-2.1866 0.39623,-0.7884 -3.67315,1.974 3.87173,-3.043 z m -29.60946,13.7674 1.9325,-1.2288 -4.15974,1.3359 -3.51679,1.6139 -2.27554,0.7313 -5.27606,2.1546 -4.31066,1.5 -4.88481,1.5137 -3.74758,1.0999 -2.45444,0.5439 -8.45128,2.853 -5.53919,2.1442 -1.88493,1.0615 1.74404,0.2032 -0.73723,0.9532 1.69631,0.062 2.76469,-0.8251 4.33976,-1.2917 7.36581,-2.9249 4.52198,-1.8922 4.04978,-1.0893 1.68267,-0.036 2.12247,-1.3906 3.47998,-1.1628 5.75812,-2.13 3.52104,-1.3389 2.45242,-1.2165 1.81166,-1.2212 -3.88341,1.1716 1.87843,-1.1937 z m -16.54642,-142.60883 -0.55108,-1.06314 -0.74332,-1.45572 -2.80895,-1.37094 0.96619,2.23548 -1.99189,0.0769 -0.0397,1.28997 -1.92435,0.79157 -1.42647,-1.30857 -1.21254,1.08913 -1.55526,0.81308 -0.43638,2.4364 0.69599,0.8461 1.69159,-1.61287 1.37976,0.11129 0.55731,-1.19863 2.20593,1.36706 -0.50557,1.37445 1.32194,2.09223 3.75748,1.67762 0.52358,-1.35474 -1.43882,-2.12994 0.94745,-1.46625 1.81428,2.94683 0.29401,-2.64523 -0.63432,-1.6216 -0.88686,-1.92044 z m -6.73795,-10.83429 -1.28237,-1.0783 -2.73993,-0.0637 2.73927,2.20725 0.51674,1.09443 -1.76688,-0.23064 1.18149,1.75014 0.91623,0.15013 0.92423,2.03307 1.10155,-0.64764 -1.41635,-1.78383 -0.46838,-0.97022 2.51352,0.76699 -2.21912,-3.22767 z m -2.00257,5.44583 -0.84281,-2.75757 -0.97816,2.7905 -0.31376,-1.94613 -1.49608,0.16985 0.39254,1.79428 -0.4095,0.80972 -0.30391,0.7738 2.45278,1.99796 0.603,-0.85587 0.23409,-1.82641 0.66181,-0.95013 z m -20.07162,-23.77679 -1.66192,-0.003 0.81239,2.61939 2.46137,4.52235 -1.6741,-0.95125 1.68842,2.76743 1.10779,1.25883 2.26467,1.66096 -0.19057,-1.04178 1.19121,0.66855 -0.48917,0.73533 0.46918,1.1949 1.71785,0.63875 2.33583,-0.42723 2.65149,1.7305 0.19774,-1.06112 1.78936,1.51875 2.87479,1.41889 -0.34497,-1.33217 -1.25944,-0.69447 -0.52741,-1.57358 -4.34033,-1.60263 -1.05886,0.34208 -1.65223,-0.31848 -1.86781,-2.30226 -0.88465,-2.33049 1.07191,-0.95805 -0.74346,-2.40234 -2.26824,-2.07199 -0.3438,-1.19848 -0.74309,-0.73443 -0.34124,0.75273 -2.24271,-0.82533 z m 12.19475,19.11416 1.02985,1.37573 0.40644,1.47468 0.62977,1.34324 1.46399,-0.86806 0.81419,-1.22746 -0.4568,-1.20752 -1.80033,0.004 -2.08711,-0.89487 z m -2.56808,-3.40476 -1.48244,-1.04095 -2.46055,-0.10614 2.48663,2.20247 1.86609,1.44227 -0.40973,-2.49765 z m -4.15659,10.84938 0.80469,-1.98669 1.28614,-1.59173 -1.44123,-2.357 -0.36056,2.87155 -0.9876,1.99975 -1.46131,1.78533 -0.77269,2.02172 2.93256,-2.74293 z m 109.37112,46.6453 0.65803,-0.8093 -1.06067,-0.981 -0.88496,-1.8323 -0.70324,-0.6556 -0.0993,-0.8602 -0.46537,0.2795 0.0472,2.2019 0.7203,1.8359 0.89031,1.1102 0.89766,-0.2891 z m -6.09669,-6.7064 -0.0491,-1.5031 -0.93156,-0.9251 -0.95988,-1.21402 -1.11201,-0.69387 -0.89681,-0.63592 -1.46098,-0.80934 -0.88654,0.69806 1.97223,0.84967 1.45702,1.23332 1.14714,0.9472 0.46436,1.1169 0.18896,1.7064 1.06722,-0.7702 z m -3.98713,2.8273 1.38946,-1.7645 0.39894,-1.6034 -0.48915,-0.4746 -1.73733,0.055 -0.0336,1.7034 -1.84193,1.0308 -1.05229,0.9891 -1.69727,0.2208 0.0896,-1.5346 -0.42963,0.072 -0.76654,1.3858 -1.63129,0.2262 -2.47449,-0.422 -0.46414,0.8943 1.42779,0.8062 2.12112,0.8397 1.52528,0 1.66687,-0.6764 1.76484,-0.7025 0.66641,-0.8107 1.56734,-0.2377 z M 763.23955,95.59668 l -6.44193,-2.91688 -5.57815,-2.84473 -6.17217,-2.7861 -4.29686,-1.91163 0.0685,0.40587 3.36791,1.33935 1.06573,1.33023 7.60409,3.95023 6.55882,2.84182 7.2954,3.86537 3.66604,2.18529 5.99117,3.11922 4.90864,2.81613 4.72177,2.42579 -2.71625,-2.23742 4.66365,1.74267 -3.61349,-2.02007 -7.34902,-2.96252 -6.63403,-4.17699 4.61227,0.9544 -11.72211,-5.12003 z m -91.89822,-58.05842 -5.87516,-1.97584 2.3928,1.20518 2.87682,0.91825 0.60554,-0.14759 z m -50.94625,-6.88055 -1.9237,-0.7597 -3.79783,-1.1052 -0.37368,0.26744 1.90836,1.14249 0.50294,0.15295 2.46606,0.32225 1.21785,-0.0202 z m -7.74027,-5.41028 -3.76004,-0.75674 -2.44187,-0.43642 2.13634,0.93612 4.2201,1.14074 1.86426,0.25853 -2.01879,-1.14223 z m -7.5893,-1.38339 -6.27472,-1.53283 -2.13288,-0.12682 0.34924,0.54227 4.22476,1.98735 5.85845,1.8795 -0.3444,-0.68278 2.97974,0.08 -4.66019,-2.1467 z m -43.00646,-7.93283 -1.94351,-1.17492 -4.32655,-1.64177 -0.7336,-0.18824 0.12537,0.32497 5.47008,3.79545 1.40821,-1.11549 z m -5.84607,-1.6594 -4.32884,-2.5993 -5.88693,-2.79484 -3.30987,-1.45524 0.10435,0.65272 1.93015,1.97475 1.57127,0.5714 3.7031,2.07346 2.67738,1.10354 2.92666,0.8341 0.61273,-0.36059 z m -0.79853,23.58944 -4.00353,-2.37075 -2.39459,-2.40122 -1.27005,-2.7802 -1.52988,-2.82135 -0.4251,-2.75145 0.74034,-1.37848 0.86833,-1.43346 -0.58856,-0.8995 -1.78926,-1.14149 -0.8486,0.37554 0.044,1.07166 -1.69465,0.54106 -0.44847,1.85725 -0.17322,1.52622 1.4371,1.31216 0.44504,2.53709 1.06588,0.35343 0.544,2.46523 1.40611,1.57627 -0.37201,0.62022 1.46583,1.56133 2.34697,0.77499 1.38392,1.28348 3.46443,0.37554 0.32598,-0.25357 z M 524.77687,9.45493 524.5695,9.01426 l -1.23907,-0.63353 -0.0268,0.47668 0.31152,0.69208 -0.74544,-0.77887 -0.67522,0.0349 -0.49836,0.52642 1.12303,0.0878 0.45209,0.90241 1.09118,0.68528 0.18561,-0.47779 -0.33017,-0.47436 0.24832,-0.21929 0.31068,-0.38115 z m -193.36041,27.90751 3.00687,-0.69304 1.23952,-0.39519 1.10627,-0.82688 -0.75715,-0.006 -0.47814,0.12113 -5.87516,1.97584 1.75779,-0.17582 z m -31.9654,12.45505 5.14417,-1.79668 5.30294,-2.87367 3.8258,-2.20744 -33.28976,11.51631 4.18104,-1.22681 3.3467,-1.35993 3.37136,-0.68668 -3.31718,1.07438 -2.22139,1.01151 2.42407,-0.37498 -0.10617,0.47283 -3.22506,1.25396 -0.69572,0.84301 -1.81598,1.00784 0.93962,0.0865 2.13593,-0.60155 7.73605,-2.82456 2.78142,-0.29912 4.59327,-1.25991 5.13423,-2.70523 -1.86818,-0.43103 -5.60862,2.10046 1.23146,-0.71917 z m 523.98235,126.59358 -2.33784,-4.63499 -1.09434,-1.74402 -1.97105,-0.86103 -0.14972,2.18828 0.87773,2.8392 2.07225,2.14317 3.36356,2.44058 -0.76059,-2.37119 z M 281.19014,57.91673 l -2.99999,1.08884 -0.3732,0.25454 1.59106,-0.16775 -0.89868,0.52433 -0.66666,0.62874 2.60195,-0.61186 0.93521,-0.31482 -0.26753,-0.38623 0.98681,-0.76274 -1.59359,0.29712 0.68462,-0.55017 z m -20.83047,19.27131 4.42925,-1.3737 1.36399,-0.89718 -0.57735,-0.19524 -1.82019,0.44052 -3.74084,1.02729 -2.8302,1.35414 -0.87393,0.74601 4.04927,-1.10184 z m 0.17008,-8.07701 2.64171,-1.10893 -0.47554,-0.26179 -2.66628,0.4946 -1.1104,0.7853 -0.40635,0.54045 2.01686,-0.44963 z m -184.944448,118.01693 1.275636,-0.45164 1.61897,-0.61734 0.209959,-0.16023 0.228911,-1.01287 -0.08372,-0.38712 -0.249524,-0.25071 -0.581854,-0.48838 -0.155799,-0.0535 -0.41082,0.26958 -0.343599,0.56849 -0.908465,0.47138 -0.431628,0.32168 -0.506736,1.05239 -0.801076,0.80792 0.31293,0.41394 0.826813,-0.48358 z m 2.707779,-4.5109 0.560236,-0.34708 -0.27641,-0.44347 -0.691146,-0.27473 -0.506941,0.24782 -0.152146,0.18055 0.08214,0.23502 -0.121216,0.60875 1.10548,-0.20686 z m -0.332565,-1.54036 -1.203649,-0.12355 -0.550929,0.35211 1.362593,0.0839 0.391985,-0.31251 z m -1.992406,-0.42011 0.187186,-0.95552 -0.03534,-0.18569 -1.124339,0.39845 -0.01272,0.11542 -0.31898,0.65547 0.835739,0.10161 0.155635,0.0372 0.312814,-0.16694 z m -2.59983,-1.90736 0.649451,-0.67336 -0.552183,-0.0614 -0.706446,0.28323 -0.359586,0.21064 0.353324,0.52709 0.61544,-0.2862 z m 893.87306,106.71262 -0.67737,-0.8887 -1.61041,2.2149 -0.22275,0.7981 0.7022,-0.1567 0.4624,0.3626 1.34593,-2.3302 z m -1.45247,4.4297 -0.39065,-1.6606 -0.7267,0.7751 -0.1129,1.2657 1.23025,-0.3802 z m -444.80129,-169.44904 -0.63922,-2.47875 -1.24673,1.10385 -0.32109,1.0742 0.69437,1.94516 1.0445,0.58856 0.46817,-2.23302 z m -10.95773,6.67937 0.0553,-0.16091 -0.0181,-0.057 -0.21388,-0.33283 -0.37438,-0.1235 -0.45362,0.0349 -0.0144,0.0768 0.001,0.17375 0.0565,0.0509 0.22431,0.0373 0.69772,0.33409 0.0392,-0.0334 z m -2.54351,0.14962 0.025,-0.13438 0.069,-0.0717 0.0142,-0.0823 -0.072,-0.0517 -0.007,-0.0477 0.0696,-0.10656 -0.0871,-0.0272 -0.55664,0.17982 -0.26088,0.15456 -0.89949,0.69881 2.9e-4,0.11857 0.0566,0.0916 0.14447,0.0287 0.095,0.15201 0.16603,-0.15258 0.12761,-0.0738 0.14944,0.0407 0.10403,0.0922 0.062,0.28907 0.0692,0.0728 0.22563,0.0483 0.39265,0.19394 0.17962,-0.0925 0.19599,-0.15428 0.0982,-0.2614 0.11597,-0.22725 0.13907,-0.20664 0.0971,-0.20409 -0.0357,-0.1835 -0.11959,-0.0464 -0.12034,-0.0273 -0.22138,0.0868 -0.21629,-0.0965 z m -3.73595,2.51891 0.11026,-0.0399 0.28482,-0.30727 -0.0259,-0.14045 -0.11101,-0.0973 -0.48228,0.11631 -0.10138,0.14355 -0.004,0.14284 -0.0975,0.0241 -0.0713,0.201 0.0766,0.0718 0.34314,0.0628 0.0787,-0.17756 z m 0.34693,0.71293 -0.004,-0.085 -0.21661,-0.0302 -0.13913,-0.16275 -0.0419,0.0826 -0.0331,0.0816 0.0104,0.11687 0.22393,0 0.15003,0.0351 0.0507,-0.0382 z" />
</svg>
