<?xml version="1.0" encoding="UTF-8" standalone="no"?>
<svg
   xmlns:dc="http://purl.org/dc/elements/1.1/"
   xmlns:cc="http://creativecommons.org/ns#"
   xmlns:rdf="http://www.w3.org/1999/02/22-rdf-syntax-ns#"
   xmlns:svg="http://www.w3.org/2000/svg"
   xmlns="http://www.w3.org/2000/svg"
   xmlns:sodipodi="http://sodipodi.sourceforge.net/DTD/sodipodi-0.dtd"
   xmlns:inkscape="http://www.inkscape.org/namespaces/inkscape"
   enable_background="new 0 0 1000 2001"
   height="509.34998"
   pretty_print="True"
   style="fill:#483737;stroke:#ffffff;stroke-linejoin:round"
   version="1.1"
   viewBox="0 0 1001 509.34998"
   width="1001"
   id="svg2"
   inkscape:version="0.48.4 r9939"
   sodipodi:docname="wagner_iv_joined.svg"><sodipodi:namedview
   pagecolor="#ffffff"
   bordercolor="#666666"
   borderopacity="1"
   objecttolerance="10"
   gridtolerance="10"
   guidetolerance="10"
   inkscape:pageopacity="0"
   inkscape:pageshadow="2"
   inkscape:window-width="640"
   inkscape:window-height="480"
   id="namedview19"
   showgrid="false"
   inkscape:zoom="0.11794103"
   inkscape:cx="500.5"
   inkscape:cy="253.67499"
   inkscape:window-x="0"
   inkscape:window-y="0"
   inkscape:window-maximized="0"
   inkscape:current-layer="svg2" />

utf-8<defs
   id="defs4">
utf-8utf-8<style
   type="text/css"
   id="style6">path { fill-rule: evenodd; }utf-8utf-8</style>

utf-8
utf-8utf-8
utf-8</defs>

utf-8<metadata
   id="metadata8">
utf-8utf-8<views
   id="views10">
utf-8utf-8utf-8<view
   h="2001.0"
   padding="0"
   w="1000"
   id="view12">
utf-8utf-8utf-8utf-8<proj
   flip="auto"
   id="wagner4"
   lon0="0.0" />

utf-8utf-8utf-8utf-8<bbox
   h="2697.47"
   w="5306.32"
   x="-2653.16"
   y="-1341.72"
   id="bbox15" />

utf-8utf-8utf-8</view>

utf-8utf-8</views>

utf-8<rdf:RDF>
  <cc:Work
     rdf:about="">
    <dc:format>image/svg+xml</dc:format>
    <dc:type
       rdf:resource="http://purl.org/dc/dcmitype/StillImage" />
  </cc:Work>
</rdf:RDF>
</metadata>

utf-8<path
   inkscape:connector-curvature="0"
   id="---"
   data-name="---"
   data-id="---"
   d="m 596.27787,95.30955 1.12462,1.00527 1.42491,0.37801 1.69213,1.21358 1.15809,2.25593 -0.0191,1.41909 -2.47181,1.73982 -2.17104,-0.29743 -2.73331,0.51485 -3.78004,-1.29043 -4.73335,-2.34207 -3.99753,0.0705 -2.64899,0.93795 -2.53471,2.15976 -4.72977,-0.4416 -0.61097,2.54127 -3.75983,0.13414 -2.26028,3.2189 1.80102,1.61639 -0.84043,2.64167 2.08807,1.89296 1.95992,3.41049 2.74543,-0.062 2.70784,1.83451 1.68881,-0.4092 0.36725,-1.42886 2.73743,0.11554 2.3384,1.84951 3.77879,-0.38782 1.40013,-1.98181 2.24791,0.7914 1.48711,-0.29305 -0.7272,1.29365 1.20549,1.56576 -0.37544,1.42466 0.68787,2.65787 -0.0278,0.12137 -0.87165,2.45856 -0.46654,2.8542 -0.0656,0.0364 -0.23277,0.8897 -0.12609,2.65848 -0.44636,1.65216 0.20671,0.20074 -0.59169,1.1673 10e-6,1e-5 -1.15983,0.89377 -2.06377,-0.20096 -2.20438,-0.83812 -0.45315,1.15931 -0.94166,-1.75912 -1.91069,-0.44709 -2.26,0.29196 -0.94756,1.01549 -1.87591,1.12445 -1.27478,-0.55291 -2.71185,-1.04803 -2.61255,-0.93652 -3.45817,0.0585 -0.75686,-1.16788 -2.62457,-0.41442 -0.88745,-0.60221 -0.96759,-0.0149 -1.04021,-1.57572 -3.56843,-0.71992 -1.7359,0.47981 -1.72058,1.65103 -0.66914,1.71803 0.83192,2.71426 -1.12242,1.63465 -1.20661,0.92363 -2.9224,-1.76906 -3.78779,-1.48618 -2.38736,-0.68799 -1.42276,-3.14215 -3.53616,-1.57438 -2.19456,-0.5869 -1.06851,0.30257 -3.09779,-1.20963 -1.00822,-0.54869 -0.72966,-1.6655 -1.33212,-0.0595 -0.57653,-1.90389 1.59832,-1.75095 0.18039,-3.00239 -0.92308,-0.85908 -0.0657,-1.59589 1.17073,-1.68561 -0.21572,-0.65945 -2.06924,1.26417 -0.0149,-1.73704 -1.77897,-0.41114 -2.67575,1.384 -1.71391,0.20854 -1.05385,-0.79867 -2.68659,0.0265 -2.33244,1.35366 -1.28421,-0.51048 -4.16275,0.27881 -4.26764,0.61306 -2.42791,1.04837 -1.59749,1.4243 -2.7452,0.60106 -2.46018,1.89372 -1.10631,-0.0371 -2.62551,-0.76573 -2.42448,0.23972 -1.49782,-1.47011 -1.86792,-0.0166 -0.86126,2.12808 -1.81846,3.60514 -1.9524,1.44537 -2.64188,1.60096 -1.75535,2.37483 -0.42232,1.85698 -1.11169,3.04483 0.48171,4.42605 -2.31373,2.98508 -1.36267,0.95494 -2.1893,2.45486 -2.48446,0.39742 -1.39998,1.3832 -0.0511,0.0505 -1.86457,3.68941 -1.84508,1.32045 -1.07773,2.24389 -0.15795,1.93814 -0.81482,2.12649 -0.93656,0.58825 -1.61718,2.32446 -1.05714,2.58583 0.11574,1.2425 -0.9805,1.91593 -1.09389,1.00316 -0.20914,1.70813 -0.18953,1.55964 1.37139,1.59617 0.63373,1.75918 -0.35031,1.84827 0.25808,1.84493 0.16411,3.6752 -0.47059,3.51031 -0.83825,1.84161 0.17141,2.01511 -0.72426,1.92264 -1.43444,2.63212 -1.24902,0.71278 1.34884,1.33684 1.06447,2.92675 -0.40445,1.66942 0.38186,2.88821 0.15764,0.80679 0.83509,0.80056 -0.0303,0.5743 0.61912,1.06425 1.17639,0.24967 1.46531,1.57924 0.80442,0.61919 0.3948,0.8327 0.28744,1.67109 0.68884,0.75205 0.71217,0.49033 1.07043,1.48199 1.20165,2.24169 0.30634,2.80246 0.4761,1.38599 1.44766,2.03351 2.01893,1.5299 0.75909,0.28179 1.88307,2.45171 2.39592,2.08017 2.5558,2.89518 2.91199,1.81386 0.7426,-0.0335 0.54723,0.10001 2.81167,-1.39586 1.97116,-1.09809 3.3578,-0.66405 1.81604,-0.0439 1.97477,0.74376 1.28895,-0.0387 2.52406,1.08058 2.55401,-1.10368 1.57549,-1.30444 4.43838,-2.22586 2.27777,-0.8109 2.3379,-0.44339 2.49704,0.002 2.12606,-0.0469 2.01255,2.50468 0.94183,2.75318 1.52479,2.38032 2.26765,0.0832 1.0867,-0.85288 1.07641,0.20011 2.93579,-1.36945 -0.0273,1.05164 0.72845,0.54575 0.58376,1.70559 1.29647,0.64569 1.11865,2.51744 -0.40459,3.00733 -0.96632,4.27854 0.53232,0.5746 -0.57,2.8255 -0.68994,2.77438 -0.62063,1.21837 -0.0924,1.266 1.71622,3.9359 1.86539,3.1432 2.89673,3.8433 2.30121,4.0306 0.73395,2.8598 0.38583,1.1791 -0.27606,0.7387 1.39221,2.4038 0.54914,2.5417 0.80823,3.6651 -0.8885,1.5029 -0.16289,0.7875 0.65712,2.2722 0.71137,2.2958 0.81691,1.3519 0.1066,2.1418 -0.35068,2.7965 -0.93408,1.6781 -1.66005,2.465 -0.69932,1.5424 -0.97969,3.3886 -0.18123,1.6112 -1.03962,3.4318 -0.46337,3.2897 0.20175,2.348 0.0925,2.8601 2.13914,3.631 0.52736,2.33 1.29091,4.4405 1.29707,3.0488 1.00053,1.5179 0.26579,2.0057 -0.12792,4.3861 0.64297,5.6181 0.53065,2.6317 0.40589,3.5248 0.89615,2.6346 1.81043,2.7168 1.5957,4.651 0.003,0.01 1.10928,3.0171 1.46399,3.3191 -0.14209,2.7101 -0.8859,0.6417 0.65242,2.3552 -0.18231,2.0536 0.26295,0.9392 0.16179,-0.4843 0.97084,1.558 0.85941,0.064 0.96976,1.2414 1.16933,-0.084 1.70418,-1.3162 2.24034,-0.5522 2.78478,-1.3789 1.04453,0.183 1.60139,-0.4265 2.71003,0.6738 1.34654,-0.6655 1.50159,0.5168 0.44497,-0.9711 1.33281,-0.1823 2.8555,-1.3601 2.14564,-1.5987 2.08884,-2.1137 3.3926,-3.6506 1.7969,-2.5461 0.95569,-1.8313 1.33513,-1.8148 0.57772,-0.5174 2.02087,-1.8095 0.88038,-1.621 0.66771,-2.992 0.96935,-2.6301 0.44493,-1.9065 -0.65706,-0.244 -0.0621,-1.5293 1.32324,-1.3442 3.45014,-1.9713 2.35925,-1.2329 1.27187,-1.2994 0.56864,-1.5218 -0.57043,-0.6269 0.62038,-1.703 0.44886,-3.604 -0.49969,0.184 0.0759,-1.1015 -0.32823,-2.1624 -1.03685,-2.7981 0.4672,-2.6403 1.20707,-0.8573 2.14984,-2.6382 1.11868,-0.6787 3.45812,-3.9967 3.27078,-1.8109 2.65189,-1.4198 1.95818,-2.3189 1.28693,-2.601 1.03714,-2.6802 -0.35442,-1.8395 0.294,-5.8812 -0.1413,-3.3094 0.33035,-3.7634 -0.36471,-1.6954 -1e-5,0 -10e-6,0 -0.99036,-0.8275 -0.98767,-3.7336 -0.8822,-2.3761 0.25806,-1.8119 -0.11761,-1.1533 0.86123,-2.2926 -0.051,-0.9876 -1.76586,-1.3842 -0.10318,-2.1539 1.4279,-4.6866 1.16898,-1.2567 0.60353,-2.5328 0.93728,-1.5364 0.44164,-2.6835 1.06702,-0.2792 0.71912,-1.5895 2.0023,-1.5213 0.64826,-0.9022 0.667,-2.0093 3.11438,-4.61623 2.63562,-2.89857 4.21287,-3.78329 2.79629,-3.08373 3.22719,-5.19392 2.29694,-4.26033 2.22199,-5.57076 1.52291,-4.8481 1.12842,-4.23482 0.54102,-4.09245 0.50282,-1.366 -0.14905,-1.98657 0.0982,-2.19642 -0.14308,-1.04337 -1.06267,0.0103 -1.23081,1.2919 -1.46038,0.38005 -1.25384,0.561 -0.89208,0.0744 10e-6,-2e-5 -1.58979,0.13271 -0.95629,0.68905 -1.37667,0.24873 -2.39788,1.17411 -3.03234,0.44805 -2.5935,0.96738 -1.39728,-0.0126 -1.36122,-1.58282 -0.64513,-1.5626 -0.95662,-0.69617 -1.26987,-1.03296 1.54289,-0.90302 -0.0154,-1.5661 -0.74226,-1.16658 -1.45482,-1.13313 -0.96582,-1.29357 -1.67073,-2.17072 -1.70968,-2.14196 -4.07317,-3.54368 -1.66704,-1.8245 -1.04258,-3.43275 -1.97499,-4.3186 -1.63201,-1.37589 -1.1317,-0.91599 -1.41387,-4.43255 -0.76393,-3.81002 0.53347,-0.67016 -1.24873,-3.61798 -0.55658,-0.75395 -3.51121,-3.29753 -0.34214,-2.38139 0.4677,-0.63786 -2.87009,-4.04098 -1.0963,-2.05527 -1.217,-1.97424 -2.68112,-5.63189 -2.06771,-3.61534 -1.56372,-3.77724 0.22918,-0.32364 2.52528,5.13343 1.39386,1.60499 1.02755,1.16231 0.5421,-0.62916 0.48609,-1.87345 0.21718,-2.71043 0.5482,-1.43826 -0.38743,-0.92811 0.38744,0.92813 0.15794,0.51777 -0.13608,1.42903 0.0472,1.25564 -0.15829,1.97274 1.31862,-0.0173 1.67189,2.4751 1.99172,2.91505 1.3793,2.69767 0.88279,0.8112 0.97589,1.88625 -0.0483,0.82368 1.13397,2.09086 1.54792,0.75573 1.43594,1.42755 2.02442,4.0668 0.12711,2.18042 0.59281,2.56165 2.18164,3.52191 1.28561,0.60792 2.1607,2.55046 1.07793,3.02659 1.77092,3.12146 1.55374,1.33591 0.35117,1.48865 0.93806,1.12486 0.50259,1.59526 0.26543,1.63206 -0.27534,0.72219 0.42841,1.71226 -0.54222,0.18233 0.92516,1.54211 0.76288,2.77787 0.54048,1.10929 0.0709,2.05687 0.88292,2.20034 1.95216,0.19165 0.8588,-0.51141 1.39211,0.0831 0.36395,-0.95826 0.7133,-0.27482 0.5368,-0.99415 0.68995,-0.21387 2.33243,-0.19546 1.72414,-0.72442 1.50381,-1.56068 0.85668,0.22233 1.2119,-0.20718 2.26278,-2.65038 4.28589,-1.75017 2.61208,-1.58239 -0.0671,-1.27712 0.36001,-1.66124 1.89626,-1.00434 1.25717,-0.21157 1.70843,-1.26002 1.5699,0.35209 1.21692,-1.03663 -0.19756,-1.50687 0.9652,-0.93859 1.72263,0.03 0.53058,-0.78616 0.0304,-1.81303 1.53275,-1.38928 1.26887,0.0122 0.19602,-0.45642 -0.69144,-2.48042 0.16459,-1.8782 0.43724,-0.88233 1.27252,0.19404 0.62739,-2.5319 0.96127,-1.18033 0.26652,-1.0347 0.62274,-2.19415 -0.13582,-0.82021 -1.05346,-0.46541 -0.94408,-1.21944 -1.59407,-2.10159 -1.72174,-0.66729 -2.0687,-0.47811 -1.74365,-1.32737 -1.65631,-2.4924 -0.89517,-2.8742 0.22559,-0.65879 -0.0339,-1.49872 -0.3915,-0.31463 -0.54327,1.23453 -1.27839,2.23897 -1.58913,2.33518 -1.42461,2.46826 -1.64958,-0.10803 -2.24922,-0.0955 -2.02123,0.57613 -0.26134,-1.00226 -0.45166,0.17745 -0.73858,-1.39422 0.22902,-2.14389 -0.40993,-2.12877 -1.00785,-1.13784 -0.66406,0.39038 -0.39944,1.90567 0.61493,2.64992 -0.54836,-0.89356 -0.55464,-1.19392 -0.94144,-1.01917 -0.54384,-1.22021 0.0616,-1.2082 -0.41968,-1.49465 -2.08311,-1.51997 -0.67881,-1.268 -1.45353,-0.82362 -1.59215,-3.10234 -1.34529,-2.70384 0.0835,-0.8161 -0.84504,-1.57605 1.59245,0.17497 0.71119,-1.39142 1.89875,1.18115 1.29912,-0.57787 2.87478,4.76711 2.41575,3.41008 2.75169,1.02645 3.21015,2.77546 3.48913,1.20074 2.35749,-1.75137 1.92121,-0.64567 1.40393,0.64035 2.00989,4.44386 3.11902,0.47219 3.09093,0.83565 5.27487,1.09901 3.68453,-0.51039 4.35404,-0.0678 4.80442,-0.68444 2.67821,2.77395 1.35861,2.62539 2.17497,0.92529 3.81965,3.11173 1.0937,1.44164 -1.04517,1.32968 4.42316,4.46947 2.01204,0.44304 3.55125,-2.21034 1.20167,3.46003 0.81504,4.48947 1.6431,4.75943 2.2864,7.23727 3.26698,5.14882 0.79722,2.34664 1.28472,4.70701 1.90796,3.62295 1.17883,1.7859 1.46991,3.81269 1.78985,5.30254 2.95942,3.54088 1.04711,-1.09036 0.73407,-2.57851 2.47474,-1.07423 -0.9734,-1.2484 0.998,-2.88682 1.43715,-0.18316 -0.70667,-6.4181 0.73624,-3.58113 -0.57082,-3.12169 -1.29449,-4.8844 0.38552,-2.85821 1.266,-0.19762 2.27969,-1.34055 1.22657,-0.92155 -0.29555,-1.71855 2.31431,-2.44233 1.62891,-2.3497 2.1962,-4.37218 3.41181,-2.49465 0.96739,-2.18891 -0.80906,-2.77732 3.17856,-0.76535 1.8669,0.0464 0.0553,-1.34482 1.13696,0.32961 0.87271,0.40165 0.22715,-0.67029 1.34845,0.74672 0.33045,-2.04784 -0.64479,-1.51469 2.5409,0.14688 1.70121,2.13972 0.97647,1.77259 0.63172,1.87869 1.25609,1.9258 2.66907,3.01952 1.71828,0.47513 -0.0248,1.33709 3.12047,4.28569 1.31784,3.48979 -0.0354,4.63169 1.88852,0.87785 1.62256,0.33356 2.63725,-2.66784 1.44412,-1.87417 1.82929,3.0962 1.40493,4.73419 1.6986,4.49679 1.4576,1.94985 0.41064,4.10603 1.26742,2.23338 -0.46841,2.89453 0.62773,2.80807 -0.40723,3.63219 -0.0567,2.36534 0.74402,2.1074 0.24186,-2.22989 1.54831,1.79927 1.7035,2.14275 0.64927,1.88074 1.23819,1.45785 0.74969,1.61118 -0.11396,2.76841 1.15242,2.0741 0.56302,3.1518 1.75467,2.54661 0.40591,1.94034 3.44732,3.02351 2.74294,2.82253 2.00864,-0.25421 0.0299,-1.28824 -1.20634,-3.369 -1.03523,-1.04963 -0.29666,-2.25399 -0.33579,-1.30914 0.21373,-1.73173 -0.31157,-2.56261 -1.358,-2.54662 -1.84275,-2.29527 -0.67868,-0.35512 -1.62794,-1.97206 -1.75092,-0.44159 -1.7726,-2.17481 -0.83068,-3.28454 -1.52306,-3.45981 -1.84985,-0.11893 -0.51956,-2.74076 0.48275,-3.34096 0.71724,-5.51462 -0.44788,-4.1434 2.45887,-0.0221 0.0777,2.9588 2.38459,-0.0703 2.79131,1.73107 2.00593,3.89927 1.42027,1.96957 2.43,0.55214 2.37493,2.1492 -0.46932,2.56532 1.30813,2.4304 3.09267,-3.52808 1.87762,-3.15518 2.86911,-2.4342 1.95792,-2.48729 -0.76221,-6.63079 -2.64834,-6.95176 -2.33564,-3.00808 -3.03445,-2.31009 -3.73282,-4.87518 -3.08707,-3.92069 -0.0682,-2.57485 1.3268,-3.49764 2.73393,-3.15856 1.10957,-0.60021 4.01684,1.18043 -0.22264,1.42779 1.49382,2.68343 1.45733,-0.21679 -0.21597,-3.90215 2.71567,-0.56554 3.2308,-1.84526 0.94637,-1.82792 1.33103,1.1935 1.12448,-1.63344 2.9198,-0.42165 2.69867,-3.08617 2.48061,-3.37362 0.81506,-4.3454 0.21098,-4.75549 0.24649,-3.9029 1.3372,-0.32311 -0.62557,-2.84473 -0.96749,-2.91305 -2.07794,-1.10722 -1.55026,-1.89873 1.16182,-0.97029 -1.28656,-2.63266 -3.1658,-2.71199 -3.27912,-3.22116 -2.88412,-3.43955 -3.81544,-1.91334 -0.068,-2.4282 1.45856,-1.73411 0.0744,-1.86039 2.98579,-0.95995 -1.5179,-1.79605 -1.67914,-0.0912 -3.05164,-1.33057 -1.31177,2.44302 -2.59227,-1.00067 -1.0192,-1.53416 -2.38952,-0.55993 -2.73488,-2.30002 0.27145,-1.5812 2.32605,-0.16256 0.10797,-2.17891 1.21729,-2.33517 1.32725,-1.18101 2.49771,1.75402 -0.42845,2.26001 1.3852,1.31419 -0.29646,1.56847 2.07016,-0.9246 0.77481,-1.57885 2.78681,-0.97952 1.78023,0.90344 1.69223,0.3676 0.53708,0.55187 0.59782,1.8259 0.63319,0.61999 -0.32384,0.39874 0.296,1.49785 1.0241,0.54397 0.84997,0.3126 0.50222,0.64271 0.55149,-0.28367 -0.11362,-0.64158 1.63714,0.64979 3.602,2.9315 -1.50667,0.57888 3.3374,3.59082 1.09102,2.60106 1.40016,1.8956 2.13098,-0.29849 1.18462,-1.44351 1.90623,-0.66753 -0.21314,-1.90577 -2.53706,-3.974 -2.07097,-2.22351 -4.84351,-4.02338 -2.4204,-1.48779 -1.36332,-0.55028 0.0325,-0.37352 -0.93524,-1.46119 0.43535,-0.90422 1.24698,-0.55277 0.21476,-0.99205 0.008,-0.59092 0.72622,-0.73943 -1.86939,-2.39467 -0.12717,-1.12987 0.19454,-1.12154 1.07255,0.19848 4e-5,3e-5 -10e-6,-2e-5 10e-6,0 -10e-6,-10e-6 -0.475,-1.09962 1.32523,-2.40835 2.78954,1.59804 1.4854,-0.0427 1.63856,-1.92802 -0.0614,-1.93202 -0.0214,-3.7478 -0.16517,-3.74184 -1.26033,-2.20391 -0.90574,-4.56367 -3.98312,-4.9653 -3.64658,-3.65329 -1.54139,-3.01875 -2.90938,-2.54256 -6.8337,-3.24798 -2.58528,-0.1901 0.27712,1.46799 -2.83853,-0.65447 -3.12839,-1.83345 -3.79879,-0.36719 0.15941,-6.75375 -0.23206,-5.41249 5.60793,-0.80704 6.86199,0.46755 0.64338,-1.33263 3.73221,0.41052 2.63909,1.97035 2.76294,-0.28202 3.52954,-0.71301 -4.09674,-1.66236 -1.71504,-4.45347 3.70058,-0.88542 6.70909,3.2337 0.45198,-2.89157 -2.31665,-2.12945 2.00811,-0.21606 4.43209,3.65882 -0.23499,2.11441 0.76702,2.76932 1.42716,3.45668 -2.32388,0.62155 1.72989,1.30544 0.56501,1.68054 4.3084,3.96249 9.54382,6.50693 6.29555,4.37225 3.31675,2.0909 -0.19327,-2.8235 -3.1214,-3.04404 2.33722,-0.72515 -3.62665,-3.36519 1.76431,-1.48945 -2.58744,-1.24747 -2.41678,-2.40262 1.81165,-0.10576 -5.63109,-4.11036 -3.27547,-0.62472 -1.72407,-1.12119 -1.53715,-2.65516 -2.09381,-1.78023 3.27772,0.36947 0.12475,-1.15149 2.49932,0.99792 1.85539,-2.10126 5.88928,1.85021 -1.25044,-1.21791 0.18619,-1.62954 -0.11691,-1.84272 1.22463,-0.30329 2.02517,-1.94238 4.65113,0.55904 -0.7355,-0.67946 -2.16498,-1.05402 -2.15629,-0.68146 -5.00235,-2.06052 -4.20283,-1.31136 2.79934,0.1796 0.35721,-1.07241 -0.0119,-0.0131 -18.84002,-9.19573 -4.52176,-0.94563 -7.26292,-1.01934 -3.38392,0.1269 -6.84144,-0.591 1.17689,0.94162 4.2652,1.37846 -0.7884,0.70015 -6.99949,-1.92885 -2.86574,0.23729 -4.17135,-0.42007 -3.01372,0.0559 -1.50286,0.43874 -3.35814,-0.60924 -2.80701,-1.53897 -3.13898,-0.85336 -4.1078,-0.33644 -6.23011,0.38666 -7.46416,-1.54569 -3.69987,-1.17037 -17.60711,-1.24934 -0.71362,0.82977 4.50019,1.82698 -3.29733,-0.2801 -0.27997,0.56167 -4.38639,-0.61588 -2.00057,0.53783 -4.26533,-0.89699 1.86513,2.11549 -4.07303,-0.82829 -4.73023,-1.57049 -0.35252,-0.81645 -2.83028,-1.22147 -4.35465,-0.98089 -2.63779,0.0101 -4.05702,-0.32099 2.2218,1.41905 -7.45184,-0.28011 -1.77551,-0.86895 -5.80017,-0.30253 -2.21145,0.28936 -0.006,0.48039 -2.6252,-1.17668 -0.97201,0.3433 -3.13024,-0.45708 -2.41824,-0.25139 0.45136,-0.52735 2.8221,-0.96638 1.00824,-0.50422 -0.97384,-0.86698 -2.26171,-0.60963 -4.8261,-0.77447 -4.67755,-0.0209 -0.86743,0.38333 -1.60802,-0.77265 -3.93877,-0.23487 1.58104,-0.37315 -3.4281,-0.48162 -2.79746,0.61168 -0.56145,0.65152 0.53496,0.67809 -2.96773,-0.0264 -2.411,0.85773 -1.80704,-0.36555 -4.0087,0.15054 0.0491,0.4488 -3.97377,0.22095 -2.11367,0.83594 -1.81043,0.047 -0.53838,1.14138 2.42981,0.93482 -3.31402,0.23778 -4.07383,-0.0802 -2.48295,0.36841 2.28973,1.99958 3.20873,1.62536 -4.302,-1.11838 -3.41205,0.1028 -2.0845,0.7702 2.17718,1.44309 -2.19514,-0.36925 -1.17009,-1.9089 -1.93174,-1.06429 -0.79595,0.0431 1.72253,1.37064 -1.79278,1.33508 3.78017,1.66035 0.52371,2.11018 1.49224,1.19892 2.104,0.17915 0.45466,1.45375 2.16549,1.27472 -0.63981,1.08356 0.47784,1.141 -1.52883,0.59804 -0.0468,0.84513 -2.39474,-0.34681 0.88632,-3.27554 -0.51131,-1.49537 -3.14159,-1.34749 -2.18283,-2.92009 -1.86133,-1.43862 -1.65725,-0.64421 0.13315,-1.60468 -1.36417,-1.07124 -4.91229,-0.49937 -0.90842,0.37184 0.45889,1.75804 -1.60782,1.81419 0.59972,0.65575 2.28104,1.62913 0.24469,1.01091 2.30349,0.21115 0.42815,0.45871 2.75867,1.15652 -0.25746,1.16283 -8.47028,-2.51537 -2.97001,-0.67288 -5.68832,-0.64509 -0.39962,0.70379 2.77114,1.25349 -0.98572,1.46046 -2.9746,-1.32963 -2.02545,0.91245 -3.32047,0.0612 -0.79531,0.76108 -2.3822,-0.23314 0.90984,-1.34246 -1.41466,-0.10784 -5.09262,1.90394 -3.16902,1.07661 0.35858,1.46413 -2.56968,0.50357 -1.85891,-0.79365 -0.67891,-1.27443 2.14822,-0.28009 -1.71523,-1.25838 -5.39574,-0.71165 2.03384,1.3821 -0.19816,1.35599 2.21763,1.37388 -0.27528,1.61089 -2.12877,-0.82276 -1.7683,-0.13501 -3.2746,2.32056 2.03869,1.77175 -1.33812,0.59624 -5.19384,-1.51638 -0.83251,0.92014 1.55842,1.0538 0.22563,1.20127 -1.74289,-0.6448 -2.73564,-0.75259 -1.06196,-2.48398 -0.54485,-1.10795 -3.67295,-1.72308 1.23839,-0.29569 8.97217,1.78308 2.75245,-0.62949 1.48568,-1.22782 -0.84002,-1.53104 -1.89916,-1.07629 -7.90732,-2.50245 -5.07654,-0.51575 -3.41381,-1.29264 -1.53041,0.7407 -6e-5,2e-5 -2.42132,-1.33148 2.0357,-0.55864 -5.97504,-1.5016 -2.95847,0.40497 -3.17808,-0.0902 -2.13875,1.71228 -2.90495,-0.11122 -3.6151,0.92281 -4.29358,2.7171 -2.70747,1.68043 -3.72156,4.47448 -3.0204,3.36728 -3.51462,2.56366 -4.95225,2.12766 -1.70877,1.65558 0.937,6.10631 0.87854,2.93032 2.92621,1.40623 2.70122,-0.64867 3.75793,-3.16456 1.53275,1.67163 1.9749,3.91669 2.09724,3.20454 0.97066,2.71022 2.45111,-0.13284 0.91933,-2.27474 2.59765,0.27565 0.81752,-2.65743 0.0862,-4.66842 2.02281,-0.64073 1.33308,-3.05469 -2.17899,-1.48005 -1.73399,-1.85869 0.78753,-3.64079 3.30696,-2.17332 2.60402,-1.99549 -0.63829,-1.49587 1.41868,-1.67818 3.0299,-0.67302 2.89803,1.12576 0.47734,1.01848 -1.11966,0.50731 -3.67642,2.67076 -1.38191,1.57609 -0.60038,1.48002 1.45168,2.32715 0.10528,2.58803 2.12157,0.8728 1.48079,1.46191 3.15108,-0.56693 3.29227,-0.9804 3.57841,-0.21189 10e-6,-1e-5 2.45288,1.27083 -1.89264,1.49054 -4e-5,-4e-5 -2.07227,0.0802 -2.31012,-0.44749 -2.45925,0.39314 -2.39838,0.75687 0.51862,1.57178 1.51719,0.9797 0.67924,-0.3481 0.12312,1.63548 0.0658,2.15073 -1.66516,0.0548 -2.08101,-2.09399 -1.76739,0.95417 -0.69171,1.76761 0.31988,2.14059 0.88804,2.4175 -2.78907,0.94025 -0.27862,1.28241 -2.08249,-0.0369 -0.27223,-0.71152 -2.21527,-0.49147 -2.56481,0.98557 -3.19233,1.35411 -1.378,0.86415 -1.12879,-0.93699 -2.56003,-1.15633 -1.13105,0.80143 -2.14584,0.55116 -0.0706,-1.04052 -2.23367,-0.68058 -0.13106,-1.12401 -0.69658,-1.40775 1.34864,-2.06435 0.6571,0.31009 0.41463,-1.07483 -1.17955,-0.42961 -0.32332,-0.79231 0.53408,-0.91741 -0.0656,-1.43934 -1.59766,0.78805 -0.66492,0.77402 -1.82459,0.17458 -0.5371,0.84625 -0.2948,0.76464 0.26836,2.92274 0.97887,1.6043 0.21604,1.65182 0.57195,1.09869 -1.37303,1.45305 -0.44522,-0.65104 -1.80429,0.16034 -0.38906,0.62565 -1.81236,-0.0835 -2.92957,1.2412 -1.78157,4.413 -1.12279,0.83268 -9e-5,-1e-5 -1.77271,0.59946 -1.94343,0.6149 -0.64616,2.5099 -5.26565,2.40929 -2.12596,-1.32783 0.67621,3.51667 -3.82243,-0.80292 -2.98042,0.67876 0.15848,2.28625 3.49411,1.21258 1.6801,1.60202 2.3693,3.34729 -0.50337,6.44208 -1.25646,1.96104 -3.87229,-0.10847 -1.99458,0.1719 -2.53283,-0.55947 -3.21553,0.0207 -2.90119,-0.59022 -3.51781,2.3661 0.90548,1.42901 -0.2471,2.35645 0.0485,1.11992 0.4263,1.1962 -0.0163,1.4154 -0.61223,2.01637 -0.24233,1.3603 -1.04686,1.22501 -0.31004,2.21681 0.53149,1.28773 1.10111,0.31395 0.13933,2.09774 -0.50354,2.68172 1.31592,-0.37801 1.3082,0.48294 1.04597,-0.89101 2.33076,0.53156 0.65259,1.97884 0.90251,1.16553 1.23211,0.28658 0.99998,-1.30402 1.60993,-1.21594 2.40319,0.0651 3.20292,-0.0524 1.80528,-2.63843 1.89692,-0.68173 0.5473,-2.21741 1.4419,-1.51644 -0.96682,-1.93569 0.95269,-2.74385 1.50518,-1.85974 0.21343,-1.12488 3.12354,-0.70528 2.27365,-2.21519 -0.16363,-1.92281 0.23961,-1.98403 3.47255,-1.065 4.76448,0.88857 2.0932,-1.85182 0.98247,-0.23964 1.30203,-1.5138 1.07176,-0.4396 1.99996,1.0748 1.21064,0.37934 0.95253,3.23986 1.7636,1.89985 2.36537,2.15704 2.01127,1.50241 1.82205,0.21608 1.1634,1.34257 1.62386,0.60856 0.84505,1.44798 1.05695,0.41883 0.89783,1.69901 1.13536,1.9599 -0.47828,0.72436 -0.35676,1.82342 0.0752,1.04235 1.02078,-0.26287 1.08053,-2.91715 1.01966,-0.20107 0.13176,-1.76588 -1.90008,-1.25058 0.83541,-2.17428 2.18755,0.55221 1.52286,1.57028 0.33828,-1.20481 -0.31881,-0.62713 -2.27855,-1.74676 -1.89285,-1.00999 -2.29633,-1.20406 0.62093,-0.66217 -0.66038,-0.73347 -1.89939,0.0205 -2.92091,-2.66383 -1.4348,-2.71505 -2.37277,-1.64503 -0.90867,-1.65585 0.21808,-0.92344 -0.25765,-1.60357 1.81923,-1.1422 1.91314,0.46839 -0.49775,0.2919 -0.0794,0.0521 0.0457,1.11989 0.79402,1.08312 0.59904,-1.39581 1.56614,0.50939 0.14805,1.09265 1.21322,1.36574 -0.45705,0.24317 2.24009,2.40318 2.29166,0.97464 1.51791,1.18369 2.39872,1.22011 0,0 1.11735,0.65597 0.80005,1.08126 0.53691,0.25695 0,10e-6 0.46797,0.52309 -0.21602,1.03241 0.0446,2.27779 0.38659,1.5973 1.48643,1.12895 0.13044,0.74121 0.44571,0.23605 0.27269,0.96152 1.4826,1.93118 1.14332,1.56211 0.68662,2.26952 1.24028,2.74184 2.23308,1.49663 1.67359,-0.0431 -1.3034,-3.03189 1.55224,-0.35954 -0.94693,-1.74329 2.42541,0.90506 -0.27702,-1.92771 -1.35705,-0.98672 -1.57755,-1.56421 0.8428,-0.74189 -1.43598,-1.58526 -0.80217,-2.00991 0.36782,-0.73634 1.52251,1.72992 1.37197,-0.003 1.17798,-0.54816 -1.95549,-1.88568 2.84525,-0.86933 1.32172,0.31591 1.50511,0.095 0.0681,0.69068 1.00117,1.56263 1.77877,-1.80643 0.88397,-1.03409 2.87262,-0.18412 0.30946,-0.81711 -2.30303,-1.07492 -0.49701,-1.27625 -1.09121,-1.8869 0.4846,-2.35359 1.00853,-1.35698 -0.0395,-3.92486 0.77524,0.30327 1.01734,-0.69637 -0.2132,-0.83294 1.35702,-2.37639 0.51115,-1.76026 2.07769,-0.39241 0.41212,1.18963 3.8113,0.80865 0.84037,0.73438 -2.02044,1.06848 -0.2863,0.61775 2.78082,0.94512 -0.19924,1.52235 1.46112,0.66088 2.81055,-1.87668 2.46064,-0.56009 0.19072,-1.15091 -2.35827,0.19328 -1.32932,-0.77652 -0.5951,-1.99441 1.73071,-1.18988 2.14065,-0.168 1.2907,-1.02881 1.7888,-0.25382 1.94771,-0.51097 0.24553,0.69326 -3.09383,1.29828 1.62485,1.26331 -1.28459,2.68524 -1.59332,0.51541 2.49351,1.90081 3.00476,1.22556 3.71603,2.75958 z m -9.62704,189.56214 0.14723,-0.6396 -0.7868,-1.0117 -0.30872,-2.0844 -1.67187,-2.0701 -0.90766,-2.7214 0.54021,-1.6028 -0.72387,-2.1392 0.60229,-6.0841 0.0122,0.044 0.98822,3.6278 -0.0167,0.1691 -0.16325,1.6432 0.53348,0.5496 -0.12655,1.6205 0.51432,1.4984 -0.68139,1.4564 2.21608,2.5784 0.15034,2.3511 1.30026,3.8769 0,0 0.20952,0.6297 -0.47812,0.2147 -0.58319,-0.7893 -0.95388,-0.3039 0.18784,-0.8137 z m 10.06923,-31.74597 0.68676,1.44468 -0.18883,2.82189 0,10e-5 -1.4091,1.7001 -0.94239,1.722 1.11057,1.3064 -1.62808,0.938 -0.35,-0.4445 -1.6442,0.2266 -1.27583,0.8555 -0.77567,-1.4677 0.55435,-2.6665 0.0977,-2.2936 -10e-6,-10e-5 -0.14006,-1.4745 1.3024,-2.22666 1.7978,-0.54452 1.20775,-0.90785 1.4727,0.75011 0.12411,0.26055 z M 636.037,116.2338 l -0.0235,0.80244 -3.69471,0.90926 -3.73587,-0.59256 -2.18468,-1.72098 -2.55914,-0.71287 -1.42923,-2.51567 -0.5002,-1.68271 0.70326,-0.79221 0.11179,-1.18481 -0.27988,-2.61668 1.95061,-0.27027 -1.00988,-0.90446 -1.18673,-0.15671 -1.90746,-2.37049 -1.77422,-1.75157 3e-5,-3e-5 -3.74679,-3.8917 -0.40302,-2.20945 -3.07396,-3.09216 1.33988,-3.33489 2.11231,-0.52959 0.45588,-1.89919 1.95627,-0.66896 2.21808,-1.39873 2.24624,0.77566 2.27417,-0.15386 1.11468,1.97225 0.66342,3.13441 -2.22337,-0.48159 -1.83125,0.52369 0.6819,2.36709 -2.40866,-0.30835 0.4145,1.05879 1.5756,0.82411 2.0013,2.93955 3.13955,1.12074 0.82051,1.14931 -0.16775,1.37889 0.38394,0.80885 1.41463,2.15666 -0.49479,-2.43813 1.6886,-0.84555 1.29163,1.89836 2.40019,2.00086 -1.82346,1.07036 -2.55667,-0.8214 0.29086,2.82646 1.69259,0.19627 0.0358,2.30954 2.26256,1.14576 0.64271,3.55719 1.13176,2.41907 z m -37.45769,180.73569 -0.85576,3.556 0.19063,4.3141 0.0206,0.5014 0.517,0.1572 0.44577,2.0094 -0.0965,0.4651 -0.89921,-1.4627 -0.54574,0.9395 -0.39634,-0.8055 0.0972,-1.4122 -0.57897,-1.1013 0.11821,-1.6371 -0.68361,-2.7742 0.92113,-2.0964 0.0397,-4.5548 -0.88894,-2.4438 0.10806,-0.4197 0,0 0.19009,-0.74 1.40417,2.0242 0.0539,3.972 0.85342,1.4465 -0.0149,0.062 z m -237.90126,150.8668 0.16955,-1.4511 -3.40767,-0.7292 -3.7771,-1.7599 -2.30425,-2.2189 -1.59142,-1.3821 -1.75565,-0.3533 -1.34253,1.2332 0.43916,2.0305 -0.3397,1.3502 -3.49129,-1.0563 -4.22185,-1.9786 -2.17355,-0.6252 4.97344,3.3169 3.14685,1.5753 3.67011,1.6253 2.4866,0.4187 2.05856,0.8677 1.3958,0.2331 1.09749,0.091 1.31049,-0.8952 0.0461,-1.1714 1.664,1.0234 1.94686,-0.1446 z m -11.31673,-8.5505 1.00992,0.1516 -2.39682,-1.7425 -2.37274,-3.1557 0.18427,-1.435 1.44866,-1.2147 -0.29081,-3.6395 1.88085,-1.7667 -0.48885,-2.8305 -2.50595,-0.6414 -3.33944,-2.3325 -0.39081,-2.4053 1.1372,-1.6524 2.22989,-0.01 -0.16004,-1.7351 -0.97796,-3.2815 1.12725,-2.042 1.82927,-1.0232 -1.36602,-1.7178 -0.93223,1.0436 -2.01402,-0.9961 -1.5814,-3.3049 0.62215,-0.8743 2.79473,1.2162 2.33703,-0.4606 1.05244,-1.1765 -1.04089,-1.6915 -0.35441,-2.5217 -1.19525,-2.0187 2.84094,0.3415 4.75748,-0.7062 3.13364,-1.8238 1.12662,-4.3864 -0.3453,-1.6803 -2.00079,-1.5032 -0.30965,-2.3862 -4.0477,-2.9785 -0.31196,-1.8224 2.07533,1.9307 1.70616,-0.1119 2.7568,1.495 1.28467,-0.3728 2.06465,0.6954 2.39736,-1.9349 0.57385,-2.1949 1.2286,-2.0038 0.41515,-3.347 1.40192,-1.6517 1.69584,-2.8105 1.66644,-6.2745 1.47753,-1.9726 0.28316,-1.7532 -0.14175,-3.641 -0.78275,-1.9969 -0.0583,-2.7071 1.70471,-3.6082 2.74223,-2.9064 2.87647,-1.0684 1.68466,-1.6293 4.08252,-1.4093 2.94986,0.01 0.36803,-2.2019 2.01674,-1.5947 0.0379,-3.8096 2.27764,-4.8321 0.0143,-4.9671 0.74047,-1.4694 0.0797,-2.4589 0.30643,-5.7635 -0.70563,-7.0328 0.5999,-2.7687 0.69502,-0.074 1.87694,-3.2674 1.55631,-4.2679 3.71808,-5.2634 1.33186,-2.4731 0.90079,-6.2709 -0.53962,-2.2978 -1.08936,-4.8397 -1.05448,-1.1998 -2.4258,-0.1525 -2.20729,-1.0974 -3.70559,-4.2639 -4.24333,-3.1515 -4.23608,0.1484 -5.54968,-2.0147 -3.28293,1.174 0.43709,-2.1087 -1.40807,-2.2327 -4.73083,-2.3271 -3.57826,-1.3696 -2.14242,2.5005 -0.11939,-3.81951 -5.01864,-0.59847 -0.88247,-1.14871 2.14759,-3.13704 -0.0538,-2.63026 -1.51065,-0.62896 -1.47439,-6.66094 -0.64869,-2.10552 -0.97046,0.17988 -0.42545,-1.55865 -2.8951,-3.21116 -2.05196,-0.90005 -0.94545,-0.41833 -3.00266,-1.0217 -2.29977,0.27434 -0.33238,0.68527 -3.35999,-0.7614 -1.05908,-1.32318 -1.42815,-1.85351 -1.06099,-0.09 0.0217,-1.95543 -1.60866,-2.47273 -1.76889,-1.39529 -1.04884,-0.89384 -1.47593,0.0856 -0.2424,-3.03612 -1.99854,-1.86191 -2.22991,-0.2844 -0.81904,-1.78608 2.48025,-1.11688 -3.37388,0.0526 -3.50245,0.22801 -0.11287,0.95232 -1.67635,1.18183 -2.11379,-0.46761 -1.46518,-1.6938 -3.03898,0.38856 -2.52231,-0.0332 0.005,-1.25172 -1.62333,-2.10677 -1.96303,-0.0613 -0.7332,-2.65203 -1.10897,1.19028 0.20706,1.77946 -3.65059,1.5358 -0.12866,2.86258 0.75388,1.33187 -0.8639,2.73732 -1.23533,0.24603 -0.81093,-3.00476 1.44206,-2.19774 0.2241,-1.97716 -0.74371,-1.71446 1.69364,-0.44072 0.17275,-0.892 0.68006,-1.27045 -0.62689,-0.99208 -0.96708,-0.23097 -1.55736,1.81699 -1.18394,0.84376 -2.40968,1.90678 -2.16492,-0.31525 -0.30546,0.78743 -1.77796,0.0718 -1.79134,1.75405 -0.82674,3.19699 -0.1417,1.25242 -1.19629,0.40312 -2.34267,2.64541 -1.4476,-0.12039 -0.97158,-1.04745 -0.81932,-1.14009 -1.19426,-0.65428 -1.55908,-0.12918 0.13995,-0.37252 -1.53426,-0.2222 -1.06838,1.13182 -1.78238,0.76412 -1.28624,0.95714 -1.41211,0.27393 -0.6906,-0.93128 -0.29453,0.30824 -1.10949,-0.17038 0.13272,-0.8028 -0.8806,-1.35859 -1.1586,-1.61591 -0.92654,-1.52269 -0.48315,-2.05426 -0.35912,-0.62079 -0.0102,-1.02096 0.691,-0.9656 -0.07,-0.99679 0.46719,-1.61347 0.47622,-0.37041 0.15423,-1.69668 -0.0179,-0.9708 0.32291,-1.65851 0.51855,-1.51327 0.83281,-1.28008 -0.0759,-1.37416 0.27189,-0.83784 0.29605,-0.36004 -0.56895,-1.0316 -0.91904,-0.57417 -0.666,-0.83997 -0.73141,-0.70005 -0.42721,-0.0826 -1.18073,-0.51926 -0.60784,0.32481 -0.74189,0.0876 -0.62132,-0.25421 -0.85176,-0.19373 -0.39851,0.41911 -0.96563,0.41419 -1.30193,0.0978 -1.23269,-0.33788 -0.46375,0.18597 -0.20439,-0.30525 -0.80468,0.0537 -0.72512,0.65838 -0.26324,-0.14633 -0.73124,-0.47809 -0.33811,0.55803 -0.78641,-0.67741 0.78403,-1.29629 0.5231,-0.11909 0.72689,-0.99215 0.67511,-1.88789 -0.10671,-0.35703 0.54821,-1.33503 -0.12874,-0.57676 0.76915,-1.61172 0.25214,-1.01261 -0.51942,-0.0171 0.10252,-0.54587 0.59025,-0.062 0.50314,0.9557 1.29357,-2.90159 0.75601,-1.60474 -0.36582,-0.64595 1.1542,-2.25577 1.97403,-2.19855 0.50879,-1.77841 -0.46866,-0.78204 -1.73059,0.31233 -2.38605,-0.12845 -3.09604,0.85568 -2.08601,0.96679 -0.73282,1.08018 -0.95286,3.10948 -1.14341,2.16344 -2.08563,1.5155 -1.87391,0.63754 -2.21026,0.66839 -2.18527,0.37575 -2.64734,1.04021 -0.79735,-1.55685 -2.70324,-0.98643 -0.65098,-1.82867 -0.1325,-2.11601 -1.13039,-2.75583 0.20242,-2.86431 -0.36015,-1.79746 0.0857,-2.00733 0.77261,-1.79395 1.65391,-4.90592 1.28627,-2.626 2.06499,-3.19297 -1.08109,0.10893 1.08112,-0.10894 -0.10398,-1.23374 0.44763,-1.73889 0.88062,-2.4937 1.17933,-1.62244 2.05831,-1.7181 3.18545,-1.5483 3.36601,-2.65534 2.52114,-0.83492 1.72765,-0.25041 1.61456,0.82685 2.45539,-0.4456 1.30137,1.89017 1.8761,0.1114 1.22405,-0.67917 0.7972,0.52811 0.66366,-0.47063 -0.31612,-0.7067 0.54802,-1.44866 -0.13789,-0.94799 1.28205,-0.55577 2.08658,-0.24542 2.18855,0.39378 3.11914,-0.44754 1.3418,0.88127 0.71513,1.66457 0.41182,0.17853 3.18969,-1.6199 0.84414,0.54728 1.0874,2.99067 0.12373,1.97245 -1.27221,2.38682 -0.0224,1.40993 0.4356,2.764 0.54594,3.11739 0.79203,0.83552 -0.002,1.59588 1.20751,0.44154 0.92434,-0.45938 1.2582,-2.22028 0.49798,-1.41166 0.75803,-2.44163 -0.0577,-4.18483 0.44709,-1.55365 -0.40079,-2.5386 0.0861,-3.05718 0.34224,-2.47262 1.24513,-2.52106 1.94077,-2.0966 2.04139,-1.67906 3.63279,-2.2824 0.78213,-1.17691 1.75797,-1.28605 1.36219,-0.22426 2.41371,-2.04704 3.01317,-1.03231 2.54616,-2.57605 0.91856,-3.45458 0.18771,-1.18978 -0.63207,-0.23744 1.1571,-3.2571 -1.28268,-1.0978 1.43635,0.53398 0.33341,-2.1578 1.0761,-1.46551 -0.84912,2.81963 0.76098,1.30231 -1.67823,2.32685 0.17647,0.1361 2.46789,-2.73059 1.3197,-1.32356 0.47104,-1.28384 -0.37487,-0.60345 0.22408,-1.82148 0.46754,0.84495 0.47296,0.17607 -0.16468,0.86979 2.8486,-2.60185 1.5199,-2.41561 -0.65872,-0.15385 1.13272,-0.92861 -0.24378,0.41092 1.56445,-0.007 3.83973,-1.00361 -0.46477,-0.63273 -3.85077,0.62905 2.4399,-0.96653 1.487,-0.16452 1.1298,-0.16663 2.04112,-0.58088 1.14347,0.0647 1.86191,-0.53938 0.58018,-0.9485 -0.4254,-0.73625 -0.24148,1.21024 -0.97428,-0.083 -0.0723,-1.75588 0.76257,-1.7496 0.7229,-0.7399 2.10459,-1.94679 2.93879,-0.96672 2.92861,-1.12457 3.20496,-1.57281 0.0451,-1.0605 2.79229,-0.39317 3.82104,-0.1056 -5.22353,2.6772 -1.0428,2.76005 1.72112,0.24039 3.61123,-2.3514 2.88399,-1.31459 6.00362,-1.92522 3.73782,-2.10779 -1.05291,-1.16008 0.77315,-2.31111 -3.79793,3.58872 -4.07032,0.46478 -2.3743,-1.6012 0.27825,-2.40479 0.7847,-3.40575 3.12094,-2.10389 -1.31381,-1.52682 -3.55076,0.30978 -6.04091,2.60152 -5.68839,4.14711 -2.22384,0.52243 4.07147,-2.92393 5.32379,-4.14576 3.57003,-1.37582 2.97399,-2.21339 2.43515,-0.21269 3.3668,0.0221 4.51864,0.64734 4.03362,-0.4992 3.93675,-2.51307 4.14787,-1.08008 2.05598,-1.06227 2.09695,-1.13299 1.31674,-3.35632 -0.37147,-1.11602 -1.51071,-0.3918 0.30883,-2.48023 -0.93032,-0.92782 -3.03849,-0.74918 -1.07271,-1.64612 -1.9613,-1.61177 1.80444,-1.77933 -0.43198,-3.35249 -0.61785,-3.49513 -0.10136,-2.40256 -2.10602,1.24608 -3.79359,2.99778 -3.91322,1.52935 -0.4733,-1.62187 -1.59258,-0.42778 1.57151,-3.41804 1.56785,-2.23047 -3.40346,-0.19945 0.1188,-1.01751 -1.33339,-1.5056 -1.17347,-0.87183 -2.12747,0.67561 -1.82087,-0.25064 -2.80299,-0.69846 -1.82686,0.59237 -2.49855,4.0774 -0.93115,2.41786 -4.48103,2.8469 1.01206,2.07465 -0.23186,2.37174 -1.10272,1.88779 -2.49154,1.98778 -3.74393,2.0194 -4.32929,1.36123 0.50929,1.53849 -1.82662,4.67982 -3.08988,3.09529 -2.31197,0.98773 -1.5219,-2.87065 0.56931,-3.34231 1.30566,-2.9626 2.08004,-2.52136 -2.12686,-0.27933 -3.4033,-0.16674 -1.37076,-1.2131 -2.0673,-0.789 -0.48568,-1.34686 -1.2625,-1.07683 -2.90925,-1.21919 -3.37058,0.55542 0.78664,-2.12337 1.27394,-2.58645 -2.60493,-0.45634 2.92167,-3.14408 2.69423,-2.09834 4.88019,-2.94426 4.34402,-2.07931 2.55494,-0.31802 1.67203,-1.6386 2.51347,-1.05313 2.88733,-0.16421 3.76586,-1.66348 1.55326,-1.06144 3.72183,-2.0155 1.68741,-1.18003 1.23408,0.70569 2.9129,-0.36226 5.11391,-1.62417 1.27141,-1.11192 -0.12896,-1.20658 2.47399,-1.18312 0.94501,-1.08457 -1.3159,-1.06768 -2.28351,-0.31331 -2.32845,-0.16277 -2.53937,2.36705 -3.25164,1.91791 -3.545,1.64285 -0.20141,-1.53459 2.24847,-1.65342 -0.64065,-1.40544 -4.22063,1.71498 2.42279,-2.22957 -2.7991,-0.43266 2.72618,-1.03892 0.31258,-2.31887 -0.68613,-0.88258 -1.8661,-0.317 -3.79155,1.44983 -2.87762,2.28192 1.04616,0.85602 0.37529,1.32818 -3.2921,2.21956 -1.3835,-0.0602 -3.1594,1.80571 2.39729,-2.13795 -1.92031,-0.75263 -2.04192,0.38664 -1.39854,1.39334 -2.57864,-0.0542 -3.23299,0.35924 -1.98478,-1.01591 -2.23116,0.17874 -0.31505,-1.20937 -0.78286,-0.52547 -1.70672,0.21961 -2.30516,0.10141 -2.12899,0.7577 0.6353,0.94982 -3.41328,1.14764 -0.21082,-1.35836 -2.04647,0.39391 -5.2377,0.26677 -2.62882,-0.4843 4.02451,-1.10937 -0.89385,-1.11668 -1.94032,0.14089 -1.93308,-0.37083 -3.01736,-0.79409 -1.38123,-0.89836 -1.94605,-0.12259 -1.59478,0.62183 -2.69744,0.35212 2.20807,-1.61309 -4.53747,1.43922 -0.0286,-1.89694 -0.85269,-0.22183 -1.94911,0.98588 -2.08877,0.49474 0.18358,-0.87512 -3.70758,0.52475 -4.14199,0.93538 -2.19674,-0.26137 -3.23563,0.67064 -3.03807,0.90597 -1.52778,-0.2008 -1.05851,-1.04078 -2.41361,-0.51548 -1e-5,0 -1.39737,-0.29751 -1.54841,-0.63439 -2.93617,0.34223 -0.86014,-0.27393 -3.00718,-0.19736 -2.46183,-0.65865 -2.16218,0.20767 -1.9989,-0.35261 1.00321,-0.47374 -2.6897,-0.12295 -1.53501,0.39765 0.53751,-0.92297 -1.76887,-0.42429 -4.79862,1.08338 -1.31939,-0.13716 -5.11519,0.91593 -2.17352,0.23823 -3.78372,0.99998 -2.48073,1.04085 -4.18487,0.98846 -3.30061,0.0711 -3.28233,1.15553 1.09796,0.70558 -0.10931,0.96204 -0.86,1.14253 0.6208,0.88074 -1.14421,1.45145 -4.08273,0.0919 2.4048,-1.17327 -1.51493,0 -6.25352,1.147 -4.45947,0.99384 -0.19081,1.39751 -0.97171,0.97864 1.73122,0.58762 3.16802,-0.27546 0.55115,0.54207 1.52266,-0.54277 2.93608,-0.5326 1.20878,-0.0277 -3.03776,0.94508 0.30195,0.44373 -1.57404,1.13388 -2.77468,0.77687 -1.03118,-0.21614 -3.61144,1.21597 -0.64186,-0.40459 -1.87718,0.18462 -2.90263,1.3048 -3.99838,1.43412 -3.24113,1.49408 -0.30309,1.1179 -2.40901,1.49962 0.35199,0.64011 -0.27974,1.25986 3.42457,-0.51565 -0.17966,0.95939 -1.8837,0.99408 -2.27683,1.62675 1.25402,0.002 3.67858,-1.0957 -1.26342,1.36584 2.00744,-0.98417 -0.71271,1.39276 2.57302,-0.99958 -0.0306,0.47206 3.57152,-0.83104 -3.397,1.62308 -3.36637,2.10672 -2.93338,0.98937 -1.25871,0.56348 -5.27767,1.69449 -2.66392,1.16913 -3.07418,0.32363 -4.44196,1.57275 -3.31856,0.89269 -4.21018,1.35856 -0.33269,0.49074 4.8232,-0.83325 3.10382,-0.97185 3.50997,-0.98506 3.08331,-0.80315 1.15682,0.22117 4.15145,-1.22647 2.50261,-1.33836 5.29277,-1.4616 2.247,-1.24438 3.26965,-0.85232 3.85282,-1.1631 4.73612,-1.97807 0.4092,-1.3239 5.70464,-1.92004 3.97587,-1.77477 4.71408,-1.46952 -0.43299,0.65963 -3.31642,0.81359 -4.72657,2.62288 -1.99393,1.59715 3.07178,-0.57761 3.07908,-0.91343 3.1331,-0.56179 1.35823,-0.17245 2.2334,-1.85469 3.02044,-0.56054 0.76393,1.13047 2.23815,1.22876 3.10083,-0.2288 2.23086,0.96005 1.25645,0.51281 0.55148,2.83366 1.41142,0.79437 3.19139,0.0678 1.75967,0.17902 -2.05364,2.63523 0.0293,2.28777 -2.23834,2.49707 0.85345,0.92053 -0.0211,1.09107 1e-5,-10e-6 -1.58146,1.50329 0.35682,2.13562 -2.08994,2.39473 1.52554,1.27427 -2.14809,1.84839 -1.36824,2.68908 2.86495,1.26702 0.38121,1.32809 1.66216,3.04193 0.29899,0.008 -1.44314,2.5639 -1.81574,2.58495 -1.27021,0.83661 1.284,-2.9817 -2.39875,-1.06627 -0.81253,0.61249 -0.59123,1.46092 -1.56084,2.70911 -3.09268,4.29195 -2.61412,2.93324 -2.57659,2.95618 -3.27257,3.09334 -1.09299,2.53271 -1.9622,2.85215 -2.47949,2.77375 0.0539,1.83707 -1.50204,2.75536 0.077,2.84781 0.38773,1.12698 -0.58619,0.79171 -0.81602,4.77638 0.43834,3.47713 -0.76758,1.90639 0.33887,0.56245 2.18839,0.34388 0.40163,0.94401 1.34479,0.17543 -0.25748,1.00307 0.97731,0.41892 0.61589,2.01666 -0.48392,1.79699 -0.52553,3.17594 -0.15445,2.83394 -0.11694,2.33307 -0.0432,2.22869 1.10564,0.9903 0.92391,2.55721 -0.7845,1.62128 -1.54565,1.34483 -1.0094,-0.20434 -0.3069,0.27193 0.7094,2.09497 1.29375,0.87475 0.30026,0.94287 0.53619,-0.46586 1.20687,1.61593 0.84656,1.12415 -0.32957,1.96859 -1.05872,2.66474 1.04938,0.92669 1.33252,1.76629 1.06644,2.08637 -0.0146,2.22968 0.47548,0.0176 1.57861,-1.34785 0.28075,-0.65653 -0.43833,-1.63512 -0.51794,-1.66123 -1.25999,-0.12072 0.52693,-1.92461 -0.13472,-1.70683 -0.21268,-1.59256 0.38939,-3.37333 -0.95574,-1.84012 -0.0556,-1.27802 -0.43501,-0.91704 0.42863,-2.32044 -0.49169,0.0499 0.17285,-1.2332 -0.29262,-0.25607 -0.0722,-0.84389 -0.87203,-2.46379 -0.23761,-1.47077 0.97862,-2.67166 0.37275,-1.70214 1.1075,-1.4371 1.01759,0.9747 0.94289,-0.15422 1.22363,1.40541 -0.67061,1.36357 -0.3052,2.72619 0.23446,2.69491 -0.36422,1.11904 0.50474,1.74546 0.76162,1.89412 1.30993,0.29299 -0.33389,2.51672 0.89762,1.75705 1.04325,0.84459 -1.23916,2.24184 0.1703,0.88756 1.77537,1.48539 0.52083,2.27237 1.7611,2.85473 1.22855,3.64412 0.34453,1.85488 -0.19163,1.46474 0.43703,1.65513 -0.37833,1.27625 -0.89893,0.95818 -0.0116,1.05431 -1.01361,0.3611 0.16334,1.8043 0.76172,2.33863 2.42557,2.10828 0.73489,1.69725 2.54499,1.17869 1.49434,0.22226 0.46943,0.99534 1.91699,1.78301 2.76399,1.73635 1.96987,0.52371 2.24555,1.71574 1.94152,0.7121 1.7725,0.98697 1.47198,-0.36921 2.50285,-1.40846 1.60388,-0.27186 2.08125,0.97608 1.20693,1.21613 2.4398,4.03804 1.24403,1.55 1.15667,0.74571 1.73142,0.0679 1.33032,0.65594 0.66693,0.80772 1.51801,0.23363 1.04459,0.74823 0.95385,0.3606 1.61231,0.0562 0.44028,-0.88638 0.80129,0.32726 0.31341,1.17796 -0.24979,0.26618 -0.38115,-0.56696 -0.39398,0.58243 1.16623,1.70202 1.02251,1.1852 0.45203,1.27184 1.12071,1.52312 0.82779,1.1899 -0.7303,0.72998 0.73194,0.53279 -0.50773,1.19108 -0.14331,1.15174 0.30265,0.76269 0.86517,0.37399 0.53524,1.05066 0.6551,-0.90472 -0.0648,-1.10038 0.66672,0.6762 0.0706,1.10739 0.92086,0.48541 1.03546,0.74447 0.69447,0.90709 0.0242,0.83734 -0.38495,0.6581 0.50183,0.7959 1.4587,0.84157 0.2758,0.57358 0.1568,-0.82329 1.21179,-0.006 0.69499,0.44367 1.13688,0.252 0.44693,1.52669 0.91429,0.22281 0.41819,-0.64524 0.317,2.26766 1.32909,-0.19377 0.44974,-0.5626 0.80761,-0.48503 -1.18599,-2.05975 0.34167,-0.78937 0.62683,-0.1324 1.22021,-0.95256 0.68664,-1.31863 1.25532,-0.24146 1.31311,1.05356 0.42159,1.25282 0.69387,0.25988 -0.77852,1.01333 0.44931,2.04846 0.86354,1.09525 1.00853,2.0231 0.25234,3.21435 -0.66201,0.99827 0.46717,3.47996 -0.62789,2.20883 1.01039,0.90589 -1.15429,1.99748 -1.26421,2.3933 -1.41404,0.25539 -0.69839,1.37973 0.0881,1.90853 -1.06376,0.28588 0.36726,1.18288 -1.96914,1.51653 -1.56225,0.81742 0.18916,1.55515 -1.07523,2.45436 -0.50832,2.374 -0.98867,0.5746 0.53178,3.4582 -0.55322,1.0739 1.74084,1.6693 1.04127,-1.7689 0.65394,1.6636 -1.42398,2.8462 -2.17042,2.4044 -0.76401,2.6655 1.5637,3.628 -0.81477,1.6966 2.11424,1.5385 2.36692,2.4791 1.09891,2.7956 1.29403,1.7288 3.35691,7.5417 3.53448,6.9688 2.98404,4.9436 -0.31664,1.0839 1.57996,3.1039 2.47842,2.3125 5.59247,4.0955 6.07411,3.7509 0.48322,1.53 3.11618,2.1385 1.46321,5.2316 1.31465,6.0533 0.81622,8.217 0.83707,7.5759 1.23702,7.0015 -0.39626,4.3901 1.53518,4.4132 0.0618,2.9354 2.18955,5.3007 0.56426,5.231 0.10547,5.5676 0.43999,5.567 -1.01827,0.1115 1.66046,3.8493 2.00493,3.311 -0.21311,2.3061 1.75398,6.1934 1.32257,4.7217 1.72133,0.462 -1.05663,-4.1136 2.00324,0.8794 1.77078,6.7896 -3.17381,-1.1452 1.74734,5.3746 -0.8239,2.8273 3.99977,0.9279 -1.20096,2.4463 0.61336,3.0194 3.1802,5.2783 2.27201,2.033 0.38601,1.7787 1.80246,1.9092 3.73558,1.7128 -1e-5,-10e-5 3.70871,2.0678 3.00901,0.959 0.87823,-0.068 -1.226,-2.7673 1.37999,-1.0789 0.65729,-0.7373 1.97328,0.023 z m -55.06033,-358.67444 1.7079,-1.2413 1.60818,-0.49156 0.98537,-0.7616 0.76962,-0.4065 1.73099,0.62875 1.52865,0.075 0.29102,0.4181 -0.30531,1.77797 2.30441,0.47296 -0.93237,0.89692 0.3768,0.92829 -1.08718,1.20537 0.74928,0.39916 -1.091,1.0709 -0.004,0.004 -0.63955,-0.12899 0.0177,-0.89246 -2.44848,0.27818 -2.48007,0.71002 -0.93211,-1.21421 -1.07807,-0.40545 1.74603,-1.67119 -2.67632,1.04837 -2.48446,1.02892 -2.28715,0.81005 -0.76177,-1.09357 -2.73939,0.6628 0.29599,-0.46705 2.40634,-1.33799 2.43001,-1.26452 2.99902,-1.03946 5e-5,-3e-5 z m 9.20331,5.075 0.70203,-0.4691 0.0626,0.70707 1.53454,0.3969 1.76132,0.0337 1.72105,0.32679 1.76603,0.62101 0.23687,1.00779 0.25759,2.47135 -1.30624,1.07263 -1.70262,-0.44709 -0.15897,-2.00107 -0.75707,2.03829 -2.05764,1.80684 -0.65695,1.55031 -0.6546,0.91491 -2.09545,1.08674 -4e-5,1e-5 0.5527,-1.34638 0.53242,-1.89691 -0.71485,-0.32612 -2.22104,1.43703 -0.46151,-0.0272 0.30258,-0.82252 1.98952,-1.30387 0.99325,-1.48006 0.58899,-1.4695 -1.06477,-1.25687 -1.64448,-0.64294 -1.00441,1.22249 -0.70009,0.32805 -1.28921,1.59573 0.37248,-1.08501 -1.36985,0.77411 -1.1855,1.08843 -1.48385,1.59574 -0.85959,1.3853 -0.2714,2.02864 -1.18703,2.1746 -1.80276,1.61351 -0.72357,0.45883 -0.84085,0.36552 -0.83558,0.0181 -0.10937,-0.2253 0.23949,-1.74263 0.42746,-0.85901 0.4906,-0.81434 0.55062,-1.61056 1.45089,-1.85365 1.77745,-2.27031 2.6116,-2.49135 -0.36176,0.0114 -2.90159,2.08482 -0.10804,-0.38356 1.58,-1.16644 2.58047,-2.08254 1.76091,-0.28904 2.19133,-0.64155 1.65501,0.33832 0.0707,0.0144 2.2257,-0.28931 -0.45556,-1.27512 1e-5,0 z m -4.47594,14.088 1.22909,0.20872 2.30714,-1.05434 1.50305,-0.92354 0.7902,-0.15033 1.16702,0.3321 0.88788,-0.51313 1.37531,-0.41635 2.29098,-0.40471 -2e-5,8e-5 -0.10668,0.32338 -3.01063,1.97048 -2.27852,0.95798 -1.46023,0.44721 -1.87355,0.91884 -1.97206,0.44259 -1.13356,-0.17037 -1.16999,-0.68784 1.45452,-1.28078 5e-5,1e-5 z m 11.8092,-3.90927 -0.13239,0.0377 -0.81492,0.16981 -0.80708,-0.31124 1.26236,-1.12047 0.91814,-0.38665 1.9176,-0.47611 2.23177,-0.44418 0.76348,0.61739 1.007,-0.71562 0.97154,-0.45148 0.39236,0.23893 0.003,0.0509 0.0278,0.45618 -0.45598,1.27165 -2.30333,1.08158 -1.83799,-0.27177 -1.82694,-0.12183 -1.31645,0.37521 z m 77.92384,376.09581 1.49689,-0.7296 0.2123,-0.8325 -1.51569,-0.6408 -1.33113,0.2962 -0.60793,0.786 -0.98966,0.6349 -1.38494,0.2917 -1.02939,0.4846 -0.68151,0.771 -1.7213,0.1439 -0.76027,0.6215 -0.57125,0.6653 -0.003,1.0365 -0.99428,0.7004 -0.72981,0.7418 -0.54336,0.873 -0.49004,0.6833 -0.0954,1.0374 0.91038,0.8918 1.11733,0.9696 0.41115,0.871 0.0291,0.9037 -0.17281,0.808 0.52442,0.8401 0.79838,0.8296 1.06655,0.7374 1.22949,0.8088 1.28752,0.7978 1.21001,0.7864 0.89994,0.8132 0.33011,0.8381 -0.4609,0.6004 -1.27795,0.4082 -1.89609,0.2579 -2.15145,0.2199 -1.78221,0.2551 -1.23634,0.4696 -1.32986,0.3933 -2.02325,0.1774 -1.75759,-0.6067 -2.1038,-0.3973 -2.0939,0.1811 -2.43741,-0.7291 0.0459,0.6568 -0.56282,0.6821 -2.41324,-0.3936 -2.25878,-0.2162 -2.26549,-0.072 -2.2007,-0.7304 -1.88773,0.1838 -2.31839,-0.3314 -2.34752,-0.8578 0.25444,1.4451 -2.04618,0.1456 -2.23351,-0.4382 -1.7921,0.2196 -1.83112,0.3637 -1.82827,0.2526 -2.38629,-0.1082 -1.56797,-0.6544 -2.42437,-0.5531 -2.3642,-0.2977 -2.02686,0.1118 -2.35704,-0.1118 -1.64011,-0.2622 2.50242,1.4051 1.30054,0.6858 1.87026,0.6744 2.32422,0.1405 1.66155,0.6259 1.85422,0.5813 0.15993,0.738 -2.64502,-0.2999 -2.53114,-0.2352 -2.55327,-0.067 -1.63256,0.3027 -2.1434,0.1003 -2.58043,-0.4707 -2.51049,-0.2036 -2.94086,-0.6528 -0.91509,0.5164 -1.95732,-0.5859 -1.54394,-0.6305 -1.93691,-0.5692 -0.8005,0.6397 -1.47665,0.3161 -2.67602,-0.3866 -1.5554,0.2815 -0.83141,0.5223 -2.13572,0.069 -2.49853,-0.035 -2.43548,-0.034 -2.1637,0.069 -2.739,-0.1729 -2.52126,-0.1738 -1.73101,0.243 -2.18862,0.035 -2.74553,-0.3125 -2.00751,0.2433 -1.37858,-0.1388 -1.47871,-0.1045 -1.29127,0.3816 -1.05877,0.3776 -1.4342,0.4074 -1.87706,0.1683 -2.26043,0.034 -1.02506,0.4334 -1.81579,0.3294 -2.07759,-0.5621 -1.49462,0.2988 0.72479,0.5893 1.81688,0.6097 1.29501,0.5972 -2.0794,0.155 -0.70518,0.5204 -1.08127,0.4206 -1.39223,0.3255 -2.17318,0.1464 -2.73597,-0.6513 -2.04171,0.2091 -2.26082,0.1484 -2.50395,-0.4778 -1.11804,-0.1513 4.37633,1.6976 2.37914,0.5012 3.00944,0.435 2.16205,0.5035 3.28257,0.1302 3.17929,0.1805 3.32793,0.077 3.09459,0.3784 2.73975,0.3449 1.65452,0.5024 -0.33114,0.3932 -1.50907,0.4251 -1.92112,0.3247 -3.03725,-0.3687 -3.05627,0.1751 -3.80209,-0.065 3.14978,0.344 2.04139,0.3737 3.15193,0.2808 1.26252,0.405 0.29435,0.3494 0.34605,0.3671 0.67047,0.3789 4.34047,0.1725 1.95142,0.2992 5.10436,0.1704 5.77914,0.028 0.4252,0.318 -3.61173,0.1727 -3.39324,0.1745 -3.92941,-0.1865 -6.4454,-0.1229 -3.7223,0.1707 -5.95084,-0.1458 -3.80179,-0.205 -4.58857,-0.1757 -2.84672,-0.2418 -0.92879,-0.09 -1.87973,-0.1808 -3.90617,0.1373 -0.21027,0.043 -0.98221,0.3063 -2.96999,-0.3063 -0.18704,-0.01 -0.22439,-0.01 -0.86158,0.2371 -0.0961,0.025 -3.28679,-0.2317 -0.0647,0.4206 -0.0995,-0.01 5.43617,1.838 510.99284,0 5.43617,-1.838 -2.00922,-0.1692 -2.67228,-0.231 -4.54802,0.1886 -0.4743,-0.2198 -0.11892,-0.059 -3.73683,-0.1689 0.35025,-0.4049 -2.63398,-0.2743 -1.47059,-0.2859 -1.28354,-0.2974 -0.95874,-0.3287 -0.31424,-0.3824 0.34424,-0.4409 -1.0801,-0.371 1.85177,-0.4291 1.741,-0.4443 1.68785,-0.5824 3.07083,-0.7351 3.04759,-0.052 3.05962,-0.2885 3.30673,-0.2128 0.86622,-0.5981 -2.42238,-0.1941 0.48797,-0.5081 0.97139,-0.5495 0.50297,-0.5928 1.31662,-0.5767 1.81486,-0.7156 1.80044,-0.6051 2.22611,-0.6835 2.38333,-0.5308 2.57303,-0.6416 2.2923,-0.6882 2.9935,-0.3841 2.40636,-0.6368 2.82212,-0.2864 2.49679,-0.7613 2.07478,-0.6634 2.6746,-0.862 2.41062,-0.6858 1.89602,-0.773 0.0677,-0.5874 -0.93577,-0.3952 -0.77473,-0.478 -1.34135,-0.2806 -1.73444,-0.1611 -2.15402,0.04 -1.61975,-0.1209 -2.08611,0.04 -1.28513,-0.3235 0.1341,-0.7345 -1.01436,-0.4944 0.75846,-0.8329 -1.55497,-0.2519 -1.7457,-0.2106 -0.60492,-0.5081 -0.0871,-0.6835 -0.4656,-0.6034 -2.49465,0.7322 -1.94559,-0.043 -1.19549,-0.3436 -1.79859,-0.3455 -1.62809,-0.3904 -1.01824,-0.5677 -1.03672,-0.5277 -0.0421,-0.6646 1.78594,-0.8498 -0.0874,-0.7222 -1.74939,-0.1815 -2.26116,-0.091 -1.80004,0.045 -2.40959,0 -1.87089,0.1363 -2.47889,0.045 -2.29617,0.1361 -0.90943,-0.4086 0.4386,-0.7768 0.85782,-0.9688 1.28339,-1.0727 -0.19556,-0.6586 -1.53673,0.9864 -2.25003,1.1614 -1.94484,0.1844 -2.04613,0.2301 -2.09873,0 -2.01677,0.092 -2.52427,0.3665 -2.25791,0.4106 -1.36189,-0.2279 -1.2944,-0.2284 -1.66051,0 -2.24898,0.3652 -1.58867,-0.228 -1.21395,-0.3205 -1.91464,0.1833 -2.23114,0.729 -2.43409,0.723 -2.14293,0.1798 -1.98128,-0.2248 -1.39613,-0.5873 -0.47477,-0.5913 -2.13762,0.091 -0.34851,-0.7324 0.004,-0.7383 -0.86757,-0.4645 -2.02578,0.5108 -2.1867,0.093 -2.13068,0.6914 -2.31503,0.6404 -2.37543,0.3186 -2.31181,0.2722 -1.68692,0 -1.73984,-0.045 -0.65642,-1.4157 -0.26297,-0.8324 -0.67204,-0.6523 -0.83411,-0.328 -4.33504,1.7665 -1.99678,0.6426 -1.81812,0.774 -2.09497,0.7673 -1.53815,-0.3152 -2.0359,0.3152 -1.96583,0 -1.98936,0.3138 -0.85284,-0.4938 -1.39294,-0.1352 -1.38707,0.2252 -1.66883,-0.045 -1.67128,-0.1802 -2.03501,0.2701 -1.56705,-0.18 -1.08139,-0.4515 0.23239,-1.0937 -0.0509,-0.6441 -2.47757,1.5564 -1.95545,0.6329 -1.87204,-0.1352 -2.05294,0.2703 -1.86069,0.2246 -1.6081,-0.2246 -1.66133,0.3591 -1.41221,0.4019 -1.70445,0.7542 -1.93466,0.4403 -2.2938,0.5686 -1.9951,0.8232 -1.28428,0.8143 -1.66224,0.8471 -2.11147,0.3358 -1.99171,0.2509 -2.0748,0.083 -1.28974,0.2081 -1.85712,1.0298 -1.10723,0.731 -1.63313,0.6023 -1.52273,0.6355 -1.24979,0.7451 -1.64114,0.773 -2.27416,0.3441 -1.7895,-0.1908 -0.75922,-0.6157 1.51611,-0.8193 1.52842,-0.7522 0.93047,-0.8028 -1.97185,0.041 0.44616,-0.8134 2.02734,-0.7827 2.14316,-0.5411 1.02315,-0.9683 0.5323,-0.5535 0.40773,-2.3008 -1.80488,0 -1.63179,-0.1765 -1.4971,-0.2655 -1.57373,-0.2665 -1.34377,-0.4905 -2.25207,0.9341 -1.77406,0.441 -1.6373,-0.1321 -1.04964,-0.619 -0.77569,-0.624 -1.99393,-0.2688 -0.68791,-0.6307 -1.11201,-0.772 0.46866,-1.0091 -1.07941,-0.648 -1.60407,-0.2325 -1.55585,-0.1397 -1.82509,0.1862 -2.07567,0.3717 -1.79425,0.4623 -1.92714,0.6435 -0.83228,0.8206 -1.81799,0.5428 -1.6938,-0.045 -1.53082,0.6294 -2.08089,0.8021 -1.56039,-0.2665 -1.68106,0.4879 -1.76581,0.5289 -1.66225,0.4817 -2.3333,0.4351 -1.90638,0.3033 -2.21355,0.7312 -1.78828,0.384 -1.07112,0.9301 -2.03335,0.5018 -1.05844,-0.5439 -0.90342,-0.7604 -1.91587,0.1697 -1.31132,-0.5103 -0.37525,-0.7727 -1.71718,-0.3458 -1.30765,0.7332 -1.44621,1.1916 -1.57929,0.5882 -1.87303,0.2088 -1.79119,0.3741 -1.75329,0.5777 -1.93363,0.2459 -1.8384,0.2858 -1.95685,0.041 -1.97719,0 -2.06933,0.081 -2.01025,0.3647 -0.95567,-0.609 -0.63464,-0.6975 -1.85546,-0.124 -1.89805,-0.2486 -1.84775,-0.041 -2.08108,0.083 -1.93934,0.2484 -1.58674,0.7802 -0.54103,-0.7802 -2.27885,-0.124 -1.87409,0.577 -0.90745,0.8148 -2.02712,0.4034 -0.89056,-0.728 -1.14578,-0.9845 -1.84945,0.2888 -1.25077,-0.5374 -1.13107,0.7429 -1.54011,0.4495 -1.96447,0.3249 -1.79414,0.4839 -1.94313,0.2806 -1.96896,0.2791 -1.75975,0.3568 -1.88404,0.6677 -0.74409,-0.826 -1.95829,-0.1191 -2.15058,0.2379 -2.20388,0.3547 -2.05778,-0.118 -0.49219,-0.7533 -1.87707,-0.1999 -0.80655,0.7955 0.003,0.7451 -2.05101,-0.078 -0.91461,-0.6671 -2.06919,-0.1187 -1.16978,0.5513 -0.7019,0.9319 -1.21191,0.7636 -1.61861,0.6024 -1.76265,0.4466 -1.6669,0.3689 -0.98969,0.5838 -0.42146,0.7541 1.83868,0.4245 -0.33647,0.6973 -1.42525,0.5145 -1.3014,0.574 -2.12119,0.5314 -1.66537,0.3928 -1.84308,0.3878 -1.88231,0.3194 -2.27954,0.2215 -2.45221,0.063 -1.0495,0.1254 -2.07294,0.2184 -2.07098,0.278 -1.17375,0.6075 -1.721,0.446 -1.70808,0.4378 -2.47206,0.344 -2.06039,0.3386 -0.54144,0.3057 0.32948,1.0197 0.6825,0.4885 2.99959,0 3.05287,-0.2039 2.9527,-0.051 0.21467,0.4816 0.85421,0.4428 1.25919,0.4295 -2.20516,0.3018 -3.24104,0.2048 -3.04599,0.1569 -2.69374,0.2423 -2.82877,0.2372 -3.76966,0.021 -1.87571,0.3144 -0.66793,0.4432 -3.16386,-0.2391 -3.75023,-0.1424 -3.69319,0.02 -2.42987,0.2821 -2.8722,0.2542 -2.32027,0.3025 -2.18477,0.2731 -1.49849,0.3143 -1.02872,-0.3322 -1.86066,-0.4429 -3.07325,-0.3294 -2.82966,-0.3013 -3.94569,-0.29 -3.89805,-0.1695 -3.1039,-0.3474 -2.54266,-0.3583 -3.07956,-0.3224 -3.41729,-0.1879 -2.46202,-0.4569 -0.87478,-0.4716 -2.30636,-0.4343 -0.55037,-0.5257 -0.56434,-0.5689 1.81529,-0.3608 2.83899,0.1395 1.25277,-0.4497 -1.53853,-0.5175 -2.20101,-0.4109 -2.70464,-0.2678 -1.16481,-0.6061 2.67639,0 2.39127,-0.1229 2.86719,0.062 2.49152,-0.062 0.62998,-0.6548 1.8259,-0.3492 1.67898,-0.3535 1.90533,-0.2597 1.87484,-0.6255 0.4845,-0.57 0.20299,-0.6141 1.97846,-0.2416 0.47184,-0.5936 0.29601,-0.746 -0.56164,-0.9796 -1.11738,-0.7402 -0.73007,-0.7524 -1.07204,-0.7257 -1.67262,-1.8405 -1.0963,-0.7618 -1.34906,-0.6901 -1.14537,-0.822 -0.98357,-0.791 -1.369,-0.8427 -1.87705,-0.6819 -1.86293,-0.5155 -1.48086,-0.6934 -1.34094,-0.9195 -0.35709,-0.8413 0.40306,-0.9853 0.5436,-0.7237 0.44773,-0.7757 1.60447,-0.1833 0.88106,-0.5528 -1.41995,-0.7885 -0.72355,-0.889 -0.38848,-0.9446 0.44157,-0.7142 0.9584,-0.623 0.92505,-0.5781 1.4108,-0.2419 1.66098,0.3868 0.48706,-0.5321 z m 41.29635,27.8767 -2.56517,-0.3119 -2.10964,0.3119 -0.79444,0 0,0 -0.58636,0.5826 -0.58335,0.4857 -0.32138,0.499 -0.53489,0.5598 -0.98894,0.4192 -2.97383,0.3362 0.13729,0.4892 2.29157,0.3825 3.615,0.066 2.98349,-0.2222 2.63749,-0.2722 2.24814,-0.3018 2.09274,-0.381 -0.47982,-0.6416 -0.5473,-0.5642 -1.20219,-0.8275 -2.31841,-0.6099 z m -20.13014,2.6605 -2.05053,-0.5154 -0.399,0.4429 -0.66182,0.4999 -3.37614,-0.1173 -3.46149,-0.047 1.183,0.3501 0.0463,0.046 2.2736,0.3841 3.29496,-0.067 3.2991,0.1555 -0.0353,-0.5187 -0.11262,-0.613 z m -27.73781,-15.1041 -1.26914,-0.9278 -1.34747,-0.9012 -1.56587,-0.956 -1.08917,-0.8004 -1.61903,-0.8097 -1.34956,0.342 -0.13166,1.0164 1.5266,1.7009 0.58534,0.7728 0.43072,1.0412 -2.06365,-0.079 -0.95954,0.2379 0,0 -1.13909,0.7857 0.88046,0.8125 1.84695,0.5724 1.63785,-0.2663 1.74485,-0.2678 -0.11951,0.7612 2.25209,0.038 1.54214,-0.3788 1.75367,-0.2669 -0.1785,-0.7318 -0.37901,-0.7817 -0.98947,-0.913 z m -50.30623,1.9611 -2.66791,-0.1545 -2.5245,-0.2717 -0.61425,0.349 0,0 1.95697,0.8052 2.22045,0.3789 2.13659,-0.1133 2.18253,0.075 1.95671,-0.075 1.5132,0.151 -2.37493,-1.1059 -1.57751,0.2308 -2.20735,-0.2695 z m -33.13354,2.9918 -2.51941,-0.3269 0.64318,0.6153 10e-6,0 2.70364,0.6414 2.52558,0.141 0.81334,-0.4605 -0.0835,-0.6466 -1.47082,0.3246 -2.61204,-0.2883 z m -7.29763,-0.036 -2.39554,-0.4366 -0.53528,0.4004 0,0 3.12913,0.5042 2.44197,0.1786 1.09151,0.071 -3.73179,-0.7178 z m -34.65454,9.5034 -1.83123,-0.5913 -2.31244,-0.4773 -2.58038,-0.4349 -3.4204,-0.2212 0.31234,0.5213 0,0 1.90735,0.375 0.25295,0.079 2.04234,0.4688 3.1174,0.4559 2.51207,-0.1757 z m 644.81665,-196.2378 0.43378,-1.3666 0.29421,-2.1314 -0.58437,-1.9174 0.2249,-1.5844 -0.60223,-0.4564 0.29133,-2.3689 -0.4324,-1.8489 -1.31826,1.4158 -0.28545,1.0778 -0.96129,2.0743 -1.10939,1.9997 0.15461,1.2587 -0.71184,0.7653 -1.03856,2.8357 -0.21284,2.1515 -0.48204,1.0927 -0.0925,1.8149 -1.66777,2.9818 -0.93494,2.0519 -1.05402,1.6565 -1.15348,2.0049 -2.22414,1.2744 -2.24795,-1.2649 -0.0712,-1.153 -1.16584,-0.9564 -0.78264,0 -1.36748,-2.2152 -1.07247,-1.2887 -1.8162,-1.2005 -1.67084,-2.0715 0.0693,-1.0593 1.4466,-1.8457 1.26926,-1.8785 0.0239,-1.5042 0.98968,-0.1252 1.40395,-1.5214 1.18364,-2.0173 -0.90016,-1.8663 -0.80482,0.7249 -0.9864,-0.3285 -1.86054,1.0801 -1.50077,-1.1596 -0.87818,0.3817 -2.16944,-0.9654 -1.19185,-1.5484 -1.6853,-0.9364 -1.59764,0.5488 1.82127,1.2433 -0.32932,1.9285 -2.49938,0.7106 -1.34373,-0.448 -1.9676,1.33 -1.66765,2.1517 0.2326,0.9406 -1.4773,0.9834 -2.0269,3.0145 0.0966,2.0613 -1.68624,-0.352 -1.73778,-0.026 -1.02516,-2.2237 -1.67426,-1.7251 -1.46218,0.507 -1.34795,0.5382 -0.26252,0.9445 -1.12678,-0.4384 -0.28242,1.0495 -1.54947,0.6395 -1.01902,1.4811 -1.96498,1.8443 -1.05035,2.8484 -1.01913,-0.8105 -1.33472,1.8146 0.52226,1.7653 -1.37851,0.7448 -0.32123,-3.2253 -2.76854,3.1746 -0.62276,2.0274 -0.53889,1.4864 -2.15724,1.8888 -1.28471,1.9855 -1.9886,1.6472 -3.21563,1.0852 -1.4905,-0.087 -0.82897,0.338 -0.66393,0.8113 -1.78867,0.4105 -2.5843,1.3783 -0.61235,-0.4558 -1.33395,0.2887 -2.51139,1.3559 -1.82625,1.5738 -2.60915,1.2323 -1.97319,2.5315 0.70189,-2.8028 -1.98017,2.6484 -0.42342,2.1465 -0.99486,1.8336 -0.86663,0.9011 -1.03787,2.1143 0.2328,1.092 -0.16041,1.1482 0.25726,2.8641 -0.67201,1.8585 -0.25007,-1.4047 -0.93051,-1.0533 -0.38977,3.3659 -0.5672,-1.5675 -0.2285,1.5461 0.38356,2.8621 -0.83321,2.8227 0.56753,1.4318 -0.38596,1.0545 0.0281,2.3309 -1.02748,2.0342 -0.50432,2.0332 -0.32062,3.5864 -0.73382,2.0941 -1.54262,2.4488 -0.55197,1.2615 -0.84773,0.7983 -1.52418,0.477 -1.10083,2.0036 1.02644,0.6625 1.50902,2.2228 1.70895,0 1.78445,0.1364 1.8396,-1.1052 1.82516,-0.9843 0.65929,0.1575 2.54472,-1.861 1.8503,-0.1603 2.05567,-0.3817 1.918,0.6376 1.78512,-0.3109 2.22694,-0.085 1.74211,-1.4223 1.50826,-1.8401 2.68293,-0.8114 3.72513,-1.8067 2.34817,0.2339 3.59503,-1.1782 4.05466,-1.2662 4.8456,-0.335 1.54803,1.7218 1.76855,0.101 2.10191,2.1369 -0.96067,0.8122 0.58399,1.3163 0.074,2.5398 -1.22663,1.8523 1.09197,1.4322 2.725,-2.7716 2.34547,-1.1955 3.92272,-2.9909 -1.38253,2.5978 -2.06013,1.7126 -1.66289,2.0117 -2.57248,1.9223 2.68089,-0.6377 2.79631,-2.4084 -1.04895,2.5836 -1.94334,1.6816 2.16537,0.4168 0.29869,1.4015 -0.6094,1.7409 -1.36428,2.6061 0.1018,2.1063 1.69274,0.9852 1.24478,0.2434 1.01002,0.538 1.45303,0.9208 4.04556,-2.4624 1.84986,-0.6451 -1.72791,1.7759 1.06791,0.5994 0.89575,1.4992 2.63606,-1.4559 2.16286,-1.3173 3.37845,-1.3988 2.897,-0.1242 2.34717,-1.1881 0.69409,-1.0835 2.09495,-2.3681 2.5298,-2.5839 2.22153,-1.7275 2.86954,-3.0033 2.04497,-1.7267 2.77536,-2.7155 3.0622,-1.7282 3.23314,-3.211 2.12393,-2.5409 1.20749,-2.0391 2.62639,-3.1833 1.43107,-1.6578 1.97387,-3.1778 0.42844,-3.0627 1.38516,-2.2378 1.01344,-2.0662 0.73126,-2.9205 -0.66009,-2.9511 -0.59144,-1.3942 -0.87991,-2.2471 1.2597,-3.8899 -0.90977,0.5652 -0.41765,-1.5938 -1.43139,0.8084 0.60235,-3.9862 -0.64117,-2.3162 0.70754,-0.8961 -1.22442,-1.6116 -1.28699,-1.7619 -2.28508,-1.9397 -0.0208,-2.5221 0.91157,-1.9309 0.27083,-3.1892 -0.55657,-0.4558 0.14673,-1.8664 0.34146,-3.2106 0.74902,-1.662 -0.941,-1.4656 -0.5074,-1.5899 -2.15947,1.4166 -0.25077,-2.9486 z m -45.10268,97.0706 -1.36002,-0.2964 -1.32022,1.5324 -1.02493,2.8962 -1.54568,2.1822 -0.99781,2.8123 1.38118,0.1018 0.33716,0.1759 3.71236,-2.2867 0.037,0.9 2.599,-2.6498 1.82505,-1.1401 3.20348,-3.9506 -1.28013,-0.2246 -2.44612,0.6426 -1.71246,0.4579 -1.40788,-1.1531 z m -29.07607,-170.0397 -2.25538,2.08343 -1.0264,1.42361 -1.24836,2.40691 -1.88569,3.01229 -3.36583,0.82454 -1.18315,0.71832 -0.46953,3.22538 -2.17583,0.71195 -2.11271,-1.30565 -1.62858,2.53196 -0.2886,3.5308 0.39421,3.33405 1.32344,3.25961 1.39528,1.0592 0.27551,5.1091 2.32049,0.4395 1.86694,-0.2094 0.9518,1.8429 3.43525,-1.3694 1.35791,1.2201 2.01142,0.2152 0.99705,2.3272 3.31652,-1.7129 0.34245,1.3541 1.36766,-5.8233 0.18366,-3.794 2.77294,-2.6062 -0.10525,-3.45335 0.92994,-2.59808 3.35795,-0.44958 -3.25301,-3.5262 0.43721,-1.75268 -2.23116,-3.60598 1.42747,-3.43846 2.00478,-1.29652 -0.6355,-1.85805 1.88689,-0.18873 0.0865,-1.48995 -2.45615,-1.1441 -1.95549,-1.05994 -0.27954,-1.6521 -1.64077,-1.92194 -1.14253,0.0125 -1.14505,2.96973 -1.95876,2.64417 z M 399.81156,0.95891 l -3.12072,-0.0558 -3.11739,-0.0553 -4.41788,0.14861 -0.66564,-0.0953 -4.53613,0.0364 -2.76187,0.0981 -2.13082,0.1445 -1.7895,0.50996 -1.24318,-0.26869 -1.76539,-0.0491 -2.66058,0.35735 -3.13199,0.16048 -1.7796,0.0325 -2.48568,0.19339 -0.18155,0.35638 1.30122,0.31668 0.62472,0.45262 2.13211,0.39393 5.3856,-0.0749 3.23073,0.13621 -2.91818,0.43899 -1.03083,-0.13203 -4.07819,-0.0521 -0.19123,0.6366 1.51337,0.50168 -1.02304,0.46087 -3.14919,0.32222 -1.94763,0.53555 2.17528,0.27112 0.96809,0.93287 -3.39387,-0.63216 -1.08355,0.10164 -0.59326,1.07238 -3.36396,0.34644 -0.75848,0.75072 2.91097,0.0833 2.13892,0.1933 4.98591,-0.24743 3.66417,0.44193 5.32904,-0.95175 0.38622,-0.37766 -2.77127,0.0595 0.17479,-0.34595 2.71243,-0.4494 1.39625,-0.57522 2.86915,-0.40669 2.01412,-0.48192 -0.52173,-0.67245 1.33206,-0.23732 -1.92858,-0.16469 4.79917,-0.1393 1.26484,-0.26205 3.37745,-0.20982 3.6549,-0.9904 2.80062,-0.3264 4.22863,-0.66918 -3.25963,0.006 1.59716,-0.23663 3.81715,-0.20912 4.04968,-0.43225 0.31374,-0.25507 -2.44985,-0.25075 -3.04231,-0.11525 -3.85579,-0.0695 z m -44.12209,14.0406 2.59328,-1.19418 -4.85344,0.48718 -2.61032,0.75946 -3.29871,1.70954 -1.76856,2.00973 2.4355,0.009 -2.84548,0.93048 0.64046,0.72688 2.48723,0.31461 3.04986,0.61689 5.91205,0.47391 3.45525,-0.27322 1.54265,-0.62242 0.69061,0.71856 1.43473,0.121 0.63034,1.3357 -1.64405,0.55108 2.9444,0.74746 1.81131,1.07948 0.0401,0.77121 -0.34606,1.00703 -4.25487,2.26016 -1.62139,1.17967 -0.0731,0.85332 -4.10944,0.30726 -3.56044,0.0428 -2.75772,1.7892 0.90193,0.84482 5.82002,-0.39338 0.5404,-0.71132 1.81986,1.19261 1.87269,1.27772 -1.20417,0.70751 1.42873,1.23148 3.11689,1.48391 4.61103,1.03054 0.28341,-0.90174 -0.97419,-1.54474 -1.18913,-2.17104 3.41822,2.01572 1.98395,0.68979 1.88591,-1.82157 0.4435,-2.46322 -0.32356,-0.65196 -1.75812,-1.11959 -0.9353,-1.39741 1.26188,-1.35787 2.61473,-0.29439 1.25442,2.28386 1.58522,1.0319 5.20848,-2.77993 1.71967,-1.64096 -2.77567,-0.15357 -1.06863,-2.09906 -2.48934,-0.49368 -3.07143,-1.4494 4.09366,-1.01679 -0.0289,-1.9978 -0.80922,-0.84159 -3.47681,-0.81341 -0.62831,-1.28757 -3.60727,0.45362 0.60032,-0.87196 -1.44274,-0.9359 -2.77687,-0.97445 -2.37501,0.76381 -3.93876,0.56559 1.57614,-1.26632 -0.78749,-1.93168 -5.05739,0.75656 -3.25859,1.52463 0.0117,-1.1834 z m 18.98913,57.30786 2.0017,-1.91989 0.77816,-0.82215 -0.9736,-0.13261 -2.37864,1.04476 -2.13159,1.7343 -4.41547,4.911 -2.70314,1.87903 0.64479,0.85116 -1.88802,1.10653 -0.0282,0.93361 4.4456,0.0965 2.55576,-0.18863 1.92516,0.76792 -2.20112,1.48996 1.34609,0.11039 3.71394,-2.746 0.49373,0.4009 -1.45643,2.59295 1.3145,0.60114 1.09657,-0.11857 1.9774,-2.79236 -4.2e-4,-1.9581 0.32726,-1.66198 -1.8034,0.53468 1.57797,-2.28305 -1.89248,-0.9536 -1.34587,0.75531 -1.6734,-0.84952 1.23102,-1.07704 -1.24455,-0.65996 -1.90493,1.04099 2.61165,-2.68762 z m -1.99176,-57.20513 -1.83215,-1.01937 -3.58923,-0.19716 -0.9286,0.12159 -0.7844,0.66417 0.78833,0.99739 0.36682,0.11559 2.10474,-0.25566 1.76903,0.04 1.73101,0.0554 0.37445,-0.52197 z m -21.827,-6.8251 -3.12263,-0.0969 -1.47383,0.63266 1.17489,0.488 3.04056,0.1949 0.67902,0.70789 -0.87037,0.82484 -0.63516,0.93876 3.64811,0.56305 2.38668,0.21773 3.40914,-0.0314 5.01844,-0.27161 1.85891,0.21425 2.86135,-0.37778 1.52536,-0.46194 0.41523,-0.70673 -1.02394,-0.63106 -2.48438,-0.11628 -3.44489,0.14077 -2.99688,0.36148 -2.18821,-0.14017 -2.08735,-0.0734 -0.5321,-0.39326 -1.37392,-0.36972 1.13816,-0.60344 -0.7023,-0.51775 -3.13019,0.003 -1.0897,-0.49643 z m 16.71057,-3.59222 -0.12092,-0.81577 -2.17714,-0.22534 -2.19486,-0.25016 -1.06843,-0.60173 -3.56739,0.056 0.28297,0.25571 -1.65744,0.0792 -1.5612,0.35164 -1.8303,0.5308 0.14353,0.56246 1.07277,0.42695 2.81758,-0.01 -1.70391,0.35013 -0.70657,0.48859 0.88542,0.56509 2.97871,0.18089 2.88659,-0.10181 4.20713,-1.03361 2.61838,-0.393 -1.30492,-0.4162 z m -5.7139,22.90523 1.77173,-0.67636 0.47678,-0.31358 0.82407,-0.96725 -0.85848,-0.61889 -1.92639,0.30933 -1.90075,1.26302 -0.53704,1.11905 2.15008,-0.11532 z m -2.09941,49.59645 0.18651,-0.57016 -1.73559,-1.29433 -2.61365,-0.77402 -0.90366,0.25948 1.4262,1.46096 2.50667,0.97372 1.13352,-0.0557 z m -7.77506,8.0493 -0.15221,-1.54649 -1.30275,0.98098 0.12468,1.06774 2.39935,1.3584 0.95452,-0.20903 1.69032,-1.31059 -2.20159,0.0871 -1.51232,-0.42808 z m 1.07325,-77.59543 0.41778,-0.16948 -0.72704,-0.27252 -3.12116,-0.0213 -0.15731,0.41115 2.81362,0.0949 0.77411,-0.0427 z m -2.03243,-0.78485 1.14136,-0.51217 -1.16849,-0.48012 -0.77054,-0.09 -1.9196,-0.0541 -0.70753,0.5687 -0.10002,0.5306 0.79316,0.33543 2.73166,-0.29827 z m -7.32302,8.87207 2.45035,-0.36845 4.48826,-1.65016 -2.61699,-0.43953 -3.35793,-0.0626 -2.26743,0.49181 -1.86317,0.77931 -1.20517,0.93026 -1.05022,1.69145 1.85104,0.0731 3.57126,-1.4452 z m 4.32518,-4.00611 0.10551,-0.54042 -0.64059,-0.58854 -2.92284,0.45108 -1.8875,0.76815 1.38346,0.45298 2.20789,0.13052 1.75407,-0.67377 z m -6.49973,19.36531 -1.16447,-0.19448 -2.71497,2.20775 -2.02829,1.93528 -2.7917,1.23354 2.82143,-0.2405 -0.65117,1.47266 3.89338,-1.30353 3.06626,-1.32587 0.096,1.12054 2.47642,0.6031 2.37032,-0.78871 -0.66569,-0.82493 -1.57184,0.19325 0.85083,-1.17482 -1.49635,-0.76291 -1.31285,-0.83339 -0.51072,-0.63257 -1.30428,0.37173 0.63766,-1.05614 z m 3.73091,8.69921 -0.0729,-0.52787 -0.75394,-0.0562 -1.38166,0.77284 -0.23616,0.17858 -0.10623,0.77417 0.69491,0.22141 1.85601,-1.3629 z m -0.27218,-33.3113 -0.2078,-0.65867 -3.42179,-0.48959 -2.73465,-0.17927 -0.68958,0.50921 1.35772,0.32782 -2.13429,0.41237 3.37866,0.0521 1.87189,0.46138 2.31412,0.16098 0.26572,-0.59635 z m -0.97818,2.38668 -0.41178,0.20635 -2.10953,-0.0909 -3.17411,0.54109 -1.64673,-0.05 -1.71485,1.26358 2.82747,-0.12824 -1.40969,0.9853 1.37142,0.27531 2.92692,-0.17682 2.43909,-1.25409 1.09771,-0.83669 -0.19592,-0.7349 z m -2.72574,29.50809 0.45599,-0.49342 -2.64256,-0.0242 -2.45291,1.17755 -0.16342,0.6956 1.33241,0.0596 3.47049,-1.41512 z m -6.97658,-24.63715 -3.16321,0.88921 0.20948,1.23214 -3.12155,-0.23642 -0.85204,0.61199 2.25356,1.50859 0.21846,0.76324 1.44547,0.16842 3.77317,-0.77612 2.49659,-1.76029 -1.50332,-0.81978 2.71502,-0.89559 0.25837,-0.53261 -3.26464,0.23168 -1.46536,-0.38446 z m -3.61942,-7.64424 -1.55782,-0.27746 -0.72595,-0.0619 -2.26753,0.41043 -0.355,0.19873 2.57612,10e-4 2.33018,-0.27122 z m -0.0702,17.12128 -0.12521,-0.82553 -0.0535,-0.40652 -0.60338,-0.38282 -1.14312,-0.59838 -2.33314,0.91724 -2.35275,0.66391 1.26312,0.97393 1.72816,-0.23823 1.63459,0.66217 1.98522,-0.76577 z m -3.29987,-13.52474 0.62596,-0.75797 -1.35863,-0.18103 -2.35513,0.57358 -0.11037,1.56395 -2.62956,-0.12724 -1.33541,-0.97385 -3.62619,-0.5408 -2.23663,0.44763 -4.84119,1.61823 1.77992,0.30534 7.66569,-0.20368 -4.56618,0.76266 -0.67863,0.57306 2.55935,-0.0402 5.27752,-0.75835 5.91726,-0.26798 2.16681,-0.80542 0.91381,-0.81101 -1.57639,-0.0708 -1.84295,0.27388 0.25094,-0.57999 z m 0.47492,-2.30611 1.21881,-0.4358 -1.83543,-0.22454 -2.51532,0.14581 -2.0295,0.46283 1.54565,0.47897 3.61579,-0.42727 z m -1.43141,7.13173 -0.69854,-0.40558 -2.33016,0.0734 -0.93228,0.2581 0.77306,1.31423 3.18792,-1.24019 z m -16.95029,0.55667 -1.16123,-0.36095 -6.24699,1.14759 -2.3537,0.76642 -3.6819,1.47562 2.20272,0.52879 2.69417,-0.0282 -5.19836,0.81242 -0.20355,0.75909 2.40561,0.0417 3.95117,-0.16475 2.68401,0.48512 -2.78642,0.36387 -2.33065,-0.0942 -3.21114,0.35859 -1.48849,0.2248 -0.22632,1.69518 1.91111,-0.24194 1.60992,0.59136 -0.43284,1.03563 3.46209,-0.20861 4.95968,-0.32973 4.2987,-0.74042 2.2323,-0.13185 2.318,0.58761 2.80343,0.34432 1.5786,-0.80095 -0.10519,-0.82963 3.11055,-0.17236 1.34253,-0.93441 -1.90652,-0.9906 -1.59439,-1.01897 1.34748,-1.42047 1.5105,-1.89973 -0.81919,-0.76501 -1.23948,-0.29976 -1.86271,0.27434 -1.56617,1.96576 -1.98857,0.8189 1.29666,-1.91913 -0.64373,-0.62358 -3.31017,0.9753 -0.93492,-0.96447 -4.59761,0.57557 2.17101,-0.88829 z m 8.83021,-7.6122 -2.52272,0.21794 -2.37499,-0.0207 -4.9425,0.98437 -4.75738,1.18589 0,0 1.56908,0.35291 2.99362,-0.25013 4.12673,-0.68738 1.61808,-0.0774 2.1271,-0.54319 2.16298,-1.16231 z m -24.62257,10.99161 1.33463,-0.87041 4.21622,-1.36592 6.18114,-1.33309 2.8185,-0.46878 -0.58838,-0.77054 -0.78166,-0.52185 -4.04751,-0.0993 -1.74433,-0.36862 -6.01687,0.27701 -0.2346,1.10654 -3.4598,1.22154 -3.44843,1.39735 -2.07127,0.82946 2.27788,1.05438 -0.4718,0.89 6.03628,-0.97775 z m -75.99611,60.59662 0.57222,-1.72398 -1.12207,-1.28171 0.21877,-1.46712 0.21544,-1.06159 -1.81021,-0.325 -0.93921,-0.46487 -1.71647,-0.66704 -0.87269,0.70819 -0.71815,1.67175 1.8072,0.55503 -0.40619,0.88115 1.04321,1.08577 -0.30946,1.10529 2.50571,1.41992 1.5319,-0.43579 z m -4.74122,-17.17196 -1.14953,0.93707 -0.99675,1.29807 0.11757,0.92402 -0.63086,1.37216 -0.0898,1.37092 0.87411,0.006 0.57913,-2.40565 4.22601,-3.35582 -2.32972,0.23485 -0.60017,-0.38144 z m 591.75573,120.87589 0.0662,-2.14552 0.75981,-1.6326 -1.01075,-1.4141 -1.6022,-0.0879 -2.70917,1.03816 -0.89807,1.68064 0.91537,3.19616 2.55554,1.15358 1.92325,-1.78847 z m -520.5746,-15.10568 -2.2545,-1.25038 -2.12134,-0.0414 -2.27882,-0.26164 -0.75585,0.40296 -2.14055,0.35115 -1.56217,0.71555 -1.42821,0.81685 -0.91064,1.32671 -1.70989,1.13717 1.08364,0.3492 1.44402,-0.40277 0.60335,-0.89821 1.14037,-0.0513 2.41119,-1.91045 2.6206,0.18803 -1.237,0.91836 0.78186,0.71744 3.41839,0.57038 0.64339,0.77242 2.32469,0.98823 1.57344,-0.14356 0.1975,2.10133 0.72259,1.06652 1.71389,0.2471 0.92172,0.9607 -2.24918,2.06579 4.00111,-0.36095 1.83482,0.29316 1.88289,-0.18402 1.91424,-0.47027 0.49084,-0.86734 -1.7758,-1.51396 -1.98762,-0.15225 0.40897,-1.0402 -1.47603,-0.75296 -0.91005,0.0507 -1.34958,-1.66359 -1.80995,-2.28048 -0.76947,-0.86398 -2.63458,0.41528 -0.77228,-1.3453 z m 243.40322,-109.95264 -0.83057,-1.43701 -3.00976,0.94877 0.40845,1.19443 2.396,1.63635 1.03588,-2.34254 z m -225.00883,127.41542 -0.0343,1.0709 0.61687,0.59278 1.51891,-2.55106 1.00047,-0.53424 0.27186,0.90292 1.097,-0.22942 0.60813,-0.67879 0.87861,0.17709 1.29168,-0.15604 1.18286,0.80953 1.2669,-1.51462 -1.13092,-1.36369 -1.20277,-0.13419 0.27534,-1.10662 -1.51763,0.074 -0.27141,-1.31609 -0.74046,0.0931 -1.45775,-0.95421 -2.13996,-0.0171 -0.45754,0.63181 -2.276,-0.58211 -1.64472,-0.16373 -0.8075,1.02358 1.62874,0.57847 -0.27395,1.41784 0.9779,1.60984 -1.13427,0.82803 -2.03004,-0.29856 -2.44746,-0.5164 -0.45258,1.19915 1.28007,1.15996 1.40978,-0.69601 1.639,0.26916 1.34609,-0.2582 1.72902,0.63289 z m 695.25798,131.86042 2.11178,-0.9199 0.67716,-1.8256 -2.05817,1.1669 -0.95579,0.2054 -1.67315,0.767 -0.17419,1.3931 2.07236,-0.7869 z m -3.52059,2.0108 -0.9282,0.6151 -1.07683,-0.4614 -1.57266,1.2811 -0.3944,1.6379 1.33237,0.4604 1.92227,-0.5115 1.24494,-1.9454 -0.52749,-1.0762 z M 1.3313,315.84449 1.011062,314.04559 0.5,314.21869 l 0.677162,1.8256 0.154138,-0.1998 z m 493.01092,-266.66578 -2.4813,0.23141 -1.62792,-0.21771 -1.71048,2.24373 -0.91065,2.90093 0.98688,1.4476 -0.009,2.76494 1.20638,-1.36107 0.66543,0.79198 -0.82851,1.291 0.47775,0.78567 2.58846,0.51237 0.0317,0.041 1.3956,1.80326 -0.36121,1.71287 -0.004,-3.1e-4 -3.22697,-0.26771 -0.48762,1.94536 1.14661,1.61155 -2.34132,0.93207 0.57949,1.20162 3.45453,0.50477 0.0174,0.003 -2.01269,0.65585 -3.40839,3.21182 1.1741,0.6148 1.62559,-1.17451 2.07142,0.34855 1.52046,-1.43625 1.03383,0.60257 3.82824,-0.84129 2.99614,0.0283 1.99717,-1.59529 -0.90209,-1.5666 1.11803,-0.88381 0.2432,-1.91683 -2.65996,-0.56805 -0.62566,-1.1738 -1.32988,-3.35291 -1.4691,-0.46866 -1.85604,-3.41194 -0.16278,-0.30121 -2.18436,-0.18262 1.95132,-2.54788 0.58571,-2.28713 -2.27119,-0.0146 -2.12606,0.38254 2.30136,-2.99896 z m -6.0175,11.56703 -2.20383,-1.79639 -1.79772,0.11936 -1.70925,1.35657 -3.10494,2.29342 0.90957,3.01195 -2.02071,3.13255 3.10559,0.45668 4.02698,-1.78045 1.79379,-2.66743 -0.2545,-2.11269 1.25502,-2.01357 z m 72.34878,60.63358 -0.30423,1.47243 3.1854,0.67681 0.0411,0.57329 3.63848,-0.29542 0.19159,-1.02405 -1.33654,0.41633 -0.0122,-0.60369 -1.92314,-0.24604 -1.95701,0.19749 -1.52347,-1.16715 z M 460.81825,0.60368 449.1809,0.5 l -5.21813,0.0792 -2.06712,0.31446 -5.12703,-0.0392 -5.33014,0.54028 -0.50738,0.41317 3.14368,0.55034 -2.85399,-0.33602 -2.02744,-0.0797 -3.25401,-0.36796 -4.38052,0.54719 -1.35781,-0.31372 -4.56619,0.009 -4.71025,0.15711 -3.7837,0.26956 0.15802,0.4784 -2.2945,0.11743 -6.01369,0.79646 -1.81408,0.47869 3.65865,0.44584 -1.05063,0.46563 -6.27313,0.63619 -6.55443,0.66083 -0.80618,0.55061 2.90096,0.59467 6.33837,0.38721 -3.24763,0.0795 -4.62851,0.47874 1.77247,0.98507 1.35728,0.51267 4.02375,-0.11911 4.33965,-0.0652 3.29745,0.11782 3.51103,0.96414 -0.59319,0.70862 1.54264,0.67102 0.53067,1.8978 0.37583,1.28682 0.51295,0.70912 -3.19401,1.82176 1.08126,0.49578 1.90283,-0.28185 1.07008,0.68859 2.12416,1.3002 -3.18316,-0.54811 -1.6261,0.0296 -1.42675,1.10194 -0.84509,1.43617 1.70989,0.70147 1.78641,-0.30721 1.16337,-0.31916 2.48232,-0.7537 -1.40369,1.67408 -1.26274,0.91318 -3.20345,0.82198 -3.43055,2.64041 0.72492,0.81332 -1.70206,1.72484 1.29897,2.20553 -0.97561,2.19367 0.0814,1.61906 1.70418,3.1534 0.0527,2.53223 1.23405,1.44278 3.97696,0.0136 1.99936,2.1754 2.90499,-0.16351 2.1093,-2.59453 1.80292,-2.16104 0.0807,-2.01048 4.03383,-2.02577 1.67424,-1.63669 0.77588,-1.72115 2.26602,-1.49567 2.92648,-0.55926 2.72349,-0.58431 1.32417,-0.0977 4.62809,-1.64624 3.46972,-2.42306 2.19555,-0.86683 1.99087,-0.01 5.52381,-0.76886 5.38803,-1.72516 5.25477,-1.85621 -2.37827,-0.11454 -4.5783,-0.089 2.37028,-1.0916 -0.14985,-1.37934 1.76525,1.16532 1.10141,0.79548 3.2108,-0.39897 -0.20258,-1.63814 -1.88445,-1.21105 -2.1388,-0.48725 1.03427,-0.51624 3.1065,0.80038 0.22599,-0.86057 -1.71626,-1.2794 2.32803,-0.005 2.43236,-0.2872 0.72227,-0.64715 -1.70828,-0.73328 3.69186,-0.128 -1.70768,-1.49959 1.7797,-0.15748 0.009,-1.4105 -2.69822,-0.84639 2.75688,-0.49292 2.49101,-0.0637 -1.62123,-0.98457 0.40779,-1.58154 1.4877,-0.86418 2.03856,-0.9187 -3.4994,-0.0584 4.90493,-0.20865 0.92312,-0.27255 6.30951,-0.80612 -0.75069,-0.45692 -4.42067,-0.20019 -7.35453,0.40532 -3.94946,0.40467 1.86182,-0.62613 -1.1082,-0.36686 -3.00402,0.31226 -4.33483,-0.35086 -5.3089,0.11069 -0.65903,-0.17849 8.02397,-0.0961 5.6843,-0.0429 2.85522,-0.36615 -8.92733,-0.69884 z m 420.45237,257.13941 -0.42519,-1.4163 -4.54254,-1.56497 -1.46596,1.24207 -3.83878,0.9231 1.16517,1.8855 2.51816,0.7035 1.05297,2.2683 4.15363,0.01 0.19839,1.0106 -2.02056,-0.074 -3.11546,1.3718 2.07269,1.8708 -0.0875,1.6544 0.55294,1.3959 1.11053,-0.3355 0.95317,-1.8502 4.02202,3.5177 2.31292,0.3182 5.21896,3.2216 1.03971,3.1917 0.2539,4.1307 -1.91449,1.054 -1.62404,3.0876 3.59257,-0.1166 0.84967,-1.0806 2.75814,0.7629 2.0362,3.1113 2.89053,0.158 1.47477,0.6335 2.42732,-1.3024 0.0713,-2.7964 1.90563,-1.2525 2.54407,-1.0824 3.44746,1.6594 0.95007,3.3184 1.24748,2.0832 1.75262,2.4152 2.7348,0.5693 2.33525,0.425 0.49864,0.9802 1.91487,-0.2637 0.52762,-1.0932 -2.6899,-1.5921 0.97551,-0.7141 -2.0595,-0.6434 0.40419,-1.678 -1.63599,0.1259 -1.19354,-4.0211 -2.16796,-2.49 -0.2973,-2.5307 2.65273,-0.409 -0.45201,-2.0155 -4.46863,-2.3499 -0.22043,-2.2408 -1.41701,-1.9132 -1.80898,-1.9501 -5.1034,-2.1789 -4.78557,-2.6241 -3.01414,-0.728 -2.05213,-1.3628 -2.38404,-1.3282 -2.52319,0 -3.3347,2.2994 -2.56451,4.0399 -2.81842,-2.2796 -0.5908,-6.1616 z m 0.4602,19.2718 0.18852,-1.8126 -0.53953,-1.1125 -0.71335,1.2854 -0.63876,1.3663 -0.0363,2.8603 1.73946,-2.5869 z m -11.13812,-11.874 -3.06854,-1.1106 -3.51113,0.1581 -0.77618,2.0937 1.95468,0.1342 1.61486,-0.2515 2.35152,0.3186 2.30115,1.5693 -0.86636,-2.9118 z m -4.80527,-16.10258 -0.29919,-1.55627 -1.68416,-0.33423 -0.26665,-2.08047 -0.89792,1.38642 -0.50247,3.04435 0.87183,4.87142 1.12317,2.41376 0.8009,-0.4573 -1.15293,-2.01179 0.42996,-2.31888 1.46605,0.37319 0.11141,-3.3302 z m -4.4067,17.49368 -0.63959,-1.2557 -2.8785,0.1827 0.46525,1.6377 1.91904,0.6991 1.1338,-1.2638 z m -5.40165,-18.589 -0.5156,-0.8513 -2.75084,2.76698 -3.26213,0.1597 -3.5864,-0.52873 -2.2367,-1.12517 -2.37329,2.83033 -0.58687,1.57092 -1.47789,5.74427 -0.48269,3.0251 -1.26374,2.4946 0.75961,2.6088 1.19104,0.028 0.22144,3.6735 -1.06853,3.5019 1.1247,1.1162 1.84186,-0.552 0.27742,-5.4433 -0.006,-4.4396 1.94039,-1.1577 -0.38435,3.7111 1.913,2.2322 -0.46502,1.4694 0.62979,1.0531 2.8852,-1.4732 -1.60038,3.1151 0.99911,1.3373 1.60551,-1.118 0.21649,-2.499 -2.27316,-4.3934 0.58493,-1.3078 -2.49639,-4.8817 2.5366,-1.4769 1.27407,-2.2326 1.22824,0.5536 0.256,-1.755 -5.30895,1.2968 -1.5633,1.7259 -2.4917,-3.3886 0.4098,-2.88444 2.47757,-0.54865 4.72931,-0.19024 2.73594,0.74519 2.12972,-0.73278 2.22651,-3.77998 z m -5.25309,43.9615 2.26848,-2.8273 2.51798,-1.0879 3.17174,-1.6591 1.17733,-1.0274 -1.0066,-0.4701 -0.94461,0.4737 -1.9858,0.1283 -2.543,0.8524 -0.45411,0.8942 -3.00012,1.5052 -1.55418,2.3098 -0.4535,1.2865 0.26538,0.4539 2.54101,-0.8322 z m -3.22795,-7.7513 -2.70536,1.3897 -1.91569,0.2886 -1.62427,-1.1368 -2.34019,0.7884 -0.16928,1.386 3.68875,0.4671 4.38197,-1.076 0.68407,-2.107 z m -7.30095,8.128 0.32442,-1.0213 -0.81467,-1.1499 -1.3156,-1.1534 -2.73262,0.7447 3.34377,2.6521 1.1947,-0.072 z m -6.82632,-8.1225 -0.91954,1.3413 -1.55092,0.03 -1.24785,2.1826 1.51176,0.03 2.02026,-0.5088 3.36002,-0.7612 -0.49652,-1.6121 -1.78199,0.3099 -0.89522,-1.0117 z m -25.68666,-5.0035 -0.26581,-1.3514 -1.14848,-0.2897 -2.16141,-1.4853 -3.41678,-0.2245 -2.24611,3.631 2.5623,0.2791 0.33576,1.6329 4.99415,1.563 1.22429,-0.4746 2.03413,0.376 3.11372,1.4492 2.56445,0.6809 2.89579,0.2809 2.56652,-0.1033 2.91714,1.5275 3.39715,-1.4446 -3.20173,-2.2545 -4.16232,-0.692 -0.77699,-2.4611 -5.07644,-1.8268 -0.76727,1.566 -5.38206,-0.3787 z m -7.642,-3.5166 0.50648,-5.8842 0.94211,-4.7353 -1.29304,-2.4108 -2.07283,-0.3368 -0.93165,-2.126 -0.43162,-2.6578 -1.01827,-0.098 -1.61184,-1.3233 1.14982,-3.11152 -2.16937,-1.74087 -1.68227,-3.19077 -2.44241,-2.60989 -2.88643,-0.0598 -2.82248,-4.0945 -1.63022,-1.58416 -2.31729,-2.5811 -2.72134,-3.72101 -4.4314,-0.73478 -1.83317,-0.15329 0.36891,1.93622 3.17763,4.19361 2.22728,2.13246 1.59645,3.25873 2.62154,2.39886 1.09873,2.97444 0.85856,3.27626 2.48395,3.17631 2.06858,5.3342 1.32202,2.8552 2.0214,3.1011 1.0986,2.3074 3.45349,3.1091 2.1596,3.1793 3.14048,-0.08 z M 473.72106,29.19771 l -3.0321,-0.16586 -3.25674,1.25406 -2.19572,-0.66745 -3.10669,1.28955 -2.51108,-1.60389 -2.89131,0.34747 -1.66781,1.54518 3.78426,0.55782 -0.0909,0.70866 -3.45423,0.47052 3.82687,1.19647 -2.13461,1.09272 5.1673,0.78925 2.45526,0.369 1.74284,-0.45682 5.80324,-1.70053 2.74424,-1.86156 -1.8603,-1.63686 0.67745,-1.52773 z m 65.50979,83.50901 -1.87152,0.29732 -2.5207,0.37122 -2.94466,-0.31162 -0.23707,1.75261 3.62046,1.74124 1.30567,0.37026 2.02247,1.29444 0.3945,-1.76654 -0.45786,-1.06156 0.68871,-2.68737 z m -16.25278,-10.04062 -1.16906,1.03498 -1.35329,-0.16716 0.64851,1.91415 0.28593,4.0653 0.98081,0.89831 0.95712,-1.13048 1.13754,0.21346 0.10844,-4.45473 -1.596,-2.37383 z m -234.98598,83.09615 1.95435,-0.0694 -0.27987,-1.01994 -1.3073,-0.89394 -1.79603,-0.33358 -0.60527,-0.12533 -1.20682,0.25924 -0.48604,0.85062 1.33659,1.35709 1.44256,0.59811 0.94783,-0.62286 z m 567.00396,-69.33353 -2.59082,-3.52733 -0.25718,-3.41854 -2.03931,-2.73555 -5.03697,-4.64297 -2.0996,0.61175 0.64097,2.11169 3.34084,3.78308 1.52002,4.14761 -0.46591,1.32476 -1.28418,3.42579 -2.80719,-1.63871 1.46518,6.12479 -3.17536,-0.70785 -4.3968,1.03263 -0.38868,2.37416 -1.47945,1.80147 -0.0454,2.1975 -1.80906,1.07986 2.41953,2.40996 2.21488,1.02474 1.11542,3.18527 2.00431,1.37813 0.87957,-1.49189 -1.65361,-5.99363 -4.12624,-2.57788 2.96664,-0.067 2.03776,-1.64455 3.97338,-0.76876 1.72112,2.60865 2.54746,1.3453 1.17743,-3.98788 4.35719,-0.21348 2.19066,-1.63571 -0.31551,-2.44163 -1.62764,-1.72979 -0.97342,-2.74396 z m -11.66714,-23.53398 -2.80899,-1.09368 -5.84625,-3.36621 1.59176,2.51698 3.2745,4.50906 -2.40655,0.18217 0.94403,2.53179 3.03559,3.29382 2.66597,-0.05 -1.69055,-3.62328 5.70567,2.25996 -0.68125,-3.27942 2.77743,-0.89932 -3.82394,-3.66732 -0.43708,1.38056 -2.30034,-0.69511 z m 2.42913,33.89225 -2.3453,-0.75263 -0.15747,1.46743 -1.70425,-0.40421 -0.17294,2.08767 0.95476,1.66428 2.26537,1.00151 -0.51696,-2.05543 0.8359,-0.8148 1.72832,1.12495 0.17446,-2.12042 -1.06189,-1.19835 z m -115.43096,102.97087 1.11677,-1.0817 0.14378,-3.95474 -1.68885,-3.94995 -1.55367,-2.66896 -2.14886,-2.10418 -0.72275,6.15115 0.90721,5.45645 1.53839,3.02152 2.40798,-0.86959 z m -89.90099,75.03633 -0.48616,-2.4865 -0.61671,-1.6033 -0.85511,-1.6189 -1.05551,1.6869 -0.22935,2.2655 -1.75577,2.615 -1.14945,-0.452 0.24592,1.6068 -1.00055,1.8898 -2.49816,2.3109 -1.78005,2.1354 -1.22569,0.05 -1.09107,0.6774 -1.61982,0.7672 -1.39661,0.1378 -0.59177,2.3712 -1.16743,2.0885 -0.12145,3.4334 0.27717,2.345 0.44803,1.7579 -0.51115,2.361 -1.63242,2.8046 -0.15206,1.2294 -1.33361,0.639 -0.80824,2.6569 -0.0804,2.6453 0.57603,2.9236 -0.26022,3.2417 0.47388,1.9244 1.94658,1.3025 1.40863,0.9286 2.57705,-1.5387 2.31862,-0.8627 1.84922,-4.2349 1.76123,-5.1007 2.61084,-6.9876 1.98307,-5.108 1.58835,-4.336 0.52118,-3.1589 0.85658,-0.8626 0.41251,-1.5846 -0.24961,-2.7725 0.63126,-1.1089 0.72678,2.195 0.60235,-1.1016 0.45341,-1.7972 -0.55488,-1.7546 -0.0454,-4.5208 z M 539.01792,3.76441 535.0878,3.47028 l -1.40777,0.35341 -2.288,-0.28457 -4.57551,0.33106 1.81573,0.56247 2.19321,0.0219 0.37685,0.34895 4.58495,0.21514 4.38553,-0.15226 1.98881,-0.67734 -3.14368,-0.42465 z m 0.15302,3.38445 -2.3675,-0.32595 -0.79768,-0.53094 -3.12911,0.28155 1.08343,0.4575 -0.96452,0.37668 2.87846,0.34444 3.29692,-0.60328 z m -10.80448,-2.51722 -2.03725,-0.43576 -2.222,0.0428 -0.47956,0.42773 -2.17168,0.0177 -0.92404,-0.43848 -4.0756,0.44865 1.36089,1.02813 3.23529,1.1789 2.429,0.42024 -1.31571,0.52734 3.59871,0.93348 1.89838,-0.0607 0.43747,-1.25637 1.30186,-0.27691 0.57741,-1.04611 3.72727,-0.53699 -5.34044,-0.97368 z m 414.14741,382.25585 1.87136,-3.0824 -1.24321,-0.9003 0.17038,-1.9331 -1.16782,0.2733 -0.92561,2.4617 -0.55605,3.0621 -0.008,1.423 -0.59227,0.6065 -0.99767,2.2993 -1.86541,2.2099 -2.82071,2.6185 -2.89346,1.1823 -1.21917,1.2245 1.37191,1.3488 -0.98848,1.8489 -4.13348,2.75 0.53458,0.4799 -0.46521,0.8728 3.22535,-1.3267 3.4995,-2.2881 2.70757,-1.8084 0.97254,-0.626 1.17122,-1.4508 1.64281,-1.0277 1.82614,0.07 2.63224,-1.9785 3.41227,-3.024 -0.90919,-0.395 -2.62188,1.3029 -1.43986,-0.273 -1.00704,-1.1135 1.92651,-2.5936 -0.32061,-0.9383 -2.10887,2.3461 1.31975,-3.6207 z m -18.78162,16.1823 0.84193,-1.4229 -3.22089,1.5467 -2.19439,1.8614 -1.75831,0.841 -3.56247,2.4679 -3.19541,1.7098 -3.83365,1.718 -3.0148,1.2438 -2.18258,0.6136 -6.37585,3.2025 -3.84488,2.3889 -0.89616,1.1767 2.29354,0.2247 0.3346,1.0526 2.07026,0.068 2.19406,-0.9109 3.44487,-1.4306 4.93973,-3.2608 2.93214,-2.1249 3.35294,-1.2286 1.88594,-0.04 0.78722,-1.5742 2.61307,-1.3211 4.09141,-2.431 2.4666,-1.5353 1.40672,-1.3997 0.69372,-1.4096 -3.07571,1.3524 0.80635,-1.3779 z m -66.58624,-181.73143 -0.38713,-1.39442 -0.50853,-1.90828 -2.55271,-1.79603 0.59744,2.9292 -1.97884,0.10076 -0.23006,1.69164 -2.01088,1.03849 -1.22181,-1.71659 -1.35175,1.42867 -1.64512,1.06695 -0.73765,3.19911 0.58722,1.11161 1.8595,-2.11872 1.34639,0.14616 0.70264,-1.57385 2.0004,1.79505 -0.66303,1.80563 1.07246,2.75013 3.5323,2.20639 0.64943,-1.78181 -1.18442,-2.79998 1.1095,-1.92638 1.44582,3.87254 0.59479,-3.47637 -0.41744,-2.12956 -0.60852,-2.52034 z m -4.7575,-14.17744 -1.04516,-1.40655 -2.70684,-0.0831 2.26161,2.88001 0.29616,1.42938 -1.70624,-0.30131 0.83867,2.28727 0.87954,0.1963 0.55266,2.65987 1.20257,-0.8476 -1.07789,-2.33317 -0.27992,-1.26809 2.34357,1.00241 -1.55873,-4.21544 z m -3.02207,7.1167 -0.33372,-3.60628 -1.47343,3.64939 0.036,-2.54569 -1.51253,0.22207 0.0713,2.34717 -0.5418,1.05992 -0.42736,1.01327 2.11142,2.618 0.72698,-1.12177 0.52671,-2.39235 0.81638,-1.24373 z m -14.27693,-30.8826 -1.67096,-0.004 0.0315,3.37483 1.20877,5.84461 -1.42075,-1.2312 0.96502,3.58441 0.79142,1.63297 1.85631,2.15694 0.0607,-1.35317 1.02566,0.86827 -0.66238,0.95546 0.18999,1.55366 1.56441,0.83105 2.42152,-0.55589 2.24721,2.25261 0.43452,-1.38158 1.43975,1.97771 2.54946,1.84939 -0.0546,-1.73641 -1.09755,-0.90463 -0.16481,-2.04825 -3.94188,-2.08383 -1.13658,0.4446 -1.57002,-0.41393 -1.29808,-2.98944 -0.28069,-3.0209 1.32997,-1.24029 -0.0712,-3.10581 -1.66743,-2.67365 0.018,-1.54427 -0.52021,-0.94551 -0.57549,0.96907 -2.00152,-1.06249 z m 7.33981,24.78808 0.75456,1.7966 0.12921,1.92737 0.38539,1.75687 1.602,-1.1355 1.03116,-1.60477 -0.22235,-1.57766 -1.78543,0.006 -1.89454,-1.16848 z m -1.84421,-4.44015 -1.24524,-1.35563 -2.42355,-0.13816 1.997,2.86912 1.55596,1.88096 0.11583,-3.25629 z m -6.10362,14.1779 1.10524,-2.60222 1.53802,-2.08308 -1.00659,-3.08147 -0.86382,3.75467 -1.30044,2.618 -1.71236,2.33934 -1.0439,2.65129 3.28385,-3.59653 z m 106.82155,61.39514 0.53389,-1.0637 -1.17655,-1.2897 -1.09809,-2.4098 -0.76709,-0.8625 -0.19129,-1.1319 -0.42805,0.3678 0.30115,2.8967 0.94907,2.4139 1.03445,1.459 0.84251,-0.3798 z m -6.79598,-8.8215 -0.18043,-1.9791 -0.9889,-1.2184 -1.02987,-1.5991 -1.13734,-0.9142 -0.91896,-0.8378 -1.4792,-1.0665 -0.83371,0.9198 1.98813,1.1195 1.51419,1.6247 1.19835,1.2477 0.54841,1.4708 0.34365,2.2465 0.97568,-1.0139 z m -3.6309,3.7209 1.17894,-2.3219 0.24051,-2.1108 -0.52237,-0.6248 -1.70351,0.072 0.12302,2.2426 -1.70762,1.3567 -0.92852,1.3014 -1.64557,0.2905 -0.0763,-2.0193 -0.41536,0.094 -0.60602,1.8235 -1.58002,0.2975 -2.48211,-0.5552 -0.35626,1.1765 1.50113,1.0603 2.19344,1.1041 1.50251,0 1.55576,-0.8894 1.65172,-0.9239 0.56112,-1.0663 1.5155,-0.3127 z M 822.28008,72.12185 l -4.25955,-3.06601 -3.24613,-2.95564 -4.03242,-2.86057 -2.83098,-1.94258 -0.47753,0.41104 2.44412,1.36178 -0.44946,1.36051 4.36478,4.08597 4.53123,2.98055 4.21959,4.10706 1.87123,2.34804 3.62823,3.38309 2.7257,3.08527 2.96059,2.68044 -0.80501,-2.47304 3.60152,1.92467 -2.06605,-2.23005 -5.42373,-3.2439 -3.14997,-4.51822 4.42876,1.02651 -8.03492,-5.46492 z m -10.10075,-52.55571 -3.14176,-1.38503 -0.28545,0.84072 1.76276,0.64915 1.66445,-0.10484 z m -66.54029,-8.02352 -4.99228,-0.44524 -3.53517,-0.25403 0.72017,0.54736 4.39915,0.67942 2.9297,0.15586 0.47843,-0.68337 z m -5.09817,3.35367 -1.13083,-0.48848 -3.69377,-0.70057 -1.75274,0.16843 -0.21813,0.72741 0.47436,0.0983 3.81123,0.20796 2.50988,-0.0131 z m -5.708,-4.16302 -7.56543,-0.87292 -4.37143,-0.0711 -1.52383,0.30515 1.32105,1.14546 5.3523,1.1216 1.92478,-0.41169 6.1104,0.048 -1.24784,-1.26453 z m -70.98312,-4.23359 -0.41694,-0.56494 -5.08499,-0.76118 -1.28365,-0.0851 -1.03651,0.14726 -0.13811,1.81567 7.9602,-0.55167 z m -9.15547,-0.79301 -1.38133,-1.174 -5.25127,-1.16649 -3.7675,-0.56688 -2.87883,0.25078 -2.79275,0.79304 2.40342,0.23896 2.43705,0.90223 3.25632,0.50224 4.85456,0.3896 3.12033,-0.16948 z m -54.40327,14.08914 -4.48321,-1.66446 -1.51121,-1.6345 1.29012,-1.82542 1.09621,-1.77585 3.716,-1.65436 4.23642,-0.79905 4.93414,-0.80924 0.59083,-0.49629 -1.70647,-0.61684 -2.89187,0.20132 -2.18261,0.58319 -5.05005,0.29928 -4.42688,1.05168 -2.92322,0.89189 1.04211,0.78628 -2.78554,1.57005 1.68721,0.22382 -2.19072,1.59486 0.77353,1.05001 -1.45616,0.41947 0.95478,1.07148 3.46949,0.53996 1.06702,0.90589 5.85387,0.26777 0.89621,-0.18094 z M 577.77107,3.5988 l 0.4439,-0.17798 -2.43048,-0.25138 -1.27568,0.18865 -0.65818,0.27923 -0.54131,-0.3138 -2.27943,0.0139 -2.79663,0.21146 3.38689,0.0356 -0.59656,0.37195 1.85221,0.28951 1.62778,-0.20249 0.0642,-0.19812 1.29342,-0.0906 1.90989,-0.15598 z m -386.40999,15.84271 2.87223,-0.48866 0.76736,-0.27676 -1.1847,-0.57459 -1.44237,-0.004 -0.41117,0.0838 -3.14176,1.38503 2.54041,-0.12463 z m -13.29595,9.45593 3.01905,-1.4386 -0.154,-2.25065 -0.81601,-1.68543 -18.84001,9.19573 3.07392,-1.02525 1.38358,-1.1243 3.34678,-0.56276 -2.15408,0.88197 -0.6304,0.83776 2.73636,-0.3114 1.14039,0.39282 -1.59036,1.04923 1.16771,0.71139 -0.15079,0.85674 1.64616,0.0738 1.70598,-0.51253 4.48334,-2.37393 3.53509,-0.24821 3.80411,-1.03855 0.59615,-2.19167 -4.29279,-0.34428 -2.90965,1.69055 -0.10053,-0.58244 z m 651.5629,138.64971 -0.53461,-5.87153 -0.38753,-2.20054 -1.65611,-1.08459 -1.07947,2.75881 -0.25086,3.59089 1.28217,2.71882 2.50737,3.10443 0.11904,-3.01629 z M 181.11526,53.40382 l 3.61506,-1.33243 0.31052,-0.86499 -1.11228,-0.18768 -1.69303,0.42375 -3.25945,0.99207 -1.48735,1.31597 0.0797,0.72895 3.54681,-1.07564 z m -9.66263,-17.73855 -1.81074,0.94339 0.0627,0.22164 1.95956,-0.14612 -0.0752,0.45729 0.50513,0.55066 2.40223,-0.53591 0.64045,-0.27481 -1.32142,-0.33628 -0.37728,-0.6613 -1.65704,0.25716 -0.32834,-0.47572 z m -4.87025,10.04681 1.44008,-1.02832 -1.20423,-0.24174 -2.71636,0.45705 0.0555,0.72852 0.52521,0.5034 1.89985,-0.41891 z m -94.249045,135.52922 1.100083,-0.58017 1.376906,-0.7926 0.145053,-0.20564 -0.195791,-1.29919 -0.250025,-0.49621 -0.360014,-0.32125 -0.800092,-0.62557 -0.180891,-0.0685 -0.297735,0.34525 -0.101145,0.72836 -0.715336,0.60427 -0.298682,0.41251 -0.06859,1.3505 -0.473631,1.03773 0.484203,0.532 0.635683,-0.62148 z m 0.804572,-5.78296 0.411854,-0.44386 -0.479901,-0.56688 -0.825164,-0.35105 -0.400789,0.31666 -0.07219,0.23076 0.189414,0.30043 0.15016,0.77856 1.026612,-0.26462 z m -1.035172,-1.96862 -1.277448,-0.15776 -0.396021,0.44967 1.419624,0.10723 0.253845,-0.39914 z m -2.215155,-0.53635 -0.259729,-1.21898 -0.124232,-0.23676 -0.952178,0.50806 0.04177,0.14722 -0.01534,0.83637 0.89505,0.1297 0.175156,0.0475 0.239507,-0.2131 z m -3.548796,-2.43202 0.33072,-0.85734 -0.591983,-0.0781 -0.579019,0.36051 -0.262229,0.2682 0.616095,0.67138 0.486416,-0.36461 z m 899.881936,145.19064 -1.00826,-2.1495 -0.44177,1.0037 0.36313,1.6375 1.0869,-0.4917 z m -0.14523,-5.7398 -0.97542,-1.1538 -0.84822,2.8743 0.0607,1.0346 0.64547,-0.2031 0.59219,0.4698 0.52527,-3.0218 z M 523.65871,99.53431 l -0.57005,-2.8295 -1.48324,1.25768 -0.42477,1.22755 0.67472,2.23189 1.14091,0.67758 0.66243,-2.5652 z m -12.56931,7.71715 0.0656,-0.18744 -0.0187,-0.0664 -0.22927,-0.38742 -0.41352,-0.14368 -0.50571,0.0406 -0.0178,0.0893 -0.002,0.2022 0.0616,0.0593 0.24857,0.0434 0.76722,0.38914 0.0444,-0.039 z m -2.82913,0.17436 0.0303,-0.15659 0.078,-0.0835 0.0173,-0.0959 -0.0791,-0.0602 -0.007,-0.0556 0.0794,-0.12408 -0.0963,-0.0317 -0.62226,0.20937 -0.29262,0.18003 -1.00957,0.81484 -0.001,0.13839 0.0615,0.10695 0.15977,0.0335 0.10307,0.17754 0.18636,-0.1782 0.14265,-0.0862 0.16507,0.0475 0.11385,0.10763 0.064,0.33771 0.0755,0.0851 0.24908,0.0564 0.43132,0.22677 0.20056,-0.10812 0.21999,-0.18036 0.11393,-0.30545 0.13307,-0.26538 0.15844,-0.24118 0.11202,-0.23811 -0.0359,-0.21396 -0.13186,-0.0541 -0.13312,-0.0318 -0.24758,0.10119 -0.23836,-0.11254 z m -4.17157,2.9449 0.12209,-0.0468 0.31742,-0.36016 -0.0273,-0.16452 -0.12182,-0.1139 -0.53413,0.13622 -0.11316,0.16817 -0.006,0.1674 -0.10791,0.0283 -0.0802,0.23566 0.084,0.0843 0.37823,0.0737 0.0884,-0.20826 z m 0.37641,0.83671 -0.004,-0.0998 -0.23855,-0.0355 -0.15203,-0.19107 -0.0469,0.0969 -0.0372,0.0958 0.0105,0.13725 0.24682,0 0.16505,0.0413 0.0562,-0.0449 z" />
</svg>
