<?xml version="1.0" encoding="UTF-8" standalone="no"?>
<svg
   xmlns:dc="http://purl.org/dc/elements/1.1/"
   xmlns:cc="http://creativecommons.org/ns#"
   xmlns:rdf="http://www.w3.org/1999/02/22-rdf-syntax-ns#"
   xmlns:svg="http://www.w3.org/2000/svg"
   xmlns="http://www.w3.org/2000/svg"
   xmlns:sodipodi="http://sodipodi.sourceforge.net/DTD/sodipodi-0.dtd"
   xmlns:inkscape="http://www.inkscape.org/namespaces/inkscape"
   enable_background="new 0 0 1000 2001"
   height="605.3905"
   pretty_print="True"
   style="fill:#483737;stroke:#ffffff;stroke-linejoin:round"
   version="1.1"
   viewBox="0 0 1001 605.3905"
   width="1001"
   id="svg2"
   inkscape:version="0.48.4 r9939"
   sodipodi:docname="winkel_3_joined.svg"><sodipodi:namedview
   pagecolor="#ffffff"
   bordercolor="#666666"
   borderopacity="1"
   objecttolerance="10"
   gridtolerance="10"
   guidetolerance="10"
   inkscape:pageopacity="0"
   inkscape:pageshadow="2"
   inkscape:window-width="640"
   inkscape:window-height="480"
   id="namedview19"
   showgrid="false"
   inkscape:zoom="0.11794103"
   inkscape:cx="500.5"
   inkscape:cy="301.69526"
   inkscape:window-x="0"
   inkscape:window-y="0"
   inkscape:window-maximized="0"
   inkscape:current-layer="svg2" />

utf-8<defs
   id="defs4">
utf-8utf-8<style
   type="text/css"
   id="style6">path { fill-rule: evenodd; }utf-8utf-8</style>

utf-8
utf-8utf-8
utf-8</defs>

utf-8<metadata
   id="metadata8">
utf-8utf-8<views
   id="views10">
utf-8utf-8utf-8<view
   h="2001.0"
   padding="0"
   w="1000"
   id="view12">
utf-8utf-8utf-8utf-8<proj
   flip="auto"
   id="winkel3"
   lon0="65.3146660706" />

utf-8utf-8utf-8utf-8<bbox
   h="3033.36"
   w="5018.88"
   x="-2509.44"
   y="-1462.56"
   id="bbox15" />

utf-8utf-8utf-8</view>

utf-8utf-8</views>

utf-8<rdf:RDF>
  <cc:Work
     rdf:about="">
    <dc:format>image/svg+xml</dc:format>
    <dc:type
       rdf:resource="http://purl.org/dc/dcmitype/StillImage" />
  </cc:Work>
</rdf:RDF>
</metadata>

utf-8<path
   inkscape:connector-curvature="0"
   id="---"
   data-name="---"
   data-id="---"
   d="m 600.16132,139.57824 1.117,1.04659 1.45758,0.36541 1.69247,1.24963 1.08754,2.36858 -0.0887,1.50422 -2.63627,1.90205 -2.22895,-0.25723 -2.84757,0.61035 -3.85074,-1.26634 -4.79859,-2.36186 -4.1441,0.16465 -2.78165,1.0474 -2.70718,2.3233 -4.88175,-0.37163 -0.72083,2.66945 -3.89524,0.20626 -2.43968,3.37981 1.81079,1.64062 -0.94855,2.73077 2.09578,1.9057 1.91447,3.4452 2.82738,-0.10736 2.72671,1.81744 1.7498,-0.44387 0.42533,-1.45842 2.81195,0.0685 2.33968,1.83679 3.89701,-0.46533 1.51287,-2.0455 2.28067,0.76134 1.53972,-0.32953 -0.79729,1.33288 1.178,1.56634 -0.43947,1.45148 0.60611,2.67064 -0.033,0.12284 -0.9828,2.48865 -0.57859,2.86556 -0.0684,0.0375 -0.26895,0.89203 -0.21928,2.6477 -0.51095,1.64644 0.20456,0.19528 -0.64232,1.16508 10e-6,1e-5 -1.21275,0.90228 -2.10073,-0.16464 -2.2254,-0.7923 -0.49791,1.15135 -0.90874,-1.72204 -1.93897,-0.41232 -2.31816,0.32282 -0.99722,1.01647 -1.94749,1.13497 -1.28711,-0.52676 -2.74302,-0.99593 -2.64635,-0.8893 -3.53761,0.10196 -0.74556,-1.14379 -2.67543,-0.37754 -0.89407,-0.58492 -0.99005,-0.003 -1.02874,-1.54825 -3.63939,-0.67341 -1.78884,0.49462 -1.79627,1.6521 -0.71903,1.70277 0.79814,2.66296 -1.17815,1.61439 -1.2496,0.91553 -2.95491,-1.70717 -3.84806,-1.42702 -2.43129,-0.65731 -1.40815,-3.08501 -3.60009,-1.53022 -2.24164,-0.56587 -1.09948,0.30656 -3.1616,-1.17904 -1.02784,-0.5383 -0.72971,-1.6504 -1.36698,-0.0518 -0.57142,-1.8936 1.66259,-1.75857 0.22135,-3.01322 -0.94018,-0.85919 -0.0487,-1.6094 1.22767,-1.71256 -0.21418,-0.66725 -2.14934,1.29349 0.005,-1.76067 -1.83117,-0.40743 -2.77504,1.41798 -1.76977,0.21916 -1.08029,-0.80489 -2.7723,0.0374 -2.41499,1.37865 -1.32155,-0.51286 -4.29496,0.29162 -4.40274,0.62553 -2.50415,1.05983 -1.64632,1.43503 -2.82688,0.60343 -2.52891,1.89806 -1.13844,-0.0386 -2.70462,-0.77223 -2.49424,0.23501 -1.54993,-1.48039 -1.92365,-0.0225 -0.87219,2.13329 -1.84386,3.59524 -1.99392,1.43069 -2.69778,1.57814 -1.77815,2.34253 -0.4151,1.83032 -1.10897,2.98855 0.53371,4.33157 -2.33455,2.89505 -1.381,0.92073 -2.20745,2.36797 -2.52778,0.37129 -1.41074,1.32918 -0.0515,0.0485 -1.85563,3.54515 -1.86124,1.25843 -1.06878,2.14634 -0.13748,1.85438 -0.80245,2.02664 -0.94367,0.55575 -1.61303,2.20502 -1.04101,2.45172 0.13191,1.17964 -0.97093,1.80976 -1.09594,0.94303 -0.19185,1.61348 -0.17397,1.4712 1.40472,1.51217 0.65931,1.65926 -0.33512,1.73552 0.27916,1.73297 0.20075,3.44329 -0.44303,3.27767 -0.82913,1.71404 0.19007,1.87794 -0.71381,1.78595 -1.42335,2.44015 -1.25195,0.65677 1.36876,1.24584 1.09331,2.71641 -0.39508,1.54389 0.40365,2.67179 0.16374,0.74581 0.84469,0.74185 -0.027,0.53004 0.62875,0.98388 1.18392,0.23366 1.48142,1.46 0.81162,0.57264 0.40091,0.76806 0.2969,1.53928 0.69547,0.69365 0.71757,0.45268 1.08147,1.36511 1.21551,2.06235 0.31758,2.57365 0.48247,1.27249 1.45906,1.867 2.03009,1.40489 0.76237,0.25912 1.89489,2.2476 2.40747,1.90629 2.568,2.65037 2.92258,1.66014 0.74465,-0.0303 0.54889,0.0917 2.81826,-1.27457 1.97586,-1.00298 3.36719,-0.60576 1.82143,-0.0395 1.98107,0.68055 1.29273,-0.0351 2.53182,0.98816 2.5612,-1.0085 1.58004,-1.19244 4.45222,-2.03574 2.28528,-0.74215 2.34566,-0.40621 2.50516,10e-4 2.13301,-0.0438 2.01671,2.29062 0.94226,2.51718 1.5272,2.17508 2.27392,0.0751 1.09058,-0.78004 1.07925,0.18237 2.9458,-1.25366 -0.0288,0.96153 0.72986,0.49849 0.58339,1.55868 1.29928,0.5894 1.11901,2.29985 -0.40812,2.74746 -0.97095,3.90758 0.53344,0.5246 -0.57193,2.57992 -0.69152,2.53305 -0.62192,1.11235 -0.0923,1.15589 1.72233,3.59462 1.87264,2.872 2.90898,3.51419 2.31442,3.6883 0.7421,2.618 0.38979,1.0801 -0.27517,0.6762 1.40317,2.2041 0.5586,2.3312 0.82361,3.3646 -0.88661,1.3786 -0.16064,0.7233 0.66883,2.0899 0.72436,2.1136 0.82693,1.2465 0.1174,1.9737 -0.33835,2.5783 -0.93049,1.5468 -1.65675,2.2735 -0.69539,1.4247 -0.96752,3.1352 -0.17337,1.4934 -1.02733,3.1836 -0.44719,3.0593 0.21829,2.189 0.11223,2.6708 2.18603,3.4057 0.55103,2.1876 1.34264,4.1819 1.34062,2.8826 1.02788,1.44 0.2896,1.9007 -0.0832,4.1654 0.71644,5.3662 0.57114,2.5262 0.45754,3.3934 0.94761,2.5496 1.8835,2.6443 1.69929,4.5389 0.004,0.01 1.18276,2.9608 1.55503,3.2744 -0.0962,2.6738 -0.89586,0.6267 0.71234,2.3417 -0.14805,2.0418 0.288,0.9394 0.1567,-0.4817 1.02755,1.5658 0.88396,0.072 1.02197,1.2534 1.19971,-0.071 1.72188,-1.2994 2.28786,-0.527 2.82596,-1.3447 1.07595,0.1953 1.63241,-0.4059 2.79679,0.7074 1.36392,-0.6469 1.55368,0.5366 0.43036,-0.9638 1.3615,-0.1636 2.88898,-1.3156 2.15266,-1.5598 2.07785,-2.0674 3.36409,-3.5595 1.7622,-2.4808 0.92318,-1.7844 1.31023,-1.7587 0.57428,-0.4977 2.00787,-1.7388 0.85081,-1.568 0.59654,-2.9004 0.91424,-2.5362 0.40129,-1.8375 -0.67379,-0.2446 -0.10267,-1.4763 1.30869,-1.2776 3.44951,-1.8504 2.36028,-1.1528 1.25531,-1.2302 0.53678,-1.4513 -0.59389,-0.608 0.58537,-1.621 0.36598,-3.4338 -0.50114,0.1691 0.0506,-1.048 -0.38219,-2.0604 -1.11047,-2.6669 0.41533,-2.4942 1.20082,-0.7974 2.11499,-2.4683 1.11479,-0.6283 3.40638,-3.7292 3.26072,-1.6695 2.64386,-1.3072 1.92669,-2.1585 1.24589,-2.4278 0.99431,-2.5016 -0.38937,-1.725 0.19863,-5.4907 -0.19161,-3.0851 0.2799,-3.4991 -0.38824,-1.5782 0,0 -10e-6,0 -1.00493,-0.7749 -1.03506,-3.4702 -0.91064,-2.2066 0.24116,-1.6765 -0.12884,-1.0679 0.84385,-2.1171 -0.0594,-0.9135 -1.78254,-1.2869 -0.11928,-1.9902 1.40263,-4.3222 1.16544,-1.1566 0.59288,-2.3358 0.93326,-1.4155 0.43318,-2.47494 1.06885,-0.25584 0.71642,-1.46543 2.00369,-1.4013 0.64806,-0.83196 0.66562,-1.85399 3.12005,-4.26117 2.64457,-2.67882 4.23111,-3.50249 2.81373,-2.85892 3.26151,-4.82081 2.33249,-3.96105 2.27781,-5.18691 1.581,-4.52192 1.18676,-3.95666 0.60258,-3.82673 0.52631,-1.28174 -0.11724,-1.85773 0.13636,-2.05829 -0.12516,-0.97661 -1.06792,0.0203 -1.25934,1.22239 -1.47367,0.36962 -1.26905,0.53656 -0.89739,0.0778 0,-1e-5 -1.59926,0.13838 -0.97176,0.65245 -1.38682,0.24425 -2.42664,1.11609 -3.05235,0.44216 -2.61862,0.92136 -1.40315,-0.001 -1.34499,-1.46385 -0.62543,-1.4509 -0.95081,-0.64129 -1.26049,-0.95274 1.56435,-0.85481 0.009,-1.46151 -0.72712,-1.08293 -1.44383,-1.04568 -0.94935,-1.20019 -1.64285,-2.01454 -1.68192,-1.98854 -4.03462,-3.28063 -1.64427,-1.6947 -0.98343,-3.2135 -1.90238,-4.04439 -1.61697,-1.27943 -1.12223,-0.85174 -1.33029,-4.17381 -0.68432,-3.60349 0.55499,-0.64322 -1.17489,-3.4273 -0.54439,-0.71161 -3.47161,-3.10294 -0.2861,-2.27469 0.49038,-0.61772 -2.80353,-3.84256 -1.05744,-1.96475 -1.18215,-1.88863 -2.5691,-5.41974 -2.00184,-3.49149 -1.48404,-3.67236 0.24321,-0.32097 2.42366,4.98305 1.37264,1.54296 1.01211,1.11545 0.56951,-0.62004 0.54947,-1.83254 0.30271,-2.6517 0.60293,-1.41799 -0.36585,-0.90442 0.36586,0.90444 0.14482,0.50505 -0.18266,1.40146 0.01,1.22659 -0.22,1.92681 1.34216,-0.0373 1.62675,2.38274 1.93829,2.79808 1.32241,2.58923 0.87266,0.77024 0.93632,1.80492 -0.0722,0.79415 1.09142,1.99469 1.54768,0.70358 1.41517,1.34948 1.93903,3.86576 0.0712,2.08065 0.5338,2.4334 2.11676,3.32 1.28348,0.56053 2.11944,2.39145 1.01609,2.85199 1.71462,2.92784 1.53636,1.24216 0.32115,1.39953 0.9208,1.04899 0.47232,1.49618 0.23343,1.53209 -0.29194,0.68173 0.39716,1.60352 -0.54935,0.1768 0.90134,1.4372 0.71571,2.59566 0.5236,1.03336 0.0353,1.92355 0.85058,2.04844 1.95918,0.1617 0.87189,-0.48574 1.398,0.065 0.38244,-0.89967 0.72195,-0.26392 0.55749,-0.93588 0.69763,-0.20708 2.34885,-0.20646 1.74734,-0.69692 1.54273,-1.48079 0.85714,0.19949 1.22295,-0.20792 2.33118,-2.51858 4.35062,-1.70186 2.66511,-1.52792 -0.0369,-1.20641 0.40328,-1.57696 1.9345,-0.97845 1.27118,-0.21887 1.75332,-1.22116 1.57131,0.31056 1.2534,-1.00384 -0.1572,-1.43033 0.99874,-0.90932 1.73427,3.3e-4 0.55726,-0.7584 0.0844,-1.73096 1.58682,-1.35482 1.27829,-0.0111 0.21177,-0.44037 -0.61804,-2.36392 0.22748,-1.80588 0.47045,-0.85645 1.27681,0.16161 0.71994,-2.45036 1.01161,-1.15852 0.30618,-1.00495 0.70931,-2.1361 -0.10632,-0.79167 -1.04609,-0.42769 -0.9071,-1.16156 -1.5294,-2.00475 -1.71397,-0.60943 -2.07241,-0.41797 -1.7113,-1.25138 -1.57711,-2.38953 -0.78997,-2.78547 0.25547,-0.64983 0.028,-1.46719 -0.38333,-0.29897 -0.60165,1.22273 -1.38546,2.21883 -1.70034,2.312 -1.53512,2.42945 -1.66462,-0.0699 -2.27194,-0.0457 -2.06583,0.59956 -0.22818,-0.96573 -0.46348,0.18119 -0.69673,-1.33684 0.31143,-2.08742 -0.33434,-2.06404 -0.97743,-1.08793 -0.68802,0.39518 -0.47695,1.86483 0.52478,2.56216 -0.52252,-0.85621 -0.51764,-1.14872 -0.91579,-0.9718 -0.50531,-1.17681 0.10833,-1.17936 -0.36797,-1.45057 -2.054,-1.44134 -0.63927,-1.22694 -1.44311,-0.77561 -1.49392,-3.0123 -1.25791,-2.63468 0.11842,-0.80801 -0.79434,-1.53967 1.61301,0.1362 0.78271,-1.39632 1.88147,1.12613 1.34655,-0.60462 2.71877,4.64849 2.31092,3.30213 2.74983,0.94454 3.14112,2.6486 3.48682,1.0947 2.46225,-1.77499 1.97475,-0.68242 1.39504,0.59457 1.84715,4.31016 3.13697,0.38608 3.09213,0.74168 5.28802,0.94334 3.74697,-0.59586 4.40392,-0.18286 4.88563,-0.80627 2.5808,2.65484 1.25648,2.54034 2.15497,0.84831 3.72031,2.945 1.04248,1.38094 -1.1083,1.3259 4.27876,4.24366 2.00921,0.38104 3.66449,-2.24677 1.0726,3.34414 0.6507,4.34541 1.48378,4.57417 2.06249,6.93755 3.12977,4.89049 0.73533,2.23949 1.16712,4.4917 1.82816,3.43814 1.14254,1.69063 1.39368,3.62329 1.69471,5.03859 2.90887,3.34379 1.06795,-1.05169 0.78078,-2.47096 2.50204,-1.05791 -0.95282,-1.18206 1.05902,-2.77844 1.44565,-0.19621 -0.56357,-6.1531 0.82966,-3.46101 -0.4883,-3.00079 -1.15703,-4.69553 0.47648,-2.77782 1.27783,-0.22004 2.33323,-1.35451 1.26256,-0.92555 -0.23832,-1.66696 2.41057,-2.44205 1.72217,-2.34273 2.37441,-4.35643 3.52816,-2.56321 1.06314,-2.19644 -0.69318,-2.72871 3.2268,-0.86746 1.87305,-0.0175 0.11562,-1.34252 1.12705,0.28911 0.8584,0.37024 0.25817,-0.67704 1.3205,0.69807 0.42436,-2.05876 -0.57759,-1.49322 2.54431,0.0531 1.60947,2.08202 0.9004,1.73891 0.5513,1.85528 1.17759,1.87838 2.55179,2.91881 1.70431,0.41586 -0.0789,1.332 2.96278,4.15948 1.19266,3.42045 -0.19676,4.58054 1.86447,0.81483 1.61591,0.28505 2.73382,-2.714 1.51297,-1.90222 1.72687,3.01891 1.25482,4.64975 1.56799,4.39936 1.40601,1.88866 0.30262,4.03701 1.21493,2.1708 -0.53727,2.85487 0.56784,2.74487 -0.48113,3.56776 -0.10038,2.31658 0.70957,2.05082 0.28083,-2.18574 1.52077,1.73857 1.67272,2.07424 0.62237,1.83297 1.22042,1.41202 0.72999,1.56881 -0.14773,2.71072 1.13285,2.01841 0.53508,3.07875 1.73927,2.47952 0.3944,1.89642 3.44034,2.94511 2.73995,2.7591 2.01415,-0.25454 0.0339,-1.26548 -1.1944,-3.30391 -1.03179,-1.02513 -0.28259,-2.21088 -0.3267,-1.28295 0.22878,-1.70221 -0.28773,-2.51472 -1.33311,-2.48835 -1.81862,-2.23385 -0.67559,-0.34066 -1.60454,-1.91587 -1.74858,-0.4107 -1.74367,-2.10916 -0.77771,-3.21005 -1.46227,-3.3717 -1.85178,-0.0851 -0.46493,-2.68119 0.5575,-3.29337 0.85367,-5.45002 -0.33675,-4.08397 2.46464,-0.0836 -0.003,2.92662 2.39138,-0.1266 2.75179,1.64807 1.91444,3.81539 1.37808,1.9187 2.42262,0.49612 2.3337,2.08065 -0.52177,2.54842 1.26534,2.38057 3.16579,-3.55108 1.94637,-3.1723 2.92777,-2.48794 2.0188,-2.53046 -0.5937,-6.62139 -2.44888,-6.90718 -2.24221,-2.95363 -2.96024,-2.22561 -3.56447,-4.78652 -2.94242,-3.84798 0.0324,-2.60538 1.46872,-3.60846 2.86538,-3.34229 1.1344,-0.66412 3.96412,1.02995 -0.28131,1.47353 1.38469,2.68104 1.4649,-0.28434 -0.0581,-3.99187 2.73512,-0.70669 3.30066,-2.05741 1.02005,-1.93912 1.27798,1.17116 1.18889,-1.7511 2.92769,-0.58795 2.81565,-3.36596 2.60898,-3.68202 0.99385,-4.6404 0.41412,-5.07253 0.41441,-4.19572 1.33815,-0.43771 -0.49528,-3.02323 -0.82877,-3.08433 -2.00454,-1.0517 -1.4464,-1.95002 1.19141,-1.14172 -1.15126,-2.77889 -2.99932,-2.73033 -3.08365,-3.28721 -2.67961,-3.56959 -3.66828,-1.81442 0.0521,-2.6912 1.51914,-2.05563 0.16099,-2.0916 2.9751,-1.33745 -1.40792,-1.8962 -1.64266,0.044 -2.93298,-1.23829 -1.4056,2.86707 -2.50093,-0.90574 -0.92663,-1.6408 -2.32315,-0.42816 -2.57501,-2.36387 0.34709,-1.81498 2.29393,-0.38784 0.21099,-2.49507 1.30114,-2.79061 1.35055,-1.48601 2.36512,1.79161 -0.51869,2.63767 1.29712,1.37861 -0.36184,1.81689 2.06951,-1.24176 0.82644,-1.8803 2.76138,-1.38842 1.70014,0.87318 1.6352,0.26315 0.50213,0.58496 0.51161,2.04266 0.59328,0.65177 -0.33192,0.48686 0.22852,1.68451 0.9784,0.52664 0.81768,0.27854 0.46477,0.68649 0.54997,-0.37382 -0.0856,-0.7216 1.57246,0.59051 3.40305,3.00831 -1.49395,0.79443 3.12163,3.7632 0.96506,2.83195 1.29614,2.00471 2.09842,-0.51876 1.21297,-1.72722 1.88613,-0.92351 -0.14148,-2.13815 -2.3364,-4.28736 -1.94052,-2.34772 -4.5739,-4.15927 -2.30184,-1.48208 -1.3063,-0.50344 0.0446,-0.43473 -0.85845,-1.60033 0.45305,-1.09253 1.22722,-0.76737 0.2386,-1.179 0.0254,-0.6917 0.72377,-0.9404 -1.74057,-2.62275 -0.0932,-1.32052 0.21521,-1.34855 1.02854,0.12155 4e-5,4e-5 -10e-6,-4e-5 10e-6,1e-5 -2e-5,-2e-5 -0.43254,-1.25559 1.31974,-3.02001 2.64816,1.60678 1.42403,-0.21509 1.59002,-2.50075 -0.0437,-2.32926 -0.013,-4.5676 -0.18071,-4.59508 -1.21558,-2.58674 -0.94755,-5.62268 -3.87678,-5.81553 -3.54097,-4.23653 -1.58432,-3.733 -2.8363,-2.95483 -6.5062,-3.38827 -2.3965,0.093 0.34519,1.91213 -2.66783,-0.49335 -3.00621,-2.02568 -3.55154,0.005 -0.34367,-9.14324 -0.83622,-7.48764 4.9189,-1.93435 6.18008,-0.3353 0.32184,-1.9941 3.35519,0.0276 2.69359,2.40805 2.36226,-0.82022 2.91536,-1.56145 -3.90926,-1.7494 -2.57694,-6.20373 2.88151,-1.88768 6.59251,3.66983 -0.49515,-4.31964 -2.63435,-2.78386 1.57787,-0.65154 4.9002,4.69544 0.4504,3.13655 1.40399,3.88949 2.04572,4.71611 -1.86191,1.25094 1.76081,1.56959 0.81628,2.27029 4.45251,4.83305 9.37271,7.41369 6.1501,4.91591 3.20195,2.28233 -0.5563,-3.75422 -3.19128,-3.62468 1.91244,-1.36134 -3.73335,-4.03012 1.22179,-2.34915 -2.46623,-1.30851 -2.57384,-2.96022 1.51182,-0.44888 -5.73785,-4.87653 -2.91508,-0.34674 -1.73482,-1.31573 -1.99712,-3.56129 -2.25679,-2.23229 2.83111,-0.01 -0.25456,-1.6994 2.37222,1.03327 0.81287,-3.39296 5.41078,1.69351 -1.44207,-1.56815 -0.46507,-2.43589 -0.83821,-2.71572 0.83284,-0.66919 0.69242,-3.27222 3.83076,-5.7e-4 -0.895,-0.88835 -2.17476,-1.19737 -1.9858,-0.64189 -4.87554,-2.23747 -3.90183,-1.26356 2.22888,-0.21719 -0.32762,-1.7081 -0.0164,-0.018 -20.02394,-11.18278 -4.08623,-0.78281 -6.26442,-0.49426 -2.50992,0.73378 -5.74969,0.086 1.57371,1.35685 4.26228,1.57274 -0.17753,1.24893 -6.77344,-2.04208 -2.13826,0.81812 -3.62579,-0.0633 -2.41463,0.53491 -0.96791,0.93612 -3.12219,-0.5093 -3.25877,-2.13757 -3.14088,-0.98067 -3.62588,0.005 -4.98322,1.49784 -7.30814,-1.63083 -3.93601,-1.53873 -16.12,-0.0305 -0.0896,1.55066 5.06333,2.63273 -3.08057,-0.0831 0.0574,0.99921 -4.2525,-0.53783 -1.51495,1.16168 -4.32109,-1.05663 2.73535,3.41597 -4.09596,-0.94228 -5.09932,-2.18572 -0.76105,-1.39694 -3.29013,-1.87125 -4.58768,-1.318 -2.40837,0.29465 -3.93544,-0.17355 2.90378,2.36275 -7.08106,0.25338 -2.15412,-1.41469 -5.60855,0.004 -1.91601,0.74769 0.25813,0.88614 -3.14253,-1.93695 -0.72014,0.73292 -3.22976,-0.5692 -2.44422,-0.25656 0.10969,-1.04543 2.02541,-2.12275 0.58101,-1.08102 -1.58801,-1.64356 -2.62389,-1.04273 -5.20081,-1.19982 -4.4095,0.34056 -0.48358,0.87632 -2.20197,-1.50582 -3.93548,-0.19677 1.13519,-0.93487 -3.71285,-0.80305 -2.04909,1.56262 0.0468,1.4541 1.0679,1.39786 -2.86486,0.17059 -1.6954,1.96613 -2.003,-0.62078 -3.78191,0.60643 0.34407,0.92159 -3.74265,0.73786 -1.5959,1.83672 -1.75967,0.22119 0.0332,2.28321 2.82548,1.62123 -3.19947,0.6865 -4.10044,0.13096 -2.34897,0.86393 2.9641,3.52857 3.68381,2.66939 -4.64145,-1.68274 -3.42456,0.41419 -1.92289,1.5047 2.53453,2.36859 -2.31336,-0.49192 -1.63587,-3.282 -2.25183,-1.79921 -0.79561,0.12935 2.11357,2.35822 -1.52755,2.46096 4.18107,2.60205 0.86356,3.48109 1.68369,1.85374 2.1801,0.14911 0.62357,2.29168 2.33996,1.85745 -0.5745,1.72329 0.56504,1.71577 -1.54313,1.00919 -0.009,1.27596 -2.4887,-0.36498 0.71553,-5.07139 -0.6584,-2.31708 -3.37278,-1.94896 -2.63907,-4.66179 -2.15781,-2.3234 -1.82176,-1.00745 -0.2174,-2.83136 -1.66519,-1.84631 -5.14476,-0.6172 -0.82887,0.73539 0.88252,3.13047 -1.31394,3.24961 0.72354,1.0822 2.5849,2.59265 0.37431,1.64566 2.40568,0.20552 0.49257,0.71781 2.96662,1.68662 -0.16671,1.85514 -9.00211,-3.50528 -3.15253,-0.92529 -5.98401,-0.74627 -0.34406,1.17555 3.00201,1.87911 -0.91904,2.37456 -3.20282,-1.95349 -2.05275,1.55686 -3.47514,0.2637 -0.79076,1.23574 -2.5145,-0.25022 0.87393,-2.16799 -1.49186,-0.10421 -5.25058,3.2405 -3.30134,1.80604 0.42097,2.21763 -2.70666,0.8677 -1.98447,-1.12207 -0.75359,-1.91916 2.26267,-0.5203 -1.86259,-1.88724 -5.7395,-0.90578 2.20971,2.08791 -0.16756,2.09849 2.38116,1.99779 -0.26851,2.41619 -2.26736,-1.1404 -1.87821,-0.13447 -3.46143,3.5453 2.16463,2.48946 -1.42598,0.90049 -5.51993,-1.99939 -0.89009,1.3514 1.65235,1.45153 0.2278,1.68843 -1.84892,-0.85124 -2.9083,-0.97937 -1.1217,-3.53734 -0.58296,-1.60352 -3.92929,-2.44559 1.31769,-0.4805 9.57373,2.36561 2.92207,-1.02839 1.56207,-1.89063 -0.92412,-2.29536 -2.04668,-1.59145 -8.49342,-3.67744 -5.42081,-0.67219 -3.69274,-2.00732 -1.59458,1.2542 -6e-5,3e-5 -2.64077,-2.12281 2.13546,-0.9861 -6.44396,-2.39225 -3.12302,0.76323 -3.38897,-0.0837 -2.20343,2.92715 -3.10632,-0.12839 -3.83494,1.58736 -4.54246,4.4317 -2.88547,2.65601 -3.98014,6.76337 -3.25252,4.8796 -3.78716,3.61986 -5.32907,2.95165 -1.84128,2.24617 0.97649,8.02224 0.92304,3.73511 3.11751,1.75566 2.89175,-0.83305 4.04992,-4.05376 1.62056,2.12136 2.05901,4.90296 2.18864,3.92818 0.9899,3.28048 2.60822,-0.18746 1.01837,-2.77238 2.75914,0.3035 0.9218,-3.27384 0.17914,-5.8482 2.17166,-0.84481 1.48005,-3.95126 -2.30564,-1.89777 -1.82851,-2.42769 0.88955,-4.91642 3.56757,-3.05073 2.80761,-2.84839 -0.67659,-2.12151 1.52433,-2.45798 3.24644,-1.04864 3.10444,1.58367 0.50884,1.46353 -1.20103,0.75376 -3.95732,3.85687 -1.49696,2.21559 -0.66137,2.04056 1.5199,3.11667 0.0676,3.43186 2.25066,1.10421 1.55101,1.87338 3.37623,-0.80016 3.53598,-1.35164 3.82251,-0.36207 10e-6,0 2.58284,1.59974 -2.05613,1.97698 -4e-5,-5e-5 -2.21019,0.15229 -2.45124,-0.52445 -2.63222,0.5602 -2.57606,1.02127 0.51518,1.99347 1.59186,1.20909 0.73251,-0.45376 0.088,2.05609 0.0115,2.67753 -1.77229,0.101 -2.1603,-2.56597 -1.90551,1.22378 -0.77967,2.20207 0.28644,2.61918 0.88046,2.91564 -2.98375,1.17769 -0.32753,1.53856 -2.20754,-0.0117 -0.27196,-0.84583 -2.33976,-0.55597 -2.74344,1.21424 -3.41399,1.65082 -1.47755,1.03863 -1.18031,-1.09628 -2.69755,-1.34755 -1.21335,0.96451 -2.28552,0.67337 -0.0601,-1.23452 -2.36313,-0.79205 -0.12497,-1.3437 -0.7233,-1.68861 1.46123,-2.51648 0.6957,0.37228 0.4558,-1.31647 -1.25126,-0.51629 -0.33482,-0.97166 0.58086,-1.13804 -0.0524,-1.78902 -1.71437,0.99518 -0.71811,0.96523 -1.94813,0.22964 -0.58129,1.04757 -0.32183,0.94116 0.25646,3.55464 1.02418,1.92412 0.2114,1.97149 0.59488,1.3002 -1.47294,1.72447 -0.46544,-0.76426 -1.91599,0.19998 -0.41849,0.73884 -1.92167,-0.0889 -3.11545,1.46854 -1.91149,5.12289 -1.19103,0.9587 -1e-4,-1e-5 -1.87575,0.69004 -2.05486,0.70524 -0.68709,2.85037 -5.55077,2.71247 -2.24278,-1.49409 0.72056,3.93726 -4.02472,-0.90164 -3.13243,0.74785 0.18067,2.53672 3.67604,1.34713 1.76891,1.76273 2.49097,3.65242 -0.51524,6.92794 -1.30635,2.08451 -4.0373,-0.1221 -2.07843,0.17719 -2.64411,-0.60227 -3.35247,0.009 -3.03079,-0.64199 -3.63969,2.49071 0.9595,1.51507 -0.23014,2.47664 0.063,1.17325 0.45605,1.25196 -0.002,1.4741 -0.61299,2.08889 -0.2362,1.4051 -1.07051,1.25726 -0.29568,2.27615 0.56387,1.32156 1.14148,0.32687 0.1655,2.14018 -0.49241,2.72018 1.35358,-0.37647 1.35381,0.49527 1.0712,-0.89827 2.40883,0.54809 0.68724,2.00332 0.93792,1.17827 1.27103,0.29244 1.02275,-1.31135 1.65328,-1.22395 2.4785,0.0712 3.30279,-0.048 1.85735,-2.67215 1.95796,-0.69187 0.56403,-2.26026 1.49087,-1.55134 -1.00086,-1.98733 0.98684,-2.83051 1.56226,-1.92828 0.22263,-1.16999 3.2451,-0.73788 2.37001,-2.31999 -0.16287,-2.01988 0.25725,-2.09473 3.62412,-1.13722 4.95882,0.92423 2.19846,-1.97503 1.02694,-0.26006 1.3744,-1.62173 1.12365,-0.47639 2.07409,1.13586 1.25796,0.39648 0.94945,3.43363 1.8092,1.99224 2.42741,2.24776 2.0655,1.55552 1.88791,0.21026 1.18427,1.3894 1.6734,0.61842 0.84972,1.49535 1.08736,0.42399 0.89786,1.74797 1.1375,2.00784 -0.50824,0.74872 -0.40248,1.87172 0.0586,1.06433 1.05888,-0.27795 1.17236,-2.9986 1.05825,-0.21696 0.17219,-1.81968 -1.94159,-1.27204 0.9093,-2.2623 2.25529,0.54981 1.54305,1.61026 0.377,-1.25202 -0.31629,-0.64731 -2.32375,-1.7919 -1.94231,-1.03336 -2.3593,-1.23538 0.65808,-0.70038 -0.67136,-0.76312 -1.97409,0.0406 -2.98843,-2.77871 -1.44636,-2.86553 -2.44614,-1.73259 -0.92149,-1.76465 0.2426,-0.99358 -0.24324,-1.72585 1.92152,-1.25174 1.99238,0.48911 -0.52573,0.3206 -0.0839,0.0571 0.0277,1.20855 0.80982,1.15826 0.65149,-1.50894 1.62652,0.53344 0.13335,1.17419 1.23923,1.45226 -0.48158,0.26501 2.28682,2.54006 2.36603,1.0103 1.55387,1.23713 2.46707,1.26116 0,-1e-5 1.14607,0.67823 0.80555,1.12829 0.55147,0.26339 0,1e-5 0.47329,0.54347 -0.24909,1.085 -0.008,2.37839 0.36305,1.65646 1.5125,1.15258 0.11729,0.76558 0.45557,0.23859 0.25902,0.98967 1.48609,1.97036 1.14289,1.58897 0.65318,2.31226 1.21188,2.7754 2.26299,1.48961 1.72407,-0.0653 -1.26471,-3.06284 1.60956,-0.38727 -0.93035,-1.76728 2.47733,0.8914 -0.23275,-1.96859 -1.37378,-0.99316 -1.58713,-1.58665 0.8912,-0.77662 -1.44157,-1.61767 -0.77558,-2.07301 0.40106,-0.77106 1.52834,1.77556 1.41982,-0.0236 1.23485,-0.58677 -1.97029,-1.9331 2.97343,-0.95144 1.35974,0.30897 1.55613,0.0747 0.0488,0.71988 0.98731,1.61086 1.89886,-1.91208 0.94949,-1.0964 2.98145,-0.24454 0.34898,-0.86252 -2.34952,-1.08696 -0.47171,-1.33518 -1.06788,-1.97466 0.58477,-2.50962 1.09649,-1.46785 0.10078,-4.21815 0.79646,0.31199 1.08573,-0.77347 -0.19087,-0.89786 1.50587,-2.61467 0.60226,-1.93833 2.18501,-0.47771 0.38206,1.29621 3.94197,0.79674 0.84496,0.78253 -2.14997,1.2118 -0.3236,0.67808 2.85635,0.96115 -0.27092,1.65118 1.49184,0.67888 3.00347,-2.09563 2.58448,-0.66927 0.25053,-1.25682 -2.46314,0.27043 -1.3498,-0.81286 -0.53239,-2.16613 1.85745,-1.35138 2.23964,-0.24118 1.39367,-1.17028 1.87731,-0.3301 2.05548,-0.62122 0.22216,0.76108 -3.28665,1.51997 1.63291,1.34508 -1.46312,2.9714 -1.68121,0.60257 2.50535,1.99748 3.06368,1.24541 3.72341,2.86955 z m -13.17939,181.31192 0.14281,-0.5894 -0.79731,-0.9358 -0.32463,-1.9219 -1.69103,-1.9119 -0.92649,-2.5068 0.53337,-1.4727 -0.73642,-1.9684 0.58045,-5.588 0.0123,0.041 1.00403,3.3343 -0.016,0.1554 -0.15663,1.5097 0.53755,0.5066 -0.11904,1.4896 0.52376,1.3796 -0.67535,1.338 2.23921,2.3807 0.16699,2.1667 1.33494,3.5805 0,0 0.21559,0.5821 -0.47817,0.1961 -0.59204,-0.7309 -0.96001,-0.2844 0.18209,-0.7498 z m 9.97025,-29.1868 0.68861,1.32815 -0.18724,2.59431 0,2e-5 -1.41026,1.562 -0.94164,1.5821 1.11621,1.20234 -1.62984,0.86032 -0.35202,-0.40906 -1.64779,0.20616 -1.27687,0.78449 -0.78128,-1.34955 0.55054,-2.4491 0.095,-2.10676 -10e-6,-7e-5 -0.14161,-1.35437 1.30478,-2.04507 1.80214,-0.50028 1.21086,-0.8344 1.47608,0.68927 0.12438,0.2395 z m 43.06968,-131.29664 -0.0679,0.83058 -3.83138,1.05448 -3.79488,-0.49676 -2.14919,-1.71015 -2.58743,-0.66057 -1.33629,-2.56461 -0.42564,-1.73577 0.76447,-0.84783 0.17813,-1.24211 -0.1464,-2.73792 2.02162,-0.34718 -0.98914,-0.92131 -1.21283,-0.12722 -1.83422,-2.44728 -1.73263,-1.80434 3e-5,-4e-5 -3.6539,-4.04009 -0.29466,-2.36585 -3.01058,-3.25006 1.57502,-3.68948 2.22034,-0.65529 0.58253,-2.11213 2.06842,-0.81214 2.38397,-1.63839 2.28241,0.77861 2.36624,-0.25948 1.03328,2.14837 0.49461,3.43292 -2.27059,-0.44537 -1.92627,0.64298 0.56486,2.56381 -2.47279,-0.24996 0.36694,1.13817 1.58055,0.83957 1.89496,3.10876 3.17293,1.09551 0.77803,1.20556 -0.25377,1.48299 0.34826,0.85071 1.33083,2.24741 -0.36709,-2.58036 1.7889,-0.96492 1.21683,1.98272 2.34989,2.04399 -1.9374,1.20033 -2.58116,-0.78161 0.13688,2.97818 1.72787,0.14935 -0.0948,2.42695 2.2571,1.12455 0.4593,3.68947 1.02573,2.47225 z m -40.9387,171.73704 -0.81468,3.2976 0.25165,4.016 0.0281,0.4673 0.52241,0.1505 0.47891,1.8774 -0.0899,0.4333 -0.92722,-1.3717 -0.53493,0.872 -0.41097,-0.7543 0.077,-1.3156 -0.59818,-1.03 0.0961,-1.5228 -0.72405,-2.5836 0.89954,-1.9407 -0.0132,-4.2236 -0.91882,-2.2677 0.10423,-0.3878 0,0 0.18346,-0.6837 1.43098,1.881 0.0988,3.6813 0.87499,1.3474 -0.0142,0.058 z m -257.29509,145.8011 1.03252,0.1244 -2.35685,-1.9402 -2.23081,-3.5923 0.28895,-1.6902 1.57681,-1.4935 -0.0465,-4.1866 2.06025,-2.1173 -0.30693,-3.1876 -2.5341,-0.5991 -3.2695,-2.4568 -0.23283,-2.6702 1.28275,-1.8924 2.29072,-0.1173 -0.045,-1.9098 -0.77958,-3.5567 1.29442,-2.2769 1.94484,-1.1913 -1.28694,-1.798 -1.02515,1.169 -1.99761,-0.9882 -1.39956,-3.4886 0.69442,-0.9638 2.78168,1.1831 2.42422,-0.5921 1.15415,-1.3007 -0.958,-1.7589 -0.20314,-2.6593 -1.09624,-2.083 2.88464,0.2485 4.91199,-0.9231 3.31641,-2.024 1.4056,-4.6008 -0.25846,-1.7252 -1.96033,-1.4828 -0.18399,-2.442 -3.96613,-2.9154 -0.21903,-1.8486 2.0112,1.9016 1.74611,-0.1692 2.73243,1.4388 1.33118,-0.4215 2.07094,0.6458 2.5487,-2.0458 0.69741,-2.246 1.353,-2.0626 0.5852,-3.3825 1.50611,-1.6944 1.85549,-2.8523 1.96731,-6.2669 1.58302,-1.9796 0.35819,-1.731 -0.002,-3.5666 -0.71816,-1.9347 0.0416,-2.6371 1.85623,-3.5367 2.87547,-2.8614 2.94668,-1.0812 1.75636,-1.5969 4.17376,-1.4201 2.98461,-0.038 0.43502,-2.1145 2.08347,-1.5539 0.13874,-3.6321 2.41929,-4.6182 0.12742,-4.6975 0.77846,-1.3945 0.13168,-2.3171 0.42104,-5.4169 -0.58755,-6.574 0.64728,-2.5886 0.70002,-0.074 1.93484,-3.0575 1.62058,-3.9777 3.79524,-4.9025 1.36234,-2.2957 0.95917,-5.7984 -0.5241,-2.1183 -1.06092,-4.4591 -1.05065,-1.1027 -2.432,-0.1334 -2.20749,-1.0055 -3.69478,-3.9223 -4.24205,-2.89779 -4.24747,0.14494 -5.55693,-1.85068 -3.29516,1.09108 0.44499,-1.95041 -1.40603,-2.06227 -4.73841,-2.14816 -3.58546,-1.2658 -2.15088,2.31779 -0.11563,-3.53888 -5.03061,-0.55418 -0.88473,-1.06567 2.14984,-2.90867 -0.0594,-2.43947 -1.51607,-0.58573 -1.5058,-6.18696 -0.66286,-1.95832 -0.97194,0.16377 -0.43692,-1.45056 -2.92779,-3.00011 -2.06562,-0.84818 -0.95195,-0.39457 -3.02104,-0.96851 -2.30394,0.24346 -0.32688,0.63785 -3.37712,-0.72942 -1.07562,-1.24285 -1.45265,-1.74259 -1.0653,-0.0912 -10e-4,-1.83068 -1.64573,-2.32918 -1.79415,-1.32317 -1.06534,-0.848 -1.47976,0.0677 -0.29008,-2.8562 -2.03686,-1.77196 -2.24319,-0.29075 -0.85404,-1.69292 2.46936,-1.02637 -3.38625,0.012 -3.51182,0.17559 -0.0954,0.89852 -1.66098,1.09792 -2.13021,-0.46542 -1.50279,-1.61936 -3.04295,0.33178 -2.53241,-0.0619 -0.0204,-1.18712 -1.67343,-2.0212 -1.97204,-0.0846 -0.79506,-2.53367 -1.08648,1.11749 0.2469,1.6962 -3.63182,1.41212 -0.0712,2.72092 0.78202,1.27462 -0.81724,2.5888 -1.23512,0.21983 -0.86827,-2.86397 1.40433,-2.07191 0.1844,-1.87832 -0.78326,-1.64301 1.69045,-0.39614 0.15359,-0.84737 0.65385,-1.20098 -0.65257,-0.95536 -0.97648,-0.23501 -1.52112,1.71047 -1.1693,0.78764 -2.37645,1.78451 -2.1798,-0.33172 -0.28936,0.74741 -1.78282,0.0433 -1.76027,1.65018 -0.76526,3.04063 -0.11841,1.1928 -1.19266,0.36977 -2.30283,2.49539 -1.45413,-0.13156 -0.99304,-1.01145 -0.84266,-1.09927 -1.21028,-0.64069 -1.56644,-0.14373 0.13325,-0.3547 -1.54339,-0.23304 -1.05002,1.06996 -1.77355,0.709 -1.27259,0.90082 -1.41139,0.24485 -0.70964,-0.9019 -0.28973,0.2919 -1.11592,-0.17781 0.11812,-0.76888 -0.90945,-1.31684 -1.19463,-1.57012 -0.96138,-1.47945 -0.52983,-1.987 -0.37437,-0.6045 -0.0339,-0.98518 0.67035,-0.9202 -0.0943,-0.9636 0.42854,-1.55038 0.46841,-0.34928 0.11067,-1.63748 -0.0439,-0.93959 0.27859,-1.59937 0.4777,-1.45572 0.7988,-1.22374 -0.11694,-1.3347 0.24758,-0.80746 0.28619,-0.34313 -0.60308,-1.01484 -0.94067,-0.57902 -0.69534,-0.8327 -0.75687,-0.6989 -0.43157,-0.0906 -1.20231,-0.53438 -0.59954,0.30226 -0.74187,0.0677 -0.63202,-0.26306 -0.86137,-0.20983 -0.38622,0.39962 -0.95568,0.3811 -1.30351,0.064 -1.2482,-0.36045 -0.45933,0.17045 -0.21514,-0.30362 -0.80577,0.0326 -0.70613,0.6263 -0.26892,-0.14969 -0.74947,-0.48626 -0.32099,0.53799 -0.81136,-0.68322 0.74348,-1.25062 0.52093,-0.10331 0.69572,-0.95403 0.61193,-1.83472 -0.11973,-0.35347 0.50243,-1.29682 -0.15016,-0.57062 0.71262,-1.56424 0.21507,-0.98997 -0.52208,-0.0318 0.0822,-0.53501 0.59019,-0.044 0.54134,0.95589 1.18737,-2.82182 0.69569,-1.56116 -0.39328,-0.6492 1.06691,-2.19514 1.89051,-2.11469 0.4347,-1.7471 -0.50499,-0.79193 -1.72487,0.2528 -2.40231,-0.20784 -3.07171,0.7468 -2.05249,0.89186 -0.6894,1.05046 -0.82661,3.05872 -1.06019,2.10935 -2.03317,1.43669 -1.85543,0.57363 -2.19164,0.59403 -2.17766,0.3047 -2.61566,0.9499 -0.85902,-1.57198 -2.74895,-1.06977 -0.72496,-1.84606 -0.21859,-2.11972 -1.24827,-2.80252 0.0793,-2.87178 -0.44062,-1.82522 -0.005,-2.02362 0.69158,-1.78354 1.42328,-4.90929 1.15903,-2.61856 1.90719,-3.1684 -1.07806,0.062 1.07809,-0.062 -0.1684,-1.26785 0.35711,-1.76263 0.74902,-2.52208 1.0937,-1.61475 1.96858,-1.67218 3.10784,-1.4423 3.22554,-2.57981 2.48222,-0.73892 1.72011,-0.17353 1.66971,0.93418 2.441,-0.34125 1.41719,2.00985 1.89231,0.20209 1.19166,-0.64126 0.83206,0.57945 0.64038,-0.45282 -0.35878,-0.74101 0.46677,-1.46569 -0.19443,-0.98411 1.25677,-0.51261 2.08494,-0.15443 2.22612,0.50824 3.11425,-0.31685 1.4035,0.96694 0.81753,1.73894 0.42519,0.20091 3.11997,-1.51884 0.88279,0.59726 1.26779,3.09932 0.23554,2.01091 -1.15035,2.36892 0.054,1.4256 0.58599,2.80539 0.71121,3.15294 0.84007,0.86609 0.0775,1.59652 1.23792,0.48363 0.90828,-0.42634 1.15646,-2.17505 0.43,-1.39589 0.63757,-2.42277 -0.28166,-4.21976 0.36573,-1.55417 -0.54587,-2.59149 -0.0878,-3.11065 0.20084,-2.51431 1.10665,-2.53323 1.83292,-2.07238 1.95952,-1.64118 3.53103,-2.19686 0.71757,-1.18384 1.69768,-1.25472 1.36441,-0.17136 2.31412,-2.01859 2.98677,-0.93879 2.41593,-2.57234 0.70662,-3.5793 0.11189,-1.24384 -0.65719,-0.28021 0.95626,-3.39063 -1.37678,-1.22963 1.49466,0.63838 0.19161,-2.28134 0.99261,-1.51254 -0.66965,2.96673 0.86109,1.42054 -1.54795,2.38294 0.18821,0.15215 2.32308,-2.77259 1.25155,-1.34232 0.39157,-1.34404 -0.4223,-0.66207 0.10269,-1.9373 0.53357,0.92781 0.49303,0.2115 -0.10796,0.92084 2.71946,-2.64321 1.38042,-2.52039 -0.68147,-0.19854 1.08898,-0.94506 -0.2197,0.43124 1.59325,0.0704 3.84466,-0.89407 -0.51785,-0.70583 -3.88169,0.48909 2.41949,-0.92363 1.50497,-0.10447 1.14094,-0.12477 2.04275,-0.529 1.1719,0.12536 1.86436,-0.49422 0.5273,-0.99978 -0.48572,-0.81982 -0.16291,1.30159 -1.001,-0.13696 -0.19595,-1.91142 0.65683,-1.87145 0.68708,-0.77372 2.01584,-2.03166 2.94065,-0.91788 2.92212,-1.09571 3.17762,-1.58205 -0.0276,-1.17346 2.83988,-0.30079 3.91967,0.0647 -5.18191,2.71381 -0.87997,2.98415 1.7818,0.34303 3.54712,-2.41206 2.87485,-1.31503 6.0494,-1.8556 3.71316,-2.17116 -1.16297,-1.33756 0.64395,-2.55075 -3.67725,3.83761 -4.16086,0.33071 -2.55328,-1.89751 0.1208,-2.68565 0.57326,-3.81771 3.07404,-2.24637 -1.46041,-1.81912 -3.64061,0.17409 -6.03799,2.66916 -5.54988,4.41739 -2.24387,0.47202 3.96984,-3.10094 5.18122,-4.4665 3.58111,-1.39876 2.91445,-2.41214 2.49939,-0.12014 3.48038,0.19853 4.71767,0.97575 4.14463,-0.38474 3.92001,-2.73816 4.24025,-1.07129 2.0717,-1.15268 2.11266,-1.2394 1.16793,-3.92605 -0.45424,-1.35463 -1.59862,-0.54175 0.17507,-2.98812 -1.02451,-1.17704 -3.21135,-1.06857 -1.21248,-2.08524 -2.13366,-2.10758 1.78318,-2.13752 -0.62095,-4.28724 -0.80176,-4.56766 -0.19874,-3.17885 -2.14649,1.53102 -3.81955,3.70676 -3.99235,1.74921 -0.56601,-2.12949 -1.66993,-0.6545 1.49461,-4.41175 1.55499,-2.89633 -3.53086,-0.48519 0.0979,-1.37623 -1.40774,-2.15329 -1.22371,-1.28525 -2.18628,0.79387 -1.87952,-0.47119 -2.88992,-1.16647 -1.87226,0.69615 -2.49676,5.41441 -0.8864,3.18097 -4.4976,3.45167 1.12784,2.77567 -0.12429,3.03888 -1.03478,2.33069 -2.44937,2.34249 -3.72413,2.27595 -4.35278,1.39845 0.61501,1.93726 -1.56895,5.58901 -2.95192,3.51823 -2.29464,1.02758 -1.74781,-3.54511 0.36342,-4.02118 1.14863,-3.55428 1.97454,-2.99097 -2.18528,-0.50303 -3.47542,-0.45905 -1.45884,-1.63296 -2.13972,-1.15863 -0.55764,-1.75643 -1.32789,-1.48247 -2.99275,-1.81068 -3.38017,0.44396 0.71732,-2.70289 1.20878,-3.30657 -2.62969,-0.83036 2.88526,-3.97813 2.6933,-2.63207 4.91646,-3.66005 4.40213,-2.5567 2.58111,-0.23604 1.72617,-2.19954 2.56969,-1.30914 2.92296,-7.4e-4 3.87512,-2.11902 1.62329,-1.43872 3.88984,-2.71188 1.79586,-1.65355 1.19988,1.16624 2.98517,-0.32474 5.32941,-2.09658 1.39321,-1.62737 -0.008,-1.90116 2.65615,-1.69844 1.10593,-1.67841 -1.17155,-1.84039 -2.25736,-0.68622 -2.32111,-0.44516 -2.94683,3.66668 -3.53389,2.79605 -3.75875,2.28131 -0.0346,-2.40783 2.48363,-2.44314 -0.42245,-2.32076 -4.50742,2.42353 2.79745,-3.40952 -2.7129,-0.94082 2.93706,-1.50202 0.8875,-3.91733 -0.41909,-1.59291 -1.74238,-0.71029 -4.18638,2.20948 -3.43827,3.62221 0.84588,1.50971 0.11214,2.20483 -3.64306,3.2742 -1.36867,-0.21492 -3.39475,2.5568 2.68828,-3.15034 -1.7792,-1.37064 -2.08797,0.437 -1.60892,2.08341 -2.54156,-0.31896 -3.24448,0.26731 -1.78004,-1.78985 -2.21772,0.0721 -0.0749,-1.9599 -0.65171,-0.92175 -1.70787,0.18922 -2.25994,-0.0621 -2.22646,1.00509 0.42692,1.57339 -3.52444,1.46619 0.0523,-2.16185 -2.05663,0.41653 -5.09705,-0.11909 -2.41395,-1.04322 4.10418,-1.34607 -0.57546,-1.89454 -1.88567,0.024 -1.7348,-0.80783 -2.617,-1.62293 -1.00625,-1.63235 -1.77848,-0.41719 -1.70226,0.85192 -2.63316,0.27744 2.62541,-2.42518 -4.73062,1.87551 0.6859,-3.15664 -0.69314,-0.47023 -2.189,1.42722 -2.1099,0.57964 0.5144,-1.43488 -3.5999,0.44007 -4.14071,1.05253 -1.88653,-0.69662 -3.19,0.70639 -3.08845,1.10101 -1.29439,-0.51818 -0.51919,-1.83566 -1.91621,-1.15525 -1e-5,0 -1.0971,-0.6703 -1.05468,-1.2518 -2.73798,0.18843 -0.61167,-0.56702 -2.50483,-0.72321 -1.75792,-1.42519 -1.96659,0.0582 -1.49783,-0.85805 1.13329,-0.6593 -2.199,-0.56911 -1.53729,0.45836 1.03147,-1.47813 -1.19838,-0.95718 -4.70322,1.16325 -1.0016,-0.41336 -4.80545,0.80434 -1.93172,0.0832 -3.71899,1.09788 -2.65539,1.33497 -3.98076,0.97712 -2.70169,-0.38524 -3.31284,1.35295 0.48348,1.29649 -0.60692,1.51278 -1.28381,1.67265 0.0794,1.48017 -1.60518,2.08866 -3.38926,-0.49566 2.51103,-1.45223 -1.23335,-0.23734 -5.613,0.79591 -4.05977,0.82065 -0.80546,2.1243 -1.21884,1.34245 1.15573,1.17924 2.70355,0.0903 0.23578,0.91456 1.46956,-0.58439 2.63661,-0.34865 1.01272,0.14769 -2.88559,0.96319 0.0813,0.72263 -1.72688,1.46862 -2.58635,0.73019 -0.77599,-0.49097 -3.42746,1.24674 -0.38068,-0.71218 -1.61023,-0.0288 -2.86284,1.47983 -3.7934,1.47701 -3.18017,1.67571 -0.63008,1.60007 -2.47351,1.79974 0.0881,0.99552 -0.61384,1.78919 3.00543,-0.18279 -0.42163,1.3627 -1.85361,1.12782 -2.3465,1.96674 1.05628,0.20919 3.38838,-0.97357 -1.41152,1.75404 1.94612,-1.08525 -0.94223,1.8781 2.4304,-1.01543 -0.13662,0.66998 3.25028,-0.62006 -3.28045,1.77699 -3.34817,2.45174 -2.72916,0.92782 -1.1991,0.5919 -4.87901,1.52896 -2.52415,1.2043 -2.69171,-0.0508 -4.11799,1.46377 -3.01013,0.69201 -3.86241,1.18452 -0.38949,0.62612 4.27164,-0.35022 2.84719,-0.8364 3.20064,-0.79358 2.80334,-0.61581 0.94908,0.49546 3.81397,-1.0406 2.41989,-1.46933 4.85817,-1.20804 2.18939,-1.39533 3.00093,-0.68896 3.57492,-1.04442 4.51473,-2.07722 0.63124,-1.827 5.36871,-1.88308 3.85249,-1.96174 4.44254,-1.42814 -0.52675,0.89524 -3.07637,0.68373 -4.68655,3.06773 -2.06472,1.98152 2.80428,-0.36071 2.88193,-0.8448 2.86841,-0.34005 1.23253,-0.0473 2.33215,-2.3392 2.78035,-0.36891 0.46249,1.73979 1.78613,2.07864 2.82227,0.11065 1.87174,1.67437 1.06992,0.8979 0.16345,4.04643 1.21524,1.29107 2.9381,0.51425 1.61375,0.47623 -2.11255,3.34776 -0.11865,3.10545 -2.22483,3.06823 0.76066,1.33294 -0.0613,1.44391 1e-5,0 -1.53989,1.78805 0.28173,2.83979 -2.0229,2.85645 1.43489,1.82312 -2.05638,2.11474 -1.30796,3.25881 2.74875,1.92512 0.38107,1.70752 1.65593,3.96265 0.28891,0.042 -1.33162,2.99929 -1.68517,2.96381 -1.20563,0.88338 1.15975,-3.50036 -2.33995,-1.56866 -0.77017,0.66528 -0.53737,1.72851 -1.43863,3.13665 -2.86719,4.85913 -2.43917,3.24088 -2.39944,3.25154 -3.06875,3.32385 -0.96974,2.86426 -1.80103,3.13569 -2.30731,2.97886 0.12631,2.12544 -1.35288,3.02404 0.19701,3.25677 0.42941,1.31443 -0.53922,0.8453 -0.58402,5.31111 0.59384,3.9199 -0.6653,2.0552 0.36066,0.65044 2.17405,0.55413 0.44253,1.07337 1.33612,0.29772 -0.20432,1.08364 0.98647,0.53469 0.71062,2.25476 -0.38794,1.92511 -0.36025,3.41296 -0.0108,3.0527 5.9e-4,2.50313 0.0678,2.38689 1.14712,1.13075 1.04497,2.78311 -0.70022,1.67287 -1.47163,1.33095 -1.01349,-0.27863 -0.29205,0.26954 0.80568,2.26092 1.32906,1.00029 0.34381,1.01114 0.51156,-0.45936 1.27888,1.769 0.8968,1.22701 -0.23567,2.0421 -0.9321,2.72437 1.08876,1.02052 1.40951,1.90382 1.15804,2.21421 0.0839,2.30171 0.47558,0.041 1.51689,-1.31407 0.25102,-0.66387 -0.5114,-1.71129 -0.59283,-1.74675 -1.26289,-0.18972 0.43689,-1.97242 -0.21427,-1.78457 -0.28744,-1.67373 0.2258,-3.51086 -1.04192,-1.98935 -0.11815,-1.35018 -0.47833,-0.99409 0.31108,-2.42983 -0.48667,0.0228 0.11015,-1.29805 -0.30388,-0.29032 -0.11425,-0.90207 -0.99105,-2.68399 -0.3105,-1.59004 0.83512,-2.80362 0.28225,-1.80851 1.0241,-1.47526 1.06044,1.12249 0.92777,-0.10175 1.28908,1.59518 -0.59452,1.41898 -0.16116,2.89718 0.37242,2.88578 -0.30501,1.16592 0.59135,1.88052 0.85443,2.04634 1.31983,0.38571 -0.20614,2.6269 0.98234,1.89187 1.08238,0.94048 -1.12649,2.27188 0.21286,0.93343 1.84352,1.63647 0.62821,2.38059 1.89287,3.03218 1.39423,3.79995 0.42711,1.91355 -0.12749,1.48764 0.50853,1.70627 -0.32427,1.28325 -0.85914,0.93725 0.0321,1.07106 -0.99925,0.32554 0.23656,1.83804 0.85488,2.39809 2.50939,2.21945 0.79994,1.73577 2.59235,1.27345 1.50484,0.27414 0.5067,1.01332 1.98455,1.84651 2.83046,1.81941 1.99216,0.58159 2.30909,1.77142 1.96994,0.76198 1.80948,1.02696 1.46356,-0.3244 2.4624,-1.32284 1.59904,-0.22381 2.11991,1.02094 1.25058,1.23099 2.57457,4.03101 1.29432,1.54903 1.18206,0.75682 1.73864,0.10587 1.35338,0.67084 0.69204,0.80326 1.52931,0.26078 1.06876,0.75152 0.9668,0.37117 1.61896,0.0881 0.41717,-0.85331 0.81299,0.33508 0.34667,1.1517 -0.24342,0.25364 -0.39771,-0.55883 -0.37947,0.55826 1.21494,1.67641 1.05611,1.16932 0.48515,1.24105 1.16099,1.49464 0.85816,1.165 -0.71585,0.69344 0.74617,0.52693 -0.48302,1.14235 -0.11907,1.10985 0.31947,0.74072 0.87541,0.37373 0.55799,1.02076 0.63885,-0.86244 -0.0877,-1.06184 0.68274,0.6619 0.0932,1.06806 0.9332,0.48061 1.05298,0.73091 0.7137,0.8818 0.0398,0.80522 -0.37417,0.62752 0.51734,0.77102 1.47735,0.82584 0.28622,0.55365 0.14337,-0.78808 1.21518,0.009 0.70449,0.43372 1.14436,0.25484 0.47295,1.46743 0.92039,0.2233 0.40918,-0.61299 0.35273,2.17297 1.32996,-0.17169 0.44259,-0.53316 0.80253,-0.45516 -1.22217,-1.98274 0.3295,-0.75143 0.62644,-0.11938 1.20747,-0.89695 0.66532,-1.25329 1.25478,-0.21547 1.33593,1.02324 0.44444,1.20181 0.70032,0.25603 -0.76416,0.95877 0.48269,1.95953 0.88224,1.053 1.0396,1.93701 0.29336,3.06174 -0.65237,0.9447 0.50414,3.31262 -0.61013,2.09575 1.02017,0.86611 -1.14285,1.89199 -1.25288,2.26875 -1.41617,0.23763 -0.69328,1.30941 0.096,1.81466 -1.06535,0.2693 0.37183,1.12553 -1.97027,1.43913 -1.56458,0.77601 0.19141,1.48048 -1.07763,2.33658 -0.51243,2.26127 -0.99222,0.54879 0.52237,3.29402 -0.5592,1.02514 1.7367,1.58465 1.05268,-1.6883 0.64729,1.58168 -1.44509,2.71699 -2.19417,2.3041 -0.78992,2.5488 1.52904,3.4529 -0.83747,1.6277 2.10004,1.4511 2.33886,2.3455 1.0592,2.6592 1.26932,1.6375 3.22516,7.1703 3.38976,6.6241 2.8696,4.6949 -0.34723,1.0474 1.49961,2.9567 2.42176,2.1788 5.49398,3.8338 5.98596,3.4902 0.43509,1.4661 3.06209,1.9974 1.28612,5.03 1.09191,5.8518 0.47915,8.017 0.49859,7.447 0.90525,6.9227 -0.62876,4.4102 1.31479,4.3914 -0.101,2.9697 1.91358,5.3149 0.25966,5.3476 -0.23897,5.7642 0.0879,5.808 -1.04216,0.1637 1.43217,3.9914 1.81624,3.428 -0.3748,2.4782 1.3551,6.6035 1.01337,5.0976 1.72367,0.4177 -0.78609,-4.4515 1.9819,0.8573 1.32512,7.3814 -3.15964,-1.1003 1.3968,5.9041 -1.04697,3.2403 4.02314,0.8251 -1.40555,2.859 0.41022,3.4388 2.88196,5.9644 2.18758,2.261 0.27345,2.0899 1.7202,2.1722 3.72354,1.8306 0,0 3.68073,2.2775 3.0387,0.9854 0.90996,-0.1359 -1.08439,-3.2798 1.49421,-1.377 0.72704,-0.9201 2.03454,-0.085 z m -55.3136,-360.04822 1.6394,-1.32864 1.59202,-0.46075 0.94379,-0.8231 0.75056,-0.42266 1.79677,0.86057 1.55436,0.19479 0.32455,0.5093 -0.18324,2.05127 2.37164,0.70491 -0.88176,0.97577 0.44928,1.09664 -1.01608,1.31501 0.78926,0.50742 -1.02939,1.15512 -0.004,0.004 -0.65816,-0.18945 -0.0467,-1.02165 -2.46218,0.15644 -2.46087,0.64811 -1.03083,-1.45908 -1.11972,-0.54174 1.64727,-1.81169 -2.63243,1.0273 -2.43757,1.01481 -2.25193,0.77325 -0.84597,-1.31767 -2.71558,0.5694 0.26558,-0.51915 2.33243,-1.37749 2.36336,-1.29522 2.95601,-0.9962 5e-5,-3e-5 z m 9.68389,6.4898 0.67842,-0.49084 0.11494,0.81225 1.58706,0.55121 1.79193,0.15005 1.77348,0.47955 1.8418,0.81379 0.31467,1.15476 0.44266,2.7973 -1.25069,1.12427 -1.7641,-0.60217 -0.30783,-2.25968 -0.62062,2.24632 -1.95875,1.89848 -0.5542,1.68906 -0.5981,0.97802 -2.04779,1.08114 -4e-5,2e-5 0.46296,-1.46155 0.40214,-2.08214 -0.74925,-0.40818 -2.14828,1.46938 -0.46994,-0.0587 0.24689,-0.90015 1.92287,-1.33708 0.89986,-1.60089 0.49051,-1.62006 -1.1723,-1.49031 -1.71487,-0.83624 -0.92937,1.32353 -0.68574,0.32669 -1.19022,1.72188 0.29842,-1.20262 -1.33133,0.7871 -1.1213,1.1522 -1.38605,1.70044 -0.76926,1.49863 -0.12748,2.24811 -1.04356,2.34171 -1.7068,1.6736 -0.6985,0.46198 -0.82361,0.35144 -0.84306,-0.0317 -0.12668,-0.25549 0.11667,-1.91333 0.37001,-0.92652 0.43698,-0.87453 0.4401,-1.76125 1.33239,-1.98238 1.63277,-2.43922 2.46156,-2.6479 -0.36528,-0.011 -2.78395,2.1697 -0.13699,-0.44092 1.51333,-1.21663 2.46025,-2.1964 1.76202,-0.21253 2.17374,-0.58712 1.70262,0.49361 0.0728,0.021 2.23723,-0.18588 -0.55514,-1.4839 10e-6,0 z m -3.51466,15.52071 1.2612,0.30184 2.26414,-1.02647 1.45868,-0.93114 0.7914,-0.1201 1.20922,0.43353 0.86485,-0.51494 1.36747,-0.38081 2.30008,-0.31671 -3e-5,9e-5 -0.0851,0.35076 -2.91825,1.99944 -2.24541,0.92318 -1.45024,0.40773 -1.83506,0.90033 -1.9682,0.37179 -1.16137,-0.25209 -1.23516,-0.82311 1.38175,-1.32333 4e-5,1e-5 z m 11.70848,-3.63158 -0.13193,0.0342 -0.81651,0.14143 -0.84323,-0.39076 1.20234,-1.16986 0.90589,-0.37654 1.91698,-0.41916 2.24047,-0.36693 0.82259,0.72857 0.97434,-0.73816 0.95765,-0.4475 0.41734,0.28743 0.007,0.0567 0.0614,0.50799 -0.373,1.38345 -2.26905,1.06835 -1.8914,-0.40224 -1.86842,-0.23751 -1.31218,0.34056 z m 48.60275,351.40909 0.26342,-1.7939 -3.48737,-0.7039 -3.79904,-1.9326 -2.23905,-2.5542 -1.55287,-1.5707 -1.78854,-0.3233 -1.46637,1.5588 0.32077,2.4304 -0.43658,1.6653 -3.53112,-1.0777 -4.21602,-2.1431 -2.19259,-0.6212 4.89897,3.722 3.14227,1.7377 3.68589,1.781 2.54288,0.3686 2.07638,0.9541 1.43024,0.2073 1.13058,0.05 1.41005,-1.1861 0.11825,-1.4481 1.66252,1.1677 2.02733,-0.2877 z m 28.37814,30.2369 1.57403,-1.1146 0.23057,-1.1856 -1.58256,-0.8205 -1.39971,0.4843 -0.64513,1.1387 -1.0409,0.9521 -1.45084,0.4901 -1.07752,0.7484 -0.71082,1.1448 -1.79701,0.3045 -0.78846,0.943 -0.58761,1.0017 0.0151,1.5218 -1.01826,1.0953 -0.73655,1.1495 -0.53183,1.3454 -0.47809,1.0657 -0.0435,1.5935 1.00003,1.3242 1.22814,1.4482 0.49777,1.352 0.11485,1.4427 -0.093,1.3164 0.64093,1.3413 0.93253,1.3234 1.2056,1.1692 1.39346,1.2952 1.46197,1.2912 1.39108,1.2948 1.08962,1.38 0.52479,1.4794 -0.3272,1.115 -1.20164,0.8218 -1.86531,0.5869 -2.1287,0.536 -1.73483,0.5829 -1.10369,0.9566 -1.21157,0.8269 -1.97927,0.4647 -1.98902,-1.0373 -2.2581,-0.6081 -2.04714,0.4765 -2.70065,-1.1906 0.27101,1.2158 -0.31161,1.3218 -2.56639,-0.5777 -2.34034,-0.248 -2.28932,0.025 -2.4642,-1.194 -1.81464,0.4765 -2.42786,-0.4368 -2.6348,-1.3813 0.7805,2.6208 -1.96522,0.4261 -2.38146,-0.6373 -1.67758,0.5457 -1.64559,0.8192 -1.679,0.6174 -2.38118,-0.01 -1.82148,-1.0829 -2.60073,-0.8099 -2.42792,-0.34 -1.92553,0.3767 -2.33457,0 -1.69924,-0.3284 3.04656,2.3415 1.59171,1.1626 2.15551,1.1119 2.32007,0.072 1.95007,1.0635 2.12858,0.9802 0.61171,1.446 -2.73707,-0.3821 -2.57972,-0.2556 -2.48893,0.081 -1.36216,0.7328 -1.97276,0.3801 -2.76681,-0.7005 -2.51443,-0.1755 -3.20175,-0.9931 -0.53191,1.0745 -2.22466,-0.9449 -1.84382,-1.0504 -2.16023,-0.8824 -0.3742,1.2719 -1.18678,0.7358 -2.74768,-0.4719 -1.27076,0.6795 -0.42245,1.0692 -1.9294,0.3394 -2.32977,0.1801 -2.26373,0.177 -1.93143,0.3486 -2.6268,-0.048 -2.42074,-0.067 -1.38706,0.6371 -1.9489,0.2945 -2.70889,-0.2945 -1.61,0.6704 -1.34025,-0.111 -1.39982,-0.034 -0.84183,0.8536 -0.62173,0.8248 -0.90854,0.9261 -1.49405,0.5245 -1.94255,0.3125 -0.47942,0.9371 -1.24411,0.8301 -2.34786,-0.8394 -0.99044,0.7345 1.22811,1.0453 2.21659,0.9805 1.79009,1.0318 -1.5905,0.5291 0.0439,1.1092 -0.3668,0.9579 -0.72888,0.8037 -1.61397,0.5246 -3.18057,-1.0146 -1.41282,0.6366 -1.66171,0.5399 -2.72229,-0.6696 -1.12264,-0.1719 6.05826,2.9139 2.76276,0.7867 3.21269,0.6094 2.6773,0.8644 2.95621,-0.032 2.98009,0.097 2.92774,-0.1383 3.32026,0.5717 2.9924,0.5516 2.44695,1.0414 0.60056,0.9758 -0.2467,1.1687 -0.76897,0.9663 -3.46551,-0.6729 -2.07895,0.679 -3.28894,0.1523 3.49177,0.5897 2.72438,0.7863 3.42509,0.4946 2.31934,1.0005 1.43677,0.956 1.6468,1.042 2.0928,1.1079 4.30629,0.289 2.99802,0.8851 5.04415,0.3246 4.91025,-0.1973 2.08247,1.1933 -1.92287,0.8631 -1.61864,0.8801 -4.43037,-0.5943 -5.98771,-0.1706 -1.9184,0.8296 -5.70245,-0.2642 -4.26068,-0.5322 -4.62798,-0.3394 -3.51319,-0.6029 -1.17897,-0.2201 -2.34201,-0.4237 -2.4242,0.6421 0.0463,0.1408 0.80349,0.9821 -3.8925,-0.7438 -0.17355,-0.01 -0.21647,-0.011 0.52892,0.7481 0.0586,0.081 -3.73372,-0.4843 2.16871,1.2448 -0.10836,-0.012 28.83716,9.8579 398.4956,0 28.83716,-9.8579 -0.62833,-0.6242 -0.8928,-0.8388 -4.5139,0.2966 0.73955,-0.69 0.19015,-0.1801 -2.15326,-0.7246 2.02319,-1.1267 -1.00593,-0.9313 -0.11665,-0.8716 10e-4,-0.8754 0.29355,-0.9175 0.90093,-0.9846 1.51384,-1.0502 0.0946,-0.9768 2.55611,-0.8438 2.43674,-0.8578 2.6226,-1.1388 3.94616,-1.2906 2.55767,0.1916 2.99656,-0.2957 3.02956,-0.1 1.74459,-1.1239 -1.60894,-0.6484 1.21423,-0.9646 1.62477,-0.9793 1.26705,-1.1002 1.85647,-0.9608 2.39761,-1.1484 2.20091,-0.9205 2.59993,-0.9958 2.51689,-0.6773 2.76353,-0.8385 2.55579,-0.9397 2.77696,-0.2919 2.54458,-0.8035 2.51016,-0.1219 2.69307,-0.9814 2.24207,-0.8549 2.86438,-1.0957 2.47587,-0.8172 2.12511,-1.0259 0.52491,-0.9727 -0.42805,-0.7962 -0.25142,-0.909 -0.85969,-0.6627 -1.26973,-0.5205 -1.75783,-0.2458 -1.22332,-0.4348 -1.7194,-0.2324 -0.83102,-0.7216 0.5837,-1.1978 -0.52798,-0.961 1.12116,-1.2584 -1.14462,-0.6353 -1.33702,-0.5935 -0.23172,-0.9141 0.28201,-1.1216 -0.092,-1.0409 -2.47255,0.83 -1.63013,-0.3431 -0.85334,-0.7233 -1.37976,-0.8081 -1.22723,-0.8535 -0.63744,-1.0512 -0.68471,-0.9853 0.22448,-1.0632 1.88182,-1.0997 0.18479,-1.1482 -1.47422,-0.5239 -1.96508,-0.4494 -1.61,-0.1712 -2.14323,-0.3216 -1.71334,-0.034 -2.23486,-0.2541 -2.10659,-0.085 -0.69897,-0.7564 0.61776,-1.1534 1.03839,-1.3886 1.43713,-1.4821 -0.02,-1.0307 -1.636,1.3098 -2.34216,1.5002 -1.81993,0.038 -1.92839,0.099 -1.92285,-0.2619 -1.87637,-0.107 -2.41664,0.2593 -2.18734,0.3647 -1.20611,-0.5184 -1.14857,-0.5094 -1.54616,-0.1971 -2.18171,0.3022 -1.43585,-0.5392 -1.07064,-0.6367 -1.83911,0.063 -2.25607,0.8774 -2.45415,0.854 -2.06513,0.042 -1.82957,-0.5712 -1.20823,-1.0691 -0.34005,-0.9687 -2.06002,-0.09 -0.20579,-1.1669 0.12358,-1.131 -0.76364,-0.8003 -2.02836,0.5643 -2.12475,-0.087 -2.16479,0.838 -2.34159,0.7484 -2.35443,0.2511 -2.28997,0.1893 -1.64269,-0.1677 -1.69065,-0.2416 -0.44475,-2.2418 -0.15616,-1.2925 -0.58785,-1.0511 -0.78721,-0.5735 -4.46638,2.264 -2.0477,0.796 -1.89343,1.0225 -2.17337,0.9965 -1.48025,-0.6293 -2.06003,0.3058 -1.95269,-0.1751 -2.01969,0.313 -0.78833,-0.8415 -1.37437,-0.33 -1.41242,0.2296 -1.66475,-0.2116 -1.6553,-0.4195 -2.07253,0.2486 -1.55663,-0.4074 -1.04403,-0.7842 0.33233,-1.654 -4.8e-4,-0.9809 -2.63212,2.1715 -2.03544,0.8187 -1.88178,-0.3554 -2.1056,0.2578 -1.90904,0.2047 -1.61403,-0.4687 -1.72225,0.4308 -1.47475,0.5191 -1.80952,1.0523 -2.01725,0.5512 -2.40109,0.7337 -2.13084,1.17 -1.41255,1.2197 -1.812,1.2613 -2.20462,0.4049 -2.07284,0.2777 -2.13614,0 -1.35175,0.2585 -2.0612,1.5939 -1.25713,1.1618 -1.7808,0.9223 -1.68042,0.9977 -1.43129,1.2192 -1.84909,1.2627 -2.40636,0.4754 -1.79012,-0.4471 -0.64769,-1.1353 1.71948,-1.3436 1.70843,-1.2068 1.09178,-1.3119 -2.03757,-0.05 0.58189,-1.3429 2.19913,-1.1804 2.28025,-0.7607 1.17063,-1.5165 0.60937,-0.8608 0.627,-3.6242 -1.86875,-0.1109 -1.67899,-0.3746 -1.53601,-0.5028 -1.61863,-0.5062 -1.37,-0.8357 -2.39894,1.3177 -1.87603,0.5883 -1.6989,-0.2972 -1.05993,-1.0204 -0.77886,-1.0054 -2.07359,-0.5191 -0.69482,-0.9996 -1.13927,-1.2277 0.51888,-1.4908 -1.11929,-1.0194 -1.68099,-0.425 -1.63358,-0.2833 -1.92303,0.1866 -2.19138,0.4516 -1.89854,0.6037 -2.04451,0.8736 -0.89735,1.1985 -1.93274,0.742 -1.78639,-0.1435 -1.63528,0.894 -2.22539,1.1453 -1.64002,-0.4767 -1.79477,0.6848 -1.88794,0.7507 -1.77853,0.6875 -2.48899,0.5941 -2.03292,0.4072 -2.37973,1.0815 -1.91474,0.5512 -1.18521,1.4661 -2.18475,0.7497 -1.09185,-0.9238 -0.92107,-1.2597 -2.04332,0.2112 -1.37178,-0.8611 -0.36959,-1.2416 -1.81651,-0.5987 -1.41759,1.1223 -1.58688,1.8701 -1.70732,0.9108 -2.00367,0.2895 -1.9248,0.5661 -1.89503,0.9099 -2.07154,0.3609 -1.9725,0.4333 -2.08716,0.023 -2.10781,-0.044 -2.21057,0.092 -2.16034,0.5732 -0.99478,-1.0413 -0.65241,-1.1712 -1.9789,-0.2386 -2.02201,-0.4421 -1.97548,-0.098 -2.2291,0.1041 -2.08186,0.3811 -1.71787,1.2736 -0.55982,-1.3022 -2.43761,-0.2325 -2.01877,0.9332 -0.9888,1.3533 -2.17767,0.6615 -0.93869,-1.2348 -1.21129,-1.6457 -1.98609,0.4626 -1.33405,-0.8949 -1.22099,1.2194 -1.6553,0.7406 -2.10762,0.5353 -1.92551,0.8105 -2.0821,0.471 -2.1086,0.4728 -1.88372,0.6112 -2.01483,1.1579 -0.79649,-1.4307 -2.09546,-0.2024 -2.29935,0.4135 -2.35362,0.6202 -2.20126,-0.1956 -0.53584,-1.2924 -2.01125,-0.3304 -0.85051,1.3679 0.0163,1.2946 -2.1921,-0.122 -0.9913,-1.1515 -2.21423,-0.1872 -1.23606,0.9649 -0.72196,1.6425 -1.26528,1.375 -1.69832,1.1079 -1.85285,0.8383 -1.75051,0.7024 -1.01482,1.1034 -0.39561,1.4364 1.97452,0.7932 -0.30364,1.3665 -1.45954,1.0406 -1.31511,1.1759 -2.16958,1.1206 -1.69682,0.8428 -1.87464,0.8469 -1.91665,0.7129 -2.33885,0.5176 -2.54114,0.1835 -1.06757,0.293 -2.10901,0.5192 -2.08633,0.6567 -1.06645,1.3849 -1.65378,1.0579 -1.62501,1.0581 -2.4197,0.8737 -1.98246,0.8651 -0.43295,0.7588 0.77417,2.5624 0.92358,1.2674 3.01882,-0.071 2.98657,-0.6096 2.96235,-0.1977 0.41673,1.2829 1.05514,1.2025 1.4615,1.1954 -2.04452,0.9215 -3.10213,0.6726 -2.91667,0.5361 -2.49062,0.8005 -2.59898,0.8047 -3.67356,0.1566 -1.5506,1.0527 -0.21099,1.4903 -3.30862,-0.7243 -3.78211,-0.3679 -3.55306,0.1705 -2.01382,1.0017 -2.42841,0.9464 -1.78405,1.1266 -1.64359,1.0534 -0.86946,1.2268 -1.54513,-1.2169 -2.46943,-1.5184 -3.41726,-1.0146 -3.13408,-0.885 -4.17981,-0.7707 -3.96659,-0.3701 -3.44493,-0.9175 -2.9071,-0.9355 -3.36609,-0.7755 -3.52058,-0.3614 -2.9147,-1.1194 -1.36993,-1.1975 -2.69069,-0.9927 -1.05131,-1.2822 -1.06741,-1.3501 1.47459,-0.9575 2.90331,0.1765 0.88231,-1.1262 -1.89934,-1.1107 -2.46492,-0.8076 -2.85892,-0.4434 -1.549,-1.2621 2.6572,-0.1559 2.30561,-0.4035 2.89623,-0.027 2.45528,-0.2698 0.2781,-1.4402 1.66235,-0.8365 1.52798,-0.8287 1.81222,-0.6386 1.64516,-1.3778 0.27827,-1.1725 -0.007,-1.2273 1.94465,-0.5751 0.30179,-1.1754 0.0946,-1.4392 -0.82614,-1.805 -1.32268,-1.3025 -0.91322,-1.3235 -1.25007,-1.2382 -2.04357,-3.1191 -1.24805,-1.2397 -1.49284,-1.0896 -1.29066,-1.3067 -1.11047,-1.248 -1.50842,-1.2954 -2.01425,-0.9926 -1.98037,-0.7175 -1.59459,-1.0144 -1.46035,-1.3667 -0.42542,-1.2879 0.36474,-1.5405 0.53216,-1.1351 0.43585,-1.199 1.66667,-0.3674 0.90258,-0.8779 -1.50278,-1.0937 -0.7735,-1.2716 -0.41941,-1.3605 0.45457,-1.062 0.99862,-0.9524 0.96684,-0.8805 1.47713,-0.4222 1.73941,0.4642 0.51167,-0.7858 z m 46.93515,46.5646 -2.75019,-0.6559 -1.98584,0.8148 -0.80379,0.028 -1e-5,0 -0.2789,1.4341 -0.30119,1.2299 -0.003,1.2862 -0.14145,1.493 -0.65921,1.1711 -2.65211,1.0372 0.58416,1.3944 2.61496,1.0558 3.59384,0.085 2.71215,-0.7588 2.35888,-0.8815 1.98251,-0.9372 1.8032,-1.1349 -0.89346,-1.7351 -0.88089,-1.465 -1.65319,-2.0524 -2.64614,-1.4089 z m -18.30032,7.5403 -2.48111,-1.3136 0.01,1.2109 -0.15189,1.4174 -3.41336,-0.1948 -3.41957,0.013 1.53659,0.9384 0.0973,0.1297 2.65125,1.0272 3.10926,-0.3257 3.37547,0.3386 -0.60034,-1.5205 -0.71353,-1.7201 z m -34.51672,-29.834 -1.45594,-1.4975 -1.51944,-1.4258 -1.73975,-1.4819 -1.21835,-1.2378 -1.7579,-1.2053 -1.35487,0.6355 -0.0154,1.6585 1.80736,2.7167 0.72567,1.2645 0.62866,1.7515 -2.12745,-0.01 -0.93393,0.4717 0,0 -0.99559,1.4396 1.0862,1.3748 2.02263,0.903 1.60198,-0.5802 1.71729,-0.5855 0.063,1.3692 2.30786,-0.07 1.48495,-0.7738 1.7354,-0.5812 -0.33969,-1.2847 -0.54242,-1.3426 -1.18028,-1.5128 z m -50.12907,7.0697 -2.6635,-0.042 -2.55827,-0.255 -0.47488,0.6668 0,0 2.2047,1.2533 2.30941,0.4846 2.04049,-0.3863 2.16338,-0.049 1.88992,-0.2991 1.54193,0.1458 -2.7253,-1.7718 -1.47036,0.5406 -2.25752,-0.2881 z m -30.2384,8.4861 -2.52905,-0.3424 0.96913,1.0634 0,0 2.90908,0.9184 2.43166,0.014 0.46305,-0.9401 -0.46633,-1.1877 -1.17738,0.7444 -2.60016,-0.2697 z m -6.75388,0.6828 -2.46632,-0.5441 -0.2388,0.7861 0,0 3.18736,0.5975 2.35645,0.078 1.04986,0.02 -3.88855,-0.9377 z m -19.03187,22.4344 -2.62576,-1.0962 -2.74427,-0.7758 -2.84502,-0.6364 -3.13664,-0.094 1.14204,1.032 1e-5,0 2.20804,0.5822 0.34962,0.1404 2.5343,0.7874 3.42943,0.6824 1.68825,-0.6218 z m 633.64844,-233.6198 0.4153,-1.4477 0.26785,-2.273 -0.60457,-2.0769 0.20613,-1.6851 -0.60571,-0.5107 0.26427,-2.5173 -0.45147,-1.9855 -1.30034,1.4612 -0.27265,1.1375 -0.93459,2.1741 -1.08156,2.0885 0.17013,1.3489 -0.69949,0.7875 -0.99643,2.9843 -0.18184,2.2913 -0.4641,1.1476 -0.0657,1.9403 -1.61307,3.1174 -0.89665,2.1565 -1.01984,1.7258 -1.11143,2.0953 -2.18436,1.2498 -2.25341,-1.4808 -0.0919,-1.2398 -1.17558,-1.0841 -0.77749,-0.036 -1.40103,-2.4322 -1.09114,-1.4234 -1.83028,-1.3601 -1.70364,-2.2694 0.0487,-1.1167 1.40688,-1.8881 1.23137,-1.9312 -0.002,-1.5863 0.98479,-0.093 1.37486,-1.5506 1.14863,-2.0837 -0.92724,-1.9995 -0.79213,0.7344 -0.98979,-0.3809 -1.83982,1.0688 -1.51724,-1.2709 -0.8705,0.3696 -2.18246,-1.0861 -1.21624,-1.658 -1.69927,-1.031 -1.58729,0.521 1.84069,1.3552 -0.29552,2.0024 -2.48321,0.6553 -1.35024,-0.5133 -1.94013,1.3175 -1.62291,2.1815 0.25128,0.9885 -1.45425,0.9699 -1.95738,3.0645 0.14297,2.1551 -1.68997,-0.4359 -1.73414,-0.097 -1.0746,-2.3536 -1.71073,-1.853 -1.4484,0.4717 -1.33342,0.5078 -0.23978,0.9682 -1.13546,-0.4958 -0.25672,1.0757 -1.53122,0.6032 -0.98006,1.4937 -1.91337,1.832 -0.97103,2.9086 -1.03914,-0.8819 -1.28095,1.8245 0.5715,1.8532 -1.353,0.7133 -0.41359,-3.356 -2.66961,3.17 -0.55959,2.0742 -0.49117,1.5184 -2.09041,1.8631 -1.21532,2.0035 -1.92619,1.6186 -3.16703,0.9743 -1.48876,-0.1616 -0.81436,0.3115 -0.63272,0.8104 -1.76818,0.3403 -2.52546,1.3057 -0.62763,-0.5019 -1.31936,0.2355 -2.45276,1.2842 -1.7598,1.5419 -2.55294,1.1495 -1.8641,2.5267 0.58502,-2.8693 -1.8663,2.6455 -0.33176,2.2059 -0.91312,1.8552 -0.82469,0.8926 -0.94099,2.1484 0.28096,1.1524 -0.10796,1.1917 0.38729,3.0167 -0.58264,1.9155 -0.31445,-1.4913 -0.97557,-1.1578 -0.23041,3.5138 -0.63874,-1.6809 -0.15442,1.6122 0.51866,3.041 -0.69166,2.9381 0.63446,1.5561 -0.33164,1.0979 0.14353,2.4888 -0.91838,2.1099 -0.39776,2.1488 -0.13521,3.8451 -0.61983,2.2167 -1.40149,2.5508 -0.48088,1.3347 -0.79762,0.8092 -1.48427,0.4089 -0.98359,2.1098 1.05119,0.8033 1.60896,2.5617 1.68831,0.1344 1.76865,0.291 1.75981,-1.0774 1.7519,-0.9441 0.6581,0.2261 2.41919,-1.855 1.81665,-0.031 2.00777,-0.2586 1.91802,0.8594 1.74248,-0.2 2.18614,0.088 1.65086,-1.4362 1.40395,-1.9159 2.60371,-0.6812 3.58718,-1.6978 2.31571,0.45 3.48346,-1.0114 3.93082,-1.0704 4.73619,0.032 1.56964,2.0534 1.73117,0.2664 2.11255,2.5867 -0.91357,0.8289 0.6046,1.5396 0.13763,2.887 -1.14497,1.9927 1.09265,1.7413 2.57861,-2.9041 2.24803,-1.1389 3.7416,-3.0321 -1.28757,2.8274 -1.96113,1.7575 -1.56916,2.1414 -2.4496,1.9531 2.5793,-0.4671 2.65851,-2.4892 -0.96759,2.8655 -1.8468,1.7435 2.09438,0.7027 0.30701,1.6562 -0.56438,1.9618 -1.28137,2.8999 0.11499,2.4845 1.62239,1.3494 1.18799,0.4273 0.96267,0.7517 1.38028,1.2606 3.85369,-2.4634 1.7609,-0.5539 -1.65098,1.9131 1.00824,0.8392 0.83186,1.9001 2.51004,-1.4313 2.06216,-1.3201 3.21357,-1.2716 2.73725,0.1979 2.23699,-1.1412 0.67591,-1.2137 2.02237,-2.5775 2.43792,-2.7763 2.13351,-1.791 2.76995,-3.2224 1.96939,-1.8045 2.68036,-2.8833 2.94297,-1.6889 3.13097,-3.4072 2.06464,-2.7386 1.1815,-2.2466 2.55572,-3.4225 1.39278,-1.7735 1.93074,-3.472 0.43675,-3.4807 1.35317,-2.4327 0.99241,-2.2677 0.7211,-3.262 -0.63684,-3.4063 -0.57661,-1.6263 -0.86281,-2.6045 1.21999,-4.2631 -0.88879,0.5613 -0.41642,-1.8143 -1.39894,0.7925 0.56665,-4.3944 -0.64718,-2.6156 0.68938,-0.9423 -1.21906,-1.8658 -1.28521,-2.0275 -2.27609,-2.2771 -0.0493,-2.7604 0.87976,-2.0532 0.23189,-3.4589 -0.55686,-0.5269 0.12369,-2.0188 0.30152,-3.4612 0.72498,-1.76 -0.9519,-1.6295 -0.52296,-1.7385 -2.13062,1.4235 -0.28579,-3.1819 z m -42.87916,105.3572 -1.2781,-0.5233 -1.26504,1.6939 -1.01155,3.3952 -1.49438,2.4755 -1.00276,3.3334 1.28548,0.3034 0.30881,0.2612 3.53028,-2.3455 0.006,1.1164 2.50583,-2.9324 1.73709,-1.1671 3.10427,-4.4264 -1.19429,-0.434 -2.30927,0.477 -1.61737,0.3443 -1.30461,-1.5716 z m -31.73012,-181.44424 -2.28166,2.1127 -1.04212,1.43435 -1.27156,2.41576 -1.91136,3.019 -3.37871,0.84307 -1.19003,0.72128 -0.48573,3.20632 -2.18361,0.71483 -2.11278,-1.28592 -1.6413,2.51279 -0.29576,3.49403 0.39532,3.29872 1.33264,3.22934 1.40182,1.05374 0.3001,5.06737 2.32864,0.45126 1.87,-0.1959 0.96622,1.8401 3.43398,-1.339 1.36915,1.227 2.01752,0.2307 1.01704,2.3351 3.3107,-1.6851 0.35351,1.36 1.33337,-5.8263 0.1692,-3.80131 2.7737,-2.60601 -0.10787,-3.4656 0.93443,-2.60889 3.36675,-0.45866 -3.25142,-3.53432 0.44528,-1.76295 -2.21687,-3.60732 1.45543,-3.46711 2.01994,-1.32521 -0.61988,-1.86395 1.8926,-0.21277 0.10157,-1.50373 -2.44879,-1.12065 -1.94731,-1.04024 -0.26015,-1.65914 -1.61882,-1.90905 -1.14478,0.0311 -1.18534,3.00187 -1.99306,2.67874 z M 404.77226,1.16007 l -2.78479,-0.31694 -2.76862,-0.31832 -4.41991,0.39103 -0.40013,-0.37713 -4.26782,-0.0387 -2.77376,0.24815 -2.29777,0.42944 -2.75949,1.6689 -0.58057,-0.95954 -1.51901,-0.24571 -3.23612,1.07813 -3.23243,0.37286 -1.71234,0.018 -2.69505,0.48733 -0.8672,1.08495 0.63333,1.01222 -0.17703,1.34254 1.40077,1.2206 5.20795,0.0773 2.87964,0.5466 -3.36943,1.04901 -0.80867,-0.41202 -3.80492,-0.36226 -1.02237,1.68222 0.84783,1.37655 -1.49386,1.09642 -3.37214,0.604 -2.41846,1.16629 1.84292,0.77343 0.13067,2.20691 -2.75487,-1.65778 -1.14041,0.16578 -1.47694,2.3783 -3.54127,0.53655 -1.28964,1.56323 2.78682,0.37454 1.96796,0.55223 5.06434,-0.20002 3.3456,1.16842 5.86715,-1.71329 0.6307,-0.80514 -2.77736,-0.0334 0.41415,-0.75526 2.9983,-0.85089 1.81522,-1.24072 3.14629,-0.79449 2.38306,-1.04601 0.10638,-1.68437 1.52958,-0.52956 -1.70787,-0.51932 4.80697,-0.11505 1.50051,-0.62146 3.50385,-0.39488 4.66127,-2.57117 3.10353,-0.82859 4.94341,-1.86058 -3.12573,-0.10936 1.86714,-0.68464 3.9475,-0.5339 4.51129,-1.30951 0.71103,-0.88214 -1.86798,-0.98516 -2.63248,-0.52548 -3.45872,-0.38905 z m -55.08675,31.05665 3.04285,-2.04063 -5.01994,0.56247 -2.88554,1.21274 -3.872,2.84195 -2.34615,3.38421 2.43045,0.20535 -3.07449,1.37081 0.47554,1.27991 2.42913,0.72182 2.9508,1.26167 5.9002,1.22143 3.55551,-0.20411 1.6736,-0.92576 0.58521,1.24117 1.44475,0.29884 0.4583,2.22574 -1.75048,0.7768 2.9326,1.39675 1.75739,1.82861 -0.0229,1.20938 -0.4297,1.53715 -4.51478,3.15891 -1.72178,1.65691 -0.10548,1.26025 -4.24116,0.17315 -3.65843,-0.18633 -2.88145,2.42208 0.90828,1.28689 5.99282,-0.16362 0.56937,-0.99362 1.85864,1.84595 1.92722,1.94956 -1.24525,0.92422 1.48458,1.82471 3.24993,2.26066 4.81206,1.69815 0.27633,-1.22256 -1.03706,-2.2016 -1.24904,-3.12998 3.56553,3.04739 2.07546,1.07764 1.94342,-2.43605 0.45703,-3.47659 -0.33266,-0.95866 -1.81463,-1.73223 -0.94055,-2.11206 1.35358,-1.94574 2.72591,-0.283 1.23987,3.46956 1.63592,1.60136 5.48938,-3.80016 1.85077,-2.37445 -2.8888,-0.38994 -0.99913,-3.29396 -2.55117,-0.91858 -3.0591,-2.48032 4.33619,-1.38662 0.20943,-3.27929 -0.71262,-1.45807 -3.44065,-1.59327 -0.39681,-2.26054 -3.78031,0.55832 0.79983,-1.48136 -1.24396,-1.75053 -2.548,-1.938 -2.61935,1.21978 -4.13359,0.73808 1.95181,-2.16289 -0.12845,-3.62866 -5.34022,1.0622 -3.77917,2.55207 0.41506,-2.15546 z m 18.65187,80.68676 1.96133,-2.14731 0.7588,-0.92761 -1.02151,-0.19885 -2.40885,1.11633 -2.10518,1.92504 -4.26353,5.46235 -2.67593,2.02133 0.72318,0.99605 -1.88015,1.16851 0.0324,1.05312 4.60433,0.30383 2.63347,-0.10319 2.0425,0.94333 -2.18405,1.57717 1.40002,0.1789 3.67441,-2.92581 0.53686,0.47071 -1.34746,2.84316 1.39856,0.72164 1.12845,-0.0889 1.87836,-3.04115 -0.12066,-2.20253 0.23745,-1.86714 -1.83926,0.53279 1.49723,-2.53126 -2.02546,-1.16925 -1.35053,0.80743 -1.79098,-1.04455 1.21036,-1.1843 -1.33443,-0.815 -1.91159,1.11558 2.54186,-2.9904 z m 0.0712,-101.86529 0.96932,-2.17332 -1.72666,-0.73816 -1.67618,-0.81724 0.0207,-1.78262 -3.41585,-0.0308 -0.19047,0.75151 -1.67908,0.1314 -2.04313,0.89048 -2.54116,1.32429 -0.67349,1.47586 0.44728,1.15067 2.68002,0.15093 -2.0459,0.76629 -1.23891,1.14654 0.23814,1.40275 2.67527,0.61748 2.87756,-0.055 5.11863,-2.23773 2.95473,-0.832 -0.75083,-1.14133 z m -1.68287,22.53766 -1.5133,-2.0174 -3.53747,-0.60902 -0.97708,0.167 -1.02571,1.18935 0.46836,1.88805 0.33488,0.23518 2.20222,-0.32452 1.7762,0.19013 1.73629,0.21401 0.53561,-0.93278 z m -17.99906,-15.11138 -2.91932,-0.43406 -1.94213,1.26205 0.75235,1.12326 2.79766,0.63168 0.1739,1.52135 -1.36516,1.61525 -1.1544,1.8198 3.29521,1.36993 2.25168,0.59548 3.39116,0.1826 5.11166,-0.18052 1.75789,0.54262 3.02416,-0.54756 1.73385,-0.81228 0.75589,-1.38937 -0.6865,-1.353 -2.39774,-0.39999 -3.48603,0.0623 -3.16254,0.53477 -2.07464,-0.43598 -2.00698,-0.29544 -0.28062,-0.84326 -1.10372,-0.86231 1.5232,-1.18756 -0.30235,-1.15523 -3.03456,-0.21159 -0.65192,-1.15298 z m 4.86121,35.22579 1.86937,-0.92216 0.51422,-0.45384 0.92848,-1.45468 -0.82187,-1.03382 -2.00485,0.35612 -2.06232,1.84516 -0.63754,1.69157 2.21451,-0.0284 z m -0.40037,64.15302 0.15459,-0.64553 -1.88161,-1.57562 -2.75373,-1.02629 -0.91593,0.25481 1.57256,1.75955 2.65608,1.24229 1.16804,-0.009 z m -1.79858,-100.63359 0.55442,-0.35193 -0.4445,-0.66648 -2.96619,-0.2631 -0.53933,0.91573 2.61329,0.40787 0.78231,-0.0421 z m -1.20349,-1.92068 1.62005,-1.11555 -0.57533,-1.22 -0.62457,-0.26797 -1.74971,-0.25888 -1.32643,1.30668 -0.664,1.22702 0.41702,0.8221 2.90297,-0.4934 z m -4.47499,111.30655 -0.26272,-1.74463 -1.27445,1.04056 0.20172,1.2034 2.56323,1.62986 0.96896,-0.18884 1.65328,-1.38512 -2.26296,-0.005 -1.58706,-0.55053 z m -0.86195,-112.6062 0.56453,-1.56948 -2.58623,-1.4199 -2.30385,-0.62867 -1.32199,1.187 0.85704,0.87716 -2.49041,0.81143 3.1112,0.36597 1.26073,1.19665 2.02605,0.5325 0.88293,-1.35266 z m -7.32397,18.645 2.55876,-0.47816 5.1079,-2.72227 -2.37857,-1.03263 -3.26505,-0.37822 -2.45511,0.75496 -2.17751,1.30972 -1.5706,1.61412 -1.65364,2.95285 1.80203,0.28102 4.03179,-2.30139 z m 6.08811,-7.23691 0.41584,-1.06723 -0.25874,-1.23575 -3.12323,0.69049 -2.2937,1.38083 1.09273,0.99453 2.08617,0.42425 2.08093,-1.18712 z m -1.95424,-6.16789 -0.56061,0.40828 -1.94858,-0.35161 -3.4666,0.8951 -1.53358,-0.23298 -2.57355,2.45328 2.80149,-0.0329 -1.99987,1.85604 1.15626,0.65223 2.93767,-0.11484 3.15506,-2.32428 1.65077,-1.64247 0.38154,-1.56589 z m -9.05274,38.26154 -1.17023,-0.38153 -2.86545,3.05423 -2.12543,2.65529 -2.8622,1.55062 2.86812,-0.12026 -0.68525,2.04628 3.97945,-1.55186 3.15073,-1.66893 0.0762,1.61656 2.52241,1.04481 2.43426,-0.95009 -0.66805,-1.23225 -1.61036,0.16145 0.89597,-1.63392 -1.50354,-1.22392 -1.3051,-1.32319 -0.4904,-0.97403 -1.34333,0.44889 0.70221,-1.51815 z m 3.63411,12.7789 -0.0788,-0.73907 -0.77292,-0.13303 -1.40973,0.97371 -0.24023,0.23022 -0.10018,1.06158 0.71507,0.35509 1.88676,-1.7485 z m -7.04963,-42.08603 -3.49499,1.39125 -0.33159,2.26888 -2.93566,-0.69749 -1.08102,1.02931 1.63712,2.87049 -0.0348,1.34775 1.36694,0.41622 3.95222,-1.02686 3.06335,-2.91309 -1.14956,-1.61055 3.0393,-1.4263 0.49681,-0.97397 -3.29074,0.1667 -1.23742,-0.84234 z m 2.9741,39.8173 0.46714,-0.6599 -2.69731,-0.23335 -2.50435,1.46696 -0.16582,0.95851 1.35903,0.1843 3.54131,-1.71652 z m -0.25022,-55.95163 -1.08244,-0.76782 -0.58736,-0.20046 -2.62843,0.78766 -0.57891,0.43094 2.37993,0.20182 2.49721,-0.45214 z m -4.19791,2.70944 1.61769,-0.8781 -1.44471,-0.65032 -2.50081,0.1318 -2.4081,0.86917 0.9159,1.17567 3.82003,-0.64822 z m -2.61562,4.88407 1.23729,-1.5285 -1.1128,-0.49354 -2.72268,1.00798 -1.34985,3.17456 -2.38847,-0.48126 -0.47761,-2.0852 -2.90305,-1.42799 -2.47892,0.72434 -5.82331,2.79635 1.42922,0.76179 7.33293,0.29667 -4.82384,1.0724 -1.01446,1.03579 2.43796,0.15864 5.48116,-0.98732 5.80111,-0.0108 2.61142,-1.41334 1.46553,-1.56518 -1.44066,-0.2747 -1.95757,0.40495 0.6966,-1.16567 z m -2.55463,24.70542 0.0389,-1.35884 0.0329,-0.67356 -0.51217,-0.68542 -0.9877,-1.09566 -2.51563,1.31832 -2.46492,0.88222 1.04637,1.69907 1.75478,-0.23327 1.49667,1.21378 2.11072,-1.06664 z m -1.42166,-15.39233 -0.47041,-0.81401 -2.27502,-0.069 -1.02547,0.39549 0.12462,2.4719 3.64628,-1.98435 z m -2.33911,-14.80358 -2.56365,0.26353 -2.15445,-0.24685 -5.58267,1.66249 -5.5061,2.00201 0,0 1.11829,0.85703 2.9739,-0.22654 4.43336,-1.0318 1.56731,-0.017 2.49063,-0.94973 3.22338,-2.31318 z m -14.11912,14.268 -0.90324,-0.77156 -6.47541,1.46642 -2.58684,1.12946 -4.12657,2.20842 1.84894,1.14265 2.55504,0.22752 -5.22415,0.85644 -0.47504,1.26677 2.25953,0.32106 3.80875,0.12673 2.39933,1.089 -2.77867,0.32948 -2.18948,-0.39595 -3.16616,0.26681 -1.48325,0.21849 -0.72713,2.77031 1.88725,-0.19517 1.37666,1.13203 -0.67353,1.62988 3.37503,0.0193 4.86256,-0.0342 4.33824,-0.77982 2.20038,2e-4 2.12848,1.17542 2.6729,0.81903 1.71459,-1.15133 0.0828,-1.36644 3.08897,10e-4 1.54185,-1.42612 -1.60236,-1.83406 -1.248,-1.87809 1.78831,-2.33321 2.21159,-3.23385 -0.44388,-1.46127 -1.04576,-0.66049 -1.91733,0.33259 -2.36855,3.38403 -2.23125,1.25113 2.03492,-3.27586 -0.32514,-1.18658 -3.61096,1.44487 -0.43456,-1.82473 -4.63699,0.59502 2.49817,-1.39574 z m -16.44273,4.39353 1.63308,-1.3713 4.59702,-1.97586 6.49025,-1.78737 2.90772,-0.58564 -0.10248,-1.48589 -0.40461,-1.05437 -3.70127,-0.57989 -1.36251,-0.8683 -5.72948,-0.0779 -0.95797,2.03692 -3.92783,1.86957 -3.94674,2.12844 -2.33038,1.23215 1.61157,2.07597 -0.81899,1.47315 6.04262,-1.02972 z m -77.74386,76.3672 0.515,-2.06587 -1.10298,-1.71425 0.18981,-1.80607 0.19514,-1.30614 -1.73658,-0.61419 -0.90049,-0.69355 -1.63924,-1.04214 -0.83185,0.79423 -0.68107,2.02372 1.73136,0.90353 -0.38088,1.05603 1.0136,1.47041 -0.28049,1.33721 2.44025,2.0277 1.46842,-0.37062 z m -4.43932,-22.41554 -1.11372,1.08925 -0.98117,1.57769 0.0814,1.22168 -0.63072,1.70622 -0.11482,1.76243 0.82556,0.11414 0.59978,-3.04485 4.07821,-3.86655 -2.19658,0.0181 -0.54799,-0.57813 z m 600.66531,134.76605 0.14603,-2.18937 0.82138,-1.69894 -0.95532,-1.40334 -1.5976,-0.0215 -2.74856,1.17353 -0.96302,1.74829 0.79515,3.21163 2.51372,1.07298 1.98822,-1.89331 z m -525.09371,-12.00595 -2.32577,-1.30962 -2.13671,-0.10999 -2.30498,-0.33482 -0.74183,0.37513 -2.13705,0.27756 -1.53832,0.65883 -1.39894,0.76392 -0.85577,1.28718 -1.66826,1.07228 1.10469,0.38151 1.43391,-0.35253 0.56676,-0.87084 1.14435,-0.0139 2.33899,-1.81596 2.64466,0.27158 -1.20309,0.86997 0.81841,0.73506 3.46397,0.67034 0.68094,0.78191 2.38135,1.0434 1.57709,-0.0949 0.28701,2.07107 0.77087,1.06688 1.73439,0.28979 0.96606,0.96579 -2.18087,1.95993 4.01074,-0.24702 1.85735,0.33372 1.88741,-0.1311 1.90815,-0.40953 0.46032,-0.83294 -1.84715,-1.52412 -2.00662,-0.20192 0.36951,-1.00663 -1.51657,-0.778 -0.91389,0.0244 -1.42794,-1.67078 -1.91992,-2.29681 -0.81253,-0.87505 -2.6335,0.32934 -0.83722,-1.35314 z m 247.58485,-111.13902 -0.86154,-1.73676 -3.21724,1.18247 0.41811,1.44086 2.52282,1.94328 1.13785,-2.82985 z m -228.38354,128.69055 0.002,1.03379 0.6403,0.58547 1.4414,-2.43059 0.98813,-0.49425 0.30459,0.87823 1.09587,-0.19772 0.58861,-0.64225 0.89019,0.19008 1.29447,-0.12274 1.21779,0.80601 1.22353,-1.43377 -1.18564,-1.3412 -1.21541,-0.15631 0.23783,-1.06407 -1.5251,0.0373 -0.321,-1.28094 -0.74204,0.073 -1.50288,-0.95992 -2.15497,-0.068 -0.43693,0.60258 -2.31277,-0.62084 -1.66161,-0.19986 -0.77393,0.97572 1.66069,0.60191 -0.22346,1.36995 1.04186,1.58355 -1.11179,0.77601 -2.05262,-0.33602 -2.48031,-0.5584 -0.41228,1.15287 1.3281,1.15379 1.39354,-0.64197 1.65789,0.29778 1.34501,-0.21959 1.76103,0.65039 z m 696.83494,139.13038 2.10334,-0.9196 0.74877,-2.1281 -2.06419,1.223 -0.94235,0.165 -1.66795,0.7741 -0.23475,1.6473 2.05713,-0.7617 z m -3.52581,2.0969 -0.93276,0.6526 -1.02676,-0.644 -1.58991,1.3879 -0.46042,1.9164 1.27144,0.6705 1.89181,-0.436 1.30746,-2.215 -0.46086,-1.3324 z M 1.389316,365.03586 0.990989,362.91076 0.5,363.16016 l 0.748798,2.1281 0.140518,-0.2524 z M 493.91437,87.99997 l -2.65246,0.28508 -1.74183,-0.28171 -1.81436,2.8135 -0.95145,3.5914 1.06241,1.77872 0.0101,3.35248 1.27491,-1.63934 0.71326,0.96091 -0.87345,1.55092 0.51301,0.9432 2.75428,0.62086 0.0338,0.0491 1.49024,2.14577 -0.37653,2.01815 -0.004,-3.7e-4 -3.42446,-0.32447 -0.50491,2.27629 1.22412,1.87746 -2.47204,1.06935 0.62123,1.38638 3.65509,0.59072 0.0184,0.003 -2.12377,0.74524 -3.57617,3.64001 1.24267,0.69942 1.70669,-1.32203 2.18724,0.40109 1.59818,-1.62562 1.09354,0.68677 4.03958,-0.95145 3.1638,0.0324 2.11202,-1.82269 -0.9512,-1.79818 1.18456,-1.0209 0.26171,-2.2243 -2.81805,-0.66014 -0.66286,-1.37351 -1.4124,-3.9623 -1.56183,-0.55945 -1.98151,-4.10562 -0.17415,-0.36576 -2.32732,-0.22653 2.07171,-3.11247 0.61951,-2.83248 -2.42573,-0.0229 -2.26878,0.47007 2.44718,-3.756 z m -6.35381,14.16967 -2.35727,-2.16162 -1.9109,0.13296 -1.80321,1.61394 -3.2702,2.70226 1.00175,3.54454 -2.09859,3.6181 3.28923,0.54831 4.24157,-2.03125 1.87733,-3.09734 -0.287,-2.48618 1.31729,-2.38372 z m 74.87658,65.18224 -0.35042,1.48762 3.2557,0.6386 0.0271,0.57565 3.74511,-0.34754 0.22553,-1.03345 -1.3848,0.43838 0.004,-0.60774 -1.96971,-0.2209 -2.0167,0.2256 -1.53595,-1.15622 z M 462.75795,1.20726 l -10.8921,-0.60667 -5.02155,0.23623 -2.35933,1.22066 -4.80878,-0.26098 -5.78341,1.90772 -0.99127,1.44358 2.44854,1.91994 -2.41289,-1.1842 -1.86479,-0.3226 -2.66719,-1.35842 -4.89744,1.73895 -0.90077,-1.09383 -4.37646,-0.1107 -4.71992,0.37428 -3.99727,0.7513 -0.48564,1.51375 -2.35835,0.27371 -6.77013,2.10139 -2.29333,1.26019 3.11571,1.36849 -1.46408,1.18255 -6.72773,1.33311 -7.00514,1.29673 -1.23395,1.27009 2.43745,1.53581 6.06206,1.20804 -3.29325,0.0158 -4.91445,0.82738 1.21045,2.24101 1.10315,1.16235 4.1149,-0.0401 4.41753,0.0809 3.28929,0.41068 3.18439,2.17981 -0.86035,1.41587 1.36351,1.41358 0.0259,3.69527 0.10178,2.41536 0.39379,1.31741 -3.63287,3.08964 1.05348,0.91529 2.0256,-0.39999 1.02335,1.24228 2.07104,2.31089 -3.27212,-1.07349 -1.70386,-0.0262 -1.61724,1.78794 -1.02384,2.33191 1.73486,1.22278 1.8989,-0.41434 1.24704,-0.466 2.67068,-1.1242 -1.60642,2.66592 -1.38769,1.40478 -3.41652,1.15264 -3.72602,3.93048 0.73652,1.27116 -1.8311,2.50468 1.34393,3.30313 -1.02683,3.11145 0.10051,2.29495 1.85419,4.45162 0.12221,3.43846 1.34736,1.98279 4.2017,0.18342 2.18739,2.94972 3.0673,-0.1024 2.14981,-3.34811 1.85139,-2.83365 0.0395,-2.73757 4.24532,-2.65412 1.75826,-2.23854 0.81246,-2.42571 2.4068,-2.08276 3.11411,-0.71499 2.90155,-0.76664 1.41083,-0.10071 4.94596,-2.30188 3.73918,-3.58018 2.36171,-1.28069 2.12427,0.0403 5.91675,-1.06086 5.80428,-2.62011 5.67568,-2.9214 -2.53497,-0.23779 -4.88034,-0.24805 2.57806,-1.77671 -0.0831,-2.36481 1.81512,2.03689 1.13777,1.3644 3.4428,-0.60712 -0.13849,-2.80554 -1.93249,-2.16285 -2.23686,-0.91373 1.13677,-0.90923 3.24083,1.5007 0.29892,-1.54389 -1.71514,-2.38832 2.4642,0.0346 2.59856,-0.49437 0.81878,-1.21389 -1.73438,-1.4433 3.90646,-0.18715 -1.6396,-3.01729 1.88651,-0.29261 0.18782,-2.95177 -2.67996,-1.88374 2.94618,-1.05433 2.59479,-0.10682 -1.50746,-2.29052 0.75635,-3.85604 1.72998,-2.2309 2.30972,-2.50474 -3.49698,-0.2097 4.98412,-0.54089 1.00224,-0.78848 6.4968,-2.41413 -0.61711,-1.48954 -4.27284,-0.70866 -7.39047,1.26617 -4.08277,1.23579 2.13624,-1.98893 -0.88868,-1.25581 -3.11205,1.01797 -4.00961,-1.25671 -5.24409,0.29106 -0.50114,-0.62644 7.85485,-0.20602 5.54409,-0.0745 2.97959,-1.29879 -8.01727,-2.8496 z m 419.43493,295.25398 -0.42822,-1.46857 -4.55481,-1.62599 -1.46846,1.27938 -3.84679,0.94198 1.17152,1.94403 2.52578,0.73582 1.06215,2.3465 4.16314,0.0345 0.20237,1.04816 -2.02538,-0.0911 -3.11687,1.3938 2.08599,1.95091 -0.0788,1.7101 0.56236,1.4506 1.11067,-0.3344 0.94469,-1.9062 4.05033,3.6989 2.31915,0.3622 5.24899,3.4436 1.06473,3.3634 0.2891,4.3418 -1.90588,1.0629 -1.59325,3.201 3.592,-0.03 0.83905,-1.1158 2.76603,0.875 2.06635,3.3451 2.89052,0.2522 1.47977,0.717 2.41382,-1.3128 0.0478,-2.9724 1.89571,-1.2814 2.53644,-1.0868 3.45853,1.863 0.97215,3.5815 1.26061,2.2757 1.76638,2.6585 2.73264,0.7119 2.33216,0.5452 0.50283,1.0809 1.90807,-0.2134 0.52077,-1.1672 -2.69198,-1.8228 0.96977,-0.7389 -2.05932,-0.766 0.3943,-1.799 -1.6332,0.083 -1.21546,-4.3647 -2.18158,-2.7307 -0.31112,-2.7179 2.65205,-0.3769 -0.46167,-2.1707 -4.48396,-2.6009 -0.23067,-2.393 -1.42702,-2.0593 -1.81955,-2.0977 -5.12102,-2.3686 -4.80411,-2.81304 -3.02291,-0.78911 -2.06046,-1.44382 -2.39267,-1.40433 -2.52904,-0.01 -3.3361,2.37695 -2.55409,4.18245 -2.83449,-2.39336 -0.60982,-6.39191 z m 0.56382,20.00882 0.17332,-1.8824 -0.54929,-1.1655 -0.70403,1.3241 -0.62787,1.4087 -0.009,2.973 1.71726,-2.6579 z m -11.24186,-12.4342 -3.08065,-1.16676 -3.51823,0.13499 -0.76686,2.13767 1.95967,0.1556 1.61693,-0.243 2.35833,0.3494 2.31518,1.6388 -0.88437,-3.0067 z m -4.84213,-16.54495 -0.29643,-1.59368 -1.68724,-0.33504 -0.26057,-2.12803 -0.9047,1.42334 -0.51101,3.11461 0.87083,4.97973 1.12825,2.47133 0.80218,-0.46633 -1.15746,-2.06107 0.4312,-2.37319 1.46939,0.38095 0.11556,-3.41262 z m -4.38228,17.88945 -0.6481,-1.2894 -2.88387,0.1624 0.47598,1.6753 1.92763,0.7329 1.12836,-1.2812 z m -5.44699,-18.97476 -0.5145,-0.86444 -2.76375,2.82223 -3.27022,0.16949 -3.59407,-0.52671 -2.23959,-1.13045 -2.38402,2.86096 -0.58936,1.58378 -1.47483,5.78376 -0.47365,3.04374 -1.25477,2.50359 0.77716,2.63221 1.19389,0.038 0.24986,3.7066 -1.03782,3.5205 1.13869,1.142 1.83958,-0.5327 0.22845,-5.4973 -0.0359,-4.48207 1.93875,-1.15574 -0.36344,3.74681 1.93346,2.2763 -0.45398,1.4824 0.64033,1.0739 2.87844,-1.4598 -1.57564,3.1403 1.01445,1.3708 1.59734,-1.1132 0.19409,-2.5358 -2.31115,-4.4799 0.57811,-1.3201 -2.52524,-4.95687 2.53789,-1.48345 1.27206,-2.25748 1.2322,0.56425 0.25389,-1.77928 -5.31981,1.30243 -1.56319,1.73914 -2.50387,-3.4248 0.41001,-2.90792 2.48387,-0.55554 4.74084,-0.19722 2.74209,0.75325 2.13528,-0.74601 2.23809,-3.85006 z m -4.92254,44.73586 2.22159,-2.839 2.50247,-1.0543 3.14919,-1.6284 1.1636,-1.0286 -1.01421,-0.5053 -0.93883,0.4652 -1.98594,0.088 -2.5329,0.8161 -0.44081,0.9048 -2.97867,1.4692 -1.51593,2.323 -0.43068,1.3038 0.27385,0.4712 2.52727,-0.7853 z m -3.35713,-7.9915 -2.68781,1.3582 -1.91357,0.253 -1.64414,-1.1879 -2.33107,0.7517 -0.14698,1.4012 3.70098,0.5545 4.36969,-0.9988 0.6529,-2.1319 z m -7.17192,8.1065 0.30557,-1.0309 -0.83644,-1.1884 -1.33754,-1.2016 -2.72243,0.6926 3.39653,2.7717 1.19431,-0.043 z m -6.97543,-8.3808 -0.89951,1.3357 -1.55276,-8e-4 -1.21256,2.1753 1.51441,0.062 2.01422,-0.4711 3.35177,-0.6992 -0.52329,-1.6411 -1.77968,0.2778 -0.9126,-1.039 z m -25.80919,-5.4329 -0.28489,-1.3442 -1.15479,-0.3024 -2.1852,-1.4981 -3.42717,-0.2633 -2.20242,3.556 2.57192,0.3114 0.36091,1.62 5.02916,1.6268 1.21919,-0.4515 2.04418,0.4066 3.14338,1.4957 2.58064,0.725 2.90573,0.3336 2.56927,-0.056 2.94807,1.5883 3.37812,-1.3854 -3.24322,-2.3232 -4.18056,-0.7647 -0.81466,-2.4724 -5.11169,-1.8957 -0.7474,1.5475 -5.39857,-0.4543 z m -7.70507,-3.5793 0.44472,-5.7989 0.90757,-4.6607 -1.31008,-2.38197 -2.07948,-0.34137 -0.94316,-2.09399 -0.44073,-2.61273 -1.02095,-0.0981 -1.61822,-1.30152 1.15059,-3.05242 -2.17337,-1.70633 -1.67966,-3.12395 -2.43859,-2.5474 -2.89311,-0.047 -2.80618,-3.98548 -1.62267,-1.53601 -2.30117,-2.50097 -2.69003,-3.60386 -4.43374,-0.67317 -1.83585,-0.13146 0.3482,1.87807 3.14571,4.05099 2.21628,2.05976 1.58021,3.16288 2.61687,2.32586 1.09225,2.89571 0.85633,3.19287 2.49153,3.09996 2.08896,5.21623 1.33997,2.79863 2.04743,3.04937 1.12043,2.2707 3.49213,3.0849 2.20123,3.1529 3.14658,-0.042 z M 471.70537,60.63827 l -3.25582,-0.288 -3.49872,1.80607 -2.35527,-1.02031 -3.33413,1.84145 -2.6896,-2.41034 -3.09971,0.45663 -1.78885,2.23409 4.0558,0.88866 -0.0954,1.02121 -3.69954,0.6048 4.10755,1.78166 -2.27892,1.49797 5.54499,1.20047 2.63598,0.55474 1.86529,-0.60708 6.21719,-2.30215 2.94052,-2.61945 -2.00066,-2.39708 0.72934,-2.24334 z m 68.82281,98.14677 -1.93854,0.32077 -2.60986,0.40045 -3.03703,-0.29543 -0.27029,1.78912 3.70956,1.74261 1.34062,0.36518 2.06338,1.29473 0.43718,-1.79452 -0.45382,-1.0751 0.7588,-2.74781 z m -16.68304,-10.24691 -1.22516,1.08528 -1.4029,-0.16685 0.6533,1.98566 0.25477,4.19607 1.0057,0.91772 1.00266,-1.16685 1.17499,0.21305 0.165,-4.60313 -1.62836,-2.46095 z m -237.55109,78.84716 1.96228,-0.0214 -0.31739,-0.99689 -1.34648,-0.90038 -1.81786,-0.36868 -0.6131,-0.13705 -1.20376,0.22242 -0.45767,0.8163 1.39201,1.35272 1.47102,0.61539 0.93095,-0.58247 z m 572.36668,-81.26114 -2.45519,-3.86365 -0.23428,-4.01907 -1.94035,-3.02712 -4.79131,-4.98344 -1.99095,0.98114 0.60636,2.45505 3.16851,4.12532 1.42203,4.73046 -0.46088,1.60503 -1.28452,4.13009 -2.67583,-1.61386 1.29026,6.92778 -3.05864,-0.50147 -4.29422,1.6031 -0.44876,2.73607 -1.49907,2.17292 -0.1176,2.47845 -1.80614,1.36894 2.28281,2.48637 2.1325,0.95493 0.98304,3.45212 1.91746,1.36373 0.91153,-1.73116 -1.42368,-6.56241 -3.94448,-2.53393 2.89555,-0.34273 2.0327,-2.04925 3.88072,-1.24913 1.60589,2.80669 2.44169,1.28925 1.23113,-4.661 4.21638,-0.67612 2.13674,-2.10896 -0.27486,-2.79889 -1.54554,-1.84225 -0.909,-3.103 z m -11.17847,-26.91083 -2.65417,-0.99636 -5.54686,-3.43325 1.54042,2.91741 3.14228,5.13367 -2.27017,0.51325 0.90512,2.96235 2.88397,3.61865 2.5291,-0.37227 -1.62105,-4.18552 5.40669,2.05596 -0.68953,-3.91571 2.58352,-1.45335 -3.66875,-4.04227 -0.37202,1.76417 -2.16855,-0.56673 z m 2.08039,39.79642 -2.25928,-0.63551 -0.19391,1.67955 -1.64734,-0.30093 -0.23098,2.37417 0.88031,1.78836 2.18015,0.92482 -0.44355,-2.2686 0.83745,-0.99648 1.65153,1.11374 0.22646,-2.41734 -1.00084,-1.26178 z m -118.5315,110.39765 1.13385,-1.04432 0.20097,-3.78624 -1.62864,-3.76443 -1.50976,-2.53846 -2.11468,-1.98837 -0.8374,5.89806 0.82695,5.20404 1.50345,2.87105 2.42526,-0.85133 z m -89.75754,70.40067 -0.53708,-2.3398 -0.64962,-1.5098 -0.88821,-1.5251 -1.03074,1.5698 -0.1887,2.1215 -1.71485,2.4355 -1.16471,-0.4367 0.27898,1.5113 -0.96801,1.7648 -2.46531,2.1448 -1.74584,1.9893 -1.23283,0.033 -1.08382,0.625 -1.61437,0.7036 -1.40342,0.1135 -0.54398,2.2275 -1.12901,1.9563 -0.0416,3.2439 0.33725,2.225 0.49673,1.6742 -0.45405,2.2368 -1.57282,2.6468 -0.11977,1.1702 -1.32978,0.59 -0.74226,2.5264 -0.005,2.5322 0.67087,2.817 -0.16214,3.1184 0.54225,1.8671 2.01614,1.2956 1.45955,0.9262 2.5592,-1.4436 2.31948,-0.792 1.72886,-4.0595 1.61607,-4.8783 2.42476,-6.6478 1.85568,-4.8377 1.48492,-4.0958 0.44455,-2.9862 0.84136,-0.8047 0.37673,-1.4932 -0.31653,-2.6218 0.61005,-1.0381 0.78219,2.0809 0.5805,-1.0324 0.41514,-1.69 -0.59716,-1.6606 -0.14003,-4.2535 z m -102.1728,-327.83047 -4.04592,-0.80405 -1.26746,1.05763 -2.39141,-0.80231 -4.46891,1.02414 1.98714,1.57117 2.21754,0.0327 0.48362,0.95057 4.70479,0.51097 4.38185,-0.4814 1.72986,-1.89937 -3.3311,-1.16002 z m 1.27448,8.84324 -2.51239,-0.74095 -0.95204,-1.28858 -3.13544,0.7442 1.21512,1.09224 -0.91361,0.91039 3.04038,0.75907 3.25798,-1.47637 z m -11.67442,-6.24473 -2.17181,-1.18751 -2.2258,0.1446 -0.38411,1.19152 -2.19326,0.0695 -1.02272,-1.20757 -4.0365,1.27619 1.53456,2.71107 3.48258,2.90561 2.56366,0.98013 -1.28893,1.24845 3.8541,2.07848 1.9657,-0.15945 0.25943,-2.88355 1.29333,-0.67276 0.38005,-2.5625 3.67064,-1.41881 -5.68092,-2.51342 z m 411.5824,430.36506 2.05541,-3.6104 -1.02348,-1.3195 0.36206,-2.3985 -1.0919,0.1711 -1.10178,2.9483 -0.85116,3.7747 -0.18017,1.801 -0.60693,0.6779 -1.1881,2.7696 -1.95847,2.527 -2.86674,2.9044 -2.72838,1.0523 -1.25088,1.377 1.01157,1.963 -1.1531,2.2313 -4.05049,2.8843 0.38798,0.7149 -0.5497,1.0606 3.02606,-1.1868 3.4296,-2.3926 2.66155,-1.8977 0.95249,-0.6503 1.26099,-1.6873 1.60465,-1.058 1.58712,0.396 2.62985,-2.1252 3.48372,-3.3437 -0.73996,-0.6591 -2.5135,1.2487 -1.23065,-0.5866 -0.73162,-1.5915 2.07249,-3.0084 -0.16234,-1.2456 -2.1944,2.6577 1.64821,-4.3986 z m -18.87483,17.7222 0.9475,-1.7005 -3.05982,1.473 -2.19868,2.049 -1.66758,0.802 -3.48766,2.6182 -3.05262,1.699 -3.61089,1.6086 -2.82258,1.128 -2.00197,0.4444 -6.04623,3.1438 -3.70917,2.5031 -0.95526,1.3991 1.96423,0.6726 0.12259,1.446 1.7786,0.4365 2.04811,-0.8381 3.21628,-1.3133 4.81956,-3.4725 2.89152,-2.3021 3.11003,-1.0496 1.63944,0.266 0.94611,-1.9337 2.48624,-1.2906 3.9551,-2.4906 2.3973,-1.5893 1.45147,-1.5875 0.8267,-1.7153 -2.90214,1.2462 0.91382,-1.6524 z m -63.1679,-203.43588 -0.36695,-1.4216 -0.47942,-1.94628 -2.5249,-1.77917 0.55026,2.98818 -1.98218,0.14932 -0.25632,1.73528 -2.02863,1.10396 -1.19717,-1.7252 -1.37523,1.4858 -1.66312,1.12006 -0.78347,3.26555 0.57372,1.1185 1.89024,-2.18726 1.34638,0.12341 0.72526,-1.61727 1.97875,1.79166 -0.68703,1.8531 1.04208,2.78417 3.51554,2.19605 0.66876,-1.82924 -1.15486,-2.8406 1.1348,-1.99001 1.4024,3.93562 0.63605,-3.56901 -0.39069,-2.17392 -0.57427,-2.5711 z m -4.50944,-14.44004 -1.01497,-1.41532 -2.70368,0.002 2.2001,2.89032 0.26743,1.46013 -1.70023,-0.25906 0.794,2.32259 0.87603,0.17675 0.50422,2.71289 1.21819,-0.90132 -1.03508,-2.36538 -0.25547,-1.29446 2.32435,0.96225 -1.47489,-4.29143 z m -3.16102,7.39468 -0.26544,-3.68563 -1.54348,3.77703 0.0841,-2.60549 -1.51739,0.26902 0.0268,2.39702 -0.56152,1.09595 -0.44579,1.04421 2.06898,2.61998 0.7462,-1.16152 0.56833,-2.45708 0.83919,-1.29349 z m -13.47857,-31.2763 -1.66606,0.0709 -0.0765,3.49006 1.03034,5.97487 -1.38265,-1.21079 0.86039,3.64589 0.74547,1.64626 1.79717,2.14538 0.0964,-1.39006 1.0018,0.85431 -0.68679,1.00331 0.15013,1.58531 1.54289,0.79856 2.43384,-0.65215 2.19176,2.23671 0.46697,-1.43368 1.39251,1.98401 2.50684,1.81769 -0.016,-1.78409 -1.07617,-0.8941 -0.11657,-2.10318 -3.88667,-2.00563 -1.14671,0.49783 -1.55809,-0.36969 -1.21807,-3.02564 -0.19688,-3.10004 1.36276,-1.33287 0.0191,-3.20923 -1.58231,-2.69841 0.066,-1.60333 -0.48875,-0.95851 -0.60442,1.03236 -1.96176,-1.01205 z m 6.66019,25.23541 0.71682,1.81453 0.0902,1.96494 0.3515,1.78261 1.62467,-1.20181 1.06306,-1.66958 -0.1904,-1.60889 -1.7858,0.0577 -1.87009,-1.13954 z m -1.7438,-4.48631 -1.2123,-1.34767 -2.41933,-0.0617 1.9279,2.86941 1.5132,1.87462 0.19053,-3.33469 z m -6.40187,14.59556 1.1543,-2.66141 1.57977,-2.15237 -0.94399,-3.10576 -0.9413,3.83637 -1.3517,2.68413 -1.7566,2.40355 -1.09014,2.69704 3.34966,-3.70155 z m 106.77587,63.98988 0.53298,-1.1509 -1.17796,-1.44 -1.10135,-2.6569 -0.76878,-0.9568 -0.19289,-1.2373 -0.42803,0.3924 0.30531,3.1635 0.95259,2.6574 1.03612,1.622 0.84201,-0.3934 z m -6.81294,-9.7596 -0.18386,-2.1492 -0.9924,-1.3343 -1.03411,-1.7438 -1.14086,-1.0012 -0.92199,-0.9144 -1.48374,-1.16434 -0.83412,0.98302 1.99387,1.22782 1.51963,1.7726 1.20248,1.3655 0.55175,1.6008 0.34815,2.4402 0.9752,-1.0827 z m -3.62754,3.9651 1.17497,-2.4914 0.23667,-2.2813 -0.52433,-0.6844 -1.70603,0.052 0.12804,2.4253 -1.70641,1.435 -0.92593,1.387 -1.64633,0.2806 -0.0825,-2.177 -0.4156,0.094 -0.60098,1.9519 -1.5806,0.2889 -2.48678,-0.6446 -0.35203,1.2552 1.50669,1.1696 2.19926,1.236 1.5034,0.039 1.55369,-0.925 1.65008,-0.9624 0.55863,-1.1411 1.51611,-0.3076 z M 827.16021,95.69804 l -4.09986,-3.41942 -3.17549,-3.44401 -3.90346,-3.24093 -2.74366,-2.20589 -0.40305,0.61647 2.34294,1.48232 -0.31272,1.8699 4.27312,4.78932 4.34296,3.27534 4.09788,4.73841 1.83077,2.75666 3.492,3.8208 2.63218,3.5328 2.83393,2.97336 -0.81727,-2.99069 3.41363,1.94712 -1.99361,-2.5304 -5.15363,-3.38627 -3.10206,-5.34135 4.13842,0.72152 -7.69302,-5.96506 z m -24.6506,-74.75906 -3.53393,-1.79089 0.50807,1.42852 1.86463,0.79259 1.16123,-0.43022 z m -60.28323,-4.83826 -4.68639,-0.26249 -3.28021,-0.0839 1.16393,0.95758 4.41669,0.76863 2.64214,-0.0532 -0.25616,-1.32654 z m -1.49917,6.73012 -1.34716,-0.74238 -3.75879,-0.8375 -1.40266,0.50932 0.34852,1.34315 0.48803,0.12208 3.49233,-0.0733 2.17973,-0.32137 z m -8.53689,-7.03346 -7.45468,-0.87312 -3.88827,0.31906 -1.02047,0.75995 2.26991,2.08512 5.70474,1.54446 1.33055,-0.98626 5.35628,-0.5951 -2.29806,-2.25411 z m -68.63502,-2.31163 -1.06512,-1.2901 -5.73269,-1.48134 -1.31407,-0.12349 -0.77301,0.43364 1.9719,4.30115 6.91299,-1.83986 z m -9.54049,-1.22361 -2.85316,-2.8245 -6.72062,-2.78347 -4.50097,-1.39491 -2.22251,0.88403 -1.34379,2.36742 2.61269,0.5043 3.52144,2.19364 3.70491,1.04501 5.05871,0.6266 2.7433,-0.61812 z m -47.58243,31.21325 -4.90187,-2.63787 -1.84152,-2.81822 0.9647,-3.40144 0.66957,-3.43329 3.25873,-3.46756 3.98604,-1.85401 4.60545,-1.95794 0.33448,-1.09569 -2.05576,-1.25929 -2.78752,0.59147 -1.89405,1.37842 -4.96737,0.88834 -4.07259,2.41788 -2.68345,1.95448 1.315,1.52142 -2.46122,3.16453 1.79987,0.34785 -1.94198,3.05856 0.98926,1.86079 -1.45341,0.81133 1.15144,1.83766 3.69916,0.77579 1.22813,1.498 6.14698,0.16979 0.91193,-0.351 z m -29.01999,-32.926 0.27373,-0.53355 -2.61502,-0.66963 -1.0765,0.60133 -0.40466,0.83729 -0.80313,-0.90327 -2.22616,0.10892 -2.57891,0.70337 3.36736,0.005 -0.29382,1.08553 2.05303,0.7544 1.45674,-0.61639 -0.0957,-0.56263 1.19975,-0.29986 1.74327,-0.51088 z m -376.91295,10.57959 2.57302,-0.36181 0.81245,-0.33943 -0.40125,-1.12928 -1.07804,-0.22607 -0.3813,0.0757 -3.53393,1.79089 2.00905,0.19 z m -16.63849,12.96693 3.17435,-1.75246 1.30929,-3.58227 0.56101,-2.81924 -20.02394,11.18278 2.90453,-1.03793 1.70331,-1.49667 2.85885,-0.2933 -2.14887,0.99498 -0.96002,1.18502 2.2584,-0.007 0.65594,0.80281 -1.78687,1.34103 0.53356,1.29262 -0.54483,1.28408 1.25129,0.39511 1.58522,-0.49154 4.69789,-2.88858 2.90607,0.20692 3.53455,-0.98126 1.64094,-3.32356 -3.1403,-1.24644 -3.22454,2.16012 0.25417,-0.92557 z m 648.3515,170.53847 -0.30286,-6.16455 -0.297,-2.30995 -1.59975,-1.05064 -1.18405,2.98831 -0.39359,3.80213 1.16839,2.78636 2.37651,3.12043 0.23235,-3.17209 z M 178.02803,70.83552 l 3.40259,-1.31489 0.4265,-1.16864 -0.93793,-0.43467 -1.55701,0.3371 -3.02646,0.89229 -1.53939,1.61516 -0.0602,1.03081 3.29188,-0.95716 z m -2.80268,-27.4382 -1.85633,1.11976 -0.0488,0.34587 1.61892,0.11398 -0.25695,0.67775 0.17204,0.91557 2.14828,-0.40098 0.62828,-0.30668 -0.91695,-0.7308 -0.0131,-1.06508 -1.42979,0.10811 -0.0456,-0.7775 z m -7.74005,14.1156 1.51117,-1.25883 -0.91093,-0.55721 -2.37381,0.20766 -0.19355,1.07447 0.27117,0.82312 1.69595,-0.28921 z m -96.343054,155.69799 1.08262,-0.57162 1.354586,-0.78916 0.142825,-0.21997 -0.190112,-1.47154 -0.244323,-0.57582 -0.352444,-0.38797 -0.78278,-0.76424 -0.177119,-0.0909 -0.293273,0.36628 -0.101888,0.81237 -0.704099,0.62651 -0.294664,0.44194 -0.07191,1.5132 -0.46853,1.13103 0.474641,0.63145 0.626469,-0.65155 z m 0.809031,-6.44497 0.405416,-0.4689 -0.467138,-0.6777 -0.8056,-0.46209 -0.394066,0.32649 -0.07203,0.25533 0.183661,0.35462 0.142856,0.89131 1.006898,-0.21906 z m -1.002444,-2.30685 -1.247942,-0.28144 -0.390506,0.478 1.387624,0.23508 0.250824,-0.43164 z m -2.161369,-0.78709 -0.24287,-1.40694 -0.119003,-0.27975 -0.934212,0.49923 0.03931,0.17106 -0.02297,0.95023 0.873207,0.22049 0.170741,0.0682 0.235798,-0.22251 z m -3.436831,-3.06744 0.333211,-0.95221 -0.575258,-0.14068 -0.568629,0.36269 -0.259031,0.28446 0.591115,0.82105 0.478592,-0.37531 z m 901.522027,161.6398 -0.94826,-2.5448 -0.45376,1.1221 0.32408,1.9099 1.07794,-0.4872 z m -0.0335,-6.6047 -0.94334,-1.3836 -0.88371,3.2332 0.0418,1.1896 0.63922,-0.1887 0.57437,0.58 0.57167,-3.4305 z m -442.24984,-210.38518 -0.55915,-2.98025 -1.55885,1.33754 -0.45548,1.29532 0.6771,2.33748 1.17762,0.70187 0.71876,-2.69196 z m -13.11508,8.09314 0.069,-0.19377 -0.019,-0.0686 -0.23562,-0.39984 -0.42796,-0.14753 -0.52447,0.0432 -0.0189,0.0924 -0.003,0.20906 0.0636,0.0611 0.25743,0.0442 0.79318,0.40002 0.0462,-0.0404 z m -2.93256,0.18647 0.032,-0.16172 0.0812,-0.0864 0.0183,-0.099 -0.0817,-0.062 -0.007,-0.0574 0.0828,-0.12837 -0.0997,-0.0326 -0.64574,0.2175 -0.3039,0.18646 -1.04863,0.84231 -0.002,0.14265 0.0634,0.11011 0.16539,0.0342 0.10623,0.18272 0.19358,-0.18385 0.14803,-0.089 0.17083,0.0486 0.11758,0.1107 0.0651,0.34766 0.0779,0.0875 0.25774,0.0576 0.44582,0.23254 0.20808,-0.11161 0.2285,-0.18603 0.1192,-0.31472 0.1389,-0.27367 0.16511,-0.24894 0.11705,-0.24578 -0.0362,-0.22069 -0.13642,-0.0556 -0.1378,-0.0325 -0.25696,0.10494 -0.24656,-0.11569 z m -4.32797,3.03621 0.12643,-0.0482 0.32919,-0.36996 -0.028,-0.16893 -0.12588,-0.11688 -0.55314,0.14039 -0.11738,0.17278 -0.006,0.17185 -0.11173,0.0291 -0.0833,0.24186 0.0868,0.0864 0.39125,0.0753 0.0918,-0.21368 z m 0.38793,0.85733 -0.004,-0.10222 -0.24671,-0.0361 -0.15694,-0.19565 -0.0486,0.0994 -0.0386,0.0982 0.0106,0.14059 0.25531,-2.2e-4 0.17066,0.0421 0.0582,-0.0461 z" />
</svg>
